<svg width="35" height="33" viewBox="0 0 35 33" fill="none" xmlns="http://www.w3.org/2000/svg">
<path d="M20.8 14.7778C20.8 16.6804 19.3229 18.2222 17.5 18.2222C15.6771 18.2222 14.2 16.6804 14.2 14.7778C14.2 10.9725 17.1543 7.88889 20.8 7.88889C24.4457 7.88889 27.4 10.9725 27.4 14.7778C27.4 20.4857 22.9749 25.1111 17.5 25.1111C12.0251 25.1111 7.6 20.4923 7.6 14.7778C7.6 7.16064 13.5023 1 20.8 1C28.0977 1 34 7.16064 34 14.7778C34 24.2976 26.6206 32 17.5 32C8.37943 32 1 24.2976 1 14.7778" stroke="white" stroke-width="2" stroke-miterlimit="10"/>
</svg>
