<svg width="30" height="30" viewBox="0 0 30 30" fill="none" xmlns="http://www.w3.org/2000/svg">
<path fill-rule="evenodd" clip-rule="evenodd" d="M15 11.25C15.6904 11.25 16.25 11.8096 16.25 12.5V25C16.25 25.6904 15.6904 26.25 15 26.25C14.3096 26.25 13.75 25.6904 13.75 25V12.5C13.75 11.8096 14.3096 11.25 15 11.25Z" fill="white"/>
<path fill-rule="evenodd" clip-rule="evenodd" d="M22.5 3.75C23.1904 3.75 23.75 4.30964 23.75 5V25C23.75 25.6904 23.1904 26.25 22.5 26.25C21.8096 26.25 21.25 25.6904 21.25 25V5C21.25 4.30964 21.8096 3.75 22.5 3.75Z" fill="white"/>
<path fill-rule="evenodd" clip-rule="evenodd" d="M7.5 18.75C8.19036 18.75 8.75 19.3096 8.75 20V25C8.75 25.6904 8.19036 26.25 7.5 26.25C6.80964 26.25 6.25 25.6904 6.25 25V20C6.25 19.3096 6.80964 18.75 7.5 18.75Z" fill="white"/>
</svg>
