<svg width="9" height="228" viewBox="0 0 9 228" fill="none" xmlns="http://www.w3.org/2000/svg">
<g clip-path="url(#clip0_72_1916)">
<path d="M7.5033 0C7.5033 2.97923 1.5166 2.97923 1.5166 5.98392C1.5166 8.98861 7.5033 8.96315 7.5033 11.9424C7.5033 14.9216 1.5166 14.9216 1.5166 17.9263C1.5166 20.931 7.5033 20.9055 7.5033 23.9102C7.5033 26.9149 1.5166 26.8894 1.5166 29.8941C1.5166 32.8988 7.5033 32.8734 7.5033 35.878C7.5033 38.8827 1.5166 38.8827 1.5166 41.862C1.5166 44.8412 7.5033 44.8667 7.5033 47.8459" stroke="#CECECE" stroke-width="3" stroke-miterlimit="10"/>
<path d="M7.5033 47.8459C7.5033 53.5752 1.5166 53.5752 1.5166 59.3045C1.5166 65.0338 7.5033 65.0338 7.5033 70.7376C7.5033 76.4414 1.5166 76.4669 1.5166 82.1962C1.5166 87.9255 7.5033 87.9255 7.5033 93.6547C7.5033 99.384 1.5166 99.384 1.5166 105.113C1.5166 110.843 7.5033 110.843 7.5033 116.572" stroke="#CECECE" stroke-width="3" stroke-miterlimit="10"/>
<path d="M7.5033 116.572C7.5033 126.426 1.5166 126.426 1.5166 136.281C1.5166 146.135 7.5033 146.135 7.5033 156.015C7.5033 165.895 1.5166 165.869 1.5166 175.749" stroke="#CECECE" stroke-width="3" stroke-miterlimit="10"/>
<path d="M1.55654 173.712V175.24C1.55654 175.24 1.07761 177.888 2.78382 178.983C3.82151 179.645 4.50998 182.166 4.50998 184.865V227.975" stroke="#CECECE" stroke-width="3" stroke-linejoin="round"/>
</g>
<defs>
<clipPath id="clip0_72_1916">
<rect width="9" height="228" fill="white"/>
</clipPath>
</defs>
</svg>
