<?xml version="1.0" encoding="UTF-8"?>
<svg id="Layer_2" data-name="Layer 2" xmlns="http://www.w3.org/2000/svg" viewBox="0 0 475.6 548.31">
  <defs>
    <style>
      .cls-1 {
        fill: #5df45a;
      }

      .cls-2 {
        opacity: .46;
      }
    </style>
  </defs>
  <g id="images">
    <g class="cls-2">
      <path class="cls-1" d="m200.6,441.07c.56-.27,1.31-.4,1.64-.85,1.53-2.04,3.2-1.59,5.04-.55.7.4,1.52.57,2.45.91-.03-2.37-5.49-2.93-1.32-5.81-1.55-.88-3.07-1.67-4.48-2.63-.25-.17-.24-1.31.04-1.55.56-.49,1.41-.97,2.12-.95,3.05.1,7.06-2.92,7.82-5.74.27-1.02,1.19-2.21,2.13-2.64,2.38-1.09,4.93-1.8,7.72-2.77-.41-1.25-.79-2.38-1.26-3.8-1.01.21-2.01.71-2.88.55-1.77-.34-3.49-.99-5.17-1.65-.23-.09-.38-1.27-.14-1.5.54-.51,1.32-.99,2.04-1.05,1.87-.14,3.77,0,5.64-.12.17-.01.57-1.39.32-1.79-.68-1.1-1.77-1.96-2.43-3.07-.22-.37.22-1.62.63-1.79,4.99-2.03,10.03-3.94,15.05-5.87.31-.12.67-.11.95-.27,1.05-.62,2.08-1.28,3.12-1.92-.69-.92-1.21-2.11-2.12-2.7-1.83-1.19-2.35-2.91-1.97-4.71.41-1.96,1.75-3.37,4.05-3.41.94-.01,1.88-.11,2.96-.54-2.88-1.11-5.57-2.21-5.49-5.77-.65.06-.92.02-1.12.12-1.58.79-2.97.73-3.76-1.03-.77-1.73.38-2.75,1.58-3.77,1.18-1,2.27-2.13,3.35-3.24.27-.28.65-.86.54-1.07-1.74-3.19,1.54-4.18,2.74-5.99.41-.62,1.93-.51,2.94-.73-.14,1.09-.06,2.26-.47,3.24-.5,1.21-1.41,2.25-1.92,3.52,1.59-.74,3.2-1.14,3.02-3.64-.09-1.2,1.38-2.53,2.17-3.79.44-.7,1.05-1.32,1.35-2.06.55-1.36.55-2.53-1.49-2.37-.49.04-1-.03-1.49-.09-1.85-.24-3.52-.71-3.49-3.07.02-1.98,1.44-3.25,3.82-3.45.49-.04.99-.04,1.61-.06-.3-.85-.68-1.59-.82-2.38-.23-1.33-.87-1.78-2.24-2.12-1.33-.33-3-1.35-3.5-2.51-.78-1.83.38-3.52,2.06-4.62.77-.5,1.56-.96,2.34-1.44-.05-.23-.11-.45-.16-.68-.85-.06-1.71-.08-2.55-.19-2.03-.27-3.75-.91-3.97-3.35-.04-.41-.1-.9-.34-1.18-1.63-1.91-3.24-3.86-5.01-5.64-1.51-1.52-1.47-2.89-.02-4.3,1.13-1.09,1.7-1.99.52-3.6-1.43-1.94.32-3.08,1.76-3.85,1.92-1.03,3.99-1.76,6-2.63-.05-.28-.1-.55-.15-.83-2.09.23-4.2.41-6.28.71-1.15.17-2.31.89-3.38.73-1.12-.16-2.12-1.08-3.18-1.66.57-.95.93-2.32,1.78-2.76,1.16-.61,2.68-.56,4.06-.71.82-.09,1.68.09,2.48-.06,3.69-.7,7.34-1.71,11.05-2.14,2.73-.32,5.57-.13,8.3.27.96.14,1.73,1.57,2.7,2.53.2-.28.64-1.05,1.22-1.69,1.65-1.81,4.2-1.64,5.22.43.31.62.32,1.71-.03,2.28-1.01,1.65-5.2,2.24-7.48.69-.18,1.59-.71,2.99-.32,4.05.29.79,1.77,1.14,3.14,1.92.22,1.25-.51,2.17-2.29,2.53-1.86.38-3.73.82-5.51,1.49-.51.19-.71,1.23-1.05,1.89.68.3,1.35.79,2.06.85,2.87.25,5.78.17,8.6.65.84.14,2.06,1.78,1.97,2.62-.08.8-1.54,1.65-2.56,2.12-.85.39-1.94.28-3.37.43.67,1.25.89,1.86,1.27,2.34,2.07,2.62,1.11,5.37-2.16,6.29-.85.24-1.63.73-2.44,1.1.03.24.06.47.09.71,1.46.49,2.89,1.14,4.39,1.44,2.65.54,3.55,2.22,2.28,4.58-.23.43-.56.92-.53,1.36.15,2.79-1.68,3.94-3.83,4.93-.54.25-1.38,1.04-1.3,1.19.33.68.91,1.28,1.5,1.79.28.25.8.2,1.18.35,3.07,1.19,3.17,1.77,1.71,4.69-.78,1.57-1.2,3.38-1.46,5.12-.27,1.81-.47,3.44-2.57,4.05-.66.19-1.24.64-1.86.98.08.25.17.5.25.74,2.81-.81,5.57-1.85,8.43-2.33,1.59-.26,3.34.42,4.96.67-.26-4.13.65-5.6,4.96-7.65.28-.13.69-.31.91-.21,1.35.62,2.3.07,2.27-1.21-.01-.59-1.2-1.38-2-1.65-.99-.34-2.15-.14-3.2-.34-2.43-.44-3.86-3.57-2.44-5.56.78-1.09,1.87-2.22,3.08-2.71,1.71-.69,2.05-1.59,1.71-3.25-.27-1.31-.19-2.69-.29-4.64l-5.36-3.06c1.02-1.5,1.83-2.71,2.65-3.92-.11-.19-.23-.39-.34-.58,2.91-.26,5.85-.35,8.72-.86,1.01-.18,2.13-1.2,2.69-2.14,1.14-1.92,2.35-2.39,4.5-1.58,1.63.61,3.53.52,5.61.79-1.17-2.14-2.18-3.95-3.15-5.78-.19-.36-.32-.78-.35-1.19-.21-2.76,2.51-6.23,5.28-6.75,1.47-.27,3-.33,4.4-.8,1.7-.57,3.28-1.48,5.05-2.31-.34-.53-.64-.91-.85-1.34-2.26-4.55-1.38-5.85,3.06-7.04,5.17-1.38,10.59-1.87,15.76-3.25,3.9-1.05,7.58-2.9,11.69-4.52-2.06-1.87-3.84-1.21-5.55-.75-4.57,1.23-9.12,2.48-13.68,3.76-2.01.56-3.47.18-3.96-2.08-.48-2.21.87-3.37,2.65-3.86,4.86-1.34,9.77-2.47,14.65-3.74.84-.22,1.66-.64,2.42-1.09,1.39-.82,2.72-1.73,4.2-2.69-.19-1.04-.27-2.39-.71-3.61-.24-.66-1.03-1.29-1.72-1.55-.64-.24-1.47.08-2.22.08-2.92.02-4.44-1.61-4.27-4.52.04-.62.08-1.25.1-1.52-4.37.07-8.56-.13-12.68.31-2.92.31-5.74,1.51-8.62,2.24-1.83.47-3.71,1.19-5.54,1.11-1.75-.07-1.91.69-1.73,1.85.38,2.4-.62,3.24-3.29,2.89.55-1.14,1.03-2.13,1.51-3.13.96-2.02,2.01-4.02,2.87-6.09,1.14-2.76,1.86-3.08,4.43-1.65.83.46,1.66.94,2.77.94-1.67-1.48-3.3-2.99-5.04-4.38-.22-.18-1.22.13-1.43.47-1.57,2.55-3.02,5.18-4.54,7.77q-2.79,4.78-8.49,3.25c.69.59.98.9,1.33,1.13,2.93,1.99,3.02,3.23.83,6.02-1.09,1.38-1.96,2.98-2.66,4.6-1.24,2.86-2.27,3.55-4.35,1.84-2.84-2.32-5.54-.95-8.03.03-2.54,1-2.33,3.71-2.33,6.44,1.87.12,3.7.24,5.52.35-.03,2.78-2.54,4.93-5.63,4.83-3.7-.12-5.81-2.87-5.53-7.46-.67.71-1.22,1.28-1.75,1.88-1.02,1.15-2.31,1.32-3.25.24-.62-.71-.95-2.02-.8-2.97.22-1.4.74-2.9,1.58-4.02.86-1.16,2.12-2.23,3.44-2.79,1.94-.82,4.06-1.02,4.84-3.56.24-.78,1.48-1.51,2.4-1.76,2.48-.66,4.29-2.23,4.81-4.73-3.46,1.43-5.28-1.28-7.54-2.8.72-5.16,5.42-5.71,8.79-7.13,5.09-2.14,10.63-3.19,15.95-4.81,1.4-.43,2.63-1.43,4.04-1.82,1.79-.49,3.68-.61,5.52-.92.39-.07.89-.13,1.12-.39,2.02-2.32,4.81-2.7,7.59-3.28,1.24-.26,2.28-1.38,3.51-1.81,2.91-1.01,5.89-1.83,8.83-2.76.7-.22,1.67-.44,1.96-.96,2.26-4.11,5.99-5.96,10.27-7.07.21-.05.37-.3.55-.45-2.33-3.9-1.45-6.17,3.03-7.28,7.06-1.75,14.16-3.29,21.23-4.99,1.1-.26,2.11-.89,3.17-1.35,2.66-1.18,5.36-2.27,7.96-3.57,1.06-.53,1.83-1.63,2.85-2.27.86-.53,1.9-.76,2.86-1.12.12.17.24.34.37.51.51-1.06,1.02-2.12,1.54-3.18-.13-.17-.27-.34-.4-.51-1.75.69-3.94.96-5.14,2.19-1.27,1.3-2.3,1.33-3.84,1.33-2.02,0-4.03.53-6.05.83-.11-.19-.22-.37-.33-.56.87-.58,1.67-1.34,2.62-1.72,3.26-1.3,6.58-2.42,9.85-3.7,1.37-.54,2.65-1.32,3.97-1.99-.09-.24-.17-.48-.26-.72-1.57.25-3.26,1-4.68.65-2.99-.74-5.78-1.16-8.94-.6-2.89.52-4.39-2.46-2.94-5.07.24-.43.52-.83.77-1.21-.14-.22-.2-.4-.31-.49-1.46-1.16-3.6-2.05-2.99-4.4.77-2.93,3.52-3.78,5.96-4.82.73-.31,1.59-.33,2.39-.48.05-.24.1-.48.15-.72-.81-.23-1.67-.78-2.41-.64-3.64.68-7.28,1.4-10.84,2.41-1.55.44-2.67.47-4.21-.18-1.57-.66-3.52-.5-5.31-.52-1.4-.02-2.83.41-4.21.3-.8-.07-1.55-.81-2.32-1.25.61-.8,1.07-2.01,1.87-2.33,2.53-1,5.2-1.65,7.81-2.47,2.72-.86,5.45-1.71,8.13-2.7.59-.22.98-.96,1.47-1.47-.14-.25-.27-.5-.41-.75-1.05.26-2.11.48-3.15.78-2.52.71-5.5-1.79-4.94-4.32.15-.69,1.08-1.54,1.81-1.72,4.09-1.06,8.19-2.16,12.35-2.81,2.32-.36,4.8-.04,7.14.34.8.13,1.68,1.31,2,2.19.15.43-.85,1.34-1.43,1.94-.33.33-.87.45-1.35,1.19,2.21.06,4.55-.32,6.58.31,2.16.67,4.02,2.38,6.48.93.08-4.26-.18-4.42-4.5-4.5-1.43-.03-2.92-.58-4.25-1.19-.58-.27-1.27-1.73-1.1-1.93.95-1.06,2.03-2.24,3.31-2.74,1.88-.73,3.96-1.08,5.98-1.26,1.31-.12,2.68.34,4.24.58.55-1.36,1.33-1.66,3.33-1,2.27.75,4.99.15,7.51.13.54,0,1.09-.01,1.61-.11.9-.17,1.78-.41,2.66-.64.23-.06.45-.37.64-.34,4.14.69,7.47-1.95,11.23-2.81,3.11-.71,6.08-2.1,9.03-3.37,2.14-.92,4.74-.3,5.6,1.62.83,1.86-.22,3.71-2.83,4.34-5.61,1.36-11.25,2.54-16.89,3.76-3.72.81-7.45,1.59-11.19,2.29-.47.09-1.02-.37-1.55-.53-.68-.21-1.36-.36-2.08-.55.26,1.98.46,3.55.65,5.05,1.75.54,3.61,1.45,5.53,1.58,1.43.1,2.92-.82,4.4-1.24,1.74-.49,3.5-.93,5.32-.92,2.71-1.75,5.41-3.52,8.14-5.23.4-.25,1.12-.52,1.4-.34,1.78,1.18,3.7,2.27,5.14,3.8,1.4,1.48.56,3.74-1.56,4.31-4.81,1.3-9.7,2.29-14.51,3.6-2.9.79-5.7,1.95-8.95,3.08.74.72,1,.91,1.18,1.15.68.95,2.1,2.33,1.85,2.8-.77,1.42-1.98,2.94-3.39,3.59-3.14,1.45-6.54,2.34-9.77,3.61-.84.33-1.46,1.22-2.58,2.21,1.27.23,2.1.53,2.93.51,4.95-.13,9.9-.26,14.85-.55,2.79-.16,5.58-.54,8.34-.97.75-.12,1.38-1.02,2.14-1.14.86-.14,1.8.19,2.71.31-.18.69-.24,1.45-.58,2.04-1,1.74-2.68,2.14-4.57,2.53-3.08.64-6.07,1.72-9.06,2.7-.7.23-1.29.82-2.21,1.44,1.73.36,3.16.31,4.11.95.88.6,1.76,1.99,1.68,2.95-.08.95-1.2,2.25-2.16,2.6-2.16.79-4.53.99-6.76,1.6-7.05,1.95-13.71,4.75-20.23,8.17-3.81,2-7.54,4.6-12.01,5.27-.28.04-.53.34-.78.51,1.35,2.34,3.3,2.72,4.63.72,1.22-1.84,2.09-1.83,3.35-.21.21.27.74.43,1.11.4,2.19-.15,4.39-.22,6.54-.61,3.36-.62,5.49.69,5.97,4.11.33,2.39,2.19,2.03,3.62,2.01,3.36-.05,6.71-.36,10.07-.56.56-.03,1.13-.07,2.01-.12-.61,2.09-2.14,2.77-3.69,3.41-1.97.82-3.98,1.56-5.91,2.49-1.32.63-.94,1.51-.35,2.67.62,1.22,1.21,2.89.86,4.08-1.06,3.62-.69,5.95,4.23,6.09.24,0,.47.1.69.15.39,2.5.78,4.96,1.21,7.71-2.02-.98-4.5-1.96-6.73-3.35-1.82-1.13-3.23-.73-4.07,1.26-1.34,3.19-2.93,6.29-4.52,9.38-.93,1.82-2.39,2.78-4.8,1.85,4.21,3.96-.17,6.27-1.42,9.13-.41.93-1.13,1.71-1.7,2.56.28.2.56.4.85.6.87-1.43,2.03-2.77,2.55-4.32.98-2.89,2.14-5.17,5.9-3.94-1.45-4.88.47-9.32,5.02-12.9,1.73-1.36,5.59-.29,7.21,2.14,1.15,1.73,1.8,3.79,2.65,5.72.93,2.12,1.82,4.2,4.02,5.44.79.44,1.22,1.51,1.82,2.29l-.54.65c-1.18-.12-2.37-.25-3.65-.38,1.16,2.03,4.84,2.74,7.37,1.58-.85-2.69,1.37-4.88,5.15-4.7,1.94.09,3.56-.03,5.02-1.46.47-.46,1.4-.43,2.08-.73.55-.25,1.05-.64,1.55-1,.95-.69,1.89-1.41,2.83-2.11.39.55,1.23,1.24,1.11,1.63-.9,2.78-1.92,5.52-3.06,8.21-.6,1.42-1.59,2.68-2.26,4.08-.33.68-.56,1.57-.39,2.26.08.36,1.16.43,1.71.76.61.36,1.42.77,1.62,1.34.49,1.41.69,2.93,1.06,4.64,1.73-1.09,2.83-1.77,4.45-2.78.9,2.76,1.72,5.27,2.56,7.84-3.86,2.02-6.68.84-7.76-3.52-1.47,1.07-2.61.83-3.75-.63-.56-.73-1.77-1.14-2.75-1.32-2.46-.44-4.56-1.1-5.9-3.59-.51-.95-2.11-1.36-3.27-1.92-2.6-1.25-5.29-2.32-7.81-3.73-.89-.5-1.35-1.76-2.02-2.65-.52-.68-.99-1.79-1.63-1.91-2.65-.52-5.37-.74-7.65-1.02.11,1.75.2,3.29.34,5.56,2.06.35,4.78.78,7.48,1.31.89.18,1.82.5,2.58.99,1.46.94,2.83,2.02,4.2,3.09,1,.78,1.84,1.82,2.93,2.39,1.03.54,2.31.6,3.47.89,1.07.27,2.24.37,3.19.87,2.04,1.07,3.99,2.31,5.93,3.54,1.83,1.16,3.6,2.41,5.54,3.71-.41.39-.8.62-.95.96-.43.98-.77,2-1.14,3,.91.11,1.83.24,2.75.32.41.03.84-.11,1.24-.06,1.64.22,3.65.02,4.77.91.62.5-.23,2.85-.43,4.43-5.08-.12-9.69-.64-13.96-3.39.48-.84.83-1.46,1.41-2.46-1.01-.04-1.86-.33-2.46-.06-1.89.86-3.65,1.75-5.82.65-.54-.27-1.57.25-2.31.56-2.97,1.27-4.14,1.06-5.95-1.51-1.35-1.92-3.25-1.78-4.91-1.12-2.01.81-2.76.09-3.3-1.64-.22-.71-.55-1.39-.88-2.06-.8-1.57-1.97-2.04-3.44-.92-1.35,1.04-2.57.92-3.86-.06-1.41-1.08-2.79-1.03-4.34-.11-.85.51-1.99.54-3.22.84-.06-3.02-1.66-2.61-4.01-2.63-5.47-.05-9.67,2.9-14.35,4.79-3.11,1.26-6.35,2.2-9.56,3.18-1.06.32-2.21.31-3.84.51.1,1.13-.06,2.51.46,3.55.22.43,1.9.28,2.89.16,1.47-.18,2.92-.57,4.38-.88,2.1-.45,4.37.54,5.02,2.29.84,2.26-.24,3.79-2.19,4.63-2.73,1.17-5.55,2.15-8.38,3.09-4.81,1.61-9.64,3.13-14.46,4.71-.28.09-.5.39-1.16.94,1.2.85,2.16,1.68,3.26,2.25,1.98,1.04,3.98,2.05,3.64,4.75-.32,2.52-2.3,3.41-4.44,3.68-2.12.27-4.3,0-6.43.21-.91.09-1.8.74-2.63,1.25-1.23.76-2.43,1.59-3.59,2.46-1.14.85-2.15,1.9-3.35,2.66-.77.49-1.78.6-2.53.83.2,1.17.42,2.42.72,4.19.31.04,1.15.17,1.99.23,2.06.14,3.83,1.78,3.95,3.7.12,1.98-1.78,4.29-3.51,4.92-1.74.64-3.32,1.74-4.94,2.67-1.34.76-2.64,1.58-3.85,2.3-.83-.02-1.68-.05-2.52-.07.19.92.15,1.99.62,2.72,1.33,2.05.59,5.09-2.11,6.19-3.58,1.45-7.32,2.52-11.04,3.57-2.78.79-5.68,1.15-8.43,2.01-.88.27-1.45,1.52-2.16,2.32.83.3,1.66.82,2.5.86,2.65.13,4.55,1.39,4.86,3.43.33,2.17-1.11,3.96-3.88,4.71-3.33.9-6.68,1.74-10.22,3,4.18,1.05,5.25,3.76,4.41,7.62.73-.06,1.16-.23,1.48-.1.6.25,1.12.67,1.68,1.01-.47.4-.9,1.06-1.43,1.15-1.05.18-2.15.05-3.23.06-.78,0-1.55.03-3.11.06,1.9,2.06,2.86,3.98,5.25,4.29,2.11.27,3.57,1.31,4.84,3.1.67.94,2.34,1.22,3.59,1.7,1.39.53,2.65.91,3.22-1.27.15-.57,2.08-1.33,2.68-1.02,1.88.98,3.55,2.37,5.19,3.74.24.2.05,1.38-.31,1.71-.46.42-1.4.74-1.94.55-1.81-.64-3.53-1.53-5.37-2.15,1.31,1.08,2.63,2.17,4.33,3.58-1.66.6-2.9,1.12-4.17,1.49-1.64.48-3.56-.05-4.92,1.69-.18.22-2.56-1.21-3.86-1.98-1.15-.68-2.25-1.48-3.32-2.28-.89-.66-2.07-1.25-2.49-2.16-1.03-2.24-2.51-2.64-4.65-1.87-.94.34-1.98.85-2.88.7-1.08-.18-2.47-.75-2.95-1.59-.37-.64.14-2.32.81-2.93,1.3-1.2,1.81-2.08.35-3.45-.4-.37-.75-1-.76-1.52-.02-.76.09-1.71.54-2.22.26-.29,1.36,0,2,.25.65.26,1.2.79,1.9,1.27.98-1.47.72-2.48-.6-3.23-1.01-.57-2.01-1.29-3.1-1.53-.57-.12-1.41.56-1.99,1.05-.8.67-1.37,2.01-2.2,2.17-2.35.43-3.24,2.1-3.63,3.95-.54,2.55-2.27,3.41-4.39,4.22-4.76,1.81-9.46,3.78-14.19,5.68,0,.24.02.48.03.73.63.18,1.26.53,1.88.5,2.31-.14,3.41,1.26,3.82,3.17.44,2.08-.63,3.59-2.6,4.27-1.8.62-3.68,1.03-5.52,1.56-.29.08-.51.36-.98.7.55.54.99.96,1.42,1.4,2.43,2.5,1.68,5.31-1.72,6.17-2.26.57-4.55,1.01-6.82,1.49-6.23,1.33-12.47,2.58-18.68,4.02-3.59.83-7.13,1.93-10.65,3.02-.76.24-1.35.99-2.4,1.8,2.01.99,3.69,1.54,5.02,2.55.95.71,2.17,2.19,1.97,3.04-.27,1.21-1.53,2.62-2.71,3.11-3.63,1.49-7.44,2.55-11.16,3.85-2.4.84-5.45.37-6.85,3.42-.2.43-1.51.35-1.77.4.16,1.84.87,3.68.26,4.78-.55,1-2.54,1.2-3.89,1.76-1.21.49-2.43.95-3.63,1.47-1.77.77-.74,2.05-.58,3.2.19,1.38-2.5,4.37-4.49,5.02-4.09,1.33-8.22,2.55-12.29,3.96-2.7.94-5.34,2.05-7.93,3.25-.5.23-.82,1.18-.96,1.85-.65,3.15-1.89,4.39-5.02,5.03-4.14.84-8.27,1.78-12.41,2.63-1.35.28-2.18.68-2.24,2.37-.1,2.56-1.88,3.92-4.4,3.51-2.08-.34-3.85-.08-5.67,1.11-1.28.84-2.91,1.17-4.41,1.63-6.58,2.04-13.18,3.98-19.72,6.15-1.07.36-2.29,1.47-2.66,2.52-.75,2.11-2.1,2.96-4.13,3.46-5.06,1.25-9.73,3.26-13.5,7.11-.96.98-2.55,1.49-3.95,1.86-2,.53-4.2.41-6.11,1.12-4.23,1.6-8.32,3.6-12.5,5.34-3.67,1.53-7.28,3.35-11.1,4.3-3.99.99-8.19,1.35-12.31,1.53-4.53.2-8.36,2.45-12.55,3.63-5.75,1.62-11.4,3.64-17.11,5.42-2.46.77-4.53-.2-5.1-2.21-.57-1.99.41-3.63,3.05-4.26,3.11-.74,5.79-2.39,8.66-3.53,3.46-1.38,7.46-1.39,11.2-2.09,1.42-.26,2.8-.77,4.18-1.18,2.46-.74,4.91-1.51,7.37-2.24,2.43-.73,4.61-1.75,5.91-4.13.29-.54.89-1.12,1.46-1.28,6.11-1.77,12.19-3.78,18.41-5,2.18-.43,3.23-1.14,4.01-2.88.13-.3.36-.7.26-.93-1.13-2.7.8-3.46,2.67-4.02,6.36-1.91,12.74-3.8,19.16-5.51,1.76-.47,2.64-1.11,2.51-2.98-.16-2.2,1.3-3.09,3.15-3.53,1.68-.4,3.43-.58,5.03-1.19,1.09-.42,2.31-1.2,2.88-2.17,1.17-2.02,2.78-3.03,5-3.19,3.03-.21,6.23-1.77,8.97,1.07.21.21,2.01-.49,2.03-.82.15-2.87,2.37-3.07,4.34-3.69,4.04-1.27,8.06-2.62,12.11-3.84,1.78-.54,2.66-1.61,3.28-3.37.41-1.18,1.5-2.33,2.58-3.04,2.68-1.77,5.43-3.22,6.11-6.92.32-1.74,1.76-3.28,2.78-5.07-2.47.17-4.38-.08-4.86-2.5-.37-1.87,1.3-3.62,3.8-3.69,8.32-.26,15.68-4.17,23.57-6.07,1.14-.27,2.01-1.62,3.01-2.47-1.29-.13-2.64-.56-3.86-.33-1.69.32-3.29,1.11-4.92,1.73-1.82.69-3.42.53-3.99-1.57-.56-2.05.76-3.05,2.56-3.57,3.4-.97,6.85-1.83,10.19-2.99.85-.29,1.76-1.44,1.97-2.35.8-3.35,2.42-4.23,5.79-2.92,1.35.53,2.56.69,3.74-.77.76-.93,2.17-1.49,3.4-1.85,3.24-.93,6.54-1.67,9.81-2.48,2.67-.66,3.43.03,3.17,2.89-1.25,2.21-2.51,4.41-3.76,6.61.9-.91,1.69-1.88,2.26-2.98.6-1.17.99-2.45,1.47-3.68Zm111.34-99.93c4.85-3.04,5.03-3.12,7.18-3.26-2.23-1.67-4.52-3.27-6.95-4.6-2.42-1.32-4.98-2.37-7.48-3.53.48.82,1.48,1.19,1.72,1.83.7,1.89,2,2.1,3.78,2.36,3.01.43,4.14,3.8,2.34,6.17-.24.32-.4.69-.6,1.04Zm79.73-145.44c-.14.3-.28.6-.42.9.09.49.08,1.03.3,1.44.43.81.95,2.15,1.53,2.2,1.41.12,2.88-.35,4.3-.69.05-.01.03-1.57-.29-1.72-1.75-.83-3.6-1.45-5.41-2.14Zm-32.62-2.08c2.81.75,8.14-1.21,8.58-3.16q-7.83,1.13-8.58,3.16Zm-59.1,137.84c1.52-1.87,4.8-1.48,3.44-4.72-1.53.24-2.92.45-4.4.68.28,1.17.54,2.26.96,4.04Zm53.85-89.08c.02.44.04.89.06,1.33,1.81-.21,3.61-.42,5.42-.63,0-.26,0-.52,0-.78-1.83.03-3.66.06-5.49.08Z"/>
      <path class="cls-1" d="m294.61,39.53c-.73.12-1.48.39-2.19.33-2.84-.23-3.48-1.32-3.17-5.52-2.65.58-5.2,1.2-7.76,1.7-2.84.55-5.72.86-8.53,1.52-1.48.35-2.78,1.4-4.25,1.81-5.07,1.42-10.18,2.67-15.26,4.06-1.51.41-3.02.94-4.39,1.67-.5.27-.88,1.31-.83,1.96.36,4.42-.91,6.89-5.02,8.13-1.41.42-3.18-.36-5.29-.67-.25.99-.64,2.51-1.12,4.39,1.82-.05,3.28-.4,4.56-.06,1.82.47,3.95,1.03,5.16,2.3,1.52,1.6,1.18,4.06-.22,5.78-1.26,1.54-2.85,3.02-4.6,3.93-3.13,1.63-3.97,2.59-3.55,6.12.07.57.69,1.3,1.24,1.56,1.85.88,3.25,1.87,3.14,4.27-.03.74.78,1.57,1.32,2.27,1.62,2.12,1.42,3.93-.97,5.12-2.06,1.03-4.35,1.58-6.51,2.43-2.31.91-4.56,1.97-6.87,2.85-1.52.58-1.87,1.62-1.3,2.96.66,1.56,1,2.95-.35,4.37-.27.28.06,1.13.11,1.72.61-.1,1.23-.14,1.81-.31,1.1-.33,2.2-1.07,3.24-.99.7.06,2,1.59,1.86,1.85-.81,1.54-1.72,3.25-3.08,4.24-1.48,1.09-3.52,1.39-5.25,2.18-.71.32-1.45.91-1.84,1.57-1.03,1.73-1.87,3.58-2.8,5.42q3.92,3.17,2.03,7.67c2.76-.34,5.26-.63,7.75-.96.74-.1,1.62-.62,2.16-.36,1.07.52,2.41,1.28,2.74,2.25.21.62-.98,2.25-1.88,2.63-3.21,1.34-6.66,2.1-9.82,3.51-3.17,1.41-6.15,3.25-9.1,5.09-.82.51-1.24,1.67-2.2,3.04,3.17-.29,5.52-.51,7.88-.73,0,0-.07-.05-.07-.05-.57.51-1.07,1.31-1.73,1.48-5.1,1.29-10.27,2.34-15.35,3.7-3.29.88-4.86.75-5.41-1.06-.54-1.76.99-3.14,4.11-4.05,1.31-.39,2.64-1.05,3.69-1.9,2.45-1.99,4.74-4.18,7.15-6.34-2.54-1.24-3.44-3.56-1.67-6.66-2.68-1.72-5.42-1.32-8.06-.8-1.64.33-3.13.17-3.39-1.43-.15-.93.86-2.56,1.79-3.04,3.21-1.68,6.66-2.89,9.91-4.5.97-.48,1.61-1.64,2.35-2.52.2-.23.23-.61.32-.93.44-1.49,2.55-2.7.62-4.59-1.13-1.11-.4-3.59-2.9-3.89-.35-.04-.95-1.88-.66-2.54.59-1.3,1.49-2.73,2.67-3.45,3.13-1.89,6.45-3.49,9.75-5.09,1.33-.65,2.13-1.25,1.25-2.82-.26-.47-.29-1.12-.28-1.68.04-1.38-.19-2.41-1.85-2.73-1.34-.25-1.93-.83-.6-2.16.8-.8.78-2.59,1.64-3.13,3.19-1.97,3.66-5.29,5.09-8.27.99-2.07,3.7-3.33,5.66-4.93.53-.43,1.15-.74,2.41-1.53-2.35-.64-3.95-1.36-5.58-1.44-1.85-.09-2.71-.92-3.17-2.52-.8-2.74-.17-5.05,1.88-7.05,1.69-1.65,1.45-2.75-.62-3.77-.94-.47-1.99-.97-2.61-1.76-1.74-2.2-3.91-2.87-6.56-2.45-.82.13-1.65.25-2.47.26-1.71.02-4.09.51-4.47-1.58-.27-1.49.62-3.69,1.74-4.83,1.64-1.66,3.88-2.79,5.99-3.89,3.12-1.63,6.23-3.75,9.58-4.34,3.7-.66,6.56-2.91,10.01-3.84,2.45-.66,4.87-1.47,7.32-2.14.69-.19,1.45-.08,2.17-.19.77-.12,1.54-.31,2.3-.51.22-.06.49-.39.59-.33,3.21,1.84,4.07-1.26,5.57-2.84,1.95,1.89,6.85,2.12,9.7.01,1.47-1.08,4.08-.5,4.58-3.06.03-.15,1.39-.09,2.12-.05,2.03.11,3.85-.13,5.36-1.83.72-.81,1.71-1.81,3.09-.18.42.5,2.42-.38,3.7-.51.83-.09,1.69.09,2.53.02,1.59-.13,3.18-.27,4.75-.55,4.71-.82,9.42-1.7,14.12-2.59,4.87-.92,9.77-1.75,14.59-2.9,1.52-.36,2.87-1.52,4.22-2.44,1.36-.92,2.6-2.04,3.97-2.96.26-.17,1.06.05,1.29.34,1.73,2.2,3.87,1.8,6.2,1.29,5.02-1.1,10.06-2.69,15.13-2.81,5.23-.13,10.34-2.37,15.65-.8,1.8.53,4.05-.08,4.93,2.47.17.48,1.36.6,2.27.96.08-.76.22-1.18.13-1.54-.31-1.3-.42-2.34,1.15-3.07,1.64-.76,3.19-1.78,4.75-.15,1.85,1.92,3.59,1.36,5.85.63,2.95-.95,6.17-1.05,9.27-1.56,2-.32,4.02-.6,5.98-1.1,2.16-.55,4.15.56,4.45,2.7.43,3.08,1.76,3.91,4.86,3.47,1.73-.25,3.56.16,5.3-.05,2.06-.24,4.1-.78,6.12-1.28,1.04-.26,2.09-1.12,3.02-.98,1.05.16,2.34.95,2.8,1.85.26.5-.76,2.26-1.56,2.58-2.43.99-5.05,1.51-7.57,2.29-1.52.47-3,1.08-4.49,1.63.08.37.17.75.25,1.12,2.68-.35,5.71-.05,7.94-1.24,2.24-1.19,4.03-.86,6.08-.47,3.28.62,6.48.84,9.68-.62,2.15-.98,2.99.42,2.99,2.38,1.53-1.39,2.93-2.78,4.46-4.01.49-.39,1.31-.38,1.97-.55.15.62.28,1.25.47,1.86.34,1.14.77,2.26,1.07,3.41.32,1.22.57,2.46.76,3.7.07.47-.35,1.11-.16,1.44,1.51,2.56.39,4.71-1.47,6.14-2.02,1.55-4.56,1.98-7.02.51-.2-.12-.47-.11-1.38-.31.83,1.47,1.33,2.6,2.04,3.58,1.05,1.43,1.19,2.76-.17,3.99-3.1,2.8-3.12,2.78-4.77,7.44,2.48-.34,4.73-.61,6.96-.97.73-.12,1.43-.67,2.12-.63,1.31.07,2.91.07,3.8.8.48.4-.23,2.27-.44,3.47-.07.4-.18.82-.38,1.16-.54.92-1.07,2.48-1.73,2.54-1.16.11-3.22-.42-3.47-1.16-.93-2.8-2.65-3-5.44-1.87,1.99,1.32,3.85,2.55,6.04,4.01-1.34.64-2.35,1.13-3.79,1.82,1.04.26,1.87.26,2.46.65.96.62,2.21,1.36,2.48,2.3.23.79-.5,2.48-1.25,2.83-5.16,2.45-10.36,4.84-15.69,6.85-2.77,1.04-5.85,1.3-8.81,1.83-.56.1-1.19-.21-1.79-.33.33-.58.51-1.41,1.01-1.7,5.5-3.17,11.07-6.24,16.59-9.38.93-.53,1.72-1.29,2.58-1.94-.11-.18-.22-.35-.33-.53-2.82.66-5.61,1.47-8.46,1.91-1.54.24-3.27.13-4.76-.32-1.99-.6-2.32-2.23-1.41-4.03,1.18-2.33,2.72-4.52,3.59-6.95,1.03-2.91,2.5-2.81,4.76-1.24-3.17-3.16-1.38-6.02.3-9.2-2.04,1.97-3.85,3.72-5.95,5.75,1.43,2.38-.79,4.14-2.63,6.17-2.47,2.72-5.59,3.3-9.05,3.87-3.95.64-7.72,2.32-11.6,3.46-1.38.41-2.88.41-4.22.88-3.45,1.19-6.84,2.53-10.26,3.81-.69.26-1.51.81-2.08.62-1.04-.34-2.6-1.01-2.73-1.75-.15-.85.82-2.25,1.69-2.81.97-.62,2.37-.6,3.59-.81,2.67-.44,5.41-.64,8.01-1.35,1.95-.53,3.94-2.71,5.52-2.36,2.92.64,3.71-3.28,6.39-2.26.08.03.84-1.1.72-1.27-.39-.52-1.49-1.22-1.54-1.17-2.56,2.94-6.67-.11-9.56,2.6-1.11,1.05-3.95.35-5.99.3-4.37-.11-8.76-.07-13.09-.53-4.54-.48-9.19-.68-12.5-4.94-1.7-2.19-4.62-.91-6.99-.46-2.26.43-4.46,1.42-6.71,1.51-3.68.14-7.37-.29-11.06-.38-.96-.02-1.94.44-2.91.45-.88.01-1.75-.37-2.64-.43-.65-.04-1.42-.03-1.97.27-1.93,1.07-3.71,2.41-5.67,3.39-1.69.84-3.55.83-4.57-1.1-1-1.89.05-3.13,1.78-3.95.19-.09.28-.38.57-.8-2.08-.9-3.59-2.42-6.33-1.69-2.88.77-6.03.61-9.07.72-.87.03-1.88-.16-2.62-.59-3.48-2.05-6.76-1.45-10.12.34-1.84.98-3.88,1.57-5.81,2.39-.56.24-1.04.67-1.55,1.01,0,0,.09-.03.09-.03Zm1.12-6.43c5.05.76,6.58.33,8.48-2.41-1.73-.94-6.28.35-8.48,2.41Z"/>
      <path class="cls-1" d="m399.46,476.41c-.68.21-1.46.2-1.65.54-1.23,2.15-3.39,1.34-5.08,1.46-.99.07-2.06-1.15-3.09-1.79.99-1.12,1.83-2.94,3-3.18,1.54-.32,2.12-.84,2.88-2.11.69-1.15,2.19-1.81,2.99-2.42.52-1.51,1.08-2.75,1.33-4.05.1-.53-.47-1.7-.75-1.71-1.45-.03-2.93.12-4.35.43-1.2.26-2.34,1.17-3.49,1.15-.92-.01-1.82-1-2.73-1.56.55-.9,1.09-2.56,1.66-2.57,3.47-.06,5.58-2.61,8.33-3.96,2.31-1.13,3.99-2.52,5.44-4.64.84-1.23,2.55-2.17,4.04-2.58,2.45-.67,3.75-1.9,3.71-4.23-1.56-.21-3.19-.12-4.55-.7-2.09-.89-2.14-2.69-.11-3.63,2.39-1.11,3.6-2.6,3.43-5.34-.14-2.39,1.51-3.8,3.63-4.04,2.62-.3,3.53-1.12,2.73-3.84-.69-2.34.98-4.3,3.41-4.86,1.22-.28,2.34-.97,4.01-1.7-3.42-1.99-2.38-6.09-5.53-7.92-1.44-.84-.19-3.41,1.95-3.73,2.37-.35,4.6-.63,5.71-3.22.16-.37,1.16-.62,1.72-.54,1.96.26,3.91.69,5.86,1.06,3.09.59,3.59,1.75,2.09,4.51-.32.59-.21,1.41-.3,2.12.63-.39,1.47-.63,1.87-1.18,1.98-2.72,2.76-2.89,5.79-1.38,3.65,1.82,7.45,3.37,10.98,5.39,1.06.61,1.74,2.33,2.05,3.67.31,1.31-.09,2.77-.16,4.17-.09,1.77-.34,3.55-.18,5.29.17,1.84-.65,2.58-2.24,2.97-.85.21-1.98.34-2.43.93-.86,1.13-1.31,2.56-1.94,3.86,1.23.54,2.46,1.08,3.29,1.44,1.32-.65,2.22-1.26,3.2-1.5.38-.1.97.62,1.46.96-.34.4-.61.96-1.05,1.16-.59.26-1.32.15-1.95.34-1.64.49-3.27,1.16-3.2,3.24.08,2.25-1.27,2.61-3.03,2.66-2.99.08-3.52.68-2.86,3.6.42,1.82-.27,2.9-1.89,3.51-1.15.43-2.34.77-4.11,1.35,1.64.36,2.73.47,3.72.85,2.42.91,3.27,3.64,1.62,5.58-1.41,1.66-3.19,3-4.63,4.64-.79.9-1.6,2.07-1.7,3.19-.06.71,1.22,1.49,1.8,2.31.85,1.18,1.62,2.43,2.77,4.17-1.44.31-2.55.69-3.68.77-2.35.18-4.11,1.1-5.17,3.3-.3.63-.88,1.23-1.49,1.59-4.12,2.49-8.29,4.92-12.64,7.48,1.47,1.84,1.37,4.71,4.66,4.17.42-.07,1.35,1.02,1.46,1.67.11.62-.39,1.54-.9,2.04-2.16,2.11-4.21,4.45-6.7,6.09-3.22,2.12-5.08,4.96-6.6,8.35-.46,1.03-2.18,1.73-3.47,2.12-4.59,1.4-9.25,2.57-13.85,3.92-1.82.53-3.56,1.32-5.34,1.98-.7.26-1.39.6-2.12.72-5.92,1-11.84,2.07-17.79,2.83-1.01.13-2.78-.81-3.16-1.7-.92-2.16-1.49-4.55-1.71-6.89-.24-2.51-1.21-3.47-3.67-2.71-1.27.4-2.49.95-3.77,1.31-2.77.79-4.46-.29-4.65-3.15-.1-1.52-.45-2.12-2.09-1.84-.62.11-1.98-.59-1.95-.76.15-.96.35-2.36,1.02-2.72,4.02-2.13,8.16-4.05,12.27-5.99,1.34-.63,2.73-1.14,4.11-1.67,2.5-.97,3.79-.42,4.92,1.98.23.49.62,1.01,1.07,1.26.59.32,1.32.37,2,.53-.11-.65-.09-1.38-.37-1.95-1.28-2.6-.46-4.25,2.39-4.96,1.24-.31,2.38-1.01,3.6-1.43,2.88-1,5.85-1.77,8.64-2.97,1.31-.56,2.27-1.92,3.42-2.88,1.55-1.29,3.02-2.74,4.73-3.77,1.81-1.09,3.88-1.75,3.34-4.94Zm-36.56,28.66c-.4-.78-.65-1.62-.85-1.61-.82.05-1.62.35-2.42.56.17.57.35,1.64.5,1.63.82-.02,1.62-.31,2.77-.59Z"/>
      <path class="cls-1" d="m456.05,403.67c1.04.59,2.45.91,2.76,1.67.62,1.55-.66,2.34-2.05,2.79-.31.1-.59.31-.86.5-1.01.72-2.1,2.17-3,2.05-3.22-.41-6.69-.56-9.13-3.18-.52-.56-.72-1.61-.68-2.41.02-.3,1.25-.41,1.75-.83.71-.6,1.51-1.3,1.79-2.13.3-.88.03-1.94,0-3.08-2.03-.54-3.73-.07-5.48,1.22-3.22,2.38-6.66,3.83-10.59,1.36-2.66-1.67-2.43-3.12-1.06-5.79,1.04-2.03.52-4.89.57-7.39.02-.79-.35-1.59-.59-2.56-2.91.54-5.89,1.1-8.21,3.38-.18.17-.35.42-.57.48-1.13.31-2.31.84-3.4.72-.44-.05-1.18-1.75-.95-2.4.36-1,1.45-1.73,2.22-2.58.19.11.39.23.58.34-.02-.3.02-.63-.07-.91-.98-3.42-.06-4.51,3.53-4.49,1.18,0,2.5-.27,3.51-.85,1.14-.65,1.58-1.95.07-2.72-2.07-1.04-2-2.41-1.33-4.29.97-2.73,1.45-5.66,4.1-7.5.44-.31.5-1.19.69-1.82,1.29-4.41,3.58-7.5,7.76-10.25.44.5.82,1.18,1.4,1.52.98.58,2.07,1.23,3.16,1.34,2.11.22,3.82.43,4.37,3.06.35,1.64,1.39,3.19,2.37,4.61.3.43,1.46.51,2.17.38,1.38-.25,2.71-.79,4.08-1.14,1.64-.42,2.53.05,2.49,1.95-.03,1.61.31,3.23.3,4.85,0,.74-.47,1.48-.79,2.4-1.54-.88-3.38-.92-3.24-3.14.01-.24-.57-.75-.87-.74-2.23.08-4.7-.62-6.42,1.61,1.1,1.47,2.14,2.89,3.21,4.29,1.02,1.32,2.06,2.61,3.48,4.4,1.02-.35,2.5-1.1,4.07-1.31,1.11-.15,2.32.43,3.49.68-.53.88-.86,2.05-1.62,2.57-2.06,1.4-4.25,2.64-6.99,1.83-.45-.13-1.16.63-1.75.98.42.6.72,1.39,1.28,1.75.95.6,2.07.93,3.5,1.53-.74.87-1.13,1.68-1.77,2.01-1.47.74-3.34.83-2.83,3.43.1.5-2.12,1.29-3,2.2-.69.71-.96,1.83-1.42,2.77,1.11.17,2.35.73,3.31.43,2.05-.66,3.93-1.82,5.93-2.67.74-.31,1.63-.46,2.44-.43,2.63.09,4.97-.6,6.57-2.72,1.56-2.07,3.66-.63,5.43-1.15.13.85.69,2.02.33,2.49-1.33,1.72-1.97,3.18-.75,5.37.86,1.53-.71,2.73-3.08,2.57-4.46-.3-6.97.43-10.26,2.93Z"/>
      <path class="cls-1" d="m359.7,177.81c1.22-.74,2.35-1.73,3.66-2.17,4.03-1.34,8.13-2.47,12.2-3.68.02-.41.05-.81.07-1.22-.71-.23-1.5-.78-2.11-.63-3.85.98-7.67,2.11-11.5,3.2-1.35.38-2.66,1.01-4.02,1.14-.86.08-2.09-.33-2.59-.96-.39-.49-.25-1.96.22-2.48.94-1.06,2.16-2.07,3.47-2.56,2.92-1.08,5.96-1.89,8.98-2.69,1.9-.5,3.92-.6,5.76-1.24,2.33-.81,4.48-2.09,6.8-2.95,1.02-.38,2.26-.11,3.36-.34,1.02-.22,2.11-.53,2.94-1.13,1.77-1.28,3.65-1.63,5.76-1.44.57.05,1.24-.24,1.76-.55,1.43-.86,2.09.16,2.42,1.15.15.44-.61,1.18-1.04,1.95,2.76.5,5.61-.06,8.5-1.06,2.29-.79,4.74-1.09,7.1-1.68,1.88-.47,3.76-.97,5.6-1.58,1.88-.62,3.68-1.5,5.57-2.08,1.81-.55,3.51-.04,3.95,1.91.42,1.83-.84,2.97-2.61,3.29-3.02.54-6.06,1.4-9.07,1.32-2.88-.07-4.56,2.05-6.98,2.73-3.05.86-6.04,2.09-8.83,3.59-1.91,1.02-3.08,3.09-5.36,3.88-3,1.05-5.54,2.95-8.95,3.43-4.03.56-7.84,2.52-11.82,3.6-2.94.8-6.01,1.11-8.99,1.76-1.05.23-2.02.82-3.03,1.23-1.87.76-3.7,1.88-5.63,2.12-.91.12-2.62-1.27-2.92-2.28-.47-1.61.83-2.88,2.51-3.05,1.63-.17,3.3.07,4.95.13-.04-.23-.07-.45-.11-.68Z"/>
      <path class="cls-1" d="m416.12,119.88c2.36,1.44,2.91,3.08.06,5.4,2.99.69,5.35,1.62,7.74,1.67,2.26.05,3.48,1.18,5.27,3.01-3.03.91-5.68,1.71-8.33,2.52-.32.1-.69.12-.95.3-1.94,1.38-3.27.91-5.6-.05-3.19-1.31-7.26-1.44-11.04.13-4.15,1.72-8.45,3.32-12.85,4.08-2.55.44-5.45-.68-8.09-1.46-.8-.24-1.83-1.78-1.7-2.55.16-.95,1.28-2.16,2.24-2.47,2.97-.96,6.1-1.44,9.1-2.34,1.07-.32,1.94-1.29,2.9-1.97-.88-.78-1.7-1.65-2.66-2.32-.51-.36-1.45-.19-1.86-.6-.78-.77-1.54-1.72-1.85-2.74-.1-.34,1.11-1.38,1.87-1.62,3.64-1.12,7.32-2.13,11.01-3.04.82-.2,1.79.1,2.67.26,2.81.52,5.61,1.09,8.4,1.64.28-1.37.53-2.54.91-4.41,1.67,1.48,3.22,2.39,4.09,3.73,1.12,1.74,2.14,1.71,3.68.8.85-.5,1.84-.77,2.8-1.05,1.98-.59,3.93.5,4.27,2.32.32,1.73-.98,3.32-3.12,3.35-1.25.02-2.56-.46-3.75-.94-1.62-.67-3.16-1.56-4.73-2.36-.17.23-.33.46-.5.69Zm-12.76,8.84c.17.34.35.68.52,1.02,1.17-.6,2.34-1.19,3.51-1.79-.17-.34-.35-.67-.52-1.01-1.17.59-2.34,1.19-3.51,1.78Z"/>
      <path class="cls-1" d="m336.57,456.42c.95-.38,1.91-.72,2.82-1.13,3.11-1.4,6.16-2.97,9.34-4.2,1.5-.58,2.93.29,3.19,1.94.31,1.96-1.33,2.52-2.81,2.85-2.25.51-4.59.68-6.81,1.3-1.86.52-3.59,1.49-5.86,2.47,2.97,1.91,5.44,1.36,7.88.72,1.88-.5,3.84-1.27,5.12.9,1.27,2.16,1.01,4.4,0,6.69-1.13,2.53-1.91,5.22-3.08,7.73-.48,1.03-1.43,2.25-2.43,2.56-4.29,1.34-8.52,3.32-13.21,2.5-1.04-.18-2.38-.64-2.85-1.41-.38-.63.28-1.95.63-2.91.27-.74,1.05-1.37,1.12-2.1.33-3.37.94-3.94,4.34-4.8,2.16-.54,4.19-1.58,6.28-2.4-.08-.39-.17-.78-.25-1.17-.83.03-1.65.07-2.48.09-1.58.05-3.24.42-4.72.06-2.62-.64-5.12-1.74-8.02-2.77.61-.48,1.49-1.17,2.51-1.97-3.11-2.29-1.72-5.9-2.21-9.05-.06-.37,1.08-1.14,1.78-1.4,4.12-1.48,8.25-2.94,12.42-4.24,1.11-.35,2.47-.43,3.55-.09.72.22,1.68,1.51,1.56,2.13-.16.85-1.13,1.74-1.97,2.2-.74.4-1.78.26-2.7.32-4.33.31-4.62.74-3.12,5.16Z"/>
      <path class="cls-1" d="m221.4,140.57s.07.05.06.05c.92-.55,1.78-1.28,2.77-1.6,2.11-.68,4.3-1.13,6.44-1.72,1.76-.48,3.47-.78,4.72,1.01,1.22,1.75.29,3.16-.83,4.48-1.48,1.75-3.02,3.45-4.68,5.35,0,.01.08.33.25.59,2.01,3.01,1.42,4.24-1.98,5.35-3.69,1.21-7.27,2.79-10.86,4.29-.78.33-1.4,1.04-2.25,1.7.5.4.75.77.98.76,3.87-.04,7.75.04,11.6-.26,2.85-.22,3.91.17,4.95,2.88.03.08.04.17.09.23,2.78,4.2.95,5.9-3.79,6.69-1.87.31-3.68.99-5.49,1.59-1.56.51-2.27.1-2.49-1.61-.58-4.48-3.89-6.82-8.53-5.98-1.85.33-3.63,1.07-5.46,1.57-.71.2-1.54.54-2.17.34-.93-.29-2.17-.83-2.47-1.58-.29-.73.14-2.35.77-2.75,2.73-1.72,5.53-3.42,8.52-4.57,2.88-1.11,3.67-1.88,3.18-4.9-.37-2.33,1.09-3.39,3-4.26,2.48-1.13,4.91-2.4,7.25-3.79.64-.38.86-1.45,1.27-2.2-.7-.27-1.4-.57-2.11-.81-.91-.31-1.84-.59-2.75-.88Z"/>
      <path class="cls-1" d="m296.82,431.54c1.03.11,1.54.3,1.99.2,2.14-.5,4.02-.74,4.14,2.36.01.32.82.75,1.32.88,1.67.46,6.12-1.91,7.07-3.36.71-1.08,2.04-2.73,2.81-2.59,1.64.31,3.29,1.41,4.56,2.59.88.82,1.28,2.28,1.63,3.53.2.73-.09,1.6-.18,2.4-.11.86-.64,2.18-.29,2.47.84.71,2.06,1.04,3.18,1.32,1.6.4,3.36.36,4.85.98,1.5.62,2.73,1.41,4.42.5,1.51-.81,3.12-.57,3.66,1.24.51,1.69-.31,2.95-2.24,3.1-1.37.11-2.8-.09-4.1.24-1.86.47-3.6,1.4-5.44,1.93-1.48.42-3.12.93-3.87-1.3-.54-1.6-1.74-1.85-3.41-1.63-1.1.15-2.74-.17-3.38-.92-2.2-2.6-5.03-2.02-7.57-1.57-5.47.97-7.36-.8-6.33-6.53.1-.57.31-1.11.46-1.64-1.22-.7-2.33-1.57-3.59-1.96-.82-.26-1.95-.03-2.78.33-1.91.84-3.32.24-4.22-1.38-.95-1.72-.13-3.29,1.7-4.25,1.68-.88,3.18-2.16,4.92-2.88.98-.4,2.27-.04,3.42-.02-.24.97-.35,2-.75,2.9-.43.95-1.13,1.78-1.96,3.04Z"/>
      <path class="cls-1" d="m393.55,148.37c-1.71-1.27-2.61-1.94-3.51-2.61.11-.26.22-.52.33-.77.92.39,1.94.65,2.75,1.21,2.75,1.88,6.76.97,8.54-1.85.47-.75,1.54-1.45,2.41-1.55,7.46-.86,14.21-4,21.16-6.48,1.17-.42,2.31-1.01,3.52-1.2,1.67-.26,3.29.18,3.72,2.07.46,2-.95,2.87-2.61,3.29-2.73.7-5.55,1.13-8.22,2-5.04,1.63-10,3.52-15.01,5.25-1.96.68-3.95,1.17-5.05,3.25-.19.36-1.25.16-1.82.43-1.08.5-2.85.99-3.01,1.75-.67,3.2-3.43,2.49-5.34,3.26-2.2.88-4.48,1.58-6.75,2.28-1.31.4-2.67.63-4,.98-3.42.9-6.82,1.87-10.26,2.69-1.15.27-2.55.53-3.54.1-.81-.35-1.83-1.94-1.61-2.6.38-1.15,1.47-2.54,2.56-2.9,6.42-2.08,12.95-3.84,19.4-5.84,1.98-.61,3.83-1.65,6.34-2.76Z"/>
      <path class="cls-1" d="m213.82,191.93c.75.86,1.84,1.67,2.33,2.76.45,1.01.53,2.35.31,3.46-.41,2.03-1.16,3.98-1.77,5.97.27.27.53.54.8.81,2.02-.71,4.02-1.48,6.07-2.1,1.32-.4,2.7-.81,4.06-.81.69,0,1.77.77,1.96,1.4.19.64-.31,1.81-.89,2.25-.73.55-1.83.64-2.79.82-1.54.3-3.16.33-4.64.79-2.08.64-3.72,1.66-3.09,4.47.36,1.62-.7,2.83-2.39,3.28-.48.13-.97.25-1.45.38-4.56,1.27-6.27-.07-5.84-4.96.2-2.23-.45-2.53-2.3-1.88-1.33.47-2.67,1.13-4.03,1.17-.94.03-1.91-.86-2.87-1.33.59-.96,1.05-2.03,1.82-2.82.45-.47,1.38-.5,2.11-.67,1.26-.29,2.52-.51,2.42-2.25-.09-1.55-.51-2.59-2.36-2.93-.98-.18-2.53-1.45-2.46-2.1.1-1.06,1.13-2.62,2.09-2.9,3.46-1.04,7.05-1.65,10.6-2.41.67-.14,1.36-.23,2.34-.38Z"/>
      <path class="cls-1" d="m345.46,489.27c2.7-.27,5.01-.63,7.34-.7,1.55-.05,2.21,1.03,1.29,2.32-1.09,1.53-2.47,2.88-3.8,4.23-.96.98-1.81,1.63-1.67,3.45.34,4.37-2.69,6.28-6.53,4.39-1.49-.73-2.73-.82-4.18.09-.69.43-1.76.55-2.57.38-.55-.12-1.11-.93-1.33-1.55-.11-.32.42-1.13.83-1.31,1.13-.49,2.33-.8,3.53-1.1,1.39-.35,2.89-.41,4.17-.97.76-.33,1.82-1.56,1.68-2.09-.37-1.35-1.35-2.39-3.15-2.18-3.5.4-5.33-.8-6.03-3.96-.18-.82-.15-2.02.32-2.6,3.01-3.71,5.93-7.58,11.21-8.32.59-.08,1.47-1,1.52-1.58.23-2.86,2.18-3.83,4.48-4.51,1.43-.42,2.88-1.09,4.33-1.09,1.07,0,2.51.66,3.07,1.5.38.57-.27,2.13-.86,2.95-1,1.4-2.25,2.66-3.54,3.81-.77.69-1.79,1.49-2.73,1.53-4.56.18-6.19,3.19-7.39,7.33Z"/>
      <path class="cls-1" d="m425.49,353.53c-.65.56-1.27,1.09-1.87,1.61q1.24,2.03,5.53.98c-.12,2.11-.16,3.84-1.8,5.64-1.65,1.81-2.58,4.34-3.59,6.66-1.32,3.03-1.37,3.07-4.47,1.72-.68-.3-1.67.23-2.51.19-1.22-.06-3,.13-3.51-.55-.65-.88-.31-2.51-.32-3.82,0-.29.25-.63.48-.85,3.74-3.63,2.52-7.45.07-10.98-1.16-1.68-1.18-3.07-.28-4.56,1.01-1.68,2.56-1.07,4.01-.56.15.05.32.01.73.01,1.21-2.93,3.41-4.76,6.77-5.22.88-.12,1.7-.99,2.46-1.62,1.85-1.52,3.56-1.11,5.08.4.41.41.43,1.25.52,1.91.04.29-.24.61-.34.92-1.35,3.98-1.35,3.99-5.76,4.13-1.24.04-1.91.45-1.58,1.83.17.72.28,1.46.41,2.17Z"/>
      <path class="cls-1" d="m419.5,85.7c2.96-.25,5.92-.51,8.88-.73.8-.06,1.71-.24,2.38.06.65.3,1.04,1.15,1.54,1.75-.68.34-1.33.78-2.05,1.02-2.77.93-5.53,1.87-8.34,2.66-4.57,1.28-9.08,2.83-13.99,2.14-1.44-.2-2.99.36-4.44.19-2.27-.27-2.8-1.67-1.35-3.47,1.35-1.67,2.7-3.46,4.4-4.7,1.46-1.06,3.37-1.68,5.18-2.04,1.94-.39,3.47-.74,3.8-3.11.37-2.6,1.92-3.55,4.72-3.61.95-.02,1.9-.58,2.82-.97,1.66-.71,3.25-1.75,4.98-2.11.8-.17,2.26.72,2.71,1.53.56,1,.87,2.63.43,3.6-1.41,3.12-4.31,4.42-7.5,5.2-1.48.36-2.91.95-4.36,1.44l.19,1.16Z"/>
      <path class="cls-1" d="m419.54,325.91c.56.13,1.13.24,1.68.41,2.34.72,2.68,1.94.85,3.65-1.12,1.04-1.92,1.82-1.12,3.56.76,1.67,1.12,2.64,3.1,1.11.88-.68,2.63-.68,3.82-.38.77.2,1.65,1.48,1.74,2.35.07.68-.85,1.91-1.58,2.16-3.01,1.03-6.09,1.88-9.18,2.6-1.85.43-3.23,1.1-3.73,3.1-.27,1.06-.63,2.83-2.12,1.9-1.31-.83-4.05-1.22-3.08-3.74.5-1.31,2.02-2.21,2.99-3.37.74-.88,1.88-1.89,1.87-2.82-.02-1.22-1.02-2.27-2.67-1.37-.94.51-1.97.88-2.99,1.23-1.65.56-3.21.45-4.04-1.33-.89-1.9.13-3.17,1.7-4.11.34-.21.78-.26,1.17-.38.28-.04.57-.09.86-.14,1.55.43,3.09.87,5.04,1.42,1.51-.29,3.62-.7,5.65-1.09-.02-1.49-.04-3.11-.07-4.72l.12-.03Z"/>
      <path class="cls-1" d="m201.41,178.79c.15-.19.39-.83.78-.95,3.21-.97,6.4-2.26,9.69-2.58,2.05-.2,4.38.83,6.34,1.8,2,.99,1.72,3,.88,4.78,3.51,1.66,6.62.43,9.73-.68,1.82-.65,3.79-1.5,5.3.24.67.77,1,2.39.68,3.36-.68,2.07-2.69,2.49-4.67,2.66-1.89.16-3.97.73-4.2-2.34-3.34.34-6.54,1.06-9.67.84-2.16-.15-4.26-1.51-6.31-2.51-1.16-.57-2.07-1.62-3.22-2.23-1.64-.87-3.4-1.54-5.32-2.39Z"/>
      <path class="cls-1" d="m406.77,106.37c1.27-1.86,2.06-2.83,2.64-3.9,1.43-2.65,4.23-2.49,6.55-3.26,7.82-2.61,15.67-5.14,23.5-7.7,2.15-.7,3.85-.04,4.21,1.75.41,2.03-.88,2.95-2.61,3.19-9.42,1.29-17.52,6.15-26.19,9.47-2.23.86-4.99.33-8.1.46Z"/>
      <path class="cls-1" d="m388.63,103.85c1.45,3.05.93,3.75-1.72,4.97-4.25,1.96-8.91,1.16-13.26,2.37-1.92.54-3.58-.48-3.93-2.49-.37-2.07,1.15-3.27,2.91-3.79,3.86-1.14,7.79-2.03,11.66-3.14.56-.16.85-1.25,1.42-1.43,2.33-.74,4.71-1.34,7.1-1.83.12-.03.96,1.53.74,2.01-.88,1.92-2.09,3.64-4.92,3.32Z"/>
      <path class="cls-1" d="m360.68,230.3c-2.41.92-4.8,1.93-7.25,2.75-4.24,1.43-8.52,2.71-12.76,4.13-2.73.92-5.39,2.08-8.14,2.93-2.1.65-4.19-.33-4.57-1.85-.4-1.58,1.29-3.42,3.45-3.87,8.24-1.73,16.47-3.48,24.69-5.25.46-.1.85-.49,1.29-.7,2.08-.98,2.74-.61,3.28,1.85Z"/>
      <path class="cls-1" d="m409.72,69.05c-1.11.88-2.1,2.08-3.36,2.59-5.82,2.37-11.7,4.57-17.58,6.78-1.46.55-3.03,1.26-4.5,1.18-1.03-.06-2.43-1.15-2.85-2.13-.33-.77.5-2.12.97-3.13.17-.37.79-.63,1.25-.75,3.67-.93,7.35-1.77,11.01-2.71,2.41-.62,4.75-1.57,7.18-2.03,2.44-.46,4.96-.5,7.45-.72.14.31.29.61.43.92Z"/>
      <path class="cls-1" d="m419.54,325.91s-.12.03-.12.03c-2.2.72-4.44,2.1-6.59,1.98-2.32-.13-3.82-.36-4.03,2.42-.29.05-.57.09-.86.14-.89-.93-2.43-1.79-2.52-2.8-.13-1.38.84-2.88,2.71-2.98,2.15-.11,2.79-1.34,2.76-3.31-.06-3.68.15-3.81,4.01-3.67,1.55.06,3.21-.3,4.62.14,1.42.44,2.02,1.79,1.38,3.46-.57,1.48-.92,3.06-1.36,4.59Z"/>
      <path class="cls-1" d="m401.25,86.88c.06,2.3-.22,3.55-2.1,3.81-.36.05-.89.63-.92.99-.18,2.49-2.18,2.65-3.89,3.12-3.24.89-6.48,1.82-9.77,2.47-1.22.24-2.85.14-3.81-.52-.74-.5-1.24-2.35-.88-3.18.41-.97,1.78-1.78,2.91-2.16,2.57-.88,5.23-1.48,7.86-2.13.54-.14,1.16-.1,1.73-.02,1.88.27,3.79,1.26,5.09-1.39.35-.71,2.29-.64,3.79-1Z"/>
      <path class="cls-1" d="m423.18,165.76c1.23-.72,2.37-1.7,3.7-2.12,4.72-1.49,9.5-2.8,14.25-4.17,1.51-.44,3.02-.88,4.53-1.3,2.07-.58,3.99.16,4.28,1.83.36,2.12-1.11,2.99-2.87,3.32-5.34.99-10.71,1.86-16.06,2.84-1.25.23-2.45.89-3.69.94-1.27.05-2.57-.39-3.85-.62-.1-.24-.19-.47-.29-.71Z"/>
      <path class="cls-1" d="m454.26,353.41c-5.36-.27-10.86-.55-16.09-.82-1.93-4.46,1.7-8.79,4.86-10.38.49-.25,1.47.49,2.23.77-.23.54-.32,1.31-.73,1.57-3.02,1.87-3.15,2.44-.93,5.37.99-.99,1.86-2.16,3.01-2.92.73-.48,1.91-.57,2.82-.42,1.43.22,2.79.82,4.19,1.21,1.36.38,2.01,1.03,1.4,2.54-.36.88-.48,1.86-.77,3.09Z"/>
      <path class="cls-1" d="m427.66,104.64c2.66-.85,4.86-1.58,7.08-2.26,2.83-.87,5.68-1.7,8.52-2.53.56-.16,1.14-.38,1.7-.36,1.85.07,3.86.08,4.33,2.45.49,2.45-1.36,3.28-3.18,3.68-4.11.92-8.24,1.71-12.4,2.38-2.12.34-2.7-.12-6.05-3.36Z"/>
      <path class="cls-1" d="m385.19,114.52c-1.08,1.84-2.36,2.24-4.16,1.64-1.62-.54-3.2-.96-3.22,1.72,0,.45-.76,1.08-1.3,1.31-2.68,1.09-5.38,2.17-8.13,3.06-2.32.75-4.44-.26-4.91-2.08-.48-1.86,1.05-3.83,3.5-4.27,2.42-.43,4.93-.48,7.3-1.08,2.72-.68,5.32-1.84,8.02-2.64.92-.27,1.98-.1,2.97-.14-.02.82-.05,1.65-.07,2.47Z"/>
      <path class="cls-1" d="m200.33,224.91c-.92-2.3-2.94-1.68-4.77-1.94-.96-.14-1.77-1.37-2.64-2.1.78-.85,1.43-1.98,2.39-2.46.87-.43,2.12-.05,3.17-.21,1.9-.28,3.89-.4,5.63-1.12,2.12-.88,5.57-.06,6.31,2.13.27.79.1,2.38-.41,2.66-2.36,1.33-4.88,2.41-7.41,3.4-.59.23-1.44-.21-2.28-.37Z"/>
      <path class="cls-1" d="m212.7,254.23c-1.38-.36-2.31-.39-2.95-.83-.68-.46-1.47-1.31-1.5-2.01-.03-.66.78-1.84,1.39-1.95,2.94-.58,6.02-2.08,8.62,1.07.88,1.07,2.47,1.54,3.51,2.52.5.47.88,1.95.62,2.17-1.95,1.71-4.05,3.25-6.21,4.69-.07.05-1.35-1.52-1.89-2.43-.67-1.12-1.16-2.35-1.59-3.23Z"/>
      <path class="cls-1" d="m393.32,63.75c.49,2.52-1.03,3.02-2.7,3.5-1.92.55-3.84,1.16-5.72,1.83-3.23,1.15-6.41,2.43-9.66,3.53-1.91.65-3.65.16-4.09-1.98-.42-2.03.98-3.02,2.85-3.31,3.74-.57,7.5-1.02,11.23-1.68,2.62-.47,5.2-1.2,8.08-1.88Z"/>
      <path class="cls-1" d="m238.88,293.99c1.5.6,3.04,1.11,4.48,1.84.57.29,1.3,1.12,1.23,1.6-.11.78-.69,1.98-1.28,2.13-2.4.6-5.08,1.61-7.26,1.01-1.74-.48-3.03-3-4.17-4.82-.22-.36,1.03-2.31,1.82-2.48,1.7-.35,3.55-.02,5.33.03-.05.23-.09.47-.14.7Z"/>
      <path class="cls-1" d="m240.78,275c1.51,5.23.87,5.96-4.83,5.84q-4.55-.1-6.65-1.59c1.54-.54,2.78-1.28,4.07-1.37,2.53-.19,3.01-.95,3.53-3.48.27-1.31,1.84-2.6,3.13-3.38.89-.54,2.45-.53,3.47-.14,1.43.54,1.33,2.32-.06,3.14-.76.44-1.67.63-2.67.99Z"/>
      <path class="cls-1" d="m338.23,362.89c1.77-2.26,3.39-4.06,6.52-3.61,2.45.35,4.99-.02,7.48.1.57.03,1.54.71,1.56,1.14.03.55-.6,1.52-1.12,1.66-4.22,1.15-8.44,2.33-12.73,3.12-1.91.35-2.55-1-1.71-2.4Z"/>
      <path class="cls-1" d="m356.34,490.64c.88-1.14,1.47-1.74,1.86-2.45.99-1.79,1.97-1.42,3.03-.11q2.22,2.76,5.23,1.07c.87-.48,1.77-.95,2.7-1.3,1.47-.56,2.74-.17,3.25,1.36.55,1.67-.52,2.45-2.03,2.74-3.72.71-7.44,1.48-11.18,2.08-.97.15-2.71.03-2.9-.43-.39-1,0-2.31.05-2.95Z"/>
      <path class="cls-1" d="m432.47,126.68c.08-.21.11-.57.26-.62,3.6-1.31,7.16-2.77,10.85-3.78,1.75-.48,3.29.66,3.53,2.64.23,1.87-.89,2.94-2.67,3.26-4.11.73-8.16.8-11.97-1.49Z"/>
      <path class="cls-1" d="m223.93,285.29c.23.5,1.2,1.63,1.06,2.61-.15,1.08-1.11,2.33-2.08,2.95-1.73,1.1-3.73,1.81-5.63,2.64-1.59.7-3.12.48-3.75-1.22-.67-1.78.74-2.58,2.19-2.94,1.59-.4,2.5-1.24,3.12-2.81.85-2.15,2.59-2.65,5.09-1.23Z"/>
      <path class="cls-1" d="m285.32,296.02c1.9-3.32,3.47-6.08,5.05-8.85,2.04-.03,3.78,2.72,6.54.64-.25,1.5-.32,3.06-.83,4.46-.23.63-1.31.98-2.06,1.36-.72.37-1.78.4-2.22.96-1.67,2.13-3.79,1.38-6.48,1.44Z"/>
      <path class="cls-1" d="m381.01,125.04c-2.03,2.59-3.93,4.7-7.01,5.01-1.88.19-3.71-.48-4.15-2.38-.42-1.77.89-2.86,2.68-3.24,2.16-.47,4.3-1.03,6.47-1.46.67-.13,1.87-.16,2,.13.28.63.03,1.5.01,1.96Z"/>
      <path class="cls-1" d="m380.24,353.66c-6.6,2.08-13.21,4.15-20.3,6.38.82-2.53,1.68-3.72,4.03-4.31,2.74-.69,5.75-1.01,8.05-3.16,1.3-1.21,6.26-.86,7.98.2.08.3.16.6.24.89Z"/>
      <path class="cls-1" d="m237.52,288.82c2.26-2.76,5.51-3.57,8.68-4.25,1.08-.23,2.42.79,3.64,1.23-.55,1.12-.81,2.75-1.7,3.25-2.71,1.51-7.77,2.63-10.2.34-.17-.16-.28-.38-.41-.57Z"/>
      <path class="cls-1" d="m417.2,243.54c-.69.54-1.15,1.19-1.72,1.31-2.74.6-5.5,1.1-8.26,1.54-.36.06-1.1-.36-1.16-.65-.09-.48.07-1.32.41-1.52,2.41-1.39,4.83-2.82,7.4-3.84.74-.3,2.11.54,2.97,1.17.39.29.26,1.31.36,2Z"/>
      <path class="cls-1" d="m218.32,242.6c.09-.77.18-1.54.29-2.51-.6-.66-1.41-1.55-2.19-2.41,2.08-3.16,5.21-2.46,7.97-2.74.43-.04,1.14.67,1.34,1.18.14.34-.31,1.02-.64,1.43-1.23,1.51-2.4,3.11-3.85,4.38-.66.57-1.94.42-2.95.59l.02.09Z"/>
      <path class="cls-1" d="m367.13,149.82c.88-.28,1.59-.71,2.28-.67.54.03,1.28.53,1.48,1.01.19.44-.06,1.28-.41,1.67-.53.6-1.27,1.19-2.02,1.38-1.71.43-3.48.71-5.24.84-.52.04-1.26-.51-1.6-.99-.91-1.3.07-3.33,2-4.45,1.56-.9,2.83-.94,3.51,1.2Z"/>
      <path class="cls-1" d="m222.4,268.65c-2.94.47-5.31.86-7.68,1.23-.65.1-1.32.28-1.97.23-1.25-.1-3.19.91-3.39-1.27-.18-2,1.58-2.74,3.19-2.7,2.77.07,5.54.49,8.3.86.36.05.65.66,1.55,1.66Z"/>
      <path class="cls-1" d="m444.98,330.22c-1.12,1.8-4.45,2.98-5.88,1.94-1.49-1.08-1.7-2.54-.75-4.15.94-1.58,3.93-2.89,5.02-2.17,1.75,1.13,2.44,3.04,1.6,4.38Z"/>
      <path class="cls-1" d="m385.28,85.9c-.34.17-.67.41-1.03.52-4.48,1.31-8.96,2.61-13.45,3.89-.47.13-1.03.3-1.46.16-.62-.2-1.15-.67-1.72-1.03.51-.48.95-1.24,1.55-1.39,4.58-1.14,9.18-2.21,13.79-3.19.74-.16,1.58.17,2.38.28-.02.26-.04.51-.06.77Z"/>
      <path class="cls-1" d="m273.51,429.1c1.08-1.89,5.42-2.9,7.1-1.48.5.42.78,2.05.54,2.22-1.7,1.18-3.46,2.58-5.41,3.02-1.96.44-3.22-2.02-2.22-3.76Z"/>
      <path class="cls-1" d="m232.79,243.59c-1.41.57-2.27,1.1-3.2,1.26-1.38.24-2.81.33-4.21.28-1.58-.06-2.27-1.49-1.51-2.87,1.08-1.94,5.96-3.02,7.56-1.52.65.6.83,1.7,1.35,2.84Z"/>
      <path class="cls-1" d="m230.69,267.28c2.05-.98,4.05-2.14,6.19-2.87,1.01-.35,2.38-.07,3.43.34.38.15.7,1.84.38,2.18-.84.87-2.04,1.92-3.12,1.93-2.32.04-4.65-.52-6.98-.84.03-.25.07-.49.1-.74Z"/>
      <path class="cls-1" d="m289.37,406.06c-.25-.54-.81-1.2-.76-1.81.04-.45.8-1.01,1.35-1.23,1.41-.56,2.86-1.12,4.35-1.37,1.05-.18,2.24-.05,3.24.3.38.13.78,1.61.53,1.88-.71.78-1.69,1.52-2.69,1.78-1.66.44-3.42.5-5.14.69-.22.02-.46-.12-.88-.24Z"/>
      <path class="cls-1" d="m362.44,90.13c.08.59.59,1.76.25,2.58-.63,1.5-5.07,2.78-5.95,1.73-.63-.75-.9-2.29-.59-3.24.52-1.62,4.15-2.34,6.29-1.07Z"/>
      <path class="cls-1" d="m228.75,296.36c-1.74.88-2.88,1.53-4.07,2.04-.97.42-2.07,1.04-3.01.9-.84-.13-2.02-1.08-2.16-1.84-.12-.66.87-2.04,1.59-2.23,1.81-.48,3.76-.62,5.64-.55.66.02,1.29,1.05,2.01,1.69Z"/>
      <path class="cls-1" d="m330.12,359.86c1.75,3,3.1-.97,4.82.11.03.39.34,1.19.08,1.47-1.85,1.99-3.67,4.05-5.8,5.71-.87.68-1.99-.18-1.49-1.55.7-1.91,1.56-3.76,2.39-5.73Z"/>
      <path class="cls-1" d="m210.19,186.76c-2.25.54-3.96,1.1-5.71,1.32-1.63.21-2.73-1.03-2.43-2.4.22-.99,1.68-2.43,2.54-2.4,1.99.08,3.97.9,5.6,3.47Z"/>
      <path class="cls-1" d="m248.42,255.73c-1.08,1.76-5.53,1.98-6.63.48-.19-.26-.42-.82-.36-.87,1.45-1.04,2.84-2.32,4.47-2.85.6-.19,1.82,1.4,2.67,2.27.16.17-.12.77-.16.98Z"/>
      <path class="cls-1" d="m459.65,78.91c2.03-1.03,3.98-2.27,6.11-2.98.82-.28,2.05.65,3.09,1.02-.64.92-1.17,2.5-1.95,2.64-2.28.42-4.66.25-7,.32-.08-.34-.17-.67-.25-1.01Z"/>
      <path class="cls-1" d="m387.83,122.35c.2.36.92,1.11.95,1.88.01.44-1.03,1.04-1.7,1.36-.97.45-2.01.83-3.05,1.03-1.21.23-2.22-.17-2.11-1.67.17-2.31,3.37-3.97,5.92-2.6Z"/>
      <path class="cls-1" d="m410.15,359.78c-1.04,1.82-1.75,3.12-2.52,4.39-.46.76-.91,1.55-1.52,2.16-.3.3-.98.23-1.49.33-.1-.57-.37-1.17-.28-1.71.22-1.31.48-2.64.95-3.88.31-.8.9-1.8,1.61-2.07,1.52-.59,2.9-.14,3.25.78Z"/>
      <path class="cls-1" d="m232.05,226.51c-1.93.73-3.55,1.45-5.24,1.93-.4.11-1.42-.55-1.47-.94-.07-.61.26-1.51.73-1.9,1-.83,2.14-1.55,3.34-2.05.64-.27,1.86-.27,2.2.13.45.52.28,1.57.44,2.84Z"/>
      <path class="cls-1" d="m420.76,394.43c1.87-2.17,3.81-2.65,6.2-.96.41,1.49.12,3.43-1.56,3.96-2.21.7-3.57-1.09-4.64-3Z"/>
      <path class="cls-1" d="m433.95,309.92c-.04-.45-.38-1.37-.11-2.05.59-1.53,3.77-2.22,5.39-1.15.49.33.93,1.43.74,1.95-.56,1.59-3.79,2.43-6.02,1.25Z"/>
      <path class="cls-1" d="m400.11,318.26c-.36,4.5-3.82,2.97-6.71,3.8.13-1.39-.17-2.89.4-3.39,1.88-1.66,4.12-1.02,6.31-.41Z"/>
      <path class="cls-1" d="m323.1,464.7c-1.96.9-3.87,1.98-5.92,2.6-.63.19-1.64-.9-2.47-1.4.54-.7,1.01-1.92,1.65-2.01,2.13-.32,4.32-.23,6.48-.3.09.37.18.74.26,1.12Z"/>
      <path class="cls-1" d="m218.3,242.51c-2.83.98-5.64,2.06-8.52,2.86-.69.19-1.65-.59-2.48-.92.51-.83.89-1.79,1.58-2.43.37-.35,1.26-.28,1.89-.22,2.52.23,5.04.53,7.55.8,0,0-.02-.09-.02-.09Z"/>
      <path class="cls-1" d="m455.21,412.99c.78-1.05,1.03-1.72,1.49-1.92.89-.4,1.91-.54,2.87-.79.18,1.14.87,2.98.45,3.28-1.21.87-2.86,1.12-4.34,1.61-.19-.88-.39-1.77-.47-2.17Z"/>
      <path class="cls-1" d="m222.21,282.57c-.08-1.52-.37-2.4-.1-3.03.65-1.51,3.55-2.13,5.03-1.01.54.41.56,1.49.82,2.27-1.69.52-3.39,1.04-5.75,1.77Z"/>
      <path class="cls-1" d="m470.38,58.49c-.32-1.42-.65-2.68-.61-2.7,1.63-.48,3.29-.93,4.97-1.12.19-.02.56,1.5.85,2.31-1.6.46-3.19.92-5.22,1.5Z"/>
      <path class="cls-1" d="m213.98,309.46c-1.52.86-2.98,1.91-4.6,2.48-.64.22-1.66-.66-2.5-1.04.44-.76.76-2.05,1.34-2.17,1.79-.37,3.67-.3,5.51-.41.09.38.17.76.26,1.14Z"/>
      <path class="cls-1" d="m460.27,334.79c-2.17.31-3.72.69-5.26.62-.28-.01-.85-1.89-.64-2.75.31-1.27,3.22-1.82,4.34-.83.62.54.84,1.54,1.55,2.96Z"/>
      <path class="cls-1" d="m446.31,321.53c-2.41,2.33-4.24,2.01-5.92.57-.5-.43-.99-1.7-.76-1.97.51-.59,1.63-1.24,2.22-1.04,1.48.52,2.8,1.49,4.46,2.44Z"/>
      <path class="cls-1" d="m468,138.53c.16-1.51.02-2.54.32-2.69,1.38-.67,2.87-1.09,4.32-1.6.24.85.8,2.4.69,2.45-1.49.66-3.06,1.11-5.33,1.83Z"/>
      <path class="cls-1" d="m426.22,223.38c1.59-1.68,3.61-2.34,5.92-2.04.44.06,1.06.6,1.14,1.01.07.4-.38,1.26-.7,1.31-2.04.34-4.1.52-6.15.75-.07-.34-.13-.68-.2-1.02Z"/>
      <path class="cls-1" d="m279.67,327.02c1.17-2.05,2.07-3.71,3.07-5.3.2-.32.82-.55,1.21-.51.26.02.74.75.66.91-.99,1.84-2.04,3.64-3.18,5.39-.08.13-.96-.26-1.76-.49Z"/>
      <path class="cls-1" d="m309.11,454.85c-1.52.6-3.01,1.33-4.58,1.71-.41.1-1.23-.83-1.54-1.45-.11-.21.69-1.25,1.17-1.33,1.52-.25,3.09-.23,4.64-.31.11.46.21.92.32,1.38Z"/>
      <path class="cls-1" d="m199.21,241.46c-1.91.3-3.12.65-4.29.56-.31-.02-.5-1.42-.75-2.19,1.19-.27,2.37-.68,3.57-.73.33-.01.7,1.07,1.47,2.36Z"/>
      <path class="cls-1" d="m388.52,478.21c-1.39.76-2.74,1.66-4.21,2.2-.47.17-1.29-.63-1.95-.98.53-.63.99-1.7,1.61-1.8,1.4-.23,2.89,0,4.34.05.07.18.15.35.22.53Z"/>
      <path class="cls-1" d="m466.23,353.12c.07,1.73.43,3.12.07,3.34-.82.5-2.01.62-3,.49-.36-.05-.93-1.72-.79-1.83.88-.67,1.95-1.1,3.72-2Z"/>
      <path class="cls-1" d="m197.33,229.88c.05,1.15.28,2.08.07,2.19-1.09.58-2.29.94-3.45,1.38-.2-.78-.71-2.16-.54-2.25,1.06-.55,2.27-.82,3.92-1.33Z"/>
      <path class="cls-1" d="m233.31,384.81c-1.38.38-2.31.91-3.08.73-.4-.09-.92-1.87-.65-2.13.58-.57,1.64-.85,2.5-.83.34,0,.65,1.12,1.24,2.23Z"/>
      <path class="cls-1" d="m373.69,147.23c.78-.12,1.58-.4,2.34-.33.74.07,1.48.46,2.15.83.11.06.01.96-.18,1.04-.78.34-1.7.82-2.45.67-.76-.16-1.37-1.01-2.05-1.56.06-.22.12-.43.18-.65Z"/>
      <path class="cls-1" d="m460.73,17.86c1.35-.14,2.7-.28,4.05-.42,0,.6.27,1.49-.03,1.75-1.35,1.21-2.69.72-3.91-.24-.04-.37-.08-.73-.11-1.1Z"/>
      <path class="cls-1" d="m394.81,333.11c-1.18,1.86-2.49,2.65-4.29,1.67-.33-.18-.62-1.23-.43-1.43,1.36-1.46,2.91-1.01,4.72-.24Z"/>
      <path class="cls-1" d="m230.28,218.97c.81-1,1.2-1.79,1.84-2.19.61-.38,1.48-.4,2.24-.45.09,0,.47,1.01.3,1.23-.49.65-1.12,1.31-1.85,1.64-.51.23-1.27-.08-2.53-.22Z"/>
      <path class="cls-1" d="m294.53,39.55c.89.78,1.79,1.56,2.83,2.47-.64.4-1.02.82-1.46.88-.79.12-1.61.02-2.42.02.12-.81.19-1.63.4-2.41.1-.36.48-.65.73-.98,0,0-.08.02-.08.02Z"/>
      <path class="cls-1" d="m457.02,339.51c.93.65,1.87,1.3,2.8,1.95-.54.48-1.38,1.46-1.58,1.34-.86-.5-1.53-1.32-2.26-2.03.35-.42.69-.84,1.04-1.27Z"/>
      <path class="cls-1" d="m423.48,397.47c-.1.79.01,1.72-.38,2.33-.26.41-1.45.69-1.84.43-.5-.32-.87-1.27-.8-1.89.04-.35,1.07-.59,1.66-.88.45,0,.9,0,1.36,0Z"/>
      <path class="cls-1" d="m221.36,81.3c.05,1.29.37,2.22.03,2.68-.36.49-1.32.53-2.02.77-.16-.74-.64-1.62-.4-2.19.21-.51,1.22-.69,2.39-1.26Z"/>
      <path class="cls-1" d="m408.18,345.22c-.64.47-1.23,1.09-1.95,1.35-.54.2-1.26-.06-1.89-.12.33-.66.51-1.67,1.03-1.88.77-.32,1.77-.09,2.68-.09.05.25.09.49.14.74Z"/>
      <path class="cls-1" d="m400.14,348.6c-1.08.44-2.17.87-3.25,1.31-.18-.46-.36-.92-.53-1.38,1.15-.36,2.31-.72,3.46-1.09.11.38.21.77.32,1.15Z"/>
      <path class="cls-1" d="m286.69,318.61c-.24-.79-.78-1.66-.61-2.36.12-.49,1.19-.75,1.84-1.12.16.18.33.37.49.55-.25.91-.5,1.81-.75,2.72-.32.07-.65.14-.97.21Z"/>
      <path class="cls-1" d="m448.09,473.75c-1.19.37-2.37.74-3.56,1.1-.11-.3-.21-.59-.32-.89.68-1.64,2.03-1.65,3.58-1.15.1.31.2.62.3.93Z"/>
      <path class="cls-1" d="m390.67,314.73c-1.3-.18-2.11-.16-2.79-.46-.29-.13-.28-.94-.4-1.43.77-.01,1.57-.16,2.28.03.32.09.45.86.91,1.86Z"/>
      <path class="cls-1" d="m200.6,441.07c-.48,1.23-.87,2.51-1.47,3.68-.56,1.09-1.36,2.07-2.26,2.98,1.26-2.2,2.51-4.4,3.76-6.61,0-.01-.04-.04-.04-.04Z"/>
    </g>
  </g>
</svg>