<?xml version="1.0" encoding="UTF-8"?>
<svg id="Layer_2" data-name="Layer 2" xmlns="http://www.w3.org/2000/svg" viewBox="0 0 664.4 672.6">
  <defs>
    <style>
      .cls-1 {
        fill: #5df45a;
      }

      .cls-2 {
        opacity: .46;
      }
    </style>
  </defs>
  <g id="images">
    <g class="cls-2">
      <path class="cls-1" d="m188.65,527.63c-2.21-.48-4.42-.98-6.64-1.4-.56-.11-1.18.08-1.84.4,4.91,5.26,11.77,6.16,17.9,8.26-2.61,1.32-5.22.13-7.68-.98-3.79-1.72-7.45-3.75-11.14-5.7-.32-.17-.37-.78-.62-1.13-.56-.77-1.14-2.11-1.76-2.14-3.7-.18-5.65-2.93-7.81-5.19-5.24-5.49-9.61-11.65-13.04-18.43-1.5-2.96-3.47-5.73-3.57-9.29-.02-.77-1.23-1.44-1.59-2.29-.95-2.21-1.76-4.48-2.58-6.74-2.42-6.69-4.84-13.39-7.19-20.11-.32-.91-.26-1.94-.44-3.42-2.49-.75-2.56-3.73-2.84-6.13-.32-2.78-1.53-4.33-3.78-5.7-7.32-4.43-13.67-10.1-20.1-15.69-3.24-2.81-6.89-5.14-10.19-7.87-1.48-1.22-2.5-2.97-3.84-4.38-1.66-1.76-3.48-3.37-5.13-5.14-4.4-4.72-9.63-8.78-11.96-15.16-.97-2.66-1.1-2.86-.27-4.54.92,1.2,1.89,2.18,2.51,3.35,3.12,5.92,7.84,10.47,12.84,14.69,4.43,3.74,9.26,7.01,13.77,10.67,4.78,3.88,9.37,8,14.09,11.95,1.31,1.09,2.78,1.99,4.21,2.93.22.15.79.16.91,0,.21-.27.37-.76.27-1.07-.85-2.76-1.78-5.49-2.66-8.24-1.08-3.35-1.07-6.7.01-10.06.29-.91.73-1.85.68-2.76-.14-3.07.81-5.72,2.41-8.31,1.25-2.03,2.04-4.36,3.12-6.5.22-.44.84-.68,1.28-1.01.24.51.74,1.07.67,1.53-.23,1.44-.71,2.85-1.03,4.28-.37,1.66-.75,3.32-.98,5-.91,6.54-.58,13.03.73,19.49.63,3.11,1.12,6.24,1.73,9.35.13.65-.08,1.89,1.38,1.25.09-.04.61.78.86,1.25,2.11,4,8.6,7.55,13.05,7.3.88-.05,1.82.52,2.71.86.9.34,1.74.99,2.66,1.09,4.65.51,9.33,1.36,13.96,1.14,2.59-.12,4.81.14,7.28.7,2.04.46,4.45-.46,6.62-1.02,2.51-.65,5.04-1.38,7.4-2.44,3.05-1.37,6.01-2.77,9.51-2.46.36.03,1.09-.92,1.17-1.49.66-4.31,1.07-8.66,1.82-12.95.45-2.58,1.38-5.07,2.09-7.61.59-2.09.89-4.13-.53-6.1-.31-.43-.12-1.24-.16-1.87.53.12,1.07.23,1.68.37,1.1-1.27.99-3.93-.5-5.51-1.36-1.46-2.6-2.86-2.5-5.08.03-.7-.67-1.46-1.1-2.15-.64-1.03-.82-1.98.29-3.04,1.88,2.85,3.7,5.59,5.82,8.8,3.73-5.96,3.63-12.49,6.76-18.36-4.78.69-4.38-3.17-5.73-5.47-2.26-3.85-2.36-8.26-3.43-12.43-.94-3.67-1.96-7.31-4.21-10.51-2.36-3.35-6.01-4.61-9.41-6.23-1.71-.81-3.73-.98-5.53-1.42-1.23,2.91-.58,5.18.07,7.51,1,3.57,1.65,7.24,2.73,10.79.75,2.48,1.99,4.8,2.94,7.22,1.32,3.36,2.58,6.74,3.85,10.07-2.21.32-2.93-.3-3.98-3.33-.46-1.33-1.25-2.55-1.75-3.88-.91-2.39-1.79-4.8-2.56-7.23-1.76-5.6-3.44-11.24-5.18-16.85-.45-1.45-.59-3.5-1.59-4.12-.93-.58-2.81.41-4.28.67-4.9.86-9.02,3.12-12.59,6.59-3.13,3.04-6.55,5.79-9.66,8.87-2.52,2.49-5.03,5.04-6.3,8.53-.29.8-1.47,1.22-2.02,1.98-1.82,2.47-3.52,5.03-5.3,7.53-.42.59-.89,1.28-1.5,1.56-.49.23-1.33.08-1.81-.22-.23-.14-.21-1.13.03-1.55,2.14-3.75,4.06-7.67,6.62-11.12,4.38-5.93,9.03-11.67,13.83-17.27,3.21-3.75,7.43-6.24,11.92-8.31,2.14-.99,4.06-2.45,6.09-3.67.49-.29,1.03-.49,1.41-.67.26-2.89.52-5.83.79-8.77.23,0,.47,0,.7-.01.1.4.27.79.29,1.19.18,5.84,4.81,9.28,9.55,9.17,3.5-.09,10.15,3.59,11.64,6.11,2.16-.35,2.64-1.02,2.05-3.35-.95-3.73-.67-7.42.2-11.12,1.19,6.19,2.36,12.35,4.12,18.37.31-.04.62-.08.93-.12-.13-1.91-.19-3.82-.4-5.72-.51-4.57-1.06-9.14-1.67-13.7-.32-2.38-1.07-4.72-1.15-7.1-.05-1.58.64-3.23,1.21-4.77.18-.48,1.1-1.01,1.6-.94.44.06,1.07.9,1.11,1.43.31,3.64.38,7.31.75,10.95.5,4.99,1,10.01,1.89,14.94.57,3.18,1.86,6.23,2.8,9.35.57,1.88.95,3.84,1.68,5.66.81,2,1.66,4.04,4.18,4.68.68.17,1.13,1.22,1.7,1.88.4-.35.77-.89,1.26-1.06,1.45-.49,1.63-1.58,1.04-2.62-1.55-2.72-1.85-5.69-2.27-8.7-.22-1.56-1.08-3.04-1.64-4.56-.26-.72-.49-1.45-.81-2.4.92-.09,1.48-.14,2.39-.22-.89-6.3-.15-12.71-1.75-18.89-.2,0-.41,0-.61,0-.12,2.62-.24,5.24-.36,7.86-2.62-6.43-2.48-14.36.03-15.88.12.63.24,1.22.38,1.95.53-1.47.95-2.85,1.56-4.15.16-.34,1.08-.7,1.33-.54.51.32,1.05.96,1.12,1.52.23,1.84.27,3.71.34,5.57.13,3.73.22,7.45.36,11.18.2,5.43.61,10.81,2.23,16.06.5,1.62.39,3.43.88,5.05.73,2.45,1.22,2.23,3.16.81,2.03-1.49,1.99-3.21,1.68-5.19-.75-4.79-1.75-9.56-2.24-14.38-.23-2.25.46-4.59.73-6.89.4-3.41.71-6.84,1.26-10.23.23-1.45.95-2.81,1.45-4.22.38,0,.75,0,1.13,0,.32,1,.96,2.02.9,3-.26,4.67-.78,9.33-1.02,14-.07,1.34.5,2.72.76,4.08.07.39.12.78.14,1.18.17,4.33.33,8.65.5,13.24.88-.07,1.61.06,2.13-.21,2.39-1.28,4.71-2.68,7.07-4.02,1.15-.66,1.68-1.45,1.18-2.87-1.02-2.9-1.92-5.85-2.82-8.79-1.17-3.84-2.3-7.7-3.41-11.56-.12-.41,0-.94.14-1.36.53-1.6,1.11-3.18,1.71-4.89,2.3,7.3,4.56,14.5,6.88,21.85,2.04-1.4,2.88-4.49,2.17-6.12-1.07-2.43-2.05-4.9-3.04-7.36-.85-2.11-1.71-4.21-2.47-6.35-.3-.86-.35-1.81-.53-2.79,1.65-.29,2.56.09,3.07,1.57,1.38,3.99,2.84,7.96,4.37,11.89.24.6,1.02.99,1.79,1.7,3.23-5.45,6.47-10.66,11.47-14.28.2.18.39.35.59.53.34-.49.71-.96,1.03-1.47.49-.77,1.21-1.48.13-2.44-.29-.25-.12-1.06-.1-1.61.14-5.58.12-11.17.51-16.73.15-2.09,1.18-4.15,1.95-6.17,1.19-3.14,2.48-6.24,3.77-9.33.58-1.39,1.33-2.7,1.91-4.09.32-.76.47-1.59.75-2.55-1.65.13-2.9.23-4.16.32-.48-1.66.04-3.12,1.5-3.44,1.42-.32,2.83.44,2.99,2.98.67-.94.96-1.39,1.29-1.81,1.81-2.27,3.6-4.55,5.44-6.79,1.75-2.13,3.55-4.22,5.34-6.31.61-.72,1.25-1.42,1.92-2.09,3.28-3.29,6.9-6.1,11.18-7.99,2.71-1.2,5.41-2.42,8.06-3.72.66-.32,1.13-1.02,1.69-1.54-.1-.24-.2-.48-.3-.72-2.15.14-4.31.18-6.44.44-2.06.25-4.1,1.08-6.13,1.02-4.62-.13-9.1.57-13.24,2.39-3.32,1.46-6.76,1.79-10.2,2.41-.33.06-.84.27-.98.13-1.78-1.83-3.67-.55-5.89-.08.1-.87-.02-1.66.29-2.17.78-1.28,1.61-2.61,2.7-3.62,2.71-2.5,5.54-4.88,8.39-7.21,1.75-1.43,3.62-2.72,5.47-4.04,2.93-2.09,5.74-4.41,8.88-6.13,3-1.64,6.01-3.25,9.5-4.12,5.51-1.37,10.8-3.61,16.15-5.59,3.39-1.26,6.69-2.78,10.08-4.06.68-.26,1.57.05,2.36.1-.11.94-.06,1.94-.39,2.79-.23.58-.99.96-1.57,1.47.49.41,1.16.75,1.47,1.29.49.85.91,1.83.99,2.79.02.26-1.3.87-2.02.9-3.01.11-6.04-.1-9.04.11-3.91.26-7.62,1.19-11.05,3.34-3.79,2.37-7.85,4.32-11.73,6.55-1.46.84-2.8,1.89-4.13,2.92-2.41,1.87-4.78,3.79-7.14,5.73-.45.37-.79.88-1.4,1.58.77.07,1.24.24,1.65.13,4.3-1.08,8.61-1.59,13.1-1.29,2.79.19,5.65-.67,8.49-1.01.89-.11,1.8-.08,2.7-.04,3.52.15,6.74-.86,9.78-2.51.89-.48,1.62-1.24,2.52-1.69.67-.34,1.5-.39,2.56-.64-.58,2.41.68,2.8,2.3,2.77,1.5-.02,2.8.06,2.62,2.17-.04.45.7.97,1.49,1.99.28-1.75.46-2.85.68-4.17.98,0,2.02.12,3.01-.04.89-.14,1.74-.56,2.58-.92.37-.16.63-.65.99-.7,7.13-1.07,14.2-2.78,21.49-1.96,1.2.14,2.34.76,3.54.91,1.01.13,2.07-.11,3.1-.18.03-.3.05-.61.08-.91-4.39-1.66-8.86-3.16-13.14-5.07-1.81-.81-3.5-1.44-5.45-1.37-1.23.05-2.41-.33-3.17,1.42-.46,1.07-2.04,1.73-3.22,2.41-1.3.75-5.47-.55-6.31-1.83-.73-1.13.1-3.05,1.56-3.07,1.18-.01,2.52.41,3.51,1.06,1.28.85,4.05.85,5.04-.38.89-1.11.22-1.63-.79-1.9-3.91-1.03-7.82-2.04-11.75-3.02-1.31-.33-1.82-1.12-1.69-2.42.14-1.41,1.01-1.98,2.28-1.66,4.95,1.24,9.88,2.56,14.82,3.83,1.58.41,3.18.77,4.77,1.15.2.05.46-.04.61.05,2.51,1.51,5,3.04,7.51,4.56.96.58,1.89,1.22,2.9,1.69,2.16.99,4.43,1.78,6.54,2.86,2.26,1.15,4.4,2.53,6.6,3.81,3.07,1.79,6.19,3.49,9.2,5.38,2.91,1.83,5.71,3.82,8.51,5.8.31.22.33.86.48,1.3-.45.13-1,.49-1.34.35-1.76-.75-3.48-1.61-5.2-2.47-1.2-.6-2.38-1.26-3.83-2.03-.06,1.92,2.61,3.03.55,5-1.72-1.54-3.45-3.12-5.21-4.67-3.63-3.19-7.75-5.37-12.56-6.16-4.7-.77-9.38-2.01-14.11-2.22-4.14-.19-8.34.69-12.5,1.21-1.98.25-3.92.77-6.04,1.2.04.36.11.95.17,1.56.21.08.38.19.57.21,5.47.62,10.37,3.01,15.36,5.05,1.03.42,1.94,1.23,2.76,2.01.36.35.6,1.17.45,1.62-.14.39-.98.86-1.4.77-2.53-.53-5.11-.99-7.52-1.89-3.99-1.48-7.98-2.77-12.27-3.04-.9-.06-1.75-.78-2.43-1.11-1.33.25-2.61.67-3.9.71-5.09.17-9.91.94-14.44,3.67-1.87,1.13-4.56.95-6.9,1.22-1.36.16-2.75.03-4.24.46.57.42,1.15.83,1.8,1.3-.16.53-.34,1.09-.38,1.22,1.57.82,2.97,1.56,4.74,2.49,5.52-2.27,11.75-3.74,18.32-3.25,1.08.08,2.31.16,3.17.71.77.49,1.14,1.62,1.69,2.46-1.03.43-2.06,1.22-3.09,1.22-2.14,0-4.3-.7-6.42-.59-3.66.19-7.34.5-10.58,2.63-2.55,1.68-5.2,3.19-7.82,4.77-1.2.72-1.16,1.64-.3,2.52.75.77,2.78,1.14,1.47,2.51-.75.78-2.96,1.1-3.93.57-5.16-2.86-5.57-1.6-9.57,1.69-4.55,3.74-8.91,7.86-12.62,12.42-2.98,3.67-4.95,8.18-7.16,12.43-.42.81.13,2.13.22,3.22.28,3.29.56,6.57.89,10.47,2.46-1.47,4.63-2.7,6.72-4.05,2.67-1.72,5.22-3.65,7.94-5.29,3.11-1.88,4.8-3.94,6.56-7.79,1.7-3.73,3.31-7.59,5.67-10.89,2.03-2.85,4.99-5.06,7.65-7.44,2.1-1.88,3.78-3.78,3.39-6.92-.12-.93.48-2,.95-2.9.08-.15,1.69.2,1.7.36.1,2.27,1.58,2.28,3.22,2.13.4-.04.81,0,1.26,0,.02.4.04.75.07,1.15,4.31-2.51,9.95-3.6,12.65-2.27-1.93.8-3.72,1.36-5.32,2.26-3.92,2.22-7.89,4.41-11.59,6.98-3.36,2.34-6.74,4.84-9.45,7.86-2.36,2.63-3.82,6.07-5.63,9.19-.16.27.06.77.2,1.96,1.5-1.52,2.68-2.56,3.68-3.75,1.21-1.46,2.24-3.06,3.38-4.58,1.1-1.47,2.2-2.94,3.37-4.35,1.95-2.33,4.49-2.1,5.98.48,1.49,2.58,2.07,2.93,4.8,2.26,2.86-.7,5.65-1.64,8.51-2.36.71-.18,2.09-.11,2.2.19.37,1.03.75,2.43.33,3.3-.66,1.35-.31,2.01.67,2.23,1.41-.09,2.88-.48,4.23-.23,5.75,1.05,10.68,3.86,15.19,7.48.55.44,1.25.71,1.96,1.09,1.67-3.74,1.4-7.38.77-11-.32-1.81-2.1-2.87-3.87-2.49-4.81,1.05-9.6,2.21-14.43,3.14-.92.18-2.56,1.35-3-.79-.64-3.11.03-4.48,2.16-4.89,1.47-.28,2.9-.81,4.36-1.17,2.5-.62,5-1.55,7.54-1.68,2.18-.11,4.42.69,6.62,1.12,1.05.21,2.08.5,3.12.75.16-.33.31-.66.47-.99-1.88-1.35-3.72-2.76-5.66-4.03-3.16-2.07-6.37-4.04-9.57-6.04-.7-.44-1.4-1.09-2.15-1.16-2.36-.24-2.67-1.91-3.01-3.87,3.55-.97,6.1.84,8.7,2.68,5.22,3.69,10.44,7.38,15.78,10.88,1.25.82,2.97,1.27,4.47,1.28,4.88.05,9.77-.16,14.65-.32,1.23-.04,1.9-.57,1.48-2.03-1.33-4.65-4.17-8.07-8.57-9.92-2.54-1.07-5.46-1.24-8.02-2.28-4.39-1.77-9-.12-13.5-1.36-4.4-1.22-9.17-1.08-13.73-1.8-2.01-.32-4.29-.65-5.22-3.07-.71-1.84-.27-2.64,1.64-2.37,2.08.29,4.1.95,6.16,1.4,1.86.4,3.73.75,5.61,1.1,5.04.93,10.1,1.8,15.13,2.8.68.13,1.21,1.1,1.88,1.21,1.59.26,3.22.24,4.84.34l.35-.79c-.84-.61-1.6-1.5-2.54-1.79-4.25-1.29-7.96-3.43-11.42-6.33,1.24-.99,2.31-.58,3.47-.61,3.89-.12,6.55,2.24,9.56,3.89.96.53,1.73,1.42,2.6,2.12,1.34,1.07,2.56,2.39,4.06,3.11,3.9,1.86,7.27,4.37,10.42,7.26,2.83,2.59,5.76,5.08,9.27,7.54-.1-1.55.05-3.18-.38-4.63-.53-1.82-1.68-3.46-2.32-5.27-.74-2.11-1.19-4.31-1.84-6.46-.57-1.9-1.28-3.77-1.85-5.67-.16-.52-.03-1.13-.03-1.69.69.13,1.71.03,2,.45.97,1.38,1.8,2.89,2.46,4.44,1.22,2.9,2.46,5.81,3.35,8.81.58,1.97.46,4.13.8,6.18.51,3.07,1.15,6.11,1.61,8.51,2.51.89,4.62,1.48,6.58,2.39,2.92,1.35,5.78,2.86,8.59,4.42,4.44,2.45,8.5,5.4,11.85,9.27.56.65.99,1.47,2.35,1.35.79-.07,1.71,1.33,2.82,2.3-.5-3.04-.82-5.84-1.44-8.58-1.18-5.25-3.4-10-6.43-14.53-3.4-5.08-7.37-9.63-11.7-13.86-2.64-2.57-5.75-4.67-8.63-6.99-.48-.39-1.11-.74-1.35-1.26-.37-.79-.46-1.72-.66-2.58.84.06,1.74-.04,2.5.24.82.3,1.57.89,2.24,1.47,4.33,3.79,8.72,7.51,12.91,11.45,5.79,5.44,9.99,12.04,12.71,19.46,1.38,3.77,2.05,7.81,2.92,11.76.83,3.77,1.45,7.58,2.29,11.35.26,1.18,1,2.24,1.37,3.4.81,2.54-.24,4.2-2.83,4.44-.35.03-1.03-.55-1.11-.94-.74-3.84-2.78-7-4.64-10.38-4.63-8.42-12.48-12.35-20.55-16.15-1.32-.62-2.81-.89-4.75-1.49.94,2.1,1.65,3.85,2.49,5.52,3.18,6.34,4,13.21,4.65,20.13.04.48.19.98.11,1.43-.13.78-.4,1.53-.62,2.29-.69-.49-1.69-.83-2-1.5-.77-1.67-1.11-3.53-1.84-5.23-.93-2.17-2.06-4.26-3.11-6.38-1.89-3.84-3.58-7.7-3.43-12.16.03-1.02-.66-2.3-1.41-3.07-2.8-2.86-5.73-5.63-10.49-4.49-1.22,2.14-.66,4.19.86,6.15,3.45,4.44,4.41,9.48,3.63,14.95-.44,3.13-.83,6.28-1.27,9.41-.07.47-.13,1.09-.43,1.35-.45.39-1.13.72-1.69.69-.3-.02-.82-.86-.8-1.29.18-2.68.8-5.36.67-8.01-.16-3.25-.91-6.48-1.45-9.71-.05-.29-.39-.56-.64-.78-.13-.12-.37-.12-.78-.24-.37,2.55-.91,5.01-1.06,7.5-.22,3.71-.15,7.43-.26,11.14-.01.45-.4.88-.61,1.32-.36-.24-.87-.41-1.04-.75-.3-.6-.54-1.3-.54-1.96-.05-4.57-.11-9.13.01-13.7.04-1.47.55-2.94.94-4.39.71-2.69.12-4.94-2.27-6.24-4.51-2.46-9.04-4.91-13.78-6.85-2.4-.98-5.27-.92-7.94-1.1-.52-.04-1.6,1.01-1.58,1.53.21,5.78.31,11.59,1.09,17.3.21,1.51,2.49,2.96,4.11,3.99,1.57,1.01,3.53,1.38,5.27,2.15,2.61,1.16,3.54,3.48,2.56,6.11q-1.35,3.64-3.33,4.68c1.77,2.79,1.08,6.25-.41,8.1-2.29,2.86-2.85,6.25-4.52,9.23-2.89,5.14-6.4,9.75-10.38,14.04-1.69,1.82-3.31,3.7-5.06,5.46-.7.71-1.63,1.18-2.7,1.93,2.08,1.71,4.04,3.37,6.06,4.95.23.18.75-.03,1.13-.04,3.21-.1,5.5-2.22,7.96-3.82,3.47-2.25,6.8-4.73,10.08-7.27,1.58-1.22,2.93-2.74,4.32-4.19,1.88-1.95,3.83-3.85,5.49-5.97,1.59-2.03,2.74-4.41,4.3-6.48,2.8-3.73,2.53-7.87,2-12.11-.16-1.31,1.2-2.61,2.59-2.68,1.6-.09,1.89.75,1.94,2.18.06,1.84.54,3.66.65,5.49.07,1.2.04,2.51-.35,3.61-.93,2.58-2.28,5.02-3.14,7.62-.81,2.46-1.13,5.07-1.81,7.58-.76,2.82-2.49,5.07-4.11,7.49-2.28,3.39-4.94,6.24-8,8.8-3.11,2.6-6.3,5.11-9.48,7.62-1.12.88-2.38,1.59-3.5,2.49-.84.67-1.26,1.44-.68,2.69,1.35,2.88,2.09,6.13,3.83,8.72,1.37,2.04,1.56,4.27,2.41,6.36.47,1.15,1.17,1.5,2.17.95,2.8-1.53,5.5-3.26,8.35-4.67,1.27-.63,2.82-.68,4.24-1,.13.24.26.47.39.71-1.52,1.36-2.94,2.83-4.57,4.04-2.65,1.98-5.43,3.78-8.15,5.67-.27.19-.74.48-.71.64.54,2.71,1.1,5.42,1.8,8.1.07.25,1.13.41,1.7.34,3.5-.44,7.06-.67,10.15-2.73.62-.41,1.54-.36,2.77-.62-.52.83-.72,1.53-1.15,1.75-3.23,1.61-6.5,3.14-9.78,4.65-.79.36-1.69.5-2.47.88-.36.17-.83.71-.78,1.01.3,1.89.72,3.76,1.2,6.1,5-2.5,9.57-4.48,13.82-7,4.19-2.48,8.05-5.51,12.35-8.51-.08,1.75-.22,2.85-1.7,3.38-.67.24-1.25.86-1.77,1.39-1.39,1.42-2.66,2.74-4.88,3.15-1.29.24-2.26,1.98-3.51,2.84-2.34,1.62-4.76,3.11-7.18,4.62-1.75,1.09-3.63,1.98-5.28,3.2-1.75,1.3-2.16,5.3-1.12,7.26.35.66.33,1.55.34,2.33.08,3.75.11,7.5.16,11.07,4.61,1.3,7.69-1.72,11.26-2.64.12.23.24.46.36.69-.82.61-1.57,1.33-2.46,1.8-2.63,1.39-5.36,2.6-7.94,4.08-.62.36-1.21,1.5-1.14,2.22.22,2.19-1.15,3.39-2.44,4.9,1.82,2.41-.35,4.88-.33,7.9,2.85-.27,5.54-.55,8.23-.78,6.08-.53,11.88-2.18,17.57-4.3.65-.24,1.52.13,2.29.21-.55.76-.96,2-1.67,2.2-5.85,1.63-11.73,3.13-17.64,4.54-2.93.7-5.93,1.05-8.88,1.68-.66.14-1.29.72-1.79,1.24-1.01,1.07-.4,1.67.76,1.7,1.35.03,2.71-.11,4.05-.32,4.17-.64,8.33-1.33,12.49-2.03,2.42-.41,4.83-.89,7.26-1.28.31-.05.67.26,1.53.63-1.82.8-3.2,1.35-4.53,2-1.23.6-2.35,1.41-3.62,1.9-.72.28-1.63.02-2.45.11-1.53.18-3.05.42-4.56.67-2.21.35-4.4.83-6.61,1.07-2.17.24-4.44.16-6.2,1.69-1.14.99-2.21,2.14-3.02,3.41-.8,1.26.23,1.59,1.31,1.83,4.11.91,8.15.14,12.24-.27,4.8-.49,9.48-2.36,14.47-1.23,1.23.28,2.66-.31,4-.44.61-.06,1.29-.11,1.84.09.4.15.91.72.9,1.09,0,.37-.56.99-.95,1.05-5.92.97-11.84,2-17.79,2.75-4.91.61-9.93.51-14.78,1.39-5.13.93-9.57,3.39-12.56,8.05-1.42,2.21-3.39,4.06-5.08,6.09-.48.57-.83,1.26-1.31,1.83-.85.99-1.74,1.96-2.68,2.87-.49.48-1.36.7-1.62,1.24-1.18,2.5-3.69,3.03-6.48,4.47,1.14.68,1.93,1.54,2.7,1.53,1.89-.04,3.79-.38,5.64-.8,1.42-.32,3.77.39,4.04,1.8.26,1.37,1.15,1.35,2.02,1.55,4.22.96,8.42,2.1,12.69,2.76,3.25.5,6.59.37,9.88.56,1.03.06,2.06.32,3.09.32,1.43,0,2.87-.14,4.3-.28,4.71-.45,9.23.92,13.83,1.48,1.23.15,2.52-.06,3.71.21.76.18,1.81.84,1.96,1.47.34,1.42-.92,1.42-1.9,1.38-3.64-.15-7.29-.38-10.93-.5-2.8-.09-5.6.04-8.4-.09-6.79-.31-13.58-.65-20.36-1.14-1.43-.1-2.77-1.09-4.21-1.33-4.58-.76-9.18-1.37-13.77-2.02-1.02-.14-2.08-.1-3.06-.38-1.03-.3-1.98-.88-3.21-1.45-1.07,1.44-2.56,2.65-4.87,2.91-1.23.14-2.34,1.32-3.51,2.03-1.29.78-2.23,2.24-4.18,1.67-.56-.16-1.96.59-2.03,1.06-.4,2.76-2.97,3.07-4.66,4.09-4.33,2.63-8.88,4.92-13.4,7.21-1.95.98-4.04,1.73-6.12,2.4-2.93.94-5.94,1.65-8.87,2.59-.32.1-.68,1.36-.48,1.56,1.78,1.82,3.66,3.55,5.55,5.27,1.26,1.14,2.58,2.21,3.75,3.51-3.82-1.17-5.65-5.99-10.78-5.69,1.16,1.4,2.08,2.51,3,3.62-.13.16-.26.32-.39.48-1.04-.97-2.22-1.82-3.08-2.93-1.67-2.14-2.92-4.8-6.26-4.58-1.78.11-3.55.43-5.33.54-1.08.07-2.17-.06-3.25-.13-.26-.02-.56-.31-.77-.25-4.39,1.43-8.82-.29-13.23.13-2.27.21-4.6-.05-6.9-.2-1.95-.12-3.06-1.56-4.2-2.93-1.25-1.51-2.75-2.43-4.87-2.22-.92.09-1.89-.35-2.84-.46-1.18-.14-2.26-.95-3.53.43-.59.64-2.44.11-3.72.11-.02.17-.04.33-.05.5,4.36.78,8.73,1.56,13.09,2.34l-.08.41c-3.49-.53-6.97-1.19-10.48-1.56-2.93-.31-5.9-.26-8.85-.4-.66-.03-1.32-.16-1.98-.25l.05.05c1.83-.12,3.66-.21,5.48-.39.68-.07,1.34-.36,2.52-.7-2.46-1.36-4.49-2.32-6.33-3.56-.74-.5-1.28-1.56-1.54-2.47-.91-3.14-2.24-4.52-4.49-4.53-2.37,0-3.54,1.43-4.03,3.43-.4,1.6-1.34,1.89-2.72,1.82-1.65-.08-3.32-.21-4.96-.06-.64.06-1.22.83-1.82,1.28.09.25.18.5.27.75-.44-.2-1.26-.39-1.27-.6-.06-2.29-1.94-2.44-3.42-2.94-2.93-.98-5.91-1.8-8.84-2.77-.58-.19-1.03-.78-1.54-1.19,2.19.77,4.37,1.54,6.56,2.31,2.57.9,5.12,1.84,7.72,2.64.47.15,1.12-.23,1.68-.42,2.2-.75,4.39-1.52,6.61-2.29,1.15-3.31,2.13-3.81,6.47-3.57,2.2.12,3.53,1.52,4.88,2.97,1.03,1.12,2.07,2.23,3.1,3.35.31.34.76.69.81,1.08.22,1.68,1.54,1.81,2.74,1.99,2.23.34,4.48.57,6.72.84,7.16.86,14.32,1.71,21.48,2.58,3.67.45,7.32.94,10.99,1.38.39.05.81-.08,1.2-.19,1.18-.32,2.36-.67,3.53-1,.8-.23,1.61-.44,2.42-.66.04-.19.08-.38.12-.58-.29-.18-.66-.31-.86-.56-1.64-2.06-4.53-3.08-5.04-6.04-.11-.61-.04-1.25-.06-1.88.72,0,1.69-.31,2.12.05,1.8,1.47,3.49,3.08,5.13,4.73,2.37,2.39,4.62,4.92,8.53,3.22.43-.19.95-.18,1.42-.26,5.82-.97,11.31-2.9,16.56-5.6,4.19-2.15,8.47-4.12,12.5-6.06.63-.77,1.08-1.64,1.78-2.14,2.95-2.08,5.97-4.05,9.4-6.35-1.09-.58-1.79-1.03-2.54-1.36-3.26-1.42-6.59-2.69-9.77-4.26-2.76-1.36-5.32-3.13-8.04-4.6-2.64-1.43-5.63-2.35-7.98-4.14-4.03-3.06-8.68-5.41-11.72-9.69-.57-.81-1.45-1.39-2.18-2.09-1.86-1.82-3.83-3.54-5.54-5.49-2.6-2.98-5.02-6.12-7.52-9.19-.38-.46-.97-.88-1.1-1.4-.6-2.48-1.08-4.99-1.48-6.9-1.28-.56-2.42-.76-3.11-1.42-.99-.95-1.66-2.24-2.46-3.39-.51-.73-1.03-1.45-1.76-2.48,2.53-.3,4.64-1.45,6.46.74.23.27.95.44,1.27.29,2.64-1.29,5.46-1.18,8.26-1.03.97.05,2.16.34,2.82.96,1.93,1.85,4.44,2.27,6.79,2.81,4.12.95,8.35,1.37,12.52,2.14,4.62.85,9.18,2.07,13.82,2.7,4.18.58,8.43.6,12.65.84,1.1.06,2.23-.14,3.31.02,1.24.18,2.74-.04,3.61,1.39-2.46.49-4.69,1.43-6.82,1.24-4.18-.37-8.29-1.42-12.45-2.1-3.77-.61-7.56-1.1-11.1-1.61,0,0,.27-.1.54-.2-2.38-.41-4.71-.39-7.04-.43-.52,0-1.23-.05-1.52-.38-1.23-1.39-2.57-.98-4.3-.57.47.35.66.56.89.65,2.65,1.03,5.27,2.16,7.98,3.03,4.73,1.53,9.44,3.31,14.3,4.24,6.05,1.16,12.25,1.56,18.38,2.33.47.06,1.26.43,1.28.71.13,1.5.06,3.02.06,4.67-.99-.09-1.75-.09-2.48-.22-2.33-.44-4.64-1.18-6.99-1.35-6.86-.48-13.15-3.19-19.7-4.85-5.41-1.37-10.61-3.68-16.07-4.67-3.71-.67-7.04-2.15-10.57-3.14-2.11-.6-4.15-1.48-6.66-2.39.18,1.06.12,1.66.37,2.05,1.75,2.62,3.52,5.23,5.37,7.77,1.09,1.49,2.97,2.7,3.39,4.32,1.02,3.93,4.27,6.09,6.72,8.56,3.79,3.84,8.38,7.12,13.13,9.72,6.17,3.38,12.03,7.31,18.53,10.16,4.75,2.08,9.45,3.78,14.66,3.93.66.02,1.31.63,2.22,1.1.05-.75.01-1.46.16-2.14.22-1.04.36-2.19.91-3.06.77-1.23,1.78-2.35,2.85-3.34,1.88-1.72,3.97-3.2,5.81-4.95,1.92-1.83,3.75-3.78,5.42-5.83,1.7-2.08,3.18-4.34,4.72-6.55.23-.33.23-.83.35-1.27-3.58-.49-6.97-.89-10.35-1.42-2.62-.41-5.23-.93-7.81-1.55-.65-.16-1.17-.87-1.75-1.33.75-.31,1.54-.94,2.26-.88,5.52.46,11.03.96,16.52,1.65,3.31.42,4.27.03,5.7-3.38-.56-.09-1.05-.26-1.55-.25-4.61.1-9.23.2-13.84.35-2.47.08-4.94.34-7.41.29-.57-.01-1.12-.94-1.69-1.45.41-.45.79-1.23,1.25-1.29,4.08-.5,8.16-.96,12.26-1.26,3.7-.28,7.42-.33,11.12-.51,2.03-.1,3.15-1.37,3.96-3.25-.53-.13-.99-.38-1.42-.33-1.04.12-2.06.48-3.1.55-3.16.22-6.33.33-9.49.53-1.84.12-3.78.75-5.5.38-2.6-.57-5.05-1.82-7.56-2.78,3.55-.4,7.09-.4,10.63-.4,2.77,0,5.55.12,8.3-.09,1.99-.15,3.95-1.12,5.91-1.09,2.93.05,5.31-1.63,5.64-4.67.21-1.96.06-4.3,2.64-4.87-.9-1.31-1.69-2.48-2.71-3.97-1.05.46-2.3,1.29-3.65,1.53-2.9.51-5.85.86-8.79.98-2.46.1-4.95-.35-7.42-.3-3.35.06-6.69.47-10.04.47-.69,0-1.38-1.15-2.07-1.78.58-.4,1.11-1,1.75-1.16.78-.19,1.65.03,2.48.01,4.88-.12,9.87.32,14.62-.55,4.65-.85,9.68-.42,13.94-3.42,1.14-.8,1.65-1.43,1.68-2.59.08-3.23.19-6.46-1.24-9.53-.35-.76-.08-1.81-.12-2.72-.07-1.76-.16-3.53-.25-5.53-1.62.31-2.89.51-4.15.81-6.78,1.59-13.65,2.4-20.62,2.26-1.21-.02-2.3-.12-2.43-1.7,2.21-.41,4.27-.8,6.34-1.17,5.52-.99,11.06-1.92,16.57-2.99,3.3-.64,4.1-1.6,3.88-4.18-.11-1.37-.24-2.75-.57-4.07-.13-.52-.77-1.2-1.28-1.31-4.31-.92-8.64-1.53-13.1-1.06-2.56.27-5.17.05-8.02.05,1.9-.51,3.42-1.1,4.99-1.31,4.88-.65,9.78-1.2,14.68-1.68,1.23-.12,1.64-.81,1.49-1.73-.2-1.27-.59-2.55-1.16-3.69-.25-.5-1.21-1.02-1.75-.94-4.93.77-9.83,1.74-14.77,2.5-3.87.59-7.77,1.01-11.67,1.39-.44.04-1.08-.53-1.36-.98-.13-.21.29-1.1.61-1.2,1.6-.51,3.23-.92,4.88-1.24,3.77-.74,7.59-1.29,11.34-2.16,2.62-.61,5.19-1.52,7.71-2.5,1.19-.46,2.62-1.17,3.15-2.19.45-.87-.22-2.33-.47-4.1-2.11.88-3.9,1.82-5.8,2.39-4.99,1.49-10,2.9-15.05,4.14-1.57.39-3.31.25-4.94.08-.59-.06-1.11-.88-1.66-1.36.49-.51.94-1.08,1.5-1.5.29-.22.78-.19,1.18-.23,2.63-.29,5.3-.4,7.89-.89,2.53-.48,5.03-1.22,7.47-2.05,2.47-.84,4.84-1.97,7.29-2.88,1.41-.52,1.86-1.81,1.02-3.02-1.25-1.79-2.46-3.6-3.58-5.46-.65-1.08-1.24-1.86-2.72-1.39-3.21,1.01-6.42,2.03-9.69,2.82-3.49.84-6.98,2.13-10.66.74-.31-.12-.76.18-1.15.26-.92.18-1.88.6-2.76.48-3.59-.49-7.17-1.03-10.71-1.78-5.19-1.1-10.43-2.11-15.07-4.94-.55-.34-1.38-.23-2.08-.32l-.38.64c3.23,2.63,6.45,5.26,9.97,8.13-.93.45-1.42.91-1.73.8-1.89-.63-4.03-1.01-5.53-2.19-4.1-3.21-7.91-6.78-11.87-10.18-1.85-1.59-3.73-3.16-5.65-4.66-2.54-1.98-4.96-4.2-7.75-5.75-2.27-1.25-4.15-2.8-5.97-4.55-1.68-1.61-3.45-3.14-5.21-4.67-.25-.22-.72-.35-1.05-.3-1.22.2-2.42.67-3.65.73-2.29.13-3.44,1.9-2.68,4.13.49,1.46,1.1,3.03.99,4.5-.32,4.34,1.9,7.85,3.72,11.34,1.96,3.78,2.3,6.81-.35,10.55-3.37-9.09-8.55-17.03-14.38-24.83-.94,2.19-1.87,4.36-2.1,6.6-.43,4.11-.87,8.3-.5,12.38.29,3.21-.75,6.72,1.99,9.67,3.25,3.49,5.92,7.51,9.05,11.12,2.12,2.46,4.86,4.42,6.8,6.99,1.3,1.72,2.8,2.44,4.64,3.17,4.31,1.71,8.46,3.85,12.8,5.46,4.06,1.51,8.27,2.67,12.47,3.79,2.72.72,5.54,1.09,8.32,1.62-.06.36-.12.72-.18,1.08-6.11-1.01-12.23-2.02-18.2-3-.26,1.73-.4,2.89-.61,4.05-.22,1.18-.51,2.35-.8,3.69-.59-.3-1.62-.54-1.65-.87-.28-2.93-2.49-2.72-4.49-3.04-2.01-.32-3.75-.99-5.06-2.92-2.06-3.02-2.85-7.56-7.9-7.52-.31,0-.62-.44-.94-.67-.61-.43-1.18-.93-1.84-1.26-2.46-1.22-4.95-2.4-7.44-3.56-1.08-.51-2.19-.95-3.5-1.51,0,2.48-.4,4.81.08,6.94.94,4.14,2.34,8.18,3.6,12.24.87,2.79,2.33,5.04,5.43,5.84,1.31.34,2.64.81,3.8,1.51.83.5,1.38,1.46,2.05,2.22-.14.1-.28.21-.43.31-2.43-.41-4.86-.82-7.67-1.3.48,3.45,1.3,6.27,3,8.82.33.5.77,1.07.79,1.61.07,2.67,1.4,4.45,3.58,5.83.5.31.99,1.18.9,1.7-.08.48-.97,1.22-1.44,1.18-3.31-.28-6.81-.18-9.86-1.27-2.89-1.04-5.38-3.31-7.93-5.19-2.96-2.18-5.79-4.53-8.69-6.8-2.9-2.26-5.78-4.56-8.76-6.7-.34-.24-1.38.24-1.94.62-.47.32-.7.98-1.22,1.77.54.17,1.01.3,1.46.47.63.23,1.43.34,1.81.8.24.29-.17,1.11-.28,1.69-.54-.27-1.15-.47-1.61-.84-4.14-3.33-5.19-3.29-9.53-.21-2.88,2.04-5.78,4.22-8.98,5.63-3.23,1.42-4.77,3.34-4.47,6.8.04.4-.13.81-.16,1.22-.09,1.04-.05,2.33-1.54,2.18-1.38-.14-1.52-1.34-1.53-2.53,0-1.34-.11-2.69-.17-4-1.24.65-2.13,1.37-3.14,1.59-4.18.93-8.39,1.7-12.58,2.54-3.73.74-7.26,2.07-11.31,1.35-4.14-.74-8.47-.66-12.71-.56-5.83.13-11.2-1.5-16.53-3.5-1.05-.39-2.17-.6-3.25-.89-.16.15-.32.29-.49.44,1.69,2.27.47,5.02,2.31,7.68,2.03,2.93,2.29,7.04,3.51,10.57,1.59,4.59,3.21,9.19,5.1,13.66,2.02,4.77,4.27,9.45,6.61,14.07,1.4,2.75,2.83,5.42,5.4,7.52,2.43,1.99,4.09,4.89,6.16,7.33.5.59,1.38.85,1.96,1.39,2.55,2.33,5.09,4.67,7.55,7.08.55.54.8,1.4,1.4,2.48.29.07,1.13.16,1.9.45,1.28.48,2.52,1.08,3.77,1.63Zm110.89-180.03c-.22-.59-.77-1.29-.61-1.76,1.01-3.06-.29-5.3-2.36-7.33-.79-.77-1.57-1.55-2.36-2.32-.24,5.2,1.68,9.25,5.06,13.24.1-.91.16-1.39.22-1.87.2.4.51.78.59,1.2.36,2.11,1.66,3.5,4.26,4.1-1.55-2.75-2.96-5.25-4.36-7.75-.15.05-.29.11-.44.16v2.34Zm-86.09,78.85c-2.89.63-3.11,3.35-3.71,5.39-1.02,3.41-1.43,7.01-2.04,10.54-.07.43.02,1.13.29,1.3.34.22,1.03.17,1.42-.04,1.27-.68,2.53-1.4,3.68-2.25,2.07-1.53,4.06-3.16,5.79-4.51-1.18-2.82-2.2-5.24-3.21-7.67,1,.62,2,1.25,3,1.87-.07.19-.15.38-.22.57,1-.18,2-.36,3.05-.55-1.37-4.46-5.2-6.46-7.69-9.78-1.38,1.82-1.31,3.45-.35,5.13Zm122.11-65.25c1.14-.86,3.07-.08,4.94-.15,1.95-.08,4.24.09,5.76-.84,6.08-3.75,10.72-8.96,13.84-15.44.22-.46.2-1.05.29-1.57-.17-.07-.34-.14-.51-.21-1.88,2.14-3.74,4.31-5.65,6.43-2.62,2.89-4.41,3.05-7.61.94-.52-.34-1.33-.53-1.94-.41-2.21.43-4.37,1.09-6.57,1.5-.73.14-1.55-.21-2.33-.33.29-1.02.29-2.34.95-2.99.88-.86,2.25-1.29,3.46-1.75,2.85-1.07,5.81-2.23,8.8-.98,2.06.86,3.44.27,4.77-1.11,2.5-2.6,5.03-5.17,7.43-7.86,1.13-1.26,2.08-2.71,2.97-4.16.92-1.49,1.66-3.08,2.4-4.47-.81-1.18-1.67-2.45-2.54-3.7-1.05-1.49-2.07-3.01-3.19-4.45-1.22-1.57-2.69-2.97-3.79-4.62-4.13-6.22-9.9-9.92-17.13-11.48-1.22-.26-2.82-.24-3.55-1.01-1.61-1.69-1.83-1.82-2.9.11-.34.61-1.04,1.04-1.6,1.51-2.03,1.7-4.25,3.22-6.07,5.12-1.59,1.66-2.73,3.75-4.06,5.65.15.11.3.22.44.33,2.09-1.5,4.2-2.98,6.25-4.53,1.17-.89,2.36-1.15,3.62-.34,1.27.82,2.12,1.82,1.92,3.57-.13,1.13.27,2.31.46,3.6.93-.36,1.42-.65,1.94-.74,2.04-.35,4.26-1.25,6.1-.78,1.97.51,3.6,2.34,5.35,3.62.19.14.37.49.34.71-.39,2.45-.83,4.9-1.28,7.51,1.1,1.07,1.39,2.26.98,4.02-.85,3.63-4,5.27-6.51,7.37-1.74,1.47-3.99,1.52-6.11.3-.21-.12-.62-.08-.83.05-2.2,1.44-5.31.89-7.11,3.24-.18.24-.78.13-1.19.21-1.67.32-3.74,2.6-3.67,4.01.08,1.57,1.94,2.94,4.14,2.99.75.02,1.51-.17,2.27-.19,1.84-.03,3.67,0,5.54,0,.2,2.01-.77,3.09-2.52,3.52-1.72.42-3.46.78-5.2,1.05-5.06.79-9.55-1.17-9.7-7.25-.02-.68-.62-1.57-1.22-1.97-2.33-1.56-3.56-3.4-3.39-6.43.26-4.74,1.48-9.38,1-14.21-.33-3.35,1.15-6.53,2.98-9.27,3.42-5.09,7.12-10,10.76-15.06-.21-.05-.76-.37-1.2-.27-1.53.38-3.04.84-4.52,1.39-4.36,1.65-8.63,3.58-13.07,4.99-4.12,1.31-6.7,4.38-8.83,7.59-2.46,3.71-4.73,7.61-5.01,12.48-.13,2.29.86,3.86,1,5.98q4.34-3.11,5.96-1.96c-.4.38-1.01.69-1.15,1.14-.28.92-.76,2.51-.38,2.79,3.08,2.27,3.82,5.94,5.65,8.93.71,1.16,1.57,2.27,2.07,3.52.88,2.2,1.54,4.49,2.29,6.74.84,2.51,2.67,3.46,5.21,3.54,1.98.06,3.98.25,5.93.6,2.08.38,4.1,1.04,6.15,1.54,2.55.62,5.12,1.19,8.33,1.93Zm18.01,20.3c.09-.25.18-.5.28-.75-.61-.69-1.09-1.68-1.85-1.97-.73-.27-1.87-.04-2.58.38-1.17.7-5.87,1.27-7.16.91-3.25-.92-6.14-2.69-9.44-3.56-4.05-1.08-8-2.63-11.9-4.21-2.25-.91-4.4-2.14-6.45-3.45-1.66-1.06-3-2.65-4.68-3.68-2.15-1.31-4.16-3.4-7.16-2.19-.26.1-.75-.38-1.13-.59-.43-.24-.85-.67-1.3-.7-4.12-.29-8.25-.54-12.38-.7-.64-.03-1.31.44-2.36.83,1.73,2.01,3.32,3.61,4.6,5.43,2.41,3.4,5.79,5.56,9.26,7.61,2.16,1.27,4.67,2.03,6.68,3.48,3.57,2.58,7.77,3.6,11.77,4.94,3.84,1.29,8.02,1.57,12.05,2.27,1.27.22,2.55.4,3.83.56.66.08,1.37.26,1.99.11,1.86-.46,3.71-.98,5.51-1.62,2.05-.73,4.74.26,6.14-2.28.09-.17.65-.07.99-.12,1.76-.23,3.52-.47,5.28-.7Zm-58.87-26.42c-.93-1.81-1.9-3.4-2.6-5.1-2.17-5.24-4.22-10.49-2.94-16.41.55-2.54.49-5.21.85-7.8.35-2.52.87-5.01,1.32-7.52.13-.72.26-1.44.47-2.56-1.07.43-1.67.58-2.18.9-2.08,1.28-4.15,2.6-6.2,3.94-1.5.98-3.04,1.94-4.45,3.05-1.88,1.49-3.65,3.13-5.38,4.63,1.56.63,1.81,1.9,1.58,4.06-.4,3.72-.57,7.66.25,11.26.83,3.64,2.96,7,4.6,10.44.23.48.89,1.05,1.37,1.06,4.37.08,8.74.05,13.3.05Zm-59.84,63.71c.25-1.44.1-2.8.62-3.14,2.32-1.53,2.67-4.07,3.77-6.26,1.91-3.81.46-10.03-4.05-11.79-.33-.13-.55-.54-.82-.81-2.5-2.51-4.87-5.32-9.04-3.95-.57.19-1.15.52-1.54.96-.11.12.47.82.66,1.28.15.36.18.76.27,1.14.29,1.11.57,2.22.88,3.31.41,1.45.85,2.89,1.27,4.34-.23.14-.46.28-.7.42-.77-.79-1.54-1.57-2.39-2.45-.36,1.67.64,5.11,1.55,5.12,2.36.02,3.26,2.25,3.61,3.41.98,3.33,2.89,5.72,5.92,8.41Zm37.82-64.01c.86-1.44.14-4.12-.93-5.19-.76-.77-1.44-1.94-1.55-2.99-.35-3.29-.41-6.62-.6-9.93-.08-1.37-.17-2.74-.34-4.1-.04-.28-.45-.52-.7-.78-.19.23-.58.48-.56.68.3,2.73-2.16,3.97-3.28,5.9-1.53,2.63-3.85,4.79-5.45,7.39-1.74,2.83-2.18,6.02-.39,9.06.43.74,1.49,1.49,2.3,1.54,2.39.15,4.8,0,7.2-.16.42-.03,1.02-.55,1.15-.97.68-2.16,1.79-1.49,3.13-.46Zm-16.47,88.34c-.25-1.1-.43-1.94-.63-2.77-.46-1.89-1.35-3.54-3.04-4.58-1.32-.81-2.74-1.43-4.08-2.21-1.29-.75-2.49-1.64-3.79-2.36-1.14-.63-2.36-1.12-3.54-1.67-1.5-.4-1.99.38-1.21,2.14-.73-.28-1.13-.66-1.6-.88-.52-.23-1.27-.59-1.62-.38-.4.23-.66,1.04-.64,1.58.02.57.37,1.17.7,1.68,2.66,4.1,5.31,8.18,9.66,10.81,2.79,1.68,5.41,3.66,8.18,5.37,1.26.78,2.7,1.25,4.06,1.85.17-.22.34-.43.52-.65-1.62-2.16-3.25-4.33-4.82-6.42.72-.59,1.32-1.08,1.84-1.51Zm73.76-115.93c-.11-.05-.48-.21-.85-.37-1.16-.48-1.12-.44-.33-1.17.23-.21.35-.72.29-1.06-.37-2.18-.79-4.35-1.2-6.52-.2-.05-.4-.11-.59-.16-1.49,3.39-6.26,3.96-6.67,8.35-.05.57-.94,1.06-1.44,1.59.19,0,.37,0,.56,0,0,1.42.03,2.84,0,4.26-.03,1.03-.43,2.17-.12,3.07.36,1.05,1.22,2.58,2.03,2.69,2.85.38,5.76.29,8.49-1,1.35-.64,2.78-1.09,4.16-1.65.25-.1.46-.29,1.09-.71-1.63-.51-2.85-.91-4.07-1.27-1.59-.46-2.72-1.54-2.82-3.08-.05-.88.87-1.83,1.48-2.97Zm4.53,46.51c1.31-.12,2.48-.31,3.65-.3.66,0,1.33.31,1.97.52,2.27.75,6.12.34,7.96-.99-4.54-2.64-8.58-5.92-12.92-7.28-3.28-.3-6.01-.78-8.74-.74-2.68.04-5.42-1.25-8.2.19.15.38.43.46.63.63,3.45,2.92,7.66,4.18,11.85,5.5,1.66.53,3.53.9,3.79,2.46Zm-88.16,35c-.77,1.65-1.37,3.23-2.21,4.66-1.6,2.71-3.4,5.31-4.94,8.05-.28.49.06,1.71.53,2.16,1.2,1.18,2.62,2.15,3.99,3.14,2.06,1.49,4.15,2.95,6.27,4.37.43.29,1.05.46,1.55.4.36-.05.95-.85.94-.86-2.03-2.19-1.54-5.13-2.28-7.68-1.35-4.62-2.52-9.29-3.85-14.23Zm-27.82-4.13c-.53.75-.96,1.15-1.12,1.63-.88,2.78-1.83,5.56-2.44,8.4-.19.9.35,2.16.93,2.98,1.59,2.27,3.43,4.37,5.09,6.6,1.36,1.83,3.39,2.52,5.32,3.38.22.1,1.16-.65,1.12-.9-.19-1.26-.49-2.53-.94-3.72-1.37-3.66-2.73-7.33-4.26-10.92-1.03-2.42-2.34-4.73-3.7-7.45Zm139.97-26.79c6.91-1.33,20.76-13.97,22-20.04-9.18,4.18-14.92,12.75-23.39,17.86.59.93.99,1.56,1.39,2.18Zm-52.98-110.69c-.16-.18-.31-.37-.47-.55-2.64.06-5.12.48-6.72,3-.21.32-.64.5-.95.77-1.51,1.27-3.25,2.35-4.46,3.86-2.99,3.73-5.74,7.64-8.54,11.52-.18.25.07.81.16,1.49,1.28-1.16,2.24-2.14,3.31-2.98,2.46-1.94,5.65-3.05,6.99-6.24.05-.11.18-.23.3-.27,3.37-1.02,4.27-4.12,5.8-6.74.44-.75,1.29-1.28,2-1.86.84-.69,1.72-1.34,2.59-2Zm-58.28,98.03c-1.11.61-1.57.91-2.07,1.13-4.07,1.81-6.57,2.32-4.7,8.16.08.26.06.55.14.81.79,2.65,1.74,5.21,4.14,7.47.85-5.99,1.63-11.53,2.49-17.57Zm-75.7,155.86c2.04,2.62,4.92,3.36,7.77,4.06.53.13,1.24-.45,1.94-.73-1.87-1.67-3.47-3.15-5.14-4.56-.31-.26-.92-.46-1.26-.33-1.13.43-2.2,1.02-3.32,1.55Zm67.18-137.21c.2-3.7-.75-5.95-3.87-8.97-.39,1.04-1.15,2.02-.92,2.63.91,2.42,2.32,4.57,4.79,6.34Zm46.71,42.54c-2.43-2.82-5.67-1.97-8.39-3.35.56,3.92,2.04,4.47,8.39,3.35Zm100.31-130.23c.45-2.09.17-3.26-1.75-3.55-.94-.14-1.85-.52-2.79-.57-.83-.05-1.67.21-2.51.33-.01.29-.03.57-.04.86,2.31.95,4.62,1.91,7.09,2.92Zm-76.27,5.47c.25.27.5.54.75.81,1.94-.95,3.88-1.9,6.19-3.04-1.65-.53-2.56-2.36-4.1-.67-.91,1-1.89,1.94-2.84,2.9Zm-50.52,66.8c-.04-.64-.11-1.3-.13-1.96-.02-.76.25-1.64-.05-2.23-.33-.66-1.12-1.22-1.84-1.48-.29-.1-1.15.66-1.32,1.17-.25.76,2.4,4.11,3.33,4.5Zm8.82,174.69c0-.18-.01-.36-.02-.55h-8.22c0,.18,0,.36,0,.55h8.24Zm20.2-77.38c-1.79-.26-3.58-.52-5.62-.81,1.67,1.93,3.53,2.28,5.62.81Zm-45.14-73.61c-1.07,2.47-.7,2.96,1.61,2.77-.49-.85-.92-1.59-1.61-2.77Z"/>
      <path class="cls-1" d="m627.1,379.51c-1.86.82-3.42,1.53-4.99,2.19-2.29.97-6.1-1.66-6.41-4.15-.43-3.52,1.63-6.08,2.99-8.95,1.87-3.94,3.65-7.91,5.4-11.9.78-1.77.45-3.15-1.27-4.44-2.8-2.09-3.65-5.28-3.66-8.59-.02-4.44.17-8.89.43-13.33.06-.99.8-1.95,1.2-2.84-1.32-1.78-.7-3.96-.12-5.67,2.34-6.86,4.96-13.63,7.61-20.38,2.14-5.45,4.61-10.76,5.52-16.63.34-2.17.21-4.09-1.71-5.41-4.88-3.36-6.88-8.33-7.46-13.89-.22-2.06.05-3.78-1.21-5.93-2.08-3.56-2.95-7.85-4.11-11.9-.59-2.07-.57-4.31-1.05-6.43-.66-2.9-2.68-4.69-5.32-5.85-1.82-.8-3.77-1.39-5.44-2.43-3.71-2.29-5.08-6.44-3.9-11.29,1.48-6.06,3.07-12.1,4.53-18.17.58-2.43,1.04-4.91,1.31-7.4.08-.71-1.04-1.51-1.05-2.28-.07-4.13-2.37-6.33-6.05-7.48-.24-.08-.44-.29-1.18-.79.53.9.75,1.28,1.14,1.93-.59-.26-.96-.43-1.33-.59-3.2-1.41-6.38-2.9-9.62-4.2-2.65-1.06-5.02-5.72-4.12-8.51.3.27.59.53.95.85.08-.26.17-.43.18-.61.26-3.9.63-7.8.73-11.7.06-2.38-.19-4.78-.48-7.16-.48-4.06-3.67-5.19-6.95-6.21-2.6-.81-5.54-1.22-7.66-2.74-2.3-1.65-3.96-4.29-5.65-6.68-1.68-2.38-3.28-4.87-4.52-7.49-1.71-3.62-5.55-5.69-6.73-9.67-.23-.78-1.24-1.44-2.04-1.89-.95-.54-2.04-.93-3.12-1.13-4.22-.78-7.98-2.28-9.98-6.39-.48-.98-.52-2.25-.52-3.38,0-1.38-.53-1.94-1.86-1.74-1.41.22-2.83.41-4.23.72-1.39.31-2.16-.55-2.11-1.57.04-.85.75-2.09,1.49-2.4,1.41-.6,3.03-.69,4.58-.93,2.06-.32,2.95-1.63,2.9-3.56-.06-2.96.02-5.97-.49-8.86-.48-2.72-2.71-4.31-5.17-5.42-.62-.28-1.29-.45-1.9-.76-1.76-.88-1.94-2.18-.58-3.63,1.25.35,2.48.71,3.72,1.05,3.93,1.06,6.87,4.83,6.97,8.85.08,3.09.25,6.19.41,9.28.08,1.5.96,2.18,2.42,2.22,1.1.03,2.22,0,3.3.16,5.4.83,7.03,5.21,8.76,9.46,1.24,3.06,2.25,6.23,3.66,9.21.86,1.82,2.32,3.36,3.44,5.07.47.71.75,1.54,1.12,2.32-.17.08-.33.16-.5.25.24.14.48.26.71.41,4.16,2.59,8.72,2.61,13.31,1.84,4.93-.82,9.78.64,11.9,4.38,1.12,1.99,1.49,4.42,2.09,6.68.51,1.9.81,3.86,1.33,5.75.49,1.81,1.15,3.57,1.6,4.94,1.33-.07,2.51-.17,3.7-.17,4.24-.02,8.49-.07,12.73,0,6.11.1,7.08,3.52,5.92,8.6-.45,1.99-.89,4-1.53,5.94-.54,1.64-1.16,3.31-2.09,4.74-1.7,2.61-1.98,5.6-2.38,8.48-.32,2.26.14,4.64.36,6.96.17,1.79,1.25,2.85,2.92,3.56,1.8.77,3.47,1.82,5.32,2.8-.25.3-.54.87-.74.84-2.59-.39-5.15-.93-7.74-1.27-.93-.12-2.1-.08-2.83.39-.46.29-.71,1.87-.36,2.29,1.88,2.24.95,4.56.39,6.81-1.18,4.72-2.59,9.39-3.77,14.12-.44,1.78-.59,3.66-.71,5.5-.28,4.24,1.84,6.25,5.63,7.14,4.94,1.16,7.77,4.68,9.94,8.82.76,1.45,1.04,3.32,1,4.98-.1,3.75,2.04,6.75,2.97,10.13.55,2.01.87,4.09,1.28,6.14.11.52.06,1.11.29,1.57.64,1.27,1.79,2.41,2.03,3.72.6,3.32,3.09,5.21,5.03,7.54,1.16,1.39,2.24,2.87,3.5,4.16,2.19,2.24,1.04,4.86.35,6.93-1.92,5.72-4.41,11.25-6.7,16.84-1.62,3.97-3.52,7.85-4.87,11.92-1.29,3.91-1.78,8.1-3.1,12-1.1,3.24-.16,6.36-.24,9.51-.08,3.19.4,6.4.81,9.57.12.92.72,1.91,1.38,2.61,3.31,3.56,4.09,6.32,2.25,10.77-1.83,4.4-3.93,8.68-5.8,13.07-.33.77-.12,1.78-.16,2.68.83,0,1.72.17,2.49-.04,1.59-.44,3.1-1.49,4.67-1.57,3.72-.2,5.91,3.6,3.86,6.68-2.94,4.42-6.12,8.69-9.22,13.01-.24.33-.53.76-.87.86-1.05.33-2.14.52-3.21.77.16-.91.09-1.96.52-2.72,1.74-3.09,3.64-6.08,5.44-9.13.24-.41.19-1,.32-1.76Zm-16.07-193.45c.85-2.09,1.79-4.09,2.47-6.18,1.57-4.81,3.17-9.63,4.44-14.53.53-2.03.46-4.3.2-6.41-.11-.9-1.35-2.28-2.17-2.35-3.32-.29-6.68-.32-10.02-.14-2.41.13-4.86,1.18-6.85-1.12-.15-.18-.61-.37-.64-.33-1.39,1.69-2.95.58-4.51.1-.36,4.36-.71,8.5-1.03,12.65-.35,4.46-.19,8.73,4.02,11.67,1.07.75,1.84,1.83,1.16,3.38-.16.36.31.99.49,1.5.64-.61,1.04-1.2.91-1.61-.61-1.9.2-1.71,1.61-1.39,3.63.83,6.86,2.42,9.91,4.76Zm-19.48-38.9c-.34-2.26-.61-4.69-1.1-7.07-.52-2.5-2.42-4.26-4.98-4.35-2.77-.11-5.55.15-8.32.29-1.51.07-3.02.22-4.72.36.51.96.68,1.57,1.08,1.96,1.63,1.59,3.09,3.69,5.06,4.54,4.03,1.74,8.35,2.81,12.98,4.28Zm-36.55-31.19c-.29-4.59-2.93-7.69-7.25-8.51-2.27-.43-3.44.98-2.83,3.29.98,3.67,5.4,5.6,10.08,5.22Z"/>
      <path class="cls-1" d="m418.99,576.65c-4.89,3.02-9.75,6.09-14.69,9.01-.84.5-2.65.83-3,.4-.94-1.14-.33-2.48.85-3.37,1.52-1.15,3.03-2.33,4.64-3.36,3.53-2.26,7.1-4.47,10.7-6.62,1.09-.65,2.37-.97,3.51-1.56,2.7-1.4,5.43,1.06,4.86,4.28-.32,1.85-.71,3.7-1.12,5.84.99-.24,1.98-.26,2.74-.7,4.07-2.36,8.14-4.73,12.1-7.27,4.18-2.69,8.2-5.63,12.37-8.35,1.52-.99,3.18-1.96,4.91-2.37,1.55-.36,3.31-.06,4.94.18,2.21.32,1.81,2.41,2.31,3.86.11.32.1.67.14.96,2.47,1.32,3.37-.96,4.77-1.99,2.5-1.83,4.97-3.69,7.42-5.58,1-.78,1.78-1.95,2.89-2.47,2.73-1.29,4.32-4.18,7.63-4.79,1.74-.32,3.45-1.86,4.75-3.24,2.39-2.53,4.44-5.38,6.72-8.02.32-.37,1.3-.55,1.75-.34,1.19.57,2.15.82,2.67-.2,1.07.19,2.01.35,2.98.52-.06-.89-.26-1.68-.1-1.77.43-.23,1.03-.14,1.7-.2v-1.28c.14-.09.25-.22.35-.22.48.01,1.1.27,1.41.06,2.87-1.91,6.32-3.22,7.35-7.07.12-.46.53-1.08.94-1.2,1.72-.52,2.27-1.86,2.42-3.7,2.16,1.53,3.11,1.03,3.65-1.23.21-.88,1.49-1.49,2.3-2.25.5,1.05,1.19,1.68,2.39.49.62-.62,1.31-1.24,2.09-1.64.67-.34,1.5-.37,1.92-.46,2.33-2.68,4.62-5.33,6.92-7.98.8-.92,1.89-1.7,2.37-2.76.53-1.19.47-2.63.76-3.95.19-.86.39-1.77.84-2.5.69-1.12.61-1.76-1.09-1.85,3.26-1.77,6.17-3.36,9.1-4.92.25-.14.7-.15.95-.02,1.38.71,1.79.04,1.82-1.23.43.06.98.3,1.18.13,2.17-1.8,4.91-2.87,6.39-5.59.84-1.56,2.47-2.66,3.56-4.11,2.7-3.57,5.74-6.99,7.8-10.91,1.63-3.12,3.89-5.7,5.74-8.6,1.19-1.86,2.86-3.42,4.42-5.01.52-.53,1.35-.87,2.09-1.04,1.2-.27,1.61-.74,1.14-1.98-.21-.56-.06-1.26-.05-1.9,0-.34.19-.72.1-1.02-1.4-4.72,1.58-7.76,4.11-11.03,2.33-3,4.5-6.13,6.75-9.2,1.59,1.01,1.76,4.38.33,6.45-1.34,1.94-2.67,3.88-3.95,5.87-1.01,1.56-1.29,3.2-.71,5.08.72,2.34-1.18,5.63-3.46,6.82-.4,1.2-.53,2.24-1.04,3.04-2.32,3.61-5.2,6.94-7,10.78-1.67,3.56-3.88,6.51-6.53,9.27-2.24,2.33-4.49,4.66-6.68,7.04-2.44,2.66-5.13,5.17-7.11,8.14-1.2,1.8-1.25,4.35-1.82,6.57-.8,3.09-1.05,6.19-4.38,8.28-2.83,1.77-5.68,2.6-8.82,3.08-.72.11-1.57.26-2.08.71-2.29,2.06-4.28,4.51-6.78,6.25-1.19.83-1.96,3-4.13,2.24-.13-.04-.59.41-.64.68-.56,2.84-.54,2.84-1.78,4.2.3.6.82,1.17.73,1.62-.1.47-.8.79-1.19,1.23-.99,1.1-1.81,2.41-2.96,3.29-1.03.78-2.82,1.87-3.56,1.47-2.33-1.24-2.5.72-3.02,1.3-1.38.37-2.46.39-3.18.9-2.07,1.47-4.11,3.03-5.94,4.78-.68.65-.8,1.9-1.09,2.91-.4,1.38-2.53,2.93-3.88,3.02-.84.05-1.83.32-2.43.85-1.08.96-1.59.79-1.93-.79-.54.6-.91,1.02-1.37,1.54-.46-.43-.85-.79-1.21-1.13-1.19.48-2.49.77-3.51,1.47-3.53,2.41-7.01,4.9-10.4,7.5-2.61,1.99-5.05,4.2-7.58,6.3-.34.29-.83.77-1.13.69-3.43-.93-5.18,1.83-7.49,3.33-2.09,1.36-4,3.07-6.22,4.11-2.93,1.37-5.62-.51-6.12-3.88-.09-.6-.08-1.21-.14-2.25-3.3,1.69-6.45,3.11-9.39,4.86-4.92,2.91-9.69,6.07-14.57,9.05-2.8,1.71-5.68,3.3-8.56,4.88-1.7.93-3.36.87-4.8-.59-1.44-1.46-1.36-3.12-.78-4.94.45-1.39.66-2.86.97-4.3l-.8-.6Z"/>
      <path class="cls-1" d="m17.31,262.14c1.62,1.38,1.15,3,.35,4.61-1.94,3.89-3.99,7.73-5.81,11.68-.86,1.85-1.41,3.88-1.86,5.88-.37,1.65.93,2.75,3.31,2.62,3.07-.17,4.91,1.29,6.04,3.92.22.52.4,1.29.18,1.73-2.66,5.14-5.41,10.25-8.13,15.36-1.18,2.23-2.34,4.47-3.54,6.69-.3.56-.71,1.06-1.07,1.59-.24-.09-.48-.19-.72-.28.6-1.97,1.01-4.02,1.83-5.9,2.03-4.63,4.33-9.15,6.35-13.79,1.6-3.67.74-4.89-3.27-5.15-3.6-.24-5.78-2.91-4.77-6.32.91-3.08,2.28-6.02,3.46-9.02,1.54-3.9,3.09-7.8,4.65-11.7.3-.75.69-1.46,1.2-2.53-1.22-.25-2.38-.64-3.56-.7-3.53-.2-5.37-2.53-4.55-5.97,1.15-4.83,4.46-8.5,6.88-12.65,3.03-5.18,5.92-10.43,8.85-15.66.8-1.43.43-2.52-.85-3.6-2.23-1.89-2.6-3.31-.95-5.81,3-4.54,6.28-8.9,9.5-13.28,1.18-1.61,2.54-3.1,3.82-4.64.22-.27.39-.65.68-.77,2.5-1.06,2.88-3.53,4.05-5.58,2.29-3.96,5.22-7.55,7.76-11.37,1.48-2.22,2.78-4.58,4.03-6.93.26-.49.25-1.44-.05-1.89-2.28-3.35-2.47-6.8-.95-10.51,1.18-2.87,1.98-5.92,3.32-8.71.7-1.47,2.15-2.6,3.33-3.81,3.54-3.63,7-7.37,10.74-10.78,2.06-1.88,3.93-3.78,5.48-6.13.89-1.35,2.7-2.08,3.84-2.91.48-1.04.76-2.08,1.36-2.9,2.97-4.04,5.99-8.05,9.04-12.02,2.16-2.82,4.17-5.81,6.68-8.29,4.98-4.93,10.36-9.45,15.36-14.37,2.15-2.12,3.64-4.88,5.62-7.2.85-.99,2.16-1.59,3.25-2.37.12.15.23.3.35.45-.39.36-.78.72-1.14,1.06,4.46,1.3,7.8-.53,10.88-3.51,1.92-1.86,4.1-3.46,6.23-5.08.5-.37,1.3-.34,1.96-.49-.23.47-.45.95-.68,1.42-.03.06-.12.09-.14.15-1.14,4.97-6.08,6.56-8.96,9.99-1.64,1.95-3.72,3.5-3.73,6.38,0,.45-.46,1.25-.77,1.29-1.51.15-2.43,1.73-4.38,1.23-1.27-.33-3.34.59-4.41,1.62-4.97,4.77-9.8,9.69-14.52,14.7-3.34,3.55-6.33,7.43-9.66,10.99-2.01,2.15-4.34,4-6.59,5.91-.65.55-1.52.85-1.96,1.38-.77,1.37-1.43,2.83-2.35,4.09-1.09,1.5-2.36,2.87-3.64,4.21-.88.93-1.94,1.69-2.86,2.59-.64.62-1.27,1.28-1.74,2.02-1.74,2.77-3.43,5.59-5.12,8.4-.28.47-.68.98-.69,1.47-.06,3.87-.03,7.73-.04,11.6,0,.27.06.57-.04.8-1.59,3.83-3.21,7.52-6.16,10.7-5.19,5.59-9.89,11.62-14.8,17.47-.09.11-.14.26-.25.33-2.14,1.27-3.36,3.2-4.55,5.37-.91,1.66-3.1,2.59-4.16,4.22-2.73,4.22-5.19,8.62-7.65,13-.29.52-.22,1.57.12,2.08,2.89,4.33,2.5,7.52-.43,11.82-4.27,6.26-8.1,12.82-12.07,19.28-.81,1.32-1.56,2.7-2.09,4.15-.59,1.6.43,2.25,1.9,2.4.75.08,1.56,0,2.23.28,2.7,1.1,3.01,2.87.99,5.7Z"/>
      <path class="cls-1" d="m515.58,394.24c-.76,1.91-1.24,3.53-2.02,4.98-1.38,2.57-2.87,5.09-4.46,7.54-2.06,3.18-4.27,6.27-6.41,9.4-1.07,1.57-2.08,3.19-3.21,4.72-3.66,4.96-7.45,9.83-11.02,14.86-1.52,2.14-2.65,4.55-3.86,6.89-.16.31.17.9.31,1.34.46,1.53.94,3.06,1.57,5.09-4.01-.65-6.63,2.14-10.22,2.16-2.77.02-4.12,2.99-5.47,5.27-.1.17-.08.41-.17.59-1.08,2.31-2.21,2.53-3.73,1.22-1.82.41-3.27.86-4.74,1.04-.96.12-1.54-.61-.85-1.44.82-.98,1.88-2.41,2.9-2.46,3.41-.16,3.11-3.02,4.02-4.92.67-1.41.68-3.17,1.47-4.48,2.2-3.66,3.14-7.71,3.88-11.78.82-4.51,1.29-9.09,1.71-13.65.08-.88-.74-1.84-1.14-2.77-.63.67-1.31,1.31-1.89,2.02-1.11,1.37-2.17,2.78-3.31,4.26-1.38-1.25-.84-2.36-.8-3.66.12-3.23,1.97-5.59,3.25-8.25.25-.52.74-.94,1.16-1.36,2.15-2.07,2.43-4.34,1.17-7.04-.46-.98-.37-2.25-.41-3.39-.11-2.85.05-5.69-1.39-8.37-1.24-2.29-1.13-2.4-3.52-2.01-.43-2.01-.9-3.99-1.27-5.99-.12-.66-.26-1.66.1-2.01,1.31-1.29.53-2.4.08-3.65-.25-.69-.13-1.51-.32-2.23-.22-.82-.5-1.66-.93-2.39-1.29-2.24-2.66-4.42-4-6.63-.87-1.43-1.72-2.87-2.59-4.3-.24.02-.47.04-.71.07-.65,1.81-1.24,3.64-1.96,5.41-1.85,4.54-3.71,9.09-5.65,13.59-1.32,3.06-2.71,6.1-4.26,9.06-.77,1.49-1.95,2.76-4.17,1.53.57-1.24,1.02-2.51,1.71-3.64,3.82-6.26,6.94-12.83,8.92-19.9.89-3.18,1.84-6.37,2.32-9.62.24-1.67-.37-3.52-.82-5.23-1.64-6.27-5.71-11.34-8.52-17.04-.14-.28-.37-.67-.61-.72-3.9-.72-2.75-4.2-3.62-6.57-.06-.16.07-.39.12-.65,2.15-.59,3.21.14,4.23,2.26,2.51,5.26,5.41,10.33,8.27,15.41.38.68,1.4.99,2.12,1.48.25-.14.5-.28.75-.42-.28-4.11-.57-8.22-.82-12.33-.09-1.52-.2-3.05-.07-4.56.06-.74.66-1.44,1.01-2.15.26.06.52.13.78.19.48,1.79.94,3.6,1.46,5.38.21.72.6,1.39.87,2.1.12.31.22.66.2.99-.34,4.57-.83,9.14-1.04,13.72-.2,4.42,2.14,8.08,3.97,11.88.32.67.75,1.3.99,2,.55,1.65.71,3.5,1.6,4.92.65,1.04,2.13,1.69,3.37,2.15.3.11,1.37-1.09,1.68-1.85.7-1.73,1.13-3.56,1.69-5.35.38-1.22.8-2.42,1.17-3.64.46-1.49.87-2.99,1.34-4.47.35-1.1.78-2.18,1.13-3.28.59-1.85,1.15-3.72,1.72-5.57.7-.68,1.49-1.47,2.65-2.6-.26,2.15-.36,4.07-.76,5.92-.55,2.59-.43,5.36-2.45,7.58-.65.72-.69,2.25-.55,3.35.16,1.24,1.32,1.52,2.43,1.18.7-.22,1.32-.68,1.95-1.02,1.79,1.65,2.13,3.22.85,5.01-1.6,2.24-2.26,4.71-2.14,7.39.04.83.43,1.66.71,2.47.52,1.54.96,2.86-.23,4.54-1.53,2.15-2.88,4.62-3.51,7.15-.48,1.93-.49,4.31,1.25,6.13.4.42.28,1.35.35,2.05.09.83.14,1.66.21,2.49.2-.01.4-.02.6-.03.47-1.1.94-2.21,1.43-3.31.8-1.79,4.03-2.68,5.43-1.34.45.42.59,1.62.34,2.23-.66,1.59-1.6,3.07-2.46,4.57-1.1,1.92-2.4,3.76-3.3,5.77-.98,2.21-2.02,4.53-2.27,6.89-.47,4.38-.09,8.86-.61,13.23-.42,3.51-1.66,6.92-2.5,10.38-.16.68-.16,1.4-.27,2.49,3.69-.88,6.08-2.99,8.2-5.38,1.96-2.23,3.76-4.6,5.54-6.99,1.74-2.34,3.31-4.8,5.04-7.16,2.51-3.42,5.33-6.64,7.59-10.23,2.71-4.31,4.99-8.89,7.39-13.38,1.16-2.16,2.92-3.15,6.04-3.12Zm-42.28-17.81c.27.49.51.93.74,1.37.33-.34.94-.68.94-1.03.07-2.66,2.29-4.04,3.68-5.78.98-1.23,1.28-2.46,1.5-3.74.23-1.37-1.77-2.46-2.89-1.63-.71.53-1.41,1.33-1.66,2.15-.87,2.8-1.53,5.66-2.31,8.65Zm2.38,2.93c-.26,1.55-.78,3.03-.7,4.46.14,2.47.7,2.77,2.88,2.21q.72-6.94-2.18-6.68Z"/>
      <path class="cls-1" d="m490.22,53.25c-3.43.21-6.58.42-9.73.57-1.22.06-2.46-.12-3.67.03-1.83.22-3.94.02-4.68,2.43-.09.3-.42.54-.67.78-1.74,1.61-3.05,1.28-4.49-1.1-2.6,1.53-4.43,1.15-7.59-1.57-.26-.23-.56-.45-.73-.73-1.94-3.2-4.79-3.82-8.27-3.21-3.83.67-7.7,1.27-11.57,1.6-3.88.32-7.63-.21-10.77-2.92-2-1.72-2.36-3.92-2.15-6.34.14-1.64-.56-2.08-2.11-1.73-5.37,1.22-10.75,2.43-16.15,3.55-1.47.3-3.05.54-4.49.29-.82-.14-2.01-1.29-2.04-2.04-.06-1.25,1.02-1.47,2.38-1.38,2.29.17,4.67.13,6.92-.32,4.66-.93,9.24-2.21,13.87-3.3,2.05-.48,3.02-1.61,2.91-3.79-.06-1.21.15-2.47.44-3.66,1.75-7.18-2.6-9.9-8.79-8.86-2.82.48-5.62,1.21-8.46,1.46-6.11.54-8.67-2.57-8.41-8.46.11-2.54.7-5.06,1.07-7.6.03-.2.1-.46.02-.61-1.4-2.63.96-4.03,1.99-5.82.24-.41,1.27-.37,1.94-.54.09.59.3,1.19.23,1.76-.19,1.62-.66,3.21-.73,4.83-.13,3.12-.26,6.27,0,9.37.14,1.71,1.64,2.74,3.45,2.52,3.24-.39,6.46-.97,9.7-1.43,3.87-.54,7.44-.14,10.42,2.82,2.55,2.53,2.19,5.64,2,8.69-.14,2.31-.62,4.6-1.02,7.4,1.14,0,2,.12,2.82-.02,3.76-.65,7.52-1.37,11.27-2.07,2.74-.51,5.36-.65,8.02.73,2.73,1.42,4.32,3.66,5.01,6.39.59,2.31,1.18,3.74,3.81,4.68,4.09,1.46,8.11,3.15,12.43,3.67,2.34.28,4.76-.17,7.14-.22,4.92-.12,9.86-.46,14.76-.16,1.91.12,4.01.95,5.26,3.23,1.11,2.02,3.18,3.51,4.72,5.31,1.1,1.28,2.17,2.62,2.99,4.08.36.63.06,1.64.06,1.85,1.21,1.67,1.94,3.3,3.18,4.23,1.19.89,2.9,1.36,4.42,1.51,3.36.32,6.83.31,8.97,3.46.88,1.29,1.52,2.91,1.73,4.45.26,1.88.93,3.05,2.8,3.51.5.12,1.16.43,1.35.84.32.7.54,1.58.38,2.3-.08.38-1.02.69-1.61.81-.66.13-1.42-.14-2.06.05-.59.17-1.38.62-1.55,1.12-1.51,4.57-2.44,9.22-2.18,14.1.12,2.24,1.07,3.6,3.12,4.27.96.32,1.94.61,2.92.85,1.56.37,1.65,1.54,1.44,2.74-.22,1.26-1.18,1.62-2.35,1.36-1.72-.38-3.46-.74-5.15-1.24-2.29-.68-3.87-3.81-4.13-7.24-.39-5.15.92-10.06,1.89-15.01.31-1.61-.03-2.25-1.53-2.67-3.65-1.03-6.32-3.34-8.38-6.48-1.22-1.85-3.12-2.85-5.29-2.56-3.73.49-6.91-2.27-7.83-6.09-.71-2.95-1.08-5.97-1.72-8.94-.27-1.25-.85-1.92-2.55-1.82-5.76.33-10.97,2.56-16.37,4.17-3.05.91-6.26,1.29-9.42,1.76-.46.07-1.03-.69-1.55-1.06.46-.46.85-1.19,1.4-1.35,2.91-.86,5.9-1.47,8.8-2.38,3.93-1.24,7.8-2.66,11.69-4.02.09-.03.13-.23.46-.85Zm-44.16-16.46c-.05-.2-.09-.4-.14-.6-4.41,1.03-8.86,1.96-13.23,3.14-2.1.57-2.65,2.06-2.04,4.18.71,2.43,3.79,4.29,7.03,4.04,4.11-.33,8.21-.8,12.31-1.24.95-.1,1.88-.31,2.82-.49,1.34-.26,1.86-1,1.59-2.4-.77-4.07-2.97-7.18-8.35-6.63Zm61.06,31.87c.32-5.85.98-5.18-3.29-6.41-1.25,2.37.67,6.1,3.29,6.41Zm10.3,6.34c1.15,2.4,2.9,3.45,5.14,3.15.36-3.21-1.28-4.27-5.14-3.15Zm-49.67-24.63c-1,.29-1.94.56-3.08.88.89,1.46,1.17,3.16,3.08,2.26v-3.14Z"/>
      <path class="cls-1" d="m217.99,552.51c-.52.24-1.01.46-1.51.69,4.68.17,9.07-.82,13.45-2.23,2.11-.68,4.64-.91,6.78-.46,3.43.73,4.63,3.78,5.03,6.93.25,1.97.04,4.01-.08,6.01-.2,3.43,2.16,7.12,5.98,7.33,3.51.2,7.04.23,10.55.45,2.92.18,6.1-.13,8.67.95,6.54,2.73,12.57.54,18.67-1.09,3.58-.95,6.97-2.58,10.52-3.65,2.58-.78,5.33-.98,7.71.71,2.1,1.48,3.55,3.54,4.1,6.09.65,3.05,2.64,4.86,6.86,5.21,4.16.35,8.07,1.38,11.97,2.78,1.54.55,3.32.42,4.99.62.4.05.83.13,1.18.32,4.29,2.29,9.2,2.83,13.63,4.87,2.04.94,5.04.57,7.38-.05,6.02-1.6,11.95-3.61,17.86-5.6,3.45-1.16,6.74-2.78,10.21-3.87,4.55-1.43,8.58,1.12,9.39,5.68.09.49-.1,1.03-.17,1.63,2.41,1.01,4.35-.15,6.36-1.1.72-.34,1.64-.64,2.35-.45.37.1.66,1.27.65,1.95-.04,2.27-1.72,3.31-3.51,4.07-1.68.71-3.45,1.23-5.19,1.81-3.13,1.03-6.61-1.46-6.66-4.74-.04-2.53-.63-2.88-2.83-2.93-5.36-.11-9.73,2.82-14.55,4.37-1.93.62-3.93,1.01-5.9,1.53-.9.24-1.78.56-2.68.82-2.9.85-5.75,2-8.71,2.45-2.8.42-5.77,1.48-8.5-.84-1.13-.96-2.84-1.23-4.27-1.87-.66-.3-1.28-.7-1.9-1.09-.29-.18-.51-.58-.8-.63-3.15-.48-6.33-.84-9.47-1.39-1.1-.19-2.09-.95-3.19-1.19-4.15-.9-8.32-1.79-12.51-2.48-2.94-.49-4.79-2.13-6-4.69-.67-1.41-1.25-2.86-1.89-4.29-1.11-2.46-3.12-3.59-5.72-2.87-4.63,1.29-9.19,2.81-13.8,4.15-4.29,1.25-8.39,1.83-13.12.98-4.79-.86-9.78-2.41-14.96-1.25-2.98.67-6.24.74-9.28.32-4.73-.65-8.81-4.07-9.1-9.91-.12-2.42-.03-4.85-.05-7.27-.02-2.64-.03-2.66-2.78-2.44-2.28.18-4.79-.1-6.77.79-3.22,1.45-6.47,2.04-9.9,2.28-4.15.28-6.29-1.59-6.68-5.79-.3-3.19.5-6.03,1.83-8.93,1.23-2.67,1.99-5.59,2.64-8.47.36-1.6.02-3.35.11-5.03.07-1.35.66-2.39,2.21-2.51,1.93-.15,2.66,1.18,3.14,2.67.48,1.48.86,3,1.16,4.53.11.55.09,1.39-.24,1.73-3.23,3.24-3.96,7.36-4.14,11.63-.03.81.87,1.67,1.47,2.74Z"/>
      <path class="cls-1" d="m187.77,604.75c.01.05-.06-.23-.15-.57.24.04.47.01.63.11.85.53,1.61,1.28,2.52,1.61,4.22,1.52,4.44,5.37,4.19,9.57-.26,4.43-.37,8.92.1,13.32.25,2.33,2.34,3.99,4.8,4.77,1.64.52,2.95,1.48,2.96,3.69,1.68-2.38,3.19-.83,4.28.16,1.68,1.53,3.19,3.32,4.46,5.21,2.86,4.21,7.72,5.92,13.01,4.34,6.44-1.92,12.86-3.96,19.35-5.71,2.84-.77,5.84-1.29,8.77-1.35,4-.07,7.22,1.91,9.26,5.37.99,1.68,2.06,2.96,4.03,3.31.13.02.24.13.36.19,1.53.8,2.7,1.92,4.79.35,1.8-1.35,4.56-1.34,6.74-2.29,5.32-2.33,10.5-5.02,15.85-7.28,3.37-1.42,6.92-2.49,10.47-3.39,1.12-.28,2.62.08,3.39,1.61,1.3,2.59,1.8,5.06.4,7.84-1.5,3-2.72,6.14-3.99,9.25-.64,1.55-1.54,2.43-3.83,1.64.6-1.58,1.21-3.16,1.78-4.74.99-2.77,2.08-5.51,2.88-8.33.57-2-.99-3.67-3.11-3.16-3.44.83-6.87,1.85-10.13,3.2-4.24,1.75-8.3,3.93-12.46,5.87-1.97.92-4.04,1.63-5.99,2.6-1.46.73-2.79,1.24-4.28-.24-.92,1.88-2.14,1.64-3.86,1.27-3.56-.78-5.53-3.12-7.42-5.88-.67-.98-1.8-1.85-2.91-2.28-2.89-1.12-5.81-1.19-8.97-.55-4.69.95-9.15,2.35-13.61,4.04-3.8,1.44-7.85,2.3-11.87,3.01-4.05.71-7.54-.67-10.19-3.96-1.97-2.45-4.04-4.82-6.02-7.27-.49-.61-.78-1.39-1.2-2.16-1.25,2.73-3.04.57-4.29.09-6.79-2.63-9.41-8.06-8.01-15.39.39-2.07.14-4.28.12-6.42,0-.3-.39-.61-.62-.9-.33-.41-.89-.75-1.01-1.21-.59-2.21-2.18-3.36-4.34-2.83-6.54,1.6-13.34,1.93-19.76,4.22-1.77.63-4.2.57-5.94-.13-2.51-1.01-3.34-3.78-3.1-6.25.39-4.06,1.35-8.07,2.11-12.09.31-1.67.99-3.32,1-4.99,0-1.46-1.15-2.62-2.73-2.47-3.32.33-6.62.89-9.93,1.35-1.63.23-3.25.48-4.88.68-1.02.12-2.32-.23-2.16,1.56.01.13-.49.31-.75.47-.1-.31-.25-.62-.29-.94-.36-3.16,1.97-4.07,4.25-4.8,4.4-1.41,8.85-2.66,13.29-3.94,3.52-1.01,5.39-.4,7.28,2.3.72,1.02,1.06,1.95.46,3.36-.49,1.15,0,2.68-.1,4.04-.16,2.15-.38,4.3-.72,6.42-.43,2.63-1.17,5.21-1.47,7.84-.27,2.39.74,3.5,3.13,3.15,3.49-.51,6.96-1.34,10.36-2.28,4.37-1.2,8.67-2.65,13.06-4.01Z"/>
      <path class="cls-1" d="m334.12,7.29c.94,2.44.22,3.5-2.12,3.76-2.25.26-4.46.88-6.71,1.2-2.14.3-3.94-.53-5.28-2.19-2.89-3.57-6.44-4.06-10.48-2.34-6.23,2.66-12.4,5.46-18.68,8-4.51,1.82-9.13,2.96-14.16,2.08-2.5-.44-5.26-.13-7.77.42-1.72.38-3.16,1.87-4.82,2.67-4.59,2.2-9.13,4.54-13.86,6.38-4.6,1.79-9.42,3.03-14.14,4.53-4.33,1.38-8.63,2.9-13,4.17-2.31.67-4.73,1.16-7.13,1.32-2.76.18-4.67-1.82-4.94-4.65-.09-.92-.2-1.84-.34-3.09-2.07.87-3.8,1.6-5.54,2.32-1.57.65-2.23-.17-1.84-1.54.33-1.16.95-2.53,1.88-3.19,2.11-1.48,4.39-2.83,6.78-3.77,2.24-.88,3.9.24,4.53,2.56.34,1.25.52,2.55.68,3.84.17,1.31.69,1.81,2.08,1.42,9.61-2.69,19.33-5.04,28.82-8.09,5.45-1.75,10.53-4.66,15.82-6.94,1.34-.58,2.87-.68,4.3-1.08.49-.14.89-.59,1.37-.79,1.71-.7,3.4-1.77,5.17-1.95,3.89-.4,7.91.08,11.73-.61,3.73-.67,7.31-2.29,10.91-3.61,5.81-2.14,11.52-4.56,17.4-6.48,2.48-.81,5.07.56,6.61,2.46,2.66,3.28,5.88,3.81,9.67,3.22,1.01-.16,2.06-.02,3.06-.02Z"/>
      <path class="cls-1" d="m453.61,494.37c-4.14,5.14-8.35,10.36-12.55,15.59.1.15.19.3.29.44,3.95-2.9,7.97-5.7,11.82-8.72,3.96-3.1,7.76-6.42,11.7-9.7,1.78,2.4-.05,3.64-1.05,4.72-3.08,3.35-6.26,6.65-9.67,9.67-2.14,1.9-4.78,3.22-7.15,4.86-1.24.86-2.33,1.96-3.6,2.75-2.83,1.74-5.73,3.36-8.61,5.03-.06.03-.12.11-.17.1-4.37-.46-6.82,3.3-10.33,4.71-.98.39-2.21.98-3.08.71-4.26-1.36-8.54-.63-12.69.04-2.09.34-4.06,1.13-6.18.49-.5-.15-1.29-.63-1.28-.94.02-.57.39-1.37.86-1.63.87-.49,1.91-.82,2.91-.95,1.75-.22,3.91-.91,5.2-.17,2.61,1.48,4.74-.07,7.01-.32,2.56-.29,5.11-1.06,7.55-1.93,1.19-.42,2.16-1.52,3.19-2.36,1.11-.91,2.26-1.79,3.23-2.83,1.43-1.54,2.7-3.23,4.09-4.8.42-.48,1.1-.74,1.53-1.22,1.09-1.23,2.3-2.19,2.84-4.07.52-1.84,2.6-3.19,3.88-4.86,2.58-3.37,5.3-6.67,7.56-10.25,2.37-3.76,4.37-7.76,6.36-11.74,2.15-4.32,4.02-8.78,6.21-13.08.48-.94.98-2.62,2.89-2.06-.36,9.23-5.15,16.62-9.4,24.23-.58,1.04-1.01,2.18-1.58,3.23-.27.5-.64,1.04-1.11,1.32-2.24,1.29-2.28,1.38-.64,3.76Z"/>
      <path class="cls-1" d="m120,575.6v-4.94c.22.02.45.04.67.06-.36,2.9-.82,5.78-1.07,8.69-.33,3.8-.54,7.61-.68,11.42-.02.44.59,1.01,1.04,1.34,3.36,2.46,6.89.81,10.41.47,2.05-.2,4.26-1.49,6.51.58-.78.72-1.38,1.66-2.23,2-3.73,1.49-7.38,3.25-11.56,3.22-2.77-.02-5.35-.53-7.24-2.62-.74-.82-.87-2.2-1.26-3.33-.04-.12.05-.3,0-.41-2.42-4.09-.14-8.32-.36-12.47-.18-3.26-.36-6.52-.54-9.75.27.24.69.61,1.12,1,.09-.11.23-.21.22-.28-.68-3.99-2.85-6.42-7.24-6.79.11.24.17.45.29.59.12.14.32.22.37.53-5.31-1.49-10.79-2.56-14.95-6.57-1.47-1.42-2.91-2.94-4.07-4.62-2.02-2.93-4.94-4.7-7.76-6.65-1.87-1.29-3.86-2.46-5.56-3.95-1.13-.99-2.78-1.67-2.48-3.92.16-1.23-1.14-2.58-1.38-3.95-.31-1.79-.23-3.64-.32-5.47.3-.13.59-.27.89-.4.63.55,1.82,1.1,1.82,1.64-.03,4.47,3.89,5.74,6.41,8.09,1.48,1.38,3.33,2.38,4.94,3.63,1.89,1.47,3.77,2.96,5.43,4.66,2.27,2.33,4.1,5.13,6.57,7.21,2.09,1.76,4.71,3.02,7.27,4.06,2.44.98,5.14,1.26,7.67,2.06,4.16,1.3,5.43,4.89,6.25,8.62.44,2.03.4,4.16.57,6.24.1,0,.19,0,.29.01Z"/>
      <path class="cls-1" d="m502.07,326.17c-.64-5.15-1-9.7-1.84-14.17-.68-3.67-1.82-7.26-2.97-10.82-.84-2.6-1.95-5.11-3.07-7.61-2.51-5.58-4.95-11.2-7.74-16.63-1.22-2.38-3.22-4.37-4.9-6.51-1.67-2.12-3.38-4.2-5.25-6.53,2.5-.63,3.71.9,4.62,1.99,2.44,2.91,4.77,5.98,6.67,9.26,2.89,5,5.39,10.23,8.01,15.38.4.78.42,1.75.81,2.54.56,1.14,1.3,2.2,1.97,3.29.3-.09.59-.19.89-.28,0-1.34.21-2.71-.04-4-.52-2.61-1.13-5.23-2-7.75-1.66-4.83-3.43-9.63-5.32-14.38-.91-2.28-2.18-4.41-3.34-6.71,2.32-1.21,3.45.51,4.16,1.2.82-.5,1.58-1.33,2.25-1.26.81.09,1.79.77,2.28,1.48,2.25,3.31,4.24,6.8,6.54,10.09,3.37,4.81,6.91,9.5,10.38,14.24,3.36,4.6,6.86,9.12,10.02,13.86,1.35,2.03,2.06,4.5,3,6.79,1.16,2.84,2.49,5.65,3.29,8.6.74,2.73.87,5.63,1.26,8.42-1.93.48-2.42-.35-2.71-1.59-2.06-9.08-5.48-17.6-10.67-25.38-2.4-3.59-4.66-7.28-7.08-10.86-3.26-4.81-6.53-9.62-9.99-14.29-1.5-2.02-3.46-3.7-5.36-5.7-.77,2.02-.08,3.25.59,4.85,1.91,4.56,4.02,9.09,4.2,14.25.09,2.58,1.1,5.13,1.68,7.69.13.58.26,1.18.29,1.78.16,3.17.05,6.38.51,9.51.45,3.03,1.27,6.06,2.33,8.94,1.09,2.95.15,5.74-.19,8.56-.07.6-1.8,1.01-3.26,1.76Z"/>
      <path class="cls-1" d="m336.51,22.25c.98-.42,1.95-.84,2.93-1.25,2.5-1.04,5.01-2.04,7.48-3.13.36-.16.76-.74.75-1.11-.07-4.16-4.11-7.43-8.31-6.83-.65.09-1.38-.14-1.99.05-1.33.42-2-.51-1.94-1.33.06-.78.89-2.03,1.55-2.15,3.76-.67,7.74-1.53,11,1.23,1.52,1.28,2.62,3.24,3.45,5.1.83,1.85,1.79,2.96,3.93,2.85,4.4-.22,8.85-.06,13.2-.61,3.48-.44,6.81-1.93,10.28-2.52,3.16-.54,6.42-.58,9.64-.63.68-.01,1.91.82,1.96,1.35.08,1.02-.22,2.33-.87,3.09-.51.59-2.06.99-2.68.64-3.38-1.91-6.67-.53-9.95.05-2.38.42-4.68,1.32-7.04,1.88-1.89.45-2.49,1.46-2.7,3.43-.5,4.54,1.78,6.38,7.13,5.7,4.24-.54,8.44-1.37,12.67-2.05,2.71-.44,8.62,2.17,9.92,4.54.57,1.04.69,2.33,1.09,3.48.61,1.78,1.34,3.52,1.92,5.3.31.96.51,1.98.58,2.98.03.47-.26,1.26-.59,1.37-.48.16-1.44.03-1.64-.31-1.4-2.39-3.14-4.74-3.85-7.35-.82-2.99-2.12-4.77-5.08-5.94-3.67-1.46-6.94.24-10.38.65-2.72.33-5.43.92-8.16,1.03-4.43.17-7.62-3.09-7.69-7.52-.04-2.99-.2-2.99-3.13-2.93-2.88.06-5.77-.45-8.63-.29-2.95.16-5.87.78-8.79,1.3-1.45.26-2.85.86-4.3,1.13-.54.1-1.18-.3-1.77-.48,0-.24.01-.47.02-.71Z"/>
      <path class="cls-1" d="m238.6,325.31c-.39.55-.58,1.08-.96,1.3-.56.32-1.34.7-1.84.52-.41-.14-.79-1.1-.73-1.65.16-1.63.42-3.28.86-4.86.9-3.24,1.72-6.54,2.96-9.65,2.35-5.91,4.84-11.77,7.54-17.52,1.87-3.97,4.05-7.8,6.36-11.53,2.54-4.11,5.26-8.13,8.14-12.02,1.79-2.42,4.03-4.52,6.17-6.88,1.77,3.33,1.06,9.7-.56,11.66.16,1.34.64,2.41.29,2.91-2.44,3.51-5.05,6.89-7.59,10.33-.2.26-.42.58-.45.89-.25,2.89-2.82,4.15-4.22,6.26.16-5,4.9-8.19,5.49-12.98-.25-.12-.5-.25-.76-.37-1.36,1.83-2.84,3.58-4.07,5.5-2.72,4.26-5.86,8.34-7.25,13.28-1.25,4.43-3.3,8.72-2.87,13.5.06.68.64,1.31.98,1.96.46-.66,1.07-1.27,1.34-2.01.23-.61.03-1.37.09-2.06.25-2.92,1.69-6.35,4.49-10.47.11,2.25.64,3.81-.68,5.61-2.37,3.23-2.54,7.19-2.77,11.02-.18,3.02-.04,6.05-.04,9.09-2.15.14-2.7-.91-2.74-2.53-.05-1.79-.16-3.58-.24-5.42-1.35,1.26-2.44,2.22-3.44,3.27-.2.21-.07.75-.06,1.13.01.54.18,1.11.06,1.62-.17.69-.55,1.34-.84,2-.56-.41-1.11-.82-1.67-1.21-.27-.19-.56-.36-1-.65Zm24.76-47.11c-.28-.21-.56-.42-.83-.63-.71,1.06-1.42,2.12-2.13,3.17.2.14.4.28.6.42l2.36-2.96Z"/>
      <path class="cls-1" d="m125.69,306.96c-.2-.51-.34-.87-.48-1.24-3.17,1.97-6.59-.05-6.86-3.76-.27-3.72-.28-7.47-.89-11.13-.71-4.24-6.32-9.86-11.41-8.14.27-2.73-1.86-3.99-3.6-5.01-2.22-1.3-3.81-3.02-4.84-5.16-1.17-2.43-1.94-5.07-2.76-7.66-.15-.47.3-1.13.62-2.21.68,1.55,1.09,2.4,1.44,3.28,1.5,3.83,3.56,7.28,6.44,10.29,1.99,2.08,5.22,2.39,7.7.92,1.87-1.1,4.15-2.16,6.23-2.12,5.23.1,10.16-1.21,15.17-2.25.61-.13,1.14-.69,1.66-1.1.3-.24.52-.83.79-.84,3.62-.17,7.2-1.54,10.87-.04,4.98,2.04,7.75,9.03,5.43,13.93-2.6,5.48-6.56,9.77-11.5,13.2-.49.34-1.21.35-1.81.56-.39.14-.8.29-1.11.55-1.97,1.63-3.85,3.4-5.91,4.91-1.53,1.13-3.29,1.94-5.17,3.02Zm7.38-32.89c-1.6.48-3.14,1.01-4.72,1.4-3.88.97-7.45,3.06-11.68,2.85-1.32-.07-2.7.91-4.05,1.4.86,1.05,1.6,2.25,2.61,3.13,3.54,3.07,4.8,7.01,4.75,11.53-.02,1.96-.23,3.97.1,5.88.31,1.77,1.51,3.18,3.4,3.72,1.59.45,2.66-.02,3.07-1.73.05-.21.4-.36.63-.52,2.39-1.6,4.61-3.66,7.23-4.64,2.15-.81,3.05-2.26,4.24-3.84,1.82-2.41,3.97-4.58,5.82-6.96,1.61-2.07,2.72-4.59,1.44-7.05-1.68-3.21-5.12-4.29-8.35-5.16-1.04-.28-2.43.76-3.66,1.2-.06.02-.14,0-.33,0-.15-.37-.33-.77-.51-1.2Z"/>
      <path class="cls-1" d="m7.55,393.64c-.16-.74-.54-1.72-.57-2.71-.18-5.58.42-11.14-1.08-16.71-.76-2.79-.13-5.96-.13-8.95.24-.05.48-.1.72-.15.57,1.09,1.23,2.14,1.7,3.28,2.69,6.43,2.87,13.18,2.55,20-.05,1.04.16,2.12-.09,3.1-.21.82-.91,1.52-1.51,2.45,2.14,2.35,1.39,5.59,1.48,8.53.15,4.76,2.24,7.98,6.1,10.49,4.08,2.66,8.17,5.46,10.22,10.14,1.17,2.66,1.78,5.58,3.01,8.21,1.1,2.37,2.54,4.63,4.13,6.71,1.62,2.12,3.63,3.95,5.44,5.92,2.23,2.42,2.28,5.58,2.75,8.56.22,1.42.03,2.9.03,4.35,0,1.55-.73,2.51-2.32,2.53-1.63.03-1.88-1.22-1.81-2.43.18-3.02-.27-5.91-1.72-8.56-.81-1.48-1.7-3.06-2.95-4.13-4.35-3.75-6.81-8.57-8.73-13.85-1.12-3.08-1.8-6.5-4.43-8.79-2.47-2.15-5.09-4.15-7.71-6.13-3.54-2.67-5.48-6.15-5.67-10.59-.12-2.81-.35-5.63-.36-8.44,0-.89.57-1.78.94-2.84Z"/>
      <path class="cls-1" d="m589.67,525.77c.11-.97-.06-1.85.3-2.33,2.31-3.06,4.74-6.04,7.15-9.08,2.12,2.87-1.24,9.37-5.75,11.16,1.64,2.52-.58,4.3-1.58,5.98-5.54,9.3-13,17.13-19.98,25.34-5.13,6.04-11.02,11.1-17.29,15.82-5.43,4.08-10.91,8.08-16.35,12.13-.63.47-1.21,1.01-2.01,1.69-1.14-1.99-.64-3.48.76-4.71,2.68-2.36,5.47-4.59,8.14-6.95,6.94-6.15,13.96-12.22,20.71-18.58,3.6-3.39,6.91-7.14,9.99-11.02,3.95-4.97,7.55-10.23,11.3-15.36,1.29-1.76,2.47-3.67,4.62-4.1Z"/>
      <path class="cls-1" d="m411.18,224.1c-.59-1.05-.86-1.86-1.39-2.42-2.19-2.36-4.5-4.61-6.68-6.99-.46-.5-.52-1.36-.84-2.27.58.06.84,0,.94.11,3.18,3.2,6.44,6.34,9.5,9.65,3.26,3.52,6.99,6.09,11.66,7.46,2.79.81,5.34,2.38,8.05,3.49,3.41,1.4,6.88,2.66,10.31,4.01,1.06.42,2.08.95,3.26,1.5.27-1.04.44-1.68.54-2.05-3.44-3.32-6.73-6.54-10.08-9.71-2.33-2.2-4.65-4.41-7.13-6.42-2.41-1.95-5.12-3.54-7.51-5.51-1.63-1.35-2.93-3.1-4.1-5.04,2.55,2.08,5.11,4.14,7.64,6.24,2.73,2.26,5.53,4.45,8.1,6.88,3.52,3.31,6.72,6.97,10.32,10.19,3.39,3.03,7.19,5.6,10.69,8.52,2.56,2.14,4.93,4.51,7.38,6.8.3.28.43.83.76.96,3.54,1.38,2.9,4,1.91,7.11-2.15-2.11-4.08-4.18-6.2-6.05-2.85-2.51-5.82-4.89-8.8-7.25-1.24-.99-2.55-1.97-3.97-2.65-3.04-1.45-6.15-2.76-9.26-4.04-4.43-1.82-8.88-3.61-13.35-5.32-.67-.26-1.53-.03-2.31-.02.09.68,0,1.48.32,2.03,2.09,3.55,4.33,7,6.4,10.56,1.17,2.02,2.04,4.21,3.2,6.24.57,1,1.61,1.71,2.2,2.7.93,1.56,1.63,3.24,2.47,4.85.25.48.68.86.94,1.32.29.5.48,1.05.72,1.57-.83.16-1.82.68-2.44.39-.87-.4-1.53-1.36-2.16-2.17-.82-1.07-1.54-2.23-2.26-3.37-.27-.43-.67-.95-.62-1.39.34-3.11-1.21-5.47-2.81-7.89-.91-1.37-1.34-3.06-2.27-4.42-1.77-2.59-3.7-5.07-5.63-7.54-1.35-1.72-2.62-3.59-4.29-4.94-2.69-2.17-6.13-2.1-9.41-2.47-.99-.11-1.99-.67-2.82-1.26-.37-.26-.33-1.08-.48-1.65.56-.14,1.14-.46,1.68-.4,2.04.21,4.08.56,6.11.83.32.04.67-.06,1.7-.17Z"/>
      <path class="cls-1" d="m512.61,392.95c.69-1.5,1.39-3,2.07-4.5.91-2,2.33-3.95,2.57-6.03.31-2.73-.25-5.58-.58-8.36-.38-3.18-.8-6.36-1.44-9.49-.6-2.9-1.53-5.73-2.3-8.6-1.43-5.36-2.95-10.71-4.25-16.1-.65-2.71-.94-5.5-1.31-8.27-.08-.6.17-1.24.26-1.86l.58-.07c.45,1.17.99,2.31,1.34,3.51,1.4,4.87,2.74,9.76,4.12,14.63,1.24,4.4,2.5,8.79,3.77,13.18.94,3.27,1.88,6.53,2.9,9.78.14.43.79,1.04,1.13.99.5-.07,1.11-.55,1.37-1.02,2.27-4.17,3.46-8.73,4.55-13.32.16-.66.4-1.3.56-1.96.95-4.16,1.89-8.32,2.98-13.09.31,1,.66,1.56.6,2.08-.32,3.19-.7,6.38-1.11,9.57-.34,2.61-.57,5.26-1.17,7.81-.5,2.13-1.47,4.15-2.23,6.22-.63,1.72-1.29,3.44-1.85,5.18-.65,1.99-1.04,4.08-1.85,6-1.25,2.95-.81,6.03-1.05,9.06-.08,1.1.08,2.21.03,3.31-.07,1.81-.94,2.29-2.32,1.08-1.12-.98-1.88-.94-3.11-.24-1.11.63-2.51.75-3.78,1.1-.16-.19-.32-.38-.47-.57Z"/>
      <path class="cls-1" d="m394.68,241.85c-2.24-.27-4-.34-5.68-.73-2.4-.55-4.8-.39-6.81-2.92-1.74-2.2-3.65-5.32-7.4-5.12-.17,0-.36-.17-.52-.3-4.44-3.57-9.49-5.72-15.11-6.62-3.53-.57-7.04-1.58-10.58-1.73-3.75-.15-7.71-.46-11.09,2.01-.33.24-.92.12-1.68.2-.1-1.04-.19-2.01-.3-3.17,1.82-.23,3.42-.43,5.1-.64.28-1.51-.65-1.63-1.78-1.74-.96-.1-1.9-.43-2.82-1.1.78-.1,1.55-.24,2.33-.3,5.48-.43,10.96-1.12,16.44-1.19,8.85-.11,17.71.01,26.55.39,3.32.14,6.58,1.33,9.89,1.97,1.46.28,2.97.61,4.43.5,1.86-.14,2.97.71,3.89,2.07.15.23.25.64.14.85-.12.22-.52.45-.78.42-1.1-.12-2.2-.27-3.27-.53-9.66-2.35-19.43-3.76-29.39-3.23-2.39.13-4.76.66-7.13,1.06-.33.06-.91.49-.88.61.14.47.37,1.14.74,1.29,1.69.68,3.46,1.13,5.15,1.79,2.72,1.06,5.4,2.22,8.08,3.35.56.24,1.21.9,1.63.77,2.29-.71,3.31.78,4.66,2.15.78.79,2.2.94,3.32,1.4,1,.41,2.51.58,2.88,1.32,1.76,3.45,4.79,4.6,8.24,5.35.63.14,1.09,1.11,1.74,1.82Z"/>
      <path class="cls-1" d="m237.73,231.66c-2.36,2.19-4.8,4.31-7.07,6.61-2.16,2.19-4.3,4.45-6.16,6.89-2.62,3.45-5,7.08-7.44,10.66-.77,1.13-1.42,2.33-2.15,3.49-.92,1.46-1.74,1.55-2.33.73.92-1.89,1.62-3.63,2.56-5.23,1.31-2.23,2.74-4.39,4.23-6.5,1.04-1.48,2.04-3.15,3.45-4.18,2.71-1.98,4.18-4.97,6.55-7.2,2.84-2.67,5.49-5.54,8.38-8.16,6.81-6.18,13.64-12.35,20.6-18.36,2.47-2.13,5.32-3.83,8.03-5.68.4-.27.98-.27,1.47-.4.13.56.5,1.22.33,1.67-.32.87-.8,1.8-1.48,2.4-5.98,5.26-12.24,10.22-17.98,15.73-3.54,3.4-6.79,7.24-8.73,11.96-.52,1.28-1.51,2.44-2.49,3.46-4.56,4.73-7.51,10.55-11.04,15.99-.92,1.41-1.44,3.11-2.51,4.39-.55.66-1.87.69-2.85,1-.03-.81-.38-1.79-.04-2.39,1.68-2.97,3.48-5.87,5.35-8.72,2.61-3.98,5.33-7.89,7.99-11.84,1.3-1.93,2.57-3.88,3.85-5.83-.18-.16-.36-.33-.55-.49Z"/>
      <path class="cls-1" d="m138.32,76.49c-.91-1.79-.85-3.15.3-4.19,2.61-2.36,5.24-4.71,8.02-6.85.71-.55,2.02-.35,3.05-.44.59-.05,1.2,0,2.26,0-2.13-3.11.36-4.18,2.06-5.34,4.21-2.86,8.52-5.59,12.85-8.26,3.8-2.34,7.77-4.4,11.53-6.78,7.38-4.68,14.67-9.51,22-14.28.39-.26.79-.5,1.17-.73,1.58,1.64,1.54,3.46-.29,4.74-4.01,2.81-8.11,5.49-12.18,8.21-1.6,1.07-3.21,2.13-4.85,3.13-6.22,3.82-12.51,7.53-18.65,11.47-3.81,2.44-7.4,5.12-11.6,7.01-2.78,1.25-4.89,3.93-7.36,5.9-2.68,2.13-5.42,4.18-8.32,6.41Z"/>
      <path class="cls-1" d="m399.78,174.13c-5.57.07-10.62-1.13-16.07.9,2.64,1.74,4.77,3.16,6.91,4.57-.08.15-.16.3-.24.45-2.19-.7-4.36-1.51-6.58-2.09-4.34-1.13-8.68-2.67-13.1-3.02-3.96-.32-8.03.73-12.06,1.17-3.48.38-6.96.69-10.43,1.16-2.99.41-5.95,1.06-8.93,1.5-1.08.16-2.19.03-3.32.03-.61-1.43-.11-2.14,1.25-2.36,4.21-.69,8.41-1.48,12.65-2.03,4.14-.54,8.31-.8,12.46-1.25.44-.05.83-.56,1.24-.85-.3-.39-.54-1.03-.92-1.14-4.77-1.39-9.51-2.94-14.36-3.94-3.45-.71-7.06-.62-10.6-.92-.62-.05-1.22-.27-1.83-.4-.04-.18-.08-.36-.12-.54.45-.28.93-.83,1.36-.79,8.24.67,16.5.97,24.52,3.5,5.28,1.66,10.76,2.9,16.25,3.57,3.97.49,8.09-.5,12.13-.38,2.88.09,5.75.89,8.6,1.46.36.07.61.72,1.16,1.42Z"/>
      <path class="cls-1" d="m455.16,637.3c-.96-.55-2.25-.97-3.06-1.83-1.37-1.46-2.65-1.58-4.41-.79-5.24,2.35-10.23,5.11-15.06,8.24-3.15,2.04-6.59,3.66-9.99,5.3-1.76.85-3.51.11-4.51-1.55-.25-.41-.4-.87-.58-1.32-1.26-3.1-1.88-3.49-5.04-2.22-2.98,1.2-5.81,2.79-8.75,4.11-.63.28-1.46.13-2.2.18.22-.71.24-1.66.72-2.08,1.22-1.06,2.57-2.02,4-2.78,2.67-1.42,5.41-2.73,8.16-3.99,3.61-1.65,6.1-.65,7.17,3.07.56,1.96,1.3,2.39,3.2,1.62,5.53-2.25,10.66-5.17,15.65-8.46,3.13-2.06,6.55-3.72,9.96-5.32,1.47-.69,3.3-.42,4.3,1.06,1.57,2.32,3.5,1.74,5.45.96,1.27-.5,2.39-1.36,3.64-1.92.59-.27,1.33-.2,2.01-.29-.16.61-.19,1.29-.5,1.81-2.19,3.73-5.93,4.92-10.15,6.19Z"/>
      <path class="cls-1" d="m634.07,219.16c-.15,6.54-.19,13.12,1.78,19.41.8,2.57,2.59,4.89,4.22,7.11.53.72,1.96.91,3.02,1.08,4.29.7,8.62,1.13,12.88,1.98,2.98.59,3.75,3.31,4.25,5.85.29,1.47.04,3.04.05,4.56.01,1.36-.61,2.38-1.96,2.39-1.36,0-1.45-1.15-1.39-2.26.05-.9.19-1.86-.06-2.69-.9-3-.34-4.58-5.22-5.06-3.2-.32-6.39-.83-9.6-1.1-2.41-.2-4.14-1.27-5.82-3.01-3.16-3.29-4.05-7.41-4.51-11.6-.4-3.68-.09-7.43-.17-11.15-.1-4.94.13-9.92-.51-14.79-.64-4.85-2.84-9.13-7.62-11.48-.38-.19-.57-.77-.85-1.17.51-.01,1.02-.04,1.53-.04.63,0,1.3.17,1.9.04,1.55-.34,3.65,1.42,4.79,3.23,3.65,5.82,3.6,12.21,3.27,18.69Z"/>
      <path class="cls-1" d="m408.59,458.3c.94-.67,1.85-1.36,2.81-2,5.99-3.94,11.94-7.95,16.87-13.2,3.26-3.48,6.36-7.13,9.33-10.86,2.81-3.53,5.48-7.19,7.99-10.94,1.17-1.75,1.73-3.91,2.76-5.77.95-1.7,2.21-3.22,3.27-4.86,2.1-3.25,4.23-6.48,6.22-9.8.89-1.48,1.28-3.27,2.24-4.69.53-.79,1.74-1.24,2.73-1.54.49-.15,1.44.22,1.73.65.26.39.07,1.31-.24,1.79-1.55,2.47-3.22,4.86-4.8,7.31-1.4,2.17-2.74,4.38-4.13,6.56-1.75,2.73-3.54,5.44-5.29,8.17-1.98,3.09-3.86,6.25-5.91,9.29-1.73,2.56-3.76,4.93-5.47,7.51-3.03,4.58-7.29,7.93-11.18,11.67-4.49,4.32-9.26,8.23-14.99,10.77-1.11.49-2.47.42-3.72.61-.08-.22-.15-.45-.23-.67Z"/>
      <path class="cls-1" d="m283.59,193.78c2.55-1.34,5.12-2.66,7.66-4.02,1.51-.81,3.2-1.44,4.42-2.57,2.5-2.32,5.62-2.81,8.68-3.59,5.55-1.4,11.08-2.85,16.65-4.15,3.51-.82,7.06-1.46,10.62-2.06.59-.1,1.28.41,1.92.63-.54.65-1.01,1.4-1.66,1.92-.37.3-1.04.26-1.58.32-3.03.34-3.04.36-1.51,3.02.23.4.42.83.62,1.24-3.49.47-6.93.74-10.28,1.42-6.01,1.23-11.94,2.58-17.8,4.72-4.83,1.77-9.51,4.88-15.07,4.38-.84-.08-1.66-.24-2.49-.37l-.17-.92Z"/>
      <path class="cls-1" d="m46.77,492.65c-2.72-2.67-5.5-4.89-7.58-7.63-1.31-1.72-1.67-4.21-2.26-6.41-1.24-4.59-.01-9.13.54-13.67.14-1.14.26-2.35.73-3.37.28-.6,1.24-1.19,1.9-1.2.45,0,1.34,1.02,1.31,1.54-.13,2.25-.35,4.52-.86,6.71-1.03,4.41.32,8.58,1.03,12.81.12.75,1.09,1.35,1.65,2.04,2.31,2.83,4.64,5.65,6.9,8.53.39.49.59,1.24.62,1.88.16,3.26.3,6.53.34,9.8.07,4.93-1.02,9.9.39,14.77.48,1.68,1.32,3.26,2.03,4.87.63,1.44.08,2.45-1.42,2.1-1.07-.24-2.45-1-2.86-1.91-1.94-4.27-2.01-8.75-1.73-13.44.31-5.23,1.19-10.6-.81-15.78-.21-.56.05-1.3.08-1.65Z"/>
      <path class="cls-1" d="m606,420.94c-1.98-.69-2.45-2.34-2.61-3.92-.21-2.15.62-3.97,2.06-5.71,3.14-3.79,5.91-7.9,9.03-11.71,1.6-1.95,2.43-4.9,5.64-5.08.47-.03,1.23.03,1.36.29.19.39.1,1.1-.16,1.49-2.92,4.54-5.97,9-8.8,13.59-.76,1.23-1.32,2.65-.28,4.35,2.64,4.3,1.2,6.51-2.02,11.05-2.78,3.92-5.72,7.73-8.71,11.49-.53.66-1.63.87-2.47,1.28.08-1.16-.18-2.48.29-3.45,2.02-4.17,4.25-8.24,6.39-12.35.18-.35.17-.8.27-1.32Z"/>
      <path class="cls-1" d="m246.38,263.33c-3.18,4.59-6.16,8.8-9.05,13.07-2.35,3.47-3.69,7.36-4.74,11.4-1.08,4.14-2.64,8.18-3.52,12.36-1.68,7.95-3.52,15.91-3.4,24.13.01,1.04.55,2.67-1.29,2.68-1.89,0-1.92-1.77-2.19-3.06-.14-.68.27-1.46.38-2.2,1.02-7.03,1.98-14.06,3.06-21.08.84-5.46,1.72-10.92,2.82-16.33.29-1.43,1.31-2.78,2.22-4,3.03-4.05,6.12-8.03,7.32-13.12.28-1.17.84-2.33,1.5-3.34.61-.93,1.49-1.29,2.66-.49.46.31,1.33.02,2.02.01.69,0,1.39,0,2.24,0Z"/>
      <path class="cls-1" d="m502.76,329.62c-.09,2.09-.25,4.19-.27,6.28-.04,3.98.05,7.97-.04,11.95-.02.81-.73,1.58-.9,2.42-.53,2.6-1.24,5.21-1.36,7.83-.16,3.6-.75,6.95-2.27,10.29-1.41,3.09-1.98,6.55-3.03,9.81-.92,2.85-1.92,5.68-3.03,8.45-.71,1.77-1.56,3.5-2.59,5.09-.54.84-1.62,1.33-2.43,1.96-2.86-1.07-2.98-1.39-1.45-4.11,3.46-6.14,5.61-12.8,7.79-19.45,1.69-5.17,3.35-10.36,4.69-15.62.84-3.29,1.08-6.73,1.59-10.11.75-4.95,1.51-9.9,2.27-14.85.34.01.68.02,1.02.04Z"/>
      <path class="cls-1" d="m653.3,326.22c.76-1.77,1.56-3.53,2.26-5.32,1.87-4.79,3.97-9.52,5.44-14.43,1.49-4.97-.01-7.55-4.43-10.22-4.54-2.74-7.09-7.19-5.43-12.97,1.63-5.69,3.46-11.31,5.18-16.97.18-.58.14-1.22.24-1.83.2-1.27.85-1.98,2.23-1.67,1.54.35,1.19,1.47.9,2.46-.76,2.62-1.71,5.19-2.38,7.83-.91,3.62-1.73,7.28-2.4,10.95-.68,3.68,1.43,6.19,4.18,8.03,4.41,2.94,6.14,6.73,4.96,11.96-1.06,4.7-2.51,9.21-5.04,13.36-1.05,1.72-1.62,3.73-2.54,5.53-.67,1.31-1.58,2.51-2.38,3.76-.26-.15-.52-.31-.78-.46Z"/>
      <path class="cls-1" d="m525.48,593.07c-1.62,1.46-3.01,2.83-4.53,4.04-5.09,4.08-10.18,8.17-15.36,12.13-7.21,5.52-14.7,10.55-23.23,13.97-4.26,1.71-8.2,4.19-12.33,6.22-.63.31-1.55.05-2.33.06.3-.83.35-2.07.93-2.42,5.54-3.29,11.04-6.68,16.8-9.55,6.23-3.1,12.25-6.47,17.94-10.46,3.15-2.21,6.38-4.31,9.43-6.65,2.87-2.2,5.56-4.63,8.33-6.97,1.2-1.01,2.47-1.37,4.35-.37Z"/>
      <path class="cls-1" d="m240.17,51.9c-1.28.86-2.55,1.75-3.85,2.58-2.51,1.61-4.99,3.29-7.6,4.73-.7.39-1.99.34-2.71-.06-2.53-1.39-4.68-.65-6.97.58-2.34,1.26-4.82,2.27-7.28,3.31-.36.15-.92-.16-1.38-.26.17-.33.26-.79.53-.97,3.28-2.22,6.64-4.34,9.88-6.63,1.77-1.26,3.68-1.87,5.54-.88,2.9,1.55,5.33.59,7.7-.91,4.14-2.62,8.21-5.36,12.33-8.02,3.18-2.06,6.35-4.12,9.58-6.1,2.51-1.54,5.03-3.1,7.69-4.34,1.07-.49,2.57-.33,3.79-.05.41.09.62,1.42.78,2.21.09.43-.28,1-.13,1.38.5,1.29.75,2.46-.06,3.77-.28.45.05,1.26.05,1.9,0,1.28-.04,2.56-.06,3.84-1.02-.05-2.19.19-3.04-.21-1.47-.7-1.85-2.07-1.32-3.69.41-1.23.74-2.49.97-3.77.21-1.15.18-2.25-1.55-1.47-2.78,1.25-5.69,2.28-8.32,3.78-4.37,2.5-8.57,5.3-12.82,8-.3.19-.45.61-.65.94-.17.27-.31.55-.46.83-.21-.17-.42-.35-.63-.52Z"/>
      <path class="cls-1" d="m503.37,447.36c-1.99-.71-2.29-1.88-1.34-3.56,1.02-1.8,1.79-3.74,2.71-5.6.64-1.28,1.34-2.53,2.04-3.77.4-.71.93-1.36,1.28-2.1,1.97-4.18,4.33-8.24,5.72-12.61,1.74-5.48,2.58-11.24,3.99-16.84.63-2.52-.07-5.41,1.96-7.53.46-.48,1.2-.7,1.81-1.04.2.61.62,1.25.56,1.84-.51,5.46-.73,11-1.82,16.35-.74,3.65-2.7,7.06-4.21,10.53-1.52,3.5-3.09,6.99-4.77,10.42-2.03,4.16-3.5,8.65-6.9,12.04-.46.46-.67,1.18-1.05,1.88Z"/>
      <path class="cls-1" d="m647.15,402.69c-.23,1.16-.18,2.49-.75,3.45-1.49,2.49-3.26,4.73-4.15,7.65-.86,2.85-2.6,5.44-4,8.12-1.05,2-.91,4.01-.53,6.17.62,3.52.66,7-.61,10.51-.89,2.48-1.06,5.09.5,7.69,1.23,2.05,1.68,4.44.29,6.84-.78,1.34-1.07,2.96-1.86,4.28-.49.82-1.42,1.49-2.3,1.91-.41.2-1.29-.24-1.75-.63-.24-.21-.17-.98-.02-1.42.45-1.27,1.2-2.46,1.48-3.75.25-1.16.44-2.66-.07-3.61-2.07-3.86-1.96-7.75-.44-11.61,1.19-3.02.71-5.99.17-8.93-.38-2.12-.32-3.99.63-5.93,3.36-6.82,7.74-12.97,12.32-18.99.41-.54.75-1.14,1.13-1.71l-.04-.04Z"/>
      <path class="cls-1" d="m401.55,483.41c.43-1.79,1.34-2.29,3.06-2.51,3.52-.45,6.99-1.37,10.46-2.22,4.88-1.2,9.78-2.36,14.57-3.85,2.95-.92,5.74-2.37,8.57-3.67,2.21-1.02,4.42-2.07,6.54-3.26,3.68-2.08,7.22-4.44,10.98-6.35,1.63-.82,3.67-.85,5.54-1.14.29-.04.87.43.95.75.08.36-.15.94-.44,1.21-4.17,3.7-9.15,5.91-14.3,7.86-1.84.69-3.6,1.6-5.38,2.43-3.63,1.7-7.31,3.09-11.28,3.97-3.38.74-6.47,2.73-9.79,3.9-2.2.77-4.54,1.17-6.85,1.57-3.62.62-7.26,1.13-10.9,1.62-.55.07-1.15-.2-1.73-.31Z"/>
      <path class="cls-1" d="m422.94,458.13c2.69-1.63,5.06-3.08,7.45-4.51.74-.44,1.61-.7,2.28-1.23,3.69-2.91,7.38-5.83,10.97-8.85,3.48-2.93,6.91-5.92,10.25-9.01,2.6-2.4,5.07-4.95,7.51-7.52.79-.83,1.24-1.97,1.97-2.87.46-.57,1.14-.98,1.71-1.46.28.13.57.26.85.39-.25,1.5-.19,3.16-.84,4.47-.84,1.7-2.28,3.09-3.39,4.66-.23.32-.27.85-.25,1.28.09,2.6-2.14,5.68-4.73,5.77-3.4.13-4.37,2.01-4.33,4.32-3.09,1.54-5.92,2.74-8.54,4.29-4.41,2.63-8.62,5.59-13.03,8.19-2.25,1.32-4.66,2.59-7.87,2.07Z"/>
      <path class="cls-1" d="m470.58,222.44c1.08,1.73,1.91,2.96,2.65,4.25,2.54,4.47,4.94,9.03,7.61,13.43,2.37,3.88,5.09,7.55,7.56,11.38,1.35,2.1,2.55,4.3,3.71,6.51,1.05,2.01.58,2.75-1.63,2.88-3.67.22-4.28-.24-5.88-3.45-1.71-3.41-3.42-6.85-5.51-10.03-1.59-2.41-3.87-4.34-5.66-6.63-1.25-1.6-2.18-3.45-3.27-5.18-.65-1.04-1.43-2-1.97-3.09-.2-.4.14-1.06.23-1.6.42.27,1.1.45,1.22.82,1.15,3.63,5.13,5.03,6.62,8.42.32.72,1.12,1.87,2.46.83.89-.68,1.17-1.11.07-1.81-.37-.24-.72-.69-.83-1.11-1.12-4.54-4.8-7.76-6.19-12.17-.25-.8-.98-1.44-1.45-2.17-.07-.11.06-.36.26-1.28Z"/>
      <path class="cls-1" d="m391.81,194.27c-.99-.37-1.99-.73-2.98-1.12-3.47-1.38-6.9-2.92-10.43-4.12-2.62-.89-5.36-1.52-8.09-2-5.11-.88-10.26-1.57-15.39-2.33-2.15-.32-4.29-.7-6.45-.9-1.6-.15-3.23-.05-4.84-.07-.34,0-.85.06-1-.12-1.52-1.89-3.59-2.22-5.89-1.97-.05-.22-.11-.45-.16-.67.52-.24,1.04-.69,1.56-.68,3.1.03,6.19.2,9.29.26,2.46.05,4.92-.09,7.37.05,6.22.35,12.31,1.44,18.21,3.51,1.67.59,3.45.88,5.12,1.47,4.18,1.48,7.86,3.82,11.29,6.6.76.61,1.76.92,2.65,1.37-.08.24-.17.48-.25.73Z"/>
      <path class="cls-1" d="m393.97,208.16c-2.15-.56-4.3-1.14-6.45-1.69-.4-.1-.83-.19-1.22-.14-4.11.55-7.99-.35-11.94-1.44-5.74-1.59-11.71-.8-17.5-.37-5.21.38-10.3,2.15-15.47,3.21-1.4.29-2.88.26-4.32.22-.45-.01-.88-.56-1.32-.86.42-.48.77-1.3,1.27-1.4,7.51-1.52,14.93-3.61,22.65-3.97,2.25-.11,4.49-.53,6.72-.87.38-.06.71-.4,1.21-.71-1.82-.68-3.35-1.25-4.88-1.82l.19-.81c1.5.28,3.05.41,4.5.87,5.63,1.78,11.25,3.62,16.85,5.52,3.25,1.1,6.44,2.36,9.65,3.57.09.03.03.44.04.68h.01Z"/>
      <path class="cls-1" d="m435.95,329.13c.38.55,1.12,1.12,1.09,1.65-.19,3.18-.54,6.36-.86,9.53-.23,2.24-.52,4.48-.73,6.73-.33,3.52-.43,7.08-.98,10.56-.28,1.75-1.35,3.36-2.02,5.06-1.11,2.83-2.16,5.69-3.27,8.53-2.03,5.16-4.32,10.2-7.4,14.84-1.04,1.57-2.01,3.2-2.87,4.88-.64,1.25-1.43,1.95-3.2,1.65.62-1.44,1.08-2.85,1.8-4.12,2.36-4.16,5.05-8.09,6.51-12.78,1.41-4.53,3.66-8.79,5.37-13.23.97-2.53,1.61-5.19,2.34-7.81.7-2.52,1.5-5.04,1.94-7.61.4-2.36.31-4.8.57-7.2.36-3.4.85-6.78,1.28-10.18.15-.17.3-.33.45-.5Z"/>
      <path class="cls-1" d="m400.72,371.33c.32-.92.64-1.65.82-2.42.16-.69.15-1.42.22-2.13.13-1.37-.08-2.9.46-4.08,1.72-3.71,3.76-7.26,5.6-10.92.42-.84.45-1.86.76-2.77,1.98-5.9,2.78-11.93,2.41-18.15-.04-.68.47-1.99.74-1.99,1.27-.02,1.37,1.03,1.35,2.07-.03,1.58-.25,3.23,1.35,4.33.17.12.24.51.21.75-.49,4.04.59,8.13-1.37,12.16-2.97,6.15-5.33,12.6-7.95,18.91-.6,1.44-1.12,2.93-1.86,4.3-.4.74-1.19,1.28-1.8,1.91-.31-.65-.62-1.31-.94-1.98Z"/>
      <path class="cls-1" d="m204.7,245.52c-1.52-2.34-.79-4.6.18-6.49,1.12-2.21,2.89-4.09,4.38-6.11,1.3-1.75,2.5-3.59,3.93-5.22,2.41-2.75,4.86-5.49,7.49-8.03,3.71-3.6,7.55-7.07,11.44-10.48,1.66-1.45,3.62-2.55,5.37-3.89,1.16-.89,2.15-1.99,3.31-2.89,1.55-1.21,3.17-2.34,4.8-3.43.34-.23.88-.16,1.33-.22.12.22.24.43.36.65-1.51,1.37-3.02,2.74-4.54,4.09-2.09,1.86-4.18,3.72-6.28,5.55-.91.79-1.85,1.55-2.8,2.3-2.03,1.62-4.21,3.09-6.08,4.87-2.33,2.21-4.48,4.63-6.6,7.05-3.15,3.61-6.24,7.26-9.25,10.98-.87,1.08-1.33,2.47-2.04,3.69-1.37,2.37-2.78,4.72-4.2,7.07-.09.15-.33.22-.8.51Z"/>
      <path class="cls-1" d="m208.96,326.4c-.11-.73-.34-1.47-.33-2.2.16-8.42.23-16.85.63-25.26.14-2.86,1.15-5.68,1.78-8.51.7-3.17,1.33-6.37,2.17-9.5.56-2.1,1.5-4.09,2.16-6.17.19-.61-.08-1.34-.03-2.01.09-1.44-.02-2.97.45-4.29.51-1.43,1.68-2.6,2.37-3.98.88-1.73,2.13-1.92,4.27-1.16-1.91,4.44-3.85,8.76-5.62,13.15-.82,2.02-1.43,4.15-1.93,6.28-1.52,6.59-2.87,13.19-3.14,19.99-.27,6.93-.79,13.86-1.25,20.78-.06.97-.41,1.93-.62,2.89-.31,0-.61,0-.92-.01Z"/>
      <path class="cls-1" d="m654.17,392.13c1.51-3.11,3.01-6.23,4.51-9.35.18-.37.35-.74.45-1.13,1.13-4.37,1.1-4.42-3.4-5.45-4.03-.92-5.74-3.45-4.51-7.44.9-2.92,2.43-5.65,3.66-8.47.32-.73.54-1.53.93-2.22.65-1.13,1.41-2.19,2.11-3.29.59-.92,1.09-1.91,1.75-2.78.33-.44.89-.76,1.41-.96.16-.06.81.56.77.68-.21.53-.62.98-.92,1.49-.58,1-1.21,1.99-1.68,3.04-.24.53.03,1.36-.3,1.75-1.65,1.97-2.36,4.37-3.12,6.7-.56,1.71-.78,3.59-.8,5.4,0,.55,1.09,1.27,1.83,1.64.78.39,1.72.47,2.6.66,4.37.97,5.34,3.53,3.38,7.99-1.71,3.87-4.25,7.37-6.52,10.97-.36.57-1.23.82-1.87,1.22-.09-.15-.18-.3-.28-.45Z"/>
      <path class="cls-1" d="m448.85,194.17c-2.89.44-4.41-1.7-6.32-2.89-2.07-1.28-3.97-2.84-6.01-4.16-6.14-3.98-12.86-6.63-19.84-8.74-1.1-.33-2.14-.9-3.19-1.4-2.75-1.31-5.55-2.4-8.66-2.4-.6,0-1.21-.15-1.79-.4,10.57-.64,33.91,4.01,45.81,19.99Z"/>
      <path class="cls-1" d="m291.52,30.75c2.28-1.58,4.9-2.85,6.78-4.82,2.87-3.01,6.41-4.76,10.04-6.35,1.25-.55,3.25-.62,4.34.03,1.47.87,1.83,2.84,1.25,4.62-.64,2-1.56,3.91-2.06,5.94-.25,1-.16,2.45.42,3.16.39.48,1.96.2,2.93-.04,1.92-.46,3.79-1.16,5.7-1.68.38-.1.85.15,1.47.78-3.13,1.58-6.26,3.18-9.41,4.72-1.63.79-3.21.64-4.66-.51-1.5-1.19-1-2.82-.7-4.21.44-1.98,1.31-3.86,1.95-5.8.21-.63.31-1.32.34-1.98.06-1.42-.54-2.18-2-1.52-3.33,1.5-6.67,2.99-9.91,4.66-1.54.79-2.82,2.09-4.34,2.95-.55.31-1.43.03-2.16.02v.04Z"/>
      <path class="cls-1" d="m93.19,197.49c-.97,2.72-1.78,5-2.69,7.57-1.79,1.23-2.15,3.68-2.95,5.92-2.52,7.08.23,13.31,3.16,19.46.62,1.3,1.2,2.44,1.09,3.91-.06.8.02,1.72.35,2.43,1.82,3.91,1.65,8.13,2.12,12.26.34,3.05.81,6.09,1.15,9.15.08.69-.17,1.41-.34,2.65-1.98-2.31-1.68-4.7-2-6.81-.51-3.38-.31-6.89-.99-10.22-.72-3.51-2.07-6.9-3.26-10.3-1.35-3.87-3.1-7.63-4.18-11.57-.89-3.26-.62-6.62.89-9.85,1.16-2.47,1.82-5.18,2.9-7.69.93-2.16,2.1-4.23,3.25-6.29.18-.32.84-.36,1.51-.62Z"/>
      <path class="cls-1" d="m397.77,372.44c-5.22,3.85-9.35,9.03-15.21,11.9-.14-.17-.28-.34-.42-.51,1.1-.88,2.29-1.67,3.27-2.68,1.55-1.6,2.93-3.37,4.44-5.01,2.41-2.6,4.81-5.21,7.34-7.69,1.02-1,2.11-.67,2.49.79.88,3.36,1.32,6.75-.89,9.81-2.41,3.33-4.77,6.73-7.49,9.8-1.46,1.65-3.59,2.73-5.51,3.92-.42.26-1.24-.12-1.87-.21.26-.64.37-1.41.8-1.91,3.08-3.55,6.44-6.89,9.28-10.62,1.66-2.18,4.06-4.2,3.78-7.59Z"/>
      <path class="cls-1" d="m327.71,659.28c-3.77,2.01-7.56,3.98-11.3,6.06-1.7.94-3.2,2.25-4.91,3.15-3.53,1.86-7.03,3.94-11.15,4.11-3.09.12-5.11-2.52-4.31-5.51.66-2.43,1.43-4.85,2.36-7.18.28-.7,1.2-1.25,1.95-1.63.36-.19,1.16.01,1.47.32.26.26.23.97.12,1.43-.51,2.12-1.14,4.2-1.63,6.32-.32,1.35.64,2.41,1.92,2.02,3.09-.94,6.21-1.86,9.17-3.15,3.98-1.73,7.78-3.89,11.74-5.69,1.33-.6,2.9-.68,4.36-.99.07.24.15.49.22.73Z"/>
      <path class="cls-1" d="m443.98,395.41c-11.66,16.51-24.82,31.54-42.28,43,.26-2.82,1.77-4.06,3.58-5.17,1.07-.66,1.99-1.55,2.99-2.32,1.79-1.39,3.74-2.6,5.34-4.17,4.33-4.25,8.5-8.67,12.76-13,.77-.78,1.71-1.39,2.41-2.23,2.54-3.06,5.05-6.15,7.51-9.27,1.63-2.07,3.07-4.3,4.79-6.28.58-.67,1.78-.8,2.7-1.18.07.21.14.42.21.64Z"/>
      <path class="cls-1" d="m633.88,460.93c-1.16,2.24-2.2,4.36-3.35,6.41-.87,1.56-1.32,2.76.62,4.07,1.65,1.11,1.27,3.88-.45,5.75-2.26,2.46-4.68,4.79-6.78,7.38-2.72,3.36-5.13,6.97-7.78,10.38-.85,1.09-2.06,1.88-3.43,3.1,0-.79-.17-1.32.03-1.58,1.55-2.05,3-4.21,4.8-6.03,3.32-3.36,5.86-7.25,8.25-11.26,1.07-1.8,1.96-3.56-.28-5.37-1.19-.96-1.3-2.52-.48-3.96,1.42-2.49,2.92-4.94,4.27-7.46.98-1.81,2.43-1.95,4.58-1.41Z"/>
      <path class="cls-1" d="m241.66,259.34c1.9-4.36,4.22-8.58,7.55-11.97,3.63-3.69,7.75-6.91,11.73-10.24,1.1-.92,2.44-1.58,3.76-2.17.51-.23,1.25.04,1.89.08-.13.63-.05,1.43-.42,1.84-.95,1.06-1.99,2.13-3.19,2.87-5.86,3.61-9.93,8.84-13.86,14.35-1.27,1.78-2.19,3.52-2.94,5.5-.62,1.63-2.22,1.51-4.53-.26Z"/>
      <path class="cls-1" d="m470.73,263.71c.56.79,1.14,1.57,1.67,2.38,1.65,2.52,3.53,4.93,4.85,7.62,2.15,4.35,4.18,8.79,5.77,13.37,1.09,3.13,1.51,6.54,1.92,9.86.52,4.28.8,8.6,1.05,12.91.14,2.3-.03,4.62,0,6.93.03,2.95.1,5.91.15,8.86,0,.34-.09.67-.14,1.06-1.6.31-2.61.13-2.39-1.87.1-.93-.21-1.9-.25-2.86-.09-2.17-.16-4.31,1-6.34.47-.81.61-1.96.52-2.92-.51-5.38-.96-10.78-1.8-16.11-.47-2.98-1.64-5.85-2.52-8.76-1-3.3-1.92-6.63-3.1-9.87-.68-1.88-1.73-3.64-2.7-5.4-1.42-2.56-2.94-5.07-4.4-7.61-.15-.26-.11-.61-.16-.92.18-.1.36-.21.54-.31Z"/>
      <path class="cls-1" d="m328.44,210.48c-3.02.97-6.04,1.99-9.08,2.9-3.8,1.14-7.64,2.19-11.45,3.29-.19.06-.36.26-.55.27-3.3.23-5.74,2.32-8.51,3.78-2.99,1.58-6.31,2.5-9.42,3.87-3.37,1.49-6.67,3.16-9.99,4.76-2.57,1.24-5.11,2.52-7.71,3.71-.37.17-.95-.14-1.44-.23.2-.45.26-1.11.61-1.32,1.83-1.12,3.7-2.19,5.61-3.18,3.17-1.64,6.37-3.24,9.6-4.77,1.83-.86,3.74-1.59,5.65-2.28,3.13-1.12,6.32-2.07,9.43-3.27,5.27-2.02,10.45-4.3,15.76-6.23,3.11-1.13,6.38-1.87,9.61-2.65.55-.13,1.25.42,1.89.65,0,.23,0,.47,0,.7Z"/>
      <path class="cls-1" d="m93.36,194.35c.75-2.55,1.43-5.12,2.26-7.64.68-2.06.55-3.92-.38-5.93-.43-.92-.28-2.49.25-3.38,1.12-1.86,2.57-3.56,4.06-5.16,2.39-2.55,4.93-4.97,7.42-7.43.48-.47.98-1.07,1.57-1.24.58-.16,1.28.18,1.94.3-.27.63-.4,1.39-.83,1.88-2,2.25-4.14,4.37-6.11,6.64-1.21,1.4-2.23,2.96-3.25,4.51-.31.48-.62,1.26-.44,1.72,1.55,3.92-.43,7.18-1.89,10.52-.63,1.44-1.34,2.87-2.19,4.2-.42.66-1.23,1.07-1.87,1.59-.18-.19-.35-.38-.53-.58Z"/>
      <path class="cls-1" d="m135.9,134.4c1.29.73.29,2.04.06,3.21-.29,1.46-.75,2.89-.96,4.35-.4,2.84-2.87,5.19-6.42,6.18-.91.25-1.76.88-2.52,1.48-1.67,1.3-3.32,2.64-4.86,4.09-.55.52-2.36.61-1.11,2.14-.74.29-1.48.58-2.22.88-3.35,3.71-4.54,4.61-6.22,4.22,1.41-1.56,2.81-3.15,4.26-4.7,2.22-2.37,4.61-4.61,6.69-7.11,2.07-2.49,3.64-5.4,5.79-7.8,2.19-2.44,4.83-4.49,7.51-6.94Z"/>
      <path class="cls-1" d="m170.11,91.68c.97-.81,1.87-1.63,2.83-2.34.31-.22.81-.18,1.22-.26-.01.46.16,1.1-.07,1.36-3.09,3.32-6.18,6.66-9.43,9.82-.62.6-1.98.43-2.99.66-1,.23-2.22.23-2.94.83-1.75,1.42-3.19,3.21-4.91,4.67-.54.46-1.56.34-2.36.49.17-.78.09-1.8.56-2.3,2.08-2.17,4.38-4.13,6.48-6.29,1.78-1.83,3.44-3.78,5.04-5.77,2.28-2.84,3.42-3.08,6.58-.86Z"/>
      <path class="cls-1" d="m367.84,655.77c2.63-1.16,5.29-2.27,7.9-3.5,5.19-2.44,10.8-2.68,16.34-3.42,1.91-.25,3.71-1.29,5.59-1.89.74-.24,1.55-.25,2.33-.37-.27.99-.24,2.55-.86,2.88-2.58,1.39-5.29,3.19-8.07,3.42-7.07.56-13.91,1.93-20.71,3.79-.7.19-1.51.03-2.27.03-.08-.32-.16-.63-.24-.95Z"/>
      <path class="cls-1" d="m650.57,333.56c-.12.96-.17,1.94-.38,2.87-.61,2.65-1.37,5.28-1.93,7.94-.52,2.51,1.08,4.25,2.5,6.01,1.33,1.65,2.94,3.21,2.89,5.52-.02.99-.46,1.97-.76,2.94-.07.24-.31.51-.54.6-1,.41-1.04,2.55-2.64,1.68-1.63-.88.34-1.94.11-2.75-.47-1.64-.97-3.58-2.13-4.67-4.72-4.47-3.66-9.31-1.36-14.3.96-2.08,2.2-4.03,3.32-6.04.31.06.62.12.93.18Z"/>
      <path class="cls-1" d="m365.77,659.4c-.28.2-.54.43-.84.59-4.27,2.34-8.5,4.79-12.86,6.97-2.11,1.05-4.46,1.73-6.76,2.3-3.05.75-5.55-1.58-5.87-5.22-.11-1.3-.28-2.62-.2-3.92.04-.63.48-1.65.91-1.75.92-.21,2.02-.11,2.91.22.3.11.19,1.31.29,2,.19,1.25,0,2.88.72,3.64.71.75,2.46,1.08,3.55.8,3.09-.81,6.1-1.95,9.09-3.1,1.82-.7,3.49-1.78,5.31-2.49,1.1-.43,2.34-.48,3.52-.7.08.22.15.44.23.66Z"/>
      <path class="cls-1" d="m389.28,545.6c-1.41-.87-2.66-.06-3.92.54-4.03,1.93-8.05,3.87-12.06,5.82-1.59.77-3.17,1.59-4.76,2.38-.12-.25-.25-.5-.37-.76,3.58-1.71,7.21-3.33,10.73-5.17,3-1.56,5.85-3.42,8.81-5.06,3.01-1.67,6.05-3.28,9.12-4.83,1.28-.64,2.29.23,2.86,1.2.24.41-.12,1.63-.57,1.92-2.91,1.86-5.91,3.58-8.9,5.31-.71.41-1.51.66-2.23,1.04-4.79,2.55-9.55,5.15-14.38,7.62-.79.4-1.88.22-2.93-.16,6.27-3.03,12.54-6.06,18.8-9.08-.07-.26-.13-.51-.2-.77Z"/>
      <path class="cls-1" d="m468.53,492.35c-1.29-1.74-1.03-3.06.02-4.23,1.75-1.93,3.65-3.73,5.38-5.67,2.98-3.34,5.87-6.77,8.82-10.14,1.83-2.08,3.81-4.04,5.51-6.21,1.03-1.31,1.65-2.94,2.48-4.47.99.18,1.85.34,2.84.53-7.41,10.8-16.02,20.51-25.05,30.2Z"/>
      <path class="cls-1" d="m445.08,283.17c1.17,2.48,2.08,4.62,3.16,6.67,1.91,3.62,2.91,7.5,3.96,11.45,1.17,4.39,3.31,8.53,4.99,12.79.29.73.44,1.55.49,2.34.19,2.99.31,5.99.44,8.99.02.38.01.79-.09,1.15-.03.1-.62.19-.7.08-.26-.33-.52-.73-.58-1.14-.36-2.21-.41-4.5-1.03-6.63-1.18-4.02-2.8-7.91-4.02-11.92-1.43-4.73-2.57-9.55-3.96-14.3-.64-2.18-1.62-4.27-2.32-6.44-.28-.85-.22-1.82-.34-3.06Z"/>
      <path class="cls-1" d="m426.83,199.86c1.76.61,3.63,1.03,5.26,1.88,1.95,1.02,4.09,1.95,5.09,4.2.12.26.52.43.82.57,5.82,2.75,10.4,7.21,15.42,11.06,1.68,1.29,3.48,2.42,5.21,3.64.33.24.61.56.9.85,1.63,1.68,3.34,3.31,4.85,5.09.62.73.83,1.82,1.23,2.75-.21.14-.42.29-.63.43-.59-.48-1.21-.91-1.76-1.43-2.98-2.87-5.9-5.8-8.91-8.63-.81-.76-1.98-1.13-2.8-1.87-1.3-1.18-2.3-2.74-3.7-3.75-3.64-2.65-7.45-5.07-11.16-7.63-1.68-1.16-3.54-1.94-4.96-3.62-1.22-1.44-3.32-2.15-5.02-3.18.05-.12.1-.24.16-.36Z"/>
      <path class="cls-1" d="m5.75,357.43c0-1.83-.19-3.69.04-5.49.35-2.7,1.4-5.36,1.43-8.05.04-2.95-.59-5.94-1.23-8.85-.34-1.55-1.2-2.95.29-4.45,2.08.67,3.76,1.55,4.23,4.14.71,3.92.74,7.58-.89,11.39-1.32,3.1-1.79,6.55-2.64,9.85-.13.51-.32,1.01-.49,1.51-.25-.02-.5-.04-.75-.06Z"/>
      <path class="cls-1" d="m627.86,320.57c.32,1.8.75,3.58.89,5.39.05.6-.64,1.26-.5,1.66.67,2.28,1.45,4.53,2,6.84.84,3.58,1.53,7.2,2.28,10.8.44,2.14,1.27,4.28,1.22,6.41-.05,2.2-.24,5.36-1.63,6.36-3.52,2.55-.15,5.3-1.5,7.97.85-.2,1.2-.29,1.12-.27,2.28,3.07,4.45,5.98,6.61,8.89-.18.17-.36.34-.54.51-1.34-1.42-2.7-2.82-4.02-4.25-.87-.94-1.68-1.93-2.51-2.9-.31-.36-.79-.7-.85-1.11-.45-3.23-1.61-6.48.22-9.68,1.63-2.84,2.39-5.86,1.52-9.13-.39-1.49-.88-2.95-1.23-4.45-.49-2.06-.89-4.13-1.28-6-.1.15-.37.54-.74,1.1-.57-2.13-1-3.99-1.57-5.81-.42-1.31-1.2-2.52-1.48-3.84-.12-.58.62-1.34.97-2.02.27-.53.8-1.08.77-1.6-.08-1.61-.36-3.21-.57-4.81.28-.02.55-.03.83-.05Z"/>
      <path class="cls-1" d="m69.7,532.71c-1.81,3.1-3.16,5.22-7.43,2.74-3.22-1.87-6.41-3.84-9.46-5.97-.9-.63-2.52-1.86-1.29-3.14,1.15-1.2,2.68-.3,4.05.5,3.57,2.1,7.2,4.11,10.91,5.95.83.41,2.09-.04,3.22-.09Z"/>
      <path class="cls-1" d="m422.49,52.18c3.6-.8,6.65-.1,9.69,1.18,1.6.68,3.37,1.47,4.97-.2.13-.14.62-.16.77-.03,1.67,1.49,3.3,3.01,4.98,4.55-7.42.78-14.5.56-20.4-5.51Z"/>
      <path class="cls-1" d="m298.85,171.1c.3-.26.56-.67.91-.77,3.86-1.14,7.89-1.86,11.56-3.44,3.7-1.59,7.46-1.48,11.26-1.72,3.09-.19,6.16-.54,9.25-.68.54-.02,1.11.64,1.67.99-.51.36-1,.99-1.55,1.05-2.87.28-5.78.29-8.64.66-2.09.27-4.11,1.05-6.2,1.39-2.57.42-5.21.47-7.77.95-3,.56-5.94,1.42-8.92,2.12-.47.11-.98.02-1.47.02l-.11-.57Z"/>
      <path class="cls-1" d="m181.21,84.12c.34-1.01.37-1.79.78-2.19,2.83-2.8,5.5-5.83,8.67-8.18,3.15-2.34,6.82-3.98,10.3-5.87.28-.15,1.17.13,1.18.25.05.8.25,1.93-.18,2.35-1.06,1.02-2.41,1.77-3.7,2.53-3.09,1.82-6.29,3.47-9.31,5.41-2.46,1.58-4.73,3.46-7.74,5.7Z"/>
      <path class="cls-1" d="m187.31,280.86c2.76,3.28,1.33,6.64.75,9.9-.59,3.32-1.29,6.64-2.14,9.9-1.63,6.31-2.42,12.7-2.5,19.2,0,.46-.29.92-.62,1.24.18-2.02.39-4.04.52-6.07.26-3.91.43-7.83.71-11.74.38-5.27.69-10.55,1.31-15.8.27-2.24,1.27-4.38,1.95-6.64Z"/>
      <path class="cls-1" d="m140.68,128.31c1.45-2.71,2.99-5.39,4.29-8.17.24-.51-.31-1.59-.78-2.18-.49-.62-1.33-.97-2.01-1.44,1.03-.93,1.95-2.37,3.14-2.65,1.33-.32,3.34.04,3.74,1.8.28,1.24.06,2.92-.6,3.99-1.8,2.89-3.92,5.59-6,8.31-.36.47-1.13.64-1.7.94-.02-.2-.04-.39-.06-.59Z"/>
      <path class="cls-1" d="m194.73,261.5c-.21-.59-.77-1.33-.59-1.73,1.75-3.91,3.63-7.76,5.47-11.63.29-.61.42-1.32.81-1.84.28-.37.87-.5,1.32-.74.07.47.35,1.08.16,1.39-.7,1.12-1.06,2.14-.15,3.34.16.22-.04.79-.19,1.15-1.05,2.59-2,5.24-3.27,7.72-.53,1.02-1.78,1.67-2.7,2.49-.28-.05-.57-.11-.85-.16Z"/>
      <path class="cls-1" d="m159.41,103.3c.78-.38,1.58-1.11,2.35-1.08,2.2.07,3.85-.76,5.3-2.31,3.15-3.38,6.34-6.72,9.52-10.06.66-.69,1.38-1.32,2.08-1.98.12.12.25.24.37.36-.87.9-1.81,1.74-2.6,2.7-.96,1.17-2.62,1.94-2.19,3.99.09.42-.87,1-1.22,1.58-1.03,1.7-1.94,3.47-3.01,5.13-.4.62-1.06,1.11-1.68,1.53-.86.58-1.79,1.06-2.71,1.53-.29.15-.67.28-.97.22-1.67-.29-3.32-.65-4.98-.98-.09-.21-.18-.42-.27-.63Z"/>
      <path class="cls-1" d="m204.32,284.27c-.63-2.74-.6-4.93.28-7.2,1.38-3.56,2.47-7.24,3.8-10.82.4-1.06,1.08-2.11,1.89-2.87.46-.43,1.46-.27,2.29-.38-2.81,7.25-5.46,14.05-8.26,21.27Z"/>
      <path class="cls-1" d="m219.81,564.43c1.95-.61,3.87-1.43,5.87-1.77,2.68-.45,4.48.76,5.51,3.23,1.17,2.82,2.17,5.72,3.57,8.42.55,1.07,1.99,1.68,3.13,2.59-3.21.3-5.45-1.7-6.21-4.37-.69-2.43-2-4.74-3.37-6.89-.84-1.32-4.24-1.37-5.79-.65-.77.36-1.72.32-2.58.47-.04-.35-.09-.69-.13-1.04Z"/>
      <path class="cls-1" d="m278.99,263.48c-2.89,3.21-5.59,6.2-8.69,9.65-.14-1.69-.29-2.87-.33-4.05-.03-.82.12-1.65.09-2.47-.11-3.02.56-3.73,3.71-3.76,1.37-.02,2.74-.04,4.11-.01.23,0,.46.25,1.11.64Z"/>
      <path class="cls-1" d="m4.41,318.74c-.15,1.44-.45,2.89-.42,4.33.05,2.14.4,4.28.48,6.42.05,1.34-.19,2.69-.3,4.03-1.02-.66-2.45-1.09-2.98-2.03-.75-1.34-1.45-3.2-1.11-4.57.74-2.91,2.16-5.64,3.31-8.44.34.09.68.18,1.01.26Z"/>
      <path class="cls-1" d="m279.89,196.61c.56.54,1.25.89,1.35,1.37.11.5-.16,1.39-.57,1.65-2.87,1.87-5.79,3.66-8.75,5.37-.52.3-1.33.09-2,.12,0-.75-.29-1.78.09-2.2,1.18-1.3,2.5-2.54,3.98-3.46,1.78-1.11,3.78-1.85,5.9-2.86Z"/>
      <path class="cls-1" d="m221.21,539.43c-.03.65-.06,1.31-.09,1.96.09-.05.19-.11.28-.16.55,1.16,1.1,2.31,1.65,3.47-.13.22-.26.45-.39.67,4.99,1.18,9.97,2.35,15.04,3.55-.23.37-.32.57-.37.56-3.65-.5-7.3-1.35-10.96-1.42-2.19-.05-4.06-.38-5.86-1.5-.38-.24-.94-.41-1.11-.76-.79-1.64.3-5.14,1.87-6.31,0,0-.06-.05-.06-.05Z"/>
      <path class="cls-1" d="m611.69,401.51c-2.18,1.8-4.41,3.53-6.52,5.41-2.75,2.45-5.04,5.18-4.89,9.23.07,1.99-.19,4-.08,5.99.05,1.05.41,2.15.89,3.09.91,1.79-.13,2.88-1.25,4.45-.2-4.74-.52-9.08-.48-13.41.02-1.91.44-3.99,1.31-5.67.93-1.78,2.46-3.34,3.99-4.7,2.04-1.81,4.34-3.32,6.53-4.96.17.19.33.38.5.58Z"/>
      <path class="cls-1" d="m201.8,290.43c.14.7.38,1.39.4,2.09.07,2,.06,4.01.08,6.01,0,.28.12.68-.02.81-1.79,1.68-.15,3.47-.17,5.2-.03,2.53.1,5.07.1,7.6,0,.47-.28.94-.48,1.57-2-2.48-2.11-17.56.09-23.29Z"/>
      <path class="cls-1" d="m403.95,467.85c-.46.41-.92.83-1.38,1.24l-.53-.39c.24-.45.37-1.16.73-1.29,1.45-.53,3.03-.74,4.44-1.35,1.67-.73,3.15-1.89,4.83-2.61,2.44-1.04,4.97-1.9,7.5-2.72.49-.16,1.16.25,1.75.67-5.68,2.42-10.73,6.26-17.33,6.45Z"/>
      <path class="cls-1" d="m570.54,492.75c-1.13,2.5-2.08,4.73-4.42,6.01-.37.2-.58.87-.69,1.36-.88,3.76-1.6,7.56-2.64,11.28-.31,1.1-1.47,1.95-2.48,2.71.61-1.61,1.3-3.2,1.82-4.83.72-2.25,2.25-4.78,1.74-6.75-.81-3.16.67-4.75,2.07-7.01,1.19-1.93,2.66-2.2,4.61-2.76Z"/>
      <path class="cls-1" d="m403.92,408.12c-1.84-3.5,1.19-4.21,2.46-5.79,1.28-1.59,2.78-3,4.13-4.55,1.02-1.17,1.97-2.35,4.12-1.16-2.82,4.63-7.78,7.03-10.7,11.5Z"/>
      <path class="cls-1" d="m205.12,535.93c2.37.65,4.73,1.3,7.46,2.05-.11.61-.13,1.41-.42,2.09-.54,1.26-1.18,2.48-1.91,3.63-.26.41-1.01.48-1.4.85-.71.66-1.72,1.34-1.91,2.17-.39,1.72-.31,3.54-.48,5.32-.04.46-.29.9-.94,1.32-.15-.4-.55-.93-.42-1.17,1.13-2.04-.03-4.14.28-6.17.1-.67.76-1.55,1.38-1.79,2.72-1.08,4.04-3.96,2.46-5.9-.46-.57-1.31-.85-2.02-1.17-.73-.33-1.51-.55-2.27-.83.06-.13.13-.27.19-.4Z"/>
      <path class="cls-1" d="m601.61,512.58c-1.44-.85-1.34-1.84-.4-2.89,3.19-3.59,6.38-7.19,9.62-10.74.29-.32.9-.34,1.37-.5l.35.46c-3.61,4.51-7.22,9.03-10.94,13.68Z"/>
      <path class="cls-1" d="m191.51,274.2c-.2-3.3-.44-6.62.67-9.84.63-1.82,1.77-2.12,3.97-1.05-1.35,3.65-2.72,7.33-4.09,11.02-.19-.04-.37-.08-.56-.12Z"/>
      <path class="cls-1" d="m313.8,221.16c5.13-.5,10.26-1,15.39-1.52.94-.1,1.88-.39,2.82-.36.56.01,1.1.46,1.65.72-.5.3-.98.81-1.49.85-3.69.32-7.4.52-11.09.79-2.38.17-4.75.39-7.13.59-.05-.36-.1-.71-.15-1.07Z"/>
      <path class="cls-1" d="m399.21,492.03c-.51,1.03-1.08,1.76-1.22,2.57-.26,1.53-.4,3.11-.33,4.66.06,1.32-.52,1.97-1.55,2.58-1.54.92-2.29-.13-2.53-1.21-.35-1.56.34-3.04,1.81-3.74,1.3-.62,1.13-1.58,1.03-2.58-.17-1.67.24-2.71,2.79-2.28Z"/>
      <path class="cls-1" d="m451.3,197.76c1.05.86,2.23,1.6,3.11,2.6,3.03,3.45,6,6.94,8.89,10.51.84,1.04,1.31,2.39,1.54,3.8-4.63-5.5-9.27-11-13.9-16.5.12-.14.24-.28.36-.42Z"/>
      <path class="cls-1" d="m435.63,263.44c2.09-1.05,4.85.7,5.04,3.23.12,1.67.05,3.35,0,5.02-.01.35-.35.7-.78,1.52-1.5-3.45-2.85-6.54-4.26-9.77Z"/>
      <path class="cls-1" d="m491.3,542.6c1.39-1.47,2.59-3.24,4.23-4.34,2.33-1.57,4.67-3.08,7.5-3.99,3.86-1.24,6.87-4.13,9.84-7.14-.39.76-.61,1.69-1.19,2.26-2.71,2.63-5.3,5.31-9.34,6.17-2.21.47-4.18,2.11-6.26,3.22-1.43.77-2.6,1.75-3.23,3.35-.12.31-1.01.32-1.55.47h0Z"/>
      <path class="cls-1" d="m210.65,38.87c3.1-.17,6.27,0,9.3-.6,3.16-.62,6.18-1.96,9.67-2.61-.43.38-.8.85-1.29,1.12-.86.47-1.76.91-2.7,1.2-1.67.53-3.38.92-5.07,1.4-3.28.94-6.55,1.29-9.9-.52Z"/>
      <path class="cls-1" d="m269.04,45.51c2.45-3.43,6.53-4.19,9.74-6.28.32-.21.92.03,1.39.06-.22.34-.38.77-.68,1-2.27,1.72-4.55,3.44-6.87,5.09-1.07.76-2.24,1.41-3.58.13Z"/>
      <path class="cls-1" d="m615.29,340.6c0-2.84-.15-5.7.04-8.53.21-2.95,2.62-5.17,2.54-8.47-.07-2.65,1.44-5.34,2.25-8.02.19.06.38.12.57.19-.42,1.47-.9,2.92-1.24,4.4-.35,1.52-.89,3.11-.74,4.6.22,2.17-.93,3.78-1.46,5.65-.94,3.3-1.22,6.78-1.78,10.18-.06,0-.12,0-.17,0Z"/>
      <path class="cls-1" d="m439.74,299.4c2.62,7.49,6.54,14.26,5.15,22.28-.12-1.91-.05-3.87-.41-5.74-.83-4.38-2.26-8.58-4.35-12.56-.55-1.05-1.52-2.22-.39-3.98Z"/>
      <path class="cls-1" d="m341.04,657.51c-1.94-.52-3.34-.78-4.66-1.27-1.06-.39-.98-2.14.11-2.88,2.17-1.47,5.53-.05,6.11,2.63.09.42-1.12,1.11-1.56,1.53Z"/>
      <path class="cls-1" d="m79.24,377.18c1.06,5.02,2.11,10.05,3.17,15.07-.22.11-.44.23-.66.34-.39-.34-1.02-.63-1.13-1.04-1.04-4.18-1.99-8.37-2.96-12.57-.01-.06.02-.13.06-.31.35.31.66.59,1.22,1.09v-2.57c.1,0,.2-.01.3-.02Z"/>
      <path class="cls-1" d="m242.58,555.49c1.71,2.11,2.32,4.73,2.43,7.67.05,1.31,1.1,2.71,2.01,3.83,1.87,2.31,4.6,2.69,7.36,3.1-2.08-.2-4.48.17-6.15-.76-1.89-1.05-3.81-3.03-4.51-5.03-.97-2.79-.82-5.97-1.13-8.82Z"/>
      <path class="cls-1" d="m379.97,385.55c-1.75,3.88-8.52,7.6-11.61,6.53,4.33-.99,6.95-5.07,11.61-6.53Z"/>
      <path class="cls-1" d="m81.43,307.93c3.53-3.73,6.19-8.25,10.16-11.58.21.15.43.31.64.46-.63.98-1.18,2.03-1.9,2.94-1.88,2.36-3.79,4.7-5.8,6.94-.7.78-1.74,1.25-2.63,1.86-.16-.21-.32-.41-.48-.62Z"/>
      <path class="cls-1" d="m437.57,465.56c-.4.76-.59,1.44-1.02,1.89-.91.96-1.87,1.94-2.97,2.65-.58.38-1.51.23-2.28.32.12-.63.05-1.39.39-1.85.9-1.23,1.9-2.42,3.03-3.45.45-.42,1.33-.48,2.01-.49.27,0,.55.59.84.93Z"/>
      <path class="cls-1" d="m525.37,590.48c.38-.56.61-1.08,1-1.44,1.2-1.13,2.43-2.24,3.72-3.27.46-.37,1.14-.47,1.71-.69.1.71.46,1.51.25,2.11-.85,2.45-3.59,3.83-6.68,3.29Z"/>
      <path class="cls-1" d="m369.82,508.57c-.42-.67-.84-1.34-1.25-2.01,1.2-.46,2.4-.91,4.01-1.52-.1,2.33-.17,3.94-.25,5.54.17.02.35.04.52.06-.44.65-.88,1.3-1.33,1.95l-.9-.36-.52-3.87c-.1.07-.2.15-.29.22Z"/>
      <path class="cls-1" d="m428.46,278.48c-.95-.99-2.02-1.89-2.83-2.98-1.32-1.77-2.5-3.65-3.68-5.52-.19-.31-.07-.82-.09-1.33,1.87.61,6.42,7.67,6.57,9.89l.04-.06Z"/>
      <path class="cls-1" d="m615.83,368.83c.3-1.09.45-2.25.93-3.24.77-1.58,1.83-3.03,2.64-4.59.22-.42.16-1.13-.02-1.61-1.15-3.08-2.37-6.14-3.19-9.49.71.94,1.64,1.78,2.09,2.83.63,1.47.89,3.1,1.35,4.65,1.06,3.59-.29,6.5-2.5,9.21-.54.66-.9,1.46-1.35,2.2l.04.04Z"/>
      <path class="cls-1" d="m4.22,368.01c-1.89-2-1.9-8.69.24-11.13-.32,3.93,1.27,7.49-.24,11.13Z"/>
      <path class="cls-1" d="m415.37,486.42c-1.27,1.1-2.53,2.22-3.84,3.28-.09.07-.74-.3-.85-.58-.42-1.04.96-4.14,1.95-4.57,1.29-.55,2.45.16,2.74,1.87Z"/>
      <path class="cls-1" d="m465.69,386.73c0,1.62.11,3.24-.04,4.84-.09,1-.65,1.8-1.95,1.39-1.19-.37-1.77-.87-.96-2.2.83-1.36,1.47-2.85,2.19-4.28.25.08.5.16.76.24Z"/>
      <path class="cls-1" d="m448.45,452.54c-1.69-1.96-1.61-4.1.24-5.16,1.12-.64,1.96-.5,2.11,1.04.24,2.47-.02,2.97-2.35,4.12Z"/>
      <path class="cls-1" d="m333.44,26c-3.47,1.79-6.63,3.42-10.22,5.26,1.51-3.18,7.26-6.08,10.22-5.26Z"/>
      <path class="cls-1" d="m178.97,82.45c-3.35,2.5-6.01,6.08-10.4,6.93-.2-.31-.39-.63-.59-.94.76-.44,1.49-1.22,2.27-1.27,3.19-.21,5.01-2.51,7.14-4.36.37-.32.76-.61,1.14-.92.15.18.3.37.44.55Z"/>
      <path class="cls-1" d="m203.9,69.64c-.51-3.66,2.1-5.34,5.97-4.07-2.06,1.4-3.87,2.63-5.97,4.07Z"/>
      <path class="cls-1" d="m482.63,338.15c.08-.66.18-1.32.24-1.98.16-1.76.22-3.54.5-5.28.1-.63.73-1.17,1.12-1.76l.95.42c-.76,2.89-1.53,5.77-2.29,8.66-.17-.02-.35-.03-.52-.05Z"/>
      <path class="cls-1" d="m271.99,166.35c-1.44-1.09-2.01-4.35-.77-5.26.38-.28,1.78.12,2.11.62.81,1.21-.02,3.59-1.34,4.65Z"/>
      <path class="cls-1" d="m291.51,30.71c-.79.91-1.44,1.99-2.38,2.71-2.55,1.95-5.22,3.75-7.92,5.49,2.23-3.58,5.75-5.41,9.37-7.12.39-.18.64-.67.94-1.03,0,0-.02-.04-.02-.04Z"/>
      <path class="cls-1" d="m247.38,259.74c2.87-2.47,5.74-4.94,8.61-7.41.19.19.38.38.57.57-2.59,2.49-5.16,4.99-7.79,7.43-.23.21-.88-.03-1.34-.06-.02-.18-.04-.36-.06-.53Z"/>
      <path class="cls-1" d="m415.07,418.47c-3.14,1.71-5.37,4.86-9.39,5.16,1.71-.93,3.47-1.79,5.1-2.84.78-.5,1.27-1.42,1.97-2.05.53-.47,1.2-.77,1.81-1.15l.51.88Z"/>
      <path class="cls-1" d="m407.74,461.8c-1.83.65-3.66,1.31-5.71,2.04.13-3.28,1.95-4.01,5.43-2.77.09.24.19.49.28.73Z"/>
      <path class="cls-1" d="m474.6,259.76c-3.63-.3-6.18-2.78-6.13-5.83,2.23,2.12,4.18,3.97,6.13,5.83Z"/>
      <path class="cls-1" d="m137.95,400.16c-.07-1.26-.31-2.55-.15-3.78.08-.65.74-1.38,1.34-1.75.33-.2,1.46.17,1.55.47.17.58-.02,1.37-.3,1.95-.55,1.13-1.27,2.18-1.92,3.26-.17-.05-.35-.11-.52-.16Z"/>
      <path class="cls-1" d="m497.98,452.82c-.49,1.66-.87,3.36-1.55,4.94-.2.45-1.25.54-1.91.8-.1-.58-.49-1.33-.26-1.72.89-1.53,1.98-2.94,2.99-4.4.24.13.49.26.73.39Z"/>
      <path class="cls-1" d="m399.18,438.09c.34,2.68-1.24,4.06-4.66,4.23-.22-1.48,1.71-3.27,4.66-4.23Z"/>
      <path class="cls-1" d="m418.26,527.49c-2,2.03-3.88,4.27-7.15,4.02,2.25-1.57,4.16-3.72,7.15-4.02Z"/>
      <path class="cls-1" d="m201.1,400.76c-.7-1.27-1.51-2.49-2.04-3.83-.19-.47.27-1.2.43-1.82.44.43,1.07.78,1.27,1.3.52,1.33.85,2.74,1.25,4.12-.3.07-.6.15-.9.22Z"/>
      <path class="cls-1" d="m632.32,307.45l-4.48,11.84c-.11-4.48,3-7.91,3.57-12.17.3.11.61.22.91.33Z"/>
      <path class="cls-1" d="m647.2,402.73c1.08-1.78,2.11-3.59,3.28-5.31.35-.52,1.1-.77,1.67-1.15.16.16.32.32.47.48-1.25,1.88-2.45,3.79-3.79,5.6-.26.34-1.09.25-1.67.35,0,0,.03.04.03.04Z"/>
      <path class="cls-1" d="m446.22,52.11c4.78-.9,9.32-.98,12.5,3.76-3.65-3.13-8.06-3.65-12.56-3.82l.05.06Z"/>
      <path class="cls-1" d="m615.79,368.79c-.43,1.36-.74,2.77-1.32,4.05-1.23,2.71-1.16,5.28.44,7.81.34.54.6,1.13,1.12,2.13-3.85-2.88-3.7-10.75-.19-13.95,0,0-.04-.04-.04-.04Z"/>
      <path class="cls-1" d="m329.45,656.16c.94-.49,1.86-1.04,2.84-1.43.51-.21,1.15-.23,1.69-.13.18.03.45.86.31,1.07-.32.47-.83,1.02-1.34,1.09-1.1.16-2.24.05-3.37.05-.05-.22-.09-.43-.14-.65Z"/>
      <path class="cls-1" d="m443.92,281.75c-.83-1.84-1.66-3.69-2.49-5.53.28-.13.57-.25.85-.38.8,1.84,1.6,3.69,2.4,5.53-.25.13-.51.25-.76.38Z"/>
      <path class="cls-1" d="m69.37,347.54c-.38-1.76-.77-3.51-1.16-5.34,2.5.28,2.73,1.13,1.16,5.34Z"/>
      <path class="cls-1" d="m393.95,208.16c2.39,0,4.1,1.13,4.96,3.57-1.64-1.19-3.29-2.37-4.94-3.56,0,0-.02,0-.02,0Z"/>
      <path class="cls-1" d="m195.27,76.67c-2.52,1.56-5.03,3.12-7.55,4.68l-.15-.25c1.88-1.53,3.71-3.11,5.66-4.53.5-.36,1.37-.22,2.06-.3,0,.14-.02.28-.03.41Z"/>
      <path class="cls-1" d="m617.26,385.3c1,.67,2.35,1.13,2.88,2.07.41.73-.21,2.03-.34,2.87-.99-1.63-1.88-3.12-2.78-4.6.08-.11.16-.22.25-.34Z"/>
      <path class="cls-1" d="m136.04,140.78c.26,4.4-1.1,7.68-4.55,7.45,3.47-1.7,4.29-4.42,4.55-7.45Z"/>
      <path class="cls-1" d="m491.3,542.59c-.07.57,0,1.21-.25,1.69-.61,1.2-1.3,2.37-2.09,3.46-.26.36-.91.43-1.39.64-.13-.17-.27-.33-.4-.5,1.06-1.28,2.13-2.55,3.18-3.84.36-.44.65-.94.97-1.42,0-.01,0-.02,0-.02Z"/>
      <path class="cls-1" d="m428.42,278.54c1.53,1.05,2.68,2.36,2.65,4.48-.87-1.51-1.74-3.02-2.61-4.53,0,0-.04.06-.04.06Z"/>
      <path class="cls-1" d="m255.67,577.98c.21.69.37,1.21.69,2.28-1.6-.52-2.83-.93-4.06-1.33l.09-.48c1.04-.15,2.08-.3,3.28-.47Z"/>
      <path class="cls-1" d="m395.76,469.85c.73.36,1.03.5,1.18.58.42-.52.73-1.11,1.21-1.43.29-.2.85.01,1.29.04-.04.5.06,1.37-.14,1.45-1.06.41-2.27,1.49-3.54-.63Z"/>
      <path class="cls-1" d="m71.21,351.42c-.05-.75-.1-1.35-.15-2.03h-2.01c.62-.68,1.15-1.27,1.71-1.9.66.69,1.35,1.41,1.81,1.9-.45.67-.84,1.25-1.37,2.04Z"/>
      <path class="cls-1" d="m391.05,443.57c-1.06,1.72-2.36,2.89-4.91,2.28,1.89-.88,3.4-1.58,4.91-2.28Z"/>
      <path class="cls-1" d="m446.17,52.05c-.37.27-.73.77-1.12.78-1.78.08-3.58.04-5.37-.08,2.18-.21,4.37-.42,6.55-.64,0,0-.05-.07-.05-.07Z"/>
      <path class="cls-1" d="m301.75,666.13c1.01.14,1.85.25,3.29.45-1.59.26-2.58.41-4.02.65.36-1.84.65-3.39.95-4.94.17.03.34.06.5.09-.24,1.21-.47,2.42-.74,3.76Z"/>
      <path class="cls-1" d="m264.37,524.28c-2.81,1.31-5.04.94-7.21-.41-3.19-1.99-6.36-4.02-9.59-5.95-4.57-2.72-9.19-5.36-13.77-8.05-4.43-2.6-9.05-4.93-13.18-7.93-2.84-2.07-4.98-5.1-7.48-7.66-.39-.39-1.02-.71-1.57-.76-2.43-.21-2.71-.72-3.02-3.16-.32-2.51-.94-5.03-1.77-7.43-2.22-6.38-2.81-13.01-3.3-19.65-.08-1.15-.5-3.07,1.77-3,1.57.05,2.19,1.26,1.92,3.47-.84,7.01,1.3,13.35,4.53,19.4,1.13,2.11,3.11,3.92,3.7,6.13.67,2.52,2.53,3.45,4.13,4.89,3.35,3,6.26,6.82,10.12,8.85,2.95,1.55,5.07,4.21,8.35,5.25,2.35.75,4.41,2.4,6.6,3.65.53.3,1.04.78,1.61.87,2.01.32,3.23,1.64,4.67,2.91,1.8,1.57,4.11,2.55,6.16,3.85,2.33,1.46,4.63,2.99,7.32,4.74Z"/>
      <path class="cls-1" d="m273.37,394.86c.96-.19,1.37-.39,1.71-.31,1.14.27,2.46.36,3.33,1.02,3.86,2.92,8.14,5.16,12.33,7.52,2.01,1.14,4.24,1.9,6.42,2.7,8.98,3.3,18.36,3.95,27.8,4.19,2.47.06,4.95.18,7.41.44.69.07,1.33.73,1.99,1.11-.57.46-1.13,1.29-1.72,1.31-3.42.11-6.87.24-10.28-.03-4.22-.34-8.41-1.07-12.61-1.64-2.95-.4-5.92-.73-8.84-1.28-1.87-.35-3.68-1.02-5.51-1.6-5.63-1.78-11.01-4.05-15.6-7.91-1.41-1.19-3.02-2.13-4.46-3.29-.67-.53-1.14-1.3-1.96-2.26Z"/>
      <path class="cls-1" d="m271.03,441.7c.99.27,1.98.57,2.97.82.52.13,1.07.15,1.59.3,1.35.4,2.7.83,4.04,1.27,1.54.51,3.04,1.18,4.62,1.56,3.29.79,6.64,1.36,9.93,2.18,2.27.57,4.43,1.54,6.7,2.13,3.56.92,7.14,1.77,10.74,2.45,4.78.9,9.6,1.66,14.41,2.39,1.75.27,3.54.35,5.32.43,2.38.1,2.6.34,2.1,3.08-3.86-1.05-8.03.01-11.75-2.51-1.39-.94-3.54-.77-5.34-1.1-3.63-.68-7.3-1.21-10.88-2.08-2.99-.72-5.89-1.84-8.84-2.76-.72-.22-1.45-.42-2.19-.54-1.92-.31-3.73-.74-5.61-1.46-3.31-1.26-6.96-1.72-10.51-2.26-2.85-.43-5.25-1.63-7.56-3.14.09-.25.17-.51.26-.76Z"/>
      <path class="cls-1" d="m334.53,403.67c-5.34,2.11-19.87-3.63-22.46-8.58,1.58-.91,2.99-.25,4.38.42,2.8,1.34,5.5,2.92,8.39,4.02,2.64,1,5.49,1.41,8.19,2.26.58.18.93,1.13,1.5,1.88Z"/>
      <path class="cls-1" d="m308.35,428.31c6.56,1.2,13.13,2.39,19.69,3.59.06.16.11.33.17.49-.79.23-1.6.7-2.37.66-2.28-.13-4.59-.27-6.8-.77-3.46-.79-6.86-1.87-10.27-2.85-.22-.06-.37-.36-.55-.55.04-.18.09-.37.13-.55Z"/>
      <path class="cls-1" d="m271.53,403.06c1.28,3.17,2.99,5.92,6.02,7.67,2.69,1.55,4.38,4.74,7.94,4.91-3.51.38-6.05-1.74-8.72-3.45-.95-.61-1.88-1.38-2.55-2.28-1.24-1.67-2.3-3.48-3.37-5.27-.21-.34-.09-.88-.12-1.33.26-.08.53-.17.79-.25Z"/>
      <path class="cls-1" d="m270.37,387.41c1.34,1.49,2.68,2.98,4.05,4.5-.44,1.66-1.51,1.41-2.68.98-1.82-.67-2.38-2.15-1.37-5.48Z"/>
      <path class="cls-1" d="m268.5,530.5c-3.58-.5-5.42-2-5.52-4.48,1.5.31,3.09.28,4.19,1,.75.48.82,2.01,1.33,3.48Z"/>
      <path class="cls-1" d="m275.89,517.72c.98.99,1.8,1.77,2.52,2.63.06.07-.54.71-.84,1.08-.84-.79-1.7-1.55-2.47-2.4-.08-.09.4-.69.78-1.3Z"/>
      <path class="cls-1" d="m306.83,329.6c.06.78.27,1.59.12,2.33-.09.42-.76.73-1.16,1.08-.21-.52-.67-1.09-.58-1.55.13-.69.65-1.3,1.01-1.94.2.03.41.05.61.08Z"/>
      <path class="cls-1" d="m323.81,330.32c.68-.26,1.36-.52,2.33-.9.09.75.15,1.28.25,2.15-1.06-.27-1.81-.47-2.56-.66,0-.2-.01-.39-.02-.59Z"/>
    </g>
  </g>
</svg>