<?xml version="1.0" encoding="UTF-8"?>
<svg id="Layer_2" data-name="Layer 2" xmlns="http://www.w3.org/2000/svg" viewBox="0 0 479 664.3">
  <defs>
    <style>
      .cls-1 {
        fill: #5df45a;
      }

      .cls-2 {
        opacity: .46;
      }
    </style>
  </defs>
  <g id="images">
    <g class="cls-2">
      <path class="cls-1" d="m82.58,401.2c-2.34-.31-4.68-.6-7-.97-.51-.08-1.17-.37-1.42-.78-.97-1.59-1.8-3.26-2.69-4.9-3.81,2.14-4.86,1.96-8.07-1.04-2.86,1.5-5.64,3.03-8.49,4.38-.78.37-2.06.62-2.67.23-2.81-1.79-5.13-.19-7.63.68-1.28.45-2.66.62-4,.83-.6.09-1.27-.18-1.84-.04-3.2.77-4.23.14-4.93-3.39-3.7,3.71-6.53,1.07-9.23-1.3-1.07-.94-1.91-1.11-3.21-.79-1.41.35-2.92.54-4.37.47-.84-.04-2.3-.64-2.35-1.11-.1-.99.24-2.62.93-2.98,1.88-1,1.39-2.32,1.2-4.09-1.01.46-1.8.83-2.6,1.2-5.11,2.34-5.48,1.17-6.32-3.1-.96.39-1.92.79-2.89,1.18-1.89.77-3.53.58-4.57-1.35-.96-1.8-.3-4.01,1.49-5.15.83-.52,1.81-1.34,2.62-1.25,3.58.43,4.34-2.8,6.36-4.42,2.26-1.82,4.74-3.46,7.37-4.68,1.41-.65,2.86.45,3.25,2.18.55,2.43,1.44,2.71,3.35,1.01.73-.66,1.39-1.59,2.25-1.87.84-.28,2.29-.23,2.77.3.5.56.38,1.92.14,2.83-.21.82-.95,1.5-1.45,2.23.98,2.29,2.09,4.17,5.18,3.73.93-.13,1.99,1.19,3.05,1.31,2.09.24,4.11,1,6.32-.58,1.62-1.16,3.83-.42,5.3,1.33.77.92,1.53,1.19,2.94,1.02,1.44-.17,3.04.97,4.36,1.46,1.72-.69,3.67-1.42,5.57-2.27.62-.27,1.23-.77,1.6-1.33,1.2-1.76,2.21-3.66,3.49-5.36.26-.35,1.65-.36,2.05,0,2.63,2.37,3.1,2.66,4.97.11,1.3-1.78,2.63-2.23,4.47-1.96,2.27.32,3.08-1.54,4.14-2.79,6.71-7.94,10.37-17.29,11.89-27.44,1.08-7.21,4.36-13.64,6.53-20.46.97-3.03,2.05-6.03,3.22-8.98.63-1.59,3.39-2.3,4.79-1.33.43.3,1.03,1.19.93,1.31-1.39,1.76.58,3.35.03,5.14.82.14,1.52.26,2.52.43-.07.91.09,1.94-.25,2.77-.61,1.5-1.44,2.92-2.3,4.3-4.47,7.2-6.62,15.07-6.87,23.49-.09,2.93-.11,5.87.07,8.8.04.7.86,1.66,1.55,1.94,1.21.5,2.58.61,3.9.8,3.57.53,3.99,1.13,3.27,4.78-.03.13.1.28.02.08,3.95-.41,7.78-.83,11.61-1.19.64-.06,1.4,0,1.94.31,1.54.86,2.23.42,2.64-1.22.37-1.5,5.65-4.48,7.06-4.07.32.09.8.64.74.81-.19.55-.62,1.47-.93,1.46-2.58-.1-3.53,1.66-4.69,3.5-1.47,2.33-4.14,2.05-6.48,2.25-3.22.26-6.48.18-9.68.6-3.07.41-4.72,5.75-2.59,8.01.31.33,1,.3,1.53.41,2.3.5,4.61.97,6.91,1.49.4.09.86.54,1.13.43,3.84-1.55,8.82-.15,11.58-4.55.74-1.18,1.68-2.35,2.79-3.15,1.22-.88,2.71-1.47,4.16-1.92,7.6-2.39,15.21-4.34,22.04-9.03,5.99-4.11,12.38-8.73,19.97-8.91,7.3-.17,13.42-3.4,20.03-5.45,2.32-.72,4.87-.91,7.31-.94,2.86-.03,5.27-.92,7.69-2.37,7.23-4.37,13.56-9.83,19.64-15.65,2.73-2.62,5.9-4.77,8.75-7.27.96-.84,1.43-2.21,2.31-3.17,2.12-2.3,4.34-4.5,6.53-6.73,3.54-3.61,6.66-7.83,10.73-10.68,5.73-4.01,8.11-10.49,12.78-15.24,2.15-2.19,3.17-5.48,3.61-8.97.8-6.23,2.69-12.19,7.53-16.85,3.5-3.37,6.94-6.95,9.66-10.94,1.53-2.24,1.85-5.48,2.14-8.33.24-2.36.92-4.21,2.46-5.98.66-.76.99-2.2.82-3.22-.4-2.44-.23-4.53,1.63-6.39,2.32-2.3,4.49-4.76,6.75-7.11,2.05-2.14,1.77-4.09-.84-5.63-1.74-1.02-1.72-3.64-.23-5.7,1.44-1.99,2.9-4.06,3.81-6.31.93-2.28,1.25-4.82,1.7-7.27.08-.47-.43-1.14-.83-1.58-2.16-2.36-2.28-3.85-.17-6.27,1.03-1.18,1.02-1.84.37-3.5-1.68-4.34-3.19-8.82-1.69-13.79.78-2.6.54-5.58.42-8.37-.12-2.7.44-4.75,3.02-5.29v-10.96c-1.17.61-1.98,1.22-2.89,1.47-.85.24-2.43.4-2.59.07-.52-1.09-1.02-2.58-.67-3.63.82-2.44,2.43-4.62,3.15-7.07.49-1.66.34-3.7-.13-5.4-.78-2.77-.55-5.17,1.76-7.77-1.13.14-1.72.11-2.25.29-1.68.57-2.97.21-4.2-1.15-1.76-1.94-2.86-1.86-4.8.01-.36.35-.64.91-1.06,1.03-.78.23-1.63.2-2.45.28.02-.88-.29-1.99.13-2.61,1.55-2.31,3.34-4.47,5.34-7.06-3.27-1.18-4.86-3.21-3.85-6.24.52-1.58,1.59-3.1,2.76-4.31,2.25-2.33,1.85-5.39-1.13-6.44-2.31-.82-3.53-2.19-4.15-4.73-.5-2.04-2.26-3.77-3.14-5.14-2.23,0-4.13.54-5.24-.16-1.07-.67-1.33-2.64-1.89-3.91-1.88.47-3.6,1.08-5.38,1.29-2.19.26-3.16-.78-2.82-2.93.33-2.05.44-3.58-2.12-4.44-1.9-.64-1.98-4.41-.46-6.98,1.64-2.76.76-5.59-2.15-7.02-.52-.25-1.16-.48-1.46-.91-.97-1.41-2.13-1.17-3.49-.73-2.21.71-3.29-.22-3.17-2.53.06-1.21.01-2.43.01-3.82-2.18.52-3.96.28-4.95-1.84-.09-.2-.36-.34-.57-.47-1.25-.73-3.12-1.18-3.59-2.25-.48-1.08.49-2.76.71-4.2.22-1.42-.02-2.65-1.68-3.15-.62-.19-1.39-.48-1.69-.97-1.01-1.66-2.4-2.05-4.21-1.84-.59.07-1.3-.21-1.85-.52-.76-.42-1.69-1.61-2.08-1.43-1.46.66-2.75,1.7-4.03,2.69-.35.27-.31,1.06-.66,1.28-.7.45-1.54.69-2.32,1.01-.3-.76-.73-1.51-.85-2.3-.09-.58.21-1.23.31-1.7-2.38,0-4.62.11-6.83-.06-.77-.06-1.94-.7-2.1-1.3-.2-.76.35-1.78.75-2.61.37-.76.96-1.4,1.45-2.1-.15-.3-.3-.59-.45-.89-1.63.48-3.32.84-4.89,1.47-2.91,1.17-5.68,2.7-9.03,2.17-2.45-.38-3.2-1.43-2.29-3.71.12-.31.37-.6.4-.91.14-1.47.22-2.94.33-4.41-1.68.09-3.37.13-5.04.32-.41.05-.71.73-1.15.9-.56.23-1.52.53-1.76.28-.41-.44-.57-1.29-.51-1.93.06-.68.5-1.34.71-1.83-1.91-.98-3.58-2.44-5.34-2.55-1.8-.12-3.86.78-5.5,1.76-2.11,1.26-4.16,1.25-6.46,1.07-2.58-.2-3.29-1.52-3.04-3.8.21-1.94.42-3.89-2.1-5.19-1.08.97-2.33,2.14-3.63,3.25-2.12,1.83-3.3,1.66-4.77-.62-.04-.07-.07-.15-.12-.22-3.04-4.47-4.11-4.5-7.57-.21-2.01,2.49-3.99,2.81-5.9,1.36-3.25,1.36-6.2,2.66-9.21,3.77-.45.17-1.26-.5-1.85-.86-1.06-.65-2.08-1.37-3.52-2.33-1.52,1.69-2.96,3.61-4.73,5.16-1.68,1.48-3.69,2.57-5.56,3.83-.22-.19-.43-.37-.65-.56.46-1.4.93-2.8,1.36-4.11-3.83-2.39-7.12-1.32-10.71.56-4.91,2.57-10.16,4.49-15.23,6.77-.87.39-1.53,1.25-2.38,1.71-1.54.85-3.2,1.5-4.73,2.37-.93.53-2.01,1.15-2.49,2.02-.99,1.78-2.19,2.68-4.3,2.76-.99.04-1.94.99-2.91,1.53-2.71,1.5-5.34,3.17-8.16,4.43-2.07.92-3.8.15-4.69-2.23,0,.53-.09,1.08.02,1.59.45,2.15-.4,3.81-2.07,5-8.49,6.05-15.52,13.65-22.63,21.17-.23.24-.49.46-.67.74-1.53,2.36-3.2,4.47-6.82,3.9,2.64,4.57-.63,6.79-3.02,9.41-2.54,2.78-4.99,5.66-7.46,8.51-.91,1.05-.82,1.93.27,2.95,1.82,1.69,1.36,2.32-.55,3.92-2.79,2.33-6.83,3.49-7.79,7.67-.43,1.88-.53,3.86-1.19,5.65-1.17,3.16-2.72,6.18-3.97,9.31-.32.8-.1,1.8-.15,2.71-.15,2.98-1.8,4.98-4.62,6.03-.58.21-1.2,1.24-1.21,1.89-.04,2.29.68,4.71.16,6.85-.52,2.13-2.2,3.97-3.31,5.97-.34.62-.75,1.36-.69,2.01.36,3.68-.79,4.94-4.6,4.76-.1-1.86-.36-3.74-.21-5.59.07-.85.83-1.77,1.51-2.4,1.16-1.07,1.66-2.01.99-3.68-.33-.82.08-2.31.69-3.06,1.57-1.92,3.21-3.6,1.85-6.4-.24-.48.38-1.55.84-2.17,1.69-2.31,3.67-4.28,3.05-7.74-.23-1.29,1.76-2.9,2.53-4.47.63-1.27.9-2.71,1.44-4.04,1.13-2.78,2.18-5.61,3.58-8.25.45-.85,1.92-1.17,3.15-1.86-.58-2.81-.35-5.64,1.79-7.97.77-.83,1.66-1.56,2.51-2.31.48-.43,1.17-.72,1.47-1.25,2.39-4.2,4.61-8.49,7.11-12.62.83-1.37,2.29-2.36,3.84-3.88-.17-1.72,1.11-3.17,2.87-4.68,2.31-1.98,4.16-4.48,6.28-6.69,2.12-2.21,4.35-4.32,6.51-6.49,2.86-2.86,5.63-5.82,8.59-8.57,1.56-1.46,3.49-2.52,5.16-3.87.93-.75,1.63-1.76,2.52-2.57.5-.45,1.16-.74,1.77-1.07.3-.16.81-.17.93-.41,1.82-3.57,5.48-5.08,8.38-7.42,1.01-.81,2.64-.8,3.91-1.35,2.23-.95,4.67-1.7,6.54-3.15,2.29-1.78,4.1-3.97,7.45-3.92,1.02.02,2.35-1.22,3.02-2.23,1.69-2.54,3.85-3.56,6.88-3.68,1.65-.06,3.45-.91,4.83-1.9,2.63-1.88,5.2-3.46,8.61-3.4,2.26.04,4.2-.75,5.87-2.63,2.33-2.62,5.84-3.14,9.12-3.31,3.68-.19,7.53-.55,10.72,2.15.39.33,1.11.28,1.27.31.72,1.32,1.31,2.4,1.86,3.42,2.18-.64,2.47-1.74,2.15-3.53-.25-1.38.08-2.96.5-4.34.18-.6,1.24-.94,1.9-1.4.18.14.36.28.55.42-.19,1.01-.39,2.02-.59,3.05,2.83,1.54,5.7,1.07,7.82-.94,1.03-.98,2.54-2.06,3.82-2.05,3.24.05,6.46.8,9.71,1.04,1.19.09,2.73-.11,3.58-.82,2.25-1.86,4.43-2.77,7.45-2.05,2.6.62,3.59,1.79,2.51,4.33-.41.98-1.03,1.87-1.55,2.78,1.98,2.1,3.99,1.89,7.33-.47,3.31-2.35,4.06-2.35,6.63.67.31.36,1.37.48,1.83.23,3.61-1.93,3.93-1.84,5.22,1.91.16.03.33.12.48.08,1.66-.39,3.33-2.16,4.98-.18,1.56,1.87,1.65,5.8.52,7.91-.51.96-.68,2.11-1,3.17,1.09-.11,2.22-.08,3.25-.37,2.52-.71,5.05-1.47,7.49-2.42,2.04-.8,3.94-1.98,5.95-2.86,1.1-.48,2.32-.7,3.49-1.04.12.75.6,1.78.29,2.19-.83,1.07-2.14,2.73-3.04,2.6-1.82-.26-2.2.59-2.67,1.79-.15.39-.15.89-.4,1.17-1.63,1.8-.94,3.23.79,4.3,1.92,1.19,2.9-.46,3.86-1.65.67-.82.91-2.02,1.64-2.75.94-.95,2.14-1.67,3.3-2.38.83-.51,1.79-.8,2.67-1.23.91-.44,1.79-.94,2.69-1.41.22.97.44,1.93.7,3.08,2.22.31,4.55.85,3.14,4.28-.08.18.01.57.16.69,1.91,1.56,3.86,3.06,5.77,4.62,1.03.84,2.12,1.65,2.95,2.67,1.48,1.82,2.78,3.78,4.26,5.84,1.21-.45,2.58-1,3.98-1.46,3.48-1.14,4.84.02,4.35,3.69-.03.24.04.49.1,1.13.97-.26,1.85-.5,2.73-.72,1.83-.46,2.83.15,3.11,2.12.1.74.56,1.7,1.16,2.06,1.58.95,1.68,2.09.99,3.58-.73,1.57-1.34,3.22-2.17,4.73-.94,1.72-1.23,3.32-.37,5.21.36.79.06,1.93-.11,2.88-.15.88-.52,1.72-.59,1.93,1.93,1.88,3.55,3.45,5.16,5.01.12.11.28.24.42.25,2.95.18,3.97,1.99,3.58,5.34,1.79-1.11,3.02-1.85,4.23-2.62,3.05-1.94,4.33-1.47,5.38,1.85.16.5.89,1.15,1.37,1.16,2.48.06,2.76,1.64,2.3,3.42-.63,2.43-1,4.27,2.45,4.76,1.64.23,1.82,2.08,1.65,3.71-.25,2.37-.35,4.75-.49,7.13-.07,1.19.38,1.74,1.74,1.8,3.86.17,4.93,1.98,3.01,5.47-1.06,1.92-1.4,2.98.11,5.1,1.59,2.24,1.84,5.45,2.65,8.24.14.47.09.99.16,1.48.27,1.9.53,3.79.82,5.68.09.56.23,1.11.35,1.67.22,1.03.71,2.09.6,3.09-.35,3.19-1.01,6.36.24,8.91.43-.71.95-2.04,1.89-2.93.5-.47,1.92-.5,2.56-.12.5.3.87,1.75.58,2.31-.88,1.69-.66,2.74.73,4.1,1.28,1.25,1.49,2.78.34,4.79-1.56,2.74-2.68,5.91-3.13,9.03-.26,1.77,1.29,3.75,1.82,5.7.43,1.61.66,3.3.78,4.97.1,1.39,0,2.82-.2,4.2-.22,1.43-.79,2.81-.99,4.24-.17,1.19-.02,2.42-.02,3.63,0,.73,0,1.45,0,2.57.46.7,1.32,1.87,2.01,3.13,1.13,2.03-1.03,2.84-1.79,4.09-.64,1.05-1.87,1.73-3.23,2.91-.39-1.35-.73-2.56-1.08-3.77-.14.02-.29.03-.43.05.13,2.25.5,4.52.32,6.74-.18,2.26-.76,4.51-1.41,6.69-.48,1.61-.51,2.87.44,4.42,1.75,2.86,1.05,5.83-.6,8.55-.85,1.4-1.95,2.63-2.87,3.99-.87,1.28-1.67,2.62-2.5,3.94,2.65,2.22,2.6,2.77,1.23,6.1-1.12,2.7-2.06,5.54-2.55,8.41-.71,4.21-2.81,7.43-5.44,10.69-4.28,5.3-7.29,11.26-7.74,18.35-.18,2.79-1.09,5.6-2.06,8.26-1.65,4.56-4.92,8.1-8.03,11.71-.5.58-1.39.8-2.03,1.28-1.64,1.21-3.88,2.13-4.74,3.77-2.24,4.27-5.99,7.05-9.11,10.45-2.6,2.83-5.5,5.39-6.46,9.35-.13.52-.65.95-1,1.42-2.15,2.81-4.02,5.91-6.53,8.35-2.49,2.43-5.52,4.37-8.51,6.21-5.12,3.15-9.94,6.64-14.5,10.56-4.3,3.7-8.89,7.05-13.23,10.69-3.27,2.74-6.32,5.74-9.52,8.57-1.66,1.46-3.76,2.55-5.08,4.25-3.38,4.38-7.58,7.27-12.73,9.29-3.08,1.21-5.62,3.71-8.54,5.41-3.48,2.03-6.94,4.23-10.69,5.59-4.21,1.52-8.68,2.52-13.12,3.11-3.71.49-6.26,2.89-9.38,4.34-1.63.76-3.3,1.46-5,2.08-3.63,1.34-7.29,2.61-10.93,3.91-.23.08-.45.22-.63.38-3.61,3.18-3.59,3.17-6.21-.34-.29-.39-1.05-.83-1.42-.71-1.9.63-4.29-.02-5.45,2.63-.43.97-2.28,1.52-3.58,1.85-1.34.34-2.82.11-4.22.27-.83.09-1.63.44-2.44.68.38.96.75,1.92,1.14,2.88.03.06.14.08.2.14,4.8,4.33,5.24,4.32,11.48.94,1.7-.92,3.41-2.47,5.6-1.19.39,1.6-.18,2.19-1.78,2.55-2.92.64-5.75,1.65-9.38,2.74,2.05,1.79,3.63,3.21,5.25,4.58,1.62,1.37,3.55,2.4,3.97,4.83.08.45,1.24.97,1.92,1,2.54.12,3.9,1.54,4.33,3.84.4,2.08,1.45,3.33,3.28,4.5,1.53.98,2.98,2.62,2.97,4.9,0,.84.36,1.69.6,2.7h-4.97c-.1,2.2-.2,4.25-.32,6.81,1.05-.21,2.48-.4,3.87-.78,1.35-.37,2.97-1.64,3.89-1.22,1.67.75,3.05,2.38,2.19,4.7-.1.26.08.62.12.89-.89.37-1.67.69-2.57,1.05-.93-1.41-4.83-3.17-6.45-2.67-.36.11-.86.41-.92.69-.27,1.34-.74,2.13-2.32,1.59-1.42-.48-2.74-1.01-2.31-2.85.88-3.82-1.45-5.97-4.05-7.86-3.19.88-6.46,1.83-9.76,2.64-.47.12-1.59-.45-1.61-.74-.13-2.43-.07-4.88-.07-7.56-2.56-4.38-5.32-9.11-7.9-13.54-1.31.4-2.14.64-2.96.89-.26-1.02-.95-2.17-.71-3.05.94-3.43-2.36-3.31-3.47-4.98-.23.06-.47.12-.7.18,0,1.66-.05,3.32.02,4.98.05,1.16.62,2.42.3,3.43-.37,1.18-1.3,2.77-2.29,3.03-1.32.34-3.18-.06-4.31-.86-.66-.47-.48-2.33-.42-3.55.03-.78.66-1.53.77-2.33.5-3.87-.43-4.66-3.97-3.34-2.56.95-4.89,1.26-7.09-.92-.59-.58-1.83-.48-2.77-.71-.84-.2-1.69-.37-2.49-.67-.67-.25-1.28-.66-1.92-1l.05.05ZM199.47,7.15c-1.02,1.37-1.87,2.28-2.39,3.35-.14.28.7,1.04,1.08,1.58,1.13-.96,2.25-1.92,3.38-2.89-.5-.5-1.01-.99-2.07-2.05Z"/>
      <path class="cls-1" d="m466.96,348.15c-1.98.84-2.9,1.86-2.5,4.51.36,2.39-.9,4.77-2.58,7.06-2.16,2.94-3.15,6.76-4.54,10.24-.82,2.05-1.44,4.19-2.15,6.29-.26-.06-.51-.12-.77-.18-.1-1.25-.2-2.49-.36-4.48-3.13,4.33-5.85,8.08-8.72,12.04-1.42-2.77-.4-6.81,1.99-8.17,1.4-.8,1.38-1.73,1.45-3.04.05-1.12.36-2.47,1.07-3.25,1.2-1.32,2.12-2.41,2.73-4.33,1.26-3.89-.85-7.17-.77-10.75.03-1.48-.41-3.18.18-4.39,1.27-2.59,2.17-5.4,4.79-7.34.91-.67.3-3.33.47-5.07.12-1.21.35-2.4.58-3.59.09-.48.56-1.01.44-1.39-1.58-5.08,2.27-8.09,4.53-11.6,1.1-1.71,1.91-3.65,4.25-4.72,1.31-.6,1.59-3.59,2.16-5.55.09-.29-.7-1.16-1.17-1.24-1.63-.26-3.31-.19-4.93-.45-1.03-.17-2.38-.43-2.9-1.15-.43-.61-.15-2.09.31-2.9.76-1.33,1.92-2.44,2.94-3.68-2.12-.7-2.4-2.25-2.03-4.01.18-.87.64-1.69.98-2.52.95-2.27.53-2.73-1.82-2.93-.9-.08-2.08-.97-2.46-1.8-.33-.71-.02-2.34.57-2.74,2.09-1.41,2.25-3.32,2.04-5.46-.22-2.27.76-3.79,2.89-4.5,1.82-.61,2.31-2.1,2.28-3.69,0-.58-.94-1.53-1.58-1.65-3.84-.71-4.84-2.64-2.96-6.02.35-.64.54-1.37.92-2.38-3.54-.41-6-1.8-4.96-5.85-1.98-.65-3.91-1.14-3.72-3.69.02-.28-.22-.79-.42-.84-4.19-1.04-1.54-3.82-1.55-6.09-2.35-1.24-2.57-3.47-2.42-5.92.11-1.78.27-3.43-2.51-3.67-1.71-.15-3.14-1.9-5.3-1.25-.46.14-1.39-1.3-2.11-2.02.54-.52,1.03-1.41,1.63-1.49,3.18-.41,6.4-2.03,9.57.29.54.4,1.67-.03,2.52-.04,1.22-.02,2.44,0,3.67,0,.06.3.13.59.19.89-.66.89-1.33,1.78-2.07,2.77,1.15,1.22,1.73,3,4.15,2.99,1.47,0,1.9,2.34.95,3.65-.3.43-.59,1.36-.38,1.57,1.28,1.33,2.67,2.56,4.11,3.74,1.36,1.12,2.33,2.39,1.88,4.23-.31,1.27.2,1.43,1.3,1.9,1.28.54,2.31,1.84,3.22,2.98.29.36,0,1.37-.29,1.94-.45.87-1.27,1.56-1.69,2.44-.68,1.44-.59,2.62,1.25,3.3,3.8,1.41,4.52,4.2,1.99,7.47-.72.94-1.8,1.63-2.4,2.62-.45.75-.69,1.89-.46,2.68.14.48,1.4.94,2.12.89,2.37-.16,4.11,1.66,3.39,4.02-.77,2.52-1.17,4.8-.42,7.56.51,1.89-.8,4.3-1.37,6.46-.18.69-.58,1.33-1.05,2.38,1.63.48,3.1.87,4.53,1.35,3.78,1.27,4.25,3.31,1.77,6.37-1.21,1.49-2.9,2.74-2.24,5.38.26,1.02-1.36,2.97-2.59,3.8-2.08,1.41-2.5,3.18-1.55,5.06,2.16,4.27.64,8.65.36,12.87-.12,1.75-1.3,4.33-3.34,5.71-.23.15-.35.57-.38.88-.26,2.41-.5,4.83-.76,7.47Z"/>
      <path class="cls-1" d="m404.03,189.94c-1.1,2.78-3.26,2.94-5.03,2.22-1.6-.65-2.79-2.31-3.68-3.1.96-2.01,1.7-3.58,2.54-5.34-.84-.63-1.68-1.27-2.53-1.91.02.27.04.55.05.82-1.2.31-2.4.63-4.11,1.08.49-3.21.9-5.82,1.29-8.44.1-.65.28-1.3.25-1.95-.11-2.15.04-3.34,2.93-3.93,1.9-.39,3.84-1.74,5.55-.53,1.79,1.26,3.9,2.61,5.06,4.2,1.14,1.56.75,4.42.59,6.68-.16,2.21.22,2.85,2.34,2.11,1.83-.64,2.79,0,4.19,1.32,2.2,2.08,5.01,3.5,7.77,5.34-2.33,2.23.5,3.91,1.31,5.99.22-.08.51-.1.65-.26,2.52-2.88,5.78-2.36,8.98-1.92.66.09,1.62.5,1.8.99.26.72.12,1.73-.18,2.48-1.28,3.21-2.72,6.36-4.02,9.56-.22.54-.11,1.25-.05,1.87.18,2.08,0,3.89-1.89,5.37-1.78,1.39-3.3,1.62-5.03.36.35-1.38.72-2.6.96-3.85.39-2.01.81-4.02.98-6.06.11-1.37-.21-2.78-.34-4.17-1.59.43-3.19.8-4.75,1.32-.64.21-1.12.9-1.76,1.1-4.04,1.27-4.62.83-4.65-3.37-.02-3.44-1.96-4.86-5.35-4.3-.84.14-1.98-.73-2.78-1.38-.49-.39-.61-1.25-1.08-2.32Z"/>
      <path class="cls-1" d="m348.5,650.34c-.1.63-.21,1.33-.36,2.25-4.18-.47-7.04,1.01-8.09,5.37-2.21.34-4.51.62-6.77,1.1-.6.12-1.09.83-1.59,1.3-.98.94-1.7.76-2.32-.41-.42-.79-.95-1.52-1.43-2.28-.19.09-.37.19-.56.28v-2.24c2.43-1.84,4.71-3.56,7.34-5.55.04-.4.14-1.43.24-2.58,3.05-.39,1.66,5.04,5.3,3.77.11-.77.23-1.57.38-2.65,2.3-.72,5.2-.89,6.98-2.39,2.03-1.71,4.18-1.89,6.58-2.34-.3-2.36,1.22-2.51,2.94-2.48,2.08.04,4.17-.13,6.24.04,2.92.24,5.09-.57,7.44-2.6,1.61-1.39,3.98-2.92,6.92-2.4,1.45.25,4.36.97,4.22-2.37,4.02-.45,4.2-.38,4.16,1.94-3.53-1.15-4.05,2-5.49,3.89-.29.39-.34,1.09-.7,1.28-2.86,1.48-5.7,2.99-8.67,4.22-1.53.64-3.31.67-4.96,1.06-1.36.32-3.12.19-3.07,2.39,0,.27-.26.62-.5.81-2.17,1.77-6.32,1.7-8.96.06-.62-.39-1.62-.3-2.42-.22-.85.09-1.68.43-2.85.75Z"/>
      <path class="cls-1" d="m299.22,662h6.36c-2.79,1.65-4.92,2.03-6.54.93-.94-.64-1.31-2.06-2.13-2.97-.43-.48-1.78-.93-1.84-.83-2.04,3.2-5.34,3.31-8.56,3.67-.31.03-.57.42-.94.71-.76-1.65-1.51-3.06-2.04-4.55-.16-.46.09-1.33.47-1.65.32-.28,1.16-.2,1.63.01.6.27,1.07.83,1.89,1.14-.04-2.08,1.83-4.35-1.1-5.98-.42-.23-.29-1.44-.45-2.36h3.51c.88,2.34,1.8,4.63,3.84,6.35,1.28,1.08,2.23,1.03,3.34-.03,1-.96,1.88-1.54,3.04-.04.36.47,1.54.6,2.24.45,1.05-.24,2.02-.87,2.75-1.21.31-1.02.59-1.93.86-2.84.64.69,1.28,1.39,2.25,2.45,2.7.28,4.98-1.2,7.06-3.62.6-.7,2.29-.46,3.36-.63.7-.46,1.78-1.45,2.02-1.28,1.11.8,2.65,1.83,2.81,2.95.24,1.76.77,3.67-.78,5.59-1.02,1.26-.73,3.58-1.13,6.01-1.23,0-2.83.08-4.41-.03-1.1-.07-2.26-.25-3.26-.67-.8-.34-1.54-1.03-2.08-1.74-.5-.65-.56-1.64-1.08-2.27-.32-.38-1.56-.63-1.66-.47-2.24,3.45-5.6,1.25-8.39,1.77-.23.04-.39.41-1.04,1.14Z"/>
      <path class="cls-1" d="m90.46,421.52c-.06.31-.02.8-.2.9-3.05,1.68-3.38,4.6-.81,6.91.76.68,1.32,1.56,2.05,2.28.7.69,1.49,1.29,2.25,1.93,1.66-1.09,4.37-1.31,2.72-4.65,1.73.09,3.15.16,4.54.23,1.41-2.41-.67-2.35-1.87-3.33.9-.06,1.82-.04,2.7-.21.82-.15,1.61-.5,2.88-.91.53,1.18,1.31,2.44,1.66,3.8.86,3.38,3.6,4.52,6.58,2.62.94-.6,2-1.39,2.63.57.25-.5.45-.91.84-1.69,3.25,2.47,6.42,4.87,10.06,7.63-5.5,0-10.51,0-15.52,0-.24,0-.67-.06-.69-.16-.68-3.04-3.11-1.71-4.84-1.82-.67-.04-1.34.94-2.1,1.22-1.24.46-2.55.73-4.12,1.17.03-2.24-.97-2.65-2.64-2.46-5.41.61-5.27.02-7.59-3.68-1.32.12-2.44.22-4.14.37.16-2.09.25-3.94.46-5.76.23-2.02.74-4.1-1.59-4.41.47-1.37.91-2.65,1.32-3.93.07-.23-.07-.54.03-.74.59-1.24,1.32-3.55,1.81-3.5,2.16.22,1.01,2.19,1.06,3.39.08,1.94.69,3.32,2.56,4.01,0,0-.03.22-.03.22Z"/>
      <path class="cls-1" d="m442.12,218.32c-1.87-1.69-3.56-3.33-5.38-4.8-.65-.52-1.62-.72-2.48-.89-2.13-.42-3.22-1.44-2.59-3.75.33-1.23.45-2.53.78-3.76.66-2.43,3.06-2.56,4.85-3.13.85-.27,2.22.87,3.27,1.5,1.85,1.1,2.12,2.92,2.35,4.9.27,2.27,1.53,2.77,3.95,2.34.66-.12,1.46.58,2.19.9l-.16.85c-1.09.36-2.18.73-2.83.94-.75,1.66-1.56,3.16-2.08,4.75-.21.63.08,1.56.41,2.21.99,1.94,2.26,3.74,3.11,5.73.29.68-.12,1.99-.67,2.58-.55.58-2.04,1.12-2.49.8-1.86-1.35-4-2.74-5.06-4.66-1.02-1.85.61-4.59,2.8-6.49Z"/>
      <path class="cls-1" d="m277.81,160.81h-2.01c.2,1.91.71,3.72.49,5.44-.21,1.63-1.17,3.17-2.01,5.29-1.91-.54-4.14-.95-6.18-1.8-3.2-1.33-.05-3.94-1.3-5.9-1.62.95-3.47,2.04-5.63,3.31-.31-1.99-.82-3.52-.67-4.99.1-1,1.14-1.91,2.03-3.29.95,0,2.53.02,4.11,0,.67-.01,1.64.16,1.96-.21,1.35-1.51,3.03-2.18,4.89-2.89,2.17-.83,2.04-1.18,4.22.22-.98,1.12-2.15,2.32-.04,3.5.21.12.04.92.06,1.4,0,0,.08-.08.08-.08Z"/>
      <path class="cls-1" d="m359.73,159.09c-.44-.2-.8-.36-1.16-.52.15-.19.3-.38.44-.56,2.33,1.77,4.19,4.13,6.53,6.13.74-.51,1.46-1.21,2.32-1.54.7-.27,2.18-.31,2.27-.08,1.04,2.84,3.6,1.3,6.06,2.16-1.87,1.23-3.33,2.2-4.8,3.16-.2.13-.46.19-.64.34q-2.68,2.37-4.57-.75c-.16-.26-.46-.43-.73-.67-.91,2.09-4.84,2.46-6.05.41-1.03-1.75-3.03-1.34-4.17-2.57-.12-.13-.71.17-1.09.26-.8.19-1.6.37-2.4.56,0-1.09-.42-2.57.12-3.16.77-.84,2.35-1.56,3.41-1.36,2.04.38,3.18-.58,4.46-1.8Z"/>
      <path class="cls-1" d="m93.95,451.86c-2.25-.48-4.16-.89-6.48-1.39.11-1.17.33-2.85.4-4.54.05-1.06-.13-2.13-.19-3.2-.06-1.07-.35-2.29,1.51-1.84.22.05.56-.41.96-.73-.88-.48-1.58-.86-2.28-1.24.06-.16.12-.31.18-.47,1.94-.26,3.97-.95,5.8-.59.99.2,1.69,2.15,2.4,3.38.31.53.13,1.55.52,1.81,1.74,1.14,1.47,2.91,1.61,4.54.04.41-.25.98-.58,1.25-1.38,1.16-2.84,2.24-3.85,3.03Z"/>
      <path class="cls-1" d="m294.36,158.3c2.11-1.19,4.16-.48,5.94,1.79.82,1.05,2.11,1.72,3,2.73,1.67,1.91,4.24,3.8,4.54,5.96.38,2.76.69,6.26-2.1,8.62-.75.64-1.36,1.45-2.03,2.18-.23-.17-.45-.33-.68-.5,0-.31-.13-.78.02-.9,3.46-2.84,1.4-6.9,2.32-10.3.04-.14,0-.37-.1-.48-1.3-1.38-2.51-2.88-4-4.02-.37-.28-2.33.53-2.38.98-.2,1.78-.95,1.45-2.19,1.15-.87-.21-1.89.18-2.96.32-.28-.91-.63-1.73-.77-2.58-.66-3.9-2.15-4.65-5.84-3.46-1.12.36-2.64-.47-3.97-.76,0,0,.04.04.04.04.16-.71.32-1.43.5-2.24,2.05.14,4.03.28,6.49.45.33-.4,1.07-1.28,2.04-2.44-.25,1.56-.42,2.61-.58,3.67.94-.1,1.87-.21,2.81-.31-.22.75-.44,1.5-.69,2.34.56.13.95.32,1.33.3.63-.04,1.26-.21,1.89-.33-.38-.74-.67-1.55-1.19-2.17-.21-.24-.94-.05-1.43-.05Z"/>
      <path class="cls-1" d="m341.82,169.27c-.82-.52-2.03-.86-2.37-1.61-.75-1.6-1.77-2.18-3.24-1.39-1.36.73-.7,1.55-.09,2.7.79,1.47.82,3.32,3.2,3.14.14-.01.46.95.51,1.48.09.9.02,1.82.02,2.42-1.12.82-2.07,1.52-2.97,2.19-.23-2.29-1.44-4.63-2.55-7.09-.94-2.09-.15-4.97-.08-7.5.01-.48.5-1.02.38-1.41-1.27-4.05,1.95-3.4,4.05-3.95,1.5-.39,3.1-.61,4.45-1.3.73-.38,1.03-1.6,1.52-2.43-.81-.14-1.62-.28-2.43-.4-.2-.03-.4,0-.6,0,0-.24.01-.49.02-.73,1.09.08,2.41-.21,3.21.31,1.83,1.18,2.52,5.91,1.47,8.17-.1-1.21-.19-2.42-.29-3.64-.2-.13-.4-.27-.61-.4-2,2.61-4.59,3.3-7.6,3.13-.37-.02-1.06,1.59-1.15,2.5-.04.38,1.04,1.14,1.71,1.27,1.07.22,2.21.06,2.59.06.35,1.86.59,3.18.83,4.5Z"/>
      <path class="cls-1" d="m388.37,177.77c-.78-.6-1.31-.89-1.67-1.31-1.38-1.63-2.65-3.36-4.08-4.94-.94-1.04-2.15-1.83-3.13-2.84-1.12-1.14-.89-1.84.71-2.44,2.37-.88,4.5-.21,6.61.62.5.2.67,1.14,1.05,1.7.74,1.1,1.74,2.1,2.22,3.3.46,1.14.71,2.55.49,3.74-.15.77-1.32,1.35-2.2,2.17Z"/>
      <path class="cls-1" d="m11.07,195.77c-2.1-.91-2.23-2.06-.33-3.53.85-.65,1.59-1.5,2.52-1.97.8-.41,1.81-.41,2.73-.59.07,1.05.32,2.13.17,3.15-.23,1.56-.75,3.07-1.11,4.61-.39,1.65,1.03,1.72,1.98,2.26.56.32,1.48,1.06,1.39,1.29-.25.67-.83,1.5-1.47,1.71-2.3.74-4.68,1.25-7.35,1.93-.03-.6-.4-1.75-.06-2.02,2.36-1.9,1.34-4.49,1.52-6.84Z"/>
      <path class="cls-1" d="m272.55,655.34c4.49.46,5.54.05,6.09-2.34,1.14,0,2.31-.11,3.45.04.58.08,1.09.62,1.63.95-.51.42-.96,1.04-1.54,1.21-.75.21-1.6.05-2.4.05-.47,1.73-1.43,2.96-3.46,3.13-1.46.12-2.92.35-4.38.58-2.3.35-2.94-.22-3.09-2.58-.06-.94-.43-1.85-.65-2.78-.25-1.06-.49-2.12-.73-3.19,1.04-.13,2.09-.28,3.14-.39.32-.03.65.06,1.06.11.29,1.7.58,3.39.89,5.2Z"/>
      <path class="cls-1" d="m202.57,462.2c.2-1,.36-1.77.51-2.53.17,0,.33,0,.5.01v2.91c3.09.79,6.3,1.61,9.76,2.5-2.51,3.09-4.64,3.64-7.76,2.62-.91-.29-2.01.04-2.94-.2-1.41-.37-3.06-.69-4-1.63-.69-.68-.63-2.38-.42-3.55.07-.37,1.65-.58,2.55-.67.51-.05,1.05.29,1.8.53Z"/>
      <path class="cls-1" d="m254.91,167.54c-.18,2.68-3.58,7.25-5.81,7.7-.79.16-2.06-.21-2.52-.8-.56-.71-.88-2.03-.63-2.88.58-1.97,1.54-3.83,2.43-5.69.21-.44.86-1.08,1.17-1.01,1.72.4,3.42.95,5.08,1.57.25.09.23.89.28,1.11Z"/>
      <path class="cls-1" d="m417.54,605.62c.38,3.91-6.45,11.31-11.59,13.93-.93-3.25.89-5.38,2.91-7.4,1.21-1.22,2.41-2.48,3.78-3.5,1.54-1.14,3.26-2.03,4.9-3.03Z"/>
      <path class="cls-1" d="m298.95,153.11c1.81,0,3.62.03,5.43-.01.82-.02,1.46-.15.95-1.33-.11-.26.78-1.01,1.27-1.47.71-.68,1.98-1.24,2.08-1.98.17-1.29.82-2.9-.96-3.98-.55-.33-.67-1.6-.72-2.45-.14-2.33-.09-4.67-.21-7-.02-.43-.45-.85-.74-1.36.43-.21.91-.44,1.47-.72.14.36.27.57.29.79.16,2.06.27,4.12.47,6.17.08.81.08,1.8.54,2.36,1.75,2.15,1.36,4.65,1.5,7.1.14,2.45-.54,4.09-3.19,4.79-1.02.27-1.77,1.52-2.65,2.31-.37.33-.88.93-1.15.85-.42-.13-.89-.69-1.01-1.15-.47-1.77-1.3-2.92-3.61-2.08.08-.28.16-.56.24-.84Z"/>
      <path class="cls-1" d="m44.5,333.95c3.99.67,7.02,1.71,8.38,5.34.17.45.58.82.75,1.27.3.77.89,1.75.63,2.32-.28.62-1.46,1.31-2.1,1.19-.91-.17-2.34-.98-2.42-1.65-.3-2.7-2.09-3.32-4.23-3.79-.6-.13-1.24-.5-1.65-.95-.72-.79-1.28-1.72-1.91-2.59.98-.44,1.96-.88,2.55-1.14Z"/>
      <path class="cls-1" d="m139.4,448.78v-5.27c-1.76-.49-3.4-.96-5.05-1.42.1-.32.19-.64.29-.96,2.59.74,5.17,1.5,7.77,2.21,2.02.55,4.1.93,6.07,1.64.64.23,1.39,1.22,1.4,1.88.01.96-.14,2.24-1.99,1.67-.73-.23-1.83,1.04-2.75,1.03-1.87-.03-3.74-.47-5.74-.76Z"/>
      <path class="cls-1" d="m233.68,180.2c-1.02-.65-2.42-1.09-2.93-2.02-.38-.69.31-2.05.7-3.04.36-.9.84-1.81,1.47-2.52.82-.91,1.89-2.35,2.78-2.3,2.06.12,3.49,1.62,3.68,3.82.19,2.2-3.19,5.63-5.7,6.06Z"/>
      <path class="cls-1" d="m157.73,448.53c.76.15,1.53.29,2.42.46.41-1.01.79-2.15,1.33-3.2.25-.48,1.05-1.19,1.21-1.1.56.31,1.42,1.04,1.33,1.41-.3,1.28-.95,2.47-1.53,3.85.8.37,1.98.92,3.3,1.54-.36,2.21-.7,4.37-1.05,6.55-3.47-1.01-5.06-2.85-4.45-5.46-1.25-1.31-2.19-2.3-3.13-3.28.19-.25.38-.51.57-.76Z"/>
      <path class="cls-1" d="m214.83,465.71c1.76.03,2.28-.49,1.91-2.24-.27-1.29.27-2.79.66-4.13.1-.35,1-.71,1.47-.64.41.06.84.66,1.08,1.12.46.88.88,1.81,1.15,2.76.46,1.58.83,3.18,1.14,4.79.04.21-.49.6-.83.79-2.41,1.45-5.23.51-6.58-2.45Z"/>
      <path class="cls-1" d="m108.21,298.47c3.34,2.14,4.29,5.34,3.01,8.3-.81,1.87-3.52,2.88-6.35,2.84,1.17-3.9,2.27-7.57,3.34-11.14Z"/>
      <path class="cls-1" d="m143.43,355.67c4.43.29,7.83-2.07,11.25-4.38,2.12-1.44,4.19-2.97,6.43-4.21.63-.35,1.75.21,2.64.35.01.3.03.6.04.9-.76.4-1.49.85-2.27,1.21-2.23,1.01-3.87,3.05-5.79,4.13-3.61,2.03-7.53,5.19-12.29,2Z"/>
      <path class="cls-1" d="m433.55,394.59c2.23,1.12,2.02,2.66,1.15,4.26-.34.63-.97,1.12-1.48,1.65-2,2.06-3.95,4.19-6.06,6.12-.56.51-1.66.43-2.5.62.13-.82,0-2.19.42-2.38,3.45-1.55,4.09-5.22,6.17-7.78.72-.88,1.54-1.67,2.31-2.49Z"/>
      <path class="cls-1" d="m178.37,456.46c-4.87,2.36-5.89,2.05-6.94-2.82,1.4.17,2.7.33,4.44.54-.97-1.12-1.75-1.9-2.36-2.79-.25-.37-.31-1.07-.13-1.46.19-.4.79-.84,1.22-.85,2.13-.08,4.16,2.5,3.78,4.55-.15.81-.02,1.66-.02,2.83Z"/>
      <path class="cls-1" d="m183.61,615.18q.78,3.95,4.14,4.04c-1.12,3.07-2.8,3.77-7.57,3.05v-7.09h3.43Z"/>
      <path class="cls-1" d="m327.11,458.73c.85.44,1.25.57,1.56.81.7.53.65.42,1.65.19.55-.13,1.59.08,1.75.44.3.67.29,1.6.09,2.33-.33,1.21-.78,2.43-1.43,3.5-.41.67-1.21,1.37-1.94,1.5-.49.09-1.49-.67-1.69-1.24-.57-1.69-1.01-3.47-1.18-5.24-.06-.7.74-1.48,1.18-2.29Z"/>
      <path class="cls-1" d="m252.32,471.21c3.35.32,6.22.72,9.1.8,1.15.03,2.43-.43,3.45-1.02,1.12-.65,1.57-.6,2.06.67.14.36.88.49,1.35.72-2.49,3.47-11.9,3.35-15.96-1.17Z"/>
      <path class="cls-1" d="m10.8,244.98c.32.74.63,1.34.85,1.98.47,1.4,1.57,2.31,2.39,3.4,1.41,1.85,1.77,4.51,2.43,6.87.05.18-1.35,1.13-1.6.97-.9-.57-1.84-1.35-2.28-2.28-.33-.69.11-1.74.22-2.76-.47-.2-.97-.44-1.49-.64-2.25-.86-2.68-2.05-1.65-4.18.45-.93.67-1.96,1.14-3.37Z"/>
      <path class="cls-1" d="m136.44,571.22c3.1,1.81,2.56,4.69,2.44,7.67h-3.23c-.12-.98-.23-1.93-.35-2.99h-4.2c-.28-1.97.97-1.98,2.33-2.36,1.12-.32,2-1.5,3.02-2.32Z"/>
      <path class="cls-1" d="m283.16,159.05c-.14.71-.29,1.42-.47,2.32.56-.31,1.06-.58,1.95-1.06-.66,2.12-.83,4.22-1.9,5.63-.8,1.06-2.76,1.25-4.7,2.03.3-2.94,1.78-5.18-.22-7.16,0,0-.08.08-.08.08,1.82-.59,3.65-1.19,5.47-1.79,0,0-.05-.05-.05-.05Z"/>
      <path class="cls-1" d="m120.99,281.48c.1-2.4-.41-5.09.52-7.11.58-1.26,2.54-3.65,4.93-2.35-.69,2.56-1.2,5.01-2.05,7.33-.36.99-1.46,1.7-2.22,2.54-.39-.14-.79-.27-1.18-.41Z"/>
      <path class="cls-1" d="m423.41,410.15c-.21.45-.31.88-.56,1.17-1.29,1.5-2.46,3.16-3.99,4.37-.75.6-2.17.36-3.29.51.11-1.12-.2-2.62.41-3.29,1.41-1.55,3.22-2.76,4.96-3.96.44-.3,1.29-.23,1.85-.04.3.1.41.8.61,1.24Z"/>
      <path class="cls-1" d="m27.48,303c0-2.63-.12-5.17.06-7.69.06-.88.87-1.7,1.34-2.55.71.79,2.01,1.57,2.02,2.36.01,2.26.09,4.44.37,6.72.27,2.17-2.12,1.36-3.8,1.15Z"/>
      <path class="cls-1" d="m193.96,198.65c-.02,2.09-4.26,5.88-5.87,5.54-.61-.13-1.61-1-1.53-1.32.35-1.45.66-3.27,1.68-4.12,1.05-.88,2.89-.91,4.41-1.05.47-.05,1.02.73,1.3.95Z"/>
      <path class="cls-1" d="m165.64,349.49c-.21-.68-.63-1.45-.46-1.61,1.82-1.74,3.49-4.02,5.69-4.9,2.5-.99,5.5-.7,8.42-.98-.1.68-.08,1.1-.17,1.13-2.8.89-5.71,1.53-8.4,2.68-1.73.74-3.13,2.23-5.08,3.68Z"/>
      <path class="cls-1" d="m410.54,418.66c1.6.05,2.45,1.47,1.37,2.75-1.31,1.55-2.98,2.83-4.64,4.03-.28.2-1.77-.48-1.87-.93-.4-1.93,3.23-5.9,5.14-5.84Z"/>
      <path class="cls-1" d="m216.44,185.27c-.2-5.54,1.7-7.1,6.3-5.34-1.01,4.5-2.22,5.56-6.3,5.34Z"/>
      <path class="cls-1" d="m149.87,571.78c-.22,1.41-.44,2.81-.68,4.33,1.05-.23,1.84-.61,2.58-.51.77.1,1.47.66,2.21,1.02-.7.32-1.39.66-2.11.94-.52.21-1.06.33-1.59.5-1.01.33-2,.76-3.03.93-.33.05-1.03-.53-1.11-.92-.09-.43.28-1.35.55-1.39,1.92-.29,1.35-1.72,1.14-2.69-.56-2.51-.66-2.49,2.05-2.21Z"/>
      <path class="cls-1" d="m234.86,464.65c-2.42.75-2.97-1.13-3.61-2.95-1.03-2.92,1.84-2.83,3-4.07,2.12,2.16,3.57,4.34.61,7.02Z"/>
      <path class="cls-1" d="m298.28,461.74c2.03.66,3.92.99,5.46,1.91.61.37.71,2.11.5,3.11-.13.57-1.61,1.44-2.05,1.23-1.22-.56-2.44-1.45-3.23-2.53-.56-.76-.41-2.03-.68-3.73Z"/>
      <path class="cls-1" d="m377.7,444.96c-.23-1.03-.99-2.54-.58-3,1.33-1.5,3.07-2.66,4.74-3.81.19-.13,1.27.5,1.41.94.18.58.06,1.56-.33,1.95-.69.68-1.82.91-2.53,1.58-.72.66-1.16,1.62-1.72,2.45-.33-.04-.66-.07-.99-.11Z"/>
      <path class="cls-1" d="m108.63,417.09c2.25,2.96,2.45,4.33.84,5.39-1.1.73-3.91.35-4.5-.61-.92-1.5.59-3.52,3.66-4.78Z"/>
      <path class="cls-1" d="m392.72,434.73c-1.3,1.49-2.4,3.28-3.99,4.36-.81.55-2.48-.18-3.77-.32.54-.88.88-2.1,1.67-2.59,1.64-1.03,3.52-1.67,5.31-2.47.26.34.52.68.79,1.02Z"/>
      <path class="cls-1" d="m251.95,460.49c1.11,1.96,1.11,3.53-.68,4.85-.2.15-.43.25-.64.37-.87.5-1.74,1.01-2.61,1.51-.22-.72-.51-1.43-.64-2.17-.23-1.37-.1-2.52,1.61-3,1-.28,1.88-.98,2.96-1.57Z"/>
      <path class="cls-1" d="m369.2,449.3c-1.57,1.39-2.55,2.74-3.82,3.14-.58.18-2.09-1.35-2.56-2.38-.45-1.01,2.16-3.63,3.27-3.27.98.31,1.74,1.36,3.11,2.51Z"/>
      <path class="cls-1" d="m9.06,188.48c-.11-2.69.27-3.98,2.67-2.96.48.2,1.21-.28,1.83-.29.78,0,1.56.15,2.35.23-.48.78-.81,1.73-1.46,2.31-.91.81-2.04,1.39-3.12,2-.46.26-1.39.55-1.47.43-.46-.73-.73-1.57-.8-1.72Z"/>
      <path class="cls-1" d="m334.33,153.01c-.75-.3-1.73-.43-2.18-.99-.24-.31.54-1.32.67-2.05.4-2.24.72-4.49,1.04-6.74.08-.56.08-1.13.57-1.9.3.52.79,1.01.88,1.56.26,1.62.54,3.27.46,4.89-.04.88-.78,1.73-1.2,2.59l-.8-.2c.16.8.31,1.59.55,2.84Z"/>
      <path class="cls-1" d="m285.87,465.19c.74-.52,1.42-1.25,2.24-1.48.41-.11,1.08.68,1.63,1.06-.56.64-1.01,1.61-1.72,1.87-1.74.64-3.59,1.1-5.43,1.34-.64.09-1.39-.67-2.1-1.04.65-.58,1.24-1.56,1.95-1.65,1.16-.15,2.39.28,3.59.47-.06-.19-.11-.38-.17-.57Z"/>
      <path class="cls-1" d="m191.67,446.78c-.25-.14-.49-.28-.74-.42.19-.15.38-.3.57-.46.55.76,1.72,1.71,1.55,2.25-.61,1.96,1.52,4.68-1.5,6.08-2.28-4.6-2.23-6.41.11-7.45Z"/>
      <path class="cls-1" d="m253.13,466.86c.94-1.23,1.77-2.58,2.92-3.57.25-.21,1.94.72,2.42,1.47.38.61.17,2.38-.2,2.52-1.38.53-2.93.61-4.42.85-.24-.43-.47-.85-.71-1.28Z"/>
      <path class="cls-1" d="m402.43,618.68c.09,1.18.65,3.11.17,3.42-1.77,1.15-2.68,4.4-5.9,2.63,1.65-1.92,3.33-3.88,5.01-5.83.24-.07.48-.14.72-.21Z"/>
      <path class="cls-1" d="m401.1,429.37c-1.74,1.58-3.09,2.91-4.58,4.08-.25.19-1.28-.22-1.59-.62-.29-.39-.35-1.46-.08-1.67,1.43-1.11,2.98-2.08,4.56-2.99.17-.1.75.52,1.69,1.2Z"/>
      <path class="cls-1" d="m18.41,155.72c-.96.72-1.92,1.44-2.88,2.16-.67-1.1-1.53-2.13-1.9-3.32-.12-.38,1.2-1.75,1.58-1.65,1.14.31,2.14,1.12,3.2,1.74,0,.36,0,.71,0,1.07Z"/>
      <path class="cls-1" d="m135.7,253.97c1.18,2.9.27,5.73-1.9,6.53-.63.23-1.55-.28-2.33-.45.37-.45.76-.89,1.09-1.37.98-1.45,1.94-2.91,3.14-4.71Z"/>
      <path class="cls-1" d="m9.42,217.71c2.08,1.57,4.96,2.13,3.95,5.58-.88-2.3-3.97,1.27-4.33-1.98-.13-1.17.24-2.4.38-3.6Z"/>
      <path class="cls-1" d="m203.37,459.17c-.44-1.56-2.78-2.75.3-3.85.68-.24.72-2.29,1.24-4.17.56.65,1.56,1.31,1.48,1.81-.27,1.75-.85,3.46-1.45,5.13-.15.4-.85.6-1.57,1.08Z"/>
      <path class="cls-1" d="m191.39,459.2c1.47.46,2.96.85,4.38,1.43.27.11.24.94.35,1.44-1.28.25-2.64.86-3.81.61-.74-.16-1.2-1.61-1.79-2.48.29-.33.58-.67.88-1Z"/>
      <path class="cls-1" d="m179.14,383.54c4.22-1.88,7.99-3.57,12.02-5.37-1.67,3.42-7.97,5.26-12.02,5.37Z"/>
      <path class="cls-1" d="m112.37,423.2c.61.96,1.23,1.91,2.15,3.35-1.33.63-2.46,1.24-3.65,1.63-.13.04-1.05-1.2-.93-1.69.3-1.27.97-2.45,1.49-3.67.32.13.63.25.95.38Z"/>
      <path class="cls-1" d="m264.4,464.33c-.05.91-.11,1.81-.16,2.71-.18.04-.37.08-.55.12-.61-.81-1.22-1.61-1.83-2.41q2.47-2.01,6.08,2.21c-.97.44-1.83.82-2.71,1.22-.08-1.52-.15-2.76-.22-4-.21.05-.41.1-.62.16Z"/>
      <path class="cls-1" d="m40.52,325.91c1.07,1.26,1.79,2.1,2.51,2.94-.69.52-1.63,1.63-2.03,1.46-1.05-.44-1.86-1.43-2.77-2.21.62-.59,1.24-1.19,2.29-2.19Z"/>
      <path class="cls-1" d="m343.62,460.06h-4.85c-.1-.24-.2-.48-.3-.72.84-.45,1.68-.9,2.53-1.34.36-.19.74-.35,1.09-.56.55-.33,1.08-.68,1.63-1.02.16.8.44,1.61.43,2.41,0,.52-.44,1.03-.53,1.23Z"/>
      <path class="cls-1" d="m232.89,470.45c1.74-.37,3.48-.74,5.22-1.1l.56.88c-.81.8-1.52,2.07-2.45,2.27-1.05.22-2.29-.55-3.46-.89.04-.38.08-.77.13-1.15Z"/>
      <path class="cls-1" d="m239.25,462.99c-.65-.39-1.25-.75-1.84-1.11.44-.48.86-.99,1.34-1.43.3-.27.68-.51,1.07-.6.79-.2,1.6-.29,2.4-.42-.36.87-.6,1.83-1.14,2.59-.33.46-1.1.61-1.83.97Z"/>
      <path class="cls-1" d="m164.07,389.51c-1.9,1.46-3.34,2.61-4.85,3.68-.28.2-.99.19-1.19-.02-.23-.25-.26-.88-.12-1.24.67-1.67,3.36-2.86,6.16-2.42Z"/>
      <path class="cls-1" d="m59.87,355c-1.03.72-1.92,1.66-2.22,1.5-.7-.37-1.59-1.3-1.56-1.96.05-.97.83-1.91,1.3-2.86.72.97,1.44,1.93,2.47,3.33Z"/>
      <path class="cls-1" d="m12.18,180.48c-.88.98-1.42,1.58-1.96,2.18-.77-.75-1.86-1.4-2.16-2.31-.15-.45,1.18-1.38,1.84-2.09.67.66,1.35,1.31,2.28,2.22Z"/>
      <path class="cls-1" d="m23.63,275.69c-.86.71-1.66,1.65-1.92,1.52-.9-.46-1.62-1.29-2.41-1.97.65-.63,1.44-1.87,1.93-1.76.8.18,1.41,1.23,2.39,2.21Z"/>
      <path class="cls-1" d="m69.95,368.57c-.09-1.23-.53-2.6-.12-3.63.22-.55,1.89-.54,2.91-.78.09.26.18.51.27.77-.7,1.24-1.4,2.48-2.1,3.71-.32-.02-.64-.04-.95-.06Z"/>
      <path class="cls-1" d="m21.42,161.68c-1.45,1.03-2.16,1.83-3.03,2.06-.5.13-1.25-.63-1.88-1,.69-.67,1.28-1.56,2.1-1.93.48-.22,1.33.38,2.81.87Z"/>
      <path class="cls-1" d="m165.79,388.19c2.88-.79,5.76-1.58,8.64-2.37-2.33,2.82-5.49,2.68-8.64,2.37Z"/>
      <path class="cls-1" d="m371.78,172.17c-1.28,1-2.25,1.76-3.23,2.52-.25-.18-.49-.36-.74-.54v-3.54c1.37.54,2.39.94,3.96,1.56Z"/>
      <path class="cls-1" d="m158.28,436.18c.8,1.08,1.31,1.77,2.24,3.03-1.82.27-3.11.46-4.41.66-.19-.31-.39-.62-.58-.92.86-.86,1.72-1.72,2.75-2.76Z"/>
      <path class="cls-1" d="m90.46,421.52l.03-.22c2.55.12,5.11.25,7.66.37-.02.28-.04.56-.06.84-2.59.18-5.19.56-7.63-1Z"/>
      <path class="cls-1" d="m161.62,438.74c-.03-.08-.24-.46-.27-.85-.04-.65-.19-1.73.12-1.89.89-.49,1.98-.63,2.99-.9-.34.89-.6,1.83-1.06,2.66-.19.35-.8.47-1.78.99Z"/>
      <path class="cls-1" d="m277.02,466.11c-1.19.89-1.91,1.56-2.76,1.97-.17.08-1.27-1.14-1.18-1.29.49-.8,1.15-1.56,1.92-2.07.2-.13,1.02.68,2.02,1.39Z"/>
      <path class="cls-1" d="m198.09,451.05c.36-1.25.7-2.5,1.15-3.72.02-.06,1.05.25,1.61.39-.43,1.25-.85,2.49-1.28,3.74-.49-.14-.99-.28-1.48-.42Z"/>
      <path class="cls-1" d="m21.14,264.19c-.88.93-1.44,1.51-2,2.1-.55-.71-1.28-1.35-1.56-2.16-.09-.27.92-1.28,1.48-1.33.53-.05,1.14.72,2.07,1.39Z"/>
      <path class="cls-1" d="m226.8,633.26c-2.63,1.52-3.31-.75-4.6-1.48-.05-.03.09-.64.29-.81.19-.16.66-.22.86-.1,1.09.69,2.14,1.46,3.45,2.38Z"/>
      <path class="cls-1" d="m115.66,420.23c-.72-1.4-1.4-2.14-1.38-2.87.01-.55.92-1.07,1.43-1.6.46.52,1.29,1.06,1.28,1.57-.02.75-.64,1.49-1.33,2.9Z"/>
      <path class="cls-1" d="m35.82,284.8c-1.01.7-1.7,1.53-2.18,1.42-.67-.15-1.19-1-1.77-1.55.63-.49,1.21-1.28,1.89-1.38.49-.07,1.11.77,2.06,1.51Z"/>
      <path class="cls-1" d="m450.04,526.82h4.09c.09.19.19.39.28.58-.77.4-1.54,1.1-2.3,1.1-.83,0-1.65-.67-2.47-1.05.13-.21.27-.42.4-.64Z"/>
      <path class="cls-1" d="m58.43,349.6c-.55-.96-1.2-1.7-1.06-1.92.42-.66,1.11-1.21,1.81-1.57.15-.08,1.24,1.04,1.14,1.25-.34.71-1.02,1.26-1.9,2.24Z"/>
      <path class="cls-1" d="m361.28,449.8c-.19.88-.11,2.24-.63,2.53-.71.4-1.87,0-2.84-.07l-.14-.92c.95-.63,1.89-1.26,2.84-1.89.26.12.52.23.78.35Z"/>
      <path class="cls-1" d="m282.32,472.23c.83-.1,1.38-.16,1.97-.23-.18-.41-.35-.8-.52-1.19.12-.14.23-.29.35-.43.88.54,1.75,1.09,2.65,1.65-1.5,2.1-2.9,2.21-4.45.21Z"/>
      <path class="cls-1" d="m390.05,631.15c-.74,2.7-.82,2.74-3.5,1.89.13-.58.27-1.18.43-1.89h3.07Z"/>
      <path class="cls-1" d="m147.61,396.94c-1.75,1.82-3.33,1.2-5.16.78,1.5-2.28,3.14-1.22,5.16-.78Z"/>
      <path class="cls-1" d="m82.53,401.15c-1.28.26-2.56.6-3.86.76-1.02.12-2.07.02-3.1.02,0-.24,0-.49,0-.73,2.34,0,4.68,0,7.02,0,0,0-.05-.05-.05-.05Z"/>
      <path class="cls-1" d="m116.38,363.41c2.27-.18,5.24-.41,8.22-.65.02.22.04.43.05.65h-8.27Z"/>
      <path class="cls-1" d="m177.8,615.89c-.33,1.32-.55,2.2-.98,3.87-.88-1.54-1.44-2.53-2.2-3.87h3.18Z"/>
      <path class="cls-1" d="m168.15,444.33c.7-.97,1.4-1.95,2.32-3.23,1.61,2.92-.57,2.96-1.31,3.9-.34-.22-.67-.44-1.01-.67Z"/>
      <path class="cls-1" d="m350.15,457.13c-.51-1.01-1.02-2.02-1.53-3.04.17-.18.34-.37.52-.55.8.22,2.18.3,2.27.69.21.86-.23,1.88-.41,2.83-.28.02-.56.04-.85.06Z"/>
      <path class="cls-1" d="m357.66,159.13c-1.28-.17-2.39-.31-3.55-.47.13-.6.26-1.19.4-1.79.35,1.83,4.82-2.35,3.16,2.26Z"/>
      <path class="cls-1" d="m12.88,172.1c-.32,1.18-.58,2.38-1.02,3.52-.11.3-.87.64-1.13.53-.32-.14-.71-.87-.59-1.14.51-1.14,1.19-2.21,1.8-3.3.31.13.62.26.93.39Z"/>
      <path class="cls-1" d="m164.82,329.67c-.87,2.14-1.42,2.21-6.17.64,2.44-.25,4.25-.44,6.17-.64Z"/>
      <path class="cls-1" d="m188.28,633.54c-.39-1.13-.79-2.26-1.25-3.6,2.26.44,2.4.74,2.04,3.33-.26.09-.52.17-.79.26Z"/>
      <path class="cls-1" d="m385.4,180.02c.74,1.04,1.42,1.6,1.32,1.96-.17.66-.77,1.22-1.28,1.74-.05.05-1.08-.57-1.05-.78.12-.78.5-1.53,1.01-2.92Z"/>
      <path class="cls-1" d="m44.45,314.01c.81,2.19.31,3.13-1.09,3.52-.29.08-.75-.41-1.13-.64.64-.83,1.28-1.66,2.22-2.88Z"/>
    </g>
  </g>
</svg>