<?xml version="1.0" encoding="UTF-8"?>
<svg id="Layer_2" data-name="Layer 2" xmlns="http://www.w3.org/2000/svg" viewBox="0 0 546.84 321.13">
  <defs>
    <style>
      .cls-1 {
        fill: #5df45a;
      }

      .cls-2 {
        opacity: .46;
      }
    </style>
  </defs>
  <g id="images">
    <g class="cls-2">
      <path class="cls-1" d="m66.68,128.18c1.5,0,3.32.27,4.99-.1,1.05-.23,2.55-1.34,2.68-2.23.41-2.69,1.86-3.87,4.28-4.64,2.49-.79,4.84-2,7.26-3.01,3.53-1.47,6.04-.91,7.18,1.55,1.21,2.62-.09,5.09-3.55,6.73-4.23,2.01-5.85,5.43-4.11,9.31,3.85-4.1,8.89-4.67,12.97-1.91,4.27,2.88,2.81,7.82.66,12.54,2.14.35,3.85.61,5.55.92,4.11.77,6.02,4.74,3.05,7.32-4.17,3.61-3.35,7.77-2.85,12.13.12,1.05.26,2.09.53,4.13,1.96-1.23,3.45-2.14,4.92-3.11,1.4-.92,2.8-1.84,4.13-2.86,2.06-1.58,4.27-2.73,6.33-.37,1.88,2.15.67,4.24-.9,6.1-2.92,3.47-5.84,6.93-8.74,10.42-.28.34-.41.8-.44.86,3.79-.28,7.66-.25,11.37-.97,2.08-.41,4.04-1.92,5.85-3.21,2.04-1.46,4.05-2.28,6.22-.64,2.09,1.59,1.74,3.56.82,5.81-.38.94.03,2.79.78,3.5,3.39,3.2,3.48,5.89,0,9.37-2.87,2.87-5.7,5.79-8.53,8.7-.42.43-.97.87-1.11,1.39-.54,2.09-.94,4.21-1.39,6.33,1.89.24,3.76.63,5.66.69,5.95.21,8.73-4.83,12.65-7.91,1.58-1.24,2.57-3.35,4.26-4.32,2.26-1.3,4.9-2.45,7.45-2.61,3.41-.21,5.18,2.74,3.86,5.95-.95,2.3-2.73,4.29-3.51,6.63-.62,1.85-.72,4.18-.11,5.97.23.68,3.11.68,4.76.6,1.88-.09,4.02-1.34,5.54-.76,1.85.7,3.73,2.51,4.63,4.32,2.09,4.17,3.32,4.56,7.43,2.25,2.16-1.21,4.93-2.29,7.26-2.02,2.63.31,3.79-1.01,5.07-2.42,2.13-2.35,4.01-4.93,6.05-7.36,1.45-1.73,3.53-2.91,5.14-.95.76.92.28,3.65-.58,4.93-1.39,2.07-2.9,3.68-1.45,6.4.82,1.55,1.45,2.04,3.29,1.48,3.93-1.21,6.63.18,8.89,4.02,1.92,3.26.08,5.36-2.14,7.46-.63.6-1.48,1.89-1.24,2.35,1.28,2.46-2.3,4.79-.1,7.23.11.12-.81,1.33-1.39,1.89-3.88,3.73-7.86,7.36-11.64,11.19-.9.91-1.14,2.47-1.69,3.74,1.58-.07,3.67.48,4.64-.32,3.57-2.96,6.79-6.34,10.09-9.61.93-.92,1.5-2.43,2.57-2.91,1.29-.58,2.94-.34,4.43-.45,0,1.53.65,3.57-.1,4.49-2.62,3.24-5.82,6-8.6,9.11-1.73,1.94-3.12,4.19-4.66,6.31.42.44.84.88,1.26,1.32,3.47-2.41,6.89-4.9,10.44-7.19,1.76-1.14,3.69-2.4,5.68-2.71,3.5-.54,7.14-.71,10.67-.45,3.31.25,5.67-.86,8.06-2.99,1.88-1.67,4.37-2.64,6.47-4.08,1.65-1.13,3.27-2.36,4.64-3.79,1.95-2.06,3.94-2.98,6.97-2.63,2.3.26,4.97-.41,7.11-1.44,4.85-2.33,9.67-.93,14.45-.38,2.19.25,2.59,2.92,1.06,4.82-4.16,5.17-8.69,10.1-12.38,15.6-2.75,4.1-4.41,8.93-6.56,13.43.34.31.68.61,1.02.92,1.03-.3,2.25-.35,3.05-.95,3.4-2.57,6.42-5.73,10.05-7.87,3.52-2.08,7.5-3.74,11.49-4.58,4.21-.89,7.23-2.8,9.5-6.29,1.01-1.55,2.27-4.04,4.26-2.1,1.06,1.03.64,3.78.56,5.73-.05,1.34-1.06,2.71-.87,3.95.09.58,2.67,1.52,2.95,1.21,1.12-1.2,2.22-2.76,2.5-4.34.37-2.07-.23-4.3-.07-6.43.27-3.56,3.04-4.96,5.71-2.77,1.98,1.62,3.15,4.7,5.29,5.51,2.07.78,4.92-.78,7.43-.83,3.18-.07,6.07-.26,8.5-2.78,2.98-3.09,6.53-5.65,9.36-8.87,3.31-3.76,6.54-1.9,10.86-.43-1.54,2.21-3,4.1-4.23,6.13-.75,1.24-1.15,2.69-1.71,4.04,1.9.05,4.18.79,5.6,0,2.04-1.15,3.45-3.42,5.14-5.23,2.88,3,2.92,4.59.41,7.13-2.47,2.5-2.45,6.08.15,8.24.43.36,1.27.36,1.9.28.4-.05.86-.49,1.1-.87,5.93-9.31,17.3-11.54,24.74-18.91.71-.71,2.92-1.11,3.44-.62,2.79,2.68,4.83.88,6.86-.83,2.84-2.39,5.97-2.38,10.03-1.73-5.58,6.82-10.73,13.12-16.15,19.75,3.06,1.6,6,1.01,7.47-1.27,3.88-6.01,11.07-6.75,16.1-10.87,2.64-2.16,3.18.96,4.5,3.66.46-2.65.81-4.38,1.04-6.12.63-4.67,2.83-6.15,7.54-6,3.55.12,6.47-.77,9.17-4.2,5-6.34,10.92-12.07,18.29-15.84,1.05-.53,2.7-.69,3.75-.25,2.22.93,3.34-.1,4.53-1.62,3.66-4.69,6.43-9.78,8.03-15.58.42-1.51,2.26-2.7,3.61-3.86,2.19-1.89,5.93-2.72,3.86-7.13-.35-.75,1.18-2.51,2.02-3.67,1.28-1.78,3.32-3.25,3.96-5.2,1.18-3.61,4.31-3.69,7.67-5.63-.64-.26-1.31-.45-1.91-.79-2.4-1.37-2.38-2.65-.42-4.74,1.78-1.89,2.79-4.48,4.18-6.75.87-1.41,1.74-2.83,2.71-4.17,1.26-1.75,1.85-3.36-.23-4.96-2.04-1.56-1.51-3.12-.08-4.89,1.4-1.74,2.49-3.72,3.95-5.97-1.41-.36-1.85-.49-2.3-.59-1.18-.25-2.36-.48-3.54-.72.65-1.34.99-3.01,2-3.96,3.12-2.92,6.49-5.56,9.98-8.49-.6-.86-1.13-1.63-2.26-3.27,2.5.95,4.32,1.24,5.64,2.22,2.21,1.65,3.29.34,4.84-.95,1.33-1.11,3.04-1.91,4.71-2.42,1.8-.55,3.76-.59,5.64-.9,4.47-.72,6.47.67,6.37,5.17-.11,5.3-.77,10.59-1.11,15.89-.05.77.4,1.56.49,2.36.75,6.52,2.02,13.15-4.25,18.07-1.1.86-2.29,2.06-2.65,3.33-2.04,7.03-7.81,11.33-11.88,16.88-3.63,4.94-7.5,9.45-12.82,12.82-2.34,1.48-3.74,4.56-5.38,7.04-5.44,8.27-13.84,13.45-20.8,20.13-4.88,4.69-9.82,9.33-14.78,13.93-3.24,3.01-6.44,6.08-9.89,8.82-8.78,6.98-17.33,14.35-26.7,20.43-4.52,2.93-7.36,7.48-12.23,9.97-5.28,2.69-5.92,3.05-10.04-1.09-.48-.48-1.57-.78-2.22-.6-8.44,2.32-17.46,3.33-23.1,11.56-1.72,2.51-4.58,4-5.35,7.52-.33,1.52-3.25,2.45-4.94,3.71-1.92,1.44-3.85,2.87-5.62,4.47-.86.78-1.2,2.22-2.13,2.83-1.1.71-2.76,1.4-3.85,1.06-1.05-.33-2.5-2.11-2.36-3.03.56-3.56,1.68-7.04,2.6-10.54.03-.1.22-.18.22-.27.5-7.44,7.99-8.44,11.8-12.81,1.09-1.25,2.02-2.65,3.02-3.98-.31-.45-.62-.89-.92-1.34-2.99,1.13-6.28,1.81-8.92,3.49-4.83,3.07-10.76,4.55-14.32,9.54-.9,1.26-1.78,2.6-2.93,3.61-1.2,1.06-2.7,2.45-4.09,2.47-3.34.06-5.17,1.91-7.03,4.2-1.02,1.25-2.31,2.51-3.76,3.11-.97.4-2.84.06-3.54-.68-.62-.66-.5-2.42-.15-3.52.61-1.91,1.64-3.69,2.54-5.62-2.25-2.03-4.44-1.97-6.43-.05-2.06,1.99-3.74,4.39-5.91,6.22-1.39,1.17-3.49,2.47-5.05,2.23-2.09-.32-2.96-2.41-2.35-4.85.24-.95-.37-2.1-.6-3.16-.47-.01-.93-.02-1.4-.03-.25,1.88-.51,3.76-.8,5.93-1.12-1.22-2.11-2.3-3.79-4.13,1.85-1.33,3.99-2.26,5.23-3.89,1.97-2.59,3.35-5.64,4.98-8.5-1.55-.69-3.14-1.99-4.64-1.9-1.21.07-2.39,1.74-3.45,2.84-1.57,1.63-2.83,3.63-4.59,5-2.04,1.58-4.36,1.73-5.51-1.25-.92-2.36-2.22-2.44-3.63-.71-2.19,2.69-4.49,3.85-8.11,2.64-1.12-.37-3.34,1.11-4.43,2.31-3.13,3.45-5.99,7.15-8.84,10.84-1.58,2.05-3.35,3.07-6.08,3.05-1.55-.01-3.46.9-4.6,2.02-2.03,1.99-3.71,4.38-5.33,6.74-1.65,2.4-3.57,2.92-6.88,1.17,7.34-7.32,14.46-14.4,21.64-21.56-3.98-2.91-5.67-2.87-8.95-.13-.27.23-.61.61-.88.58-4.54-.55-6.11,3.35-8.76,5.69-3.62,3.21-4.31,2.12-8.59.23-5.7-2.52-5.57-4.44-1.8-8.57,3.16-3.47,5.63-7.58,8.28-11.49.76-1.12,1.12-2.51,1.95-4.44-6.39,2.24-12.6,2.14-16.62,7.16-1.04,1.3-2.13,2.64-3.46,3.62-1.37,1.01-3.03,2.14-4.62,2.21-1.51.07-3.58-.77-4.44-1.93-.48-.65.79-2.9,1.67-4.16,1.08-1.55,2.56-2.83,4.31-4.68-5.89-.52-10.65-.69-13.67,4.49-.82,1.4-2.15,2.67-3.53,3.54-1.79,1.14-4.11,2.82-5.76,2.42-1.51-.36-2.44-3.17-3.62-4.9.24-.25.48-.49.73-.74-2.16-.39-4.32-.79-6.48-1.18-.44,2.48-.32,4.92-1.34,6.71-1.07,1.87-3.08,3.36-4.98,4.53-1.37.85-3.22.91-4.86,1.32-.38-1.71-.79-3.42-1.11-5.14-.1-.53.04-1.11.12-2.53-1.49.98-2.65,1.39-3.24,2.21-1.84,2.57-4.27,3-6.99,2.13-2.39-.76-3.93.07-5.12,2.04-.19.31-.31.71-.58.9-1.39.97-2.77,2.01-4.29,2.72-.28.13-1.87-1.37-1.75-1.79.44-1.47,1.33-2.81,2.11-4.17.57-1.01,1.77-1.98,1.74-2.95-.08-3.21,1.81-4.9,3.95-6.81,1.14-1.02,1.42-3.01,2.1-4.55.79-1.77,1.19-3.96,2.49-5.22,4.29-4.15,8.75-8.16,13.45-11.83,3.92-3.06,4.52-6.64,3.03-11.17-3.19-.34-6.07.31-8.4,2.76-2.23,2.34-4.26,4.92-6.76,6.92-1.1.88-3.53,1.33-4.66.71-2.09-1.16-1.38-3.3-.1-4.96.65-.84,1.74-1.37,2.25-2.25.48-.83.46-1.94.65-2.93-1.11.04-2.58-.35-3.28.21-4.32,3.44-5.82,3.4-9.48-1.24-1.42,1.1-2.96,2.11-4.26,3.37-1.37,1.33-2.27,3.26-3.81,4.25-1.3.83-3.62,1.39-4.75.75-.93-.52-1.02-2.96-1.05-4.56-.02-1.37,1.02-2.8.84-4.11-.75-5.43,3.79-6.61,6.89-8.94.52-.4,1.25-.52,2-1.71-1.72-.34-3.48-1.1-5.15-.92-2.59.28-5.14,1.09-7.63,1.91-.69.23-.97,1.47-1.66,1.93-1.86,1.26-3.74,2.63-5.82,3.37-.7.25-2.3-1.08-2.97-2.04-.36-.52.35-1.81.63-2.74.69-2.28,1.41-4.56,2.21-7.11-2.62-1.54-5.71-1.66-7.77-.08-7.19,5.49-16.53,7.76-22.42,15.15-1.41,1.77-3.61,2.79-5.28,1.01-1.76-1.87-2.71-4.49-4.02-6.79,1.98-.82,3.89-1.9,5.95-2.37,1.35-.31,2.89.27,4.35.46.11-.48.23-.96.34-1.44-1.41-.32-2.8-.81-4.22-.92-4.15-.31-5.32-2.27-3.29-5.9.63-1.13,1.45-2.27,2.47-3.03,4.85-3.65,7.11-8.97,9.01-14.36.58-1.66.09-4.5-1.05-5.77-1.6-1.78-7.14-.84-8.44.78-1.5,1.87-2.89,3.82-4.47,5.61-2.2,2.49-5.26,2.96-7.35,1.29-2.21-1.76-2.46-4.55-.7-7.42,1.56-2.53,3.07-5.09,4.14-6.87-3.35-2.66-6.35-5.09-9.41-7.44-.76-.58-1.71-1.29-2.58-1.29-2.46,0-4.38-1.14-4.11-3.4.21-1.78,1.7-3.82,3.22-4.91,1.68-1.21,7.16-7.71,7.1-9.81-.09-2.84-1.75-4.22-4.23-4.68-1.06,2.48-1.84,4.84-3.02,6.97-1.48,2.67-4.59,3.39-6.74,1.86-2.31-1.63-2.51-4.34-.56-6.91,1.23-1.61,2.35-3.3,3.63-4.87,1.38-1.7,1.52-3.55-.34-4.55-.83-.44-2.73.52-3.82,1.31-1.54,1.1-2.56,3.06-4.19,3.85-1.46.7-4.06,1.04-5.02.22-.98-.84-1.29-3.66-.63-4.97,1.27-2.5,3.38-4.59,5.24-6.76,1.76-2.04,1.85-4.38.42-6.26-.84-1.11-2.85-1.7-4.39-1.82-2.06-.15-4.2.2-6.24.67-3.48.79-6.09-.4-8.25-3.02-2-2.42-1.86-4.77-.54-7.63,1.08-2.35,1.15-5.17,1.74-8.12-5.32,1.12-7.39,5.22-10.42,8.14-1.12,1.07-2.09,2.32-3.28,3.3-2.63,2.16-5.31,2.36-8.15.17-3.22-2.48-6-2.29-9.2.35-3.39,2.79-6.2,3.07-8.28.84-2.17-2.33-1.98-5.78.62-8.79,1.95-2.25,4.18-4.27,6.01-6.61.69-.89,1.18-2.66.75-3.55-1.22-2.58.05-3.93,1.69-5.55,6.27-6.22,12.46-12.52,18.62-18.85.76-.78,1.16-1.9,1.9-3.16-3.43-1.18-5.51.33-7.49,2.06-1.16,1.02-2.05,2.71-3.36,3.1-1.73.51-4.42.76-5.46-.21-1.03-.96-.75-3.59-.6-5.45.07-.93,1.02-1.89,1.76-2.65,1.58-1.63,1.9-3.17,1.16-5.49-.48-1.5.33-3.59,1.02-5.23.53-1.26,2.13-2.1,2.6-3.36.4-1.1.34-2.95-.35-3.72-.66-.72-2.86-1.08-3.57-.54-2.82,2.17-5.32,4.77-7.96,7.18-1.06.96-2.04,2.26-3.29,2.68-1.29.44-3.2.51-4.28-.17-3.11-1.94-2.74-11.04-.02-13.47,5.16-4.59,10.29-9.24,15.02-14.25,3.92-4.15,5.19-4.57,9.61-1.01.27.22.64.63.84.56,3.45-1.07,6.93-2.06,10.27-3.4,1.11-.44,1.68-2.24,2.78-2.67,1.62-.63,3.82-1.26,5.18-.62.97.46,1.19,2.98,1.32,4.61.13,1.63-.06,3.36-.46,4.96-.67,2.68-1.13,5.59-2.55,7.87-2.97,4.78-1.74,8.47,3.78,9.71,4.12.93,4.94,4.33,2.7,8.35-3.87,6.96-9.61,12.1-15.51,17.15-3.03,2.6-3.83,6.91-1.74,10.2,1.08,1.7,2.64,2.65,4.25.49,2.6-3.49,5.34-4.63,10.12-3.59,4.03.88,8.79-.64,12.99-1.88,2.54-.75,4.77-1.84,6.98.09,2.45,2.13,1.84,4.63.44,7.16-.49.9-.73,1.99-.87,3.02-.28,2.15-.41,4.33-.68,7.34Z"/>
      <path class="cls-1" d="m534.11,108.04c-.61-1.92-1.12-3.88-1.85-5.76-.59-1.54-1.43-2.99-2.33-4.83-1,2.61-1.92,5.04-2.56,6.72.55,2.66,1.25,4.66,1.34,6.68.18,4.06.2,8.15-.1,12.2-.08,1.13-1.51,3.08-2.34,3.09-4.5.07-9.01-.31-13.51-.62-2.96-.21-3.92-1.55-2.12-4.23,1.28-1.9,1.17-3.65-.13-5.65-.53-.82-.39-2.8.26-3.52,1.63-1.81,1.83-3.42.76-5.52-.47-.91-.97-2.42-.55-3.07,2.26-3.5-.02-6.77-.21-10.12-.03-.47-.05-1.1-.34-1.37-2.29-2.19-4.89-4.22-2.55-7.89-1.44-.52-2.86-1.16-4.34-1.51-1.12-.27-2.33-.19-3.5-.26.28-1.33.3-2.8.9-3.96.51-.99,1.86-1.52,2.51-2.49.52-.77.54-1.88.78-2.84-.85-.15-1.9-.71-2.52-.4-3.09,1.56-4.1.01-4.58-2.71-.49-2.81-1.26-5.59-1.52-8.41-.25-2.76-1.44-4.39-4.18-4.27-3.82.17-5.64-.6-5.1-5.23.29-2.49-1.83-5.27-2.88-7.91-.22-.55-.87-1.26-.71-1.57,2.41-4.57-1.79-5.77-4.06-7.71-2.58-2.21-5.38-3.49-9.2-2.07-2.86,1.06-6.21.82-9.36,1.04-3.2.22-3.82-1.12-2.25-5.52-7.11-.85-6.6-8.78-12.42-12.17,4.34-1.75,7.8-2.9,11.49-1.92,5.15,1.38,1.62,6.57,4.26,10.01.28-2.38.39-4.18.72-5.93.69-3.72,2.67-4.59,5.86-2.63.71.43,1.41.94,1.96,1.55,1.72,1.88,3.14,3.21,5.29.17.68-.96,3.11-1.24,4.52-.9.9.22,1.51,2.09,2.01,3.32.3.73-.08,1.79.29,2.46.63,1.16,1.61,2.14,2.44,3.19.78-1.04,2.19-2.06,2.22-3.13.13-3.61,2.86-4.79,5.34-5.67,2.28-.8,4.96-.84,7.43-.66,2.77.2,4.4,1.64,3.29,4.87-.94,2.74-1.25,5.15,2.42,6.59,2.27.89,4.25,2.79,6.02,4.58.89.9,1.26,2.52,1.43,3.87.43,3.56.33,7.13,4.17,9.32,1.02.58,1,2.82,1.73,4.14,1.36,2.45,2.98,4.75,4.39,7.17.83,1.42,1.72,2.9,2.12,4.47,1.01,3.99,1.89,8.02,2.59,12.07.78,4.49,1.32,9.02,1.96,13.53.13.9.22,1.81.41,3.31,1.9-1.13,3.38-2.04,4.88-2.9,4.41-2.53,6.12-1.15,7.8,3.38,1.44,3.88,0,8.66,3.88,11.87.77.63.45,3.55-.35,4.77-.51.77-2.83.42-4.34.45-1.11.02-2.24-.29-3.34-.21-1.47.11-2.91.46-4.37.7l.11.07Z"/>
      <path class="cls-1" d="m393.21,21.31c.78-3.94,4.1-6.66,9.44-6.94,2.86-.15,5.72-.38,8.58-.41,2.44-.02,4.07,1.13,3.37,3.78-.6,2.26-1.42,5.26-4.58,4.22-2.85-.94-5.01-.21-7.01,1.33-5.26,4.06-10.47,8.2-15.49,12.55-1.34,1.16-1.87,3.22-2.9,4.79-1.02,1.56-1.96,3.3-3.34,4.47-2.44,2.08-4.59,3.85-3.94,7.7.48,2.87-2.67,6.12-5.77,6.62-2.51.41-3.04,1.67-1.95,3.72,1.39,2.62,2.99,5.12,4.37,7.74.5.96.64,2.11.94,3.17-1.06.04-2.15.23-3.19.09-2.9-.4-5.77-1.3-8.66-1.34-3.47-.06-6.09-2-6.38-4.66-.23-2.16,2.17-4.61,3.44-6.91.7-1.28,1.5-2.5,2.21-3.77,2.54-4.53,4.55-9.48,7.7-13.53,5.36-6.87,11.35-13.26,17.27-19.66,1.17-1.27,3.25-1.71,5.86-3Z"/>
      <path class="cls-1" d="m531.59,158.47c-.14-.9-.67-1.99-.34-2.67,1.81-3.7.32-7.52.56-11.26.13-1.96-.48-3.96-.68-5.95-.22-2.22-.73-4.51-.39-6.65.19-1.16,1.84-2.85,2.9-2.91,1.33-.08,2.86,1.13,4.07,2.08,1.03.8,1.62,2.16,2.63,3.02,2.18,1.87,2.59,6.11.27,8.33-2.33,2.23-2.99,4.56-2.4,7.7.71,3.73-2.6,7.76-6.64,8.31Z"/>
      <path class="cls-1" d="m454.77,12.3c-3.9,0-7.8-.01-11.69,0-2.96.01-4.07-1.52-3.69-4.33.69-5.07,1.86-5.65,6.82-4.98,1.93.26,4.46-.6,6.04-1.83,2.07-1.61,3.61-1.5,5.37-.04,3.35,2.79.83,6.28.79,9.4-.01.81-2.14,1.6-3.3,2.4-.11-.21-.22-.42-.33-.63Z"/>
      <path class="cls-1" d="m534,107.97c1.11,1.22,2.21,2.43,3.34,3.67.51-.43,1.05-.89,1.17-.98,1.37,1.36,2.77,2.3,3.52,3.62.81,1.4,1.64,3.27,1.36,4.73-.68,3.54-6.11,7.25-9.74,7.19-2.24-.04-3.14-1.12-3.1-3.4.04-2.19-.08-4.43-.52-6.56-.8-3.86.72-7.17,4.08-8.19,0,0-.11-.07-.11-.07Z"/>
      <path class="cls-1" d="m435.36,5.12c2.3,5.63,2.02,6.43-2.94,6.9-4.5.43-9.06.34-13.6.38-2.32.02-2.74-1.68-2.47-3.49.28-1.87.57-3.86,3.32-3.82,5.33.08,10.66.02,15.69.02Z"/>
      <path class="cls-1" d="m431.19,15.72c-2.68,3.58-9.16,5.9-12.01,4.24-1.02-.6-1.38-2.34-2.04-3.56,1.06-.48,2.09-1.29,3.17-1.36,2.83-.18,5.69-.08,8.53,0,.67.02,1.34.38,2.34.68Z"/>
      <path class="cls-1" d="m358.55,73.88c.49,1.13.85,1.95,1.34,3.07,1.17-.53,2.17-.99,3.16-1.45.22.13.44.27.66.4-1.65,2.7-3.16,5.5-5.07,8-.35.45-2.44-.07-3.51-.59-2.17-1.06-1.77-3.01-.77-4.56,1.07-1.67,2.6-3.06,4.19-4.87Z"/>
      <path class="cls-1" d="m269.81,241.91c-1.23-.95-3.07-1.66-3.53-2.9-.64-1.68,3.39-5.39,5.26-4.72,1.61.58,3.39,2.17,3.98,3.73.74,1.93-1.5,3.19-5.71,3.89Z"/>
      <path class="cls-1" d="m404.42,10.42c3.21-1.21,5.93-2.34,8.73-3.19.39-.12,1.64,1.07,1.7,1.73.1,1.04-.14,2.47-.82,3.14-1.26,1.25-7.17.38-9.61-1.68Z"/>
      <path class="cls-1" d="m405.76,241.69c-1.48-1.58-2.18-2.33-2.88-3.09,1.48-1.38,2.9-2.82,4.5-4.03.18-.14,2.06,1.43,1.98,1.58-.92,1.7-2.07,3.28-3.6,5.54Z"/>
    </g>
  </g>
</svg>