<?xml version="1.0" encoding="UTF-8"?>
<svg id="Layer_2" data-name="Layer 2" xmlns="http://www.w3.org/2000/svg" viewBox="0 0 679.45 611.95">
  <defs>
    <style>
      .cls-1 {
        fill: #5df45a;
      }

      .cls-2 {
        opacity: .46;
      }
    </style>
  </defs>
  <g id="images">
    <g class="cls-2">
      <path class="cls-1" d="m0,336.46c3.3-3.25,5.57-4.28,8.13-3.66-2.12,3.06-4.2,6.12-6.38,9.11-.35.47-1.15.61-1.75.9,0-2.12,0-4.23,0-6.35Z"/>
      <path class="cls-1" d="m520.88,329.31c-.01-.26-.02-.53-.03-.79,2.31.45,4.16-2.12,6.66-.96.57.26,1.55-.53,2.35-.55.9-.03,1.95.05,2.65.51.39.26.37,1.43.22,2.13-.29,1.36.36,2.32,1.76,1.94,1.64-.45,3.15-1.32,4.74-1.94.69-.27,1.45-.33,2.15-.55.8-.26,1.55-.69,2.36-.87.69-.15,1.44-.03,2.03-.03,0-.19-.26-1.05.06-1.42.46-.53,1.33-.69,2.19-1.09-.21-1.35-.27-2.85,1.66-2.29,1.1-1.3,2.06-2.37,2.95-3.5.46-.59,1.09-1.28,1.1-1.94.02-1.68,1.32-2.15,2.37-2.44,1.84-.52,2.91-1.54,3.63-3.27.24-.58,1.09-1.2,1.72-1.27,2.03-.22,4.26.15,4.61-2.85.04-.33,1.23-.93,1.51-.77,2.92,1.73,4.4-.57,6.04-2.14,1.67-1.6,3.21-3.34,4.71-5.1,1.77-2.08,3.35-4.33,5.17-6.36,1.31-1.47,2.9-2.69,4.36-4.03.92-.84,1.81-1.7,2.73-2.55.38-.35.75-.72,1.17-1.03,1.97-1.45,3.62-2.98,5.04-5.2,1.16-1.82,1.95-3.68,2.94-5.51.57-1.05,2.33-1.46,3.57-2.13,3.06-1.63,6.12-3.5,8.02-6.31,1.26-1.87,3.27-3.97,2.16-6.92-.29-.77.44-1.92.82-3.32.34,1.15.55,1.85.69,2.34,1.13-1.62,2.26-3.25,3.45-4.96.7.29,1.24.51,1.59.65,1.07-.93,2.24-1.59,2.86-2.59.51-.83.35-2.06.51-3.26.27.15.71.41.78.45.93-.63,1.67-1.14,2.42-1.65.06-.04.16-.02.2-.06,1.58-1.87,3.83-3.52,4.56-5.68,1.04-3.08,2.87-5.36,4.78-7.78,1.49-1.89,2.46-4.19,3.89-6.15.51-.7,1.64-1.22,2.53-1.29,1.32-.11,2.72-1.31,2.62-2.91,2.34.38,3.38-1.22,4.67-2.8,1.63-1.98,3.67-3.62,4.86-4.76-.29-3.51-.52-6.26-.77-9.27.4-.09.98-.08,1.41-.33.85-.5,2.13-1.02,2.3-1.76.48-1.95,1.97-2.59,3.31-3.64,1.93-1.51,3.6-3.36,5.56-5.25-2.43-1.73-1.48-3.93-.7-6.71-1.55.7-2.58,1.02-3.44,1.59-3.22,2.12-6.34,4.4-9.6,6.46-1.09.69-2.46,1.6-3.8.14-1.29-1.4-.71-2.72.11-4.03.4-.65,1.01-1.19,1.31-1.88.5-1.12.88-2.32-.85-2.87-1.43-.46-2.59-.76-2.72,1.45-.08,1.32-4.83,5.14-6.11,4.95-.77-.11-1.95-.81-2.06-1.41-.41-2.19-2.29-2.99-3.71-4-1.61-1.15-2.95-2.11-2.87-4.74-.69.49-1.52.86-2.06,1.48-1.4,1.64-3.32,2.18-4.74,1.18-1.6-1.13-1.7-2.7-.38-4.79.69-1.1,2.19-2.14.52-3.51-1.63,1.29-3.2,2.61-4.85,3.83-2.64,1.94-3.83,1.57-5.16-1.44-.11-.25-.32-.46-.65-.08-1.5-.32-3.35-.19-4.41-1.05-2.1-1.71-1.63-4.2-.71-6.6-.89.53-1.66,1.01-2.45,1.47-2.14,1.26-3.17.9-5.05-.62-2.09-1.68-4.51-2.94-6.78-4.4-.36-.23-.66-.56-1.22-1.04-1.48.99-3.28,2.05-4.92,3.33-1.26.98-2.66,1.77-3.96.8-.92-.69-1.23-2.16-1.86-3.27-.43-.76-.92-1.5-1.4-2.23-.24-.37-.53-.72-.69-.94-.7,1.88-1.65,3.78-3.68,5.12-1.61,1.06-2.72,1.18-3.88-.43-.91-1.26-.56-3.04.78-4.29.78-.73,1.41-1.6,1.99-2.66-1.37,1.04-2.04.5-2.41-.77-.44-1.53-.87-2.32-2.93-1.7-1.79.54-4.17,1.22-5.71-1.17-.17-.27-1.38.12-2.29.22.15.11.06.08.04.02-1.74-4.01-1.87-4.11-5.34-1.74-1.18.81-1.93,2.28-3.13,3.03-1.27.79-2.84,1.4-4.3,1.45-.72.02-2.12-1.42-2.09-2.15.06-1.38.86-2.76,1.52-4.05.32-.63,1.03-1.06,1.23-1.94-2.05,1.66-4.14,3.28-6.14,5.01-1.22,1.05-2.51,1.78-3.94.75-1.55-1.11-1.68-2.79-.67-4.31.81-1.22.82-1.99-.51-2.72-.33-.18-.48-.68-.73-1.01-1.74-2.3-1.75-2.28-4.14-.78-.76.48-1.61.88-2.47,1.14-1.98.62-3.91-.76-4.1-2.93-.07-.75.07-1.52.12-2.44-2.22-.3-4.22-.28-6.29,1.41-1.28,1.05-3.45,1.06-5.25,1.4-.34.07-1.13-.44-1.15-.73-.18-2.12-1.45-2.34-3.25-2.53-1.1-.11-2.09-1.29-3.28-2.09q-3.14,1.75-8.65,2.18c-.07.36-.06.8-.23,1.14-.36.72-.94,2.03-1.2,1.98-.91-.19-2.06-.64-2.5-1.37-1.21-2.01-3.09-2.76-5.13-1.64-1.3.71-2.47,1.54-4.06.4-.42-.3-1.49.29-2.48.53-.46-1.03-.95-2.14-1.56-3.5-.78.38-1.75.65-2.46,1.24-1.9,1.54-3.84,1.42-5.91.48-.56-.26-1.15-.58-1.75-.61-4.35-.2-4.82-.66-4.63-5.13-2,1.78-3.66,1.32-5.38-.3-1.02-.97-2.2-.89-3.2.48-.92,1.27-2.36,2.6-3.9,1.81-1.3-.66-2.25-2.2-3.05-3.53-.29-.48.21-1.56.57-2.25.34-.65.97-1.14,1.97-2.26-1.39-.09-2.18-.17-2.97-.17-.97,0-2.43.47-2.81.01-.61-.73-.6-2.05-.67-3.13-.03-.5.37-1.03.84-2.22-1.77.22-3.16.49-4.56.54-1.6.06-3.29.24-4.78-.18-2.28-.65-4.06-2.01-3.05-5.02-.15-.13-.29-.25-.44-.37-1.58.84-3.29,1.51-4.72,2.55-1.84,1.33-3.41,3.03-5.19,4.45-1.15.92-2.7,1.42-3.84.3-.55-.55-.29-1.95-.31-2.97,0-.31.28-.62.7-1.47-1.34.69-2.26,1.08-3.09,1.6-1.22.76-2.19.84-3.34-.3-.55-.55-1.71-.45-2.57-.73-1.24-.41-2.46-.91-3.68-1.36.02-.26.05-.53.07-.79-.62.4-1.31.74-1.86,1.22-1.2,1.08-2.28,2.3-4.19,1.65-.32-.11-.87.27-1.24.53-.27.19-.42.54-.62.83-1.31,1.87-3.25,2.6-4.66,1.75-1.34-.81-1.33-2.2-.16-4.86-1.02.75-1.98,1.6-3.07,2.24-1.21.72-2.49,1.37-3.82,1.84-2.04.72-4.03.83-5.22-1.79-.91,1.02-1.46,2.01-2.3,2.47-1.02.55-2.31.88-3.44.79-.39-.03-.94-1.6-.93-2.45.03-1.81.28-3.63.64-5.4.41-2.05,2.12-2.75,3.91-3.25.46-.13.93-.22,1.24-.29v-2.18c.39.04,1.02-.06,1.14.14.38.65.95,1.53.77,2.11-.33,1.03-1.08,1.96-1.8,2.81-.59.7-1.38,1.21-2.09,1.81.11.18.22.36.33.54.48-.16,1.07-.19,1.42-.5,3.87-3.41,7.7-6.86,11.53-10.3.15-.14.24-.37.4-.48,1.16-.75,2.39-1.4,3.62-.27,1.42,1.31.4,2.52-.39,3.89,5.63-2.14,10.65-4.96,14.67-9.36.19-.21.35-.46.58-.61,1.05-.67,2.19-1.26,3.12.08.87,1.26,0,2.1-.86,3.01-2.18,2.32-4.29,4.7-6.4,7.09-.19.22-.2.61-.3.92.15.12.3.24.45.36,1.01-1.04,2.07-2.05,3.04-3.14,2.38-2.67,3.55-2.92,6.88-1.42.28.13.74.21.97.07,2.91-1.73,6.43-2.49,8.45-5.63.73-1.13,1.86-2.37,3.49-1.63.62.28,1.36,1.25,1.31,1.84-.15,1.71-1.55,2.32-3.08,2.62-.24.05-.46.22-1.14.56.79.27,1.19.53,1.57.51.69-.04,1.38-.23,2.06-.37,2.5-.52,3.46.28,3.3,2.76-.04.54-.11,1.07-.23,2.32,1.93-1.24,3.38-2.23,4.88-3.1.67-.39,1.47-.56,2.21-.83.22.71.59,1.41.63,2.12.06,1.17-.14,2.35-.14,3.53,0,.31.36.61.56.92,1.8-1.22,4.01,1,5.9-.76.5-.47,2,.08,3.02.23.8.12,1.6.56,2.38.5,1.62-.14,2.44.6,3.07,1.98.35.77.94,1.68,1.66,1.98,1.61.68,2.72,1.71,3.59,3.18.72,1.21,1.69,2.01,3.31,1.42.46-.17,1.11.06,1.64.22,1.74.52,3.27.55,4.96-.53,1.91-1.23,4.04-.14,4.77,2.11.24.73.34,1.5.55,2.43,1.67-.76,3.26-.98,4.95.29,2.49,1.87,4.47,1.31,6.66-1.04.78-.84,2.31-1.64,3.28-1.43.8.17,1.98,2.06,1.75,2.82-.4,1.34-1.69,2.44-2.7,3.56-.81.89-1.77,1.66-2.66,2.48.13.19.27.39.4.58.56-.25,1.22-.39,1.66-.78,1.66-1.48,3.19-3.11,4.87-4.57,1.01-.88,2.18-1.76,3.54-.53.99.89.86,3.06-.26,4.21-.58.59-1.27,1.07-1.9,1.6,1.02,1.32,4.26,1.49,5.76.06,1.95-1.85,4.21-2.8,6.78-3.23.19-.03.38-.17.54-.3,3.01-2.34,3.53-2.3,5.87.65,2.28-1.17,4.57-1.84,6.36.9.13.19.61.15.94.21,2.8.49,5.57,1.39,8.44.06.53-.25,1.7.11,2.14.58,1.2,1.3,2.18.96,3.5.2,2.32-1.35,4.95.79,4.98,3.96,0,.42,0,.84,0,1.92,3.34-2.75,6.23-6.22,10.3-1.66,1.2-1.14,2.42-2.3,3.74-3.55-.2-.11-.42-.23-.64-.35-1.16-.63-3.12-1.08-3.31-1.93-.48-2.08-.44-4.4-.03-6.51.4-2.03,3.84-3.52,6.14-3.1.14.03.28.01.42.03,3.41.33,3.47.44,1.59,3.09-.06.09.02.27.03.41,3.14.83,3.29,1.01,3.35,4.2.04,2.31.6,2.9,2.89,2.85,1.57-.03,2.53.37,2.93,2.13.81,3.52,5.22,6.31,8.75,5.98,1.02-.09,2.1.59,3.17.72,1.79.23.98,1.51,1.1,2.42.2,1.5,3.08,3.53,4.38,3.01,1.39-.56,2.81-.97,3.9.27,1.16,1.32,1.22,2.9.11,4.4-.24.33-.43.71-.93,1.55,1.91-.19,3.46-.22,4.95-.53,1.47-.3,2.4-.04,3.4,1.25.77.99,2.27,1.43,3.42,2.1,1.8-1.26,2.6-.99,5.3,1.75,7.63-2.29,9.61-1.48,9.39,3.99,1.93,1.04,4.27,1.97,3.47,5.21,1.38-1.36,2.75-2.72,4.14-4.07,2.57-2.49,4.36-2.07,5.71,1.2.35.84,1.29,1.4,1.76,2.21.48.82.7,1.79.96,2.49,1.67.25,3.72-.02,4.72.88.95.85.81,2.93,1.22,4.82,1.25-.43,2.7-.92,4.39-1.49.32,1.62.6,3.03.88,4.47,2.03-1.06,1.03-2.89,1.19-4.31.2-1.81.6-3.3,2.04-4.56,1.09-.95,2.03-2.11,2.82-3.32.98-1.5,2.35-1.71,3.61-.94,1.41.85.89,2.29,0,3.28-1,1.12-2.26,2.01-3.39,3.01-1.49,1.32-3.22,2.49-2.88,5.24,1.46-1.19,2.93-2.36,4.37-3.57,1.62-1.37,3.17-1.36,4.24.3.38.6.44,1.71.15,2.37-.47,1.06-1.42,1.89-2.02,2.9-.58.99-.97,2.08-1.44,3.13.27.2.54.39.81.59,1.27-1,2.69-1.86,3.79-3.03,2.11-2.24,4.59-3.16,7.64-3.18,1.71-.01,3.38-.72,4.67,1.14.94,1.36,1.24,2.53-.14,3.72,1.21-.38,2.32-.95,3.46-1.03,1.94-.13,2.92,1.48,2.35,3.4-.95,3.16-2.63,5.9-4.76,8.38-.23.26-.76.57-.71.72.69,2.23-1.76,3.06-2.12,4.82-.09.46-.77.78-1.02,1.25-.58,1.09-1.27,2.19-1.51,3.37-.26,1.26-.06,2.61-.06,4.1-2.41-.07-2.09,2.58-3.26,3.97-.4.48-.98.81-1.48,1.21-.15-.19-.31-.38-.46-.57.42-.55.84-1.09,1.27-1.64l.1.33c-2.22,1.3-4.61,2.4-6.61,3.99-1.29,1.02-2.46,2.64-2.88,4.21-.71,2.66-2.23,4.58-3.8,6.71-.97,1.31-2.91,3.24-1.11,5.68-1.1.43-2.1.71-2.96,1.21-.71.41-1.72,1.03-1.8,1.66-.27,1.97-1.55,2.38-3.11,2.88-.46.15-.57,1.43-.91,2.39-2.02.03-3.53,1.08-4,3.51-.11.56-.84,1.02-1.32,1.5-2.26,2.27-4.53,4.53-6.79,6.81-.59.59-1.22,1.18-1.66,1.87-.65,1.02-1.73,2.22-1.6,3.2.3,2.24-1.07,4-2.28,4.61-1.37.69-2.13,2.07-3.55,2.46-2.04.58-4.21.69-5.67,2.64-.99,1.32-2.89,2.19-3.36,3.6-1.09,3.25-4.02,4.76-5.93,7.19-2.57,3.26-5.45,6.29-8.27,9.35-1.54,1.68-3.27,3.18-4.83,4.84-.36.38-.51,1.06-.55,1.62-.12,1.57-.23,3.03-2.43,2.82-.4-.04-.9.29-1.25.57-1.8,1.43-3.36,3.35-5.39,4.25-2.85,1.26-3.8,4.35-6.42,5.72-.64.33-.89,1.38-1.37,2.05-.64.89-1.38,1.7-1.98,2.61-.37.56-.54,1.24-.8,1.86-.29.68-.53,1.39-.88,2.03-.34.62-.95,1.13-1.18,1.78-.43,1.22-.97,1.48-1.79.64-.67.73-1.34,1.43-1.98,2.17-.33.39-.57.86-.91,1.24-.44.51-.9,1.02-1.42,1.46-1.19,1-2.55,1.83-3.61,2.95-1.49,1.57-2.75,3.36-4.16,5.01-.38.45-.99.71-1.41,1.13-.81.81-2.01,1.29-1.66,2.95.15.7-.79,1.64-1.25,2.46-.49.88-1.45,1.77-1.41,2.62.13,2.57-1.84,3.02-3.42,3.92-.54.3-1.21.4-1.7.76-2.84,2.08-5.6,4.27-8.47,6.29-1.22.86-2.68,1.37-4.01,2.09-2.1,1.15-4.23,2.28-6.25,3.56-.77.49-1.24,1.44-1.91,2.11-1.92,1.95-3.9,3.82-6.65,4.61-.49.14-.88.65-1.3,1-1.68,1.42-2.52,1.2-3.24-.97-.46,1.2-.7,2.43-1.36,3.37-.7.98-1.8,1.68-3.07,2.8-.3-.6-.58-1.15-.85-1.67-1.97.91-2.2,3.9-4.83,3.49-.51,1.37-.95,2.98.9,4.22.21.14.09,1.38-.23,1.61-.66.46-1.54.67-2.36.8-1,.17-2.03.15-2.98.58-.61-.3-1.23-.61-1.61-.8-.38.88-.63,2-.91,2-2.57.05-2.84,2.19-3.6,3.81-.67,1.45-1.15,2.79-3.27,2.38-.75-.14-1.78.42-2.49.94-2.39,1.74-4.91,3.08-7.91,3.26-.61.04-1.25-.18-1.83-.05-.68.16-1.31.55-1.94.88-.3.15-.54.53-.83.55-3.16.19-4.3,2.98-6.15,4.83-.36.36-.18,1.25-.26,1.93-1.7.75-3.69,1.14-4.77,3.02-.18.32-.96.66-1.17.53-1.49-.91-2.29.39-3.3.94-.92.49-1.8,1.54-2.68,1.53-3.21-.04-6.3.49-9.36,1.35-.77.22-1.68.36-2.25.85-1.68,1.46-3.19,3.11-4.83,4.63-.48.45-1.12.9-1.74,1-2.53.4-5.08.67-7.24.94-.7,1.04-1.22,1.95-1.88,2.75-.89,1.07-1.79,2.19-2.87,3.04-.94.74-2.14,1.13-3.23,1.68-1.07.54-2.48.8-3.16,1.65-2.35,2.9-4.72,5.54-8.28,7.2-2.06.96-3.46,3.32-5.18,5.03-.74.73-1.5,1.46-2.34,2.06-1.67,1.21-3.47,2.25-5.09,3.51-1.61,1.26-2.55,1.23-3.58-.48-.66-1.09-1.34-1.44-2.57-.66-.83.53-1.95.59-2.89.99-1.39.58-2.88,1.07-4.05,1.95-2.08,1.58-3.85,1.91-6.28.45-3.46,3.62-6.92,7.38-10.57,10.94-.6.59-2.27.73-3.06.32-.88-.46-1.38-1.74-1.91-2.73-.19-.36.01-.94.04-1.57-1.78.24-3.72-.62-4.71,1.72-.2.47-1.29.96-1.83.83-1.9-.45-2.48,1.01-3.56,1.94-1.45,1.25-3.13,2.39-4.9,3.06-.97.37-2.35-.31-3.91-.58-.16.24-.61.93-1.18,1.8-1.39-.46-2.79-1-4.23-1.37-2.37-.61-4.04,1.03-5.84,2.07-.7.41-1.29,1.09-1.8,1.75-1.55,2.01-3.05,3.32-6.11,3.01-2.47-.26-4.75,1.74-6.51,3.75-.69.79-1.33,1.68-2.19,2.24-1.8,1.18-3.8.25-5.09-2.19-.52,3.94-4.33,7.19-8.45,7.39-1.03.05-2.06.57-3.05.96-1.7.67-3.36,1.47-5.08,2.09-.68.24-1.48.1-2.22.18-3.42.39-6.42,1.75-9.05,3.95-1.1.92-3.3.82-3.93-.49-.79-1.63-1.92-2.01-3.34-1.49-2.2.81-3.54-.33-4.62-1.72-1.91.26-2.46,2.75-4.18,2.53-2.49,2.33-4.99,4.68-7.5,7-.25.23-.68.5-.93.43-2.93-.77-5.21,1.29-7.84,1.65-1.28.18-2.72-.73-3.98-1.11-1.06.41-2.13.82-3.28,1.27-.39,2.46-.73,2.55-3.67,2.28-2.12-.19-4.12.15-6.18,1.25-2.07,1.11-4.69,1.19-7.05,1.76-.58.14-1.1.47-1.66.69-1.13.44-2.27,1.21-3.42,1.23-3.65.04-7.31-.32-10.96-.28-1.52.02-3.03.67-4.55,1.02-1.53.35-2.89.8-4.64.06-.98-.41-2.25-.25-3.32-1.15-2.81-2.36-2.4-4.09-.41-7.33,1.85-3.03,4.95-4.57,7.92-6.24,1.27-.71,2.62-1.29,3.86-2.04,1.22-.74,2.33-1.65,3.51-2.45.74-.5,1.47-1.28,2.27-1.38,2.52-.3,5.08-.4,7.62-.47,2.43-.06,4.87.03,7.3,0,.4,0,.79-.23,1.18-.36,1.26-.43,2.49-1.04,3.79-1.28,2.75-.51,5.54-.75,8.28-1.3.7-.14,1.21-1.07,1.9-1.51,2.01-1.27,4.26-.82,6.29-.35,2.44.57,4.41.2,6.39-1.23,1-.72,2.21-1.21,3.4-1.59,1.43-.46,2.68-.24,3.64,1.23.57.88,1.6,1.45,2.7,2.41.3-1.83,2.82-1.8,2.18-3.92-.04-.12.79-.56,1.25-.75,1.33-.57,2.65-1.34,4.05-1.53.8-.11,1.81.65,2.58,1.22,2.01,1.48,4.03,1.11,6.2.42.96-.31,2.13-.32,3.13-.1,1.72.38,3.23.27,4.47-1.06,1.25-1.33,2.65-1.88,4.53-1.65,1,.12,2.07-.48,3.13-.69.73-.14,1.62-.46,2.19-.18,1.42.7,2.62.21,3.42-.71,2.48-2.89,6.45-4.18,8.19-7.92.7-1.49,2.34-2.04,4.14-2.04,1.2,0,2.4-.5,3.6-.79.2-.05.41-.32.55-.28,3.1.88,5.22-1.93,8.04-2.11.26-.02.61-.25.77-.14,2.44,1.59,2.62-.46,3.16-1.93.13-.37.24-1,.45-1.04,3.28-.61,4.6-3.63,6.89-5.44.5-.39,1.64-.25,2.36,0,1.33.44,2.53.39,3.91.19,1.67-.24,3.42.15,5.14.3.58.05,1.35.46,1.71.22,1.67-1.11,3.56-2.14,4.7-3.69.9-1.22,1.88-1.87,3.02-1.64,2.17.44,3.76-.71,5.56-1.38.71-.27,1.57-.14,2.29-.39.82-.28,1.74-.61,2.33-1.21,2-2.02,3.9-4.09,7.15-3.54.16.03.46-.08.53-.2,1.53-3.14,4.96-2.7,7.4-4.08,1.39-.78,3.37-.05,4.34-1.89.16-.31,1.71.21,2.6.16,1.46-.09,2.92-.3,4.37-.52.52-.08,1.03-.28,1.51-.5,1.1-.52,2.18-1.09,3.25-1.65,1.38-.73,2.75-1.5,4.13-2.23,1.63-.87,3.25-1.76,4.92-2.55.97-.46,2.06-.69,3.04-1.14,1.29-.59,2.57-1.23,3.79-1.97,1.24-.75,2.38-1.65,3.56-2.5,1.03-.78,2.05-1.6,3.11-2.34.88-.61,1.82-1.13,2.72-1.7,1.43-.9,2.76-2.1,4.32-2.65,2.75-.98,4.27-3.3,6.25-5.12,1.48-1.36,2.59-3.17,5.02-3.05.51.02,1.36-.71,1.54-1.26.76-2.27,2.38-3.78,4.16-5.17,2.16-1.68,4.35-3.33,6.61-4.88.47-.32,1.29-.13,2.12-.19.05-.58.1-1.26.19-2.47,1.05.4,1.91.73,2.18.84h5.14c1.64-1.41,3.15-2.7,4.78-4.1.18.36.4.79.72,1.43.68-.89,1.77-1.66,1.85-2.53.28-2.86,2.66-3.61,4.49-4.77,2.73-1.73,5.76-2.99,8.53-4.67,2.16-1.31,4.15-2.92,6.15-4.48.46-.36.67-1.03,1.19-1.18.66-.24,1.37-.4,1.97-.74,1.26-.73,1.91-2.03,3.74-2.43,1.43-.31,2.4-2.77,3.54-4.3.8-1.07,1.69-2.11,2.31-3.28.72-1.37,1.18-2.88,1.66-4.11.76-.63,1.46-1.22,2.16-1.79.59-.49,1.13-1.26,1.8-1.41,2.79-.6,4.15-2.88,5.94-4.67,1.8-1.8,3.73-3.48,5.5-5.32,1.11-1.15,1.05-4.19.08-5.62l.06.07c-.11-.78-.23-1.57-.34-2.35.25-1.72-.96-2.38-2.2-3.01Zm50.07-182.77c.32,2.12,4.12,3.38,5.96,2.4-1.92-.77-3.78-1.52-5.96-2.4Zm-15.47.67c-.26-.1-.52-.2-.77-.3-.75.64-1.5,1.29-2.74,2.36,1.33.43,2.16.69,2.99.96.17-1.01.35-2.01.52-3.02Z"/>
      <path class="cls-1" d="m375.17,125.01s.24-.5.65-.68c.93-.41,2.26-1.17,2.84-.82.69.42.99,1.84,1.06,2.85.1,1.38-.25,2.79-.27,4.19-.05,3.62-1.02,4.62-4.23,4.6.37.29,1.29.68,1.49,1.31.15.46-.58,1.28-1.03,1.84-1.02,1.25-2.53,1.67-3.74.8-.7-.51-.71-1.99-1.01-3.04-.18-.63-.32-1.27-.54-2.17-2.37,2.27-4.47,4.28-6.57,6.29-.75.72-1.42,1.82-2.29,2.02-.85.2-2-.39-2.85-.9-.74-.44-1.25-1.8-1.87-1.8-1.68-.02-3.37.47-5.05.77-.12.02-.25.16-.31.28-1.59,3.16-4.48,2.73-7.28,2.74-1.6,0-2.66-.67-3.07-2.05-.51-1.71-1.3-1.59-2.43-.72-2.43,1.88-4.82,3.82-7.3,5.63-.74.54-1.74.74-2.61,1.1-.1-.18-.2-.35-.3-.53.84-2.06,1.67-4.11,2.51-6.17-.16-.18-.32-.37-.47-.55-2.39,2.08-4.75,4.61-7.54.77-1.26,1.12-2.41,2.22-3.63,3.22-1.34,1.1-2.57,1.04-3.89-.24-1.68-1.61-2.53-1.46-3.14.64-.79,2.73-3.09,2.68-5.06,2.9-2.03.23-4.42,1.19-5.87-1.54-.77.47-1.38.96-2.07,1.22-1.09.4-2.38,1.12-3.32.82-2.23-.69-4.57-1.56-6.38-2.98-2.54-1.97-2.38-2.19-5-.08-1.73,1.39-3.51,2.73-5.33,4-.47.33-1.18.32-1.78.47-.15-.89-.48-1.8-.39-2.67.05-.5.8-.91,1.19-1.39.64-.77,1.25-1.56,1.87-2.34-.22-.2-.44-.4-.67-.6-1.24,1.27-2.38,2.65-3.74,3.77-1.93,1.58-4.2,2.9-6.74,2.23-3.59-.94-7.01-2.53-10.61-3.37-1.17-.27-3.09.58-3.97,1.55-1.67,1.83-3.58,2.06-5.72,1.88-.44-.04-.87-.58-1.26-.94-.52-.47-.99-.99-1.49-1.48-.02.28-.04.55-.07.83-.99.41-2.01.78-2.98,1.25-1.05.52-2.05,1.14-3.07,1.73-.93.54-1.79,1.32-2.79,1.59-2.12.56-4.34.69-6.45,1.29-2.79.79-4.62-.44-4.5-3.28-1.81,2.45-3.63,4.83-7.29,3.91-.44-.11-1.02.38-1.54.56-1.83.62-3.67,1.21-5.5,1.82-.52.17-1.21.23-1.51.59-1.84,2.22-3.92,2.78-6.61,1.54-.8-.36-1.99-.23-2.88.06-1.92.63-3.3.14-4.35-1.78-5.37,3.65-9.82,8.07-13.91,12.88-.84.99-1.67,2.08-3.15,1.23-.95-.55-.71-2.57.37-3.75.5-.55,1.02-1.1,1.14-1.22-.7-1.26-1.16-2.18-1.7-3.05-.92-1.49-2.03-.43-2.61.15-2.86,2.87-5.54,5.92-8.36,8.84-2.21,2.29-4.48,4.54-6.81,6.71-1.42,1.32-2.77.85-3.49-1.03-.81-2.12-2.67-2.94-4.87-2.15-1.4.51-2.47.15-4.53-1.65-2.02,1.93-4.06,3.9-6.14,5.83-.65.6-1.36,1.25-2.17,1.57-1.54.61-2.43-.21-2.77-1.83-.27-1.29-.86-2.58-1.61-3.65-.26-.38-1.72-.47-2.13-.12-2,1.71-3.82,3.63-5.72,5.46-.45.43-.89.96-1.44,1.15-.57.2-1.46.3-1.86-.01-.38-.3-.46-1.19-.4-1.79.07-.67.43-1.31.7-2.02-.85-.65-1.66-1.27-2.83-2.17-1.84,1.71-3.71,3.45-5.58,5.19-.31.28-.58.62-.94.83-1.17.7-2.63.76-3.04-.53-.27-.85.52-2.21,1.15-3.13.57-.85,1.56-1.41,2.37-2.11-1.92-.27-3.56-.49-5.25-.73-.1,1.08,0,2.56-.4,3.89-.94,3.07-2.6,3.4-5.14,1.42-.54-.42-1.87-.44-2.44-.06-1.32.88-2.36,2.15-3.57,3.21-.86.75-1.81,1.42-2.71,2.12-.58-.87-1.16-1.74-1.75-2.6-.07-.1-.22-.14-.48-.29-.21.31-.45.61-.61.95-1.12,2.38-2.98,4.06-5.6,3.59-3.37-.6-4.91,1.66-6.49,3.62-1.32,1.64-2.5,3.1-4.63,3.64-.63.16-1.12.91-1.84,1.54,1.72,1.17,2.75,3.09,4.81,1.23.27-.24,1.04-.28,1.32-.07.25.19.34.96.15,1.29-.42.74-.94,1.51-1.62,2.02-2.38,1.81-2.93,4.61-1.22,6.8.08.11.2.27.31.27,2.89.24,3.05,3.18,4.63,4.71.26.26.52.84.41,1.12-.8,2.01-.04,4.31-1.85,6.23-3.39,3.59-6.68,7.23-10.58,10.31-1.27,1-2.1,2.61-2.94,4.06-.25.43-.02,1.34.28,1.87.93,1.66.51,2.83-.89,4.02-2.52,2.13-5.03,4.3-7.29,6.69-.71.75-.89,2.29-.83,3.44.09,1.66-.25,2.78-1.98,3.16-1.39.3-2.09,1.07-1.82,2.55,4.28,1.04,5.7,2.27,4.96,4.89,3.21-2.66,6.12-5.08,9.21-7.64-1.1-.14-2.1.02-2.62-.4-.55-.45-1.08-1.63-.86-2.18.39-.96,1.32-1.73,2.1-2.51,2.45-2.46,4.92-4.89,7.4-7.32.99-.98,2.01-1.93,3.04-2.87,2.87-2.62,5.85-5.13,8.59-7.87,2.01-2.02,3.63-4.41,5.58-6.5,1.13-1.21,2.43-2.52,3.91-3.04.93-.32,2.34.75,3.58,1.22-1.78,3.84-4.11,7.07-7.49,9.45-1.39.98-2.38,2.04-2.33,3.92.03,1.26-.36,2.47-1.93,2.86-.46.11-.81.72-1.19,1.11-1.12,1.13-2.33,2.18-3.31,3.42-.66.83-1.54,2.05-1.35,2.88.37,1.66-.54,2.29-1.46,3.16-1.61,1.51-3.21,3.04-4.73,4.65-2.23,2.36-4.38,4.79-6.57,7.18-1.14,1.24-2.69,2.08-2.64,4.25.02.79-1.28,1.83-2.2,2.37-1.57.93-2.03,2.29-2.36,3.92-.16.77-.77,1.46-1.04,1.94.09.88.15,1.55.22,2.23-.75.06-1.56.34-2.24.15-1.73-.48-4.47,1.08-5.16,3.09-1.32,3.86-5.77,5.89-9.62,4.37-1.2-.47-1.19-3.15.41-4.04,1.97-1.09,2.6-2.92,3.79-4.51,1.43-1.89,3.63-3.21,5.49-4.78.64-.54,1.43-1.02,1.82-1.72.32-.56.45-1.81.14-2.04-.57-.42-1.8-.68-2.27-.33-.83.61-1.2,1.81-1.95,2.59-2.21,2.32-4.45,4.64-6.84,6.77-.4.35-1.62-.22-2.43-.36-.45,1.63-.85,3.72-2.99,5.3-2.01,1.48-3.45,3.73-5.21,5.57-2.22,2.32-4.37,4.74-6.86,6.74-.77.62-2.9.51-3.73-.14-1.27-.98-.63-2.34.74-3.24.61-.4,1.04-1.08,1.74-1.84-.94.17-1.76.61-2.18.36-3.14-1.83-3.86.86-5.22,2.56-.73.91-.78,2.71-2.71,2.39-.19-1.33-.55-2.64-.49-3.92.04-.75.61-1.61,1.2-2.16,1.4-1.32,2.93-2.52,4.46-3.68.41-.31,1.04-.34,2.02-.62.19-.92.34-2.3.77-3.6.32-.97.74-2.21,1.51-2.68,3.63-2.21,6.48-5.08,8.55-8.77.41-.72,1.16-1.27,1.47-2.02.32-.76.71-1.98.36-2.45-.94-1.24-.3-2.11.44-2.76,2.08-1.82,4.04-3.64,4.29-6.64.02-.23.48-.43,1.19-1.03.14,3.16.26,5.88.38,8.6.16.02.32.03.49.05.15-1.69.47-3.39.4-5.08-.12-2.92.38-5.35,2.75-7.49,2.45-2.21,4.54-4.88,6.55-7.52.74-.97.8-2.45,1.18-3.69-.23-.11-.46-.22-.68-.34-2.53,1.81-5.05,3.61-8.04,5.75-.14-3.61-2.57-6.36-.49-9.73.53-.87-.16-2.55-.42-3.83-.86-4.33-.81-8.42,2.74-11.73.32-.29.45-.81.6-1.24.2-.58.18-1.32.54-1.74,1.25-1.47,2.59-2.88,3.97-4.23,1.52-1.49,3.35-2.71,4.63-4.37,2.36-3.05,5.59-4.95,8.51-7.29,3.51-2.82,6.65-6.1,9.95-9.18.56-.52,1.11-1.05,1.72-1.49,1.52-1.06,3.03-2.13,4.63-3.07.9-.53,1.96-.81,2.94-1.21.77-.31,1.8-.43,2.25-1,2.2-2.84,5.53-4.66,7.08-8.14.78-1.76,2.92-2.17,4.78-1.22,1.13.58,1.79.41,2.51-.53.51-.66,1.39-1.1,1.72-1.81,1.27-2.81,3.48-3.15,6.32-2.53.14,1.59.29,3.26.44,4.93,1.31-1.11,1.86-2.18.81-3.53-1.14-1.46-.37-2.87.48-4.06.87-1.22,2.09-1.63,3.71-1.06,2.65.93,5.08.03,6.81-2.21,1.51-1.95,2.81-1.97,5.16.07.53-.5,1.14-.96,1.63-1.53,1.34-1.55,2.72-2.11,4.51-.59.31.26,1.18.13,1.62-.13.59-.34,1.06-.93,1.49-1.48,2.1-2.67,3.04-2.71,5.2-.15,1.63,1.92,4.95,2.41,7.53,1.41,1.79-.69,4-1.78,5.56-1.28,2.58.84,5.28,1.19,7.81,2.16.45.17.85.46,1.52.84,1.87-2.03,3.76-4.03,5.6-6.07,1.8-1.99,3.28-1.68,4.71.67h4.33c.97-.77,2.44-1.26,4.48-1.13,1.31.08,2.74-1.74,4.13-2.7,1.05-.73,2.1-1.46,3.17-2.16.4-.27,1-.36,1.25-.71.84-1.21,1.6-2.17,2.96-.53.11.13.96-.05,1.08-.28.75-1.51,2.07-1.37,3.43-1.48.8-.07,1.71-.52,2.3-1.09,1.46-1.42,2.69-2.79,5.1-2.86,1.25-.04,2.66-1.48,3.66-2.6,2.89-3.25,4.05-3.21,6.84,1.35.42-.8.76-1.67,1.3-2.39.49-.66,1.1-1.44,1.82-1.65.8-.24,2.22-.22,2.56.26.47.66.43,1.95.12,2.8-.27.77-1.19,1.31-1.93,2.06,1.27.7,2.2.56,3.17-.49,1.77-1.9,3.63-3.72,5.5-5.52,1.8-1.73,2.47-1.6,4.07.2.44.49,1.5.92,2.06.73,2.17-.75,4.08-1.55,5.99.74.84,1.01,2.43,1.4,3.69,2.07-.04.23-.07.47-.11.7.49-.45,1.15-.81,1.44-1.36,1.15-2.14,2.96-1.88,4.91-1.68.84.09,1.94-.21,2.57-.75,2.42-2.08,4.7-4.33,7.03-6.52,2.13-2.01,3.77-1.56,4.47,1.23.63,2.54,2.22,3.24,4.46,2,.86-.48,1.83-.8,2.61-1.38,1.23-.92,2.43-.85,3.44.11,1.19,1.12,1.98.57,2.84-.31,1.28-1.31,2.49-2.7,3.88-3.89.67-.57,1.68-1.09,2.49-1.04.54.04,1.41,1.11,1.42,1.74.02.73-.58,1.64-1.16,2.21-1.14,1.12-2.82,1.76-2.91,3.72,0,.14-.56.26-1.24.56,2.94.09,4.52-1.61,5.94-3.24,2.61-2.99,3.51-3.24,7.01-1.02.41-.49.84-1,1.27-1.52.4-.48.73-1.26,1.22-1.38,1.18-.3,2.45-.29,3.68-.41.09,1.12.58,2.41.18,3.32-.65,1.48-1.87,2.71-2.95,4.18,2.31.63,3.54-1.13,4.93-2.13,1.46-1.04,2.57-2.56,3.9-3.79,1.07-.98,2.22-2.23,3.78-.85,1.27,1.12,1.09,2.74-.3,4.41-.22.27-.44.53-.65.78,1.18,1.05,2.92,1.89,3.25,3.11.3,1.13-.91,2.67-1.62,4.46.78-.25,1.28-.28,1.33-.44.92-3.04,3.96-4.17,5.75-6.44,1.39-1.76,3-1.86,4.79-.54,1.72,1.27,2.97.24,4.09-.73,1.79-1.56,3.44-3.28,5.05-5.02,1.59-1.72,3.32-1.59,4.61.36.26.4.92.53,1.39.78.97.52,2.21.81,2.85,1.59,1.13,1.39,3.47,2.49,5.1,1.71,1.59-.76,2.96-.61,4.35.34,1.49,1.02,2.85,1.06,4.02-.53.9-1.22,2.12-1.51,3.63-1.69,1.21-.15,2.39-1.19,3.4-2.05,1.32-1.11,2.55-1.52,4.23-.76.54.24,1.57-.12,2.14-.54.83-.61,1.31-1.97,2.16-2.19,1.3-.34,2.78.03,4.75.12Z"/>
      <path class="cls-1" d="m57.54,317.85c1.83-.34,3.93.42,5.42-1.43.21-.26,1.29-.22,1.52.06.32.38.33,1.13.29,1.7-.16,2.99-2.48,4.59-4.23,6.59-.36.41-.49,1.21-.4,1.78.22,1.33.64,2.63.96,3.95.54,2.23-1.05,3.01-2.55,4.04-1.69,1.16-3.28,2.54-4.66,4.06-.63.7-.64,1.96-1.07,3.46,2.84-1.56,5.06-3.66,7.41-3.82,2.18-.14,3.56-1.02,4.97-2.1,1.74-1.33,3.19-3.04,4.82-4.52.54-.49,1.24-.81,1.92-1.24,1.05,1.31,1.1,2.36.13,3.53-.42.5-.62,1.24-.76,1.9-.32,1.53-.73,2.77-2.35,3.63-1.03.55-1.6,2.01-2.29,3.12-.88,1.43-1.48,3.09-2.57,4.32-1.08,1.22-2.61,2.04-3.95,3.03,2.69,2.69,1.56,3.59,5.27,1.02,2.02-1.4,4.31-.84,5.97,1.42.7.95-.37,4.11-1.64,5.02-.9.65-1.85,1.3-2.56,2.13-.4.47-.52,1.3-.53,1.97-.02,1.33.26,2.68.15,4-.11,1.28-.56,2.33,1.1,3.16.73.37,1.48,2.33,1.14,2.88-1.33,2.13.03,3.9.26,5.75,1.2-.23,2.63-.97,3.55-.57,1.71.74,3.36,1.97,4.56,3.39.51.6.12,2.35-.36,3.32-.63,1.26-1.81,2.24-2.68,3.39-.21.27-.36.87-.21,1.09,1,1.42,2.05,2.81,3.16,4.16.66.8,1.32.97,2.32.18,1.48-1.16,3.35-.25,3.48,1.66.18,2.65.4,5.29-2.31,7.17-2.18,1.51-3.57,3.58-2.43,6.51.21.53.15,1.37-.14,1.84-1.68,2.64-3.46,5.2-5.15,7.7h1.53c.96,2.48.91,2.37,3.41,1.39,1.04-.41,2.31-.28,3.47-.34,1.2-.07,2.41-.2,3.6-.08.64.06,1.51.42,1.79.91.99,1.76.29,3.7-1.4,4.92-.41.3-.61,1.03-.69,1.59-.2,1.37-.28,2.76-.41,4.14l-.73.06c.22.24.55.45.63.73.78,2.72,3.1,2.15,5,2.26.64.04,1.4-.48,1.96-.93.76-.62,1.36-1.43,2.06-2.12.81-.81,1.85-1.85,2.73-.45.42.66.15,2.18-.37,2.91-.82,1.14-2.11,1.94-3.32,2.98.36.49.69,1.02,1.1,1.46,1.1,1.18.97,2.43-.16,3.31-2.27,1.77-3.34,4.02-3.29,6.84,0,.46.23,1.09.57,1.32.26.17.98-.02,1.29-.29,1.42-1.22,2.65-.95,3.88.34-.11.72-.36,1.48-.33,2.23.07,1.25-.02,2.7.6,3.66.49.76,1.94.87,2.95,1.32.57.25,1.13.55,1.66.89,3.05,1.9,5.54.82,7.44-1.68.38-.5,1.1-.74,1.66-1.11.22.66.71,1.37.6,1.96-.26,1.41.11,2.18,1.44,2.82,2.72,1.32,3.85,5.64,2.22,8.06-.27.4-.7,1.04-1,1.01-2.2-.22-2.51,1.34-3.3,2.84-.64,1.2-2.16,1.93-3.27,2.89-.32.28-.55.65-.91,1.08,1.94.37,3.62.69,5.66,1.07.17-.46.5-1.27.77-2.09.57-1.71,2.13-2.2,3.66-1.16.61.42,1.33.69,1.9,1.15,2.05,1.65,4.51.98,6.79,1.2,1.56.15,1.79.68,1.85,2.25.11,2.77-1.33,4.74-2.73,6.73-.45.63-1.76.75-2.71.89-1.01.15-2.05.03-3.33.03,2.28.38,4.28.74,6.29,1.04.44.07.92-.16,1.35-.08,1.36.25,3.12.16,3.96.98,1.06,1.04.04,2.45-.93,3.47-.33.35-.61.76-1,1.26.9.65,1.74,1.25,2.82,2.04.22-.8.35-1.58.66-2.28.33-.71.7-1.55,1.3-1.96,1.35-.92,2.78-1.9,4.32-2.28.88-.22,2.35.42,2.98,1.16.87,1.02,0,1.84-.97,2.71-2.92,2.67-5.79,5.43-8.35,8.44-.87,1.02-.78,2.87-1.25,4.8,1.73-1.81,2.93-1.37,4.11-.14,2.56,2.67,2.75,5.21.37,7.99,2.7-.17,4.8-.96,5.73-3.52.51-1.39,1.42-1.8,2.74-1.72,2.21.14,4.41.24,6.62.43.67.06,1.33.35,2.03.55.49-.49.9-1.13,1.48-1.45.92-.5,2.06-1.24,2.9-1.04.73.17,1.56,1.46,1.68,2.35.28,2.03.85,3.11,3.1,2.23.29-.11.94.07,1.08.31.15.26-.04.78-.19,1.14-.29.72-.65,1.41-.79,2.32,1.32-1.73,2.84-2.22,4.83-1.53.4.14.99-.39,1.51-.47.58-.09,1.63-.19,1.7,0,.24.67.49,1.82.13,2.15-1.22,1.13-2.62,2.12-4.09,2.9-1.82.98-2.27,2.3-2.22,4.35.04,1.86-.72,3.74-1.15,5.61-.24,1.06-.53,2.1-.95,3.78,1.09-.54,1.62-.93,2.2-1.05.96-.2,1.95-.23,2.93-.32.05.98.29,2,.11,2.93-.3,1.51-.89,2.96-1.51,4.91.88-.35,1.2-.6,1.47-.56.94.14,2.34.1,2.67.65.37.64-.02,1.93-.43,2.77-.47.96-1.32,1.72-2.01,2.57.25.18.51.35.76.53.27-.48.53-.98.83-1.45.39-.61.81-1.7,1.22-1.69.68,0,1.36.7,2.09,1.14-.71.88-1.21,1.5-1.85,2.31,2.49.85,5.74.74,4.52,4.77.57-.05.97-.09,1.49-.14-.13-.28-.24-.44-.27-.61-.09-.63-.44-1.5-.16-1.85.66-.82,1.63-1.39,2.47-2.06.43.86,1.04,1.68,1.23,2.59.16.77-.28,1.65-.23,2.47.1,1.77-.03,3.38-1.62,4.06.57,1.11,1.38,2.07,1.52,3.11.2,1.44-1.12,1.97-2.53,1.68-2.88-.59-5.8-1.09-8.73-1.31-1.92-.14-3.51-.17-3.63-2.65-.02-.43-.66-.82-.97-1.26-.63-.88-1.23-1.78-1.65-2.39-1.22.47-2.76,1.1-4.34,1.66-2.04.72-3.15-.87-4.49-1.73.53-2.19,1.01-4.19,1.52-6.29-.51.11-1.15.35-1.8.36-1.43.03-2.9-1.58-2.29-2.85,1.73-3.64-.57-5.37-3.28-7.35,1.07-1.35,2.1-2.65,3.24-4.08-.14-.71-.16-2-.65-3.08-.5-1.1-1.35-2.09-2.22-2.96-1.01-1.02-2.2-1.85-3.54-2.96.02-.02-.51.21-.89.6-.94.96-1.94.91-2.79.07-1.24-1.22-1.95-1.08-2.94.38-1.72,2.54-3.89,2.6-5.82.44-1.3.65-2.6,1.81-3.87,1.78-1.25-.03-2.46-1.29-3.74-2.05-.56.77-1.03,1.56-1.64,2.2-.78.81-1.71,1.32-2.74.33-1.09-1.06-.45-2.12.4-2.68,1.61-1.06,3.45-1.77,5.11-2.76.93-.56,1.8-1.32,2.5-2.15.31-.37.37-1.29.11-1.7-.19-.31-1.1-.4-1.6-.26-2.36.67-4.67,1.52-7.05,2.13-.57.15-1.64-.2-1.9-.65-.26-.45,0-1.5.41-1.97,2.01-2.33,4.12-4.57,6.23-6.82.73-.77,1.3-1.66.66-2.59-.33-.48-1.4-.9-1.87-.7-.64.26-1.06,1.12-1.53,1.75-.11.14.03.49-.08.61-.78.85-1.56,1.71-2.44,2.46-.13.11-1.14-.5-1.11-.56.34-.99.77-1.95,1.21-2.91.1-.23.29-.43.5-.73-.79-.25-1.44-.45-2.09-.67-1.84-.63-2.27-1.89-1.18-3.49.36-.52.78-1,1.13-1.53.67-1.01.92-1.73-.77-2.03-.73-.13-1.56-1-1.89-1.74-.4-.92-.38-2.05-.45-3.1-.07-1.05-.01-2.11.23-3.06-.55,1.98-.88,4.07-1.74,5.91-.39.85-1.75,1.48-2.78,1.69-.44.09-1.14-1.17-1.82-1.92-3.77.98-4.39.23-3.22-4.62-.72-.16-1.49-.59-2.14-.44-1.99.46-3.9,1.22-5.89,1.68-.84.19-1.79-.11-2.69-.18.25-.78.32-1.69.78-2.32.61-.83,1.41-1.7,2.32-2.07.97-.4,2.16-.24,3.34.08.71-.54,1.42-1.09,2.31-1.77-.98-.51-1.92-.91-2.78-1.46-1.38-.89-1.19-2.41-.41-3.25,1.9-2.07,3.23-4.76,6.25-5.76.84-.28,1.31-1.65,1.93-2.5-1.78-1.68-3.86-2.09-5.76-1.28-1.26.53-2.31,1.91-3.08,3.14-1.57,2.53-3.06,2.71-4.98.38-.97-1.17-1.92-2.4-3.09-3.35-.67-.54-1.87-.38-2.65-.85-1.02-.62-1.88-1.51-2.78-2.33-1.62-1.48-1.04-3.17-.22-5.09-.93-.23-1.8-.37-2.61-.67-.79-.3-1.92-.59-2.18-1.19-.28-.66.13-1.74.51-2.5.29-.58.97-.99,1.54-1.4,1.89-1.33,1.92-2.33.22-4-1.83-1.8-3.57-3.7-5.43-5.46-.55-.52-1.38-.96-2.12-1.05-2.31-.28-2.64-.49-3.09-2.67-1.4-.4-2.8-.59-3.99-1.19-1.87-.95-1.97-2.78-.52-4.32,1.33-1.41,2.57-2.91,3.85-4.38-.12-.13-.23-.26-.35-.39-.53.07-1.06.16-1.6.2-2.05.13-3.45-1.46-3.21-3.48.29-2.37.47-4.75.7-7.13-.3.08-.61.17-.91.25-.6-1.01-1.48-1.96-1.68-3.04-.11-.62.88-1.44,1.38-2.18-1.16-.15-2.63-.33-4.11-.52-.06-.21-.13-.41-.19-.62,1.46-1.55,2.93-3.09,4.47-4.72-.14-.24-.24-.49-.41-.69-1.87-2.17-1.81-3.27.34-5.1,2.5-2.13,2.15-1.89.12-4.08-1.88-2.03-3.89-2.83-6.42-3.23-1.71-.27-2.38-1.67-2.17-3.33.19-1.44-.21-2.81-1.51-3.05-.85-.16-2.01.79-2.89,1.44-.9.66-1.52,1.71-2.46,2.3-.66.41-2.24.63-2.35.41-.44-.89-.92-2.19-.56-2.97.61-1.34,1.83-2.4,2.78-3.57-2.34-2.41-2.28-3.39.3-6.71,1.83-2.36,1.65-3.18-1.17-4.14-1.83-.62-1.67-2.1-1.33-3.27.33-1.14.92-2.01-.49-2.75-.2-.11-.38-.48-.38-.73,0-3.76-1.28-7.7,1.86-10.99.71-.74.87-2,1.38-3.23-1.64.1-3.33.97-3.76-1.54-.08,3.41-2.76,4.03-4.89,5.28-.96.56-1.68,1.53-2.54,2.28-1.35,1.19-2.69,2.4-4.1,3.52-1.26,1.01-2.6,1.91-4.18,3.07-2.74-.88-3.29-3.32-.83-5.74.62-.61,1.12-1.36,1.73-2.11-1.97-.7-2.78-4-1.76-5.92.73-1.36,1.26-2.83,2.07-4.13.51-.82,1.35-1.45,2.06-2.14.53-.52,1.11-1,1.63-1.53,3.18-3.22,6.35-6.45,9.54-9.67.06-.06.26,0,.58.02.25,1.09.5,2.22.76,3.35-.19-.05-.37-.09-.56-.14.77-2.33,1.52-4.68,2.33-7,.3-.85.61-1.75,1.14-2.46.61-.83,1.35-1.73,2.25-2.14,1.89-.87,3.37-1.67,3.36-4.21,0-.97,1.29-2.03,2.15-2.9.52-.52,1.4-.65,2.01-1.1,1.66-1.21,1.67-2.84,1.02-4.6l-.04.04Zm47.51,170.03c.54-.39,1.3-.66,1.58-1.19.84-1.55,2.01-1.59,3.54-1.33.77.13,1.65-.39,2.48-.61-.04-.27-.08-.53-.13-.8h-7.48v3.92Zm-50.56-138.19q3.41.85,2.81-1.1c-.94.37-1.88.74-2.81,1.1Zm110.8,200.82c-.29-.03-.57-.06-.86-.09v2.36l.44.05c.14-.77.28-1.55.42-2.32Z"/>
      <path class="cls-1" d="m532.4,16.49c-.81,1.57-1.4,2.72-2.23,4.34,1.42.19,3.02.41,4.63.62-.39,2.34-.75,4.51-1.1,6.64.83-.59,2.23-1.17,3.05-2.21,2.79-3.52,2.76-3.6,6.61-2.13-.77,1.63-.12,2.4,1.55,2.26,1.28-.11,2.6-.34,3.81-.77,1.5-.53,2.82-.48,3.63.92.75,1.28,1.13,2.76,1.76,4.12.45.98.88,2.56,1.58,2.72,1.11.25,2.45-.45,3.68-.76,2.27-.59,4.53-1.25,6.83-1.69.24-.05.89,1.11,1.01,1.77.05.29-.71,1.01-1.16,1.07-1.87.27-3.2.74-3.9,2.92-.42,1.33-2.16,2.25-3.24,3.29-.05-.03.35.24.75.51-.02.16-.04.31-.06.47-.78.07-1.59.03-2.32.24-.55.16-1.01.64-1.59,1.03,1.88.42,3.22.91,4.58.98,1.73.08,3.5-.4,5.21-.23,2.17.22,2.85-1.18,3.85-2.55.44-.6,1.52-.86,2.35-.99.29-.05,1.09.9,1,1.12-.3.7-.82,1.35-1.4,1.86-1.03.91-2.14,1.59-1.63,3.38.22.78-.39,1.81-.68,2.71-.15.46-.52.86-.6,1.32-.78,4.56-1.52,5.08-5.58,4.37-.85.31-1.69.64-2.55.93-2.82.94-6.11.57-8.23,3.41-1.03,1.37-2.4,1.03-3.86-.32-2.01.55-3.82,1.25-5.7,1.51-1.96.27-3.12-1-2.85-2.93.27-1.98.58-4.15,2.83-4.89,1.03-.34,2.26-.06,3.56-.06v3.34c1.96-1.28,2.34-1.15,2.94.77.58-3.11.54-3.17-2.61-3.55v-4.73c-.82-.06-1.42-.17-2.01-.13-1.69.12-2.47-.63-2.24-2.36.22-1.68-.21-2.5-2.1-2.88-1.31-.26-3.06-.83-3.16-2.82-.19,1.69-2.43,2.5-3.79,1.18-1.14-1.1-2.08-1.55-3.45-.6-.19.13-.64.15-.82.02-1.63-1.19-3.23.13-4.84.12-.96,0-2.11.74-2.85,1.48-1.54,1.55-2.86,3.31-4.39,5.13-1.25-1.56-1.95-2.74-1.28-4.48.6-1.56-1-3.28-2.53-2.75-1.26.44-2.22-.09-2.28-1.03-.05-.82.79-1.78,1.46-2.48.15-.15,1.22.59,2.24,1.12.18-1.3.59-2.91.57-4.52-.03-2.69.59-5.07,2.16-7.27.24-.34,0-1.43-.38-1.72-1.46-1.13-2.19-6.26-1.39-7.95.35-.75-.51-2-.63-3.05-.19-1.62-.26-3.4,1.3-4.38.75-.47,2.01-.51,2.9-.25,2.38.68,3.56.1,4.29-2.31.28-.93.62-2.15,1.33-2.58.98-.58,2.36-.92,3.09.83.55,1.32,1.38,2.02,2.51.29.56-.86,1.36-1.62,2.19-2.22.68-.49,1.56-.82,2.4-.95.31-.05,1.11.79,1.04,1.03-.23.79-.62,1.65-1.22,2.18-1.19,1.06-2.55,1.93-1.37,3.79.79,1.24.88,2.33-.15,3.63-1.19,1.5-2.47,2.39-4.45,2.15-.61-.07-1.27.22-1.91.35.57.57,1.04,1.36,1.73,1.64,1.12.46,2.38.59,4.08.96Zm-4.84-6.98c-1.22-.34-2.37-.56-2.16,1.37-.73.08-1.47.17-2.2.25.02.08.05.16.07.24,1.33.08,2.66.16,3.72.22.19-.72.37-1.41.54-2.11.14-.59.28-1.18.43-1.81.54-.06,1.05-.12,2.2-.25-1.09-.22-1.56-.31-2.29-.45.74-.19,1.18-.31,1.61-.42-.02-.12-.04-.24-.06-.37-1.23.05-2.46.11-3.69.16.01.22.03.44.04.67.51.1,1.02.21,1.47.3.12.83.22,1.51.32,2.19Zm-5.57,17.44c1.68,1.53,2.87,2.83,3.24-.09.02-.2.49-.3.6-.53.4-.84.74-1.71,1.1-2.57-.15-.04-.29-.09-.44-.13-1.43,1.05-2.86,2.11-4.5,3.32Zm30.59,16.11c0-1.21.05-2.25-.04-3.29-.02-.25-.48-.47-.74-.71-.18.23-.52.46-.53.7-.06,1.11-.13,2.24.02,3.34.07.55.54,1.4.94,1.47.75.13,1.59-.2,2.39-.34-.03-.22-.06-.45-.1-.67-.58-.15-1.15-.3-1.95-.5Zm-9.23-.81c.08-.89-.2-2.22.29-2.6,2.08-1.67.83-3.4.53-5.35-3.23,2.43-.19,5.39-.82,7.96Zm-21.57-13.46c-1.73-2.86-1.91-2.92-4.99-1.22,1.93.47,3.31.81,4.99,1.22Zm39.13,17.47c-.19,1.05-.39,2.14-.54,3.01,1.26-.92,2.52-1.85,4.09-3.01h-3.55Zm-19.09-21.74c-1.33.06-1.93.09-2.78.13.3,1.16.55,2.13.91,3.55.68-1.33,1.16-2.28,1.86-3.68Zm-18.38,13.88c.79-1.9,1.37-3.31,2.08-5.01-1.08.08-1.65.12-2.08.15v4.87Zm-3.34-17.33c-.14-.05-.28-.1-.42-.15-.37,1.11-.74,2.23-1.1,3.34.2.06.39.12.59.18.31-1.12.63-2.25.94-3.37Z"/>
      <path class="cls-1" d="m22.48,330.23c.14-.71.29-1.41.48-2.36-.08,0-.72-.24-1.01-.01-2.2,1.68-3.55.52-4.8-1.43-1.3,1.22-2.54,2.41-3.81,3.55-.4.36-.94.88-1.37.85-.98-.08-2.19-.21-2.81-.82-.37-.37.03-1.74.36-2.55.36-.89.94-1.73,1.57-2.46,1.46-1.67,2.88-3.18,2.82-5.75-.03-1.15,1.16-2.51,2.11-3.47,1.56-1.58,3.46-2.83,5.06-4.38,1.36-1.31,3.23-2.37,3.18-4.68,0-.12.11-.27.21-.36,2.24-2.11,3.2-4.94,4.48-7.63.63-1.32,2.38-2.05,3.43-3.23,2.03-2.28,3.8-4.79,5.89-7,1.2-1.26,2.82-2.12,4.25-3.17.23.09.46.17.69.26,0,1.9-.02,3.8,0,5.69.04,3.03.11,6.05.18,9.08.06,2.51.12,5.02.21,7.53.02.58.15,1.17.65,1.73,0-.89.12-1.79-.02-2.65-.68-4.23.73-7.63,3.84-10.48,2.35-2.15,4.56-4.45,6.9-6.61.37-.34,1.14-.45,1.68-.38,2.7.38,4.22-.28,5.57-2.51.18-.29.43-.66.72-.74.8-.21,1.64-.29,2.46-.42-.29.86-.39,1.85-.9,2.55-1.13,1.53-2.46,2.91-3.7,4.35-.4.47-.77.96-1.16,1.44-.61.76-1.64,1.46-1.77,2.3-.62,3.99-3.95,5.46-6.61,7.58-1.15.92-2.39,1.81-3.26,2.96-.66.87-.73,2.17-1.18,3.22-.44,1.02-1,1.99-1.6,2.93-.08.12-.74-.13-1.07-.2-.58,2.04-1.2,4.22-1.81,6.39.31.82.92,1.77.98,2.76.12,1.79.03,3.61-.19,5.39-.08.61-.75,1.19-1.25,1.68-.9.89-1.89,1.69-2.81,2.57-.26.25-.36.66-.62.91-2.85,2.64-5.69,5.29-8.61,7.86-1.34,1.19-2.86,2.18-4.26,3.31-.8.65-1.86,1.27-2.22,2.15-1.3,3.17-3.83,4.32-6.93,4.61-1.29.12-1.83.56-1.92,1.92-.1,1.48-2.46,2.44-3.46,1.39-.36-.38-.15-2.08.13-2.17,1.81-.6,1.1-1.55.4-2.35-1.21-1.39-1.28-2.46.05-3.96,2.55-2.9,4.87-6,7.21-9.08.83-1.1,1.39-2.4,2.15-3.57.54-.84,1.2-1.6,1.8-2.39-.1-.05-.2-.1-.3-.15Z"/>
      <path class="cls-1" d="m220.54,570.06c.46-.42,1.08-.84,1.49-1.4.79-1.09,1.41-2.37,3.13-1.77,2.12.75,5,.5,5.11,3.95.02.6.56,1.64.95,1.68.83.09,1.82-.17,2.55-.61.53-.32.8-1.13,1.12-1.75.58-1.16,1.49-1.9,2.7-1.29,1.28.64,1.37,1.84.64,3.07-.14.23-.24.49-.59,1.18,1.43.07,2.58.13,4.26.22-.68-.86-.99-1.26-1.34-1.71.23-.3.38-.65.65-.83.7-.48,1.45-.89,2.18-1.33.29.86.65,1.7.86,2.58.32,1.34.55,2.7,1.23,4.17.37-1.24.74-2.47,1.04-3.51,1.14,1.11,2.68,2.18,3.56,3.64.57.94.25,2.47.16,3.72-.03.4-.59.76-.91,1.13-1.96,2.36-2.45,2.35-4.61-.7-.15,1.21-.48,1.96-.28,2.53.99,2.93,1.47,5.77-.35,8.59-.24.37.02,1.15.2,1.68.95,2.76,0,4.35-2.86,4.44-1.87.06-3.53.25-5.03,1.64-1.11,1.03-2.32.38-2.2-1.14.21-2.63.35-5.25,2.59-7.32,1.46-1.34,2.46-3.21,3.51-4.93.21-.34-.13-1.28-.51-1.65-.62-.6-1.47-.96-2.3-1.47-1.06.69-2.12,1.83-3.39,2.14-3.67.88-7.35,1.08-10.6-1.49-.52-.41-1.32-.8-1.92-.71-2.1.32-3.29-.17-2.84-2.34-3.27.15-6.48.29-9.69.44-.28.01-.6,0-.82.12-1.2.7-2.05.49-2.78-.76-.83-1.43.07-2.22.95-3.03.35-.33.81-.54,1.05-.69-.63-1.27-1.79-2.54-1.62-3.59.18-1.09,1.64-1.97,2.76-3.17-.54-.06-1.22-.28-1.82-.17-1.46.29-2.03-.32-2.64-1.63-.46-.99-1.7-1.67-2.7-2.32-.23-.15-1.17.29-1.29.63-.14.38.14,1.25.48,1.42,1.65.82,1.04,1.63.14,2.52-.55.54-1.13,1.06-1.6,1.66-1.44,1.85-2.01,1.82-3.3-.34-.65.55-1.25,1.13-1.94,1.59-.27.18-.74.07-1.11.09.06-.36.02-.98.19-1.05,2.15-.81,1.34-2.26,1.06-3.78-.18-1.01.28-2.14.47-3.32-.85.98-1.66,2.16-2.71,3.04-1.13.95-2.49,1.62-3.56,2.29.18-1.51.4-3.35.63-5.2-.21-.07-.43-.15-.64-.22-.59.34-1.16.71-1.76,1.03-1.65.88-4.04.47-5.24-.89-1.04-1.17-.73-2.53.52-3.66,1.25-1.13,2.29-2.5,3.42-3.76-.23-.21-.47-.43-.7-.64-1.47,1.66-2.94,3.33-4.56,5.16-1.62-1.85-1.06-3.98-.89-5.99.08-.92.35-1.9.8-2.7.27-.48,1.03-.91,1.61-.96,2.37-.24,4.76-.41,7.14-.42.69,0,1.38.6,2.07.92-.4.58-.77,1.18-1.2,1.74-.39.5-.85.96-1.28,1.43.67.44,1.48,1.38,1.98,1.23,1.68-.49,3.29-1.28,4.84-2.12.64-.35.95-1.29,1.59-1.65.66-.37,1.86-.78,2.25-.47,2.62,2.09,4.98,1.01,7.41-.27,1.36-.71,2.38-.42,3.09,1.01.96,1.95,2.45,2.19,4.11.69.05-.05.1-.1.15-.15.91-.78,7.37-1.02,8.31-.31,1.35,1.02,1.89,3.52.62,4.71-1.6,1.51-1.34,3.23-1.4,5.03-.06,1.85-.31,3.69-.53,6.08Zm-7.66-4.52c-.15-.18-.3-.36-.46-.54-.96.82-1.91,1.65-2.87,2.47,2.5,1.03,2.58-.85,3.33-1.93Z"/>
      <path class="cls-1" d="m254.32,593.88c-.96,1.12-1.67,2.2-2.63,2.98-.72.58-1.77.76-2.68,1.12-.1-.82-.22-1.64-.29-2.46-.03-.27.04-.55.08-.95-.67-.18-1.3-.34-2.22-.58.47-.92.86-1.7,1.28-2.52-2.04-1.33-1.83-3.58-2.01-5.57-.04-.42,1.5-1.48,2.14-1.35,1.82.37,2.99.15,3.55-1.81.2-.71.65-1.49,1.23-1.91.82-.6,2.23-1.51,2.74-1.21,1.31.78,3.66.79,3.34,3.35-.09.69.35,1.45.55,2.18.74-.26,1.65-.34,2.19-.83,1.03-.92,1.87-2.06,2.77-3.13,1.25-1.5,2.6-1.54,3.86-.09,1.38,1.59,2.15,1.57,3.47-.07,2.2-2.74,2.19-2.71,5.48-1.83.43.12,1.19-.1,1.46-.43,1.99-2.41,4.08-1.33,6.22-.32.4.19.9.23,1.35.22,1.13-.05,2.27-.27,3.39-.21.61.03,1.19.51,1.79.79-.4.68-.67,1.48-1.22,2.01-1.41,1.35-2.93,2.57-4.89,4.25,1.43.91,2.55,1.99,3.87,2.38,2.38.71,1.77,2.28,1.39,3.96,1.3.39,2.48,1.27,3.55-.35.13-.2.75-.05,1.14-.12.77-.13,1.53-.32,2.3-.44.54-.08,1.1-.06,1.66-.09-.15.61-.1,1.46-.49,1.79-1.52,1.3-3.18,2.43-4.8,4.14.56-.03,1.13.01,1.68-.1.87-.19,1.99-.95,2.52-.65,3.17,1.82,4.74-.73,6.58-2.29,1.26-1.07,2.19-2.53,3.34-3.74.32-.34,1.04-.68,1.34-.53.36.18.62.86.65,1.34.04.76-.15,1.53-.24,2.28,2.45,1.25,2.69,5,.49,7.24-1.36,1.38-2.63,2.85-4.04,4.16-.67.62-1.9,1.54-2.31,1.31-.76-.42-1.1-1.59-1.61-2.46-.1-.17-.15-.38-.33-.88-.63.39-1.13.82-1.72,1.04-.87.32-1.79.56-2.71.72-.85.15-2.01-.19-2.55.26-3.26,2.71-7.6,1.83-11.15,3.54-1.08.52-4.53-1.49-5.43-2.35-2.17-2.07-2.07-4.54-1.74-7.12.14-1.07-.22-1.53-1.34-1.63-1.24-.11-2.45-.6-3.68-.63-.92-.02-1.84.46-2.77.68-.64.15-1.7.49-1.87.26-.38-.54-.55-1.44-.4-2.1.48-2.17-.7-3.51-2.93-3.13-1.24.21-2.51.32-3.7.71-.73.24-1.47.78-1.97,1.39-1.32,1.6-2.28,1.66-3.69-.22Zm37.76,3.67c-.86.6-1.73,1.2-2.67,1.86,2.49,1.47,1.73-1.36,2.67-1.86Z"/>
      <path class="cls-1" d="m370.64,31.7c-1.48-.87-2.81-1.65-4.55-2.67.92-.26,1.56-.44,2.55-.71-2.19-.45-3.74-.17-5.4.96-1.69,1.14-3.95,1.45-5.59,2.64-2.05,1.48-4.28,2.6-5.85,4.99-1.46,2.21-4.26,3.7-6.73,5.03-1.47.79-3.46.54-5.18.93-1.44.33-2.8.98-4.23,1.38-.59.17-1.25.08-1.88.06-.33,0-.71-.24-.99-.15-2.23.8-4.61,1.38-6.62,2.56-1.82,1.07-3.26,2.79-4.83,4.26-1.16,1.09-2.2,2.33-3.44,3.3-.68.54-2.26,1.14-2.44.91-.93-1.14-2.27-2.64-2.12-3.84.42-3.42,3.31-4.99,6.06-6.6,1.57-.92,3.55-1.2,4.37-3.45.47-1.3,2.11-2.21,3.32-3.18.84-.67,1.78-1.28,2.78-1.65.85-.32,1.85-.34,2.78-.33.93,0,1.7.24,2.11-1.08.21-.69,1.31-1.56,2.01-1.56,2.9.01,4.21-2.16,5.95-3.82.58-.55,1.47-.78,2.25-1.09.98-.38,1.97-.72,2.97-1.03.46-.14.97-.3,1.42-.23,3.74.6,6.76-1.07,9.74-2.97.56-.36,1.26-.66,1.9-.69,3.4-.14,5.5-2.44,7.48-4.68,1.76-1.98,6.85-4.04,9.07-2.99.63.3,1.1,1.41,1.22,2.21.29,1.87.39,3.77.44,5.66.04,1.32.02,2.72-1.71,3.13-.18.04-.46.21-.48.35-.49,3.06-2.98,3.25-5.29,3.74-.44.09-.83.44-1.1.58Zm-47.42,13.86c-.24-.19-.47-.39-.71-.58-1.57.69-3.14,1.38-4.71,2.07l.11.38h3.55c.18.76.33,1.41.49,2.07.15-.01.29-.03.44-.04.28-1.3.55-2.6.83-3.9Zm29.91-11.83c.45-.88.62-1.8,1.15-2.11.7-.41,1.67-.35,2.53-.49,0-.06,0-.12,0-.18-.67-.05-1.34-.11-1.98-.16-.12-.6-.22-1.07-.34-1.66-.78.1-1.49.18-1.95.24.19,1.43.35,2.59.58,4.35Zm-11.69,3.73c1.31.06,1.8-.73,1.37-2.47-.07-.26-.35-.47-.54-.71-.23.26-.62.49-.67.78-.13.79-.12,1.6-.16,2.4Z"/>
      <path class="cls-1" d="m425.34,15.6c.73-.39,1.45-.77,2.18-1.16-3.03,0-5.54-1.28-7.88-3.17,1.84-3.87,5.08-4.96,9.05-4.99.06.64.13,1.3.17,1.73,2.12-.26,4.21-.51,6.35-.78.36,1.03.62,1.78.98,2.8,1.53-.53,3.05-1.06,4.99-1.73.83.79.73,4.72,4.05,2.03.82,2.32.3,3.24-1.87,3.19-3.14-.07-6.27-.39-9.4-.42-.94,0-1.89.6-2.8.91.32,1.01.58,1.82.8,2.53.48.08,1.13.19,1.91.33,1.2-2.31,3.31-2.33,5.73-1.9,1.51.27,3.11-.04,4.64.14.66.08,1.25.76,1.88,1.16-.55.68-.97,1.66-1.69,1.99-1.71.79-3.65,1.08-5.31,1.95-1.03.54-1.73,1.73-2.54,2.66-.8.93-1.72,1.11-2.93.99-.99-.1-2.04.27-3.04.5-.83.19-1.35,1.61-2.52.59-.13-.11-.7.04-.86.24-1.55,1.89-3.49.82-5.27.67-.29-.02-.69-.87-.73-1.35-.06-.84.12-1.7.17-2.27-2.82-.96-5.27-1.8-8.19-2.8.97-.8,1.39-1.15,2.05-1.69-.51-.15-.82-.34-.93-.26-1.69,1.22-3.36,2.46-5.01,3.74-.43.34-.91.75-1.11,1.23-.73,1.74-1.73,2.66-3.81,1.22.34,2.65-.82,4.1-2.98,4.76-1.7.52-3.35.32-4.74-.89-1.64-1.42-1.28-2.68.5-3.74.72-.42.8-1.92,1.31-3.32-4.09,1.07-5.02-.44-3.79-4.9h4.01c-.1-.56-.39-1.48-.4-2.4-.01-1.06.49-2.02-1.06-2.7-.86-.38-.63-1.53.66-1.88,2.96-.82,5.24-2.43,6.3-5.5.26-.75.83-1.56,1.49-1.95.6-.35,1.8-.51,2.23-.15.63.54,1.17,1.63,1.1,2.44-.12,1.53-.7,3.03-1.09,4.55,3.63.77,5.77,2.64,5.48,4.66-4.05,1-8.41-.41-12.39,1.26-.02.2-.04.4-.06.6.96.22,1.9.48,2.87.66,4.22.79,8.44-.07,12.67,0,.21,0,.5-.16.61-.07,2.52,1.87,5.02.27,7.53.03.24-.02.51.34.76.52-1.34.28-2.68.55-3.69.76v3.8c-.79.06-1.54.12-2.28.17.01.14.03.27.04.41,1.33-.16,2.67-.32,3.87-.46.04-.71-.08-1.3.14-1.72.54-1.05,1.23-2.02,1.86-3.03Zm5.71,5.27c.07.17.13.34.2.51.97.22,1.95.43,2.73.6.33-.85.7-1.79,1.06-2.72.2.06.39.13.59.19.28.6.56,1.2.87,1.85.39-.74.73-1.39,1.1-2.11-.45-.11-.88-.22-1.68-.43,3.17-.75,5.96-1.42,8.75-2.08-.05-.19-.09-.39-.14-.58-.28-.02-.56-.03-.84-.05-1.47-.07-2.86.6-4.46-.28-.84-.46-3.01-1-3.63.76-.4,1.12-.83,1.83-1.83,2.42-.4.24-.45,1.07-.66,1.64-.66.08-1.36.17-2.06.26Zm-27.76-1.12c-2.91.23-3.66,1.35-3.06,4.27.72.07,1.44.14,1.58.16.94-1.45,1.72-2.66,2.5-3.87.68.65,1.36,1.31,2.26,2.17.53-.72,1.24-1.69,2.15-2.94-1.43-.33-2.33-.54-3.27-.75.07-.54.13-.97.18-1.34h-2.22c-.04.8-.08,1.48-.12,2.3Zm32.51-7.16c-.19-2.93-1.33-4.87-4.13-4.16-1.07,1.1-1.81,1.86-2.55,2.62,1.37-.12,2.69-.58,3.82-1.31,1.19-.77,1.64-.41,1.71.79.04.65-.16,1.31-.26,2.05h1.42Z"/>
      <path class="cls-1" d="m549.78,237.8c-.4-1.04-1.08-2.07-1.14-3.13-.09-1.74-.9-2.35-2.61-2.24.09-1.28-.87-2.61,1.05-3.25,1.9-.64,2.32.52,3.01,2.09.3-.75.76-1.48.88-2.26.22-1.46.3-2.95.32-4.42,0-.47-.3-1.25-.63-1.35-.52-.16-1.29-.04-1.74.28-1,.7-1.87,1.6-3.18,2.76-.05-.72-.25-1.28-.06-1.51.67-.8,1.36-1.72,2.25-2.17,2.25-1.14,2.98-2.99,3.01-5.31,0-.27.07-.53.12-.86,2.83-.67,5.84.45,8.51-1.22-.23-.05-.53-.22-.69-.13-2.32,1.3-4.64-.25-6.96.02-1.17.14-1.67-.47-2.24-1.43-1.63-2.77-2.05-5.28-.1-8.23,1.34-2.03,1.55-4.84,4.3-5.84.5-.18,1.13-.54,1.53-.39,2.65,1.02,3.72-.62,4.55-2.58h3.92c-.24.83-.48,1.65-.69,2.38,1.66-.37,3.56-.79,5.97-1.33-2.61,8.89-5.03,17.09-7.48,25.43-.55-.38-.96-.66-1.18-.81-.17,1.68-.9,3.55-.38,4.95.99,2.65-.6,4.01-1.83,5.72-.28.39-.39.9-.61,1.44-.58.05-1.19.1-1.77.15-.29,1.93-2.55,3.69-5.26,4.2-.3-.31-.59-.62-.89-.94Z"/>
      <path class="cls-1" d="m473.25,20.29c.35-.58,1.04-1.22.93-1.65-.14-.52-.96-.86-1.46-1.29-.4-.35-.77-.73-.98-1.27,1.14.58,2.08,1.48,3.05-.21.2-.36.85-.54,1.33-.64,1.01-.19,2.04-.27,3.06-.39.05-.24.1-.48.14-.73-.75-.28-1.5-.56-2.25-.83-.95-.34-1.9-.7-2.88-.95-.39-.1-.91-.05-1.27.13-.54.28-.94.92-1.5,1.08-.6.17-1.31-.05-1.97-.09.16-.7.13-1.88.51-2.03,1.43-.57,2.98-.81,4.49-1.16.68-.16,1.56-.07,1.99-.47,1.02-.96,1.73-2.25,2.75-3.21.53-.5,1.45-.59,2.49-.98.18,1.14.31,1.99.45,2.84.19,1.24,1.93,1.89,3.34,1.51,1.76-.47,3.59-.69,5.42-1.02.28,3.22-.23,3.83-2.77,3.77-2.21-.05-2.48.3-1.94,2.46.06.26.07.54.09.81,0,.07-.04.13-.12.42,1.99-.27,3.9-.69,5.8-.72,1.56-.03,3.56-.11,4.6.76,1.96,1.64,3.3.08,4.85-.25,1.24-.27,2.39-1.27,3.6-1.31,2.21-.07,4.43.34,6.66.55.29,2.31-.52,3.81-2.66,5.1-.42.25-.6.92-1.02,1.18-1.16.73-2.22,2.02-3.86,1.07-3.5,2.11-8.33,1.45-10.99,5.34-.88,1.28-1.87,2.5-2.91,3.65-.45.49-1.41,1.16-1.72.99-.65-.35-1.03-1.2-1.48-1.88-.14-.21-.11-.52-.18-.93-1.72.98-3.27,1.99-4.94,2.77-1.34.63-2.27.11-3.02-1.29-.43-.8-1.53-1.41-2.45-1.72-2.33-.78-2.76-1.8-1.29-3.63,2.45-3.04,1.75-4.95-1.86-5.75Zm22.95-1.93c-.63.21-1.3.42-1.95.66-1.08.4-2.16.81-3.24,1.22.4.94.79,1.89,1.2,2.83.05.11.19.19.39.38.18-1.37.35-2.66.52-3.95q3.11-.13,3.08-1.14Z"/>
      <path class="cls-1" d="m57.58,317.81c-2.11.03-3.13,1.59-4.3,3-.53.64-1.2,1.37-1.94,1.56-1.99.52-3.31,1.64-4.32,3.39-.31.54-1.16.76-1.76,1.12-.34-.6-.81-1.17-.98-1.82-.17-.66.04-1.41-.06-2.1-.3-2.07.61-2.88,2.5-3.82,2.14-1.07,3.71-3.27,5.57-4.93.53-.47,1.3-1.18,1.83-1.08,3.01.57,4.18-1.79,5.76-3.43,1.79-1.84,3.44-3.82,5.14-5.75.41-.47.73-1.01,1.12-1.5,1.14-1.39,1.88-2.88,4.17-3.31,1.67-.31,3.16-2.28,4.46-3.74,1.72-1.92,3.58-3.2,6.19-3.8,1.6-.37,2.96-1.87,4.38-2.93.3-.23.3-.91.6-1.07.89-.47,1.84-.86,2.82-1.09.23-.06.97.7.92.97-.22,1.02-.41,2.26-1.09,2.93-1.49,1.48-3.38,2.46-4.35,4.58-.71,1.55-2.12,2.77-3.2,4.14-.17.21-.42.57-.34.72,1.18,2.42-1.09,2.95-2.2,4.15-.93,1-1.65,2.23-2.66,3.13-2.1,1.87-4.35,3.58-6.52,5.39-1.27,1.06-2.51,2.16-4.09,3.52-.23-1.6-.35-2.56-.52-3.52-.11-.59-.33-1.67-.46-1.66-.9.05-2.06.04-2.63.58-1.34,1.28-2.45,2.81-3.52,4.34-.39.55-.39,1.37-.56,2.07,0,0,.04-.04.04-.04Z"/>
      <path class="cls-1" d="m470.72,15.94c-.81,2.86-1.62,5.72-2.53,8.96-2.69.22-5.31.28-7.87.71-1.3.22-2.55,1.02-3.71,1.73-1.49.92-7.47.83-8.26-.56-.65-1.14-.5-2.74-.66-4.15-.13-1.12-.29-2.24-.24-3.36.06-1.4.31-2.8.5-4.19.03-.26.26-.54.19-.75-.24-.77-.71-1.5-.82-2.28-.12-.81.08-1.66.15-2.68.43-.15.98-.34,1.42-.49-.11-.89-.21-1.74-.31-2.58.17-.11.33-.22.5-.33.63,1.9,1.87,1.85,3.41,1.65,1.5-.19,3.15-.12,4.58.31.87.26,1.79,1.34,2.09,2.24.24.73-.3,1.83-.75,2.62-.35.61-1.1.98-2.24,1.94,1.84.54,3.11.9,4.37,1.29,1.02.32,2.01.78,3.05,1.01.62.13,1.44.15,1.95-.15,1.44-.84,2.72-2.01,5.2-.96Zm-17.24,11.03c1.49-.57,2.98-1.15,4.87-1.88q-3.66-.27-4.87,1.88Z"/>
      <path class="cls-1" d="m342.64,598.52c.99-.54,2.28-1.24,3.56-1.95.22.17.44.34.66.51-.95,3.34-1.9,6.68-2.76,9.69-1.71-1.21-3.04-2.18-4.4-3.1-.39-.26-.84-.45-1.29-.59-.46-.15-.96-.19-1.44-.28.12.48.12,1.02.37,1.41.89,1.43.21,2.58-.92,3.14-1.6.8-3.47,1.75-5.13,1.59-1.53-.14-2.93-1.66-4.56-2.67-2.55,1.59-3.41,1.23-5.31-2.69-1.06.07-2.26-.11-3.25.26-2.09.78-3.02-.17-3.59-1.94-.58-1.8-.03-3.09,1.63-4.07.58-.34.88-1.16,1.41-1.91-.68-.2-.81-.25-.94-.27-.9-.16-2.45-.08-2.6-.51-.5-1.4.85-1.72,1.86-2.25.77-.41,1.26-1.3,2.02-1.76.57-.35,1.53-.66,2-.41.51.28.76,1.2.96,1.88.53,1.83.98,3.68,1.56,5.89,1.3-1.19,2.02-2,2.88-2.61,1.57-1.1,2.9-.44,3.2,1.5.08.49-.11,1.14.15,1.45,1.95,2.33,1.54,4.13-1.46,5.47,2.89-.11,4.87-1.81,5.3-4.14.46-2.48,2.46-3.58,4.81-2.67.45.17.94.22,1.42.31,1.24.24,2.47.46,3.86.72Z"/>
      <path class="cls-1" d="m281.02,82.88c-1.85,2.4-3.72,4.73-5.48,7.13-.59.8-.91,1.79-1.36,2.69-.68,1.34-1.71,2.26-3.15,2.79-.23.09-.47.66-.42.94.24,1.17-.06,1.64-1.34,1.44-1.51-.24-2.23.53-2.6,2.03-.26,1.06-.91,2.1-1.6,2.98-1.13,1.46-2.43,2.78-3.47,4.44.41-.23.82-.47,1.23-.7-.61,1.41-1.03,2.71-3.01,2.92-1.27.14-2.36,1.56-3.65,2.14-1.43.65-2.98,1.04-4.5,1.47-1.45.41-2.92.74-4.66,1.17.26-.57.31-.87.49-1.05,3.67-3.84,7.35-7.67,11.02-11.51.38-.4.81-.84.98-1.34.92-2.7,3.04-4.47,4.87-6.48,1.99-2.17,3.73-4.58,5.83-6.63,1.95-1.92,4.14-3.64,6.4-5.2,1.47-1.02,3.05-.44,4.41.77Z"/>
      <path class="cls-1" d="m549.78,237.8c.3.31.59.62.89.94v2.04h4.67c-.72,2.11-1.4,4-2,5.91-.36,1.15-.41,2.41-.89,3.49-.73,1.63-1.22,3.75-4.2,2.79.1.22.2.45.3.67.67.16,1.34.31,2.2.51-.88,1.79-1.74,3.54-2.58,5.31-.06.12.21.36.18.53-.19,1.42-.15,2.95-.69,4.23-.63,1.51-2.01,2.66-1.32,4.64.17.47-.73,1.32-1.36,2.35.82-.3,1.29-.46,1.9-.68,1.48,2.54-1.36,3.79-1.62,5.65.48.6,1.45,1.56,1.34,1.71-.91,1.21-1.96,2.32-3.09,3.34-.61.55-1.45.86-2.26,1.31-1.42-1.4-1.44-3.16-.82-5.12.09-.28-.74-.84-1.5-1.67.19-.26.86-.98,1.31-1.81.54-1.01.96-2.09,1.31-3.18.23-.7.3-1.45.37-2.19.07-.75.35-1.78-.01-2.21-1.35-1.6-.54-2.61.57-3.79.75-.79,1.18-1.88,1.93-2.67.57-.6,1.42-.92,2.19-1.39.37-1.08.81-2.34,1.27-3.68-.5.08-1.08.16-2.22.34.54-1.91,1.01-3.59,1.48-5.27.19.05.39.11.58.16-.27-.4-.82-.85-.76-1.19.66-3.59,1.4-7.15,2.16-10.72.03-.16.44-.24.68-.35Z"/>
      <path class="cls-1" d="m277.4,80.13c1.67-1.56,3.33-3.13,5-4.68.76-.71,1.59-1.35,2.33-2.09,3.97-3.94,7.95-7.87,11.87-11.86,2.95-3,6.14-5.61,9.93-7.54,1.08-.55,1.62-2.08,2.54-3.02.46-.47,1.25-.63,1.89-.93.22.63.72,1.33.6,1.89-.52,2.5-1.72,4.58-3.5,6.55-2.97,3.28-7.67,4.59-9.72,8.87-.34.72-1.4,1.08-2.1,1.64-1.02.8-1.97,1.68-3.02,2.44-.81.58-1.82.89-2.58,1.52-1.85,1.56-3.87,3.04-5.32,4.93-1.84,2.4-3.59,4.2-6.85,2.81-.15-.06-.37.04-.56.07-.17-.2-.34-.4-.51-.6Z"/>
      <path class="cls-1" d="m556.84,123.68c.42-.63.85-1.26,1.27-1.88-2.01-2.18-1.83-4.02.8-7.2-.51-.75-1.05-1.54-1.33-1.96.52-1.56.84-2.9,1.41-4.12.3-.64,1.11-1.59,1.54-1.52,2.69.45,4.03-1.56,5.89-2.75.95-.61,2.65-.85,3.61-.4.93.44,2.36,1.41,1.88,3.08-.12.43-.26.89-.53,1.23-1,1.3-2.24,2.35-2.12,4.34.03.56-1.72,1.22-2.31,1.62-.52,3.91,2.83,7.04,1.69,11.41-.42-.56-.63-.84-.83-1.1-1.29,3.32-4.1,1.35-6.26,1.72l.35.48c-1.47,1.12-2.87,2.36-4.47,3.25-.32.18-1.82-.89-2.02-1.61-.35-1.22-.21-2.63-.07-3.93.05-.43.76-.78,1.16-1.17l.34.5Zm8.72-7.41c-2.27-1.86-.81-3.06.33-4.36.36-.41.84-.99.78-1.43-.2-1.66.56-2.31,1.94-2.28-.3-1.01-.58-1.93-.9-3-.11.67-.2,1.24-.29,1.81-.15-.16-.3-.32-.45-.49-2.15,1.46-4.3,2.92-6.34,4.3.43.04,1.1.1,1.7.15v2.35c-.9.1-1.63.17-2.37.25.02.16.03.31.05.47.68.16,1.35.31,2.03.47,0,.12,0,.23-.01.35-.69.18-1.38.36-2.08.53,1.41.63,2.67,1.25,2.02,2.9-.28.71-1.29,1.14-2.22,1.9.07.58.21,1.71.36,2.88h2.58c-.11-.15-.22-.31-.33-.46.97-.84,1.93-1.67,2.58-2.23-.56-.97-1.29-2.23-2.25-3.86,1.34-.12,1.92-.17,2.85-.25Z"/>
      <path class="cls-1" d="m531.86,310.63c-.61-2.2,1.31-3.37,2.37-4.56-.9-1.3-1.99-2.36-2.42-3.65-.4-1.19-.08-2.61-.08-3.87-.39-1.43-1.2-2.94-1.03-4.33.08-.69,2.15-1.82,2.95-1.57.99.31,1.6,1.85,2.47,2.99.28-.23.91-.73,1.52-1.24,1.71-1.43,3.13-.47,4.15.8,1.2,1.48-.29,2.37-1.21,3.26-1.09,1.05-2.39,1.93-3.31,3.11-.92,1.19-1.07,2.45.6,3.52.96.61,1.53,1.82,2.38,2.88-.9.77-1.49,1.78-3.37,1.36-1.42-.32-3.16.77-5.02,1.31Z"/>
      <path class="cls-1" d="m566.45,90.89h3.05c-.24,1.84-.46,3.56-.7,5.44.6,0,1.32-.13,1.97.04.44.12.98.58,1.12,1,.25.77-1.99,3.76-2.87,3.87-2.51.31-4.93.63-6.73,2.81-.39.47-1.71.16-2.56.21-.8-3.34-.42-4.14,2.59-6.39.56-.42.83-1.21,1.23-1.83-.61-.22-1.21-.44-1.82-.65-1.05-.37-2.55-.46-3.02-1.2-.39-.62.1-2.58.75-2.92,1.38-.73,3.11-.96,4.7-.99.35,0,.73,1.69,1.33,3.2.44-1.19.68-1.83.96-2.59Z"/>
      <path class="cls-1" d="m571.93,183.91c-.12.62-.24,1.23-.35,1.85-.17-.02-.33-.04-.5-.06.1-1.02.21-2.05.36-3.55-1.14.77-2.13,1.19-2.75,1.91-2.61,3.05-6.71,2.26-8.24-1.7,1.38-1.8,2.82-3.72,4.35-5.57.22-.27.99-.35,1.35-.18,2.41,1.12,4.83,2.25,7.11,3.58.46.27.67,1.54.49,2.21-.18.67-.99,1.17-1.53,1.74-.09-.07-.19-.15-.28-.22Z"/>
      <path class="cls-1" d="m367.95,583.4c-.48.71-.82,1.43-1.35,1.98-3.6,3.7-6.68,7.98-11.5,10.35-.66.33-1.23,1.19-1.49,1.92-.87,2.4-2.81,3.39-5,4.05-.4.12-1.27-.16-1.39-.47-.19-.49-.16-1.37.17-1.7,1.17-1.18,2.37-2.49,3.82-3.19,1.49-.71,2.57-1.37,3.51-2.9,1.41-2.27,3.41-4.22,5.36-6.1,1.71-1.65,3.66-3.05,5.57-4.47.42-.31,1.14-.3,1.72-.29.19,0,.37.5.59.81Z"/>
      <path class="cls-1" d="m44.41,293.34c0-2.79-.02-5.59.02-8.38,0-.44.25-1.27.4-1.27,2.12-.05,4.24,0,6.37.04-.05.56.11,1.36-.19,1.64-1.49,1.34-2.23,2.81-2.24,4.92-.01,1.88-.6,3.8-1.26,5.59-.28.76-1.39,1.21-2.12,1.8-.38-.67-.9-1.3-1.08-2.01-.19-.73-.04-1.54-.04-2.31.05,0,.11,0,.16,0Z"/>
      <path class="cls-1" d="m189.75,540.05c.73-.64,1.37-1.46,2.21-1.86.64-.3,1.72-.33,2.25.03.44.3.62,1.41.47,2.06-.5,2.05-1.18,4.07-1.87,6.07-.27.78-.58,1.64-1.14,2.2-2.73,2.69-2.77,2.66-6.52.51.64-1.56,3.28.21,3.62-2.33.22-1.64,1.63-3.09,0-4.65-.94.11-1.87.21-2.86.32.5-3.23,1.34-3.69,3.83-2.34Z"/>
      <path class="cls-1" d="m380.06,23.5c.14-1.11.44-2.24.37-3.33-.13-1.98,1.88-2.42,2.54-2.24,1.43.39,2.95,1.42,3.75,2.63.32.49-1.11,2.17-1.79,3.28-.2.32-.75.48-.83.8-.38,1.55-1.42,2.51-2.82,1.86-.79-.36-1.06-1.84-1.56-2.82.12-.06.23-.12.35-.18Z"/>
      <path class="cls-1" d="m396.3,549.05c.77-1.85,1.32-3.84,2.4-5.5.58-.9,2.11-1.75,3.12-1.66,1.31.12,1.67,2.4.39,3.67-1.6,1.58-3.59,2.75-5.42,4.1-.16-.21-.32-.41-.49-.62Z"/>
      <path class="cls-1" d="m322.78,609.99c-.65.48-1.6,1.18-2.66,1.96-1-1.2-1.34-2.58-.37-3.73.92-1.1,2.27-1.51,3.78-.62.67.39,1.58.38,3.08.33-.18,1.18-.37,2.35-.55,3.53-.98-.44-1.95-.87-3.27-1.46Z"/>
      <path class="cls-1" d="m435.78,498.25c-.21,1.74-.74,3.1-2.41,3.9-.45.21-.9,1.04-.85,1.53.17,1.56-.49,2.37-1.96,2.8-1.11-1.15-.93-2.44-.27-3.64.75-1.37,1.73-2.61,2.52-3.97.71-1.21,1.58-1.47,2.96-.63Z"/>
      <path class="cls-1" d="m571.51,78.44c-.87-.06-2.15-1-1.83-2.34.24-.99,1.72-2.12,2.83-2.36,1.39-.31,2.72.57,2.82,2.31.07,1.21-1.57,2.41-3.83,2.39Z"/>
      <path class="cls-1" d="m178.84,547.15c-.06-1.73.31-2.68,1.98-2.53,1.39.13,2.88.71,2.46,2.12-.37,1.27.51,3.77-2.3,3.67-2.6-.1-1.55-2.34-2.15-3.26Z"/>
      <path class="cls-1" d="m42.69,235.27c.85,2.85-.31,5.77-2.72,6.74-.32.13-1.39-.59-1.45-1.01-.3-2.2,1.86-5.1,4.17-5.73Z"/>
      <path class="cls-1" d="m173.62,529.67c1.44.65,3.11,3.62,2.54,4.56-.59.99-1.67,1.99-2.73,2.3-1.03.31-2.08-.56-1.65-1.94.51-1.66,1.21-3.26,1.84-4.93Z"/>
      <path class="cls-1" d="m447.03,115.48c.16-1.02.06-1.73.37-2.08.64-.73,1.42-1.42,2.29-1.8.32-.14,1.46.57,1.5.97.11.98-.17,2.02-.37,3.02-.04.23-.34.46-.57.6-.72.41-1.59,1.2-2.16,1.04-.56-.16-.83-1.33-1.06-1.75Z"/>
      <path class="cls-1" d="m171.52,564.13c-1.36-.81-2.49-1.3-3.37-2.07-.82-.73-1.27-1.74.09-2.57.99-.6,1.94-1.26,3.27-2.13,0,1.17,0,1.83,0,2.5,0,.38-.11.88.08,1.13,1.28,1.71,1.03,2.59-.07,3.13Z"/>
      <path class="cls-1" d="m370.01,580.22c-.15-.2-.53-.51-.61-.89-.36-1.65,2.68-5.21,4.4-5.11.39.02,1.02.53,1.08.89.17,1.03-3.57,5.08-4.87,5.11Z"/>
      <path class="cls-1" d="m41.21,372.78c-.57-.94-1.67-1.96-1.49-2.64.38-1.46,1.41-2.76,2.18-4.12.57.33,1.44.52,1.66,1.01.85,1.9.18,3.54-2.35,5.76Z"/>
      <path class="cls-1" d="m478.83,424.65c1.13-2.27,2.2-4.42,3.27-6.56.23.03.46.06.7.1.1.18.32.48.27.53-1.25,1.33-.51,2.87-.49,4.33.05,2.87-.37,3.12-3.76,1.61Z"/>
      <path class="cls-1" d="m324.67,151.96c-1.46,2.01-2.65,3.8-4.03,5.43-.37.44-1.39.6-2,.46-.29-.07-.68-1.49-.45-1.74,1.52-1.58,3.18-3.04,4.86-4.44.23-.19.89.15,1.61.3Z"/>
      <path class="cls-1" d="m487.21,3.86c-.54-1.81-.02-2.64,1.65-2.8.58-.06,1.11-.49,1.69-.66.6-.18,1.23-.27,1.85-.39-.02.74.21,1.63-.12,2.2-1.13,2-3.13,1.63-5.06,1.66Z"/>
      <path class="cls-1" d="m491,8.11c1.52-1.17,1.22-4.25,4.05-3.21,1.66.61.96,2.08.45,3.2-1.24,2.76-2.74.83-4.5,0Z"/>
      <path class="cls-1" d="m260.3,579.89c-.72-1.59-.24-4.14,1.04-4.64.69-.27,1.68.21,2.53.36-.31.96-.4,2.1-.99,2.84-.54.68-1.62.94-2.59,1.45Z"/>
      <path class="cls-1" d="m534.97,41.05c.16,2.64-.73,4.02-2.61,4.21-1.33.13-1.97-.7-1.51-1.95.71-1.97,1.74-2.56,4.13-2.26Z"/>
      <path class="cls-1" d="m445.46,29.53c-.42,1.68-1.03,2.93-2.65,3.06-.35.03-1.1-1.23-1.15-1.93-.12-1.52,1.7-3.97,2.4-3.51.69.45.95,1.56,1.4,2.38Z"/>
      <path class="cls-1" d="m563.86,71.68c.99-2.93,2.88-4.09,4.48-3.3.47.23.91.84,1.02,1.35.07.31-.46,1.01-.83,1.1-1.37.35-2.78.53-4.67.85Z"/>
      <path class="cls-1" d="m5.79,358.47c-.18-.26-.78-.75-.85-1.31-.21-1.48,1.53-3.22,3.03-3.01.44.06,1.06.73,1.13,1.19.2,1.4-1.4,3.1-3.3,3.13Z"/>
      <path class="cls-1" d="m492.87,402.05c0,2.28-1,3.19-2.5,3.45-.25.05-1.02-1.05-1.01-1.6.04-1.48.56-2.88,2.39-2.81.48.02.94.8,1.12.96Z"/>
      <path class="cls-1" d="m526.15,318.08c-.55.23-1.36.56-2.54,1.04-.24-1-.61-1.93-.62-2.87,0-.47.68-.93,1.06-1.4.43.48.91.93,1.26,1.46.34.51.53,1.12.84,1.78Z"/>
      <path class="cls-1" d="m554.4,188.44c-.59-.86-1.19-1.65-1.15-1.68.98-.82,2.01-1.6,3.1-2.26.14-.09.72.55,1.09.85-.92.93-1.84,1.86-3.04,3.09Z"/>
      <path class="cls-1" d="m389.4,559.04c-.8-2.29.76-4.82,2.43-4.77.27,0,.88,1.26.72,1.46-.86,1.1-1.91,2.05-3.15,3.31Z"/>
      <path class="cls-1" d="m155.37,553.93c-.76.51-1.52,1.41-2.29,1.42-.7.01-1.41-.94-2.12-1.46.83-.59,1.6-1.38,2.52-1.7.46-.16,1.21.54,1.83.86.02.29.04.59.06.88Z"/>
      <path class="cls-1" d="m414.21,526.05c.64-.94,1.17-2.01,1.99-2.76.35-.32,1.31.03,1.99.07-.14.58-.08,1.38-.45,1.7-.83.74-1.86,1.25-2.81,1.86-.24-.29-.48-.58-.72-.88Z"/>
      <path class="cls-1" d="m555.91,18.91c1.03-1.51,1.84-2.7,2.82-4.15,1.81,3.14.93,4.32-2.82,4.15Z"/>
      <path class="cls-1" d="m414.71,12.24c1.71-.27,3.25-2.09,4.84.07-2.54,2.28-3.42,2.3-4.84-.07Z"/>
      <path class="cls-1" d="m573.54,107.37c-.52-3.1.36-4.47,3.16-4.31-.92,1.62-1.75,3.1-2.59,4.58-.19-.09-.38-.18-.57-.27Z"/>
      <path class="cls-1" d="m250.67,569.36c-.06-.92-.24-1.85-.13-2.74.04-.32.79-.8,1.19-.77.54.04,1.21.39,1.52.82.19.26-.04,1.12-.35,1.38-.66.54-1.5.85-2.27,1.26l.04.05Z"/>
      <path class="cls-1" d="m161.47,508.9c-1.18-1.31-1.32-2.45.16-3.19.65-.32,2.21-.27,2.32.02.85,2.13-1.35,2.09-2.48,3.17Z"/>
      <path class="cls-1" d="m575.71,83.65c-.66.89-1.25,1.85-2.04,2.61-.18.17-1.04-.37-1.59-.59.49-.78.86-1.68,1.51-2.29.38-.36,1.21-.24,1.83-.34.1.2.19.41.29.61Z"/>
      <path class="cls-1" d="m174.36,567.57c.89-.83,1.38-1.65,2.01-1.77.41-.08,1.51,1.04,1.42,1.31-.29.83-1.01,1.52-1.56,2.26-.51-.49-1.01-.98-1.87-1.8Z"/>
      <path class="cls-1" d="m76.73,347.39c-1.27.69-2.01,1.26-2.84,1.46-.32.07-.84-.71-1.26-1.11.68-.57,1.28-1.3,2.06-1.64.31-.13,1,.6,2.05,1.29Z"/>
      <path class="cls-1" d="m520.88,329.31c1.25.63,2.45,1.29,2.2,3.01-1.16-.44-2.32-.88-3.62-1.38.69-.79,1.05-1.21,1.42-1.63Z"/>
      <path class="cls-1" d="m510.87,23.9c-.29-.8-1.01-1.8-.76-2.34.29-.61,1.45-.81,2.23-1.19l.51.6c-.35.95-.7,1.91-1.05,2.86-.32.02-.63.04-.95.06Z"/>
      <path class="cls-1" d="m491.08,409.22c-.79.63-1.36,1.44-1.88,1.41-.48-.02-1.35-1.03-1.27-1.45.12-.65.91-1.17,1.42-1.75.5.52,1,1.03,1.73,1.79Z"/>
      <path class="cls-1" d="m457.01,5.98c-1.18-.46-2.09-.81-3.51-1.36,1.85-.82,3.2-1.43,4.56-2.03.08.19.15.37.23.56-.41.91-.82,1.82-1.28,2.83Z"/>
      <path class="cls-1" d="m577.28,93.78c-.18-.48-.66-1.13-.5-1.39.44-.73,1.15-1.3,1.76-1.93.28.39.87.9.78,1.15-.3.81-.85,1.53-1.31,2.28-.24-.04-.48-.07-.72-.11Z"/>
      <path class="cls-1" d="m477.12,428.52c.41-2.85,1.39-3.31,3.66-1.73-1.26.6-2.27,1.07-3.66,1.73Z"/>
      <path class="cls-1" d="m539.62,288.11c-.21-1.48-1.57-3.4,1.37-3.92-.46,1.31-.91,2.61-1.37,3.92Z"/>
      <path class="cls-1" d="m102.12,221.51c-.4-2.45-.07-2.96,2.1-3.41,1.22,2.37-.95,2.42-2.1,3.41Z"/>
      <path class="cls-1" d="m250.63,569.31c-.98.99-1.96,1.98-3.19,3.23-.1-2.81.86-3.6,3.23-3.18,0,0-.04-.05-.04-.05Z"/>
      <path class="cls-1" d="m469.51,26.12c-.85,2.5-2.24,2.09-3.52,1.85-.19-.03-.28-.54-.42-.82,1.17-.31,2.35-.61,3.94-1.03Z"/>
      <path class="cls-1" d="m523.38,334.6c-.45.62-.78,1.43-1.38,1.79-.42.25-1.22-.14-1.85-.24,0-.31,0-.62-.01-.93,1.1-.18,2.2-.36,3.3-.54,0,0-.06-.07-.06-.07Z"/>
    </g>
  </g>
</svg>