<?xml version="1.0" encoding="UTF-8"?>
<svg id="Layer_2" data-name="Layer 2" xmlns="http://www.w3.org/2000/svg" viewBox="0 0 574.89 543.89">
  <defs>
    <style>
      .cls-1 {
        fill: none;
        stroke: #46d3a1;
        stroke-miterlimit: 10;
        stroke-width: 2px;
      }
    </style>
  </defs>
  <g id="images">
    <g>
      <path class="cls-1" d="m183.84,215.79S223.84,34.79,381.84,48.79s88,219,10,296-171,168-183,165-135.51-100.7-168.76-230.85C6.84,148.79,85.84,134.79,102.84,129.79s184-43,321,12,163,78,145,93-105,71-174,92-179,60-213,52"/>
      <path class="cls-1" d="m335.09,152.84s181,40,167,198-219,88-296,10S38.09,189.84,41.09,177.84,141.79,42.32,271.94,9.08c130.15-33.24,144.15,45.76,149.15,62.76s43,184-12,321-78,163-93,145-71-105-92-174-60-179-52-213"/>
      <path class="cls-1" d="m391.05,335.09s-40,181-198,167-88-219-10-296S354.05,38.09,366.05,41.09s135.51,100.7,168.76,230.85c33.24,130.15-45.76,144.15-62.76,149.15s-184,43-321-12S-11.95,331.09,6.05,316.09s105-71,174-92,179-60,213-52"/>
      <path class="cls-1" d="m208.79,391.05S27.79,351.05,41.79,193.05s219-88,296-10,168,171,165,183-100.7,135.51-230.85,168.76c-130.15,33.24-144.15-45.76-149.15-62.76s-43-184,12-321S212.79-11.95,227.79,6.05s71,105,92,174,60,179,52,213"/>
      <path class="cls-1" d="m197.07,316.51s-99.7-156.27,21.92-258.09c121.62-101.82,217.08,92.63,216.37,202.23-.71,109.6-2.12,239.71-12.73,246.07-10.61,6.36-167.03,24.62-282.56-43.91s-69.57-134.28-61.09-149.84c8.49-15.56,99.7-160.51,235.47-218.5,135.76-57.98,170.41-60.1,168.29-36.77-2.12,23.33-24.04,124.45-57.98,188.09-33.94,63.64-84.15,169-113.84,187.38"/>
      <path class="cls-1" d="m228.38,196.07s156.27-99.7,258.09,21.92c101.82,121.62-92.63,217.08-202.23,216.37-109.6-.71-239.71-2.12-246.07-12.73-6.36-10.61-24.62-167.03,43.91-282.56,68.52-115.54,134.28-69.57,149.84-61.09,15.56,8.49,160.51,99.7,218.5,235.47,57.98,135.76,60.1,170.41,36.77,168.29-23.33-2.12-124.45-24.04-188.09-57.98-63.64-33.94-169-84.15-187.38-113.84"/>
      <path class="cls-1" d="m347.82,227.38s99.7,156.27-21.92,258.09c-121.62,101.82-217.08-92.63-216.37-202.23.71-109.6,2.12-239.71,12.73-246.07s167.03-24.62,282.56,43.91,69.57,134.28,61.09,149.84c-8.49,15.56-99.7,160.51-235.47,218.5-135.76,57.98-170.41,60.1-168.29,36.77,2.12-23.33,24.04-124.45,57.98-188.09,33.94-63.64,84.15-169,113.84-187.38"/>
      <path class="cls-1" d="m317.51,347.82s-156.27,99.7-258.09-21.92c-101.82-121.62,92.63-217.08,202.23-216.37,109.6.71,239.71,2.12,246.07,12.73s24.62,167.03-43.91,282.56c-68.52,115.54-134.28,69.57-149.84,61.09-15.56-8.49-160.51-99.7-218.5-235.47S35.38,60.03,58.71,62.15c23.33,2.12,124.45,24.04,188.09,57.98,63.64,33.94,169,84.15,187.38,113.84"/>
    </g>
  </g>
</svg>