<?xml version="1.0" encoding="UTF-8"?>
<svg id="Layer_2" data-name="Layer 2" xmlns="http://www.w3.org/2000/svg" viewBox="0 0 685.12 502.56">
  <defs>
    <style>
      .cls-1 {
        fill: none;
        stroke: #8165e5;
        stroke-miterlimit: 10;
        stroke-width: 3px;
      }
    </style>
  </defs>
  <g id="images">
    <path class="cls-1" d="m136.61,359.66c-174.34,90.07-186.22,59.79,1.02-38.56-159.77,18.79-125.76-.38,38.79-36.78-119.08,20.64-4.36,26.71,109.09-55.21,8.05-115.08-2.86-189.83,81.98-119.83,113.39-158.94,219.27-130.85,140.97,10.97,180.56-69.21,257.71,23.3,53.78,99.98,142.79,28.99,72.93,55.75-80.47,21,61.86-48.11,71.47-78.86-49.98-50.51,12.15-67.54-39.91-39.32-47.5,31.85,48.4,27.34,65.43,1.52,39.65,30.36,95,34.6,110.54,69.57,24.83,62.92,75.64,101.92,37.74,146.6-51.88,57.14-13.05,112.46-47.11,92.81-60.66-14.9-36.09,69.86-92.5,6.59-72.92-15.54-98.35,105.05-100.21,143.55-32.59,47.29-128.46,133.88-220.63,172.74-94.12-30.17Z"/>
  </g>
</svg>