<?xml version="1.0" encoding="UTF-8"?>
<svg id="Layer_2" data-name="Layer 2" xmlns="http://www.w3.org/2000/svg" viewBox="0 0 907.95 644.75">
  <defs>
    <style>
      .cls-1 {
        fill: none;
        stroke: #00bf80;
        stroke-miterlimit: 10;
        stroke-width: 3px;
      }
    </style>
  </defs>
  <g id="images">
    <path class="cls-1" d="m458.25,315.8c148.36-188.26,332.04-217.13,8.65-6.01,396.87-360.7,425.73-457.79,3.8-1.94,589.88-377.13,571.51-311.52,1.59,4.42,533.18-263.46,485.95-234.59-3.53,2.21,410.76-215.81,363.52-194.81-3.71,1.59,320-164.91,191.41-104.06-6.8,2.75,98.5-96.81-147.27-44.39-11.07,3.43-202.7,41.46-231.57,57.2-2.89,1.86-275.92,44.85-296.91,31.73-1.41.35-290.25,89.11-193.16,170.46,5.74,1.68-57.19,48.07-93.93-22.78,3.8-4.95,59.72-49.33,33.48,16.28,1.24,2.03.75,35.24-30.74,92.97-.26,2.03,48.25,75.19,63.99,75.19,2.74-.71,113.74,49.66,195.09,15.55,5.56-1.77,304.98,6.82,346.97-1.06,3.71,0,364.25,25.18,359,40.93,1.15.62,415.59,19.32,478.57-27.92,4.42-1.32,552.87,10.15,524.01,33.76-.35,1.5,482.38,37.51,398.4,40.13-4.42.79,350.34,76.08,221.76,144.3-6.01,3.44,180.53,172.35,170.03,182.85-1.68.35,140.22,151,132.35,164.12-.88.79,127.98,215.81,148.57,227.98.21,1.93,125.14,263.74,101.53,295.23-1.8,1.52,66.59,283.22,66.59,275.35-.62-.97,67.21,244.83,61.96,247.45-.62-.09,36.34,268.53,17.97,276.41-1.41.09-1.61,244.83,8.89,229.08.26-1.24,24.37,219.82,29.62,211.95.35-.88,24.01,186.59-28.47,197.09-3.53,1.24-124.65,274.58-156.14,308.69-3.09,1.77-174.04,264.94-126.81,212.45.53-3.18-169.33,173.65-255.92,192.02-3.89,1.24-267.78,269.5-244.16,269.5.53,2.03-244.69,309.46-252.57,319.96.44,1.06-211.02,318.9-171.66,324.14,2.03.79-173.69,360.09-276.03,459.8-4.68,2.74-344.83,383.59-279.22,333.73,1.15-3.62-269.87,295.37-269.87,284.87-.26-1.32-295.85,270.45-369.33,275.7-4.86.79-479.93,327.39-537.66,356.25-4.95.53-595.69,277-556.33,169.41,1.68-5.65-474.04,133.08-408.44,85.84,3.89-3.44-396.58,21.06-396.58.07-1.15-2.38-479.4-29.04-508.27-31.66-2.65-1.41-521.36-77.48-500.37-103.73.26-1.94-511.13-117.53-539.99-99.16-1.59-.71-564.65-161.43-535.78-192.92,1.68-1.77-469.23-170.16-442.99-133.42,1.24,2.74-491.46-67.93-499.33-41.69.35,2.12-415.71-38.56-415.71-62.18,2.03-1.77-381.01-123.39-349.52-162.76,2.74-2.3-289.28-155.21-286.65-139.47,1.32.88-277.48-124.6-269.61-98.36,1.32.71-218.45-125.31-137.1-190.91,3.27-3.71-161.36-250.18-203.35-218.69-2.47,0-242.86-218.69-276.98-218.69-2.38-1.06-306.08-280.61-282.47-330.47,1.32-2.83-220.81-332.89-205.07-311.9,1.41,1.15-216.98-281.56-227.47-250.07.62,1.59-159.86-251.66-115.25-249.04,2.74,1.32-115.37-213.62-112.74-207.37.53-.03-87.03-221.47-37.17-260.83,3.18-1.39,22.63-248.95,33.12-243.7,1.85-.09,57.51-269.85,157.23-345.95,4.5-2.83,194.71-332.63,178.96-303.76-.09,1.41,163.31-289.43,105.58-247.45-1.59,1.68,143.9-249.12,162.27-249.12,1.59.35,181.68-228.48,168.55-202.24-.79,1.77Z"/>
  </g>
</svg>