<?xml version="1.0" encoding="UTF-8"?>
<svg id="Layer_2" data-name="Layer 2" xmlns="http://www.w3.org/2000/svg" viewBox="0 0 862.47 862.47">
  <defs>
    <style>
      .cls-1 {
        fill: none;
        stroke: #00bf80;
        stroke-miterlimit: 10;
        stroke-width: 2px;
      }
    </style>
  </defs>
  <g id="images">
    <g>
      <g>
        <path class="cls-1" d="m469.95,431.24c475.6,284.05,245.33,514.31-38.71,38.71-284.05,475.6-514.31,245.33-38.71-38.71-475.6-284.05-245.33-514.31,38.71-38.71,284.05-475.6,514.31-245.33,38.71,38.71Z"/>
        <path class="cls-1" d="m323.92,429.69c-256.5-74.03-208.83-263.18,17.29-16.64,138.05-310.36,248.8-161.94,23.15,11.54,255.17-99.81,282.48-34.13-4.24,10.16,89.92,20.56,37.44-39.94-7.26-5.19,153.67-116.47,258.87-75.56,13.09,4.23,274.36,33.46,249.75,157.56-9.49,18.79,27.35,275.47-81.41,247.06-20.01,1.44-143.57,203.9-269.92,145.61-12.91-17.99-261.05,3.77-261.19-44.09-.01-3.6-261.18-40.49-256.12-76.76.38-2.73Z"/>
      </g>
      <g>
        <path class="cls-1" d="m392.52,431.24c-475.6-284.05-245.33-514.31,38.71-38.71,284.05-475.6,514.31-245.33,38.71,38.71,475.6,284.05,245.33,514.31-38.71,38.71-284.05,475.6-514.31,245.33-38.71-38.71Z"/>
        <path class="cls-1" d="m538.55,432.78c256.5,74.03,208.83,263.18-17.29,16.64-138.05,310.36-248.8,161.94-23.15-11.54-255.17,99.81-282.48,34.13,4.24-10.16-89.92-20.56-37.44,39.94,7.26,5.19-153.67,116.47-258.87,75.56-13.09-4.23-274.36-33.46-249.75-157.56,9.49-18.79-27.35-275.47,81.41-247.06,20.01-1.44,143.57-203.9,269.92-145.61,12.91,17.99,261.05-3.77,261.19,44.09.01,3.6,261.18,40.49,256.12,76.76-.38,2.73Z"/>
      </g>
      <g>
        <path class="cls-1" d="m431.24,469.95c-284.05,475.6-514.31,245.33-38.71-38.71-475.6-284.05-245.33-514.31,38.71-38.71,284.05-475.6,514.31-245.33,38.71,38.71,475.6,284.05,245.33,514.31-38.71,38.71Z"/>
        <path class="cls-1" d="m432.78,323.92c74.03-256.5,263.18-208.83,16.64,17.29,310.36,138.05,161.94,248.8-11.54,23.15,99.81,255.17,34.13,282.48-10.16-4.24-20.56,89.92,39.94,37.44,5.19-7.26,116.47,153.67,75.56,258.87-4.23,13.09-33.46,274.36-157.56,249.75-18.79-9.49-275.47,27.35-247.06-81.41-1.44-20.01-203.9-143.57-145.61-269.92,17.99-12.91-3.77-261.05,44.09-261.19,3.6-.01,40.49-261.18,76.76-256.12,2.73.38Z"/>
      </g>
      <g>
        <path class="cls-1" d="m431.24,392.52c284.05-475.6,514.31-245.33,38.71,38.71,475.6,284.05,245.33,514.31-38.71,38.71-284.05,475.6-514.31,245.33-38.71-38.71-475.6-284.05-245.33-514.31,38.71-38.71Z"/>
        <path class="cls-1" d="m429.69,538.55c-74.03,256.5-263.18,208.83-16.64-17.29-310.36-138.05-161.94-248.8,11.54-23.15-99.81-255.17-34.13-282.48,10.16,4.24,20.56-89.92-39.94-37.44-5.19,7.26-116.47-153.67-75.56-258.87,4.23-13.09,33.46-274.36,157.56-249.75,18.79,9.49,275.47-27.35,247.06,81.41,1.44,20.01,203.9,143.57,145.61,269.92-17.99,12.91,3.77,261.05-44.09,261.19-3.6.01-40.49,261.18-76.76,256.12-2.73-.38Z"/>
      </g>
      <g>
        <path class="cls-1" d="m458.61,403.86c537.15-135.45,537.15,190.19,0,54.75,135.45,537.15-190.19,537.15-54.75,0-537.15,135.45-537.15-190.19,0-54.75-135.45-537.15,190.19-537.15,54.75,0Z"/>
        <path class="cls-1" d="m347.6,501.04c-218.58,141.23-318.62-26.23.46-23.99-106.7-304.88,76.56-278.23,24.53-8.21,124.99-238.81,190.76-211.68,4.18,10.18,93.26-36.85,13.37-42.51-8.8,1.46,41.45-178.82,144.76-224.28,12.24-6.26,232.8-158.14,303.16-52.99,6.57,20,229.27,187.65,132.27,244.46-13.13,15.16,57.81,257.9-72.76,306.02-21.85-3.59-166.78,199.46-200.72,165.71-2.55-2.54-198.17,168.25-220.24,139.03-1.66-2.2Z"/>
      </g>
      <g>
        <path class="cls-1" d="m458.61,458.61c135.45,537.15-190.19,537.15-54.75,0-537.15,135.45-537.15-190.19,0-54.75-135.45-537.15,190.19-537.15,54.75,0,537.15-135.45,537.15,190.19,0,54.75Z"/>
        <path class="cls-1" d="m361.43,347.6c-141.23-218.58,26.23-318.62,23.99.46,304.88-106.7,278.23,76.56,8.21,24.53,238.81,124.99,211.68,190.76-10.18,4.18,36.85,93.26,42.51,13.37-1.46-8.8,178.82,41.45,224.28,144.76,6.26,12.24,158.14,232.8,52.99,303.16-20,6.57-187.65,229.27-244.46,132.27-15.16-13.13-257.9,57.81-306.02-72.76,3.59-21.85-199.46-166.78-165.71-200.72,2.54-2.55-168.25-198.17-139.03-220.24,2.2-1.66Z"/>
      </g>
      <g>
        <path class="cls-1" d="m403.86,458.61c-537.15,135.45-537.15-190.19,0-54.75-135.45-537.15,190.19-537.15,54.75,0,537.15-135.45,537.15,190.19,0,54.75,135.45,537.15-190.19,537.15-54.75,0Z"/>
        <path class="cls-1" d="m514.87,361.43c218.58-141.23,318.62,26.23-.46,23.99,106.7,304.88-76.56,278.23-24.53,8.21-124.99,238.81-190.76,211.68-4.18-10.18-93.26,36.85-13.37,42.51,8.8-1.46-41.45,178.82-144.76,224.28-12.24,6.26-232.8,158.14-303.16,52.99-6.57-20-229.27-187.65-132.27-244.46,13.13-15.16-57.81-257.9,72.76-306.02,21.85,3.59,166.78-199.46,200.72-165.71,2.55,2.54,198.17-168.25,220.24-139.03,1.66,2.2Z"/>
      </g>
      <g>
        <path class="cls-1" d="m403.86,403.86c-135.45-537.15,190.19-537.15,54.75,0,537.15-135.45,537.15,190.19,0,54.75,135.45,537.15-190.19,537.15-54.75,0-537.15,135.45-537.15-190.19,0-54.75Z"/>
        <path class="cls-1" d="m501.04,514.87c141.23,218.58-26.23,318.62-23.99-.46-304.88,106.7-278.23-76.56-8.21-24.53-238.81-124.99-211.68-190.76,10.18-4.18-36.85-93.26-42.51-13.37,1.46,8.8-178.82-41.45-224.28-144.76-6.26-12.24-158.14-232.8-52.99-303.16,20-6.57,187.65-229.27,244.46-132.27,15.16,13.13,257.9-57.81,306.02,72.76-3.59,21.85,199.46,166.78,165.71,200.72-2.54,2.55,168.25,198.17,139.03,220.24-2.2,1.66Z"/>
      </g>
    </g>
  </g>
</svg>