<?xml version="1.0" encoding="UTF-8"?>
<svg id="Layer_2" data-name="Layer 2" xmlns="http://www.w3.org/2000/svg" viewBox="0 0 892.37 839.84">
  <defs>
    <style>
      .cls-1 {
        fill: #5250b1;
      }
    </style>
  </defs>
  <g id="images">
    <path class="cls-1" d="m452.84,408.36c-161.23,302.08,61.37,448.21-21.11-6.16,387.26,409.39,480.4,360.29-11.11,6.16,494.62,250.03,445.51,226.46,5.92,2.19,306.03,291.06,286.38,349.98,9.36-4.78,88.46,354.76-64.74,311.55,15.77,5.8-137.47,237.01-113.9-16.37-12.41,9.06,330.63,131.71,405.26,119.92-19.23-.2,618.95-31.64,640.55-235.02,0,23.14,369.5-566.9,61.13-616,32.46,1.69-336.67-275.93-338.63-93.26,9.46-20.25-344.17,1.63-342.2,152.87-6.61-14.86-211.85,265.93-317.91,476.1,13.23-9.16-629.69,418.47-621.83,508.82,6.21-4.58-584.83,576.25-480.73,605.72-13.23,1.02-208.23,443.64-169.93,313.02-8.7,10.94Z"/>
  </g>
</svg>