<?xml version="1.0" encoding="UTF-8"?>
<svg id="Layer_2" data-name="Layer 2" xmlns="http://www.w3.org/2000/svg" viewBox="0 0 646.13 602.42">
  <defs>
    <style>
      .cls-1 {
        fill: #626aef;
      }
    </style>
  </defs>
  <g id="images">
    <path class="cls-1" d="m216.16,119.08C107.93,3.14,77.32-66.8,132.21,95.04-34.84-21.97-42.75,3.07,103.73,131.04-41.13,40.72-31.07,58.04,119.66,159.01c-94.48-63.46-65.14-100.18,60.37-1.77-76.12-87.6-60.21-51.57,31.61,55.71-66.61-33.79-39.17,4.22,32.96,43.36-27.29-9.44-7.42-8.05,41.56,4.14,7.72-36.53,42.25-59.18,57.98-32.69,44.94-62.88,121.95-120.54,81.5-57.58,97.44-103.18,170.01-174.99,81.21-10.89,157.36-16.57,63.51,181.09-50.33,198.8,79.71,66.4,36.24,135.93-25.74,84.48,82.76,145.59,135.53,102.72,46.69.29,113.86,96.09,129.85,93.57,19.04,4.85,125.38,124.52,107.7,156.18-11.99,40.29,92.99,145.91,88.29,140.63-15.34,8.16,92.31,136.02,90.37,143.91,3.25,6.81,108.56,139.88,124.61,133.61,27.51-27.63,139.85,79.5,129.6,24.93-31.78-46.71,33.21,106.81,140.42-108.71,42.37-163.5,171.91-145.51,178.73-172.49,29.71-117.04,142.25-133.49,126.95-168.46-30.1-46.12,93.52-134.75,67.06-123.99-91.05,56.84-28.96-.47-51.04-46.65-72.91,18.36,5.17-102.99,15.64-111.24-11.01-43.98-9.38-148.2-47.53-185.34-53.16-46.65C182.44-52.6,182.98.77,216.16,119.08Zm56.28-48.28c75.46-7.02,51.97,46.93,42,72.22,46.3,39.14,72.54,39.62,26.65,19.62,21.42,25.18-23.4,66.56-60.78,32.08-26.63,48.31-52.88,47.83-49.86-11.6-43.04,17.91-59.08-2.55-24.54-42.64-54.66-32.37-45.78-68.74,17.31-54.25,10.88-54.52,23.69-68.29,49.23-15.41Z"/>
  </g>
</svg>