<?xml version="1.0" encoding="UTF-8"?>
<svg id="Layer_2" data-name="Layer 2" xmlns="http://www.w3.org/2000/svg" viewBox="0 0 591.75 551.18">
  <defs>
    <style>
      .cls-1 {
        fill: #5250b1;
      }
    </style>
  </defs>
  <g id="images">
    <path class="cls-1" d="m221.54,417.27s113.33,74.39,207.5,60.5c61-9,108.42-34,109.21-60.5.79-26.5-24.21-38.5-58.21-21.5-34,17-44,47-92,47s-126-22-155-57c0,0,12-129,122-89,110,40,148,34,189,2,58-45.27,69-148.81,0-227.41C475.04-7.23,318.04-32.23,225.04,54.77s-94,180-93,199,2,96,65,146c0,0-54,107-130,90s-72,29-61,45,64,31,130-10,85.5-107.5,85.5-107.5Z"/>
  </g>
</svg>