<?xml version="1.0" encoding="UTF-8"?>
<svg id="Layer_2" data-name="Layer 2" xmlns="http://www.w3.org/2000/svg" viewBox="0 0 449.6 610.53">
  <defs>
    <style>
      .cls-1 {
        fill: #21196d;
      }
    </style>
  </defs>
  <g id="images">
    <path class="cls-1" d="m292.2,429.63s14.4,41.75-23.04,60.32c0,0-16.25,9.72-40.17-.63-23.92-10.35-28.8-50.07-29.59-59.26-.79-9.2-2.73-38.41,7.98-64.76,10.71-26.35,22.21-52.38,54.84-68.12,32.63-15.74,49.94-12.5,69.84-11.64s63.61,27.67,78.7,47.76c15.09,20.09,41.27,48.64,38.67,97.38-2.6,48.74-22.99,82.26-27.83,90.52-4.84,8.27-40.24,54.59-79.33,70.85-39.09,16.26-75.25,22.68-111.34,15.64-36.09-7.04-84.88-31.58-118.07-59.43-33.19-27.85-58.74-71.33-55.66-108.08S2.85,359.58.42,335.05c-2.43-24.53,6.24-40.61,12.9-44.81,6.66-4.2,31.49-25.06,33.71-41.92,2.22-16.85-3.66-65.46,40.3-79.02,43.95-13.56,32.99-13.53,41.07-39.11,8.08-25.57,24.86-56.25,47.36-57.78,22.5-1.52,48.07,6.56,55.16-7.59,7.09-14.15,23.17-51.84,49.98-49.19,26.8,2.65,51.39,22.16,59.06,17.5,7.68-4.65,9.82-8.05,13.64-15.86,3.83-7.81,19.4-22.09,29.59-15.67,10.19,6.42,14.74,16.59,8.88,25.31-5.86,8.72-9.28-4.39-22.23,18.48-12.95,22.87-40.23,8.23-46.57,4.97-6.34-3.26-25.01-9.55-36.43-10.54-11.42-.99-26.56,3.34-30.47,24.61-3.91,21.27-11.35,31.91-31.36,33.54s-26.14-6.61-41.38.21c-15.25,6.82-25.52,13.85-30.31,44.06-4.79,30.2-22.85,44.38-34.94,47.35-12.09,2.97-40.47,2.24-42.46,25.09-1.98,22.85,3.58,32.56-5.09,48.63-8.67,16.08-11.69,28.41-25.69,40.77-13.99,12.36-12.82,31.35,5.77,51.1,18.59,19.74,42.21,61.64,36.05,88.79-6.16,27.15,11.9,59.34,41.46,79.05,29.56,19.72,103.2,80.72,180,45.15,76.81-35.57,84.28-81.61,89.2-103.33,4.92-21.72,2.9-67.17-26.9-92.88-29.8-25.71-63.02-18.17-82.21-1.05-19.18,17.12-20.21,34.33-20.21,34.33,0,0,18.84,8.98,23.91,24.4Z"/>
  </g>
</svg>