<?xml version="1.0" encoding="UTF-8"?>
<svg id="Layer_2" data-name="Layer 2" xmlns="http://www.w3.org/2000/svg" viewBox="0 0 611.57 433.11">
  <defs>
    <style>
      .cls-1 {
        fill: none;
        stroke: #8165e5;
        stroke-miterlimit: 10;
        stroke-width: 3px;
      }
    </style>
  </defs>
  <g id="images">
    <path class="cls-1" d="m5.2,371.85s-9.21-23.48,1.44-54.31c10.65-30.83,37.01-45.7,54.64-51.81,17.63-6.11,106.55-1.4,153.65-77.76,47.09-76.36,38.63-134.3,115.47-168.78,76.84-34.47,158.92-12.7,198.55,15.45,39.63,28.14,99.44,99.86,75.74,140.81-23.7,40.96-77.86,61.7-113.33,29.58-35.48-32.12-28.03-55.95-70.39-71.14-42.37-15.19-82.72,6.68-66.9,44.86,15.82,38.18,29.02,18.17,55.85,42.76,26.83,24.59,38.87,51.7,34.97,88.63-3.9,36.93-33.28,71.56-73.08,80.47-39.79,8.91-66.2-6.32-85.44-20.99-19.24-14.67-62.97-63.71-102.7-21.89-21.33,22.45-22.77,52.3-45.9,66.6-24.03,14.86-95.48,44.98-132.56-42.49Z"/>
  </g>
</svg>