<?xml version="1.0" encoding="UTF-8"?>
<svg id="Layer_2" data-name="Layer 2" xmlns="http://www.w3.org/2000/svg" viewBox="0 0 674.46 654.37">
  <defs>
    <style>
      .cls-1 {
        fill: #5739ba;
      }
    </style>
  </defs>
  <g id="images">
    <path class="cls-1" d="m569.52,302.87c150.95-31.05,134.66-36.18-20.64,1.22,112.39,5.55,74.05-10.07-46.06,3.42,102.13-18.4,98.22-21.04-5.33-5.13,96.4-91.92,49.65-221.55-52.59-148.98,2.62-210.44-43.12-194.34-68.59-12.95,16.96-38.71,55.37,34.31,31.49,113.46,61.97-27.67,84.89-.91,66.41,60.09,97.08-6.21,105.29,2.01,11.19,15.83,97.81,31.84,93.2,62.67-4.71,63.11,84.55,88.94,58.3,72.46-43.97-1.19,22.9,4.35-21.37-95.59-46.96-96.39,36.97-51.33,30.63-116.88-2.87-67.19,25.23-90.41-17.85-258.36-80.19-104.59-110.53-125.79-77.9,28.04-32.29,100.69-45.62-72.65-126.64-118.87-60.6,9.24-106-4.88-71.38,40.62,19,88.98-59.52,26.3-39.71,67.85,25.69,101.82-47.06,155.4-79.43,191.83-34.23,99.32-112.91,161.34-129.35,103.25-33.87-25.52-107.78,91.05-126.5,36.2-47.73-48.05-188.13,71.49-187.65,152.32-13.55,69.04-110.88,164.52-62.56,183.41,70.57,32.09-72.39,141.61,18.64,126.46,75.99-104.92-32.21-80.7-128.62-192.02-49.95-191.59-77.49-104.34-45.63-101.37,41.85-20.66-12.87-51.6-32.21-12.32,81.55,81.11,48.04,18.16,85.16,118.46,105.62,107.32,169.67,107.77,150.48-105.96,45.53-99.25,183.38,14.89,220.57-29.8,69.26-20.33Zm-140.72-147.68c-59.14-156.98,3.44-110.8,38.53-20.08,33.03,27.1,70.42,143.06,45.55,127.41,29.89,54.09-77.28,14.74-84.09-107.33ZM127.87,590.95c13.07,19.55,11.53,25.63-21.53-6.39-21.83,7.86-33.21-4.8-25.78-18.39-36.54-25.76-42.18-84.03,5.27-46.05,30.67-8.35,40.52,57.73,32.3,57.59,17.71,29.24,27.92,36.35,9.74,13.24q19.69,24.1.11.07,19.71,24.11-.11-.07Zm212.32-340.07c-97.34-19.18-85.02-125.33-56.55-104.29-23.5-90.29-3.59-103.46,31.63-45.88,20.43-45.67,52.85,25.57,42.52,61.27,31.59,14.14,71.11,187.84-17.6,88.89Z"/>
  </g>
</svg>