<?xml version="1.0" encoding="UTF-8"?>
<svg id="Layer_2" data-name="Layer 2" xmlns="http://www.w3.org/2000/svg" viewBox="0 0 778.62 554.94">
  <defs>
    <style>
      .cls-1 {
        fill: none;
        stroke: #00bf80;
        stroke-miterlimit: 10;
        stroke-width: 3px;
      }
    </style>
  </defs>
  <g id="images">
    <path class="cls-1" d="m421.66,235.33c90.14-113.44,236.86-136.5,55.93-38.81,239.61-217.16,262.67-294.71,24.54-12.56,372.27-219.27,357.6-166.88,10.27,28.54,317.98-153.49,280.25-130.44-22.83,14.27,240.2-127.94,202.48-111.17-23.97,10.27,188.72-96.29,86.02-47.69-43.95,17.75,50.32-57.45-145.98-15.58-71.53,22.2-127.57,33.53-150.62,46.11-18.65,11.99-169.71,25.73-186.47,15.25-9.13,2.28-173.15,59.08-95.6,124.06,37.1,10.84-19.52,16.8-48.86-39.79,24.54-31.96,52.36-32.98,31.4,19.42,7.99,13.13-1.74,23.06-26.9,69.17-1.71,13.13,37.69,43.47,50.27,43.47,17.69-4.57,74.5,27.07,139.47-.17,35.96-11.41,195.74,2.86,229.27-3.43,23.97,0,222.07,17.53,217.88,30.1,7.42,4,256.57,9.34,306.87-28.39,28.54-8.56,341.21,9.52,318.16,28.38-2.28,9.7,286.9,22.87,219.83,24.97-28.54,5.14,206.45,49.17,103.75,103.67-38.81,22.26,104.83,106.56,96.45,114.94-10.84,2.28,82.14,87.51,75.85,97.99-5.71,5.14,77.37,134.77,93.82,144.49,1.38,12.45,73.89,162.14,55.03,187.29-11.66,9.81,37.34,169.1,37.34,162.82-4-6.28,41.34,143.94,37.14,146.04-4-.57,20.18,163.38,5.51,169.67-9.13.57-2.13,143.94,6.26,131.37,1.71-7.99,17.12,130.97,21.31,124.69,2.28-5.71,14.84,109.43-27.08,117.82-22.83,7.99-83.9,172.71-109.05,199.95-19.98,11.41-105.84,155-68.12,113.08,3.42-20.55-105.08,100.1-174.24,114.77-25.11,7.99-161.71,169.66-142.84,169.66,3.42,13.13-146.27,190.06-152.55,198.45,2.85,6.85-121.87,191.6-90.43,195.79,13.13,5.14-103.56,220-185.3,299.64-30.25,17.69-213.74,223.26-161.34,183.44,7.42-23.4-160.38,173.31-160.38,164.92-1.71-8.56-179.62,160.91-238.31,165.1-31.39,5.14-299.14,201.88-345.25,224.94-31.96,3.42-363.59,158.63-332.16,72.7,10.84-36.53-275.93,75.69-223.53,37.97,25.11-22.26-236.07,5.73-236.07-11.04-7.42-15.41-295.72-20.78-318.77-22.88-17.12-9.13-314.23-51.47-297.46-72.43,1.71-12.56-307.55-72.45-330.61-57.78-10.27-4.57-341.3-103.52-318.24-128.67,10.84-11.41C.39,136.56,21.35,165.9,282.98,254.74c-299.35-34.34-305.64-13.38,2.28,13.7-240.85-22.89-240.85-41.75,13.13-11.41-224.63-80.64-199.48-112.08,17.69-14.84-166.87-93.05-164.78-80.47,8.56,5.71-164.95-73.6-158.66-52.64,8.56,4.57-125.31-78.17-60.33-130.57,21.12-23.97-98.22-156.9-131.75-131.75-15.98,0-149.31-131.75-176.55-131.75-15.41-6.85-186.3-175.2-167.43-215.02,8.56-18.26-125.69-200.95-113.11-184.18,9.13,7.42-130.63-166.45-139.01-141.3,4,10.27-88.51-151.57-52.88-149.48,17.69,8.56-68.48-128.7-66.38-123.7,3.42-.18-48.85-134.81-9.03-166.25,20.55-8.96,20.73-148.91,29.11-144.72,11.99-.57,38.09-165.1,117.73-225.89,29.11-18.26,122.16-199.24,109.59-176.18-.57,9.13,97.58-172.74,51.47-139.21-10.27,10.84,91.09-150.05,105.76-150.05,10.27,2.28,112.25-135.56,101.77-114.61-5.14,11.41Z"/>
  </g>
</svg>