<?xml version="1.0" encoding="UTF-8"?>
<svg id="Layer_2" data-name="Layer 2" xmlns="http://www.w3.org/2000/svg" viewBox="0 0 893.54 670.5">
  <defs>
    <style>
      .cls-1 {
        fill: none;
        stroke: #8165e5;
        stroke-miterlimit: 10;
        stroke-width: 3px;
      }
    </style>
  </defs>
  <g id="images">
    <path class="cls-1" d="m437.62,338.34c-572.38,297.27-590.56,250.94.04-1.68-548.58,130.9-496.54,101.56,1.69-1.6-428.64,79.04-253.13,88.33,4.74-2.4-71.98-210.68-88.68-325.05,3.56-5.21,211.06-455.92,373.06-412.93,6.12.48,523.39-302.32,641.43-160.78,2.34,4.34,545.54-3.46,438.65,37.48-3.5.91,302.11-90.21,316.81-137.24-2.17-2.19,151.75-195,72.1-151.84-2.06,1.38,136.6-2.5,162.66-41.99,1.72,1.32,266.85,53.74,290.62,107.25,1.08,2.73,274.13,250.28,216.15,318.64-2.25,2.48,61.32,351.34,9.2,321.28-2.64-.65-64.12,264.01-150.41,167.22-3.17-.68-267.76,294.74-270.6,353.65-1.42,2.05-362.27,409.15-503.29,468.6-4.09-1.31Z"/>
  </g>
</svg>