<?xml version="1.0" encoding="UTF-8"?>
<svg id="Layer_2" data-name="Layer 2" xmlns="http://www.w3.org/2000/svg" viewBox="0 0 850.07 886.42">
  <defs>
    <style>
      .cls-1 {
        fill: none;
        stroke: #33d08f;
        stroke-miterlimit: 10;
        stroke-width: 2px;
      }
    </style>
  </defs>
  <g id="images">
    <path class="cls-1" d="m431.03,431.69c-147.1,300.37,88.35,424.73-21.6-4.13,409.1,355.2,497.17,297.49-10.48,7.18,500.86,186.38,449.75,167.57,6.1,1.62,317.01,245.1,303.04,305.62,8.87-5.65,106.47,329.14-50.14,300.65,16.25,4.28-129.61,233.33-130.17-21.14-11.5,10.19,326.4,84.13,399.58,65.33-19.16,1.62,597.93-105.81,600.16-310.33,2.19,23.03,298.86-615.01-12.78-634.66,32.47-1.4-376.54-258.41-361.18-76.38,7.5-21.05-357.69,18.61-341.4,168.98-7.99-14.16-200.91,269.18-286.57,488.45,12.3-10.37-602.41,460.64-586.03,549.84,5.74-5.15-542.79,613.46-436.37,632.92-13.07,2.27-180.47,445.74-154.72,312.08-7.62,11.71Z"/>
  </g>
</svg>