<?xml version="1.0" encoding="UTF-8"?>
<svg id="Layer_2" data-name="Layer 2" xmlns="http://www.w3.org/2000/svg" viewBox="0 0 607.87 393.15">
  <defs>
    <style>
      .cls-1 {
        fill: #8052db;
      }

      .cls-2 {
        fill: #18186d;
      }
    </style>
  </defs>
  <g id="images">
    <g>
      <path class="cls-1" d="m421.96,194.95c4.13-7.64,6.7-16.12,7.52-24.77.29-3.01.31-6.24-1.26-8.83-3.12-5.15-10.72-5.12-16.32-2.92-5.6,2.19-10.82,5.93-16.83,6.19-12.95.55-23.65-15.11-36.14-11.63-8.79,2.45-12.29,12.95-13.3,22.02s-1.33,19.25-7.94,25.54c-7.08,6.74-18.26,6.03-27.31,9.73-15.84,6.48-22.54,28.79-12.89,42.92,3.56,5.22,8.84,9.28,11.48,15.02,7.15,15.54-6.53,38.68,7.25,48.82,6.25,4.6,15.1,3.19,22.24.13,7.14-3.06,13.79-7.59,21.46-8.86,2.82-.47,5.86-.44,8.36.95,7.51,4.19,4.56,15.32,4.57,23.92.02,16.8,18.81,30.73,34.89,25.84,20.81-6.32,30.68-35.92,52.43-36.21,8.56-.11,16.32,4.69,24.57,6.97,23.76,6.55,51.1-12.34,53.39-36.88,1.28-13.75-4.01-28.64,2.36-40.91,4.24-8.16,12.68-13.07,20.32-18.19,12.59-8.44,24.42-19.07,30.29-33.05,5.87-13.98,4.43-31.83-6.62-42.21-10.22-9.61-26.75-11.66-34.55-23.31-7.6-11.36-3.62-26.98-8.52-39.75-6.94-18.12-29.19-25.01-48.59-25.12-8.09-.05-17.15.33-23.1-5.15-5.4-4.98-6.29-13.14-10.19-19.37-6.91-11.07-22.11-14.03-34.94-11.63-12.83,2.4-24.48,8.92-36.94,12.79-12.46,3.87-27.19,4.68-37.47-3.36-7.58-5.92-11.76-15.91-20.42-20.1-8.02-3.88-17.74-1.59-25.62,2.55-7.89,4.14-14.8,10.01-22.86,13.82-12.19,5.75-26.38,6.37-39.56,3.55-13.57-2.91-28.19-9.21-40.59-2.95-13.47,6.8-16.51,24.51-25.98,36.27-11.89,14.75-32.7,18.61-51.65,18.8-16.36.16-36.46.33-44.16,14.77-5.84,10.96-.89,24.63-3.68,36.73-3.86,16.75-20.83,26.28-34.39,36.83-17.74,13.8-32.48,35.98-26.7,57.69,5.23,19.67,25.12,31.71,34.78,49.63,8.74,16.21,9.73,37.93,24.95,48.3,21.24,14.47,52.68-5.03,75.14,7.46,15.95,8.87,21.5,31.03,38.2,38.36,25.79,11.33,52.91-20.88,80.71-16.26,5.04.84,9.91,2.9,15.01,2.89,15.32-.03,24.17-17.52,26.71-32.62,1.67-9.94,1.66-21.53-5.69-28.42-6.63-6.21.55-27.61-3.07-35.95-9.06-20.83-30.87-1.7-25.59-14.5,5.28-12.8,13.68-24.9,14.11-38.74.68-22.32-24.55-41.21-45.77-34.27-13.28,4.34-23.7,16.5-37.61,17.73-15.81,1.4-31.09-11.95-46.36-7.62-7.86,2.23-14.08,9.42-15.15,17.52-1.08,8.1,3.05,16.66,10.06,20.87,7.55,4.53,17.22,4,25.08,7.97,7.86,3.97,11.82,17.32,3.66,20.64"/>
      <path class="cls-2" d="m433.61,193.61c3.29-6.22,6.01-12.89,7.56-19.76s3.11-15.47.82-22.61c-2.53-7.89-9.21-13.89-17.42-15.27s-14.91.46-22.12,3.78c-1.31.6-2.6,1.25-3.9,1.87-.58.27-1.16.53-1.74.81-1.76.85,3.12-.9.15-.12-.59.15-1.22.36-1.79.55-1.19.39-1.59-.26.83.03-.48-.06-1.15.08-1.67.08-1.9,0-1.67-.82.71.22-.83-.36-1.93-.42-2.81-.7-.47-.15-2.58-1.15-.46-.09,1.96.98.39.18-.1-.07-2.17-1.09-4.28-2.25-6.38-3.48-4.6-2.69-9.36-5.42-14.53-6.88-7.02-1.98-14.24-1.25-20.74,1.96-12.02,5.93-16.32,19.86-17.8,32.14-.29,2.41-.49,4.84-.77,7.25-.06.55-.16,2.51-.03.38.14-2.38-.09.42-.15.8-.25,1.41-.55,2.82-.93,4.2-.15.54-.34,1.08-.5,1.62-.31,1.03-1.07,1.52.45-.89-.65,1.03-1.2,2.19-1.81,3.25-.86,1.47,1.85-1.92.56-.77-.15.14-1.51,1.5-1.52,1.49-.13-.22,2.87-1.79.71-.6-.73.4-1.46.82-2.18,1.23-1.68.95.3-.78.91-.36-.07-.04-1.68.58-1.6.56-1.09.35-2.2.65-3.32.93-2.84.71-5.73,1.22-8.58,1.89-5.29,1.25-10.64,3.15-15.1,6.31-9.16,6.51-15.87,16.38-17.89,27.53-2.17,12-.06,24,7.48,33.77,1.84,2.38,3.79,4.62,5.78,6.88.4.45.8.91,1.19,1.37l.58.69c.74.92.76.93.05.05-.58-1.63-.13-.12.24.46.49.76.88,1.56,1.33,2.34.93,1.61-.78-2.77-.49-1.15.11.57.39,1.16.54,1.72.25.93.31,1.94.6,2.85-.94-3.02-.27-2.55-.22-1.39.02.5.07.99.1,1.49.06,1.39.06,2.78,0,4.18-.34,9.81-2.48,19.3-.28,29.07,3.11,13.82,16.55,23.1,30.54,22.03,7.55-.58,14.12-2.94,20.9-6.23,2.63-1.28,5.26-2.58,7.88-3.88,1.25-.63,1.22.12-.56.2.44-.02,1.33-.52,1.8-.69,1.52-.54,3.06-.92,4.63-1.32,2.75-.69-.77.16-.73.08.03-.06,3.6-.03,1.07-.15l-.85-.12c1.16.34,1.22.32.17-.08l-.74-.31c1.19.76.85.46-1.02-.89,1.09,1.01-.29.52-.81-1.24.06.19.59,1.06.66,1.13-1.64-1.6-.92-2.75-.63-1.36.13.64.24,1.42.45,2.04-.99-2.88-.26-2.63-.25-1.41,0,.63.05,1.26.05,1.9,0,1.18-.05,2.35-.11,3.53-.13,2.36-.36,4.71-.43,7.07-.78,25.87,24.95,45.8,49.75,40.91,9.93-1.96,18.63-8.73,25.67-15.66,3.04-2.99,5.9-6.16,8.84-9.25s6.01-5.63,8.99-8.49c-.06.06-2.85,2.06-1.16.91.36-.24.71-.51,1.07-.75.71-.48,1.44-.94,2.19-1.37.92-.53,1.93-.91,2.84-1.44-.08.05-3.38,1.22-1.46.66.61-.18,1.21-.4,1.82-.57.83-.22,1.69-.31,2.52-.53-3.96,1.05-1.82.23-.29.21.82-.01,1.63.08,2.45.1,1.89.05-2.51-.59-.7-.06,1.57.45,3.17.75,4.73,1.26,5.49,1.78,10.71,4.4,16.37,5.64s10.93,1.65,16.41,1.03c22.88-2.57,43.63-18.27,50.33-40.7,3.48-11.64,1.18-23.26,1.02-35.09-.02-1.43,0-2.86.09-4.29.03-.55-.1-1.91.21-2.35-.03.04-.72,3.39-.04.82.32-1.2.65-2.4.97-3.61.78-2.91-1.06,1.79-.09.17.38-.64.69-1.33,1.08-1.97l.47-.74c.67-.95.66-.96-.03-.05l-.53.67c.27-.34.56-.68.85-1,.87-.99,1.8-1.93,2.78-2.82.68-.62,1.82-2.1,2.71-2.3-1.26.28-1.9,1.39-.59.49.74-.51,1.47-1.05,2.21-1.56,9.83-6.78,19.9-13.24,28.09-22.06,8.35-8.99,15.45-20.09,17.76-32.31s1.24-25.59-5.11-36.82c-5.85-10.34-15.61-16.45-25.98-21.52-4.34-2.12-8.29-4.62-12.44-7.03.21.12,2.52,2.13.92.66-.38-.35-.77-.68-1.14-1.04-.46-.45-3-3.34-1.53-1.52,1.33,1.65.18.17-.11-.28-.4-.62-.72-1.28-1.11-1.9-.54-.86-.42-1.97.28.85-.2-.82-.61-1.65-.86-2.46-.34-1.11-.61-2.25-.85-3.39-.12-.58-.2-1.16-.32-1.73-.6-2.96.24,2.49.05.5-.28-2.85-.52-5.71-.74-8.56-.49-6.21-.99-12.7-3.07-18.62-8.18-23.28-31.46-33.28-54.44-35.49-5-.48-9.99-.26-14.99-.48-.74-.03-1.48-.11-2.22-.14-1.74-.07-.08-.67.97.18-.65-.53-2.5-.46-3.37-.7.11.03-1.58-.54-1.61-.51.4-.37,2.88,1.44.55.16l-.37-.2c-.94-.62-.95-.59-.03.11.9.74.91.74.03-.01-.31-.28-.61-.58-.89-.9-1.29-1.12,1.43,2.25.56.78-.35-.6-.75-1.16-1.09-1.77-.42-.75-.82-2.56-1.47-3.03.9.64,1,2.48.39.85-.25-.67-.52-1.34-.78-2-.84-2.15-1.72-4.3-2.66-6.41-2.54-5.73-6.48-10.41-11.4-14.21-9.23-7.13-21.82-9.95-33.34-8.83-13.08,1.27-24.62,6.46-36.74,11.1-5.42,2.08-10.85,3.73-16.55,4.83-2.62.51.89-.19.89-.1,0,.04-2.03.2-2.25.22-1.35.1-2.7.15-4.05.14-1.19-.01-2.37-.11-3.56-.18-2.53-.14.88-.03.96.15-.11-.24-2.14-.41-2.57-.52-1.27-.31-2.49-.75-3.73-1.15-1.69-.54,2.38,1.22.84.34-.63-.36-1.29-.65-1.92-1.02-.5-.3-.99-.62-1.48-.94-1.04-.65-.79-1.28.66.55-.82-1.03-2.08-1.87-3-2.84-3.43-3.62-6.23-7.8-9.7-11.38-10.45-10.79-25.52-13.81-39.64-8.97-6.55,2.25-12.46,5.6-18.22,9.38-2.44,1.6-4.85,3.24-7.33,4.77-1.31.81-2.64,1.59-3.99,2.32-.6.33-1.21.64-1.82.95-.69.34-3.23,2.05-.47.3-2.17,1.39-5.68,1.96-8.16,2.52-1.18.26-3.4.23-4.46.82.33-.18,3.14-.31.58-.13-1.01.07-2.01.16-3.03.21-2.87.13-5.75.07-8.61-.16-.67-.05-1.35-.14-2.02-.19-2.12-.15,3.35.61.07.01-1.66-.3-3.31-.59-4.95-.96-13.47-3.01-26.45-7.6-40.43-4.9-12.35,2.39-21.54,11.72-27.59,22.22-2.39,4.15-4.41,8.51-6.67,12.73-1.06,1.99-2.18,3.96-3.41,5.85-.27.42-2.62,3.73-1.22,1.84s-.27.27-.51.54c-.46.52-.94,1.03-1.43,1.53-.87.89-1.8,1.72-2.73,2.55-.67.6-1.9,1.15.8-.56-.46.29-.89.66-1.34.97-2.16,1.5-4.44,2.8-6.82,3.93-1.39.66-1.97.1.55-.17-.42.05-1.21.48-1.56.62-1.05.4-2.12.77-3.19,1.11-2.58.82-5.21,1.49-7.87,2.03-1.27.26-2.55.49-3.83.69-.57.09-1.15.16-1.71.26,3.54-.62,1.84-.24,1.01-.16-2.73.28-5.45.51-8.19.63-4.81.21-9.63.13-14.44.32-10.86.44-22,1.82-31.71,7.06-12.32,6.65-18.34,19.14-19.14,32.72-.34,5.8.34,11.61.15,17.42-.02.64-.05,1.29-.09,1.93-.02.35-.59,3.27-.06,1.07.47-1.98-.05.05-.16.56-.15.69-.31,1.37-.51,2.04-.28.97-.93,2.04-1.04,3.02.26-2.27,1.03-2.22.4-1.06-.38.69-.72,1.4-1.11,2.08-.59,1.02-1.23,2.02-1.92,2.98-.3.43-1.32,1.94-.13.22,1.32-1.92-.2.19-.46.48-1.59,1.84-3.32,3.57-5.12,5.21s-3.78,3.26-5.73,4.82c-1.06.85-1.11.1.74-.57-.38.14-1.07.81-1.34,1.02-1.12.85-2.26,1.68-3.39,2.51-9.37,6.89-18.65,13.75-25.98,22.88-7.84,9.76-14.49,21-16.44,33.55-2.04,13.18.19,25.96,7.05,37.48,5.61,9.42,13.45,17.28,20.63,25.47,1.49,1.7,2.93,3.44,4.36,5.19,1.84,2.24-1.42-1.95-.31-.4.33.46.67.9.99,1.36.89,1.25,1.75,2.52,2.56,3.83,1.14,1.85,2.17,3.76,3.1,5.72.28.6.55,1.21.82,1.82.73,1.58-1.06-2.64-.43-1.01.48,1.26.98,2.51,1.44,3.77,3.58,9.82,6.26,20.12,11.42,29.29,5.91,10.5,15.37,18.49,27.01,21.86,10.16,2.94,20.85,2.16,31.2,1.01,4.79-.54,9.57-1.13,14.38-1.39,2.41-.13,4.82-.18,7.24-.08,1.05.04,2.1.15,3.15.22,2.78.18-2.73-.48-.88-.13.64.12,1.28.22,1.91.35,1.14.24,2.26.52,3.37.87.62.19,1.22.42,1.83.62,1.45.48.1.76-1.07-.46.62.64,1.97.97,2.76,1.44,1.06.63,2.02,1.46,3.08,2.07-3.45-1.96-.55-.35.38.52.82.76,1.61,1.56,2.37,2.38.68.73,1.35,1.49,1.99,2.25.33.39.65.77.97,1.17,1.37,1.69.61.95-.23-.34,2.48,3.81,5.41,7.48,8.17,11.1,3.25,4.26,6.53,8.57,10.66,12.04,8.91,7.48,19.96,11.96,31.75,10.95,11.18-.96,21.13-5.04,31.28-9.59,2.07-.93,4.14-1.87,6.21-2.81,1.1-.49,2.2-.98,3.3-1.46.49-.21.98-.42,1.47-.63-3.71,1.67-1.04.44-.28.14,4.32-1.74,8.76-3.28,13.33-4.22.49-.1,1-.18,1.49-.28,2.17-.46-1.17.15-1.35.15,1.1.01,2.25-.23,3.36-.27s2.25-.04,3.37.02c.5.03,1,.08,1.5.11,2.72.17-3.69-.84-.33,0,6.38,1.58,13.18,3.74,19.81,3.06,12.9-1.32,22.96-9.06,29.45-20.1,5.73-9.75,8.53-21.05,9.31-32.26.41-5.86-.02-12.24-1.97-17.8-1.05-2.98-2.31-6.01-4.15-8.6-1.21-1.7-2.51-3.43-4-4.9-.97-.96-1.04-1.77.91,1.38-.34-.55-.96-1.97-.02.33,1.08,2.62.02-.21-.14-.92-.66-3.03.15,2.78.07.62s-.11-4.29,0-6.44c.21-4.3.73-8.59.84-12.9.29-11.45-4.43-22.97-14.73-28.89-7.13-4.1-14.45-3.86-22.26-3.12-.47.04-.98.03-1.45.1-2.17.32,2.83.52,2.21.34,4.1,1.22,7.06,4.39,8.35,8.42.89,2.77.46,2.49.2,4.39-.43,3.03-.28,1.39-.06.81.14-.36,1.04-2.75.3-.99-.87,2.06.41-.88.49-1.05.27-.59.54-1.18.82-1.77,1.24-2.66,2.55-5.28,3.83-7.92,5.5-11.37,10.95-23.86,9.54-36.82-1.28-11.78-6.67-22.73-15.5-30.74-8.9-8.07-19.79-12.93-31.77-13.88s-22.66,4.12-32.4,10.22c-2.08,1.31-4.15,2.64-6.25,3.92-2.21,1.34-5.1,2.31-7.12,3.86.21-.16,3.06-1.16.91-.38-.52.19-1.04.39-1.57.56-1.19.39-2.4.72-3.63.97-.65.13-2.18.79-.29.08s-.07-.06-.8-.04c-.8.02-3.8-.58-4.37-.22.22-.14,3.38.61.98.08-.58-.13-1.16-.23-1.74-.36-1.31-.3-2.6-.65-3.89-1.03-2.75-.81-5.46-1.77-8.17-2.69-5.94-2.03-11.81-3.64-18.09-4.2-13.51-1.21-27.04,5.74-33.69,17.64-7.42,13.28-4.96,29.19,4.89,40.46,4.56,5.22,11.11,8.5,17.67,10.4,2.58.75,5.23,1.25,7.85,1.83,1.39.3,2.78.62,4.15.99.86.24,2.74,1.27,3.59,1.15-1.34.19-2.07-1.06-.64-.23.36.21.75.45,1.12.65,2.08,1.11-1.92-1.92-.92-.7.26.32.62.68.94.94,1.25,1.04-1.9-2.98-.65-.89.23.39.49.75.71,1.14.19.33.38.88.62,1.19-1.65-2.11-.95-2.61-.62-1.39.13.48.23,1.1.43,1.55.63,1.45-.1-3.3-.2-1.74,0,.14.06,1.51.03,1.5-.17-.03.78-3.75.25-1.87s1.89-3.15.27-.7c1.8-2.71,1.82-2.29,1-1.49,2.52-2.45,2.03-1.48.68-.87-6.45,2.92-8.51,12.78-4.84,18.47,4.3,6.67,11.57,7.97,18.47,4.84,12.86-5.82,13.52-23.07,6.88-33.7-3.77-6.04-8.94-9.83-15.47-12.4-5.03-1.98-10.36-2.67-15.56-4.07-.59-.16-3.34-.61-3.58-1.12l1.49.66c-.43-.19-.85-.39-1.26-.61-.54-.28-1.07-.58-1.59-.91-2.7-1.71,1.72,1.73-.57-.5-.17-.16-1.37-1.56-1.44-1.54.28-.1,1.9,2.76.38.35-.3-.48-.58-.96-.85-1.46s-1.32-1.96-.21-.3c1.04,1.55.17.32-.04-.37s-.34-1.36-.52-2.04c-.5-1.86.76.37.13,1.09.08-.09-.06-1.71-.06-1.68,0-.47.17-1.27.08-1.68l-.26,1.94c.09-.54.21-1.07.35-1.59.14-.53.31-1.04.48-1.56.56-1.8.32.72-.42.97.25-.08,1.52-2.45,1.64-2.81-.63,1.82-1.56,1.82-.61.8.37-.4.73-.81,1.11-1.19-.04.04,1.2-1.02,1.2-1.11-1.58,1.16-1.95,1.45-1.13.86.33-.24.67-.47,1.01-.68.46-.29.94-.54,1.41-.81,1.9-1.11-.66.34-1,.36.99-.07,2.27-.66,3.25-.92,2.37-.63-.84.32-1.04.12.17.16,1.79-.09,2.12-.09.57,0,1.13.01,1.7.05,2.17.12.53.15-.61-.17,2.38.66,4.86.98,7.24,1.7,2.59.78,5.14,1.67,7.7,2.55,5.88,2.01,11.65,3.57,17.85,4.23,11.76,1.26,22.6-3.56,32.35-9.64,4.28-2.67,8.49-5.51,13.05-7.7,3.01-1.45-2.42.83.71-.32,1.11-.41,2.24-.76,3.39-1.04.49-.12.98-.2,1.47-.32,1.16-.28,1.66.32-1.37.15,1.2.07,2.49-.2,3.71-.19.9,0,2.09.32,2.96.17-.17.03-3.55-.63-1.38-.18.49.1.98.18,1.46.28.97.21,1.94.46,2.89.75.48.14.95.3,1.42.46,1.29.45,2.33,1.5-.43-.26,1.68,1.07,3.62,1.76,5.31,2.84.53.34,3.67,2.56,1.72,1.13-1.71-1.26-.31-.23.1.14.47.42.95.83,1.41,1.26.73.69,1.44,1.41,2.11,2.15.42.46.79.99,1.23,1.42,1.19,1.17-1.63-2.36-.73-.96,1.22,1.9,2.31,3.81,3.44,5.76.84,1.46-1.01-2.78-.47-1.18.16.47.35.92.51,1.39.36,1.05.67,2.12.91,3.21.11.48.19.97.29,1.46.29,1.34-.52,1.05-.18-1.37-.16,1.16.16,2.58.13,3.77-.02.64-.08,1.28-.11,1.92-.1,1.86.5.06.14-.75.31.7-.57,2.96-.76,3.72-.69,2.79-1.65,5.49-2.7,8.16-.55,1.4-.88.52.24-.55-.28.28-.6,1.34-.79,1.77-.54,1.18-1.1,2.36-1.66,3.53-1.27,2.64-2.58,5.27-3.84,7.92-2.38,5.01-5.46,10.4-5.43,16.13.03,6.76,4.73,13.28,11.51,14.7,3.27.68,5.91.42,9.12.05,1.22-.14,2.44-.26,3.67-.28.74-.01,1.46.04,2.2.06,2.3.07-3.63-.97-.85-.06.29.09.69.22,1,.28,1.97.36-2.07-.71-1.75-.8.45-.12,1.76,1.02,2.16,1.22,1.34.69-2.37-2.18-1.35-1.01.27.31.6.59.89.87,1.18,1.13.15,1.35-.63-.92.18.53.71,1.06.99,1.55.27.46.48.94.75,1.4.88,1.54-.84-2.79-.58-1.42.1.54.72,1.68.54,2.26-.06.18-.34-4-.29-1.88,0,.4.05.81.07,1.22.04,1.09.03,2.17,0,3.26-.27,8.7-2.01,17.5.2,26.11.6,2.34,1.57,4.67,2.89,6.68.96,1.46,2.01,2.67,3.18,3.9,1.48,1.56-.07.87-.22-.56.05.48.86,1.28,1.11,1.69.27.47.49.96.76,1.43.84,1.51-.88-2.65-.43-.97.32,1.2.69,2.37.97,3.58.34,1.47-.53.77-.09-1.1-.09.37.13,1.37.16,1.69.1,1.43.12,2.86.08,4.3-.03,1.15-.11,2.3-.21,3.45-.05.56-.18,1.16-.18,1.71,0-.25.52-3.37.13-1.06s-.85,4.59-1.46,6.85c-.56,2.04-1.26,4.01-1.98,6-.76,2.11.31-.86.45-1.04-.37.45-.57,1.25-.83,1.78-.51,1.05-1.06,2.08-1.65,3.09-.52.88-1.1,1.71-1.65,2.58-1.41,2.25,1.72-1.94.53-.63-.33.36-.63.76-.96,1.13-.65.73-1.35,1.38-2.04,2.07-.9.9-2.04,1.02.81-.52-.51.27-.96.69-1.45,1-.52.33-3.49,1.64-1.16.79s-1.08.29-1.71.44c-.43.1-1.01.12-1.4.27.34-.13,3.45-.11,1.41-.27-.55-.04-1.23,0-1.77,0-2.79-.02,2.49.71-.44-.05-5.9-1.53-11.93-3.06-18.06-3.25-5.18-.17-10.52.65-15.53,1.89-9.84,2.44-19.04,7.08-28.25,11.2-.97.43-1.94.86-2.91,1.29-.48.21-.97.41-1.45.63.18-.08,3.12-1.28,1.05-.45s-4.3,1.7-6.49,2.42c-1.89.62-3.8,1.17-5.73,1.6-.67.15-4.41.69-1.77.41s-1.11.07-1.76.1c-1.06.05-2.12.05-3.18,0-.47-.02-.94-.09-1.41-.1-1.69-.05,3.13.6,1.48.2-.93-.23-1.88-.37-2.81-.63-.59-.16-1.16-.38-1.75-.55-2.2-.64,2.21,1.14.79.38-1.76-.94-3.57-2.42-5.37-3.18.19.08,2.58,2.18,1.01.75-.36-.33-.74-.64-1.1-.96-.91-.82-1.78-1.69-2.62-2.59-1.36-1.45-2.5-3.14-3.89-4.56,2.73,2.78.52.67-.19-.29-.76-1.03-1.51-2.06-2.26-3.09-3.06-4.23-6.12-8.48-9.49-12.47-6.88-8.13-16.1-14.44-26.64-16.63-10.05-2.09-19.99-1.39-30.09-.25-4.76.54-9.52,1.11-14.31,1.31-2.25.1-4.49.11-6.74,0-1.02-.05-2.07-.25-3.09-.26.19,0,3.5.61,1.31.16-.75-.15-1.5-.28-2.24-.45-.98-.23-1.96-.5-2.92-.81-.35-.11-1.13-.52-1.43-.51.19,0,3.1,1.46,1.12.47-.92-.46-1.84-.92-2.73-1.46-.45-.27-.88-.58-1.33-.85-2.34-1.41,2.23,2.05.26.23-1.46-1.36-2.72-3.08-4.21-4.36,2.06,1.78,1.38,1.89.75.92-.34-.53-.71-1.04-1.05-1.58-.61-.97-1.19-1.96-1.73-2.97s-1.06-2.07-1.54-3.13c-1.36-2.96,1.04,2.66-.18-.39-.89-2.23-1.7-4.5-2.48-6.77-1.53-4.48-2.95-9.01-4.64-13.43-1.95-5.1-4.08-10.2-6.96-14.86s-6.52-9.24-10.17-13.52c-3.22-3.77-6.61-7.39-9.88-11.11-1.57-1.79-3.11-3.61-4.61-5.46-.95-1.17.14-.78.58.76-.1-.34-.82-1.11-.99-1.33-.81-1.11-1.58-2.24-2.32-3.4-1.17-1.85-2.19-3.76-3.17-5.72s.31.72.38.98c-.14-.51-.41-1.03-.59-1.54-.47-1.33-.88-2.68-1.21-4.05-.14-.58-.24-1.18-.38-1.76-.55-2.28.09.57.07.94.04-1.15-.22-2.36-.25-3.52-.03-1.32,0-2.63.1-3.94.06-.76.65-2.17-.02-.39-.76,2.03.05-.21.16-.81.47-2.47,1.14-4.89,1.99-7.26.2-.56.43-1.12.63-1.68.62-1.71-1.12,2.37-.3.74.68-1.36,1.3-2.73,2.03-4.07,1.25-2.29,2.65-4.51,4.16-6.65.36-.51.73-1.01,1.09-1.51.73-1.01.31-1.38-.4.52.44-1.18,2.2-2.65,3.03-3.57,3.55-3.95,7.53-7.28,11.54-10.73-2.97,2.55-.26.22.55-.39.89-.67,1.79-1.33,2.69-1.99,2.04-1.5,4.08-2.98,6.1-4.5,8.99-6.76,17.93-13.94,23.64-23.85,6.34-10.99,6.29-22.66,6.04-34.93-.03-1.44-.04-2.88,0-4.32.02-.63.05-1.26.09-1.9.04-.59-.13-2.53,0-.54s-.01.16.12-.51c.12-.61.26-1.21.43-1.81.12-.42.36-2.01.71-2.21-.58.34-1.24,2.52-.01.32.26-.47,2.28-3.33.76-1.38s.84-.81,1.32-1.26c.29-.27.85-.62,1.05-.92-.12.18-2.81,1.91-1.05.85,1.01-.61,1.98-1.26,3.05-1.8.38-.19.97-.37,1.29-.62-.15.12-3.24,1.2-1.21.53.94-.31,1.86-.65,2.81-.93,2.21-.65,4.45-1.08,6.72-1.47s-1.08.14-1.26.15c.52-.03,1.05-.13,1.57-.18,1.05-.11,2.11-.2,3.16-.28,2.38-.17,4.76-.27,7.14-.33,10.77-.28,21.38-.49,31.98-2.71s21.52-7.02,30.29-14.25c8.1-6.67,12.96-15.92,17.64-25.09.96-1.89,1.94-3.77,2.99-5.61,1.13-1.99,2.72-3.82,3.77-5.84-1.31,2.54-1.45,1.77-.7.96.34-.37.66-.76,1-1.12.68-.73,1.43-1.38,2.15-2.08,1.52-1.48-.71.65-.97.71.49-.12,1.13-.77,1.58-1.05s.88-.52,1.34-.76c2.57-1.35.07.27-.19.03.13.12,3.9-1.02,4.15-1.08,1.82-.42-2.63.12-.76.14.63,0,1.27-.07,1.91-.08,1.29-.02,2.58.03,3.87.14,1.12.09,2.85-.34-.16-.08.76-.07,1.72.28,2.47.42,5.84,1.1,11.53,2.86,17.31,4.21,12.87,3,26.34,3.54,39.21.27,6.51-1.65,12.81-4.46,18.56-7.92,5.14-3.1,9.97-6.69,15.19-9.65,1.16-.65,2.34-1.25,3.52-1.84,1.02-.52,1.16-1.19-.56.2.36-.29,1.46-.55,1.82-.67,1.22-.42,2.47-.78,3.73-1.07.03,0,1.7-.48,1.89-.38-1.86.22-2.26.28-1.22.18.47-.05.94-.08,1.42-.09.63-.02,1.26.03,1.88,0,2.35-.08-.38.07-.8-.2.69.43,3.21.17,3.61.95-.05-.09-2.34-1.28-.75-.25.56.36,1.16.73,1.74,1.05,1.5.83-2.07-1.81-.79-.66.5.45,1.03.88,1.52,1.34,3.52,3.33,6.28,7.36,9.46,10.99,3.8,4.34,8.48,8.19,13.77,10.54,11.97,5.32,24.91,5.42,37.54,2.37,11.51-2.77,22.03-8.5,33.31-11.99,2.61-.81,5.27-1.5,7.96-2,.44-.08,1.14-.11,1.58-.27-2.56.92-2.42.28-1.18.18,1.36-.1,2.71-.2,4.07-.21,1.09,0,2.18.02,3.27.1.3.02,1.27.23,1.63.14-1.71.42-2.71-.44-1.17-.16,1.19.22,2.37.45,3.55.76.91.24,2.5,1.14,3.41,1.1-1.57.08-2.44-1.16-1.05-.43.58.3,1.16.58,1.73.9.45.25.9.52,1.33.8.54.34,1.64,1.45.22.05-1.72-1.69.94.89,1.26,1.21.31.31.95,1.32,1.31,1.43-.65-.2-1.83-2.6-.47-.52.61.94,1.15,1.93,1.64,2.94.98,2.02-.44.78-.15-.48-.05.21.61,1.53.64,1.6,1.26,3.2,2.47,6.44,3.97,9.54,6.28,12.94,19.34,17.51,32.87,17.89,4.83.14,9.64,0,14.45.51,3.34.35-2.95-.48.38.04,1.19.19,2.37.4,3.55.64,2.34.48,4.67,1.08,6.95,1.81,1,.32,2,.66,2.98,1.04.48.18.97.41,1.46.57-.2-.06-3.07-1.39-1.08-.43s4.11,2.06,6.04,3.32c.42.28.83.58,1.25.85,1.8,1.17-.79-.59-.93-.76.61.72,1.56,1.3,2.25,1.95.81.76,1.55,1.59,2.31,2.4.38.4,1.4,1.78.12.07-1.39-1.85-.03,0,.26.44.63.94,1.2,1.91,1.72,2.91.23.45.43.92.67,1.37.81,1.51-.99-2.81-.46-1.03.78,2.6,1.43,5.12,1.92,7.79.33,1.83-.29-2.76-.12-.9.05.6.13,1.2.19,1.8.13,1.36.24,2.72.34,4.08.21,2.7.4,5.41.72,8.1.82,6.87,2.1,13.2,5.33,19.41,2.96,5.68,7.57,10.02,12.65,13.76,7.54,5.55,16.64,8.43,24.39,13.68,1.25.85-.02.75-.83-.68.17.3,1,.84,1.21,1.03.81.72,1.58,1.49,2.31,2.3.16.18.77,1.1,1.05,1.24-1.4-.72-1.49-2.08-.67-.77.72,1.15,1.43,2.28,2.04,3.49.16.33.42,1.15.69,1.47-1.36-1.6-.88-2.27-.46-.96.33,1.04.68,2.06.95,3.12.14.53.26,1.06.37,1.6.1.49.25,3,.18.64-.06-2.17-.04-.32,0,.26.06.69.11,1.38.14,2.07.05,1.25.05,2.5,0,3.75-.02.52-.51,4.35-.1,1.95.37-2.16.02-.27-.07.27-.12.69-.26,1.37-.42,2.05-.28,1.22-.61,2.43-.99,3.62-.17.53-.35,1.05-.54,1.57l-.14.39c-.41,1.04-.4,1.03.04-.03l.34-.8c-.25.56-.51,1.12-.78,1.68-.27.55-.55,1.1-.83,1.65-1.29,2.45-2.8,4.75-4.39,7.01-.68.97-.38,1.49.44-.53-.17.42-.92,1.14-1.17,1.43-.79.95-1.61,1.87-2.45,2.77-1.9,2.05-3.92,3.99-6.01,5.83-.93.83-1.88,1.63-2.85,2.42-.37.3-.99.94-1.46,1.17,2.29-1.12,1.31-.99.51-.4-2.24,1.66-4.51,3.27-6.83,4.81-11.07,7.37-21.53,14.67-26.6,27.49-4.47,11.31-2.3,23.26-1.87,35,.1,2.74-.02,5.43-.19,8.15-.11,1.74.64-2.98.17-1.31-.17.6-.23,1.26-.36,1.87-.25,1.11-.55,2.21-.9,3.29-.15.46-1.47,3.87-.51,1.58s-.64,1.23-.95,1.8c-.48.89-.99,1.76-1.53,2.61-.27.43-.55.85-.84,1.27-.76,1.1-2.07,1.88.3-.29-1.48,1.35-2.65,3.11-4.11,4.51-.74.71-1.49,1.39-2.27,2.05-.36.3-.86.62-1.19.97,2.3-2.42,1.3-1,.27-.29-1.68,1.16-3.44,2.21-5.25,3.15-.56.29-4.08,1.97-1.86.92,1.94-.91.37-.16-.16.02-.6.2-1.2.43-1.8.62-2.07.66-4.16,1.05-6.27,1.5-1.69.37,3.07-.21,1.34-.18-.62,0-1.26.12-1.88.15-1.13.06-2.27.08-3.4.04-1.01-.03-2.01-.15-3.02-.21-1.84-.11,3.6.72.95.09-.5-.12-1-.2-1.5-.31-2.76-.64-5.43-1.61-8.07-2.62-10.75-4.1-22.09-7.38-33.4-3.12-9.21,3.47-16.57,9.66-23.31,16.69-2.79,2.91-5.49,5.9-8.33,8.76-1.32,1.33-2.67,2.64-4.07,3.89-.78.69-1.59,1.34-2.38,2.02-1.24,1.08,2.45-1.77,1.1-.85-.47.32-.92.67-1.39.99-1.59,1.09-3.24,2.01-4.96,2.88-2.55,1.29,3.19-1.1-.21.02-1.06.35-2.15.53-3.22.82-1.65.46,3.06-.16,1.36-.19-.49,0-1,.06-1.49.07-1.09.02-2.28-.25-3.35-.16.26-.02,3.45.7,1.38.13-.48-.13-.98-.21-1.46-.34s-.97-.27-1.44-.42c-1.38-.44-2.21-1.43.41.29-1.66-1.09-3.58-1.89-5.27-2.98-1.82-1.17.8.52.92.73-.16-.29-.87-.73-1.15-.99-.94-.85-1.77-1.79-2.64-2.71-1.47-1.55.63.72.7.96-.11-.34-.64-.9-.86-1.24-.55-.84-.99-1.73-1.5-2.59-1.34-2.26.81,2.51.3.84-.14-.47-.34-.93-.5-1.41-.32-1.02-.38-2.31-.8-3.27,1.02,2.33.23,2.7.22,1.35,0-.63-.05-1.26-.05-1.89,0-1.02.05-2.04.11-3.05.14-2.37.35-4.74.42-7.11.18-5.95-.67-12.36-3.94-17.48-4.54-7.1-12.72-11.08-21.12-10.59-7.34.43-13.98,3.07-20.52,6.25-2.49,1.21-4.93,2.5-7.44,3.68-.45.21-2.38,1.14-.57.3,2.02-.94-.7.24-.95.33-1.3.46-2.62.84-3.97,1.14l-.45.1c-1.2.21-1.2.23,0,.07l.89-.11c-.45.05-.9.09-1.35.11-.74.04-1.49,0-2.23.03-2.02.09.64-.67.97.21-.02-.04-1.8-.41-1.69-.39-2.06-.45,1.04-.12.8.44-.01.03-1.66-.93-1.53-.86-2.44-1.38,1.82,1.97.4.25-.19-.23-.72-.87-.92-.97.22.12,1.84,2.87.95,1.17-.19-.36-.43-.76-.64-1.11-.62-1.01.04-1.52.58,1.47-.15-.83-.55-1.65-.73-2.49-.09-.41-.13-.9-.25-1.3,1.02,3.32.28,2.38.18.88-.28-4.2.19-8.41.61-12.59,1.07-10.73,1.36-21.67-4.14-31.4-1.59-2.81-3.71-5.36-5.79-7.81-1.69-1.99-3.4-4.45-5.36-6.17,1.91,1.68,1.05,1.46.49.56-.25-.4-.52-.79-.77-1.2-.47-.79-.79-1.75-1.31-2.49,1.74,2.49.87,2.3.46.95-.14-.45-.29-.89-.42-1.33-.28-.99-.36-2.1-.69-3.07.97,2.9.28,2.72.22,1.5-.03-.59-.09-1.17-.1-1.75-.03-.94-.01-1.88.04-2.82.03-.47.09-.94.12-1.41.09-1.79-.72,3.67-.13,1.14.24-1.04.44-2.08.74-3.1.26-.91.62-1.79.9-2.69.53-1.67-1.59,3.21-.38.95.22-.42.41-.85.64-1.26.44-.83.92-1.64,1.44-2.43.24-.36.63-.78.8-1.16-1.15,2.55-1.43,1.76-.36.54.62-.7,1.27-1.37,1.95-2,.28-.26.86-.63,1.05-.92-.1.15-2.82,1.96-1.07.83.79-.51,1.55-1.04,2.38-1.49.41-.23.84-.42,1.26-.65,2.24-1.2-3.15,1.05-.31.18,4.76-1.47,9.65-2.27,14.46-3.53,6.44-1.69,12.72-4.6,17.49-9.36,4.69-4.69,7.75-10.97,9.24-17.39,1.33-5.69,1.75-11.6,2.35-17.4.23-2.24-.13,1.14-.18,1.3.14-.48.17-1.05.27-1.54.2-1.04.42-2.07.69-3.09.3-1.15.71-2.25,1.07-3.38.52-1.64-1.3,2.55-.47,1.07.31-.55.55-1.15.86-1.7.24-.44.54-.85.77-1.29,1.22-2.25-1.79,1.79-.57.67.36-.33,2.92-2.76.99-1.16-1.66,1.38-.32.39.12.05,1.59-1.21,1.04.67-.89.3.2.04,1.31-.36,1.43-.4,2.15-.67-2.64,0-1.15.17.43.05.95.05,1.38.01,1.63-.13-3.1-.76-1.54-.23.97.33,2.04.54,3.03.82s1.63,1.12-1.22-.57c.4.24.91.41,1.33.62,1.13.55,2.22,1.14,3.31,1.76,3.77,2.13,7.42,4.43,11.4,6.16,6.82,2.95,13.36,4.16,20.77,2.88,3.47-.6,6.73-2.11,9.92-3.54,1.31-.59,2.6-1.23,3.9-1.86.58-.28,1.16-.55,1.73-.83,1.88-.91-.35.46-.6.23.09.09,2.62-.82,2.94-.9,1.06-.29,1.95.11-1.28.09.51,0,1.04-.09,1.55-.1.21,0,1.27.14,1.53.03-1.8.72-2.86-.66-1.37-.15.24.08,1.07.41,1.39.42l-1.93-.76c.88.56.81.48-.21-.25l-.81-.62c.71.77.67.68-.12-.26l-.62-.78c-.62-1.75-.77-2.14-.47-1.17l.13.43c.23,1.18.25,1.17.04-.01l-.15-.89c.03.61.02,1.23,0,1.84-.03.88-.26,4.86-.02,1.34-.1,1.36-.45,2.77-.73,4.1-.57,2.72-1.32,5.4-2.23,8.03-.23.66-.49,1.3-.72,1.96-1.1,3.18.89-1.74-.04.14-.69,1.4-1.34,2.82-2.07,4.21-3.3,6.24-1.79,14.97,4.84,18.47,6.24,3.3,14.94,1.82,18.47-4.84h0Z"/>
    </g>
  </g>
</svg>