<?xml version="1.0" encoding="UTF-8"?>
<svg id="Layer_2" data-name="Layer 2" xmlns="http://www.w3.org/2000/svg" viewBox="0 0 396.67 557">
  <defs>
    <style>
      .cls-1 {
        fill: #0d062d;
        stroke: #5955d8;
        stroke-miterlimit: 10;
        stroke-width: 2px;
      }
    </style>
  </defs>
  <g id="images">
    <path class="cls-1" d="m1.11,296.34s-2.5-40.5,44-44,57.15-35.99,48.33-60.75c-8.83-24.75-13.33-91.91,42.42-146.33,55.75-54.42,131.74-55.12,184.75-21.27,53.01,33.85,88.02,95.6,70.51,166.22-17.5,70.63-81.38,114.83-137.94,117.73,0,0,76.44,58.9,57.44,138.9-19,80-91.01,102.87-122.5,107.93-31.5,5.07-79.5-3.95-99-56.44-19.5-52.49,16.25-84.76,22.5-90.49,12-11,36-13,32-43s-44-35-58-32-31.65,10-44.82,7.5-25.32-7.68-33.25-21.09c-7.93-13.41-6.43-22.91-6.43-22.91Z"/>
  </g>
</svg>