<?xml version="1.0" encoding="UTF-8"?>
<svg id="Layer_2" data-name="Layer 2" xmlns="http://www.w3.org/2000/svg" viewBox="0 0 774.11 532.39">
  <defs>
    <style>
      .cls-1 {
        fill: #5739ba;
      }
    </style>
  </defs>
  <g id="images">
    <path class="cls-1" d="m356,300.03c-8,26-5,54,4,80,15,43,47,77,87,100,83,48,183,43,265,3-20,9-40,15-61,21-3,1-5,1-8,1-65,15-131,7-189-23-65-34-116-104-98-181,1-4,3-7,3-11-18,40-11,87,11,125,35,60,97,95,164,104,0,0,3,0,2,0-67-13-125-45-161-103-26-42-33-93-10-137,2-3,4-5,5-9-24,40-21,89,0,130,2,3,3,6,5,9,25,40,61,70,105,85-46-18-86-51-109-96-20-40-22-90,2-128-13,36-4,75,16,108,9,15,21,25,34,37,6,6,13,9,20,14,4,2,9,4,13,7,24,11,48,18,74,20,20,1,39,0,60-4,12-2,22-6,33-10s22-9,30-18c2-3,1-5-2-6-13-1-26,0-39,2-14,1-27,0-41-1-30-4-59-10-86-28s-47-41-56-70c16,18,35,32,57,41,56,21,117,9,168-24,12-9,24-17,34-27,7-7,13-15,20-22,4-4,7-10,11-14,16-22,27-45,37-70,11-30,16-61,18-93,0-12,1-25-3-37-2,66-17,129-58,185-30,40-67,69-114,83-4,1-7,2-11,3-47,11-99,1-133-34,18,23,45,36,73,44h4c2,1,4,1,6,2,17,3,33,1,50,6v2c-1,2-3,2-5,3-1,0-1,2-2,2-41,15-85,10-123-15-2-2-4-3-7-5-25-20-41-49-40-81-11,21-11,45-7,69,3,14,9,26,14,39,1,2,2,3,3,4v2c3,5,6,9,6,15-15-2-25-16-34-28-14-20-21-42-23-65-1-16,2-33,8-48-16,18-27,40-29,64-2,31,3,62,20,90,1,1,0,3,1,4,5,9,11,15,17,24,8,11,17,19,26,28-31-22-52-55-64-91-13-42-7-89,23-122-45,34-54,97-38,149,0,1,2,2,2,3,3,9,5,17,10,25,1,2,1,4,2,6,6,11,12,20,17,31-48-40-69-110-50-171,8-27,24-51,48-67-16,4-31,12-44,23-2,2-4,5-7,7-46,50-46,123-24,182-3-5-4-11-6-17-10-28-13-59-10-89,1-4,2-8,3-13,9-54,51-103,107-106-13,3-25,7-36,16-5,4-8,9-12,14-3,5-4,10-4,15-1,3,0,6,2,8s5,3,7,4c10,1,20-1,29-4h3c14-7,29-13,41-23-2,5-4,9-6,14-3,10-4,20-3,30,2,16,6,32,17,45,1,1,0,2,1,3,12,14,26,30,46,32v-3c-10-13-20-23-28-37-10-17-14-34-16-53,4,17,11,32,23,45,2,3,5,4,7,7,33,30,79,39,122,28h4c34-8,63-24,88-47,19-19,39-40,45-66h-2c-11,10-20,21-32,31-14,11-26,22-42,29-5,2-10,5-15,7-6,2-11,4-16,6-12,3-23,6-35,7-29,2-59-5-82-23,40,8,80-4,113-29,3-3,6-5,9-7,23-21,39-45,51-73,3-7,5-13,7-20,6-21,10-43,8-65,0-7,2-14-2-20-1-1,0,2-2,2-4,49-19,98-53,136l-9,9c-2,1-3,3-5,5-36,32-89,48-133,25,28,15,61,11,88-3,56-29,88-93,81-155,0,0-2,0-2,1-4,18-7,35-14,51-4,7-6,14-10,21-10,18-23,33-39,46-2,1-5,3-7,5-7,4-13,8-20,11l-9,3c-14,4-28,6-42,3,59-21,87-90,77-151,0-2-1-4-2-6-1-10-5-19-8-29-1-2-3-5-4-7l-2-2c-2,11,1,23,2,34,1,10,0,21-1,31-1,4-1,9-2,13-6,23-14,44-30,61-8,7-15,14-24,19-8,4-16,8-26,9,38-30,45-88,16-128-1-2-2-4-5-6-3-1-7-2-8,1-3,11-2,22-3,34-2,10-3,19-7,28-5,11-11,21-19,30-11-55-63-90-117-96-75-8-147,29-194,84,26-32,60-57,98-72,18-7,37-11,56-13,13-1,26,0,39,1,35,5,69,20,90,49-59-81-180-68-253-10-3,3-5,5-9,7-3,2-5,5-8,8-2,1-3,2-5,3-52,49-82,112-98,179C63,187.03,175,58.03,314,60.03c52,1,105,27,130,74-25-60-92-88-154-86-31,1-60,8-89,20-23,10-42,22-63,37-4,4-8,7-12,11-9,6-15,13-23,18,8-15,21-27,34-38,1-2,2-4,4-5l9-6c1-1,1-2,2-3,12-8,22-15,34-22,11-6,22-11,34-16,10-3,19-6,29-9,59-15,118-9,169,27,27,20,47,45,54,77-2-41-29-76-63-99C338-5.97,253,1.03,181,36.03c-39,19-72,44-101,77C40,161.03,9,214.03,0,275.03c2-2,3-5,4-8,22-61,54-117,103-162,6-5,11-10,17-15,38-29,76-48,123-57,45-9,91-5,131,16,2,1,4,1,6,2,25,14,45,33,58,58-10-12-20-23-34-32-48-31-103-35-157-21-34,9-63,24-91,45-4,3-7,6-11,9-26,22-46,45-64,74-4,8-8,15-13,23-6,12-11,24-15,36-1,2-2,3-3,5-25,73-32,153-8,228,0,1,0-2,0-2-13-74-9-147,17-216,9-23,19-43,33-65,24-36,51-64,88-87,33-20,67-32,105-35,21-1,42,1,63,7,24,8,46,21,63,40-6-7-15-12-23-18-2-1-4-1-6-2-16-10-33-14-51-17-23-3-45-2-68,4-12,4-24,7-36,12-9,5-18,8-27,14-24,15-43,32-62,53-2,3-4,6-7,9-42,55-65,120-63,187,6-21,9-43,15-65,1-3,2-6,4-9,4-12,8-24,14-36,1-1,0-3,1-4,31-63,81-115,148-138,41-14,85-14,124,3,27,13,50,34,62,62,20-7,42-10,62-18,12-5,23-12,35-16,4-1,8-1,11,1,13,14,7,35,1,51,0,1-2,1-2,2-5,16-17,28-30,39-2,1-5,3-7,5-7,4-14,7-21,9,61,8,110-44,126-100v-4c6-16,5-33,9-49,6,28,0,56-9,82-8,22-21,41-38,58-14,13-29,22-47,28-19,6-38,6-57,1,2,1,5,3,7,4s5,2,7,3c33,10,72,2,95-25-2-1-4,0-6,1-19,11-39,19-61,21-14,1-28,1-41-3-8-3-16-5-24-10-9-5-15-14-24-17-4-2-8-2-12-2-30-6-57-8-87-3-2,0-3-1-5-1-1,0-2-1-1-2,12-12,31-17,47-14-32,6-58,28-74,56-1,3-3,6-5,9-17,35-19,74-10,112,13,50,43,95,89,121,4,3,10,4,15,6,2,1,5-1,5-2,3-13-7-23-13-34-8-15-16-29-22-45v-3c-23-55-23-123,15-171-13,15-21,32-26,51-4,17-3,33-1,50,2,13,6,26,11,38,13,28,31,52,55,72,68,56,159,71,241,48,0-1-1-1-2-1-46,8-90,7-135-5-15-5-29-9-43-16-10-5-20-10-30-16-2-1-2-3-4-4-60-39-100-111-78-180h0Zm139,84c34-2,68-9,99-25,2-1,4-1,6-2,15-8,28-18,42-28,1-1,2-3,3-4,25-18,40-42,59-64,1,2-1,4-1,6-7,17-18,31-29,46-1,1-2,1-3,2-40,50-99,77-160,81-9,13-27,14-42,16-19,3-36,2-54-4-5-1-11-3-15-8-3-6,4-9,9-10,7-2,13-2,20-2-25-4-50-7-71-23-9-8-16-19-12-31,2-4,4-7,8-9,6-3,12-2,17,1,3,1,8,1,11,4l2,2c2,1,5,2,7,3,34,22,66,41,104,49h0ZM208,75.03c-15,16-28,32-42,50-1,2-2,5-5,7,11-23,28-42,44-61-15,7-29,17-44,24,0-1,0-2,1-3,14-13,30-23,47-30-3-22,18-39,36-47,6-2,13-4,19,0,1,11-10,19-17,27,11-2,21-7,33-5,1,0,1,1,2,2-1,0-1,2-1,2-21,13-42,22-64,30-1,1-2-1-3-1v-2c-17,18-34,37-47,58,13-17,26-35,41-51-17,18-31,38-44,59,12-21,28-41,44-59-17,18-31,39-45,59,14-20,28-41,45-59h0Zm274,236c2-4,5-8,9-11,4-2,7-6,11-9,1-1,2,0,3-1,20-15,39-27,61-37,6-2,13-4,19-1,12,5,4,20-2,29l-2,1c-7,12-18,17-28,25,58-17,101-66,126-120,1-1,1-2,3-2-13,59-57,111-114,131,19-1,38-7,56-13,3-1,6-2,9-2,0,0,1,1,2,1v2c-17,22-43,32-69,35-16,3-33,2-46-8-30,19-69,11-99-5l-3-3c-11-5-19-14-28-23-2-2-3-5-5-7-4-6-7-13-3-19,4-4,9-3,14-1,13,6,24,14,36,21,16,8,32,15,50,17h0Z"/>
  </g>
</svg>