<?xml version="1.0" encoding="UTF-8"?>
<svg id="Layer_2" data-name="Layer 2" xmlns="http://www.w3.org/2000/svg" viewBox="0 0 673.26 712.25">
  <defs>
    <style>
      .cls-1 {
        fill: #21196d;
      }
    </style>
  </defs>
  <g id="images">
    <path class="cls-1" d="m287,292c-1-2-4-3-7-4-4-3-9-5-14-6-1,0-2-2-3-2-17-4-33-5-49,0h-4c-3,1-7,2-10,4-2,1-5,1-7,2s-4,2-7,3c-37,20-62,53-77,91-1-5,2-9,3-14,2-6,5-12,8-18,6-12,13-21,21-32,10-12,21-21,34-30,34-22,76-28,111-9-28-24-69-27-104-16-17,6-32,15-47,26-14,11-25,23-36,38-8,12-14,23-20,35-2,6-4,12-8,17,13-58,57-110,115-128,38-11,83-6,111,25-32-61-115-61-169-33,1-3,4-3,6-5h2c29-19,62-24,95-19,37,6,73,31,81,69-8-38-41-65-77-76,13,0,24,5,35,11,17,10,30,23,38,41,1,2,2,5,3,7,4,11,4,23,4,34,0-4-2-8-3-12-1-2-5-5-6-1-2,11-7,21-4,32-12,6-24,15-31,28l-3,3c-11,18-14,38-17,58-5-31,9-63,34-82-29,18-46,50-48,84,0,9,0,17,1,26,1,8,3,16,5,24,5,17,13,33,21,49h-2c-26-24-38-57-41-91-1-20,3-40,12-59,3-6,7-12,11-17,6-6,11-13,19-17-29,12-47,39-56,69-8,28-5,56,3,83,17,55,58,98,109,126,3,2,7,4,9,7l-9-3c-36-15-66-39-91-70-24-32-39-68-41-107-3-46,18-95,58-119-51,11-83,60-89,110-10,89,39,170,114,220l3,3c27,18,54,29,83,41-10-1-20-4-30-8h-3c-15-5-29-12-43-19s-26-16-39-25c-23-17-40-35-57-57-20-27-33-55-42-88-15-61-5-128,44-171,3-2,6-4,9-7,13-10,29-16,45-19-5-1-10,1-15,2l-9,3c-87,34-108,145-77,226,1,2,0,4,1,6,12,31,29,58,50,84,1,1,3,2,4,3,36,43,81,71,130,93-1,2-3,1-4,1-10-2-19-6-28-9-12-5-23-11-35-17-17-10-31-20-47-32-22-18-39-36-56-59-23-32-37-64-46-102-7-30-7-58-2-89,4-19,10-37,18-54,24-47,71-83,125-81-72-20-143,37-165,104-1,2-2,3-3,5-30,89-8,184,49,260,2,3,4,7,6,10,1,1,2,1,3,2,13,18,27,31,41,46,2,2,5,2,4,5-57-41-98-100-119-167-22-74-19-155,29-221l3-6c12-13,22-26,37-37,20-15,40-24,64-29,26-4,52-3,75,10-28-25-66-29-102-21-31,7-56,22-79,43-20,18-35,39-48,62-3,6-6,13-9,19-25,59-27,122-16,186,0,1-1,2-1,3-7-14-9-29-13-44v-6c-19-107,23-220,119-274,2-1,4-1,6-2,59-34,144-26,182,33-5-28-26-50-50-64-3-1-6-3-9-5-23-12-49-15-74-15-5,1-10,0-15,1-6,1-12,2-19,3-11,2-21,6-31,9-17,7-32,14-48,24-25,17-44,35-64,56H0c32-59,91-100,159-113,60-11,123,3,162,54,16,22,24,46,21,72,10-28,7-59-6-86-23-46-68-74-116-89-12-3-24-4-35-10-1-1,0-2,1-2,26-8,52-2,77,6,4,1,9,2,14,4,2,1,4,2,7,3,2,1,4,3,7,4,1,0,3,0,4,1,14,8,28,17,40,28,4,3,6,7,10,10,37,40,54,105,19,151,7-5,12-12,17-19,2-3,3-6,5-9,28-58,2-125-43-167-25-23-54-39-85-51-3-1-8-1-11-4,9,1,17,3,25,7h3c15,6,28,13,42,20,6,3,10,8,16,12,51,36,83,93,74,155-4,28-18,54-42,69,16-7,26-22,35-37,8-13,11-27,12-42,3-28,0-57-14-83-1-1,0-3-1-4-1-2-3-4-4-6-1-1,0-3-1-4-6-10-11-18-18-27-3-3-5-7-8-10-7-7-12-13-19-20-1-1,0-1,1-1,43,29,69,71,77,121,5,33,0,65-20,94-12,16-27,27-44,35,11-2,22-6,32-12,2-2,4-4,7-5l3-3c1-1,3-1,4-2,21-18,33-42,40-69,4-20,5-38,3-58-2-19-7-37-14-55-2-4-5-8-5-12-1-4-5-7-5-11,0-1-2-1-2-2-1-4-4-7-4-11h2c4,3,6,7,9,11l2,1c23,33,35,67,37,105,1,28-5,56-18,82-2,3-3,6-5,9-20,32-53,53-90,54,45,21,95-2,125-39,22-28,35-61,37-95-3,51-27,101-72,131-29,19-65,27-97,15,43,25,97,11,133-21,55-50,72-125,62-197,0-3-2-6,1-8,23,78,4,170-63,224-15,12-31,20-49,26-29,8-61,8-87-8,36,30,89,29,130,8,3-2,6-3,9-5,43-26,72-67,88-113,0-1,2-2,2-3,6-21,10-42,14-63,3,78-36,156-106,195-11,6-23,10-35,14s-25,4-37,5c-7,0-15-1-22-2-21-4-40-14-55-29,13,17,33,26,54,32,35,8,70,1,101-15,6-4,13-7,19-11,6-5,11-9,17-13,10-8,18-17,26-27s14-19,21-30c7-14,14-27,19-41,7-19,11-37,14-57,5-39,2-77-6-115,30,102,7,224-88,290-4,2-7,4-11,7-22,13-45,22-70,24-31,3-61-2-87-21-3-3-5-5-9-7,14,17,33,28,54,35,4,1,7,2,11,3,75,16,142-25,186-84,52-71,64-156,51-238,35,123-21,277-145,326-2,1-3,2-5,3-16,5-31,8-48,10-14,1-27,0-41-3-32-6-61-21-78-49,11,19,28,33,47,42,54,26,114,14,164-16,51-32,85-80,106-134,3-7,4-14,7-21,4-14,7-27,9-41l3-27c1-7,0-14,0-21,1-27-2-54-8-81,28,116-3,249-110,321-4,2-7,4-11,7-41,24-85,35-132,24-30-7-57-23-74-48,6,9,14,17,23,24,3,2,6,5,9,7,81,49,177,10,234-56,33-39,53-81,64-131,9-46,10-88,2-133-5-26-12-49-20-73-5-14-13-26-17-40,55,104,64,233,2,339-5,8-10,15-15,23l-5,5c-26,35-59,61-98,77-4,1-9,3-13,5-22,7-44,10-67,9-38-3-76-18-99-49,22,33,60,51,99,54,44,3,85-9,123-33,79-51,120-137,127-227,4-65-7-131-34-191,47,100,53,222-2,323-34,61-86,110-155,127-4,1-9,2-13,3-58,10-124-7-153-60,16,29,45,48,77,57,51,13,102,3,148-25,4-3,7-5,11-7,115-78,145-224,111-347,2,7,3,14,5,22v5c25,130-23,270-142,332-26,13-54,21-83,22-26,1-51-4-74-14-23-11-43-29-54-52,20,42,67,63,111,65,45,2,88-13,126-40,51-37,83-87,100-146v-4c1-4,3-7,3-11,0-2,1-3,2-5,2-12,5-24,4-36-5,23-11,46-19,68-6,14-11,27-19,40-30,51-72,91-127,111-61,22-141,11-175-49,18,28,47,46,80,52s65,1,95-11c4-2,7-3,11-5,42-21,75-53,99-94,1-3,3-6,5-9s2-7,4-10c1-1,2-3,3-4,20-45,30-93,26-142-1,88-31,180-111,233-2,1-2,3-4,4-29,19-60,29-94,31-39,2-81-14-104-47,14,19,35,29,58,36,41,11,81,2,117-18,2-1,3-3,5-4,89-52,124-160,112-256,1,41-1,82-14,121-14,40-35,77-67,106-40,36-91,57-145,46-4-1-7-2-11-3-21-7-41-18-54-36,13,16,30,27,49,34,38,13,79,6,115-12,49-25,85-70,102-121-9,23-21,42-36,62-16,21-35,36-57,50-28,16-59,25-91,22-15-2-30-4-44-12-3-2-6-4-9-5l-12-9c-2-3-4-5-7-7l-9-12c51,51,136,34,185-14,33-33,55-73,63-118-4,12-7,25-12,37-2,4-4,7-5,11-2,3-3,5-5,8-1,1,0,3-1,4-15,27-33,48-58,67-29,21-61,31-96,28-23-2-45-11-61-27,12,9,25,14,40,16,11,3,22,3,33,2,40-4,74-27,100-58,4-5,7-10,10-15,22-33,33-68,34-106-7,44-22,87-53,121-10,11-20,20-33,28-9,5-18,9-27,13-18,6-37,9-56,7-17-2-33-9-46-20,21,11,44,13,67,8,22-5,40-15,56-30,14-14,27-29,34-47,2-6,6-12,5-19-4,5-7,10-11,15-30,50-92,85-147,60,37,11,76-5,102-33,33-37,46-89,35-137-2,17,0,33-4,50-2,8-3,15-6,23-1,1-2,2-2,3-15,49-63,90-115,84,10-1,20-4,30-9,3-2,6-3,9-5,48-30,64-88,52-142v-4c-2-5-1-10-5-14,7,33,6,68-8,100-14,33-44,60-81,62,12-3,22-10,32-18,2-2,4-5,7-7,17-20,26-44,28-70,1-23-3-46-11-68,0-1-2-1-2-2-5-12-11-24-20-34-1,2,1,3,1,4,20,36,30,76,20,116-5,19-13,35-27,49-7,7-15,13-24,17,26-18,40-49,41-80,2-68-49-131-112-154,1,2,3,3,4,4,17,9,31,20,45,33,11,11,21,23,28,37l3,3c5,8,7,16,11,24l3,9c11,39,4,85-28,112,22-33,18-77-3-111-26-40-69-68-116-67,0,0-2,2-1,3,13,8,25,14,38,21,9,6,17,12,25,19,7,7,14,14,20,22,19,27,30,60,20,92,3-21-3-42-15-61-18-27-43-43-72-53-6-2-12-4-19-5-51-9-99,2-143,30-1,1-2,1-3,1-2,1-3,2-5,4-1,1-2,0-3,1-3,3-6,5-9,7l-5,5c-1,1-3,1-4,2-6,7-13,11-17,19,3-1,6-3,9-5,15-12,30-20,46-29,2-1,5-1,7-2,3-2,6-3,9-5,5-2,10-3,15-5,42-14,88-14,129,6,3,2,6,3,9,5,25,15,46,39,50,68-10-19-26-33-45-43-37-19-80-16-118-2-33,13-60,35-83,62-25,30-40,64-48,102-9,38-11,75-2,113v4c2,6,3,12,6,17,1-1,1,2,2,1,3-30,1-59,7-90,1-5,3-10,3-15,1-8,5-15,7-23,9-26,21-50,39-72,4-3,6-7,10-11,3-2,5-4,7-7,1-1,3-2,4-3s2-3,3-4c42-37,109-55,156-19-49-4-93,23-120,64-40,61-39,134-13,197,21,48,53,93,98,121v-2c-11-11-21-21-31-32-1-1,0-2-1-3-28-32-48-68-57-110,0-1-2-3-2-4-7-36-8-70,4-104,2-6,3-13,6-19,20-42,59-79,108-77-15,2-28,8-41,16-4,2-9,6-13,9-11,10-20,21-27,34s-11,26-15,40c-3,14-4,27-4,41,1,21,5,42,12,62,6,16,13,30,22,45,1,2,3,2,4,4,7,11,15,21,25,29v-3c-40-57-61-126-35-190,1-2,0-3,1-5,16-35,47-65,87-67-32,7-55,31-71,59-4,8-6,17-12,24,1-18,7-35,18-50,1-1,0-2,1-3,20-28,53-46,86-38-18-22-49-28-76-25-4,1-8,2-12,2-7,1-12,5-19,5,6-6,14-7,21-11h3c30-10,64-2,87,19-2-2-4-4-7-5l-3-3c-1-1-3-1-4-2l-3-3c-20-9-42-14-64-7h-4c-4,1-8,2-12,4s-7,3-11,5c-10,6-20,11-28,21-1,1,0,1,1,1,15-11,29-18,46-24,5-2,10-2,15-3,23-4,46,0,65,13h0Z"/>
  </g>
</svg>