<?xml version="1.0" encoding="UTF-8"?>
<svg id="Layer_2" data-name="Layer 2" xmlns="http://www.w3.org/2000/svg" viewBox="0 0 942.72 595.81">
  <defs>
    <style>
      .cls-1 {
        fill: #8052db;
      }

      .cls-2 {
        fill: #18186d;
      }
    </style>
  </defs>
  <g id="images">
    <g>
      <path class="cls-1" d="m501.07,305.86c212.63-27.8,217.83-44.93,1.96-6.46,218.1-62.04,218.16-68.57-.33-2.3,209.01-81.89,193.66-81.84-4.25-.76,175.27-72.21,164.73-64.66-4.39,1.61,130.8-64.63,109.18-96.28-9.42-3.03,75.61-81.28,68.52-60.05-3.47,5.74,67.94-29.14,67.28-8.56-2.07,6.66,41.7,11.1,19.09,9.67-7.12,2.54-24.07,27.7-37.61,72.78-3.36,11.19-7.55,100.7,3.12,108.9,2.99,3.92,19.9,147.99-7.73,194.75,1.89,12.73,30.85,211.81,48.73,208.96,5.8.03,71.77,196.55,85.23,187.4,5.59-2.31,100.81,186.2,106.96,186.25,2.18.25,125.01,197.29,119.04,219.77,1.19,6.24,117.9,264.88,155.88,293.01,9.1,6.74,221.32,263.64,241.28,203.81,13.67-9.44,288.84,212.44,304.52,222.15,6.4,1.82,362.79,238.17,418.05,200,13.92-9.61,411.33,132.23,400.65,102.15.61-10.66,421.45,71.53,438.51,61.62,5.3-4.74,474.1,38.96,497.99,17.48,7.9-8.62,513.82-30.39,510.91-66.47-1.73-11,469.66-95.85,436.27-100-9.01-6.08,414.14-140.44,422.19-171.99-2.22-10.36,400.49-224.04,355.54-237.96-12.67-6.55,312.66-231.73,294.34-230.96-6.02-1.34,277.43-250.78,275.63-267.26-2.66-5.05,256.45-297.16,225.74-303.15-9.11-3.03,183.01-290.42,159.46-277.25-9.63,3.34,118.73-264.92,88.98-263.3-9.77-.88,62.66-290.63,54.19-310.82-5.32-5.24,25.82-321.87,6.19-317.25-6.68.67-19.01-301.17-32.98-289.31-5.96,3.6-67.93-273.61-96.61-272.35-10.31.93-140.36-284.86-169.9-297.59-10.58-.77-211.59-270.45-217.73-234.65-6.77,9.45-254.11-190.55-296.17-182.75-13.46,4.9-354.05-186.94-394.67-186.6-11.51,3.85-410.5-139.11-400.5-111.51-.96,9.58-412.97-62.78-447.26-43.52-8.97,9.6-501.55-3.91-531.34,40.9-6.96,15.04-502.13,109.5-461.94,133.82,9.07,12.94-433.82,189.84-431.81,233.74,6.5,12.59-364.65,271.35-301.12,231.93,19.59,1.94-243.1,273.15-231.88,317.92,9.96,10-155.96,345.65-101.16,280.55,21.04-4.24-55.86,295.83-46.03,299.99,3.91.75-8.66,299.14,9.22,263.82,6.96-8.5,10.76,221.71,10.74,198.3-1.48-7.41-16.04,179.22-1.52,135.98-.8-9.37-26.35,86.42-70.43,125.08-6.67-3.78-42.43,77.14-25.44,52.68,3.68-10.1-26.89-10.27-77.88-48.45-11.93-8.93-135.66-16.71-156.71,7.85-9.81,4.62-206.98,8.55-237.86-18.43-12.09-1.99-272.51-3.17-285.07,11.35-3.95,4.57-285.47,39.52-277.13,56.81,2.62,5.44-250.34,69.03-230.8,67.95,6.54,2.08-205.58,81.93-197.58,108.9.95,5.38"/>
      <path class="cls-2" d="m501.07,311.21c20.06-2.62,40.11-5.36,60.13-8.31,14.9-2.19,29.79-4.49,44.65-6.98,10.84-1.82,21.66-3.72,32.44-5.85,6.77-1.34,13.54-2.72,20.21-4.47,1.83-.48,3.66-.98,5.44-1.63,3.08-1.13,5.91-2.24,8.25-4.63,4.33-4.42,5.36-11.31,2.19-16.72-1.83-3.13-5.06-5.63-8.6-6.5-2.24-.55-4.65-.75-6.97-.76-5.4-.02-10.83.54-16.2,1.08-10.78,1.07-21.51,2.48-32.24,3.94-13.83,1.87-27.63,3.94-41.41,6.12-18.16,2.86-36.28,5.91-54.39,9.07-5.04.88-10.08,1.77-15.12,2.67l7.18,26.04c19.39-5.52,38.77-11.08,58.12-16.71,15.15-4.41,30.3-8.85,45.42-13.37,10.92-3.26,21.83-6.56,32.71-9.94,6.68-2.08,13.36-4.17,20-6.41,1.74-.59,3.48-1.18,5.2-1.84,3-1.15,5.71-2.09,8.02-4.39,3.08-3.07,4.34-7.16,3.77-11.42-.49-3.68-2.16-6.57-5.09-8.83-1.75-1.35-1.99-1.71-4.64-2.44-3.03-.83-4.79-.44-7.83.04-1.25.2-2.49.48-3.72.77-5.69,1.34-11.34,2.88-16.98,4.42-9.88,2.69-19.73,5.48-29.57,8.3-14.15,4.05-28.27,8.18-42.38,12.35-18.39,5.43-36.76,10.92-55.11,16.46-5.14,1.55-10.27,3.1-15.41,4.66l7.18,26.04c18.48-7.24,36.95-14.52,55.39-21.86,14.14-5.63,28.27-11.29,42.37-17.02,9.96-4.04,19.91-8.12,29.82-12.27,6.92-2.9,13.86-5.79,20.7-8.87,1.42-.64,2.84-1.28,4.23-1.99.34-.17.68-.35,1-.56,4.76-2.98,7.49-7.95,6.72-13.7s-4.49-9.58-9.72-11.26c-2.45-.79-4.92-.5-7.37,0-.33.07-.66.14-.99.24-1.4.39-2.77.88-4.14,1.35-5.73,1.99-11.4,4.14-17.07,6.29-9.49,3.6-18.95,7.28-28.4,10.99-13.2,5.18-26.37,10.43-39.53,15.71-16.83,6.75-33.64,13.57-50.43,20.42-4.67,1.91-9.34,3.81-14.01,5.73l7.18,26.04c14.84-6.11,29.68-12.21,44.53-18.27,11.55-4.72,23.11-9.42,34.67-14.09,8.38-3.39,16.78-6.76,25.18-10.1,5.28-2.1,10.57-4.2,15.87-6.24,2.17-.84,4.34-1.68,6.54-2.43.06-.02.12-.03.18-.04l-3.59.48s.02,0,.03,0l-3.59-.48s0,0,0,0l-5.96-3.47h0c-.7-.91-1.41-1.82-2.11-2.73h0c-.61-2.27-1.23-4.54-1.84-6.81h0c.16-1.19.32-2.39.48-3.59h0c.45-1.07.91-2.15,1.36-3.22,0,0,0,0,0,0l2.11-2.73s-.01.01-.02.02l2.73-2.11c-.44.32-1.03.51-1.53.73-1.3.58-2.61,1.13-3.92,1.68l3.22-1.36c-9.82,4.15-19.71,8.14-29.6,12.13-18.2,7.35-36.44,14.61-54.7,21.83-13.87,5.49-27.75,10.95-41.63,16.39,3.47,8.22,6.94,16.45,10.4,24.67,20.63-10.2,41.01-21.12,60.23-33.82,6.88-4.55,13.58-9.38,19.98-14.59,3.43-2.79,6.84-5.74,9.61-9.2,2.42-3.02,4-5.21,5.28-8.88,1.4-3.99.87-8.72-1.22-12.37s-5.58-6.2-9.57-7.15c-3.7-.88-6.57-.52-10.28.13-5.15.9-10.19,3.31-14.9,5.41-6.31,2.82-12.39,6.14-18.36,9.62-19.51,11.36-37.95,24.59-55.85,38.32-3.58,2.75-7.15,5.51-10.7,8.3l19.09,19.09c9.29-9.99,18.68-19.9,28.26-29.61,5.73-5.81,11.52-11.58,17.55-17.08,1.76-1.61,3.55-3.21,5.43-4.67l-2.73,2.11c.61-.47,1.25-1,1.97-1.31l-3.22,1.36c.08-.03.17-.06.26-.08l-3.59.48s.06,0,.09,0l-3.59-.48s.03,0,.04.01l-3.22-1.36s.02,0,.02.01l-2.73-2.11s.02.02.03.03l-2.11-2.73s0,.02.01.02l-1.36-3.22s0,.03.01.04l-.48-3.59s0,.06,0,.09l.48-3.59c-.01.1-.05.2-.09.29l1.36-3.22c-.39.91-1.07,1.72-1.66,2.49l2.11-2.73c-3.83,4.96-8.22,9.51-12.55,14.03-7.86,8.22-15.98,16.19-24.21,24.05-6.15,5.87-12.37,11.66-18.65,17.4-2.38,2.17-4.1,6.33-3.95,9.55s1.02,5.75,2.9,8.18c1.72,2.23,4.19,4.19,7.01,4.84l3.59.48c2.44,0,4.71-.62,6.81-1.84.74-.32,1.49-.63,2.23-.95l-3.22,1.36c11.52-4.86,23.33-9.52,35.53-12.37,1.97-.46,3.96-.86,5.96-1.14l-3.59.48c1.58-.21,3.22-.38,4.81-.19l-3.59-.48c.39.05.78.13,1.15.29l-3.22-1.36c.14.06.26.13.38.22l-2.73-2.11c.07.06.14.12.2.19l-2.11-2.73c.05.07.1.14.13.22l-1.36-3.22c.02.07.04.13.05.2l-.48-3.59c0,.09,0,.17,0,.26l.48-3.59c-.02.12-.05.23-.1.34l1.36-3.22c-.1.23-.24.45-.39.65l2.11-2.73c-.42.53-.94.98-1.47,1.4l2.73-2.11c-3.13,2.41-6.89,4.06-10.5,5.6l3.22-1.36c-12.83,5.41-26.48,8.95-40.05,11.94l-3.22,1.36c-1.57.85-2.84,2.01-3.79,3.48-1.76,2.28-3.03,5.22-2.9,8.18.27,5.92,4,11.44,9.91,13.02,6.99,1.86,14.23,3.57,20.92,6.39l-3.22-1.36c.63.27,1.3.55,1.85.97l-2.73-2.11c.08.06.15.13.21.2l-2.11-2.73s.04.06.05.09l-1.36-3.22s.02.05.02.08l-.48-3.59v.03c.16-1.2.32-2.39.48-3.59,0,.02,0,.03-.01.05l1.36-3.22s-.01.03-.02.04l2.11-2.73s-.04.04-.06.06l2.73-2.11s-.06.04-.09.05l3.22-1.36c-.15.06-.3.09-.46.11l3.59-.48c-1.74.21-3.59-.12-5.31-.34l3.59.48c-8.17-1.11-16.26-3.03-24.21-5.19-4.4-1.19-10.04-.1-13.13,3.47-9.4,10.85-17.69,23.2-23.54,36.35-2.53,5.69-5.66,12.13-3.87,18.54,1.66,5.93,7.16,10.18,13.35,10.19,4.1,0,7.28-1.75,10.29-4.31,2.06-1.75,3.67-4.19,5.25-6.32,6.23-8.41,11.29-17.78,16.37-26.9-8.39-2.27-16.77-4.54-25.16-6.81-1.22,16.28-2.19,32.59-2.57,48.92-.2,8.63-.47,17.41.38,26.02.39,4,.73,7.36,2.68,10.9,2.38,4.3,7.09,6.6,11.85,6.82,3.55.16,7.29-1.58,9.77-4.06,1.99-1.99,3.2-4.45,3.98-7.13.99-3.37,1.23-7.05,1.62-10.51.5-4.46.81-8.95,1.08-13.43.9-15.35,1.14-30.74,1.2-46.11,0-2.5.01-5,0-7.5h-27c2.89,21.55,5.12,43.21,6.38,64.92.86,14.76,1.34,29.58.83,44.36-.17,4.94-.43,9.9-1.09,14.8l.48-3.59c-.27,1.99-.52,4.11-1.29,5.98l1.36-3.22c-.11.26-.23.52-.41.74l2.11-2.73c-.06.07-.12.14-.2.2l2.73-2.11s-.08.05-.13.08l3.22-1.36s-.08.03-.13.03l3.59-.48s-.06,0-.09,0l3.59.48s-.09-.02-.13-.04l3.22,1.36s-.09-.05-.13-.08l2.73,2.11c-.08-.06-.14-.13-.2-.2l2.11,2.73c-.18-.23-.31-.5-.42-.76l1.36,3.22c-.86-2.06-1.13-4.42-1.43-6.62l.48,3.59c-1.19-8.84-1.44-17.83-1.64-26.74-.35-15.85-.08-31.71.41-47.55.38-12.14.91-24.27,1.55-36.39-8.84,1.2-17.68,2.39-26.52,3.59,2.75,18.84,5.63,37.66,8.71,56.45,2.4,14.63,4.92,29.23,7.65,43.8,1.97,10.55,4.05,21.08,6.37,31.55,1.42,6.4,2.88,12.82,4.77,19.11,1.69,5.62,3.68,11.78,9.09,14.91s12.14,2.06,16.73-2.18c1.72-1.59,3.28-4.4,3.76-6.67.51-2.38.72-4.84.69-7.28-.08-5.53-.74-11.06-1.39-16.54-1.26-10.69-2.8-21.34-4.47-31.97-2.13-13.63-4.49-27.23-6.95-40.8-3.21-17.67-6.62-35.3-10.16-52.9-.98-4.88-1.97-9.75-2.97-14.63-8.68,2.39-17.36,4.79-26.04,7.18,6.37,17.43,12.85,34.83,19.49,52.16,5.17,13.48,10.44,26.93,15.89,40.31,4.32,10.6,8.73,21.18,13.37,31.64,2.56,5.77,5.16,11.55,8.12,17.13,2.69,5.07,6.01,10.31,11.94,11.91s12.45-1.03,15.54-6.38c1.3-2.25,2.02-5,1.94-7.6-.07-2.42-.54-4.89-1.08-7.25-1.21-5.29-2.93-10.49-4.63-15.64-2.96-8.96-6.15-17.83-9.42-26.68-4.65-12.57-9.48-25.07-14.4-37.53-6.38-16.14-12.93-32.21-19.58-48.24-1.85-4.45-3.7-8.89-5.56-13.32l-24.67,10.4c8.98,16.58,17.99,33.15,27.06,49.68,7.11,12.96,14.24,25.9,21.44,38.81,5.18,9.3,10.39,18.59,15.67,27.85,3.27,5.73,6.54,11.45,9.93,17.1.9,1.5,1.8,3,2.75,4.46s2.06,3.3,3.38,4.49c.42.38,2.3,1.84,2.78,2.14-32.66-20.93,2.27,1.14,3.24,1.37,2.31.53,4.89.74,7.19,0,5.76-1.86,9.93-6.88,9.94-13.06,0-1.56-.18-2.82-.65-4.16-.76-2.15-1.78-4.28-2.79-6.33-2.37-4.84-4.89-9.6-7.42-14.36-4.48-8.45-9.03-16.87-13.61-25.27-6.58-12.07-13.21-24.11-19.88-36.14-8.66-15.63-17.38-31.22-26.13-46.8-2.47-4.39-4.94-8.78-7.41-13.17-7.77,4.54-15.54,9.08-23.31,13.63,9.9,15.63,19.72,31.32,29.42,47.08,7.98,12.96,15.87,25.97,23.65,39.05,6.07,10.21,12.08,20.47,17.96,30.79,4.2,7.38,8.35,14.79,12.34,22.29,2.37,4.46,4.75,8.94,6.8,13.56.16.35.31.71.46,1.07l-1.36-3.22c.4.95.87,1.96,1.02,2.99l-.48-3.59c.01.1.02.21.01.32l.48-3.59s-.01.07-.03.1l1.36-3.22s-.02.03-.03.05l2.11-2.73s-.02.02-.03.03l2.73-2.11s-.02.01-.03.02l3.22-1.36s-.02,0-.04,0l3.59-.48s-.04,0-.05,0l3.59.48s-.07-.02-.11-.03l3.22,1.36c-.11-.05-.2-.11-.29-.18l2.73,2.11c-.88-.69-1.57-1.66-2.25-2.54l2.11,2.73c-2.71-3.51-5.15-7.23-7.57-10.93-4.19-6.41-8.24-12.92-12.24-19.45-5.74-9.37-11.37-18.82-16.94-28.29-7.23-12.31-14.36-24.69-21.42-37.1-8.73-15.35-17.36-30.76-25.91-46.2-1.18-2.13-2.36-4.26-3.54-6.4-1.61-2.93-4.88-5.33-8.07-6.2s-7.53-.49-10.4,1.36-5.42,4.63-6.2,8.07l-.48,3.59c0,2.44.62,4.71,1.84,6.81,10.61,23.83,21.38,47.59,32.38,71.24,8.88,19.09,17.9,38.12,27.14,57.04,6.91,14.15,13.94,28.25,21.2,42.22,4.8,9.22,9.66,18.42,14.89,27.4,1.55,2.67,3.14,5.33,4.85,7.9,1.54,2.32,3.13,4.72,5.1,6.68,2.76,2.73,6.37,4.45,10.31,4.46,6.22.02,11.74-4.27,13.36-10.25.96-3.54.37-7.23-.64-10.69-2.25-7.71-5.65-15.16-8.77-22.54-5.15-12.18-10.65-24.21-16.22-36.2-8.28-17.81-16.81-35.5-25.46-53.14-11.66-23.79-23.54-47.48-35.55-71.09-3.38-6.65-6.77-13.29-10.18-19.92l-21.2,16.36c10.27,12.24,20.64,24.4,31.1,36.48,9.3,10.72,18.68,21.37,28.17,31.93,8.35,9.29,16.78,18.51,25.31,27.62,7.31,7.81,14.69,15.54,22.18,23.17,6.29,6.41,12.66,12.76,19.14,18.99,5.27,5.07,10.61,10.06,16.07,14.92,4.25,3.78,8.56,7.49,13.02,11.02,4.04,3.2,8.12,6.41,12.47,9.19,3.07,1.97,6.38,3.67,9.85,4.81,1.82.6,3.82.87,5.72.88,1.3,0,2.74-.21,3.97-.51.13-.03.25-.05.38-.09,2.49-.72,4.64-1.97,6.51-3.77,4.51-4.37,5.19-10.53,3.92-16.36-.22-1-.58-1.97-.96-2.93-.95-2.34-1.93-4.66-3.11-6.9-1.8-3.41-3.87-6.67-6.01-9.86-2.97-4.43-6.11-8.73-9.34-12.98-4.77-6.27-9.65-12.45-14.67-18.53-5.28-6.39-10.67-12.69-16.15-18.92-6.4-7.28-12.91-14.47-19.5-21.58-7.56-8.16-15.22-16.23-22.96-24.22-8.72-9-17.55-17.91-26.45-26.73-9.9-9.81-19.89-19.51-29.98-29.13-5.28-5.04-10.59-10.05-15.91-15.04-5.45,7.07-10.91,14.14-16.36,21.2,13.49,9.92,26.98,19.84,40.48,29.76,12.22,8.98,24.45,17.96,36.67,26.94,10.83,7.95,21.67,15.9,32.51,23.85,9.53,6.99,19.07,13.98,28.61,20.96,8.14,5.96,16.28,11.91,24.42,17.86,6.78,4.95,13.56,9.9,20.34,14.85,5.43,3.96,10.86,7.91,16.3,11.86,4.02,2.92,8.05,5.84,12.09,8.74,2.64,1.9,5.29,3.81,7.95,5.69,1.22.86,2.43,1.78,3.71,2.56.61.37,1.1.51,1.88.83-2.74-1.16,1.11.54,1.64.69,2.27.62,4.92.62,7.19,0,8.41-2.32,12.43-12.36,8.07-19.84-.71-1.22-1.59-2.34-2.68-3.24-2.29-1.88-4.68-3.65-7.03-5.45-2.85-2.18-5.72-4.34-8.58-6.5-4.31-3.25-8.63-6.48-12.96-9.72-5.74-4.3-11.49-8.58-17.24-12.87-7.23-5.39-14.47-10.78-21.71-16.16-8.67-6.44-17.34-12.88-26.01-19.32-10.14-7.52-20.28-15.04-30.43-22.56-11.68-8.65-23.36-17.3-35.05-25.95-13.12-9.71-26.25-19.42-39.37-29.13-6.92-5.12-13.85-10.24-20.77-15.35-4.54,7.77-9.08,15.54-13.63,23.31,16.96,11.13,34,22.16,51.12,33.05,15.45,9.83,30.98,19.55,46.58,29.14,13.91,8.55,27.88,16.99,41.93,25.3,12.33,7.29,24.71,14.48,37.17,21.54,10.71,6.06,21.47,12.03,32.31,17.85,9.05,4.86,18.15,9.63,27.34,14.24,7.36,3.69,14.77,7.29,22.26,10.7,6.65,3.02,13.37,5.94,20.19,8.55,3.86,1.48,7.79,2.9,11.82,3.86,4.5,1.08,9,1.67,13.54.56,3.81-.93,7.33-3.67,9.24-7.07,1.29-2.31,1.99-4.87,1.95-7.52-.02-1.45-.22-3.06-.69-4.48-1.49-4.51-4.44-8.2-7.74-11.54-3.12-3.15-6.55-5.99-10.01-8.74-6-4.78-12.16-9.36-18.42-13.78-7.14-5.04-14.4-9.92-21.71-14.7-9.17-5.99-18.43-11.83-27.75-17.58-11.22-6.92-22.53-13.7-33.89-20.38-13.31-7.83-26.7-15.52-40.14-23.11-15.43-8.71-30.94-17.29-46.5-25.77-17.59-9.58-35.25-19.02-52.96-28.35-9.34-4.92-18.7-9.81-28.08-14.67-3.47,8.22-6.94,16.45-10.4,24.67,19.12,6.15,38.25,12.24,57.41,18.27,17.16,5.4,34.34,10.76,51.54,16.05,15.08,4.64,30.18,9.23,45.3,13.76,13.13,3.93,26.28,7.82,39.44,11.63,11.08,3.21,22.18,6.38,33.29,9.47,9.09,2.53,18.2,5.01,27.33,7.42,7.12,1.87,14.24,3.7,21.4,5.42,5.16,1.24,10.33,2.44,15.53,3.48,4.33.87,8.71,1.62,13.11,2.06,4.79.48,9.78-.64,13.28-4.17,5.4-5.45,5.2-14.41-.17-19.77-1.26-1.26-2.75-2.33-4.28-3.26-2.36-1.43-4.95-2.52-7.48-3.61-5.41-2.32-10.87-4.51-16.38-6.59-6.33-2.39-12.71-4.67-19.09-6.9-8.24-2.88-16.5-5.68-24.78-8.43-10.19-3.39-20.41-6.7-30.65-9.97-12.06-3.85-24.15-7.64-36.24-11.38-13.96-4.31-27.94-8.56-41.93-12.77-15.85-4.76-31.71-9.45-47.59-14.1-17.8-5.2-35.62-10.35-53.45-15.43-9.26-2.64-18.53-5.27-27.81-7.89l-7.18,26.04c19.73,3.35,39.46,6.67,59.2,9.96,17.7,2.95,35.4,5.87,53.11,8.77,15.8,2.58,31.6,5.13,47.41,7.66,13.76,2.2,27.53,4.37,41.3,6.51,11.78,1.83,23.56,3.64,35.35,5.41,9.82,1.48,19.65,2.93,29.48,4.34,8.92,1.28,17.84,2.52,26.78,3.71,5.8.78,11.6,1.53,17.41,2.22,3.74.44,7.49.87,11.25,1.18,2.92.24,5.83.43,8.72-.31,2.49-.64,4.42-1.86,6.29-3.58,5.31-4.87,5.26-14.34,0-19.23-2.27-2.11-4.03-2.92-6.96-3.96-2.17-.76-4.46-1.23-6.7-1.74-4.28-.97-8.58-1.84-12.88-2.69-6.36-1.26-12.74-2.46-19.12-3.64-8.49-1.57-16.99-3.09-25.49-4.58-10.56-1.86-21.13-3.68-31.7-5.47-12.73-2.16-25.46-4.29-38.19-6.39-14.8-2.44-29.61-4.85-44.42-7.24-16.93-2.73-33.87-5.43-50.82-8.1-19.15-3.02-38.31-6.01-57.48-8.97-10.02-1.55-20.04-3.09-30.07-4.63-1.2,8.84-2.39,17.68-3.59,26.52,22.21,1.82,44.42,3.6,66.64,5.31,19.95,1.54,39.91,3.03,59.87,4.46,17.76,1.27,35.53,2.5,53.3,3.67,15.56,1.02,31.12,2,46.68,2.92,13.34.79,26.68,1.53,40.02,2.21,11.14.57,22.28,1.09,33.42,1.54,8.85.36,17.69.67,26.54.9,6.58.17,13.16.3,19.75.3,4.3,0,8.61-.02,12.9-.25,3.17-.17,6.58-.25,9.59-1.24,2.33-.77,4.69-1.87,6.38-3.72,4.18-4.57,5.36-11.11,2.16-16.61-2.12-3.65-5.33-5.48-9.13-6.84-2.35-.84-4.89-1.22-7.34-1.64-5.94-1.01-11.92-1.78-17.9-2.52-7.13-.89-14.27-1.67-21.41-2.41-9.5-.98-19.01-1.88-28.52-2.73-11.93-1.07-23.87-2.07-35.81-3.02-14.24-1.14-28.49-2.21-42.73-3.24-16.76-1.21-33.53-2.36-50.3-3.47-19.14-1.26-38.28-2.47-57.43-3.62-21.58-1.3-43.17-2.55-64.76-3.75-11.34-.63-22.68-1.25-34.02-1.85v27c23.95-1.42,47.89-2.91,71.83-4.5,21.47-1.42,42.93-2.92,64.39-4.51,18.99-1.41,37.97-2.89,56.95-4.46,16.51-1.37,33.02-2.8,49.52-4.33,14.04-1.3,28.07-2.67,42.09-4.14,11.56-1.21,23.12-2.49,34.66-3.88,10.24-1.23,20.47-2.55,30.68-4.01,6.64-.95,13.28-1.96,19.88-3.15,4.18-.76,8.37-1.55,12.47-2.68s8.06-2.58,11-5.6c2.6-2.67,4.11-6.22,4.09-9.96s-1.61-7.17-4.21-9.93c-1.84-1.95-4.16-2.96-6.63-3.83-.38-.13-.76-.25-1.16-.34-4.13-.95-8.52-1.21-12.75-1.4-5.52-.24-11.06-.24-16.59-.18-7.99.08-15.98.32-23.97.62-10.45.4-20.9.91-31.35,1.5-12.91.72-25.82,1.55-38.73,2.44-15.37,1.06-30.74,2.22-46.1,3.45-17.83,1.43-35.65,2.94-53.46,4.53-20.21,1.8-40.41,3.69-60.61,5.66-22.73,2.21-45.44,4.51-68.15,6.89-11.87,1.24-23.73,2.51-35.59,3.79,1.2,8.84,2.39,17.68,3.59,26.52,21.82-4.45,43.63-8.93,65.44-13.43,19.42-4.01,38.84-8.04,58.25-12.11,17.05-3.57,34.09-7.16,51.13-10.77,14.7-3.12,29.39-6.26,44.08-9.44,12.41-2.68,24.81-5.39,37.2-8.13,10.05-2.22,20.1-4.47,30.13-6.75,7.76-1.77,15.52-3.56,23.27-5.4,5.5-1.31,10.99-2.64,16.47-4.05,3.26-.84,6.53-1.68,9.74-2.69,1.9-.6,3.77-1.33,5.57-2.19,4.4-2.1,7.63-7.27,7.42-12.14-.27-6.13-4.08-11.47-10.07-13.14-1.32-.37-2.74-.52-4.13-.54-.78-.01-1.56.06-2.34.14-4.37.42-8.73,1.1-13.07,1.77-5.35.83-10.68,1.74-16.01,2.67-7.48,1.31-14.96,2.66-22.43,4.05-9.64,1.78-19.27,3.61-28.89,5.45-11.7,2.24-23.4,4.52-35.09,6.82-13.78,2.71-27.55,5.45-41.32,8.22-15.83,3.18-31.66,6.39-47.48,9.61-17.86,3.65-35.72,7.32-53.57,11.02-19.87,4.11-39.74,8.26-59.6,12.42-10.3,2.16-20.59,4.32-30.88,6.5l7.18,26.04c19.4-6.58,38.79-13.22,58.15-19.92,17.37-6.01,34.72-12.08,52.05-18.21,15.41-5.45,30.8-10.96,46.17-16.53,13.44-4.87,26.86-9.79,40.26-14.78,11.47-4.27,22.92-8.59,34.34-12.97,9.52-3.66,19.02-7.36,28.49-11.15,7.5-3,14.98-6.04,22.42-9.17,6.55-2.76,13.1-5.54,19.56-8.5,3.54-1.62,7.07-3.28,10.49-5.16,3.63-2,6.98-4.36,9.29-7.87,3.46-5.26,2.35-12.72-2.04-17.06-2.9-2.87-6.81-4.21-10.84-4.18-2.14.01-4.29.44-6.38.78-1.45.23-2.88.53-4.31.85-4.44.99-8.83,2.19-13.21,3.43-6.49,1.83-12.94,3.79-19.38,5.79-8.46,2.63-16.9,5.36-25.32,8.13-10.58,3.48-21.13,7.05-31.66,10.66-12.59,4.32-25.15,8.7-37.7,13.14-14.64,5.18-29.26,10.42-43.86,15.71-16.77,6.08-33.51,12.22-50.24,18.42-18.78,6.96-37.53,13.98-56.26,21.05-9.81,3.7-19.61,7.42-29.41,11.15,3.47,8.22,6.94,16.45,10.4,24.67,18.59-10.4,37.15-20.87,55.67-31.41,16.54-9.42,33.05-18.9,49.51-28.46,14.4-8.36,28.76-16.78,43.08-25.27,12.35-7.33,24.66-14.71,36.92-22.17,10.36-6.3,20.68-12.66,30.95-19.11,8.33-5.23,16.62-10.51,24.84-15.89,6.37-4.16,12.7-8.38,18.95-12.71,4.44-3.08,8.85-6.21,13.14-9.51,3.44-2.65,7.05-5.25,10.11-8.36,1.38-1.4,2.68-2.98,3.7-4.65.07-.12.12-.24.19-.36.56-1.08,1.14-2.32,1.46-3.52.99-3.76.41-7.43-1.39-10.84-.57-1.08-1.34-2.07-2.24-2.89-1.79-1.63-3.75-2.99-6.15-3.58-1.37-.34-2.84-.6-4.25-.58-1.97.03-4,.37-5.92.88-4.12,1.09-8.09,2.95-11.99,4.61-4.79,2.05-9.5,4.29-14.17,6.58-6.54,3.21-13.02,6.54-19.47,9.93-8.31,4.37-16.56,8.83-24.79,13.35-9.99,5.49-19.93,11.07-29.83,16.71-11.67,6.64-23.29,13.35-34.88,20.13-13.32,7.79-26.59,15.65-39.83,23.58-14.94,8.94-29.84,17.96-44.7,27.05-16.54,10.11-33.03,20.29-49.48,30.54-8.58,5.35-17.15,10.71-25.71,16.09,4.54,7.77,9.08,15.54,13.63,23.31,14.55-10.78,29.08-21.58,43.6-32.4,13.02-9.7,26.03-19.43,39.02-29.17,11.39-8.54,22.77-17.11,34.14-25.69,9.84-7.43,19.66-14.88,29.47-22.35,8.29-6.32,16.57-12.65,24.84-19.01,7.65-5.88,15.28-11.78,22.89-17.72,5.25-4.09,10.49-8.2,15.7-12.35,3.74-2.98,7.48-5.97,11.17-9.01,2.25-1.86,4.51-3.72,6.67-5.68,3.46-3.14,6.15-6.94,6.16-11.88.02-7.4-6.21-13.55-13.57-13.59-1.25,0-2.67.2-3.9.55-1.55.45-3.22,1.27-4.67,2.11-2.13,1.23-4.17,2.62-6.2,3.99-3.55,2.39-7.06,4.85-10.56,7.31-5.01,3.53-9.99,7.1-14.96,10.68-6.42,4.63-12.81,9.29-19.2,13.96-7.83,5.74-15.65,11.5-23.45,17.27-9.24,6.84-18.46,13.7-27.67,20.58-10.63,7.94-21.25,15.91-31.86,23.89-12.07,9.09-24.13,18.2-36.18,27.32-13.4,10.15-26.78,20.32-40.15,30.51-6.98,5.32-13.96,10.65-20.93,15.98,5.45,7.07,10.91,14.14,16.36,21.2,12.95-11.71,25.88-23.43,38.79-35.18,11.66-10.61,23.29-21.25,34.91-31.91,10.26-9.42,20.5-18.86,30.72-28.32,8.92-8.26,17.82-16.54,26.7-24.85,7.58-7.09,15.15-14.2,22.68-21.34,6.27-5.94,12.52-11.89,18.74-17.88,4.9-4.72,9.79-9.45,14.64-14.23,3.57-3.51,7.12-7.05,10.62-10.63,2.24-2.29,4.48-4.6,6.61-7,1.69-1.9,3.47-3.85,4.71-6.06-.79,1.42,1.16-2.29,1.41-3.38.56-2.5.69-4.77,0-7.27-1.62-5.83-7.11-9.99-13.16-9.98-2.78,0-5.45.87-7.81,2.31-2.73,1.66-5.21,3.81-7.7,5.79-3.05,2.42-6.03,4.93-9,7.45-4.39,3.72-8.74,7.5-13.07,11.29-5.7,4.99-11.37,10.02-17.02,15.06-7.03,6.28-14.03,12.58-21.01,18.91-8.36,7.57-16.69,15.17-25.01,22.78-9.69,8.87-19.35,17.77-29,26.69-11.07,10.24-22.12,20.5-33.15,30.78-12.36,11.52-24.69,23.06-37,34.62-6.46,6.06-12.91,12.13-19.36,18.21l19.09,19.09c11.97-13.87,23.89-27.77,35.76-41.73,10.55-12.41,21.07-24.85,31.53-37.34,9.25-11.05,18.47-22.13,27.62-33.26,7.89-9.59,15.74-19.22,23.54-28.89,6.59-8.18,13.15-16.4,19.64-24.66,6.01-7.65,11.97-15.33,17.86-23.07,4.07-5.35,8.1-10.74,12.04-16.18,2.85-3.94,5.66-7.91,8.35-11.96,1.64-2.48,3.28-4.99,4.64-7.63,2.77-5.39,4.36-11.23,1.06-16.94-4.23-7.31-13.96-8.78-20.66-4.17-3,2.06-5.77,4.48-8.41,6.98-3.14,2.97-6.15,6.07-9.13,9.19-4.26,4.46-8.43,9.01-12.57,13.59-5.34,5.91-10.61,11.87-15.84,17.87-6.45,7.4-12.84,14.84-19.18,22.32-7.49,8.82-14.92,17.69-22.31,26.59-8.53,10.28-17.01,20.6-25.45,30.96-9.61,11.79-19.16,23.63-28.66,35.5-10.58,13.21-21.1,26.46-31.57,39.75-5.5,6.97-10.98,13.96-16.45,20.95l21.2,16.36c8.5-13.49,16.98-27,25.44-40.53,7.56-12.1,15.1-24.21,22.6-36.35,6.56-10.59,13.09-21.2,19.59-31.83,5.61-9.16,11.19-18.33,16.74-27.53,4.67-7.73,9.32-15.48,13.94-23.25,3.77-6.34,7.52-12.7,11.22-19.08,2.85-4.9,5.67-9.81,8.44-14.75,1.96-3.5,3.9-7.01,5.76-10.56,1.1-2.1,2.2-4.22,3.14-6.4.65-1.49,1.51-3.18,1.94-4.83,1.58-6.03-.68-12.6-6.22-15.84-6.19-3.63-13.64-1.58-18.08,3.6-2.25,2.63-4.31,5.45-6.34,8.26-2.29,3.17-4.51,6.38-6.71,9.62-3.08,4.53-6.12,9.09-9.13,13.66-3.87,5.87-7.7,11.77-11.51,17.69-4.67,7.25-9.31,14.52-13.92,21.8-5.41,8.54-10.79,17.1-16.15,25.68-6.16,9.86-12.29,19.73-18.4,29.62-6.93,11.22-13.83,22.46-20.71,33.72-7.62,12.47-15.21,24.96-22.78,37.46-3.95,6.52-7.89,13.04-11.82,19.57,7.77,4.54,15.54,9.08,23.31,13.63,10.52-23.47,20.85-47.01,30.9-70.68,8.15-19.18,16.15-38.42,23.82-57.8,5.19-13.12,10.25-26.29,14.93-39.59,2.82-8.01,5.62-16.09,7.71-24.33.83-3.27,1.41-6.55,1.75-9.92.06-.6.07-1.19.03-1.79-.23-3.21-.28-3.31-1.29-5.71-1.17-2.77-3-5.27-5.73-6.74-6.15-3.32-13.33-2.04-18.08,2.99-2.05,2.17-3.79,4.74-5.37,7.28-4.12,6.61-7.58,13.66-11,20.66-5.78,11.84-11.2,23.86-16.48,35.93-7.81,17.85-15.33,35.83-22.66,53.88-8.9,21.91-17.53,43.93-25.96,66.03-2.36,6.17-4.69,12.35-7.02,18.53,8.68,2.39,17.36,4.79,26.04,7.18,5.59-25.91,11.08-51.85,16.43-77.81,4.25-20.58,8.41-41.19,12.43-61.82,2.95-15.15,5.83-30.31,8.53-45.51,1.71-9.61,3.38-19.23,4.75-28.89.55-3.87,1.12-7.74,1.47-11.64.23-2.5.29-4.98-.38-7.45-1.95-7.23-9.49-11.81-16.84-9.8-2.17.59-4.61,1.93-6.14,3.61-.84.92-1.75,1.99-2.36,3.12-1.24,2.32-2.13,4.94-2.9,7.46-2.21,7.14-3.93,14.45-5.68,21.72-3.17,13.15-6.12,26.36-9.01,39.58-4.19,19.16-8.23,38.36-12.19,57.57-5.21,25.3-10.29,50.62-15.27,75.96-1.41,7.16-2.81,14.31-4.2,21.47,8.84,1.2,17.68,2.39,26.52,3.59,2.29-28.54,4.43-57.1,6.36-85.66,1.49-22.13,2.86-44.26,3.99-66.41.82-15.9,1.53-31.81,1.97-47.73.27-9.74.5-19.49.23-29.23-.07-2.52-.16-5.05-.45-7.56-.54-4.68-1.12-8.92-4.69-12.46-5.36-5.33-14.22-5.25-19.52.11-2.07,2.09-3.05,4.3-3.99,7.07-.63,1.85-.94,3.83-1.28,5.75-1.65,9.55-2.67,19.22-3.64,28.86-1.47,14.51-2.65,29.04-3.73,43.58-1.53,20.65-2.84,41.33-4.01,62-1.52,26.74-2.83,53.5-3.99,80.26-.32,7.37-.63,14.74-.93,22.11h27c-1.68-26.68-3.48-53.35-5.44-80-1.51-20.55-3.13-41.1-4.92-61.62-1.28-14.65-2.64-29.3-4.22-43.92-1.08-10.01-2.23-20.04-3.8-29.99-1.02-6.45-2.14-13.48-8.39-17.12s-15.06-1.39-18.79,5.09c-.86,1.5-1.38,2.85-1.64,4.45-.5,3.08-.74,6.09-.79,9.2-.14,8.07.19,16.15.52,24.21.56,13.65,1.36,27.3,2.23,40.93,1.23,19.2,2.63,38.38,4.14,57.56,1.95,24.83,4.06,49.65,6.29,74.46.61,6.78,1.23,13.56,1.85,20.34,8.84-1.2,17.68-2.39,26.52-3.59-6.06-24.39-12.32-48.74-18.9-73-5.13-18.95-10.45-37.85-16.08-56.65-4.09-13.67-8.33-27.3-12.95-40.8-3.24-9.49-6.69-18.9-10.71-28.09-.98-2.25-2-4.51-3.25-6.62-1.69-2.85-3.97-5.88-7-7.45-5.62-2.91-12.35-2.41-16.98,2.18-1.91,1.9-3.21,4.28-3.9,6.88s-.75,5.63-.53,8.41c.66,8.37,2.31,16.71,4.01,24.93,2.59,12.47,5.62,24.85,8.79,37.19,4.57,17.84,9.49,35.6,14.57,53.31,6.6,23.01,13.51,45.92,20.61,68.78,1.97,6.36,3.97,12.71,5.97,19.06l24.67-10.4c-12.55-25.47-25.25-50.87-38.15-76.16-10.26-20.12-20.66-40.19-31.26-60.13-7.79-14.65-15.68-29.25-23.83-43.71-5.22-9.27-10.5-18.52-16.19-27.52-1.61-2.54-3.24-5.07-5.02-7.49-2.25-3.06-4.4-6.17-7.73-8.16-4.35-2.6-9.86-2.76-14.28-.17s-6.87,7.34-6.87,12.36c0,2.76.78,5.6,1.68,8.21,2.93,8.54,6.75,16.8,10.48,25.02,5.98,13.19,12.3,26.23,18.7,39.22,9.31,18.9,18.85,37.68,28.5,56.41,12.83,24.89,25.87,49.66,39.04,74.37,3.67,6.88,7.34,13.75,11.03,20.62l21.2-16.36c-9.83-12.56-19.7-25.08-29.63-37.57-8.88-11.16-17.8-22.29-26.78-33.38-7.84-9.68-15.73-19.33-23.67-28.93-6.88-8.32-13.8-16.6-20.78-24.83-5.84-6.9-11.73-13.76-17.67-20.57-4.84-5.54-9.72-11.05-14.67-16.5-3.85-4.24-7.74-8.44-11.71-12.55-2.81-2.91-5.66-5.8-8.63-8.55-2.61-2.43-5.37-4.78-8.31-6.79-4.73-3.23-11.11-3.95-16.17-.96-4.35,2.57-6.99,7.39-6.91,12.42.03,1.74.32,3.61.96,5.26,1.26,3.28,2.78,6.31,4.58,9.31,1.98,3.3,4.11,6.51,6.28,9.69,3.06,4.48,6.21,8.9,9.4,13.29,4.08,5.61,8.24,11.16,12.44,16.68,5.76,7.57,11.59,15.1,17.46,22.58,6.17,7.86,12.41,15.68,18.68,23.46,7.18,8.91,14.42,17.77,21.7,26.6,8.22,9.97,16.49,19.89,24.81,29.77,9.3,11.06,18.66,22.07,28.07,33.05,4.88,5.7,9.77,11.38,14.68,17.06,5.45-7.07,10.91-14.14,16.36-21.2-11.92-8.94-23.89-17.83-35.9-26.65-10.87-7.99-21.79-15.92-32.75-23.79-9.8-7.04-19.64-14.02-29.52-20.94-8.7-6.09-17.43-12.13-26.21-18.11-7.57-5.15-15.17-10.26-22.82-15.29-6.41-4.22-12.85-8.39-19.35-12.49-5.2-3.28-10.44-6.51-15.73-9.65-4.02-2.38-8.07-4.72-12.18-6.93-2.77-1.49-5.58-2.92-8.47-4.16-3.74-1.6-7.27-3.24-11.44-3.25-3.88,0-7.71,1.43-10.45,4.22-3.61,3.66-4.91,9.05-3.52,13.97,1.06,3.77,3.57,6.84,6.16,9.67,2.1,2.29,4.41,4.4,6.73,6.48,3.53,3.15,7.16,6.19,10.83,9.18,5.78,4.71,11.67,9.29,17.57,13.85,6.36,4.91,12.78,9.73,19.23,14.52,7.81,5.79,15.68,11.51,23.57,17.18,9.29,6.67,18.63,13.27,28,19.83,10.79,7.55,21.63,15.03,32.5,22.46,12.32,8.42,24.68,16.78,37.08,25.09,6.51,4.36,13.03,8.71,19.56,13.04,4.54-7.77,9.08-15.54,13.63-23.31-16.59-8.76-33.2-17.48-49.84-26.16-15.06-7.86-30.13-15.68-45.23-23.46-13.5-6.95-27.01-13.87-40.55-20.75-11.91-6.05-23.84-12.07-35.79-18.04-10.3-5.15-20.61-10.26-30.95-15.32-8.66-4.24-17.33-8.45-26.03-12.61-6.99-3.34-14-6.65-21.03-9.89-5.3-2.44-10.61-4.85-15.96-7.17-4.61-2-9.23-4-13.93-5.77-2.47-.93-4.8-1.65-7.42-2-2.43-.33-3.17-.4-5.95.22-3.43.76-6.58,3.34-8.33,6.33-3.33,5.68-1.92,12.47,2.43,17.04,1.26,1.33,2.92,2.42,4.33,3.48.97.72,1.96,1.4,2.97,2.07,3.28,2.17,6.66,4.19,10.04,6.18,5.15,3.04,10.36,5.99,15.58,8.91,7.04,3.94,14.11,7.81,21.2,11.65,8.9,4.82,17.83,9.59,26.77,14.32,10.86,5.75,21.74,11.44,32.64,17.11,12.81,6.66,25.64,13.27,38.48,19.85,14.78,7.57,29.59,15.1,44.41,22.59,16.79,8.48,33.59,16.93,50.42,25.33,8.86,4.43,17.72,8.84,26.59,13.25,3.47-8.22,6.94-16.45,10.4-24.67-19.17-6.5-38.35-12.94-57.55-19.34-17.01-5.66-34.04-11.28-51.09-16.84-15.13-4.94-30.28-9.83-45.45-14.67-13.07-4.17-26.16-8.29-39.26-12.36-11.08-3.44-22.17-6.83-33.29-10.16-9.1-2.72-18.2-5.41-27.33-8.01-7.12-2.03-14.25-4.02-21.4-5.92-5.15-1.36-10.3-2.69-15.49-3.88-3.18-.73-6.37-1.43-9.6-1.89-1.87-.27-4.16-.73-6.17-.7-4,.07-7.79,1.3-10.68,4.19-5.29,5.29-5.35,14.53.16,19.71,1.28,1.21,2.73,2.3,4.25,3.21,2.37,1.42,4.94,2.53,7.47,3.63,5.4,2.36,10.86,4.58,16.35,6.72,6.3,2.45,12.63,4.81,18.98,7.13,8.22,3,16.48,5.93,24.74,8.81,10.14,3.54,20.3,7.01,30.48,10.44,12.05,4.06,24.11,8.06,36.19,12.02,13.94,4.57,27.91,9.08,41.89,13.55,15.9,5.08,31.82,10.11,47.75,15.09,17.65,5.52,35.32,10.98,53.01,16.39,9.3,2.85,18.6,5.68,27.91,8.5l7.18-26.04c-19.36-2.94-38.72-5.83-58.1-8.66-17.51-2.56-35.03-5.06-52.55-7.51-16.66-2.33-33.34-4.59-50.02-6.81-13.77-1.82-27.54-3.6-41.32-5.32-11.85-1.48-23.71-2.9-35.57-4.27-9.88-1.13-19.76-2.22-29.66-3.24-7.96-.82-15.93-1.59-23.9-2.27-5.98-.51-11.96-.98-17.95-1.32-3.96-.23-7.94-.42-11.91-.41-3.1.01-6.48.09-9.45.94-6.21,1.77-10.3,7.05-10.58,13.52-.11,2.46.76,4.82,1.88,6.96.57,1.07,1.35,2.07,2.23,2.89.98.92,2.08,1.82,3.25,2.49,2.77,1.58,6.04,2.56,9.12,3.4,4.03,1.09,8.12,1.98,12.2,2.83,6.16,1.29,12.35,2.46,18.55,3.58,8.27,1.5,16.55,2.91,24.85,4.27,10.46,1.72,20.93,3.37,31.4,4.97,12.64,1.93,25.29,3.79,37.95,5.61,14.78,2.12,29.57,4.18,44.37,6.19,18.12,2.46,36.24,4.87,54.38,7.22,19.29,2.5,38.59,4.94,57.89,7.33,10.13,1.25,20.25,2.49,30.38,3.72v-27c-23.48-.18-46.95-.27-70.43-.24-21.19.03-42.37.15-63.55.38-18.82.21-37.63.5-56.45.91-16.5.36-33,.8-49.5,1.36-14.21.48-28.42,1.04-42.62,1.73-11.84.57-23.68,1.22-35.51,2.01-9.43.63-18.85,1.33-28.26,2.2-7.04.65-14.07,1.38-21.08,2.31-5.82.77-11.67,1.51-17.39,2.81-3.32.76-6.94,1.76-9.78,3.64-5.39,3.57-8.55,9.73-6.77,16.27,1.05,3.85,3.8,7.21,7.31,9.08s7.14,2.69,10.94,3.28c6.21.97,12.47,1.63,18.74,2.11,7.59.58,15.19.96,22.8,1.25,10.1.39,20.21.62,30.32.78,12.65.19,25.31.25,37.96.22,15.27-.03,30.55-.18,45.82-.42,17.88-.28,35.75-.67,53.62-1.15,20.43-.55,40.86-1.2,61.28-1.95,23.05-.84,46.1-1.8,69.15-2.84,12.14-.55,24.28-1.13,36.42-1.72-1.2-8.84-2.39-17.68-3.59-26.52-23.34,5.09-46.67,10.25-69.98,15.49-20.76,4.67-41.51,9.4-62.24,14.22-18.21,4.23-36.4,8.52-54.57,12.9-15.68,3.78-31.34,7.62-46.97,11.55-13.13,3.3-26.25,6.66-39.34,10.12-10.71,2.83-21.39,5.71-32.05,8.71-8.23,2.32-16.45,4.69-24.63,7.2-5.85,1.8-11.68,3.65-17.45,5.7-4.54,1.62-9.12,3.32-13.43,5.47-1.9.95-3.58,2.14-5.19,3.57-1.06.94-1.97,2.11-2.69,3.3-1.22,2.04-2.11,4.88-2,7.28.3,6.43,4.42,12.02,10.76,13.66,1.98.51,4.09.72,6.14.76,3.46.08,6.94-.32,10.37-.7,6.9-.78,13.78-1.79,20.64-2.89,8.02-1.29,16.01-2.71,23.99-4.2,10.22-1.91,20.42-3.92,30.61-6,12.47-2.54,24.92-5.18,37.35-7.88,14.66-3.18,29.3-6.45,43.93-9.78,16.82-3.83,33.63-7.75,50.42-11.73,18.96-4.5,37.91-9.08,56.83-13.72,21-5.16,41.99-10.39,62.95-15.7,10.93-2.77,21.86-5.55,32.78-8.36-3.47-8.22-6.94-16.45-10.4-24.67-20.27,8.87-40.5,17.82-60.69,26.87-18.17,8.14-36.31,16.36-54.4,24.68-16.07,7.39-32.11,14.85-48.11,22.4-13.98,6.6-27.92,13.27-41.81,20.04-11.84,5.77-23.65,11.6-35.41,17.54-9.79,4.94-19.55,9.96-29.25,15.08-7.7,4.07-15.37,8.2-22.96,12.47-5.61,3.15-11.19,6.37-16.66,9.77-3.54,2.2-7.06,4.46-10.37,6.99-4.19,3.2-8.9,6.67-10.26,12.13-1.52,6.11.6,13.03,6.39,16.2,2.67,1.46,5.39,2.2,8.45,2.14,3.86-.07,7.85-1.05,11.57-2.1,4.83-1.37,9.59-3.02,14.31-4.73,6.92-2.5,13.78-5.18,20.6-7.92,9.99-4.02,19.92-8.19,29.81-12.43,11.09-4.75,22.12-9.61,33.13-14.53,13.18-5.9,26.32-11.91,39.43-17.98,15.28-7.08,30.52-14.26,45.72-21.51,17.38-8.29,34.72-16.67,52.02-25.13,19.41-9.49,38.78-19.07,58.11-28.73,10.18-5.09,20.35-10.19,30.51-15.32-4.54-7.77-9.08-15.54-13.63-23.31-16.89,12.57-33.78,25.15-50.66,37.75-14.87,11.1-29.73,22.21-44.58,33.34-12.84,9.62-25.67,19.26-38.49,28.91-10.91,8.22-21.81,16.45-32.7,24.7-9.05,6.86-18.1,13.74-27.12,20.64-8.06,6.16-16.1,12.35-24.12,18.57-5.37,4.16-10.73,8.35-16.05,12.57-3.61,2.86-7.2,5.74-10.74,8.7-1.89,1.58-3.83,3.15-5.56,4.92-1.97,2.02-3.55,4.25-4.32,7-1.35,4.83.13,9.69,3.48,13.32,2.31,2.5,6.23,4.12,9.63,3.98,1-.04,2.79-.21,3.75-.5,2.59-.78,5.01-2.12,7.32-3.5,3.03-1.82,5.99-3.75,8.94-5.69,4.6-3.02,9.17-6.09,13.72-9.18,6.14-4.17,12.25-8.37,18.35-12.58,7.6-5.25,15.19-10.53,22.77-15.83,9.05-6.33,18.09-12.67,27.12-19.03,10.51-7.4,21-14.81,31.48-22.24,11.89-8.42,23.76-16.85,35.63-25.29,13.17-9.37,26.34-18.76,39.5-28.15,14.47-10.33,28.92-20.67,43.37-31.02,7.5-5.37,14.99-10.74,22.48-16.11-5.45-7.07-10.91-14.14-16.36-21.2-11.38,12.79-22.7,25.63-33.95,38.54-10.16,11.66-20.26,23.38-30.29,35.16-8.95,10.51-17.84,21.06-26.65,31.68-7.74,9.32-15.42,18.69-23.03,28.12-6.54,8.1-13.02,16.25-19.42,24.47-6.01,7.71-11.98,15.46-17.82,23.3-4.17,5.59-8.29,11.22-12.29,16.93-3,4.28-5.95,8.6-8.74,13.02-1.85,2.93-3.67,5.9-5.2,9.02-1.8,3.66-3.55,7.51-3.52,11.69.04,5.11,2.63,9.96,7.08,12.56,3.49,2.04,7.71,2.43,11.57,1.34,4.23-1.19,7.52-3.92,10.89-6.57,2.96-2.32,5.73-4.87,8.46-7.46,4.07-3.86,8.02-7.85,11.92-11.89,5.2-5.39,10.31-10.88,15.36-16.42,6.34-6.94,12.59-13.96,18.78-21.03,7.47-8.51,14.86-17.1,22.19-25.73,8.6-10.11,17.12-20.29,25.58-30.51,9.72-11.74,19.37-23.54,28.95-35.39,10.84-13.4,21.6-26.85,32.31-40.35,5.64-7.11,11.26-14.24,16.87-21.38l-21.2-16.36c-7.22,16-14.39,32.02-21.51,48.07-6.21,14-12.37,28.02-18.47,42.06-5.27,12.12-10.49,24.25-15.64,36.41-4.8,11.31-9.55,22.64-14.22,34-3.49,8.49-6.93,17.01-10.29,25.55-2.65,6.75-5.26,13.51-7.76,20.31-1.86,5.06-3.68,10.14-5.35,15.26-1.1,3.37-2.17,6.76-3,10.21-.26,1.09-.49,2.19-.66,3.3-.27,1.76-.7,3.79-.6,5.66.3,5.15,2.44,9.83,7.05,12.56s9.9,2.34,14.44-.1c3.38-1.81,5.81-5.31,7.99-8.29,1.86-2.55,3.52-5.25,5.15-7.95,2.41-4.02,4.71-8.12,6.96-12.24,2.98-5.46,5.88-10.97,8.73-16.49,3.5-6.79,6.93-13.62,10.32-20.47,4.01-8.1,7.95-16.22,11.85-24.37,4.5-9.4,8.94-18.83,13.34-28.28,4.92-10.57,9.78-21.17,14.6-31.79,5.33-11.74,10.6-23.51,15.83-35.29,5.73-12.92,11.4-25.87,17.02-38.84,2.87-6.63,5.73-13.26,8.58-19.9l-24.67-10.4c-4.96,26.29-9.85,52.6-14.62,78.93-3.72,20.51-7.36,41.04-10.89,61.58-2.56,14.94-5.07,29.88-7.43,44.85-1.63,10.33-3.19,20.67-4.5,31.04-.31,2.48-.62,4.97-.82,7.46-.17,2.2-.23,4.61.45,6.72,1.49,4.59,4.73,8.23,9.52,9.55s9.65-.2,13.26-3.54c2.02-1.87,2.98-4.3,3.88-6.81.58-1.6.98-3.27,1.39-4.92,1.9-7.59,3.45-15.28,5.01-22.95,2.72-13.35,5.27-26.74,7.77-40.13,3.6-19.25,7.07-38.53,10.47-57.82,4.41-24.96,8.7-49.95,12.91-74.94,1.19-7.03,2.36-14.06,3.54-21.09-8.84-1.2-17.68-2.39-26.52-3.59-.76,26.22-1.4,52.45-1.83,78.68-.33,19.93-.55,39.87-.56,59.81,0,13.83.08,27.67.45,41.49.21,7.9.42,15.83,1.19,23.7.29,2.99.52,6.05,1.26,8.96.39,1.51.99,3.02,1.78,4.34,3.83,6.42,12.29,8.84,18.85,5.01,7.31-4.27,7.69-13.12,8.52-20.54.92-8.31,1.39-16.68,1.83-25.02.71-13.48,1.16-26.97,1.52-40.45.49-18.46.78-36.92.95-55.38.22-23.32.24-46.65.12-69.98-.03-6.37-.08-12.75-.13-19.12h-27c.91,18.72,1.83,37.44,2.75,56.16.72,14.48,1.44,28.96,2.17,43.43.52,10.34,1.05,20.68,1.58,31.03.33,6.31.65,12.62.99,18.93.13,2.38.23,4.77.39,7.15.08,1.24.24,2.14.49,3.67.64,2.29,1.8,4.27,3.47,5.96,1.68,1.67,3.67,2.83,5.96,3.47h0c4.23,1.08,8.35.23,11.77-2.42s5.05-6.24,5.32-10.6c.13-2.15-.23-4.44-.35-6.59-.35-6.44-.7-12.88-1.06-19.32-.58-10.56-1.18-21.11-1.77-31.67-.83-14.6-1.66-29.21-2.51-43.81-1.07-18.41-2.15-36.83-3.24-55.24-.15-2.52-.3-5.04-.45-7.55-.21-3.59-1.36-6.95-3.95-9.55-2.34-2.34-6.18-4.1-9.55-3.95s-7.11,1.3-9.55,3.95l-2.11,2.73c-1.22,2.11-1.84,4.38-1.84,6.81-1.39,15.54-2.71,31.09-3.9,46.65-.88,11.45-1.69,22.9-2.37,34.36-.45,7.61-.86,15.22-1.1,22.84-.12,3.93-.29,7.89-.07,11.81.1,1.88.29,3.78.74,5.6,1.76,7.17,9.75,11.5,16.75,9.57,4.88-1.35,8.07-5.08,9.61-9.7.25-.76.4-1.55.53-2.34.45-2.69.78-5.39,1.09-8.1.61-5.24,1.04-10.51,1.43-15.77.6-8.03,1.06-16.07,1.46-24.11.52-10.5.91-21.01,1.22-31.53.37-12.78.61-25.56.73-38.35.03-3.44.06-6.88.08-10.32s-1.48-7.28-3.95-9.55c-2.23-2.05-4.74-3.31-7.75-3.71s-6.09-.02-8.61,1.6c-3.01,1.94-5.15,4.6-6.2,8.07-3.05,9.99-6.48,19.87-10.33,29.59-.99,2.5-2.01,5-3.06,7.48l1.36-3.22c-4.75,11.24-9.96,22.46-16.52,32.77-1.13,1.78-2.31,3.53-3.6,5.21l2.11-2.73c-.99,1.28-2.04,2.58-3.32,3.58l2.73-2.11c-.3.23-.62.45-.97.6l3.22-1.36c-.15.06-.3.11-.46.13l3.59-.48c-.09.01-.19.01-.28,0l3.59.48c-.08-.01-.15-.03-.22-.06l3.22,1.36c-.06-.03-.12-.06-.17-.1l2.73,2.11c-.06-.05-.12-.11-.17-.17l2.11,2.73c-.08-.1-.14-.21-.19-.33l1.36,3.22c-.1-.24-.15-.49-.18-.74l.48,3.59c-.12-.92-.02-1.85.1-2.77l-.48,3.59c.4-2.9,1.22-5.75,2.08-8.54,1.43-4.63,3.11-9.18,4.87-13.68,1.32-3.37,2.69-6.73,4.1-10.06l-1.36,3.22c6.68-15.8,14.06-31.3,21.66-46.67,1.62-3.28,2.36-6.78,1.36-10.4-.86-3.13-3.28-6.53-6.2-8.07-3.13-1.66-6.93-2.49-10.4-1.36s-6.36,3.09-8.07,6.2c-6.3,11.47-12.57,22.95-18.67,34.53-1.6,3.04-3.19,6.08-4.74,9.15-1.18,2.34-2.58,4.86-3.35,7.34-1.82,5.86.74,12.53,6.07,15.66s12.14,2.12,16.41-2.15c.85-.85,1.63-1.96,2.29-2.99.76-1.16,1.41-2.41,2.07-3.63,3.36-6.15,6.55-12.41,9.69-18.68,5.18-10.31,10.19-20.7,15.09-31.15.71-1.52,1.42-3.04,2.12-4.56,1.22-2.11,1.84-4.38,1.84-6.81.07-1.86-.32-3.59-1.16-5.2-.54-1.67-1.47-3.12-2.79-4.34-1.68-1.67-3.67-2.83-5.96-3.47-.9-.35-1.8-.71-2.69-1.09l3.22,1.36c-11.53-4.89-22.52-11.42-32.9-18.4-2.02-1.36-4.03-2.75-5.96-4.24l2.73,2.11c-.87-.67-1.83-1.36-2.52-2.23l2.11,2.73c-.06-.08-.12-.17-.16-.26l1.36,3.22s-.02-.06-.03-.09l.48,3.59s0-.04,0-.05l-.48,3.59s0-.02,0-.03l-1.36,3.22s0-.02.02-.03l-2.11,2.73h.01c-.91.69-1.82,1.4-2.73,2.1.01-.01.03-.02.05-.03l-3.22,1.36s.04-.01.06-.02l-3.59.48c.07,0,.14,0,.21,0l-3.59-.48c.58.08,1.15.34,1.69.57l-3.22-1.36c3.47,1.47,6.79,3.36,10.08,5.19,6.81,3.79,13.52,7.76,20.21,11.76,2.27-8.39,4.54-16.77,6.81-25.16-22.14-2.72-44.39-4.83-66.68-5.61-13.58-.47-27.23-.57-40.71,1.35-3.49.5-7.03,1.3-10.08,3.19-5.48,3.4-8.46,9.87-6.69,16.23,1.07,3.84,3.92,7.37,7.5,9.16,3.87,1.94,7.86,2.94,12.1,3.64,7,1.17,14.08,1.91,21.16,2.45,20.96,1.6,42.05,1.68,63.06,1.39,3.51-.05,7.03-.11,10.54-.19v-27c-14.99.62-29.99,1.09-45,1.39-12.85.25-25.71.37-38.56.32-10.51-.04-21.03-.2-31.54-.52-8.17-.25-16.33-.6-24.49-1.14-5.77-.38-11.54-.84-17.27-1.55-.53-.07-1.06-.13-1.59-.21l3.59.48c-3.03-.41-6.35-.72-9.2-1.9l3.22,1.36c-.27-.11-.54-.24-.77-.42l2.73,2.11c-.07-.06-.14-.12-.2-.19l2.11,2.73s-.05-.08-.07-.12l1.36,3.22s-.02-.06-.03-.09l.48,3.59s0-.06,0-.09l-.48,3.59s.01-.06.02-.09l-1.36,3.22s.04-.08.07-.12l-2.11,2.73c.05-.06.1-.1.15-.15l-2.73,2.11c.17-.13.36-.22.55-.31l-3.22,1.36c1.39-.58,2.98-.77,4.46-.97l-3.59.48c4.26-.57,8.56-.78,12.85-.95,6.88-.27,13.76-.33,20.65-.3,9.62.03,19.23.24,28.85.54,12.4.39,24.79.94,37.17,1.59,15.16.8,30.32,1.76,45.47,2.83,2.13.15,4.25.3,6.38.46v-27c-24.26-.28-48.52-.45-72.79-.46-19.18,0-38.35.09-57.53.34-14.06.19-28.12.46-42.18.93-8.8.29-17.61.62-26.39,1.28-3.02.23-6.03.54-9.03.94s-5.74.68-8.3,2.3c-2.13,1.34-3.76,2.81-5.05,5-2.47,4.21-2.48,9.56-.02,13.77,1.91,3.27,5.06,5.5,8.66,6.52,2.5.71,5.16.87,7.73,1.13,6.81.68,13.68.86,20.52,1.06,12.35.36,24.7.49,37.05.54,17.85.08,35.7-.01,53.55-.2,23.45-.24,46.89-.65,70.34-1.15,6.49-.14,12.99-.29,19.48-.45-1.2-8.84-2.39-17.68-3.59-26.52-25.3,3.5-50.58,7.14-75.83,10.99-19.59,2.98-39.17,6.09-58.71,9.4-14.04,2.38-28.07,4.86-42.05,7.61-8.46,1.66-16.93,3.35-25.28,5.5-6.22,1.6-13.37,3.35-16.84,9.33-3.79,6.52-1.45,15.06,5.04,18.83,2.71,1.58,4.82,1.8,7.9,2.09,1.76.17,3.54.1,5.31.02,7.62-.34,15.22-1.24,22.78-2.13,14.1-1.67,28.17-3.63,42.22-5.69,18.3-2.69,36.56-5.59,54.81-8.61,23.67-3.92,47.3-8.04,70.91-12.3,6.52-1.18,13.03-2.36,19.54-3.56l-7.18-26.04c-22.06,6.08-44.11,12.2-66.15,18.36-16.93,4.73-33.84,9.49-50.75,14.31-11.86,3.38-23.72,6.78-35.55,10.26-6.99,2.06-13.99,4.11-20.93,6.33-1.65.53-3.31,1.05-4.93,1.66-1.47.55-3.02,1.04-4.37,1.83-5.48,3.19-7.9,9.27-6.49,15.45s7.41,9.78,13.39,9.94c1.57.04,3.25-.38,4.83-.68,1.7-.32,3.38-.71,5.07-1.11,6.93-1.62,13.81-3.39,20.7-5.17,11.4-2.94,22.78-5.95,34.16-8.99,15.81-4.22,31.62-8.5,47.41-12.8,20.28-5.53,40.54-11.1,60.8-16.7,5.51-1.52,11.02-3.05,16.53-4.58l-7.18-26.04c-19.29,7.69-38.48,15.61-57.56,23.8-14.18,6.09-28.3,12.36-42.28,18.91-10.17,4.76-20.28,9.67-30.22,14.9-6.13,3.23-12.27,6.54-18.07,10.35-5.08,3.34-10.71,7.19-12.38,13.43-1.3,4.84.08,10.11,3.64,13.65,2.83,2.81,6.42,4.01,10.32,4.21,2.45.13,4.94-.4,7.33-.92,5.55-1.21,10.95-3.24,16.25-5.23,10.41-3.9,20.66-8.26,30.85-12.72,13.14-5.75,26.14-11.8,39.07-18,16.96-8.13,33.78-16.55,50.51-25.15,4.64-2.38,9.27-4.78,13.9-7.19,2.92-1.52,5.35-4.95,6.2-8.07s.49-7.53-1.36-10.4-4.63-5.42-8.07-6.2c-3.64-.83-7.07-.38-10.4,1.36-17.46,9.1-35.02,18.02-52.71,26.67-13.79,6.74-27.67,13.33-41.67,19.62-6.15,2.77-12.34,5.48-18.55,8.1l3.22-1.36c-6.36,2.68-12.75,5.28-19.22,7.68-4.2,1.56-8.44,3.06-12.76,4.24-1.45.39-2.92.76-4.41.96l3.59-.48c-.62.08-1.25.15-1.87.07l3.59.48c-.15-.02-.3-.05-.44-.11l3.22,1.36c-.07-.03-.13-.06-.19-.11l2.73,2.11s-.08-.07-.11-.11l2.11,2.73s-.05-.07-.06-.11l1.36,3.22s-.03-.08-.03-.12l.48,3.59c0-.05,0-.11,0-.16l-.48,3.59c.01-.09.04-.18.08-.27l-1.36,3.22c.09-.21.22-.4.36-.58l-2.11,2.73c.67-.85,1.54-1.54,2.39-2.19l-2.73,2.11c2.72-2.09,5.67-3.88,8.61-5.62,4.73-2.79,9.56-5.4,14.43-7.94,15.14-7.9,30.63-15.12,46.2-22.12,12-5.4,24.08-10.63,36.21-15.75l-3.22,1.36c14.2-5.99,28.47-11.82,42.79-17.53,1.76-.42,3.29-1.22,4.59-2.42,1.47-.95,2.63-2.21,3.48-3.79,1.69-2.89,2.41-7.16,1.36-10.4s-3.08-6.42-6.2-8.07-6.83-2.35-10.4-1.36c-20.42,5.67-40.85,11.3-61.28,16.9-16.51,4.52-33.02,9.01-49.55,13.46-12.4,3.33-24.8,6.64-37.22,9.9-8.28,2.17-16.57,4.32-24.88,6.38-4.01.99-8.03,2.08-12.1,2.78-.2.03-.4.07-.6.09l3.59-.48c-.18.02-.38.06-.57.04l3.59.48s-.04,0-.05-.01l3.22,1.36s0,0-.01,0l2.73,2.11s0,0,0,0l2.11,2.73s0,0,0,0l1.36,3.22h0c.16,1.19.32,2.39.48,3.59,0,0,0,0,0,0l-.48,3.59s0,0,0,0l-1.36,3.22s0-.01.01-.02l-2.11,2.73s.02-.02.04-.03l-2.73,2.11c.16-.12.37-.2.56-.28l-3.22,1.36c3.13-1.32,6.48-2.22,9.72-3.22,7.23-2.24,14.5-4.37,21.77-6.49,11.28-3.3,22.58-6.53,33.89-9.75,15.48-4.4,30.98-8.76,46.48-13.1,19.72-5.52,39.45-10.99,59.19-16.44,2.7-.74,5.4-1.49,8.09-2.23,3.27-.9,6.35-3.27,8.07-6.2s2.41-7.16,1.36-10.4-3.08-6.42-6.2-8.07c-1.07-.45-2.15-.91-3.22-1.36-2.39-.64-4.79-.64-7.18,0-26.49,4.86-53.02,9.57-79.58,14.04-20.29,3.41-40.6,6.7-60.95,9.73-8.75,1.3-17.5,2.56-26.26,3.74l3.59-.48c-8.52,1.14-17.05,2.23-25.59,3.12-5.13.54-10.28,1.06-15.44,1.23-1.43.05-2.9.1-4.33-.09l3.59.48c-.29-.04-.59-.08-.86-.2l3.22,1.36c-.06-.03-.12-.06-.17-.1l2.73,2.11s-.05-.04-.06-.06l2.11,2.73s-.02-.03-.03-.05l1.36,3.22s-.01-.03-.02-.05l.48,3.59s0-.04,0-.06l-.48,3.59s0-.04.02-.06l-1.36,3.22s.04-.07.06-.11l-2.11,2.73c.05-.07.12-.12.19-.18l-2.73,2.11c.34-.26.75-.44,1.14-.6l-3.22,1.36c4.08-1.71,8.59-2.59,12.87-3.58,8.74-2.03,17.55-3.76,26.37-5.44,13.24-2.52,26.52-4.84,39.81-7.07,17.91-3.01,35.84-5.85,53.79-8.58,22.37-3.41,44.77-6.66,67.18-9.79,3.08-.43,6.16-.86,9.24-1.29,1.76-.42,3.29-1.22,4.59-2.42,1.47-.95,2.63-2.21,3.48-3.79,1.44-2.73,2.01-5.54,1.6-8.61-.38-2.83-1.54-5.76-3.71-7.75-2.6-2.39-5.92-4.04-9.55-3.95-21.7.52-43.4.96-65.11,1.29-17.53.26-35.07.45-52.6.51-13.41.05-26.81.03-40.22-.12-9.32-.11-18.64-.27-27.95-.61-5.27-.19-10.57-.37-15.81-.96-.38-.04-.76-.09-1.14-.14l3.59.48c-.83-.11-1.74-.2-2.52-.52l3.22,1.36c-.08-.03-.16-.07-.23-.12l2.73,2.11s-.05-.04-.07-.07l2.11,2.73s-.02-.03-.02-.04l1.36,3.22s0-.02,0-.03l.48,3.59s0-.02,0-.03l-.48,3.59s0-.02,0-.03l-1.36,3.22s.02-.03.03-.04l-2.11,2.73s.04-.05.07-.07l-2.73,2.11c.08-.06.16-.1.25-.14l-3.22,1.36c.98-.4,2.12-.5,3.16-.65l-3.59.48c5.12-.69,10.31-.94,15.47-1.22,9.21-.5,18.44-.8,27.66-1.05,13.19-.36,26.38-.58,39.57-.73,17.14-.19,34.28-.27,51.42-.26,21.13,0,42.25.14,63.37.36,2.87.03,5.75.06,8.62.1,3.44.04,7.13-1.53,9.55-3.95s4.1-6.18,3.95-9.55-1.3-7.11-3.95-9.55l-2.73-2.11c-2.11-1.22-4.38-1.84-6.81-1.84-19.77-1.44-39.55-2.7-59.34-3.67-14.94-.73-29.89-1.31-44.85-1.59-10.27-.19-20.55-.27-30.83.03-6.96.2-13.88.62-20.77,1.67-2.44.37-4.71,1.02-6.92,2.24s-4.33,3.11-5.51,5.31c-2.45,4.58-2.45,9.5,0,14.08,3.03,5.64,9.64,7.4,15.46,8.33,7.63,1.22,15.33,1.95,23.03,2.49,10.42.74,20.86,1.15,31.3,1.42,14.19.37,28.4.46,42.6.37,17.74-.11,35.48-.51,53.21-1.13,4.9-.17,9.8-.36,14.7-.56,3.55-.15,7-1.41,9.55-3.95,2.34-2.34,4.1-6.18,3.95-9.55s-1.3-7.11-3.95-9.55-5.92-4.03-9.55-3.95c-14.6.32-29.2.42-43.8.12-10.44-.21-20.88-.6-31.28-1.44-4.06-.33-8.11-.72-12.14-1.26l3.59.48c-4.07-.55-8.46-1.04-12.29-2.63l3.22,1.36c-.46-.19-.92-.41-1.32-.72l2.73,2.11c-.13-.1-.25-.21-.35-.34l2.11,2.73c-.05-.07-.1-.15-.14-.23l1.36,3.22c-.02-.05-.03-.1-.04-.15l.48,3.59c0-.06,0-.12,0-.18l-.48,3.59c0-.06.03-.12.05-.18l-1.36,3.22c.03-.07.07-.14.12-.2l-2.11,2.73c.08-.1.18-.19.28-.27l-2.73,2.11c.29-.22.61-.38.94-.52l-3.22,1.36c1.95-.81,4.14-1.11,6.22-1.39l-3.59.48c8.77-1.18,17.74-1.18,26.57-1.08,14.86.17,29.72,1.11,44.52,2.41,10.84.95,21.67,2.12,32.47,3.44l3.59-.48c1.76-.42,3.29-1.22,4.59-2.42,2.23-1.72,4.19-4.19,4.84-7.01,1.34-5.9-.9-12.07-6.2-15.25-8.8-5.27-17.61-10.62-26.76-15.28-2.58-1.31-5.25-2.68-8.02-3.51-3.68-1.1-7.81-.65-11.13,1.29-6.54,3.83-8.58,12.36-4.82,18.8,1.21,2.07,2.75,3.54,4.56,4.97,2.61,2.05,5.26,4.03,8,5.9,5.34,3.63,10.85,7.02,16.45,10.22,7.48,4.27,15.19,8.13,23.24,11.22l-8.07-19.83c-5.29,11.41-10.73,22.75-16.35,34-3.39,6.79-6.83,13.56-10.46,20.23-.72,1.32-1.39,2.79-2.3,4l2.11-2.73s-.04.05-.07.07l2.73-2.11s0,0-.01,0l3.22-1.36h0c1.2-.16,2.39-.32,3.59-.48h0c2.27.61,4.54,1.23,6.81,1.84h0c1.61,1.61,3.23,3.23,4.84,4.84h0c.45,1.07.91,2.15,1.36,3.22h0c.16,1.19.32,2.39.48,3.58,0,0,0-.02,0-.02l-.48,3.59c.02-.13.09-.26.14-.38l-1.36,3.22c1.26-2.99,2.87-5.87,4.36-8.75,3.69-7.1,7.47-14.15,11.28-21.19,3.23-5.97,6.48-11.92,9.75-17.86-7.77-4.54-15.54-9.08-23.31-13.63-9.85,19.91-19.42,40.06-27.44,60.79-2.03,5.25-3.99,10.57-5.46,16.01-.44,1.64-.84,3.29-1.1,4.96-.33,2.1-.81,4.47-.65,6.67.39,5.32,2.47,10.18,7.27,13.03s10.23,2.5,14.85-.04c3.98-2.19,6.62-5.78,9.28-9.31,5.89-7.82,10.35-16.82,14.51-25.64,7.04-14.92,13.08-30.36,18.15-46.06.67-2.07,1.32-4.14,1.95-6.22-8.84-1.2-17.68-2.39-26.52-3.59-.11,21.8-.52,43.61-1.37,65.4-.57,14.52-1.29,29.05-2.47,43.54-.37,4.52-.76,9.04-1.36,13.53l.48-3.59c-.19,1.45-.28,3.11-.85,4.48l1.36-3.22c-.03.06-.06.13-.1.19l2.11-2.73s-.02.03-.04.04l2.73-2.11s-.01.01-.02.01l3.22-1.36s-.01,0-.02,0l3.59-.48s0,0-.01,0l3.59.48s-.01,0-.02,0l3.22,1.36s-.01,0-.02-.01l2.73,2.11s-.02-.02-.03-.03l2.11,2.73s-.03-.06-.05-.09l1.36,3.22c-.08-.21-.11-.44-.14-.66l.48,3.59c-.3-2.27-.2-4.62-.18-6.9.05-4.7.23-9.4.44-14.1.78-17.31,2.02-34.6,3.35-51.87,1.14-14.73,2.39-29.45,3.7-44.16h-27c1.13,18.94,2.24,37.88,3.34,56.82.87,15.02,1.74,30.05,2.59,45.07.63,11.05,1.25,22.1,1.86,33.16.39,6.97.77,13.94,1.15,20.91.15,2.71.24,5.42.43,8.13,0,.03,0,.07,0,.1,5.7-4.34,11.39-8.68,17.09-13.02h0c3.14,3.14,6.29,6.29,9.43,9.43h0c.16,1.2.32,2.39.48,3.59-.21-1.94-.22-3.92-.32-5.86-.31-5.84-.61-11.67-.92-17.51-.51-9.87-1.02-19.74-1.52-29.61-.71-13.93-1.4-27.86-2.09-41.79-.9-18.12-1.79-36.25-2.67-54.38-.12-2.54-.25-5.09-.37-7.63-.17-3.56-1.39-6.98-3.95-9.55-2.34-2.34-6.18-4.1-9.55-3.95s-7.11,1.3-9.55,3.95-3.98,5.9-3.95,9.55c.18,21.43.24,42.85.17,64.28-.06,17.83-.23,35.65-.53,53.48-.24,14.18-.57,28.37-1.06,42.54-.36,10.42-.79,20.85-1.41,31.26-.39,6.54-.82,13.1-1.6,19.61-.06.54-.13,1.07-.2,1.61l.48-3.59c-.24,1.81-.41,3.81-1.12,5.51l1.36-3.22c-.06.15-.13.29-.23.42l2.11-2.73s-.06.07-.1.11l2.73-2.11s-.05.03-.07.04l3.22-1.36s-.03.01-.05.01l3.59-.48s-.03,0-.05,0l3.59.48s-.04,0-.06-.02l3.22,1.36s-.04-.02-.06-.04l2.73,2.11s-.07-.06-.1-.1l2.11,2.73c-.08-.1-.14-.22-.19-.34l1.36,3.22c-.45-1.09-.58-2.35-.74-3.51l.48,3.59c-.68-5.08-.89-10.22-1.12-15.33-.39-9.03-.57-18.07-.69-27.11-.17-13.06-.17-26.13-.11-39.19.09-17.19.31-34.39.61-51.58.38-21.43.89-42.85,1.48-64.27.08-2.96.17-5.92.25-8.88.09-3.25-1.54-7.33-3.95-9.55-2.23-2.05-4.74-3.31-7.75-3.71s-6.09-.02-8.61,1.6c-2.78,1.79-5.64,4.67-6.2,8.07-4.19,25.1-8.45,50.19-12.81,75.26-3.46,19.88-6.98,39.74-10.6,59.59-2.69,14.75-5.44,29.49-8.31,44.21-1.89,9.67-3.81,19.33-5.92,28.96-.99,4.52-1.84,9.19-3.36,13.57-.07.21-.15.42-.24.63l1.36-3.22c-.07.16-.14.33-.24.47l2.11-2.73s-.04.05-.07.07l2.73-2.11s-.02.01-.03.02l3.22-1.36s-.01,0-.02,0l3.59-.48s-.01,0-.02,0l3.59.48s-.01,0-.02,0l3.22,1.36s-.01,0-.02,0l2.73,2.11s-.02-.02-.03-.03l2.11,2.73s-.02-.03-.03-.05l1.36,3.22c-.03-.08-.05-.17-.06-.26l.48,3.59c-.12-.97,0-1.99.08-2.96.16-2.01.39-4.01.64-6.01.19-1.57.4-3.15.61-4.72l-.48,3.59c.96-7.1,2.03-14.18,3.13-21.26,1.6-10.25,3.28-20.49,4.99-30.73,2.26-13.48,4.59-26.94,6.95-40.4,2.92-16.59,5.9-33.17,8.92-49.74,3.62-19.82,7.3-39.62,11.02-59.42.5-2.65,1-5.3,1.5-7.94.65-3.46.64-7.3-1.36-10.4-1.62-2.51-3.7-4.36-6.46-5.52s-5.94-1.6-8.79-.68c-3.1,1-6.72,3.06-8.07,6.2-5.44,12.68-10.93,25.35-16.47,37.99-5.15,11.77-10.35,23.51-15.59,35.24-4.79,10.7-9.61,21.37-14.49,32.03-4.41,9.65-8.87,19.28-13.37,28.89-4.02,8.56-8.07,17.11-12.18,25.63-3.6,7.48-7.24,14.93-10.94,22.36-3.13,6.28-6.29,12.54-9.52,18.76-2.64,5.08-5.31,10.15-8.06,15.17-2.11,3.86-4.27,7.69-6.53,11.46-1.56,2.61-3.16,5.2-4.92,7.67-.3.43-.62.85-.94,1.26l2.11-2.73c-.65.84-1.33,1.72-2.18,2.37l2.73-2.11c-.17.13-.34.24-.53.33l3.22-1.36c-.08.03-.17.06-.26.08l3.59-.48c-.05,0-.11,0-.16,0l3.59.48s-.08-.02-.12-.03l3.22,1.36s-.07-.04-.11-.06l2.73,2.11s-.07-.07-.1-.1l2.11,2.73c-.04-.06-.08-.12-.11-.19l1.36,3.22c-.06-.15-.09-.31-.12-.47l.48,3.59c-.09-.67-.01-1.36.08-2.02l-.48,3.59c.37-2.75,1.16-5.46,1.94-8.12,1.34-4.55,2.87-9.05,4.45-13.52,2.26-6.4,4.64-12.75,7.08-19.08,3.18-8.26,6.45-16.47,9.77-24.67,4.15-10.24,8.38-20.45,12.66-30.63.59-1.4,1.18-2.81,1.77-4.21l-1.36,3.22c6.32-14.96,12.73-29.89,19.22-44.78,7.74-17.78,15.57-35.52,23.47-53.23,5.04-11.31,10.11-22.6,15.2-33.89.99-1.55,1.52-3.22,1.6-5.02.4-1.79.32-3.59-.24-5.38-.92-2.85-2.46-5.18-4.84-7.01s-5.22-3.03-8.18-2.9c-3.33.15-7.39,1.21-9.55,3.95-18.1,23.04-36.35,45.96-54.82,68.69-14.91,18.35-29.96,36.58-45.23,54.63-11.79,13.93-23.71,27.76-35.87,41.36-8.63,9.66-17.38,19.23-26.43,28.5-5.42,5.55-10.91,11.12-16.92,16.05-.48.39-.96.77-1.44,1.15l2.73-2.11c-1.3,1.01-2.67,2.06-4.2,2.71l3.22-1.36c-.3.12-.61.23-.93.28l3.59-.48c-.13.02-.26.02-.39,0l3.59.48c-.08-.01-.15-.03-.23-.06l3.22,1.36c-.05-.02-.1-.05-.14-.08l2.73,2.11s-.09-.08-.13-.13l2.11,2.73c-.04-.05-.07-.11-.1-.17l1.36,3.22c-.04-.1-.07-.2-.08-.31l.48,3.59c-.03-.23-.02-.47.01-.7l-.48,3.59c.13-.93.48-1.82.84-2.68l-1.36,3.22c2.14-5.05,5.28-9.73,8.27-14.29,5.41-8.25,11.2-16.25,17.08-24.17,4.42-5.96,8.91-11.86,13.44-17.73l-2.11,2.73c6.27-8.12,12.63-16.17,19.04-24.17,7.53-9.39,15.14-18.72,22.8-28,8.75-10.59,17.57-21.12,26.46-31.59,10.05-11.85,20.17-23.63,30.36-35.36,11.32-13.03,22.71-26,34.17-38.91,1.49-1.67,2.97-3.35,4.46-5.02,2.28-2.56,4.11-5.98,3.95-9.55-.14-3.05-1.02-5.75-2.9-8.18-1.72-2.23-4.19-4.19-7.01-4.84-3.35-.76-7.49-.73-10.4,1.36-15.12,10.84-30.24,21.68-45.38,32.5-13.84,9.89-27.68,19.78-41.53,29.65-12.51,8.92-25.04,17.83-37.57,26.72-11.15,7.92-22.31,15.82-33.48,23.71-9.75,6.88-19.5,13.75-29.27,20.61-8.3,5.82-16.61,11.63-24.94,17.42-6.79,4.72-13.59,9.43-20.42,14.1-5.29,3.63-10.6,7.24-15.93,10.8-3.72,2.49-7.45,4.96-11.23,7.36-2.1,1.33-4.2,2.7-6.42,3.83-.27.14-.54.27-.82.39l3.22-1.36c-.18.08-.37.15-.56.18l3.59-.48s-.07,0-.11,0l3.59.48s-.03,0-.04-.01l3.22,1.36s-.02,0-.02-.01l2.73,2.11s-.01,0-.01-.01l2.11,2.73s0-.01-.01-.02l1.36,3.22s0-.01,0-.02l.48,3.59s0-.03,0-.04l-.48,3.59s.01-.06.03-.09l-1.36,3.22c.05-.12.13-.22.21-.33l-2.11,2.73c1.88-2.4,4.63-4.33,6.95-6.26,5.49-4.56,11.1-8.98,16.71-13.38,4.59-3.6,9.2-7.18,13.82-10.75l-2.73,2.11c8.69-6.72,17.41-13.39,26.15-20.05,11-8.38,22.03-16.74,33.06-25.07,13.46-10.17,26.95-20.32,40.44-30.45,15.95-11.97,31.92-23.93,47.9-35.86,18.49-13.82,37-27.62,55.52-41.4,2.45-1.83,4.91-3.65,7.36-5.48,1.57-.85,2.84-2.01,3.79-3.48,1.19-1.3,2-2.83,2.42-4.59.89-3.23.49-7.53-1.36-10.4s-4.63-5.42-8.07-6.2c-3.67-.84-7.03-.34-10.4,1.36-22.73,11.47-45.51,22.84-68.35,34.1-20.1,9.9-40.24,19.71-60.44,29.41-17.46,8.38-34.96,16.67-52.52,24.84-14.82,6.9-29.68,13.7-44.61,20.38-12.18,5.45-24.41,10.83-36.69,16.05-1.33.56-2.65,1.13-3.98,1.69l3.22-1.36c-10.81,4.56-21.66,9.02-32.63,13.18-6.91,2.62-13.86,5.19-20.97,7.22-2.22.63-4.48,1.25-6.77,1.56l3.59-.48c-.75.1-1.53.18-2.29.09l3.59.48c-.2-.03-.39-.07-.58-.14l3.22,1.36c-.08-.04-.16-.08-.24-.13l2.73,2.11s-.09-.08-.13-.12l2.11,2.73s-.06-.08-.08-.13l1.36,3.22c-.02-.05-.04-.11-.04-.16l.48,3.59c0-.07,0-.14,0-.22l-.48,3.59c.02-.12.05-.23.1-.34l-1.36,3.22c.12-.27.29-.52.47-.76l-2.11,2.73c.97-1.25,2.28-2.26,3.52-3.22l-2.73,2.11c2.79-2.16,5.76-4.09,8.74-5.97,4.47-2.82,9.02-5.5,13.6-8.13,6.1-3.5,12.27-6.89,18.46-10.23,7.73-4.17,15.52-8.25,23.33-12.27,9.36-4.82,18.76-9.57,28.19-14.26,10.98-5.46,22-10.85,33.05-16.18,12.6-6.09,25.24-12.1,37.91-18.05,14.22-6.69,28.48-13.31,42.77-19.87,15.85-7.28,31.72-14.48,47.63-21.62,17.47-7.84,34.96-15.61,52.49-23.32,4.51-1.99,9.03-3.97,13.55-5.94,1.57-.85,2.84-2.01,3.79-3.48,1.19-1.3,2-2.83,2.42-4.59.69-3.02.53-5.92-.68-8.79-2.62-6.2-9.34-9.51-15.93-7.82-17.65,4.53-35.31,9.01-52.98,13.45-16.33,4.1-32.68,8.15-49.04,12.15-14.95,3.66-29.9,7.27-44.87,10.83-13.67,3.25-27.35,6.47-41.04,9.63-12.31,2.84-24.64,5.64-36.97,8.39-10.9,2.43-21.82,4.82-32.74,7.15-9.57,2.05-19.15,4.05-28.74,6-8.18,1.66-16.36,3.28-24.56,4.83-6.74,1.28-13.5,2.51-20.26,3.67-5.35.92-10.72,1.79-16.09,2.56-1.09.16-2.19.31-3.29.46l3.59-.48c-5.03.67-10.15,1.41-15.24,1.38-.74,0-1.47-.03-2.2-.12l3.59.48c-.39-.05-.78-.12-1.14-.27l3.22,1.36c-.1-.05-.21-.1-.3-.17l2.73,2.11s-.09-.08-.13-.12l2.11,2.73s-.05-.07-.07-.11l1.36,3.22s-.02-.07-.03-.11l.48,3.59s0-.08,0-.12l-.48,3.59c0-.06.02-.11.05-.16l-1.36,3.22c.04-.09.09-.17.15-.25l-2.11,2.73c.16-.21.37-.39.58-.55l-2.73,2.11c1.56-1.2,3.51-1.98,5.31-2.74l-3.22,1.36c3.4-1.43,6.89-2.67,10.38-3.87,5.13-1.76,10.31-3.39,15.49-4.98,6.86-2.1,13.75-4.1,20.66-6.06,8.6-2.44,17.23-4.8,25.87-7.11,10.36-2.77,20.73-5.48,31.12-8.14,12.13-3.11,24.27-6.15,36.43-9.15,13.91-3.43,27.84-6.8,41.78-10.13,15.71-3.75,31.44-7.44,47.18-11.08,17.53-4.06,35.07-8.06,52.62-12.01,19.36-4.36,38.73-8.66,58.11-12.91,4.97-1.09,9.94-2.18,14.91-3.26,3.07-.67,6.61-3.44,8.07-6.2s2.01-5.54,1.6-8.61c-.38-2.83-1.54-5.76-3.71-7.75-2.57-2.36-5.96-4.13-9.55-3.95-19.89.98-39.78,1.9-59.67,2.75-18.23.78-36.46,1.49-54.7,2.13-16.44.58-32.88,1.1-49.32,1.55-14.73.4-29.47.75-44.2,1.02-13.09.24-26.17.42-39.26.53-11.35.09-22.69.13-34.04.09-9.67-.04-19.34-.13-29.02-.31-8.01-.15-16.02-.36-24.02-.66-6.38-.24-12.75-.55-19.12-.98-4.71-.32-9.42-.69-14.1-1.24-.9-.1-1.8-.22-2.7-.34l3.59.48c-2.77-.37-5.59-.77-8.27-1.58-.46-.14-.92-.29-1.37-.48l3.22,1.36c-.38-.16-.75-.34-1.07-.59l2.73,2.11c-.11-.09-.22-.19-.31-.3l2.11,2.73c-.05-.07-.1-.14-.13-.22l1.36,3.22c-.02-.06-.04-.12-.05-.18l.48,3.59c0-.06,0-.11,0-.17l-.48,3.59c0-.06.03-.12.05-.18l-1.36,3.22c.04-.08.08-.16.13-.23l-2.11,2.73c.11-.14.23-.25.37-.36l-2.73,2.11c.43-.33.92-.56,1.42-.77l-3.22,1.36c4.06-1.7,8.7-2.3,13.01-2.99,1.94-.31,3.89-.59,5.84-.85l-3.59.48c5.27-.71,10.56-1.29,15.86-1.82,6.75-.67,13.51-1.24,20.27-1.76,8.21-.63,16.43-1.17,24.66-1.66,9.67-.58,19.34-1.08,29.01-1.53,11.11-.51,22.22-.96,33.34-1.35,12.55-.44,25.09-.81,37.64-1.13,13.91-.35,27.82-.64,41.73-.87,15.38-.26,30.76-.44,46.14-.57,16.79-.14,33.57-.22,50.36-.24,18.18-.02,36.37.03,54.55.14,4.64.03,9.29.06,13.93.1,3.44.03,7.12-1.52,9.55-3.95s4.1-6.18,3.95-9.55-1.3-7.11-3.95-9.55c-.91-.7-1.82-1.41-2.73-2.11-2.11-1.22-4.38-1.84-6.81-1.84-17.94-2.18-35.88-4.39-53.81-6.65-16.22-2.04-32.43-4.12-48.64-6.25-8.35-1.1-16.7-2.2-25.05-3.33l3.59.48c-20.43-2.75-40.84-5.57-61.24-8.52-16.3-2.36-32.58-4.79-48.84-7.36-12.28-1.94-24.56-3.96-36.8-6.14-8.35-1.49-16.69-3.04-24.98-4.84-4.41-.96-8.93-1.87-13.17-3.43-.28-.1-.56-.21-.83-.33l3.22,1.36c-.43-.18-.88-.38-1.25-.67l2.73,2.11c-.08-.06-.16-.13-.22-.22l2.11,2.73s-.05-.07-.07-.12l1.36,3.22s-.02-.05-.02-.08l.48,3.59s0-.05,0-.07l-.48,3.59s.01-.05.02-.08l-1.36,3.22s.03-.05.04-.07l-2.11,2.73s.06-.07.1-.09l-2.73,2.11c.08-.06.17-.1.26-.14l-3.22,1.36c.44-.18.93-.26,1.4-.32l-3.59.48c3.94-.52,8.06-.23,12.02-.05,7.66.33,15.32.94,22.96,1.59,11.31.97,22.6,2.12,33.88,3.33,14.88,1.6,29.74,3.34,44.6,5.15,18.34,2.24,36.66,4.6,54.97,7.03,2.53.34,5.07.68,7.6,1.02l-3.59-.48c17.38,2.34,34.76,4.74,52.12,7.2,19.38,2.75,38.76,5.56,58.12,8.44,11.95,1.77,23.89,3.57,35.83,5.38,1.79.56,3.59.64,5.38.24,1.8-.08,3.47-.62,5.02-1.6,2.8-1.64,5.47-4.85,6.2-8.07.79-3.46.62-7.33-1.36-10.4s-4.6-5.15-8.07-6.2c-15.15-4.59-30.29-9.21-45.42-13.88-14-4.31-27.99-8.66-41.97-13.04-12.71-3.98-25.42-8-38.11-12.05-11.54-3.68-23.08-7.4-34.6-11.15-10.26-3.34-20.51-6.71-30.75-10.11-9.03-3-18.05-6.04-27.06-9.11-7.83-2.67-15.66-5.37-23.47-8.11-6.56-2.3-13.11-4.63-19.64-7.01-5.32-1.94-10.63-3.9-15.92-5.92-4.1-1.57-8.18-3.16-12.24-4.83-.8-.33-1.6-.66-2.4-1l3.22,1.36c-3.3-1.39-6.69-2.78-9.79-4.59-.44-.26-.87-.52-1.27-.83l2.73,2.11c-.18-.14-.37-.3-.51-.48l2.11,2.73c-.04-.06-.08-.12-.11-.19l1.36,3.22s-.03-.07-.03-.11l.48,3.59s0-.05,0-.07l-.48,3.59s0-.04.02-.06l-1.36,3.22s.02-.04.03-.06l-2.11,2.73s.04-.04.06-.06l-2.73,2.11s.09-.05.13-.08l-3.22,1.36c.13-.05.27-.08.4-.1l-3.59.48c1-.13,2.05.03,3.04.17l-3.59-.48c2.72.37,5.41.94,8.09,1.54,4.22.94,8.42,1.98,12.6,3.07,5.77,1.49,11.51,3.05,17.25,4.65,7.26,2.03,14.51,4.12,21.75,6.24,8.83,2.59,17.65,5.23,26.46,7.91,10.33,3.14,20.65,6.33,30.96,9.55,11.93,3.73,23.84,7.5,35.74,11.31,13.42,4.29,26.83,8.63,40.22,13,15.04,4.91,30.06,9.86,45.08,14.85,16.53,5.49,33.04,11.03,49.55,16.6,4.29,1.45,8.59,2.9,12.88,4.36,3.07,1.04,7.69.39,10.4-1.36,2.51-1.62,4.36-3.7,5.52-6.46s1.6-5.94.68-8.79c-1.04-3.22-3.07-6.51-6.2-8.07-15.79-7.85-31.56-15.72-47.32-23.63-14.28-7.17-28.55-14.36-42.8-21.59-12.67-6.43-25.32-12.88-37.96-19.36-11.18-5.74-22.35-11.51-33.51-17.31-9.62-5-19.22-10.03-28.81-15.1-8.13-4.29-16.24-8.62-24.33-12.98-6.68-3.6-13.34-7.23-19.98-10.9-5.19-2.87-10.36-5.77-15.5-8.72-3.75-2.16-7.49-4.34-11.18-6.6-2.35-1.44-4.69-2.9-6.93-4.5-.35-.25-.7-.51-1.04-.77l2.73,2.11c-.52-.4-1.08-.82-1.49-1.35l2.11,2.73c-.06-.08-.12-.16-.16-.25l1.36,3.22s-.03-.08-.03-.12l.48,3.59s0-.04,0-.06l-.48,3.59s0-.03.01-.05l-1.36,3.22s.01-.03.02-.04l-2.11,2.73s.02-.02.04-.04l-2.73,2.11s.04-.02.06-.03l-3.22,1.36s.1-.03.15-.04l-3.59.48c.19-.02.38,0,.57.02l-3.59-.48c2.92.4,5.84,1.81,8.55,2.9,1.36.55,2.72,1.11,4.07,1.68l-3.22-1.36c3.79,1.6,7.55,3.26,11.3,4.95,4.9,2.21,9.78,4.46,14.65,6.73,6,2.8,11.99,5.65,17.96,8.51,7.09,3.4,14.17,6.84,21.23,10.29,8.17,4,16.32,8.02,24.46,12.07,9.23,4.59,18.44,9.21,27.64,13.85,10.27,5.18,20.54,10.39,30.78,15.63,11.31,5.78,22.6,11.58,33.89,17.4,12.33,6.37,24.64,12.76,36.95,19.18,13.34,6.96,26.66,13.94,39.96,20.95,3.42,1.8,6.83,3.6,10.25,5.41,3.18,1.68,6.88,2.33,10.4,1.36,3.13-.86,6.53-3.28,8.07-6.2,1.66-3.13,2.49-6.93,1.36-10.4s-3.16-6.05-6.2-8.07c-14.13-9.38-28.22-18.82-42.25-28.33-12.28-8.33-24.53-16.71-36.72-25.17-10.58-7.35-21.13-14.75-31.62-22.23-8.82-6.29-17.61-12.64-26.33-19.06-7.18-5.29-14.32-10.63-21.39-16.06-.77-.59-1.54-1.19-2.31-1.78l2.73,2.11c-6.23-4.82-12.42-9.7-18.46-14.76-3.91-3.27-7.79-6.59-11.41-10.19-1.19-1.18-2.36-2.39-3.39-3.72l2.11,2.73c-.4-.52-.8-1.07-1.06-1.68l1.36,3.22c-.07-.17-.13-.34-.16-.53l.48,3.59c-.01-.08-.01-.17,0-.25l-.48,3.59c0-.06.02-.11.04-.16l-1.36,3.22s.04-.08.07-.12l-2.11,2.73s.06-.07.1-.1l-2.73,2.11s.1-.06.15-.08l-3.22,1.36c.1-.04.19-.06.3-.08l-3.59.48c.26-.03.53-.01.78.02l-3.59-.48c1.45.2,2.87.8,4.21,1.37l-3.22-1.36c6.03,2.55,11.76,5.89,17.41,9.18,9.67,5.63,19.14,11.6,28.54,17.67,13.28,8.57,26.4,17.4,39.43,26.34,16.74,11.49,33.33,23.2,49.82,35.05,20,14.37,39.85,28.95,59.59,43.69,2.71,2.02,5.42,4.05,8.12,6.08,1.55.99,3.22,1.52,5.02,1.6,1.79.4,3.59.32,5.38-.24,2.85-.92,5.18-2.46,7.01-4.84s3.03-5.22,2.9-8.18l-.48-3.59c-.64-2.29-1.8-4.27-3.47-5.96-18.53-21.44-36.9-43.02-55.05-64.79-14.43-17.32-28.72-34.75-42.78-52.38-6.31-7.92-12.58-15.88-18.77-23.9l2.11,2.73c-7.42-9.61-14.75-19.28-21.83-29.14-4.45-6.19-8.87-12.44-12.81-18.97-1.18-1.95-2.36-3.95-3.26-6.05l1.36,3.22c-.25-.6-.5-1.22-.59-1.86l.48,3.59c-.02-.15-.03-.3-.01-.46l-.48,3.59c0-.07.03-.14.05-.2l-1.36,3.22s.04-.08.07-.12l-2.11,2.73s.05-.06.08-.08l-2.73,2.11s.06-.04.1-.06l-3.22,1.36s.1-.03.15-.04l-3.59.48c.08,0,.16,0,.24,0l-3.59-.48c.2.03.39.09.57.17l-3.22-1.36c.95.4,1.8,1.05,2.61,1.68l-2.73-2.11c4.61,3.57,8.71,7.88,12.75,12.06,7.41,7.66,14.55,15.59,21.61,23.58,10.24,11.59,20.28,23.36,30.22,35.2,13.2,15.73,26.23,31.61,39.14,47.58,16.11,19.92,32.05,39.99,47.88,60.14,2.14,2.72,4.27,5.45,6.4,8.17,1.22,1.32,2.67,2.25,4.34,2.79,1.61.85,3.34,1.23,5.2,1.16,3.05-.14,5.75-1.02,8.18-2.9,5.4-4.17,6.7-11.42,3.48-17.42-10.45-19.47-20.82-38.97-31.09-58.53-8.6-16.38-17.13-32.79-25.55-49.26-6.79-13.27-13.51-26.58-20.12-39.94-5.07-10.25-10.08-20.54-14.95-30.89-3.42-7.26-6.78-14.55-9.95-21.92-.3-.71-.61-1.42-.91-2.13l1.36,3.22c-1.68-3.99-3.45-8.03-4.6-12.22-.15-.56-.3-1.13-.38-1.71l.48,3.59c-.03-.25-.06-.51-.03-.76l-.48,3.59c.01-.08.03-.15.06-.22l-1.36,3.22s.03-.06.05-.09l-2.11,2.73s.03-.03.05-.05l-2.73,2.11s.04-.02.06-.03l-3.22,1.36s.05-.02.08-.02l-3.59.48s.06,0,.09,0l-3.59-.48c.06,0,.12.03.17.05l-3.22-1.36c.14.06.26.14.38.23l-2.73-2.11c.82.64,1.47,1.51,2.1,2.32l-2.11-2.73c3.65,4.74,6.73,9.96,9.82,15.08,5.63,9.34,10.99,18.84,16.29,28.37,7.63,13.75,15.08,27.6,22.44,41.5,9.57,18.08,18.97,36.25,28.27,54.48,11.41,22.36,22.65,44.8,33.78,67.3,1.52,3.07,3.03,6.13,4.54,9.2,1.37,2.79,5.07,5.52,8.07,6.2s5.92.53,8.79-.68c2.59-1.09,5.1-2.96,6.46-5.52,1.66-3.15,2.46-6.91,1.36-10.4-6.05-19.17-11.98-38.38-17.73-57.64-4.78-16.02-9.45-32.08-13.94-48.19-3.59-12.87-7.06-25.78-10.35-38.73-2.46-9.72-4.83-19.46-6.96-29.26-1.42-6.56-2.78-13.15-3.76-19.79-.09-.59-.17-1.18-.25-1.77l.48,3.59c-.38-2.8-.88-5.83-.5-8.66l-.48,3.59c.05-.33.11-.66.24-.97l-1.36,3.22c.04-.1.09-.2.16-.28l-2.11,2.73c.04-.05.08-.1.13-.14l-2.73,2.11s.08-.05.12-.07l-3.22,1.36s.08-.03.13-.03l-3.59.48s.09,0,.14,0l-3.59-.48c.07.01.14.03.21.06l-3.22-1.36c.11.05.21.12.31.19l-2.73-2.11c.31.24.57.54.81.85l-2.11-2.73c1.56,2.04,2.63,4.5,3.68,6.82.46,1.01.9,2.04,1.33,3.06l-1.36-3.22c2.61,6.19,4.91,12.51,7.12,18.84,3.25,9.3,6.29,18.67,9.23,28.07,3.86,12.33,7.53,24.72,11.1,37.14,4.42,15.39,8.68,30.83,12.81,46.31,4.95,18.53,9.74,37.11,14.4,55.72.63,2.52,1.26,5.04,1.88,7.56.77,3.1,3.36,6.56,6.2,8.07s5.54,2.01,8.61,1.6c2.83-.38,5.76-1.54,7.75-3.71,2.29-2.5,4.28-6.03,3.95-9.55-2.24-24.29-4.38-48.58-6.38-72.89-1.61-19.6-3.13-39.2-4.51-58.81-1.04-14.78-2-29.57-2.79-44.36-.54-10.1-1.03-20.2-1.26-30.31-.12-5.24-.35-10.57.12-15.79.03-.31.06-.62.1-.92l-.48,3.59c.06-.42.11-.86.28-1.25l-1.36,3.22c.03-.06.06-.13.1-.18l-2.11,2.73s.04-.05.06-.07l-2.73,2.11s.03-.02.04-.02l-3.22,1.36s.02,0,.03,0l-3.59.48s.02,0,.03,0l-3.59-.48s.03,0,.04.01l-3.22-1.36s.04.02.06.04l-2.73-2.11s.06.06.09.09l-2.11-2.73c.1.14.18.29.24.45l-1.36-3.22c.46,1.11.68,2.33.92,3.49.45,2.2.8,4.42,1.13,6.64.26,1.72.5,3.44.73,5.16l-.48-3.59c.95,7.11,1.76,14.24,2.52,21.38,1.08,10.09,2.05,20.2,2.97,30.31,1.2,13.12,2.3,26.24,3.35,39.37,1.3,16.16,2.51,32.33,3.66,48.5,1.37,19.22,2.66,38.45,3.9,57.69.17,2.63.34,5.26.5,7.89.23,3.59,1.35,6.94,3.95,9.55,2.34,2.34,6.18,4.1,9.55,3.95s7.11-1.3,9.55-3.95,3.8-5.84,3.95-9.55c.89-21.89,1.86-43.79,2.96-65.67.92-18.37,1.92-36.73,3.04-55.09.91-14.91,1.9-29.82,3.01-44.72.86-11.48,1.79-22.95,2.86-34.42.75-7.94,1.55-15.87,2.56-23.78.1-.75.19-1.51.3-2.26l-.48,3.59c.54-4.02,1.03-8.12,2.08-12.05.14-.52.29-1.04.5-1.54l-1.36,3.22c.08-.19.17-.38.29-.54l-2.11,2.73s.08-.1.13-.13l-2.73,2.11s.05-.03.07-.04l-3.22,1.36s.04-.01.06-.02l-3.59.48s.04,0,.06,0l-3.59-.48s.03,0,.05.01l-3.22-1.36s.05.02.07.04l-2.73-2.11s.06.06.08.09l-2.11-2.73c.06.09.11.18.15.28l-1.36-3.22c.27.65.36,1.38.45,2.08l-.48-3.59c.69,5.23.6,10.62.61,15.88.01,10.19-.27,20.38-.61,30.56-.51,15.1-1.23,30.2-2.04,45.29-1.07,20.04-2.32,40.06-3.67,60.08-1.69,24.98-3.54,49.96-5.51,74.92-.27,3.45-.55,6.9-.82,10.35-.25,3.15,1.66,7.44,3.95,9.55s4.74,3.31,7.75,3.71,6.09.02,8.61-1.6c2.83-1.82,5.54-4.65,6.2-8.07,4.79-24.57,9.64-49.12,14.61-73.65,3.96-19.52,7.98-39.03,12.12-58.51,3.08-14.48,6.22-28.95,9.5-43.38,2.2-9.69,4.45-19.38,6.9-29.01,1.24-4.87,2.4-9.85,4.16-14.57.1-.27.2-.53.31-.79l-1.36,3.22c.14-.33.29-.69.51-.98l-2.11,2.73s.07-.09.12-.12l-2.73,2.11s.04-.03.06-.04l-3.22,1.36s.03,0,.04-.01l-3.59.48s.02,0,.03,0l-3.59-.48s.02,0,.03,0l-3.22-1.36s.02,0,.03.02l-2.73-2.11s.02.02.03.03l-2.11-2.73s.04.06.05.09l-1.36-3.22c.04.11.06.23.08.35l-.48-3.59c.27,2.09-.17,4.39-.42,6.47-.13,1.07-.26,2.13-.41,3.19l.48-3.59c-.92,6.84-2.05,13.65-3.2,20.45-1.76,10.36-3.65,20.69-5.58,31.01-2.61,13.96-5.33,27.91-8.09,41.84-3.44,17.33-6.97,34.64-10.55,51.94-4.33,20.88-8.74,41.74-13.22,62.59-.59,2.77-1.19,5.54-1.79,8.31-.76,3.54-.51,7.21,1.36,10.4,1.64,2.8,4.85,5.47,8.07,6.2,3.46.79,7.33.62,10.4-1.36l2.73-2.11c1.67-1.68,2.83-3.67,3.47-5.96,6.28-16.69,12.66-33.33,19.17-49.93,5.6-14.27,11.29-28.5,17.1-42.68,2.87-6.99,5.76-13.96,8.7-20.92l-1.36,3.22c6.53-15.46,13.22-30.87,20.3-46.08,4.39-9.43,8.87-18.87,13.98-27.94,1.49-2.64,3.01-5.31,4.86-7.72l-2.11,2.73c.47-.61.96-1.22,1.57-1.7l-2.73,2.11c.14-.11.29-.21.45-.28l-3.22,1.36c.07-.03.15-.05.23-.07l-3.59.48c.05,0,.1,0,.15,0l-3.59-.48s.07.02.11.03l-3.22-1.36s.07.04.11.06l-2.73-2.11s.07.06.09.1l-2.11-2.73c.04.06.08.12.11.19l-1.36-3.22c.07.16.1.33.13.5l-.48-3.59c.11.79,0,1.62-.1,2.41l.48-3.59c-.45,3.29-1.37,6.54-2.28,9.73-1.55,5.41-3.32,10.76-5.15,16.08-2.6,7.57-5.36,15.1-8.19,22.59-3.67,9.72-7.46,19.4-11.33,29.05-4.74,11.82-9.59,23.6-14.52,35.34-.69,1.65-1.38,3.29-2.08,4.94l1.36-3.22c-8.26,19.57-16.72,39.06-25.32,58.48-2.76,6.24-5.54,12.47-8.33,18.7-.99,1.55-1.52,3.22-1.6,5.02-.4,1.79-.32,3.59.24,5.38.86,3.13,3.28,6.53,6.2,8.07,3.13,1.66,6.93,2.49,10.4,1.36s6.21-3.12,8.07-6.2c13.5-22.4,27.07-44.76,40.74-67.06,11.17-18.22,22.41-36.41,33.74-54.53,8.84-14.14,17.74-28.24,26.74-42.27,6.45-10.05,12.95-20.08,19.6-30,3.9-5.82,7.81-11.65,12.01-17.26.32-.42.63-.84.95-1.26l-2.11,2.73c.86-1.11,1.73-2.39,2.84-3.26l-2.73,2.11c.08-.06.17-.12.26-.16l-3.22,1.36s.06-.02.09-.03l-3.59.48s.03,0,.04,0l-3.59-.48s.02,0,.04,0l-3.22-1.36s.02,0,.02.01l-2.73-2.11s.01.01.02.02l-2.11-2.73s.01.02.02.04l-1.36-3.22s.01.04.02.07l-.48-3.59c0,.08,0,.15,0,.23l.48-3.59c-.09.63-.37,1.24-.62,1.82l1.36-3.22c-2.04,4.82-4.71,9.41-7.24,13.98-5.03,9.08-10.26,18.05-15.52,27-7.91,13.45-15.95,26.82-24.03,40.16-10.77,17.76-21.65,35.46-32.58,53.13-13.82,22.33-27.74,44.6-41.73,66.83-1.93,3.07-3.86,6.13-5.79,9.2-1.75,2.78-2.38,7.26-1.36,10.4.92,2.85,2.46,5.18,4.84,7.01s5.22,3.03,8.18,2.9c3.32-.15,7.4-1.21,9.55-3.95,9.96-12.73,19.97-25.44,30.02-38.1,9.19-11.59,18.42-23.14,27.69-34.66,8.32-10.33,16.67-20.63,25.06-30.89,7.5-9.17,15.04-18.32,22.63-27.43,6.61-7.94,13.25-15.84,19.93-23.72,5.76-6.78,11.55-13.53,17.39-20.23,4.84-5.56,9.71-11.09,14.63-16.57,3.95-4.4,7.93-8.76,11.97-13.07,3-3.2,6.04-6.37,9.15-9.45,2.06-2.03,4.14-4.06,6.36-5.91.37-.31.75-.62,1.14-.92l-2.73,2.11c.66-.51,1.35-1.04,2.12-1.37l-3.22,1.36c.15-.06.3-.12.46-.14l-3.59.48c.07,0,.13-.01.2,0l-3.59-.48s.08.01.11.03l-3.22-1.36s.06.03.08.05l-2.73-2.11s.04.04.06.06l-2.11-2.73s.04.06.05.09l-1.36-3.22s.03.1.04.15l-.48-3.59c.02.12,0,.23,0,.35l.48-3.59c-.07.48-.25.95-.44,1.4l1.36-3.22c-1.62,3.82-4.16,7.34-6.47,10.77-4.56,6.75-9.39,13.31-14.27,19.83-3.79,5.07-7.64,10.1-11.51,15.12l2.11-2.73c-6.34,8.2-12.75,16.34-19.21,24.44-7.86,9.86-15.8,19.67-23.77,29.44-9.41,11.52-18.89,22.99-28.41,34.43-10.94,13.13-21.94,26.2-32.99,39.23-12.57,14.83-25.21,29.6-37.9,44.33-1.66,1.93-3.33,3.86-5,5.8-2.37,2.75-3.95,5.82-3.95,9.55,0,3.31,1.47,7.27,3.95,9.55s5.95,4.12,9.55,3.95,6.86-1.42,9.55-3.95c21.29-20.06,42.63-40.06,64.04-59.98,17.42-16.21,34.88-32.36,52.42-48.44,13.54-12.41,27.12-24.77,40.79-37.04,9.66-8.67,19.35-17.3,29.15-25.81,5.75-4.99,11.5-9.98,17.47-14.71.45-.35.89-.7,1.34-1.05l-2.73,2.11c1.26-.97,2.6-2.17,4.08-2.81l-3.22,1.36c.09-.04.18-.07.27-.08l-3.59.48s.05,0,.07,0l-3.59-.48s.02,0,.04,0l-3.22-1.36s.02,0,.02.01l-2.73-2.11s.01.01.02.02l-2.11-2.73s0,.01.01.02l-1.36-3.22s0,.02,0,.03l-.48-3.59s0,.04,0,.06l.48-3.59c0,.06-.03.11-.05.16l1.36-3.22c-.17.41-.47.78-.74,1.13l2.11-2.73c-1.26,1.62-2.67,3.12-4.07,4.62-2.48,2.65-5.02,5.23-7.58,7.81-3.64,3.66-7.32,7.29-11.01,10.9-4.8,4.69-9.63,9.35-14.47,14-5.96,5.71-11.94,11.4-17.94,17.07-7.15,6.76-14.32,13.5-21.51,20.22-8.28,7.74-16.57,15.45-24.89,23.15-9.43,8.74-18.89,17.45-28.36,26.15-10.64,9.78-21.31,19.53-31.99,29.27-11.75,10.71-23.52,21.41-35.31,32.08-3.05,2.76-6.1,5.52-9.14,8.27-2.38,2.15-4.1,6.35-3.95,9.55s1.02,5.75,2.9,8.18c1.72,2.23,4.19,4.19,7.01,4.84,3.29.75,7.59.79,10.4-1.36,13.62-10.41,27.25-20.81,40.9-31.18,12.34-9.38,24.69-18.74,37.05-28.08,11.04-8.34,22.1-16.67,33.17-24.97,9.74-7.31,19.49-14.6,29.25-21.87,8.42-6.27,16.85-12.52,25.3-18.76,7.09-5.23,14.2-10.45,21.32-15.65,5.76-4.2,11.52-8.38,17.31-12.53,4.41-3.16,8.83-6.31,13.27-9.41,3.05-2.13,6.1-4.24,9.2-6.29,1.66-1.1,3.33-2.24,5.1-3.17.2-.11.41-.21.62-.3l-3.22,1.36c.11-.05.23-.09.35-.11l-3.59.48s.05,0,.07,0l-3.59-.48s.02,0,.03,0l-3.22-1.36s0,0,.01,0l-2.73-2.11s0,0,.01.01l-2.11-2.73s0,0,0,.01l-1.36-3.22s0,.01,0,.02l-.48-3.59s0,.02,0,.03l.48-3.59s-.01.04-.02.06l1.36-3.22c-.04.09-.1.18-.16.26l2.11-2.73c-.76.98-1.79,1.81-2.72,2.63-1.93,1.71-3.92,3.36-5.91,5-7.13,5.88-14.39,11.59-21.66,17.29-5.93,4.65-11.89,9.27-17.85,13.88l2.73-2.11c-8.13,6.28-16.29,12.54-24.46,18.78-9.78,7.47-19.59,14.92-29.4,22.35-11.48,8.68-22.97,17.35-34.48,25.99-13.18,9.9-26.38,19.78-39.59,29.63-14.9,11.12-29.81,22.21-44.74,33.28-1.99,1.48-3.99,2.96-5.98,4.44-1.57.85-2.84,2.01-3.79,3.48-1.19,1.3-2,2.83-2.42,4.59-.89,3.23-.49,7.53,1.36,10.4s4.63,5.42,8.07,6.2,7.3.59,10.4-1.36c14.48-9.1,28.99-18.16,43.53-27.16,13.38-8.28,26.8-16.52,40.24-24.71,12.27-7.47,24.57-14.9,36.9-22.28,11.14-6.67,22.31-13.29,33.51-19.86,9.99-5.87,20.01-11.69,30.06-17.46,8.83-5.07,17.69-10.1,26.57-15.07,7.65-4.28,15.32-8.52,23.03-12.7,6.45-3.5,12.92-6.95,19.44-10.34,5.25-2.73,10.53-5.42,15.85-8.02,3.98-1.95,7.98-3.85,12.04-5.63.8-.35,1.6-.7,2.41-1.04l-3.22,1.36c2.7-1.14,5.45-2.3,8.3-3.01.46-.12.93-.22,1.41-.28l-3.59.48c.34-.04.68-.07,1.02-.03l-3.59-.48c.11.02.23.04.33.08l-3.22-1.36c.06.02.11.06.17.09l-2.73-2.11s.07.06.09.09l-2.11-2.73s.04.06.06.1l-1.36-3.22s.03.09.04.14l-.48-3.59c0,.06,0,.13,0,.19l.48-3.59c-.02.12-.06.24-.1.35l1.36-3.22c-.15.34-.36.65-.59.95l2.11-2.73c-1.57,2.04-3.7,3.7-5.68,5.31-.88.72-1.77,1.42-2.67,2.11l2.73-2.11c-3.17,2.45-6.42,4.8-9.7,7.12-4.37,3.09-8.8,6.11-13.25,9.09-5.61,3.75-11.26,7.44-16.93,11.1-6.8,4.38-13.63,8.7-20.49,12.99-8.03,5.02-16.09,9.99-24.17,14.92-9.27,5.66-18.56,11.27-27.88,16.84-10.52,6.29-21.07,12.54-31.64,18.74-11.85,6.96-23.72,13.87-35.61,20.74-13.07,7.55-26.18,15.06-39.3,22.53-14.37,8.18-28.76,16.31-43.18,24.4-3.71,2.08-7.42,4.16-11.14,6.24-2.8,1.57-5.49,4.91-6.2,8.07s-.53,5.92.68,8.79c1.09,2.59,2.96,5.1,5.52,6.46,3.04,1.6,7.06,2.64,10.4,1.36,17.69-6.74,35.4-13.43,53.13-20.08,16.05-6.01,32.11-11.99,48.19-17.91,14.41-5.3,28.83-10.57,43.27-15.78,12.72-4.59,25.46-9.14,38.21-13.64,11.15-3.93,22.31-7.83,33.49-11.66,9.52-3.27,19.05-6.5,28.61-9.66,7.9-2.62,15.81-5.2,23.74-7.71,6.25-1.98,12.52-3.92,18.81-5.77,4.67-1.38,9.35-2.71,14.06-3.93,3.05-.79,6.12-1.55,9.23-2.09.5-.09,1.01-.17,1.52-.24l-3.59.48c.85-.11,1.75-.24,2.6-.13l-3.59-.48c.15.02.29.05.43.11l-3.22-1.36s.1.05.14.08l-2.73-2.11s.05.04.07.07l-2.11-2.73s.03.05.04.07l-1.36-3.22s.02.05.02.08l-.48-3.59s0,.06,0,.09l.48-3.59c0,.05-.02.1-.04.15l1.36-3.22c-.04.09-.09.17-.15.25l2.11-2.73c-.23.3-.54.55-.84.78l2.73-2.11c-2.07,1.59-4.51,2.77-6.83,3.94-4.32,2.17-8.73,4.17-13.15,6.12-3.4,1.5-6.81,2.96-10.23,4.41l3.22-1.36c-10.66,4.5-21.39,8.81-32.15,13.04-14.4,5.66-28.85,11.18-43.34,16.62-18.12,6.8-36.28,13.46-54.48,20.04-21.81,7.89-43.67,15.65-65.57,23.31-25.5,8.93-51.04,17.73-76.61,26.43-3.32,1.13-6.63,2.26-9.95,3.38s-6.25,3.1-8.07,6.2c-1.69,2.89-2.41,7.16-1.36,10.4s3.08,6.42,6.2,8.07c3.32,1.76,6.7,2.14,10.4,1.36,18.42-3.89,36.84-7.75,55.27-11.6,16.88-3.52,33.75-7.03,50.64-10.51,15.32-3.16,30.63-6.3,45.96-9.42,13.74-2.8,27.49-5.58,41.24-8.34,12.15-2.44,24.31-4.86,36.47-7.26,10.55-2.08,21.1-4.14,31.66-6.18,8.93-1.72,17.87-3.43,26.81-5.1,7.3-1.37,14.6-2.72,21.91-4.03,5.65-1.02,11.31-2.01,16.97-2.96,3.99-.67,7.98-1.32,11.98-1.9.71-.1,1.43-.2,2.15-.3l-3.59.48c1.88-.25,3.8-.56,5.71-.58.24,0,.48,0,.71.03l-3.59-.48c.08.01.15.02.22.05l-3.22-1.36s.04.02.06.03l-2.73-2.11s.01.01.02.02l-2.11-2.73s0,.01.01.02l-1.36-3.22s0,.01,0,.02l-.48-3.59s0,.01,0,.02l.48-3.59s0,.02,0,.03l1.36-3.22s-.01.02-.02.03l2.11-2.73s-.05.06-.09.08l2.73-2.11c-.2.15-.45.26-.68.35l3.22-1.36c-1.88.79-3.9,1.3-5.86,1.85-3.85,1.07-7.72,2.05-11.6,3.02-5.79,1.44-11.59,2.82-17.39,4.18-7.74,1.81-15.48,3.58-23.23,5.33-9.66,2.18-19.33,4.33-29,6.46-11.67,2.57-23.36,5.11-35.04,7.64-13.67,2.95-27.35,5.88-41.04,8.78-15.69,3.33-31.38,6.64-47.08,9.93-17.72,3.71-35.45,7.4-53.18,11.07-19.69,4.07-39.38,8.12-59.08,12.15-5.16,1.06-10.32,2.11-15.48,3.16-3.05.62-6.63,3.47-8.07,6.2s-2.01,5.54-1.6,8.61c.38,2.83,1.54,5.76,3.71,7.75,2.47,2.27,6.06,4.33,9.55,3.95,21.49-2.33,43-4.59,64.51-6.78,19.53-1.99,39.07-3.92,58.62-5.77,17.57-1.67,35.15-3.28,52.73-4.81,15.61-1.36,31.22-2.67,46.84-3.9,13.64-1.08,27.29-2.1,40.94-3.04,11.68-.81,23.36-1.56,35.04-2.23,9.71-.56,19.42-1.06,29.14-1.47,7.74-.33,15.48-.6,23.23-.76,5.77-.12,11.55-.19,17.32-.1,3.8.06,7.62.15,11.4.52.63.06,1.25.13,1.88.21l-3.59-.48c1.12.15,2.29.31,3.34.74l-3.22-1.36c.18.08.36.17.52.29l-2.73-2.11c.06.05.12.1.17.17l-2.11-2.73s.05.08.07.12l-1.36-3.22s.03.07.03.11l-.48-3.59s0,.08,0,.11l.48-3.59s-.02.09-.04.13l1.36-3.22c-.03.06-.06.12-.1.17l2.11-2.73c-.08.1-.18.19-.29.28l2.73-2.11c-.4.31-.87.52-1.33.72l3.22-1.36c-3.19,1.34-6.71,2-10.09,2.7-6.26,1.29-12.57,2.31-18.89,3.27-4.87.74-9.74,1.42-14.61,2.08l3.59-.48c-13.41,1.8-26.85,3.38-40.3,4.86-17.56,1.93-35.14,3.68-52.72,5.32-21.76,2.03-43.54,3.9-65.33,5.66-25.97,2.09-51.95,4.03-77.95,5.84-30.18,2.11-60.37,4.05-90.57,5.87-3.95.24-7.89.47-11.84.71-3.59.21-6.95,1.36-9.55,3.95-2.34,2.34-4.1,6.18-3.95,9.55s1.3,7.11,3.95,9.55,5.83,3.76,9.55,3.95c17.56.94,35.12,1.9,52.68,2.9,16.07.91,32.14,1.85,48.21,2.83,14.67.89,29.33,1.81,44,2.76,13.33.86,26.65,1.75,39.98,2.68,11.87.82,23.75,1.67,35.62,2.56,10.54.79,21.07,1.6,31.6,2.45,9.11.73,18.21,1.49,27.31,2.29,7.77.68,15.54,1.39,23.3,2.14,6.37.62,12.73,1.26,19.09,1.96,5.01.55,10.02,1.13,15.02,1.77,1.03.13,2.05.27,3.08.4l-3.59-.48c3.11.42,6.21.86,9.3,1.39,1.98.34,3.96.69,5.91,1.19.62.16,1.25.34,1.85.59l-3.22-1.36c.2.09.41.18.59.32l-2.73-2.11s.1.08.14.13l-2.11-2.73s.03.05.05.08l-1.36-3.22s.01.04.02.06l-.48-3.59s0,.04,0,.06l.48-3.59s0,.04-.02.06l1.36-3.22s-.02.04-.04.06l2.11-2.73s-.06.06-.09.08l2.73-2.11c-.08.06-.18.11-.28.15l3.22-1.36c-.63.26-1.35.35-2.02.44l3.59-.48c-2.79.37-5.63.44-8.44.51-4.77.12-9.54.1-14.31.05-6.79-.08-13.57-.24-20.35-.45-8.69-.26-17.37-.59-26.06-.97-10.71-.46-21.41-.97-32.12-1.53-12.56-.65-25.11-1.36-37.66-2.1-14.58-.87-29.16-1.78-43.73-2.74-16.38-1.08-32.75-2.2-49.12-3.37-18.41-1.31-36.81-2.67-55.2-4.08-20.15-1.54-40.29-3.13-60.44-4.76-5.25-.43-10.49-.85-15.74-1.28-3.14-.26-7.44,1.66-9.55,3.95s-3.31,4.74-3.71,7.75-.02,6.09,1.6,8.61c1.78,2.76,4.68,5.68,8.07,6.2,19.1,2.93,38.19,5.87,57.28,8.85,17.11,2.67,34.22,5.36,51.32,8.08,15.21,2.42,30.42,4.86,45.63,7.33,13.38,2.17,26.75,4.37,40.12,6.59,11.48,1.91,22.96,3.84,34.44,5.81,9.56,1.64,19.12,3.29,28.67,4.99,7.7,1.36,15.4,2.75,23.09,4.18,5.87,1.09,11.74,2.2,17.6,3.37,4,.8,8.01,1.61,11.99,2.51,2.17.49,4.37.96,6.49,1.66.26.08.51.17.76.28l-3.22-1.36c.15.06.3.13.42.22l-2.73-2.11s.05.04.07.07l-2.11-2.73s.02.02.02.03l-1.36-3.22s0,.01,0,.02l-.48-3.59s0,.01,0,.02l.48-3.59s0,.01,0,.02l1.36-3.22s0,.01-.01.02l2.11-2.73s-.01.02-.02.02l2.73-2.11s-.04.03-.06.04l3.22-1.36c-.1.04-.21.06-.32.07l3.59-.48c-2.2.29-4.6-.12-6.78-.33-5.04-.47-10.07-1.08-15.1-1.71-4.03-.51-8.07-1.03-12.1-1.58l3.59.48c-11.18-1.5-22.34-3.1-33.5-4.73-14.9-2.18-29.79-4.43-44.67-6.73-18.59-2.87-37.17-5.79-55.75-8.77-22.26-3.56-44.51-7.18-66.75-10.85-25.9-4.27-51.79-8.6-77.66-12.98-3.49-.59-6.98-1.18-10.47-1.77-1.79-.56-3.59-.64-5.38-.24-1.8.08-3.47.62-5.02,1.6-2.8,1.64-5.47,4.85-6.2,8.07-.79,3.46-.62,7.33,1.36,10.4s4.61,5.23,8.07,6.2c15.43,4.35,30.85,8.74,46.25,13.17,14.24,4.09,28.46,8.22,42.68,12.4,12.9,3.79,25.8,7.61,38.68,11.48,11.64,3.49,23.27,7.02,34.88,10.58,10.42,3.2,20.82,6.43,31.22,9.71,9.09,2.87,18.17,5.76,27.24,8.71,7.81,2.54,15.62,5.11,23.4,7.72,6.53,2.2,13.05,4.42,19.56,6.71,5.27,1.85,10.53,3.74,15.76,5.69,3.96,1.47,7.9,2.98,11.81,4.58.77.31,1.54.63,2.3.96l-3.22-1.36c2.81,1.19,5.68,2.38,8.31,3.94.4.24.79.48,1.15.77l-2.73-2.11c.2.16.4.33.56.53l-2.11-2.73c.05.07.1.14.13.21l-1.36-3.22s.03.08.03.12l-.48-3.59s0,.06,0,.09l.48-3.59s-.01.05-.02.08l1.36-3.22s-.02.04-.04.06l2.11-2.73s-.05.06-.08.08l2.73-2.11c-.05.04-.11.07-.16.09l3.22-1.36c-.17.07-.35.11-.54.13l3.59-.48c-1.49.2-3.07-.06-4.55-.26l3.59.48c-3.02-.41-6.01-.99-8.99-1.6-4.46-.92-8.9-1.94-13.33-2.99-5.91-1.41-11.8-2.9-17.68-4.42-7.37-1.91-14.71-3.88-22.05-5.89-8.78-2.4-17.55-4.86-26.31-7.35-10.28-2.93-20.55-5.9-30.81-8.91-11.76-3.45-23.5-6.95-35.23-10.48-13.23-3.99-26.45-8.02-39.65-12.09-14.71-4.53-29.41-9.11-44.1-13.73-16.2-5.09-32.38-10.23-48.55-15.41-4.16-1.33-8.32-2.67-12.48-4-3.11-1-7.65-.41-10.4,1.36-2.51,1.62-4.36,3.7-5.52,6.46s-1.6,5.94-.68,8.79c1.05,3.25,3.08,6.45,6.2,8.07,26.05,13.51,52,27.24,77.78,41.26,21.7,11.79,43.3,23.78,64.73,36.06,17.46,10,34.81,20.17,51.98,30.64,13.32,8.12,26.54,16.41,39.54,25.02,9.3,6.16,18.51,12.46,27.41,19.18.85.64,1.7,1.29,2.54,1.94l-2.73-2.11c4.68,3.62,9.4,7.35,13.49,11.65.71.74,1.39,1.51,2.02,2.32l-2.11-2.73c.55.72,1.08,1.47,1.44,2.31l-1.36-3.22c.12.3.23.61.27.93l-.48-3.59c.02.16.03.33,0,.49l.48-3.59c-.02.12-.05.23-.09.35l1.36-3.22c-.04.1-.1.19-.16.28l2.11-2.73c-.07.09-.16.18-.25.25l2.73-2.11c-.13.09-.26.17-.41.23l3.22-1.36c-.29.12-.61.19-.92.23l3.59-.48c-.91.12-1.83.04-2.74-.08l3.59.48c-5.47-.74-10.83-2.87-15.94-4.87-2.17-.84-4.32-1.73-6.47-2.63l3.22,1.36c-4.65-1.97-9.26-4.04-13.84-6.18-5.6-2.61-11.16-5.32-16.69-8.09-6.48-3.24-12.93-6.57-19.34-9.94-7.42-3.91-14.79-7.89-22.14-11.93-8.26-4.54-16.48-9.16-24.67-13.83-9.18-5.23-18.31-10.54-27.41-15.9-9.98-5.88-19.93-11.83-29.84-17.83-10.88-6.59-21.72-13.25-32.52-19.98-11.65-7.25-23.26-14.57-34.83-21.95-12.46-7.95-24.88-15.97-37.26-24.05-3.2-2.09-6.4-4.18-9.59-6.28-2.84-1.86-7.2-2.24-10.4-1.36s-6.53,3.28-8.07,6.2c-1.66,3.13-2.49,6.93-1.36,10.4l1.36,3.22c1.2,2.03,2.81,3.64,4.84,4.84,23.07,17.05,46.14,34.11,69.2,51.19,18.51,13.7,37.01,27.41,55.51,41.13,14.19,10.53,28.38,21.07,42.55,31.62,9.77,7.28,19.54,14.56,29.29,21.87,5.51,4.13,11.03,8.26,16.49,12.45.38.29.75.58,1.13.87l-2.73-2.11c.88.68,2.12,1.37,2.81,2.26l-2.11-2.73s0,0,0,.01l-1.36-3.22s0,0,0,0l-.48-3.59h0c.16-1.19.32-2.39.48-3.59h0c.45-1.07.91-2.15,1.36-3.22h0c.7-.91,1.41-1.82,2.11-2.73h0c1.99-1.16,3.97-2.31,5.96-3.47,0,0,0,0,0,0l3.59-.48s0,0,0,0l3.59.48s-.02,0-.03,0l3.22,1.36c-.95-.41-1.83-1.21-2.67-1.79-2.32-1.62-4.61-3.27-6.91-4.92-3.69-2.65-7.38-5.32-11.06-7.98-5.1-3.69-10.19-7.4-15.28-11.1-6.45-4.69-12.89-9.39-19.33-14.1-7.85-5.73-15.69-11.46-23.53-17.2-9.17-6.71-18.33-13.42-27.49-20.13-10.56-7.74-21.11-15.48-31.67-23.23-11.85-8.69-23.69-17.39-35.53-26.09-13.23-9.72-26.46-19.45-39.69-29.17-3.4-2.5-6.8-5-10.2-7.5-1.55-.99-3.22-1.52-5.02-1.6-1.79-.4-3.59-.32-5.38.24-2.85.92-5.18,2.46-7.01,4.84s-3.03,5.22-2.9,8.18c.16,3.51,1.32,7.08,3.95,9.55,13.01,12.19,25.89,24.51,38.62,37,11.17,10.96,22.22,22.04,33.12,33.28,9.44,9.74,18.77,19.59,27.94,29.59,7.67,8.36,15.22,16.83,22.6,25.45,5.98,6.98,11.84,14.05,17.51,21.28.6.77,1.2,1.53,1.79,2.3l-2.11-2.73c3.48,4.51,6.89,9.09,10.11,13.79,2.34,3.42,4.61,6.9,6.61,10.54.8,1.45,1.55,2.92,2.19,4.45l-1.36-3.22c.53,1.25,1.01,2.55,1.2,3.9l-.48-3.59c.06.42.08.84.02,1.27l.48-3.59c-.03.21-.08.42-.16.62l1.36-3.22c-.06.14-.13.28-.23.4l2.11-2.73c-.08.1-.16.18-.26.26l2.73-2.11c-.11.09-.23.16-.37.21l3.22-1.36c-.17.07-.35.12-.54.14l3.59-.48c-.34.05-.69.03-1.03-.02l3.59.48c-.9-.13-1.77-.44-2.6-.79l3.22,1.36c-3.5-1.48-6.69-3.72-9.75-5.94-1.24-.9-2.46-1.82-3.68-2.75l2.73,2.11c-6.33-4.9-12.38-10.17-18.3-15.56-8.33-7.56-16.41-15.39-24.37-23.35-10.31-10.3-20.39-20.82-30.34-31.46-12.27-13.13-24.32-26.46-36.23-39.91-14.15-16-28.09-32.19-41.87-48.51-1.89-2.24-3.79-4.49-5.67-6.74-2.02-2.41-6.47-4.09-9.55-3.95s-5.75,1.02-8.18,2.9c-2.23,1.72-4.19,4.19-4.84,7.01-.83,3.65-.36,7.05,1.36,10.4,8.55,16.68,17.04,33.38,25.44,50.13,7.12,14.19,14.19,28.41,21.17,42.68,5.81,11.86,11.56,23.76,17.22,35.69,4.5,9.48,8.94,18.98,13.28,28.52,3.28,7.2,6.5,14.43,9.61,21.71.31.74.63,1.47.94,2.21l-1.36-3.22c2.62,6.2,5.38,12.48,7.24,18.97.22.78.44,1.58.55,2.39l-.48-3.59c.04.27.07.56.03.83l.48-3.59c-.01.07-.03.14-.05.21l1.36-3.22s-.03.06-.05.09l2.11-2.73s-.03.03-.05.05l2.73-2.11s-.04.02-.05.03l3.22-1.36s-.04.01-.06.02l3.59-.48s-.06,0-.08,0l3.59.48s-.09-.02-.14-.04l3.22,1.36c-.12-.05-.22-.12-.32-.2l2.73,2.11c-.55-.43-.99-1.01-1.42-1.55l2.11,2.73c-3.31-4.29-5.96-9.17-8.63-13.87-5.1-8.98-9.91-18.12-14.65-27.29-6.9-13.36-13.6-26.82-20.19-40.34-8.56-17.54-16.92-35.18-25.17-52.87-10.08-21.63-19.97-43.35-29.71-65.13-1.34-2.99-2.67-5.97-4-8.96-7.77,4.54-15.54,9.08-23.31,13.63,10.38,18.8,20.86,37.54,31.5,56.2,8.21,14.39,16.51,28.74,24.97,42.98,5.95,10.01,11.96,19.98,18.17,29.82,3.67,5.82,7.36,11.64,11.38,17.22,1.63,2.27,3.27,4.57,5.16,6.64,4.45,4.88,11.77,6.55,17.68,3.09s8.08-10.6,6-16.86c-.88-2.64-2.08-5.19-3.25-7.72-2.81-6.03-5.99-11.9-9.18-17.74-5.32-9.76-10.84-19.41-16.42-29.01-7.79-13.39-15.74-26.69-23.77-39.94-10.31-16.99-20.78-33.88-31.36-50.7-2.91-4.62-5.82-9.24-8.74-13.85-1.86-2.93-4.68-5.27-8.07-6.2s-7.53-.49-10.4,1.36-5.42,4.63-6.2,8.07-.47,7.16,1.36,10.4c8.54,15.17,17.06,30.35,25.53,45.56,6.76,12.13,13.48,24.27,20.17,36.44,5.03,9.16,10.04,18.33,15,27.54,3.35,6.21,6.68,12.43,9.93,18.69,1.67,3.21,3.38,6.41,4.86,9.71.08.19.17.38.25.57l-1.36-3.22c.11.27.26.56.3.85l-.48-3.59s0,.04,0,.06l.48-3.59s0,.01,0,.02l1.36-3.22h0c.7-.91,1.41-1.82,2.11-2.73,0,0,0,0,0,0l2.73-2.11h0c1.07-.45,2.15-.91,3.22-1.36,0,0,0,0,0,0l3.59-.48s0,0,0,0l3.59.48s-.01,0-.02,0l3.22,1.36s-.02-.01-.04-.02l2.73,2.11c-.11-.08-.19-.2-.27-.3l2.11,2.73c-1.75-2.27-3.14-4.88-4.6-7.34-3.34-5.62-6.58-11.28-9.81-16.96-5.03-8.83-10-17.7-14.95-26.58-6.71-12.04-13.37-24.12-20.01-36.2-8.37-15.25-16.7-30.53-24.99-45.83-1.17-2.15-2.33-4.31-3.5-6.46-1.51-2.8-4.96-5.5-8.07-6.2s-5.92-.53-8.79.68c-2.59,1.09-5.1,2.96-6.46,5.52-1.57,2.97-2.73,7.14-1.36,10.4,6.37,15.18,12.65,30.4,18.81,45.68,4.99,12.38,9.89,24.8,14.66,37.26,3.67,9.58,7.26,19.19,10.7,28.86,2.37,6.66,4.68,13.34,6.78,20.1,1.16,3.73,2.37,7.52,3.05,11.38.05.27.09.54.13.81l-.48-3.59c.06.48.13.98.07,1.46l.48-3.59c-.01.1-.03.19-.07.28l1.36-3.22s-.03.07-.06.1l2.11-2.73s-.03.04-.05.05l2.73-2.11s-.04.02-.06.03l3.22-1.36s-.03.01-.05.01l3.59-.48s-.06,0-.08,0l3.59.48s-.07-.02-.11-.03l3.22,1.36c-.07-.03-.14-.08-.2-.12l2.73,2.11c-.27-.21-.48-.47-.69-.74l2.11,2.73c-1.77-2.31-3.05-5.05-4.35-7.64-2.55-5.09-4.9-10.29-7.2-15.5-1.81-4.09-3.57-8.2-5.31-12.32l1.36,3.22c-4.66-11.05-9.16-22.18-13.56-33.34-5.81-14.71-11.45-29.48-17-44.28-3.71-9.9-7.37-19.81-11-29.74-1.23-3.36-3.03-6.21-6.2-8.07-2.89-1.69-7.16-2.41-10.4-1.36s-6.42,3.08-8.07,6.2c-1.76,3.33-2.12,6.69-1.36,10.4,4.23,20.61,8.31,41.26,12.12,61.96,2.84,15.42,5.54,30.88,7.97,46.37,1.02,6.5,1.99,13.02,2.86,19.54l-.48-3.59c1.13,8.41,2.4,16.96,2.51,25.46.01,1.03.01,2.07-.12,3.09l.48-3.59c-.04.33-.1.67-.23.98l1.36-3.22c-.03.07-.07.14-.12.21l2.11-2.73s-.05.06-.08.08l2.73-2.11s-.04.03-.06.04l3.22-1.36s-.04.02-.07.02l3.59-.48s-.05,0-.07,0l3.59.48s-.06-.01-.09-.02l3.22,1.36s-.09-.04-.12-.07l2.73,2.11c-.1-.08-.18-.17-.26-.27l2.11,2.73c-.37-.49-.63-1.08-.87-1.65l1.36,3.22c-1.47-3.49-2.39-7.24-3.34-10.89-1.73-6.71-3.23-13.47-4.65-20.25-2.09-9.91-4-19.86-5.83-29.82-2.39-13.03-4.63-26.08-6.77-39.16-2.67-16.27-5.18-32.57-7.59-48.88-.33-2.26-.66-4.52-.99-6.78-.42-1.76-1.22-3.29-2.42-4.59-.95-1.47-2.21-2.63-3.79-3.48-2.73-1.44-5.54-2.01-8.61-1.6-2.83.38-5.76,1.54-7.75,3.71-2.5,2.72-3.76,5.83-3.95,9.55-.83,15.76-1.49,31.53-1.84,47.31-.26,11.56-.37,23.13-.15,34.69.14,7.6.39,15.22,1.04,22.8.31,3.56.75,7.12,1.28,10.65.23,1.52.48,3.05.93,4.52,1.11,3.63,2.76,6.56,5.78,8.9,6.72,5.19,16.37,3.17,20.71-4.08,2.55-4.27,2.97-9.38,3.57-14.19.68-5.45.92-10.97,1.06-16.46.22-8.29.13-16.59-.13-24.88-.34-10.79-.97-21.58-1.81-32.35-1.03-13.08-2.37-26.14-3.98-39.17-.43-3.49-.88-6.98-1.35-10.47.07-1.86-.32-3.59-1.16-5.2-.54-1.67-1.47-3.12-2.79-4.34-2.34-2.34-6.18-4.1-9.55-3.95s-7.11,1.3-9.55,3.95-3.96,5.89-3.95,9.55c.02,20.24-.09,40.57-1.69,60.76-.23,2.84-.49,5.68-.86,8.51l.48-3.59c-.24,1.78-.41,3.75-1.11,5.42l1.36-3.22c-.06.13-.12.27-.21.38l2.11-2.73s-.06.08-.1.11l2.73-2.11s-.04.03-.07.04l3.22-1.36s-.03.01-.05.01l3.59-.48s-.03,0-.05,0l3.59.48s-.03,0-.05-.01l3.22,1.36s-.04-.02-.07-.04l2.73,2.11s-.06-.05-.08-.08l2.11,2.73c-.06-.09-.11-.18-.16-.28l1.36,3.22c-.31-.74-.41-1.58-.52-2.37l.48,3.59c-.77-5.77-.69-11.71-.68-17.52.03-11.12.47-22.25,1.06-33.36.45-8.5,1.01-17,1.65-25.5l-.48-3.59c-.42-1.76-1.22-3.29-2.42-4.59-1.72-2.23-4.19-4.19-7.01-4.84-5.77-1.31-12.26.83-15.25,6.2-3.34,6.01-6.75,11.99-10.37,17.84-2.07,3.36-4.19,6.71-6.59,9.84l2.11-2.73c-.76.99-1.55,2.03-2.54,2.8l2.73-2.11c-.14.11-.29.21-.45.28l3.22-1.36c-.07.03-.14.05-.21.07l3.59-.48s-.08,0-.12,0l3.59.48s-.05-.01-.08-.02l3.22,1.36s-.05-.02-.07-.04l2.73,2.11s-.04-.03-.06-.06l2.11,2.73s-.04-.07-.06-.1l1.36,3.22c-.03-.08-.05-.16-.07-.25l.48,3.59c-.03-.26,0-.51.03-.77l-.48,3.59c.29-2.01,1.16-3.98,1.94-5.84l-1.36,3.22c3.38-7.96,7.82-15.54,12.66-22.69,1.66-2.45,3.4-4.86,5.21-7.2l-2.11,2.73c1.34-1.73,2.72-3.42,4.15-5.07l-13.13,3.47c9.69,2.63,19.57,4.83,29.57,5.88,1.05.11,2.11.21,3.17.16,5.84-.27,10.98-2.97,13.35-8.6,2.83-6.7-.07-13.93-6.15-17.54-1.98-1.17-4.2-1.93-6.35-2.73-6.28-2.33-12.83-4.02-19.29-5.75v26.04c11.33-2.49,22.62-5.43,33.54-9.4,4.56-1.66,9.07-3.48,13.45-5.57,2.26-1.08,4.49-2.24,6.52-3.72,3.8-2.78,7.14-5.81,8.43-10.57,2.1-7.79-2.78-15.91-10.55-17.92-2.86-.74-5.78-.85-8.69-.51-4.25.5-8.39,1.22-12.53,2.29-13.23,3.43-25.96,8.7-38.49,14.06,5.45,7.07,10.91,14.14,16.36,21.2,11.93-10.91,23.69-22.01,35.08-33.48,6.48-6.53,13-13.11,18.88-20.2,1.83-2.2,3.89-4.41,5.2-6.98,1.23-2.42,1.95-4.43,1.95-7.19,0-4.95-2.67-9.19-6.76-11.81-4.35-2.8-10.09-2.24-14.4.25-2.76,1.6-5.23,3.88-7.64,5.99-3.24,2.84-6.36,5.82-9.45,8.82-11.33,10.99-22.23,22.42-33.03,33.92-1.82,1.94-3.64,3.89-5.46,5.84-2.41,2.59-3.95,5.96-3.95,9.55,0,3.31,1.47,7.27,3.95,9.55s5.95,4.12,9.55,3.95l3.59-.48c2.29-.64,4.27-1.8,5.96-3.47,1.94-1.52,3.88-3.03,5.83-4.54l-2.73,2.11c12.46-9.62,25.17-18.92,38.28-27.63,9.25-6.15,18.71-12.05,28.53-17.26,3.82-2.03,7.7-3.95,11.68-5.63l-3.22,1.36c3.25-1.37,6.67-2.74,10.19-3.22l-3.59.48c.74-.1,1.49-.15,2.23-.06l-3.59-.48c.29.04.58.1.85.21l-3.22-1.36c.16.07.31.15.45.26l-2.73-2.11c.1.08.18.16.26.26l-2.11-2.73c.07.1.13.2.18.31l-1.36-3.22c.05.12.08.24.1.36l-.48-3.59c.03.2.02.39,0,.59l.48-3.59c-.05.37-.16.72-.3,1.06l1.36-3.22c-.41.97-1.01,1.84-1.65,2.67l2.11-2.73c-3.52,4.54-8.22,8.24-12.73,11.74l2.73-2.11c-6.82,5.27-14,10.06-21.3,14.64-10.11,6.35-20.5,12.25-31.03,17.89-7.31,3.92-14.7,7.7-22.14,11.38-2.79,1.38-5.52,5.07-6.2,8.07s-.53,5.92.68,8.79c1.09,2.59,2.96,5.1,5.52,6.46,3.02,1.59,7.08,2.66,10.4,1.36,15.17-5.95,30.33-11.91,45.48-17.91,11.97-4.74,23.93-9.5,35.88-14.29,8.83-3.54,17.65-7.09,26.45-10.68,5.55-2.26,11.1-4.53,16.63-6.85,3.28-1.37,6.85-2.6,10-4.31.56-.3,1.02-.76,1.52-1.14,1.53-1.18,2.36-2.05,3.5-3.81,1.37-2.13,1.32-2.92,1.6-5.02.39-2.94.06-6.03-1.6-8.61-3.34-5.19-9.5-7.87-15.48-6.16-.79.23-1.57.54-2.34.83-4.15,1.55-8.27,3.18-12.39,4.8-7.56,2.98-15.11,6-22.65,9.03-11.1,4.46-22.19,8.96-33.27,13.47-14.59,5.94-29.17,11.91-43.75,17.9-4.13,1.7-8.25,3.4-12.38,5.1-1.76.42-3.29,1.22-4.59,2.42-1.47.95-2.63,2.21-3.48,3.79-1.69,2.89-2.41,7.16-1.36,10.4s3.08,6.42,6.2,8.07,7.12,2.71,10.4,1.36c17.31-7.09,34.63-14.14,51.98-21.14,13.86-5.59,27.74-11.14,41.64-16.64,10.31-4.07,20.62-8.12,30.97-12.1,6.75-2.6,13.51-5.18,20.31-7.64,3.06-1.11,6.14-2.32,9.3-3.13.12-.03.25-.06.37-.07l-3.59.48c.06,0,.12-.01.18,0l-3.59-.48s.03,0,.04,0l-3.22-1.36s0,0,.01,0l-2.73-2.11s0,0,0,0l-2.11-2.73h0c-.45-1.07-.91-2.15-1.36-3.22,0,0,0,0,0,0l-.48-3.59s0,0,0,0l.48-3.59s0,0,0,.01l1.36-3.22s-.01.02-.02.03l2.11-2.73s-.07.06-.1.09l2.73-2.11c-1.05.79-2.42,1.29-3.6,1.84-2.85,1.32-5.73,2.57-8.61,3.81-2.35,1.01-4.7,2.01-7.05,3l3.22-1.36c-12.06,5.09-24.18,10.04-36.31,14.96-18.35,7.44-36.75,14.78-55.16,22.07-13.22,5.24-26.46,10.44-39.7,15.63-1.76.42-3.29,1.22-4.59,2.42-1.47.95-2.63,2.21-3.48,3.79-1.69,2.89-2.41,7.16-1.36,10.4s3.08,6.42,6.2,8.07,6.88,2.43,10.4,1.36c18.17-5.51,36.35-10.98,54.54-16.39,14.45-4.3,28.91-8.56,43.39-12.76,10.85-3.15,21.71-6.27,32.59-9.31,7.16-2.01,14.33-3.99,21.53-5.87,3.52-.92,7.05-1.93,10.64-2.55.18-.03.37-.06.55-.09l-3.59.48c.18-.02.38-.06.56-.03l-3.59-.48s.04,0,.06.01l-3.22-1.36s.02,0,.02.01l-2.73-2.11s0,0,0,0l-2.11-2.73s0,0,0,0l-1.36-3.22h0c-.16-1.19-.32-2.39-.48-3.58,0,0,0,0,0,0l.48-3.59s0,.01,0,.02l1.36-3.22s0,.01-.01.02l2.11-2.73s-.04.04-.06.06l2.73-2.11c-.27.21-.62.33-.93.46l3.22-1.36c-3.21,1.35-6.58,2.38-9.89,3.47-6.83,2.24-13.69,4.38-20.55,6.5-10.33,3.19-20.68,6.31-31.04,9.4-13.85,4.13-27.72,8.2-41.59,12.24-17.44,5.08-34.9,10.1-52.38,15.08-2.36.67-4.72,1.35-7.09,2.02-3.28.93-6.34,3.25-8.07,6.2s-2.41,7.16-1.36,10.4,3.08,6.42,6.2,8.07l3.22,1.36c2.39.64,4.79.64,7.18,0,17.23-3.07,34.47-6.04,51.74-8.88,13.84-2.27,27.7-4.45,41.58-6.49,6.31-.93,12.63-1.82,18.95-2.67l-3.59.48c8.62-1.16,17.25-2.25,25.9-3.13,5.26-.54,10.55-1.06,15.84-1.2,1.48-.04,2.98-.08,4.45.12l-3.59-.48c.32.04.65.1.95.22l-3.22-1.36c.07.03.14.06.2.11l-2.73-2.11s.06.05.08.08l-2.11-2.73s.02.04.03.06l-1.36-3.22s.01.03.01.05l-.48-3.59s0,.04,0,.06l.48-3.59s-.01.04-.02.07l1.36-3.22s-.04.08-.07.11l2.11-2.73c-.06.07-.12.13-.19.18l2.73-2.11c-.36.28-.8.47-1.21.65l3.22-1.36c-3.11,1.31-6.51,2.06-9.78,2.85-6.28,1.52-12.61,2.8-18.95,4.04-9.28,1.8-18.59,3.45-27.91,5.03-12.34,2.08-24.7,4.03-37.07,5.9-15.26,2.3-30.55,4.47-45.85,6.56-2.14.29-4.28.58-6.41.87l3.59-.48c-4.74.64-9.48,1.26-14.22,1.88-1.86-.07-3.59.32-5.2,1.16-1.67.54-3.12,1.47-4.34,2.79-2.34,2.34-4.1,6.18-3.95,9.55s1.3,7.11,3.95,9.55c2.44,2.24,6.1,4.41,9.55,3.95h0Z"/>
    </g>
  </g>
</svg>