<?xml version="1.0" encoding="UTF-8"?>
<svg id="Layer_2" data-name="Layer 2" xmlns="http://www.w3.org/2000/svg" viewBox="0 0 1191.57 773.18">
  <defs>
    <style>
      .cls-1 {
        fill: none;
        stroke: #1ca86f;
        stroke-miterlimit: 10;
        stroke-width: 3px;
      }

      .cls-2 {
        fill: #032c2d;
      }

      .cls-3 {
        fill: #1ca86f;
      }
    </style>
  </defs>
  <g id="images">
    <g>
      <path class="cls-3" d="m591.02,346.62c-28.06-282.92,52.14-305.69,16.3.55,134.28-252,201.04-195.45,28.6,6.87,394.71-260.55,448.64-175.28,21.92,10.44,444.63-132.31,462.09-64.57-3.98,19.1,350.04,30.7,346.7,114.18-7.62,20.35,355.99,135.65,350.4,214.38-8.98,16.95,226.3,267.39,182.97,255.31-18.05,1.01,134.09,224.61,70.22,236.52-15.71,2.98,31.17,286.78-10.49,295.14-9.23,4.51-9.72,292.3-51.89,290.69-7.92-.94-76.98,278.2-173.26,216.46-23.08-5.58-291.14,270.41-362.98,202.12-18.45-12.3-352.88,107.29-403.65,71.48-8.46-12.26-419.61,67.76-440.62,47.04-4.75-5.78-444.93,18.41-457.52-29.69,3.58-12.67-369.99-87.55-349.92-114.52,9.42-12.56-340.98-176.9-313.96-218.67,11.17-10.51-220.16-216.52-185.38-193.25,13.11,7.46-164.78-120.4-174.15-81.74-1.31,12.96-190.71-70.59-218.27-36.46-7.07,5.25-268.34-26.67-343.52,13.43-.76,10.94-245.03,41.75-195.88,37.97,10.93,4.76-131.49,116.35-95.85,92.18,11.3.35-74.29,62.54-30.85,49.17,9.96-3.21-21.6,54.89-121.01,35.46-17.04-15.16-175.81-151.31-138.25-222.97,5.63-27.22-57.8-282.81-17.57-289.21,10.49-6.29Z"/>
      <path class="cls-2" d="m592.82,361.88c-46.23-465.2,75.42-499.63,10.1.35,214.53-417.6,315.69-331.73,17.71,4.27,635.14-424.01,716.81-294.62,13.57,6.48,730.32-220.09,756.71-117.33-2.48,11.83,583.07,44.11,577.88,170.71-4.73,12.6,585.09,221.53,576.5,340.91-5.57,10.5,380.17,436.34,314.48,417.95-11.18.62,224.19,372.23,127.32,390.2-9.73,1.84,53.94,469.04-9.25,481.65-5.72,2.79-16.36,481.38-80.3,478.88-4.91-.59-125.45,459.06-271.36,365.3-14.29-3.47-470.91,441.94-579.76,338.27-11.42-7.63-580.86,183.42-657.8,129.05-5.23-7.6-689.57,112.38-721.4,80.93-2.94-3.58-732.16,32.31-751.18-40.65,2.23-7.84-615.14-139.62-584.67-180.51,5.84-7.77C1.49,88.32,42.52,25.01,570.98,368.16c-369.27-355.68-316.55-320.34,8.12,4.63-273.65-203.13-287.92-144.52-.82,8.03-314.23-116.01-356.08-64.28-4.38,3.25-438.36-44.8-552.43,15.9-.48,6.78-403.79,68.8-329.25,63.14,6.77,2.95-221.91,186.36-167.83,149.76,7,.22-124.96,105.16-59.07,84.95,6.17-1.98-36.1,90.76-186.83,61.15-10.55-9.4-284.95-235.78-227.89-344.39,3.5-16.86-100.74-459.44-39.73-469.09,6.5-3.89Z"/>
      <path class="cls-1" d="m591.29,349.48c-26.11-263.22,48.51-284.41,15.16.51,124.93-234.46,187.04-181.84,26.61,6.39,367.23-242.41,417.4-163.07,20.39,9.71,413.67-123.1,429.92-60.07-3.7,17.77,325.67,28.56,322.56,106.23-7.09,18.93,331.2,126.21,326,199.45-8.35,15.77,210.54,248.77,170.23,237.53-16.8.94,124.75,208.97,65.33,220.05-14.61,2.78,29,266.82-9.76,274.59-8.59,4.2-9.04,271.95-48.27,270.45-7.37-.88-71.62,258.83-161.19,201.39-21.47-5.19-270.87,251.58-337.71,188.05-17.17-11.45-328.32,99.82-375.55,66.5-7.87-11.41-390.39,63.04-409.94,43.76-4.42-5.38-413.95,17.13-425.66-27.63,3.33-11.78-344.23-81.45-325.56-106.55,8.77-11.68-317.24-164.59-292.1-203.45,10.39-9.77-204.83-201.44-172.47-179.79,12.2,6.94-153.31-112.01-162.03-76.05-1.22,12.06-177.43-65.68-203.08-33.92-6.58,4.88-249.66-24.81-319.6,12.49-.7,10.18-227.97,38.84-182.24,35.33,10.17,4.43-122.34,108.25-89.18,85.76,10.51.32-69.12,58.19-28.71,45.75,9.27-2.99-20.1,51.07-112.58,32.99-15.86-14.11-163.57-140.78-128.62-207.44,5.24-25.33-53.78-263.12-16.35-269.07,9.76-5.85Z"/>
      <path class="cls-1" d="m591.61,353c-23.7-238.98,44.04-258.22,13.77.46,113.42-212.86,169.81-165.09,24.16,5.8,333.4-220.08,378.96-148.05,18.51,8.81,375.57-111.76,390.32-54.54-3.36,16.13,295.67,25.93,292.85,96.45-6.44,17.19,300.7,114.58,295.97,181.08-7.58,14.32,191.15,225.86,154.55,215.65-15.25.86,113.26,189.72,59.31,199.78-13.27,2.52,26.33,242.24-8.86,249.3-7.79,3.81-8.21,246.9-43.83,245.54-6.69-.8-65.03,234.99-146.35,182.84-19.5-4.71-245.92,228.41-306.61,170.73-15.59-10.39-298.08,90.62-340.96,60.38-7.14-10.36-354.44,57.23-372.18,39.73-4.02-4.88-375.82,15.55-386.46-25.08,3.03-10.7-312.52-73.95-295.57-96.74,7.96-10.61-288.02-149.43-265.2-184.71,9.43-8.87-185.97-182.89-156.59-163.23,11.08,6.3-139.19-101.7-147.1-69.05-1.1,10.95-161.09-59.63-184.37-30.8-5.97,4.43-226.66-22.53-290.17,11.34-.64,9.24-206.97,35.27-165.46,32.07,9.24,4.02-111.07,98.28-80.97,77.86,9.55.29-62.75,52.83-26.06,41.54,8.41-2.71-18.25,46.37-102.21,29.95-14.4-12.81-148.5-127.81-116.77-188.34,4.75-23-48.82-238.88-14.84-244.29,8.86-5.31Z"/>
      <path class="cls-1" d="m592.04,357.61c-20.55-207.16,38.18-223.83,11.93.4,98.32-184.52,147.2-143.11,20.94,5.03,289.01-190.78,328.5-128.34,16.05,7.64,325.57-96.88,338.35-47.28-2.91,13.98,256.3,22.48,253.86,83.61-5.58,14.9,260.66,99.33,256.57,156.97-6.57,12.41,165.7,195.79,133.97,186.94-13.22.74,98.18,164.46,51.41,173.18-11.5,2.18,22.82,209.99-7.68,216.1-6.76,3.3-7.12,214.02-37.99,212.85-5.8-.69-56.37,203.7-126.86,158.5-16.9-4.08-213.18,198-265.78,147.99-13.51-9.01-258.39,78.56-295.56,52.34-6.19-8.98-307.24,49.61-322.63,34.44-3.48-4.23-325.78,13.48-335-21.74,2.62-9.27-270.91-64.1-256.22-83.86,6.9-9.19-249.67-129.53-229.89-160.11,8.18-7.69-161.21-158.54-135.74-141.5,9.6,5.46-120.65-88.16-127.52-59.85-.96,9.49-139.64-51.69-159.82-26.69-5.18,3.84-196.48-19.53-251.53,9.83-.55,8.01-179.41,30.57-143.43,27.8,8.01,3.49-96.28,85.19-70.19,67.49,8.27.25-54.4,45.79-22.59,36.01,7.29-2.35-15.82,40.19-88.6,25.96-12.48-11.1-128.73-110.79-101.23-163.26,4.12-19.93-42.32-207.08-12.87-211.76,7.68-4.6Z"/>
      <path class="cls-1" d="m592.51,362.67c-17.09-172.31,31.75-186.18,9.93.33,81.78-153.48,122.44-119.03,17.42,4.19,240.39-158.68,273.24-106.75,13.35,6.36,270.79-80.58,281.43-39.32-2.42,11.63,213.18,18.7,211.15,69.54-4.64,12.39,216.81,82.62,213.4,130.56-5.47,10.33,137.82,162.85,111.44,155.49-10.99.62,81.66,136.79,42.76,144.05-9.57,1.82,18.98,174.66-6.39,179.75-5.62,2.75-5.92,178.02-31.6,177.04-4.83-.57-46.88,169.43-105.52,131.83-14.06-3.4-177.32,164.69-221.07,123.1-11.24-7.49-214.92,65.34-245.84,43.53-5.15-7.47-255.56,41.27-268.35,28.65-2.9-3.52-270.98,11.21-278.64-18.08,2.18-7.71-225.33-53.32-213.11-69.75,5.74-7.65-207.67-107.74-191.21-133.18,6.8-6.4-134.09-131.87-112.9-117.69,7.99,4.54-100.36-73.33-106.06-49.78-.8,7.89-116.15-42.99-132.94-22.2-4.31,3.2-163.43-16.24-209.22,8.18-.46,6.66-149.23,25.43-119.3,23.13,6.66,2.9-80.08,70.86-58.38,56.14,6.88.21-45.25,38.09-18.79,29.95,6.07-1.96-13.16,33.43-73.7,21.59-10.38-9.24-107.07-92.15-84.2-135.79,3.43-16.58-35.2-172.24-10.7-176.14,6.39-3.83Z"/>
      <path class="cls-1" d="m592.87,366.63c-14.38-145.03,26.73-156.71,8.36.28,68.83-129.19,103.06-100.19,14.66,3.52,202.34-133.56,229.99-89.85,11.24,5.35,227.93-67.83,236.88-33.1-2.04,9.79,179.44,15.74,177.73,58.53-3.91,10.43,182.49,69.54,179.62,109.9-4.6,8.69,116.01,137.07,93.8,130.88-9.25.52,68.74,115.14,36,121.24-8.05,1.53,15.98,147.01-5.38,151.3-4.73,2.31-4.98,149.84-26.6,149.02-4.06-.48-39.46,142.62-88.82,110.96-11.83-2.86-149.25,138.62-186.08,103.61-9.46-6.31-180.9,55-206.93,36.64-4.34-6.29-215.1,34.74-225.88,24.11-2.44-2.96-228.08,9.44-234.54-15.22,1.84-6.49-189.67-44.88-179.38-58.71,4.83-6.44-174.8-90.69-160.95-112.1,5.73-5.39-112.86-110.99-95.03-99.06,6.72,3.83-84.47-61.72-89.28-41.9-.67,6.65-97.76-36.19-111.89-18.69-3.62,2.69-137.56-13.67-176.1,6.88-.39,5.61-125.61,21.4-100.41,19.47,5.6,2.44-67.41,59.64-49.14,47.25,5.79.18-38.09,32.06-15.82,25.21,5.11-1.65-11.07,28.14-62.03,18.18-8.74-7.77-90.12-77.57-70.87-114.3,2.88-13.96-29.63-144.98-9.01-148.26,5.38-3.22Z"/>
      <path class="cls-1" d="m593.26,370.81c-11.53-116.24,21.42-125.6,6.7.22,55.17-103.54,82.6-80.3,11.75,2.82,162.17-107.05,184.33-72.02,9.01,4.29,182.69-54.36,189.86-26.53-1.64,7.85,143.82,12.61,142.45,46.91-3.13,8.36,146.27,55.74,143.97,88.08-3.69,6.97,92.98,109.86,75.18,104.9-7.42.42,55.09,92.29,28.85,97.18-6.45,1.23,12.81,117.83-4.31,121.26-3.79,1.85-3.99,120.1-21.32,119.44-3.26-.39-31.63,114.31-71.19,88.94-9.48-2.29-119.62,111.1-149.14,83.04-7.58-5.05-144.99,44.08-165.85,29.37-3.48-5.04-172.41,27.84-181.04,19.33-1.95-2.38-182.81,7.56-187.98-12.2,1.47-5.2-152.02-35.97-143.77-47.05,3.87-5.16-140.1-72.68-129-89.85,4.59-4.32-90.46-88.96-76.17-79.4,5.39,3.07-67.7-49.47-71.55-33.59-.54,5.33-78.36-29.01-89.68-14.98-2.9,2.16-110.25-10.96-141.14,5.52-.31,4.5-100.67,17.15-80.48,15.6,4.49,1.96-54.03,47.8-39.38,37.87,4.64.14-30.53,25.7-12.68,20.2,4.09-1.32-8.88,22.55-49.72,14.57-7-6.23-72.23-62.17-56.8-91.61,2.31-11.19-23.75-116.2-7.22-118.83,4.31-2.58Z"/>
      <path class="cls-1" d="m593.54,373.89c-9.42-95.03,17.51-102.68,5.47.18,45.1-84.65,67.53-65.65,9.61,2.31,132.58-87.52,150.69-58.87,7.36,3.51,149.35-44.44,155.21-21.69-1.34,6.41,117.58,10.31,116.45,38.35-2.56,6.84,119.57,45.56,117.7,72.01-3.02,5.69,76.01,89.81,61.46,85.76-6.06.34,45.04,75.44,23.59,79.44-5.28,1,10.47,96.33-3.52,99.13-3.1,1.52-3.27,98.18-17.43,97.64-2.66-.32-25.86,93.45-58.2,72.71-7.75-1.87-97.79,90.83-121.92,67.89-6.2-4.13-118.53,36.04-135.58,24.01-2.84-4.12-140.94,22.76-148,15.8-1.6-1.94-149.45,6.18-153.68-9.97,1.2-4.25-124.28-29.41-117.54-38.47,3.16-4.22-114.53-59.42-105.46-73.45,3.75-3.53-73.95-72.73-62.27-64.91,4.41,2.51-55.35-40.44-58.5-27.46-.44,4.35-64.06-23.71-73.32-12.25-2.37,1.76-90.13-8.96-115.39,4.51-.25,3.68-82.3,14.02-65.8,12.75,3.67,1.6-44.17,39.08-32.2,30.96,3.8.12-24.95,21.01-10.36,16.52,3.35-1.08-7.26,18.44-40.65,11.91-5.73-5.09-59.05-50.83-46.44-74.89,1.89-9.14-19.41-94.99-5.9-97.14,3.52-2.11Z"/>
      <path class="cls-1" d="m593.93,378.06c-6.57-66.24,12.21-71.57,3.82.13,31.44-59,47.07-45.76,6.7,1.61,92.41-61,105.04-41.04,5.13,2.44,104.1-30.98,108.19-15.12-.93,4.47,81.96,7.19,81.17,26.73-1.78,4.76,83.35,31.76,82.04,50.19-2.1,3.97,52.98,62.61,42.84,59.78-4.23.24,31.39,52.59,16.44,55.38-3.68.7,7.3,67.15-2.46,69.1-2.16,1.06-2.28,68.44-12.15,68.06-1.85-.22-18.02,65.14-40.57,50.68-5.4-1.31-68.17,63.31-84.99,47.32-4.32-2.88-82.62,25.12-94.51,16.74-1.98-2.87-98.24,15.86-103.16,11.01-1.11-1.35-104.17,4.31-107.12-6.95.84-2.97-86.63-20.5-81.93-26.81,2.21-2.94-79.84-41.42-73.51-51.2,2.62-2.46-51.55-50.69-43.4-45.25,3.07,1.75-38.58-28.19-40.77-19.14-.31,3.04-44.65-16.53-51.11-8.54-1.66,1.23-62.83-6.24-80.43,3.14-.18,2.56-57.37,9.78-45.86,8.89,2.56,1.11-30.79,27.24-22.44,21.58,2.65.08-17.39,14.64-7.22,11.51,2.33-.75-5.06,12.85-28.33,8.3-3.99-3.55-41.16-35.43-32.37-52.2,1.32-6.37-13.53-66.21-4.11-67.71,2.46-1.47Z"/>
    </g>
  </g>
</svg>