<?xml version="1.0" encoding="UTF-8"?>
<svg id="Layer_2" data-name="Layer 2" xmlns="http://www.w3.org/2000/svg" viewBox="0 0 647.53 410.17">
  <defs>
    <style>
      .cls-1 {
        fill: #009962;
      }
    </style>
  </defs>
  <g id="images">
    <path class="cls-1" d="m456.68,195.8c3.17-5.99,5.65-12.35,7.15-18.98,1.29-5.72,2.88-12.89.91-18.64-3.88-11.3-17.59-9.52-26.17-5.56-5.49,2.53-11.05,5.99-17.35,5-4.93-.77-9.37-3.5-13.61-5.98-8.15-4.77-17.47-9.99-26.92-5.43-9.27,4.47-12.6,15.79-13.76,25.21-1.35,10.98-1.25,24.52-12.72,30.11-9.81,4.78-21.42,3.72-30.56,10.3-7.6,5.47-12.67,14.11-14.28,23.28-1.67,9.5.21,19.19,6.13,26.9,3.64,4.74,8.44,8.76,11.05,14.21,2.15,4.48,2.38,9.61,2.21,14.5-.33,9.56-2.88,19.43-.74,28.93,2.34,10.41,11.81,16.38,22.24,15.59,12.91-.99,22.66-10.35,35.08-12.74,6.12-1.18,11.01.86,11.95,7.32.73,5.07-.24,10.32-.39,15.4-.62,20.39,19.78,37.64,39.86,33.69,18.78-3.7,28.75-22.84,42.78-33.81,8.23-6.43,17.05-8.06,27.05-4.81,6.06,1.97,11.82,4.86,18.07,6.23,4.91,1.08,9.96,1.3,14.95.71,19.86-2.35,38.3-16.84,44.09-36.19,3.49-11.68.86-23.68.71-35.58-.09-6.4.68-12.85,4.09-18.41,3.15-5.15,8.06-8.97,12.96-12.35,10.06-6.94,20.22-13.47,28.6-22.49,7.92-8.52,14.36-18.86,16.55-30.42,2-10.58.92-21.99-4.44-31.48s-14.8-14.79-24.41-19.49-19.7-9.91-23.12-21.15c-3.47-11.41-1.46-23.79-5.44-35.11-7.08-20.16-28.97-28.55-48.62-30.44-10.23-.98-24.85,2.26-32.61-6.22-3.83-4.18-5.21-10.11-7.44-15.19s-5.22-9.11-9.52-12.35c-20.56-15.51-46.26-3.31-66.99,4.64-11.4,4.37-24.05,7.98-36.27,5.02-5.79-1.4-10.69-4.32-14.78-8.64-3.79-4-6.88-8.61-10.71-12.57-8.72-9.01-20.48-10.85-32.18-6.84-12.86,4.41-22.63,14.49-35.15,19.56s-26.87,5.3-40.09,2.35c-12.49-2.79-25.32-7.92-38.3-5.4-23.4,4.53-25.49,31.67-39.81,46.31-16.49,16.85-41.14,16.1-62.87,16.97-9.82.4-20.2,1.42-29,6.16-9.83,5.31-14.59,14.95-15.23,25.85-.72,12.28,2.2,24.63-4.3,35.87-5.5,9.51-14.73,16.29-23.42,22.68-9.54,7.02-18.82,14.08-26.28,23.4s-13.29,19.99-15.08,31.79c-1.72,11.32.75,22.41,6.59,32.21s13.65,17.42,20.91,25.71,13.1,17.15,16.93,27.64c3.6,9.88,6.22,20.27,11.41,29.49,5.03,8.92,12.76,15.79,22.7,18.66s20.95,1.84,31.28.69c10.38-1.16,21.28-2.89,31.64-.73,10.44,2.18,17.85,8.84,24.18,17.08s11.24,16.69,18.92,23.14c7.5,6.3,16.84,9.44,26.64,8.6,20.72-1.78,37.77-15.98,57.89-20.09,4.99-1.02,10.19-1.27,15.2-.31,6.23,1.2,12.25,3.63,18.71,2.95,9.86-1.05,17.39-8.05,22.24-16.3,5.24-8.92,7.94-19.34,8.66-29.61.38-5.49.09-11.26-1.75-16.49-.83-2.36-1.91-4.63-3.39-6.65-1.24-1.7-3.13-3.05-4.04-4.95-1.71-3.55-1.29-8.22-1.1-12.02.23-4.75.8-9.48.92-14.24.21-8.49-2.56-17.13-10.37-21.62-5.89-3.39-12.16-2.42-18.56-1.82-.81.08-2.32.18-2.33.05,0-.13.93.99.91.98.17.09-.11.27.15-.59,1.7-5.48,4.71-10.64,7.2-15.79,5.19-10.72,10.35-22.44,8.91-34.64-1.16-9.85-6.32-18.9-13.63-25.52s-16.72-11.05-26.65-11.83c-11.03-.87-20.66,3.96-29.76,9.66-9.73,6.1-19.48,12.81-31.55,11.28s-22.27-7.9-34.12-9.06c-10.9-1.07-21.5,3.89-26.91,13.57-5.47,9.78-3.77,21.88,3.54,30.24,8.2,9.38,20.71,8.64,31.47,12.8,4.24,1.64,7.44,4.76,8.93,9.11,1.26,3.67,1.15,7.68-2.75,9.45-3.51,1.59-.47,6.76,3.03,5.18,8.3-3.76,7.45-14.31,3.32-20.92-5.95-9.52-17.28-10.06-27.14-12.71-5.85-1.57-11.05-4.28-14.36-9.53-2.97-4.7-4.16-10.48-2.74-15.91,2.91-11.12,13.79-16.7,24.7-15.16s21.59,7.63,33.04,8.94,20.61-3.34,29.71-9.02c9-5.62,18.09-12.12,29.15-12.02,9.44.09,18.66,4.33,25.48,10.75s11.77,15.83,11.49,25.69c-.34,12.37-6.94,23.52-12.1,34.4-1.85,3.9-8.44,14.8-.41,16.54,2.25.49,4.67-.11,6.91-.37,2.87-.33,5.87-.58,8.7.12,3.82.93,6.62,3.44,8.58,6.79,2.1,3.6,2.29,7.25,2.16,11.33-.26,8.38-2.33,17.38-.21,25.66,1.11,4.31,4.34,6.41,6.48,10.09,2.78,4.76,3.37,10.44,3.21,15.86-.28,9.97-2.88,20.34-7.96,28.96-5.28,8.96-13.51,15.03-24.27,12.96-5.63-1.08-10.99-2.98-16.77-3.16-4.69-.15-9.43.53-13.98,1.66-9.88,2.45-19.1,7.02-28.34,11.17-8.52,3.82-17.6,7.82-27.06,8.25-21.5.99-30.53-19.34-42.43-33.41-6.39-7.55-14.34-13.26-24.15-15.3s-20.1-.97-30.05.15c-10.11,1.14-20.78,2.75-30.84.42s-17.06-8.74-21.75-17.54-7.28-19.39-10.97-29.03-9.09-18.14-15.85-26.07c-13.92-16.33-31.99-32.36-27.47-56.12,2.23-11.75,8.65-22.36,16.56-31.17,7.49-8.34,16.56-14.6,25.46-21.3,8.26-6.21,16.59-12.97,21.83-22.06,5.89-10.22,5.28-21.18,5.05-32.56-.13-6.14.04-12.61,3.1-18.12,2.28-4.11,5.77-7.14,9.93-9.26,8.59-4.37,18.89-4.84,28.33-5.08,20.99-.54,43.25-1.28,60.34-15.24,8.22-6.72,12.88-16.02,17.61-25.29,4.4-8.63,9.51-18.28,19.21-21.76,12.38-4.45,26,1.23,38.1,4.05s24.84,3.37,36.96.29c13.04-3.31,22.95-11.71,34.42-18.2,10.5-5.94,23.59-8.81,33.19.28,7.92,7.5,12.81,17.33,23.24,21.91s21.72,3.96,32.27,1.42c22.27-5.37,44.94-22.89,68.61-13.62,4.74,1.86,9.1,4.97,11.9,9.27,3.01,4.63,4.34,10.08,6.74,15.02,5.1,10.51,15.02,13.55,26.01,13.86s20.85.46,31.13,3.73c9,2.87,17.94,7.88,23.3,15.89,6.5,9.72,5.76,21.5,7.11,32.62,1.3,10.68,5.14,19.8,13.96,26.33,8.32,6.16,18.5,9.11,26.92,15.1s13.17,16.16,13.61,26.63c1.02,24.36-17.68,42.61-36.48,55.13-9.33,6.21-19.42,12.43-23.89,23.24-4.67,11.29-2.08,23.7-1.64,35.47.4,10.8-2.05,20.74-8.79,29.36-5.9,7.55-14.2,13.34-23.33,16.26-10.48,3.35-20.32,2.17-30.46-1.69-9.95-3.8-20.04-7.46-30.54-3.45-16.71,6.38-25.25,23.8-39.52,33.58-8.01,5.49-17.22,7.3-26.37,3.42-8.63-3.66-15.91-11.65-17.38-21.08s3.22-19.91-2.37-28.28c-6.83-10.22-20.98-4.74-29.68-.51-9.4,4.57-23.89,13.17-33.34,4-6.4-6.22-4.52-16.97-3.73-24.9.96-9.58,2-19.91-2.94-28.66-2.76-4.88-7.01-8.65-10.45-13.02-2.89-3.67-4.81-7.9-5.53-12.53-1.39-8.87,1.44-18.64,7.38-25.38,7.16-8.12,17.15-8.85,27.02-11.44,5.15-1.36,10.23-3.45,14.05-7.27s5.94-8.8,7.14-13.94c2.33-9.98,1.13-20.96,6.27-30.17,2.34-4.2,6.06-7.48,11.05-7.73,4.65-.23,9.01,2.08,12.94,4.29,8.15,4.59,16.49,10.45,26.35,8.77,5.96-1.01,10.96-4.47,16.51-6.62,3.92-1.52,9.72-2.6,13.28.34,4.45,3.68,2.23,12.12,1.22,16.91-1.37,6.53-3.67,12.77-6.79,18.67-1.81,3.41,3.37,6.45,5.18,3.03h0Z"/>
  </g>
</svg>