<?xml version="1.0" encoding="UTF-8"?>
<svg id="Layer_2" data-name="Layer 2" xmlns="http://www.w3.org/2000/svg" viewBox="0 0 604.51 582.93">
  <defs>
    <style>
      .cls-1 {
        fill: #5739ba;
      }
    </style>
  </defs>
  <g id="images">
    <path class="cls-1" d="m604.51,250.95c-.14-8.64-13.17-12.74-27.52,1.63-19.98,20-50.65,7.5-61.41,4.56-3.62-.99-6.75-3.1-7.11-6.84-5.36-57.07-42.76-160.77-70.12-198.64-52.34-72.43-88.93-59.55-91.45-17.27-4.29,71.86,26.44,130.28,41.98,151.28,14.93,20.18,33.26,41.58,88.54,80.13,7.6,5.3,14.17,11.88,14.92,21.1,2.22,27.3-1.47,51.96-6.28,84.14-5.88,39.32-26.88,26.13-58.62-1.59-31.75-27.72-67.17-107.67-62.61-128.52,4.55-20.85-.52-73.3-3.83-89.58S323.22.71,254.07,11.91c-69.15,11.19-43.05,134.26-43.05,134.26,0,0-64.82-36.97-80.8,12.32-15.99,49.29,11.71,85.69,25.33,118.64,11.07,26.78,26.92,60.02,34.25,135.77,7.34,75.75-18.56,104.9-45.65,132.43-27.09,27.53-40.24-18.94-45.16-34.03-4.92-15.09-19.89-58.97-63.64-64.07-43.74-5.11-43.36,59.56-18.07,92.05,25.29,32.49,63.95,47.61,94.1,42.78,18.44-2.95,91.26-15.06,101.32-139.9,10.05-124.83-67.07-213.89-66.6-255.46.47-41.56,25.96-39.19,55.8-27.55,29.84,11.64,14.38,43.07,108.73,108.14,35.08,24.2,64.78,104.44,140.83,143.09,76.05,38.65,60.71-132.33,60.71-132.33,62.74,17.28,92.49-18.47,92.35-27.11Zm-229.36-146.28c-26.38-111.62,23.69-74.67,51.38-26.77,26.8,46.36,56.72,139.13,60.73,169.88,0,0-85.74-31.49-112.11-143.1ZM97.11,561.18c-5.25-3.61-6.48,1.26-28.71-8.53-21.69-9.55-30.79-19.68-34.38-24.52-19.71-26.63-24.22-73.25,7.03-61.4,31.25,11.85,39.13,64.71,43.07,76.79,3.65,11.2,11.83,16.9,12.99,17.66.05.03.1.06.15.1,0,0-.06-.04-.15-.1Zm207.12-327.86c-85.25-54.13-75.39-139.05-75.39-139.05,3.98-55.4,19.91-65.93,42.17-61.17,22.26,4.76,48.19,61.76,56.69,81.7,8.5,19.94,40.12,158.9-23.47,118.52Z"/>
  </g>
</svg>