<?xml version="1.0" encoding="UTF-8"?>
<svg id="Layer_2" data-name="Layer 2" xmlns="http://www.w3.org/2000/svg" viewBox="0 0 983.18 680.21">
  <defs>
    <style>
      .cls-1 {
        fill: #8052db;
      }

      .cls-2 {
        fill: #18186d;
      }
    </style>
  </defs>
  <g id="images">
    <g>
      <path class="cls-1" d="m481.71,348.54c8,43,31,82,66,110,1,1,2,0,3,1,17,15,37,24,58,31h3c-36-18-68-37-93-70-16-22-28-45-34-71,2,3,2,6,3,9,8,18,17,35,31,49,1,1,1,3,2,4,2,2,4,3,6,5,13,15,28,25,45,34,23,13,46,22,71,24-6-2-12-3-18-4-63-17-117-61-139-122,6,15,14,28,25,40,1,1,1,3,2,4,18,20,38,35,62,47,4,1,7,3,11,5,7,3,13,4,20,7,13,4,26,6,39,7-66-10-131-48-159-111,24,50,71,89,126,103-9,0-16-5-24-7-4-1-8-4-12-6-10-3-19-10-29-16-17-12-29-25-42-41-1-2-3-5-5-7-3-4-4-8-6-12l-3-3c-2-4-4-9-6-13,21,38,60,73,106,74v-2l-3-3c-26-12-49-25-72-43-11-9-21-18-29-30,22,21,49,34,77,45-22-2-41-14-60-27-1-1-1-2-2-3-7-5-12-10-18-16,6,11,11,23,19,34,1,2,1,3,2,5,1,1,2,1,2,2,1,2,2,4,3,7,0,1,2,1,2,2v4h-2c-17-14-24-35-29-55-3,9-3,20-6,29-2-5,0-9,1-14,0-6,1-12,4-18-14-10-30-19-48-19,9,4,19,6,28,10,5,3,11,5,16,7-31,0-64,4-90,23,28-11,57-21,88-21h-4c-5,1-10,3-15,3-8,1-16,6-24,8-12,4-23,10-34,16-19,12-35,25-52,40-1,0-2,2-4,1,1-2,2-3,3-5,0-1,1-2,1-3,18-23,41-38,68-49,5-2,10-3,15-5,14-3,27-5,41-5-44,8-81,33-109,69-1,1,0,2-1,3-1,2-3,2-4,4-8,14-16,27-21,42-1,5-3,8-3,13,10-15,15-32,26-47,3-4,6-7,9-11,1-1,0-2,1-3,14-15,27-31,45-41l3-3c18-9,35-20,54-24-35,14-63,39-83,72-14,25-25,51-25,79,2-6,4-12,5-19,1-4,3-8,4-12l3-6c1-2,1-3,1-5,18-46,52-85,96-107-26,16-48,38-63,65-9,17-16,32-20,51-1,7-3,14-4,21s-1,14-2,22c0,3,0,6,1,9,1-65,31-131,88-167-29,21-52,50-66,83-15,37-18,76-16,115-6-26-6-53,0-80,2-6,3-13,5-19l3-6c13-38,38-71,71-92-23,12-41,28-57,49-4,6-7,10-11,16-35,61-37,137-8,199,0-9-5-17-6-27-1-4-2-7-3-11v-5c-3-7-3-15-3-23-2-22-3-43,3-65v-4c6-22,11-42,24-62,2-3,3-7,6-11,2-2,3-4,5-7,14-18,29-33,48-45-42,41-60,101-51,160,3,18,7,35,14,52,8,18,16,35,29,50,1,1,1,3,2,4,3,3,5,6,7,9,8,8,15,20,26,21,0,1-1-2-1-3-32-45-54-89-60-142-1-13-2-26-1-39,2-14,3-28,7-42,5-18,12-34,22-50,3-5,6-10,10-14-23,37-30,81-24,124,12,82,70,147,140,185-6-5-13-8-20-13-3-1-6-3-9-5-2-1-2-3-4-4-3-1-5-3-7-5-1-1-3-1-4-2,0-1-1-1-1-2-86-64-126-183-72-276-42,84-11,188,63,247,1,1,1,2,2,3,5,4,9,7,14,11,10,6,18,12,28,18,11,6,22,11,33,16,17,7,34,12,52,16,20,4,40,7,60,6-1-1,2-1,1-2-40-10-78-19-115-37-20-11-37-22-55-36-26-21-46-44-61-73-4-7-8-12-10-19l-9-24c-5-14-7-28-8-42-1-26,0-53,10-78-6,34-3,71,11,103,1,2,0,3,1,5,3,7,6,13,10,20l3,3c55,95,170,133,272,119-13-3-27,0-40-1-10-1-20-2-31-3l-18-3c-2-1-3-2-5-2-62-11-116-42-156-91-35-43-50-97-43-150-3,61,26,118,72,158,1,1,3,1,4,2,20,18,43,30,68,40l27,9h4c4,1,9,3,13,4,9,1,17,2,26,4,9,1,18,1,27,2,13,1,26-1,39-2,20-1,39-6,58-10-10,1-19,3-29,5-14,2-28,3-42,4-16,1-33-1-49-2-32-4-63-12-92-26-33-16-61-38-84-68-1-2-3-5-5-7-3-5-6-10-9-16l-3-3c-15-29-23-60-23-92,2,13,2,26,6,38l3,9c0,1,1,3,2,4,0,2,0,3,1,5,7,14,13,27,21,40,9,13,19,23,29,34,1,1,3,1,4,2,18,19,41,31,64,42,14,6,28,10,43,14,17,3,33,6,50,7,34,2,66-2,100-10,14-4,27-8,40-13,16-6,31-13,46-22,2-1,4-2,5-4h2c2-2,5-3,6-5-42,22-85,38-133,45h-7c-30,5-58,3-88-1l-27-6c-38-11-73-29-102-56-34-32-56-74-61-120,11,47,37,88,79,117,30,20,60,33,95,39h5c112,18,219-31,294-111,1-1,0-1-1-1-1,2-3,2-4,4-5,3-9,7-13,11h-2c-89,78-214,116-325,72-58-22-108-70-123-132,17,50,57,88,104,110,6,3,11,4,17,7,82,30,171,13,245-34,2-1,3-1,5-2,20-14,39-26,55-44-1,2-3,3-5,5-13,11-26,20-40,30-16,10-31,18-47,26-30,13-60,22-92,27-9,1-17,1-26,2-12,1-23-1-35-1-14-1-26-4-40-7-1,0-2-2-3-2-62-16-115-61-136-121,28,60,90,99,156,107,79,9,156-18,217-70,1-1,3-1,4-2,10-8,19-16,27-26,1-2,4-3,4-6-22,19-43,37-69,52-29,18-59,30-92,38s-65,10-99,3h-5c-56-10-103-40-134-88-2-3-3-6-5-9,44,61,123,86,197,74,87-15,161-70,203-144-38,47-83,89-139,114-23,10-46,17-71,20-23,2-45,3-68-1-14-3-28-6-41-11-31-12-58-31-79-57,34,36,82,56,131,59,82,3,163-39,213-103-49,54-115,95-189,99-57,3-115-16-154-58,53,50,134,59,201,35,55-20,102-57,133-105-47,60-115,107-193,113-50,3-101-11-139-44,29,22,65,31,101,33,29,1,58-6,85-16,10-5,20-9,30-15,15-10,29-18,42-30,7-8,15-13,21-21s12-15,18-22c5-6,7-12,12-18v-2c7-10,14-20,16-32-2,4-5,7-6,11-1,0-2,0-2,1-1,5-6,8-8,12,0,2-1,4-2,5-3,3-5,7-8,11,0,0-1,1-2,1-33,45-75,77-126,95-56,19-120,16-170-17,19,12,42,16,64,19,28,3,56,0,83-11,3-1,7-1,11-3,2-1,4-2,7-3,2-1,4-3,6-4,1-1,3,0,4-1,25-13,47-29,67-50,15-17,28-34,38-54l-3,3v2c-2,1-3,3-4,4-8,13-17,24-27,35l-6,6c-62,66-161,93-242,54,32,11,65,13,99,6,53-12,96-42,127-87,2-4,4-7,7-11,1-2,2-4,2-7-31,37-67,72-114,88-1,0-2,2-3,2-38,13-79,15-118,5,36,5,73-1,106-17s58-40,81-70c1-1,0-2,1-3,16-22,26-45,33-70-22,56-58,109-114,137-5,3-10,5-15,7-28,11-59,17-89,13,74,1,141-49,173-115,1-4,3-7,5-11,10-26,19-53,18-81-1,7-3,14-5,21v4c-10,36-23,68-45,99-1,1-2,1-3,2-5,9-12,16-19,23-9,8-17,16-28,22l-3,3c-12,7-23,13-35,18-19,7-39,13-59,12,58-7,110-46,138-98,3-6,6-11,9-17,6-16,12-32,15-50,1-2,1-4,2-6,2-9,2-19,3-28,0-2,0-5-1-7-7,57-28,114-72,155-2,2-3,4-5,6-27,22-57,37-90,43,47-15,86-50,107-95,2-5,4-9,6-13,5-14,8-27,12-42v-5c3-7,2-13,2-20,2-16,3-32-3-47-2,19-1,38-5,58-9,41-22,78-51,109-1,1-1,3-2,4-20,20-41,37-67,47,19-11,36-25,50-44,1-2,3-5,5-7,1-1,1-3,2-4l3-3c32-52,39-112,23-169v-3c0-1-2-3-2-4,1-3-1-5-1-7-6-16-11-32-21-46,3,10,7,20,11,30,16,50,20,103,3,154-5,16-12,30-21,45-11,18-25,31-40,45-4,3-9,5-12,8,3-2,5-4,7-7,1-1,3-2,4-3,74-83,57-212-19-287-1-1-1,0-1,1,4,5,6,11,11,16v2c3,3,5,6,7,9,3,5,5,9,8,14,26,48,38,100,28,155-7,38-24,71-49,98,22-33,29-74,27-114-2-21-7-41-15-60-3-7-6-14-10-21-6-10-11-19-18-28-12-16-23-29-38-41-8-6-15-13-23-17-3-1-6-5-10-4,30,27,60,56,78,93,1,2,3,4,4,6,28,57,31,124,3,180,11-29,15-60,11-91-3-20-8-38-16-56-9-19-20-36-33-53-1-1-2-1-3-2-48-57-118-87-189-95,10,3,20,5,30,7,11,3,22,6,33,10,18,7,36,15,53,25,38,22,69,51,92,89,17,30,28,61,29,95,1,22-2,45-9,66,9-47-1-96-27-138-9-14-18-25-29-37s-23-21-37-31c-26-17-51-29-80-37-40-10-80-15-120-9,23,2,45,0,68,4l18,3c2,0,3,1,5,2,62,11,115,42,155,90,1,2,3,5,5,7s3,5,4,7l3,3c2,4,4,7,6,11l3,3c8,16,14,31,19,49,6,25,6,49,3,73,1-43-13-84-40-120-4-4-7-9-11-13-35-38-78-60-128-72-52-12-102-9-153,6-3,1-7,1-10,3,59-12,121-16,179,4,4,1,9,2,14,4,1,1,2,2,3,2,11,3,22,9,32,15,2,1,4,2,7,4,59,35,101,96,102,164-6-64-52-118-109-147-53-26-111-34-170-22h-4c-2,1-5,2-7,2h-4c-48,12-89,30-131,59l-1,2c-16,10-29,22-41,35,20-12,37-27,58-39,3-2,7-3,10-5,14-8,27-15,42-20,2-1,3-2,5-3,24-9,48-16,74-20,50-8,100-3,146,15,25,11,49,24,69,43,5,4,8,9,13,13,4,5,8,9,11,15,1,3,4,5,6,7,13,20,21,40,27,62-23-59-76-100-138-117-36-9-71-9-107-4-43,7-81,23-119,46-28,18-52,38-73,62-9,10-20,19-24,31,23-25,45-48,75-68,2-1,2-3,4-4s3-1,5-3c1-1,2,0,3-1,2-1,2-3,4-4,5-2,9-5,13-8,15-9,30-15,45-22,4-2,9-3,13-4,64-24,136-26,199,4,23,11,42,25,60,43,6,7,11,14,17,21,7,11,13,21,18,32-15-24-35-43-60-59-13-8-27-14-41-19-11-3-22-5-34-8-9-2-17-2-26-3-45-3-89,10-130,29-4,2-8,5-13,7-22,13-41,27-60,44-23,21-42,43-58,70-1,2-3,3-4,5v2c-5,5-7,12-10,18,3-1,4-4,6-6,35-52,76-91,129-122,1-1,3,0,4-1,48-26,100-38,154-32,4,1,8,2,13,2,17,3,32,7,47,15,2,1,3,0,5,1,24,13,46,27,63,49,1,1,3,2,4,3,2,3,4,5,6,8-31-30-70-48-113-54-99-12-188,41-247,121v2c-6,8-12,15-16,24,43-67,106-121,188-139,59-13,118-3,166,34,4,4,8,7,13,11l9,9c-41-29-92-39-143-30-12,2-23,5-34,9-8,3-16,6-24,10-6,3-12,7-18,10-7,4-13,9-20,14-25,17-45,38-61,64l-2,1c-3,6-7,10-9,16-1,2-2,4-4,5,1,2-1,3-1,4-2,2-3,4-4,6-1,4-3,7-4,11,2,1,3-2,4-3,29-44,61-80,106-107,25-15,50-24,79-29,46-8,92,0,131,24-50-17-104-10-151,15-57,32-99,84-115,147-1,1,0-2,1-1,32-77,96-146,184-159,28-4,56-3,83,6-33-3-67,3-97,18-1,1-3,0-4,1-30,15-53,37-74,63-1,1,0,2-1,3-19,25-32,53-38,82,18-60,57-113,113-144,1-1,3,0,4-1,30-16,64-23,97-20-31,1-60,11-87,27-5,3-8,6-13,9-12,10-23,19-33,31-8,10-15,19-21,29-14,26-27,53-28,82,15-64,53-124,113-154,4-2,7-5,11-6,1,0,3,0,4-1,18-10,38-12,57-15-66,8-124,54-151,114,28-61,87-107,154-115-28,0-57,5-82,19-2,1-4,1-6,2-8,5-14,9-22,14,0,0-1,1-1,2-8,5-14,11-20,18,3,1,5-3,7-5,28-21,56-38,91-46h4c11-3,22-4,33-4-30-7-62-9-93-7-3,0-7-2-10-1v-2c34-14,72-7,105,7-15-7-30-12-46-16-5-1-11-1-16-2-1,0-3-1-4,1,24,2,48,8,70,19,1-5,3-9,4-13,0-2,1-4,1-6,3-10,7-20,10-30,1,1,1-2,2-1,1,16-7,31-13,45,1-11,1-22,0-34-1-8-3-17-5-25-7-24-18-46-38-61l-1,1c1,3,3,6,5,9,20,33,34,68,37,106-2-23-8-46-19-67-8-17-18-33-31-46-1-1,0-2-1-3-6-7-13-13-20-20-11-10-24-17-34-27,62,24,104,91,105,157,0-20-6-38-13-57-2-5-5-10-8-15-4-11-12-20-19-30-1-1-2-1-3-2-33-40-79-65-129-72,50,13,95,38,129,78,1,1,1,3,2,4,13,14,20,30,27,47,7,15,12,30,12,46-1-3-1-7-2-10l-3-9c0-1-1-3-2-4,0-2,0-3-1-5-11-24-25-45-44-64-17-16-36-29-57-38-31-12-64-22-98-18,32,3,62,10,92,22,1,0,1,2,2,2,15,6,28,14,42,24,31,23,52,52,65,87,1,3,1,6,3,9,1,2,1,3,1,5-27-76-107-125-186-126,50,4,98,21,136,55,6,6,12,11,17,17,13,18,26,35,32,57-22-48-66-84-120-95-2,0-3-1-5-2h-5c-5-2-10-2-15-2-9-1-19-4-28,1,13,3,26,5,39,7,1,0,3,2,4,2,9,1,17,5,26,7,2,1,3,2,5,3,40,15,74,43,97,79"/>
      <path class="cls-2" d="m468.69,346.13c2.43,14.59,7.28,28.41,13.31,41.87,5.83,13.01,12.6,26.42,21.11,37.9,8.48,11.44,18.69,21.16,28.89,31.03,2.39,2.32,4.96,4.21,7.89,5.77.73.39,1.46.77,2.19,1.16-.34-.18-1.65-1.61-.35-.21s2.74,2.54,4.16,3.71c5.67,4.66,11.74,8.71,18.12,12.34,6.94,3.95,14.34,7.3,21.14,10.35,8.39,3.77,17.28,7.46,26.56,8s17.53-12.11,11.66-20.31c-2.29-3.2-4.65-5.57-8.14-7.34-1.15-.9-2.46-1.52-3.93-1.86l-3.59-.48c2.8.87,3.07.82.81-.16l-1.56-.78c-6.41-3.22-12.74-6.59-18.94-10.19-5.58-3.24-11.26-6.49-16.26-10.49-6.35-5.09-11.27-11.57-20.05-11.9l6.81,1.84c1.64.79-.64-.41-1.19-.89-.96-.84-1.92-1.7-2.87-2.55-1.89-1.71-3.76-3.45-5.6-5.22-3.82-3.68-7.52-7.5-11.07-11.44-7-7.78-11.73-13.86-17.42-22.66-11.24-17.34-18.12-33.48-22.64-53.65l-24.67,10.4c1.19,2.11,2.14,7.02,3.39,9.97,1.58,3.74,3.24,7.45,5.05,11.09,3.07,6.17,6.51,12.16,10.29,17.94,7.97,12.18,17.29,23.61,27.71,33.77,20.97,20.45,46.08,35.97,73.34,46.52,14.91,5.77,30.45,9.74,46.28,11.92,6.67.92,13.2-1.04,15.93-7.82,2.29-5.7.68-14.03-5.52-16.86-4.32-1.97-8.37-3.47-13.04-4.24s-7.71-.95-11.55-2.11c-6.47-1.95-12.86-4.17-19.14-6.66-4.48-1.78-9.92-4.22-15.78-7.17s-11.78-6.26-17.44-9.78-11.08-7.25-16.37-11.23c1.58,1.19-1.7-1.34-2.1-1.67-1.24-1-2.47-2-3.68-3.03-2.6-2.19-5.14-4.45-7.62-6.77-4.79-4.47-9.35-9.18-13.67-14.11-4.75-5.43-6.38-7.49-10.4-13.24-4.28-6.13-8.18-12.52-11.65-19.14-1.7-3.23-3.3-6.52-4.79-9.85-.28-.63-.56-1.26-.83-1.89.78,1.8-.37-.91-.5-1.23-.77-1.93-1.51-3.87-2.22-5.83-8.68,2.39-17.36,4.79-26.04,7.18,5.03,12.37,11.03,24,19.14,34.65,2.22,2.92,4.46,6.39,7.17,8.89,3.15,2.91-1.04-3.84.09-.45.7,2.08,1.68,3.78,3.01,5.5,3.96,5.12,8.86,9.71,13.54,14.16,9.15,8.69,19.08,16.69,29.66,23.57,5.12,3.33,10.44,6.38,15.92,9.1,2.53,1.25,5.1,2.42,7.7,3.54,2.02.87,4.05,1.73,6.09,2.54.66.26,5.46,2.46,2.47.89l-4.84-4.84c3.85,6.52,10.44,8.45,17.19,10.89,5.54,2,11.19,3.7,16.89,5.21,12.2,3.23,25.33,6.06,37.99,6.28,6.65.12,12.49-5.22,13.26-11.71.73-6.11-2.97-13.64-9.67-14.81-34.19-5.97-66.35-16.42-94.66-36.82-10.88-7.84-22.58-18.72-32.14-29.98-4.76-5.61-8.33-10.46-12.73-17.34s-8.02-13.54-11.41-20.66c-7.77,4.54-15.54,9.08-23.31,13.63,26,53.64,76.45,94.3,134.07,109.2l7.18-26.04c-11.42-2.66-22.17-6.49-32.26-11.42-5.54-2.71-10.95-5.68-16.26-8.83-6.09-3.62-11.71-8.48-19.07-8.75l6.81,1.84c-5.51-2.65-11.48-8.94-16.45-13.59-5.76-5.38-11.22-11.08-16.42-17.01-1.43-1.63-2.84-3.28-4.23-4.94-.06-.07-2.53-3.56-1.63-2.18-2.53-3.9-4.89-6.97-6.85-10.53-3.66-6.64-8.47-13.56-11.21-20.17l-24.67,10.4c23.96,42.93,66.68,79.18,117.66,80.69,7.3.21,13.5-6.36,13.5-13.5,0-15.12-16.44-19.94-27.64-25.82-10.2-5.36-20.28-10.97-30.02-17.13-17.97-11.36-35.38-25.29-48.18-41.86l-21.2,16.36c23.76,22.44,52.85,36.6,82.96,48.47l3.59-26.52c-7.94-.81-18.08-4.35-25.75-8.26-9.59-4.88-18.56-10.84-27.43-16.9l4.84,4.84c-1.79-2.42-3.16-4.78-5.48-6.79-2.03-1.76-3.56-2.67-5.67-4.5-3.82-3.3-7.39-6.88-10.96-10.45-11-10.99-28.44,2.95-21.2,16.36,4.11,7.61,7.74,15.46,11.99,22.99,2.13,3.76,4.99,7.22,7.01,11.01-.51-1.1-.5-.96.05.43.63,1.53,1.28,3.06,1.95,4.57,1.63,2.67,4.05,4.35,6.55,6.1l-6.2-8.07c.68,1.69,1.34,3.38,2.23,4.97,3.01,5.39-.59-4.09.83.98s3.21,8.36,8.13,11.27l-4.84-4.84.31.59-1.84-6.81v4l13.5-13.5h-2c3.18,1.32,6.36,2.64,9.55,3.95-.71-.65-4.87-4.34-5.13-4.16.54-.37,2.06,4.95,1.4,2.57-1.1-3.96-3.62-6.58-6.34-9.46-2.41-2.54-4.71-6.34-6.85-10.82-1.1-2.31,1.04,2.84-.59-1.34-.43-1.11-.84-2.22-1.24-3.34-.87-2.47-1.66-4.98-2.41-7.49-1.49-4.99-2.83-10.02-4.37-15-3.96-12.85-22.04-12.8-26.04,0-2.96,9.46-3.3,19.47-6,29h26.04c-.06-.17-.69-2.51-.41-1.15-.06-.28.07-2.37-.04-.93.18-2.43.69-5.85.86-7.2.52-4.06,1.49-8.64,3.22-12.32,2.38-5.06,2.7-12.35-2.11-16.36-16.25-13.55-35.83-23.81-57.55-22.95-5.96.23-11.4,4.03-13.02,9.91-1.45,5.28.81,12.9,6.2,15.25,7.97,3.47,16.06,6.39,24.32,9.09,6.38,2.09,13.99,4.74,19.68,7.91,2.27-8.39,4.54-16.77,6.81-25.16-8.89,0-17.81,0-26.67.86-5.37.52-10.75,1.23-16.03,2.33-2.4.5-4.73,1.2-7.11,1.76,2.16-.51-1.1.02-1.74.05-4.51.21-8.62,2.19-12.81,3.73s-7.95,2.98-11.87,4.63c-8.53,3.58-16.06,7.83-23.32,13.59-8.12,6.44-3.1,20.25,5.96,22.56,3.12.8,6.09,1.01,9.23.08-2.54.76,7.76-2.69,2.95-1.08,3.73-1.25,7.36-3.06,11.03-4.48,7.46-2.9,15.03-5.54,22.71-7.8,15.27-4.49,29.9-7.14,45.67-7.23,7.29-.05,13.5-6.17,13.5-13.5s-6.18-13.5-13.5-13.5c-6.84,0-12.73,1.97-19.26,3.69s-12.9,2.67-19.23,4.63-12.83,4.58-19.01,7.41c-5.3,2.42-11.06,6.46-15.85,7.95-6.56,2.04-12.32,6.4-18.01,10.17-5.36,3.55-10.64,7.22-15.81,11.04-10.95,8.1-21.46,16.74-31.39,26.06l5.96-3.47c-1.32.41-2.59.94-3.83,1.56-1.16.72-.85.63.92-.28h7.18l-1.09-.28,8.07,19.83c.95-1.7,2.11-3.27,3-5,1.61-3.61,1.86-4.28.74-2,.75-1.34,1.29-2.75,1.62-4.22l-3.47,5.96c5.18-6.42,10.79-12.46,16.91-18s10.43-8.81,17.66-13.38c6.58-4.16,13.5-7.83,20.65-10.92-1.25.54.54-.22.84-.34.91-.36,1.83-.72,2.74-1.07,2.07-.79,4.16-1.54,6.27-2.24,4.96-1.66,9.2-3.09,13.17-6.73l-5.96,3.47c6.2-2.59,13.94-3.51,20.56-4.44,7.14-1,14.4-1.35,21.61-1.39l-3.59-26.52c-23.81,3.91-46.78,13.4-66.71,26.98-10.14,6.91-19.73,14.73-28.5,23.3-4.23,4.14-8.28,8.46-12.15,12.94-5.29,6.11-11.75,12.29-12.06,20.8l1.84-6.81c-.83,1.46-.59,1.37.72-.27,2.05-2.04,1.54-1.76-1.53.84-1.28,1.17-2.33,2.48-3.31,3.93-1.69,2.49-3.18,5.15-4.69,7.75-3.03,5.19-5.93,10.46-8.56,15.86-5.46,11.21-9.92,22.89-12.46,35.11-3.11,14.97,16.13,23.47,24.67,10.4,6.67-10.2,11.34-21.44,16.97-32.2,2.67-5.11,5.53-10.31,9.1-14.85,4.94-6.28,10.97-11.19,11.29-19.76l-1.84,6.81c-.74,1.54.71-.96,1.18-1.49.75-.84,1.5-1.68,2.25-2.51,1.67-1.84,3.38-3.66,5.1-5.45,3.58-3.72,7.27-7.33,11.03-10.86s7.29-6.68,11.01-9.94c.42-.37,5.9-4.48,5.79-5.01-2.71,1.46-3.32,1.87-1.84,1.21.75-.31,1.49-.62,2.23-.94,2.32-1.01,3.41-1.66,5.53-3.42,3.47-2.88,5.97-4.08,10.53-6.5s9.06-4.86,13.64-7.21c9.19-4.7,17.75-8.42,27.95-10.67l-7.18-26.04c-24.35,9.87-46.35,24.22-64.51,43.31-19.41,20.41-33.66,44.76-43.67,71-6.05,15.86-9.59,32.7-9.72,49.7-.05,6.66,5.17,12.48,11.71,13.26s12.64-3.14,14.81-9.67c2.74-8.24,4.04-16.88,7-25,1.41-3.88,2.45-6.15,4.22-10.12.77-1.39,1.32-2.85,1.66-4.38.26-1.57.46-3.16.59-4.75-1.16,3.08,1.94-3.6.93-1.24,5.97-13.94,13.56-27.23,22.43-39.52,3.62-5.01,7.8-10.14,12.87-15.67s10.67-11,16.46-16.01c1.45-1.25,2.91-2.49,4.4-3.7.43-.35,4.07-3.2,2.91-2.32,3.05-2.32,6.18-4.53,9.38-6.65,6.41-4.26,13.08-8.1,19.94-11.57-4.54-7.77-9.08-15.54-13.63-23.31-47,29.13-80.45,78.5-90.97,132.74-2.99,15.44-4.37,31.2-3.72,46.92.3,7.29,5.99,13.5,13.5,13.5s13.36-6.18,13.5-13.5c.87-46.85,17.57-95.25,49.91-129.58,4.78-5.08,9.87-9.87,15.24-14.32,4.47-3.71,9.91-7.56,16.16-11.44-4.54-7.77-9.08-15.54-13.63-23.31-23.83,17.4-44.07,39.1-59.09,64.57-16.47,27.92-25.03,59.08-28.46,91.16-1.92,17.91-2.02,35.96-1.13,53.94,8.84-1.2,17.68-2.39,26.52-3.59-6.63-29.39-4.83-60.62,4.3-89.53.79-2.49,3.02-6.53,4.19-9.7s2.2-6.04,3.43-9.02c.93-2.25-.61,1.36.37-.86.3-.68.6-1.35.9-2.03.61-1.35,1.24-2.68,1.88-4.02,1.49-3.1,3.07-6.15,4.74-9.16,6.35-11.49,13.04-21.02,21.09-30.02,10.04-11.23,20.08-19.82,31.9-27.42,5.63-3.62,8.28-10.58,5.52-16.86-2.56-5.83-9.44-10-15.93-7.82-2.99,1.01-6.19,2.07-8.93,3.66s-4.71,3.83-7.07,5.78c.35-.29.68-.22.99-.43-2.37,1.6-4.25,1.91-6.46,3.97-1.13,1.05-3.39,4.33,1.46.03-1.31,1.17-3.66,1.37-5.22,2.36-.25.16-3.09,2.1-3.73,3.11l-1,1c3.35-1.54,3.97-1.89,1.86-1.07-3.19,1.09-5.6,2.97-8.11,5.2-4.41,3.91-8.54,8.19-12.55,12.5-15.38,16.51-28.57,34.77-37.77,55.44-17.86,40.13-23.24,83.74-17.23,127.15,1.59,11.5,3.98,22.87,7.18,34.02,1.68,5.86,3.39,11.91,5.82,17.51l.68,1.61c1.09,2.34,1.15,1.73.16-1.81-.07,1.86.32,3.59,1.16,5.2.36.91.75,1.81,1.19,2.69,1.47,3.24,3.26,5.92,5.61,8.66,3.85,4.49,11.48,4.96,16.36,2.11,5.6-3.28,7.06-9.23,6.2-15.25-1.34-9.48-3.89-18.68-6.09-27.98-1.11-4.69-1.72-9.48-2.78-14.16-.92-4.03-2.38-8.18-2.8-11.73-2.22-18.73-2.47-37.69-.31-56.44.88-7.6,2.68-16.97,4.78-25.38,2.27-9.06,5.11-17.97,8.48-26.68,1.56-4.03,2.97-7.3,4.87-11.37.95-2.04,1.94-4.06,2.95-6.07.95-1.88,2.28-4.76,2.93-5.55,5.63-6.8,10.29-15.64,15.29-22.2s12.16-14.25,18.9-20.44c7.41-6.82,13.25-11.27,21.58-16.75-5.45-7.07-10.91-14.14-16.36-21.2-34.84,33.52-54.22,79.65-56.97,127.64-2.64,46.1,10.61,94.94,34.41,134.38,6.82,11.31,14.79,22.03,23.62,31.85,4.44,4.94,9.15,9.63,14.11,14.05,6.24,5.57,12.56,12.12,21.37,12.12,9.4,0,14.55-8.59,13.02-17.09-.62-3.45-2.64-6.26-4.36-9.22l1.84,6.81c0-8.77-7.09-17.39-12.95-23.55l3.95,9.55c0-9.59-7.55-15.13-12.06-22.6s-7.84-14.95-11.34-22.63-7.89-15.58-11.05-23.15c-3.57-8.57-6.25-17.54-8.46-26.54-9.1-37.07-10.24-73.82.13-110.78,2.93-10.43,6.69-19.9,11.67-29.49,2.47-4.76,5.06-9.46,7.63-14.17s6.59-9.19,8.98-15.06l-3.47,5.96,3-3-21.2-16.36c-31.51,48.85-34.9,113.29-17.82,167.8,2.39,7.62,5.32,15.06,8.58,22.35s7.34,13.47,10.68,20.38l-1.84-6.81c.48,8.44,5.24,14.79,9.77,21.64,3.92,5.92,8.06,11.69,12.38,17.32,9.08,11.83,18.85,23.07,29.55,33.47,20.71,20.13,44.33,37.3,69.55,51.32,13.1,7.28,27.81-10.42,16.36-21.2-4.7-4.42-10.05-7.47-15.59-10.63-2.43-1.38-4.59-3.02-6.77-4.43-.49-.32-6.58-3.64-3.94-2.16-1.73-.97-2.41-1.58-3.7-2.79-4.2-3.95-9.71-6.92-14.32-10.38-3.56-2.66-7.41-5.74-11.65-9.35-8.2-6.97-16.01-14.42-23.31-22.33-3.35-3.63-6.6-7.36-9.73-11.19-.89-1.09-1.77-2.19-2.64-3.29-2.84-3.58,1.4,1.96-1.31-1.72-1.67-2.26-3.33-4.51-4.93-6.81-5.88-8.44-11.2-17.27-15.92-26.42-5.34-10.36-8.32-17.43-12.03-28.25-8.04-23.45-12.41-47.07-11.48-71.8,1.05-28.1,10.18-54.46,22.44-79.11-7.77-4.54-15.54-9.08-23.31-13.63-11.92,24.7-18.75,51.18-20.16,78.59-.7,13.63.18,27.19,2.07,40.69.93,6.63,2.13,13.21,3.68,19.72,1.7,7.14,3.12,14.05,8.21,19.6l-3.47-5.96c2.67,6.4,4.29,13.28,6.96,19.72,3.01,7.27,6.27,14.4,10.03,21.31,7.3,13.43,16.14,25.89,25.67,37.82,1.43,1.79,2.73,3.46,4.5,4.91.72.59,1.67,1.15,2.37,1.8.13.12,1.17,1.07.66.48-.71-.81.74,1.29.7,1.23.6.86,1.41,1.68,2.1,2.48,1.21,1.41,2.45,2.8,3.71,4.17,4.57,4.95,9.77,11.14,15.54,14.7,0,0,2.51,1.61,1.19.36.37.35.55,1.09.89,1.5,1.9,2.3,3.49,4.07,5.92,5.84,3.23,2.36,6.52,4.65,9.78,6.97,6.16,4.4,12.33,8.78,18.64,12.97,7.09,4.71,14.35,9.18,21.9,13.12,3.64,1.9,7.35,3.67,11.12,5.3,2.33,1.01,4.68,2,7.04,2.93,1.03.41,2.06.8,3.1,1.18.56.21,3.85,1.67,1.3.33l-4.84-4.84c3.5,5.92,8.29,7.48,14.41,9.63,4.67,1.64,9.34,3.27,14.03,4.83,10.02,3.35,20.14,6.42,30.42,8.83,21.15,4.95,43.45,8.04,65.19,7.08,6-.26,11.35-4.02,13.02-9.91l.22-.77-6.2,8.07-5.11,1.43-6.81-1.84.27.12,3.22-24.67-.2.06c3.47.45,6.94.91,10.4,1.36-14.4-6.28-29.82-8.08-44.91-12.08-13.94-3.69-27.72-8.02-41.2-13.17-26.79-10.23-51.81-24.56-74.96-41.92-20.33-15.25-39.23-33.97-52.68-53.99-3.67-5.47-7.09-11.11-10.24-16.9s-8.09-12.05-10.5-18.53c-4.71-12.7-10.98-27.74-13.97-41.98-3.29-15.67-3.63-32.11-2.93-48.29.72-16.48,3.44-32.23,9.58-47.9-8.68-2.39-17.36-4.79-26.04-7.18-6.41,36.15-3.7,73.56,9.3,108.02,3.35,8.87,7.2,17.59,11.65,25.97,1.33,2.5,2.62,5.02,4.53,7.14.61.68,1.42,1.28,2,2-1.11-1.39.16.42.29.65,1.86,3.39,4.08,6.64,6.23,9.86,8.34,12.48,17.84,24.29,28.34,35.01,40.41,41.27,95.28,67.11,151.93,76.57,33.05,5.52,66.17,5.86,99.35,1.38,6.55-.89,10.55-8.96,9.67-14.81-1.07-7.09-6.38-10.95-13.26-11.71-15.44-1.69-30.98-.4-46.44-1.5-14.7-1.05-29.94-2.84-44.27-6.33-13.43-3.27-27.96-6.11-40.48-11.32-14.27-5.95-28.96-12.2-42.43-19.82-23.18-13.13-42.97-29.3-60.67-49.6-15.57-17.85-29.12-41.06-36.82-63.26-2.37-6.82-4.37-13.77-5.98-20.81-.78-3.39-1.46-6.8-2.05-10.23-.71-4.14-.78-4.55-1.17-8.21-.77-7.16-1.14-14.36-1.06-21.57.04-3.73.2-7.47.47-11.19.13-1.74.28-3.48.46-5.22.08-.75.16-1.49.25-2.24.03-.29.44-3.3.2-1.62-8.84-1.2-17.68-2.39-26.52-3.59-1.7,37.94,8.35,75.76,27.25,108.6,9.51,16.53,21.32,31.92,34.6,45.6,3.12,3.21,6.34,6.34,9.64,9.36,1.47,1.35,2.94,2.71,4.47,3.99.83.7,2.41,2.03,3.64,2.7,7.83,4.33,2.05-.16,1.59.36s23.18,17.52,25.87,19.23c9.35,5.93,19.19,11.08,29.34,15.51,5.42,2.36,10.89,4.62,16.45,6.66,5.2,1.91,10.73,3.21,15.82,5.33l-5.96-3.47c6.58,6.03,15.5,6.99,23.95,8.86,7.46,1.65,14.96,3.17,22.46,4.62,16.25,3.14,32.68,5.11,49.24,5.52,32.63.79,65.33-4.16,96.73-12.84,7.68-2.12,10.46-9.36,9.43-16.61-.73-5.09-5.83-9.13-10.43-10.43-5.07-1.43-11.15.89-16.16,1.92-8.28,1.69-16.61,3.17-24.97,4.4-15.52,2.27-31.62,3.41-47.46,3.36s-31.53-1.33-46.88-4.27c-3.78-.72-7.53-1.54-11.27-2.43-4.85-1.16-9.87-3.18-14.86-3.45-.6-.03-3.94-.26-2.47.04,1.34.28-2.29-.81-2.94-1.01-3.54-1.06-7.05-2.17-10.55-3.34-24.5-8.21-47.79-19.49-69.6-35.64-20.3-15.03-39.85-36.94-52.68-58.9-16.5-28.23-25.12-59.28-25.25-91.65-8.84,1.2-17.68,2.39-26.52,3.59,1.38,9.4,1.84,19.32,3.66,28.83,1.64,8.56,4.75,16.98,7.8,25.12,5.78,15.44,13.09,30.29,22.31,43.96,18.72,27.74,43.94,51.4,72.62,68.64,63.89,38.39,140.84,46.01,213.09,32.15,40.42-7.75,79.39-22.91,114.35-44.64l-6.81,1.84c1.93,0,3.63.06,5.59-.48,1.76-.42,3.29-1.22,4.59-2.42,1.54-1.17,1.83-1.4.86-.69,3.51-2.53,6.11-4.53,8.62-8.1,3.41-4.83,1.86-12.39-2.11-16.36-4.42-4.42-10.96-4.81-16.36-2.11-29.27,14.61-58.63,27.54-90.59,35.42-7.83,1.93-16.83,2.4-24.19,5.6-3.16,1.38-1.53.59-.79.41-.99.24-2.04.37-3.04.54-1.83.31-3.66.61-5.5.85-4.17.54-8.38.87-12.57,1.21-17.89,1.45-35.33,3.48-53.26,1.26-7.73-.96-16.51-1.63-23.65-2.53-4.03-.51-8.05-1.29-12-2.22-2.06-.49-4.07-1.14-6.12-1.64-1.71-.41-3.42-.67-5.19-.75-.52-.02-3.57-.22-.96.19-3.85-.6-7.6-2.63-11.31-3.85-4.25-1.39-8.57-2.59-12.86-3.86-7.64-2.27-14.58-5.05-21.69-8.6-14.06-7.02-27.63-15.03-40.32-24.3-11.87-8.68-23.17-19.81-33.18-31.59-11.14-13.12-19.96-27.78-27-43.51s-10.7-34.59-13.96-52.56c-8.68,2.39-17.36,4.79-26.04,7.18,8.85,37.25,27.24,72,54.21,99.31,28.58,28.95,66.68,49.91,105.73,60.85,77.26,21.64,162.28,6.88,232.45-29.95,38.72-20.32,73.83-47.87,103.18-80.25,4.5-4.96,5.35-12.33,1.06-17.73-3.92-4.92-11.78-7.35-17.42-3.48-7.03,4.83-13.23,10.63-19.73,16.11,3.18-1.32,6.36-2.64,9.55-3.95-10.79.4-19.44,10.93-27.15,16.92-6.76,5.24-14.76,10.95-22.28,15.96-15.78,10.51-32.31,19.9-49.47,27.96-15.64,7.34-32.54,13.66-50.13,18.66-17.86,5.07-36.81,8.78-53.79,10.45-18.15,1.79-36.57,2.14-54.75.58-1.97-.17-3.94-.36-5.91-.58-.63-.07-6.03-.78-3.62-.43-3.94-.57-7.86-1.22-11.76-1.98-7.83-1.52-15.59-3.43-23.23-5.71s-15.63-5.1-23.22-8.24c-2.34-.96,2.83,1.28-1.07-.46-.81-.36-1.63-.71-2.44-1.08-1.62-.73-3.23-1.47-4.84-2.24-4.01-1.91-7.96-3.92-11.85-6.05-14.28-7.81-26.53-16.29-37.42-25.84-6.77-5.93-13.15-12.3-19.08-19.08-1.44-1.65-2.86-3.32-4.25-5.02-.69-.85-1.38-1.7-2.06-2.56,1.14,1.44-.27-.35-.7-.92-2.77-3.69-5.4-7.48-7.89-11.36-4.76-7.44-9-15.23-12.62-23.29-.36-.81-.73-1.63-1.08-2.45.93,2.18-.52-1.3-.69-1.73-.83-2.09-1.61-4.19-2.36-6.3-1.66-4.71-3.09-9.49-4.36-14.31l-24.67,10.4c3.63,8.28,6.76,17.28,11.14,25.41s8.89,15.32,14.37,22.48c11.14,14.57,23.53,27.49,37.98,38.81,27.71,21.71,58.86,36.59,93.04,44.58,66.27,15.5,135.23,4.29,195.96-25.25,16.97-8.25,33.22-17.94,48.64-28.81.89-.63,1.79-1.25,2.67-1.9.52-.38,4.31-2.99,2.93-2.18,1.52-.89,3.23-1.41,4.74-2.3,4.8-2.81,9.2-7.41,13.53-10.92,7.78-6.33,15.4-12.81,22.21-20.19l-21.2-16.36c1.05-1.62-.13-.09-.55.22-.83.6-1.5,1.48-2.34,2.05.8-.55,1.39-.93-.78.14-1.68.83-2.57,1.5-4.22,2.86-3.11,2.56-6.13,5.23-9.25,7.77-5.91,4.8-10.98,8.6-17.76,13.34-12.74,8.91-26.07,16.99-39.88,24.13-26.93,13.92-56.09,24.12-87.1,29.6-8.18,1.44-12.35,2-20.44,2.72s-15.62,1.07-23.44,1.09-15.66-.3-23.47-.99-12.32-1.28-20.52-2.8c-31.57-5.87-59.59-16.84-85.86-35.02-3.32-2.3-6.42-4.58-8.67-6.4-3.52-2.83-6.95-5.79-10.27-8.86-6.58-6.1-12.72-12.66-18.37-19.62-10.79-13.31-21.6-31.24-26.41-48l-24.67,10.4c26.29,57.19,82.23,96.21,142.89,109.34,68.15,14.75,139.11,2.06,199.36-32.52,17.12-9.83,33.24-21.37,48.37-34.04.39-.33,2.37-1.75,2.39-2.02-.06.7-5.26,2.72-.06.36,2.96-1.34,5.27-3.41,7.7-5.55,3.65-3.19,7.35-6.32,10.92-9.59,3.87-3.54,7.59-7.24,10.97-11.25.56-.66,1.11-1.33,1.65-2-1.43,1.78,4.42-6.13,2.07-3.07,1.71-2.23,3.84-4.04,5.04-6.66,2.8-6.11,2.25-13.14-3.48-17.42s-12.57-3.52-17.73,1.06c-21.9,19.43-43.73,36.86-68.92,51.97-25.91,15.54-52.41,26.21-81.76,33.59-29.83,7.51-61.23,10.46-91.75,4.83-3.94-.73-7.71-1.12-11.69-1.35,1.75.1-1.78-.39-2.35-.52-2.02-.46-4.04-.93-6.05-1.43-6.91-1.71-13.77-3.68-20.52-5.96-12.64-4.26-22.81-8.77-34.81-15.77-13.51-7.88-25.12-16.24-36-27.56-5.55-5.78-10.79-12.07-15.82-18.3-1.89-2.34-4.1-6.02-6.4-8.96s-4.19-7.96-6.74-11.81c-7.77,4.54-15.54,9.08-23.31,13.63,19.71,26.07,44.75,47.62,74.33,61.78,33.56,16.06,71.55,22.44,108.63,20.86,11.36-.48,22.68-1.83,33.9-3.66,10.43-1.71,23.56-2.56,31.59-9.93l-5.96,3.47c3.9-1.62,8.28-2.39,12.32-3.67,4.27-1.35,8.5-2.81,12.68-4.39,8.85-3.35,17.57-7.12,26.02-11.38,7.67-3.87,15.13-8.16,22.36-12.81,3.79-2.44,7.52-4.98,11.19-7.61,1.97-1.41,3.92-2.85,5.86-4.31,1.11-.84,2.21-1.69,3.31-2.54.67-.52,1.34-1.04,2.01-1.56.79-.71.86-.67.21.12l-6.81,1.84c10.28-.38,19.1-10.56,26.57-16.94s14.45-12.78,21-19.9c6.02-6.55,11.98-13.15,17.68-19.97,3.11-3.72,6.12-7.52,9.09-11.36,3.9-5.06,7.16-9.1,7.16-15.85l-1.84,6.81c-2.91,2.82-3.26,3.32-1.03,1.48.61-.45,1.21-.92,1.79-1.41,1.23-1.13,2.4-2.58,3.24-4.08l1.36-3.22c-.85,1.76-.83,1.63.06-.39,1.47-3.92-1.15.81.84-1.49,3.25-3.76,5.85-8.32,7.1-13.12,1.51-5.8-1-12.2-6.2-15.25-4.77-2.79-12.68-2.5-16.36,2.11-17.05,21.36-35.45,41.7-55.92,59.85-10.42,9.25-19.4,16.36-30.66,24.06s-23.16,14.71-35.48,20.74c-3.68,1.8-7.41,3.52-11.17,5.15.59-.25-2.49,1.03-3.2,1.31-2.83,1.13-5.73,2.04-8.2,3.83-3.94,2.87,1.24-.64,1.59-.42-.41-.26-2.71.65-3.21.79-2.04.57-4.03,1.32-6.05,1.95-4.93,1.53-8.99,2.79-12.95,6.42l5.96-3.47c-6.7,2.79-14.2,3.93-21.23,5.57-7.57,1.77-14.47,3.04-22.19,4s-15.88,1.85-23.86,2.14c-8.53.32-17.17-.55-25.68-1.13-30.88-2.11-61.58-12.88-87.09-30.02-14.93-10.03-27.71-21.96-39.56-35.78l-19.09,19.09c33.11,34.75,78.16,55.35,125.44,61.49,47.17,6.13,95.4-4.24,137.85-24.99,11.9-5.82,23.37-12.52,34.33-19.96,5.88-3.99,11.57-8.21,17.19-12.55,6.22-4.8,14.61-10,16.75-17.94l-6.2,8.07c-.93.61-1.47.64-.13-.05s2.81-1.14,4.13-1.95c2.6-1.61,4.69-4.06,6.85-6.2,3.3-3.26,6.62-6.5,9.86-9.82,6.96-7.12,13.39-14.68,19.13-22.83,3.82-5.44,1.5-13.69-3.48-17.42s-13.49-4.28-17.73,1.06-9.65,9.68-14.39,14.5c-5.08,5.16-10.33,10.15-15.74,14.95-10.55,9.35-20.57,17.01-32.31,24.85-5.16,3.45-11.59,8.34-16.6,10.22-6.54,2.46-12.48,5.9-18.77,8.96-2.43,1.18-4.88,2.32-7.34,3.42-.57.25-4.15,1.76-2.36,1.03-1.46.6-2.92,1.19-4.39,1.76-5.45,2.12-10.98,4.03-16.58,5.73-11.39,3.47-23.02,6.01-34.8,7.76-.08.01-2.27.3-.87.12,1.55-.2-1.21.14-1.54.18-1.33.16-2.67.3-4,.44-3.11.31-6.23.56-9.35.74-5.78.34-11.57.46-17.36.36s-11.52-.43-17.26-.98c-1.54-.15-3.08-.31-4.62-.5-.68-.08-3.86-.53-1.67-.21-3.05-.45-6.1-.94-9.13-1.52-11.42-2.16-22.67-5.28-33.54-9.41-1.43-.54-2.85-1.11-4.28-1.68-.05-.02-2.04-.86-.81-.33,1.12.48-1.19-.53-1.4-.62-3-1.33-5.96-2.74-8.89-4.24-5.86-2.99-11.56-6.3-17.06-9.92-2.76-1.82-5.47-3.72-8.13-5.69-.53-.4-1.07-.79-1.59-1.2,1.14.87.13.1-.41-.34-1.21-.98-2.42-1.96-3.61-2.96-5.33-4.5-10.36-9.33-15.12-14.43s-14.06-5.03-19.09,0c-5.56,5.56-4.66,13.46,0,19.09-.18-.21-1.18-1.48-.24-.19.8,1.09,1.58,2.27,2.49,3.28,1.02,1.12,2.14,2,3.34,2.93,3.47,2.7,6.96,5.38,10.53,7.96,5.58,4.03,11.31,7.85,17.25,11.34,12.14,7.12,25.42,13.26,39.06,16.81,7.23,1.88,14.55,3.41,21.83,5.05,7.94,1.79,15.69,3.61,23.87,3.94,13.53.55,27.52.09,40.99-1.25,51.49-5.13,99.44-26.56,139.37-59.18,22.06-18.02,41.09-39.63,56.7-63.43,3.65-5.57,1.64-13.59-3.48-17.42-4.84-3.61-13.55-4.32-17.73,1.06-8.43,10.86-17.47,21.22-27.12,31-4.64,4.7-9.42,9.27-14.31,13.72-2.47,2.25-4.97,4.47-7.5,6.65-1.49,1.29-2.99,2.56-4.49,3.83-.65.55-1.3,1.09-1.95,1.63-1.39,1.32-1.69,1.5-.89.54l6.81-1.84c-6.54.24-10.85,4.04-15.15,7.3-3.82,2.89-7.75,5.66-11.74,8.31-7.92,5.27-16.14,10.07-24.61,14.38-16.11,8.18-32.87,14.2-51.16,18.41-35.67,8.2-72.39,7.37-107.71-5.01-18.54-6.5-37.89-17.29-53.08-29.91l-19.09,19.09c47.1,36.44,110.91,43.18,167.75,30.11,49.76-11.45,95.21-40.07,129.09-78.01,9.89-11.07,18.97-22.97,27.01-35.46,9.43-14.64,18.61-29.19,24.71-45.6,3.99-10.72-10.45-21.9-19.83-15.25-1.58,1.12-3.12,2.24-4.43,3.66-2.96,3.53-2.81,3.64.43.34-1.57.85-2.84,2.01-3.79,3.48-2.37,3.07-2.9,6.46-2.9,10.18l3.95-9.55c-4.62,5.72-8.41,11.77-12.32,17.96-.88,1.4-1.88,2.73-2.54,4.25-1.71,3.96,1.45-1.41-1.22,1.95-2.53,3.18-5.61,6.64-7.44,10.32-1.98,3.98,10.49-7,1.26-1.6-2.6,1.52-4,3.75-5.75,6.08-1.98,2.64-2.59,3.47-4.39,5.73-3.9,4.9-7.96,9.67-12.16,14.31-16.14,17.78-32.81,31.98-52.41,44.23-40.43,25.29-85.99,38.27-134.01,33.6-6.1-.59-10.7-1.31-17.56-2.77s-13.87-3.36-20.62-5.66c-12.29-4.18-23.83-9.92-35.47-17.52-4.54,7.77-9.08,15.54-13.63,23.31,28.42,15.12,60.56,22.26,92.71,21.45s63.49-9.73,92.82-23.89l-6.81,1.84c8.19-.47,14.86-4.98,21.74-9.1,5.58-3.35,11.05-6.9,16.37-10.65,11.49-8.08,22.47-16.97,32.62-26.68,19.61-18.77,36.36-40.79,49.02-64.81,3.12-5.93,2.03-13.3-3.48-17.42-5.15-3.85-13.11-4-17.73,1.06-7.53,8.24-12.78,18.16-19.88,27.41-5.62,7.33-12.99,15.46-20,22.47-14.06,14.06-27.29,25.44-43.69,35.8-33.56,21.18-73.14,34.07-113.79,32.81-12.46-.38-23.91-2.04-36.01-5.15s-23.48-8.73-35.51-12.8l-7.18,26.04c20.28,6.66,41.72,10.22,63.08,10.3,10.88.04,21.69-.97,32.45-2.56s22.98-2.68,30.85-9.89l-5.96,3.47c6.31-2.63,13.41-3.79,19.86-6.23,7.17-2.72,14.24-5.81,21.03-9.36,12.61-6.59,24.29-14.84,35.16-24.01s20.09-19.22,29.35-29.61c10.79-12.1,20.67-24.97,25.79-40.54,4.09-12.45-13.83-23.46-22.56-13.13-8.71,10.3-17.43,20.6-26.67,30.43-1.8,1.91-4.65,5.13-5.8,6.16-2.49,2.24-5.59,3.76-8.13,5.95-4.67,4.03-9.25,8.13-14.11,11.96-8.26,6.51-18.9,13.51-28.89,18.96-5.11,2.79-10.35,5.39-15.7,7.69-4.89,2.1-12.22,4.2-16.95,8.54l5.96-3.47c-17.16,7.15-36.78,10.04-54.92,10.92-19.44.94-37.93-.89-56.65-5.6l-3.59,26.52c42.06,4.88,85.11-3.48,122.21-23.92,35.43-19.52,65.43-49.86,85.99-84.57,11.34-19.13,19.94-39.98,25.82-61.42,4.06-14.83-16.76-23.52-24.67-10.4-2.17,3.59-3.79,8.89-4.83,11.78-.99,2.72-3.38,7.8-4.97,11.41-1.79,4.06-3.64,8.1-5.73,12.01-2.21,4.13-5.18,7.76-7.47,11.8-1.19,2.1-1.92,4.5-2.86,6.72-1.38,3.26,1.15-.77-.64,1.02-.8.8-1.33,1.98-1.97,2.91-2.65,3.87-5.38,7.68-8.19,11.44-4.82,6.43-10.66,13.86-16.53,20.33-12.08,13.33-24.89,23.28-39.7,32.81-7.87,5.07-15.92,10.39-24.52,14.13-7.3,3.18-16.98,6.43-25.44,8.78-20.88,5.8-41.72,7.93-63.5,5.17v27c90.19-.36,165.83-66.95,195.97-148.98,8.39-22.85,12.98-47.18,13.53-71.52.35-15.3-22.5-18.23-26.52-3.59-1.67,6.07-2.74,12.28-4.3,18.38-.76,2.98-1.01,5.73-1.19,8.76,0,.91,0,.73.04-.55l-.45,1.58c-.55,1.51-.91,3.17-1.37,4.71-3.1,10.5-6.58,20.9-10.58,31.09-7.5,19.13-18.36,39.15-30.81,56.8l4.84-4.84c-1.9,1.41-4.02,2.4-5.73,4.11-1.42,1.42-2.7,3.56-3.95,5.22s-3.48,4.39-5.54,6.79c-4.55,5.3-9.4,10.35-14.51,15.11-9.91,9.22-18.81,15.76-30.83,22.87-24.68,14.6-50.55,23.9-79.62,24.06v27c39.19-4.91,75.07-21.82,104.64-47.94,14.27-12.6,26.74-27.36,37.08-43.33,12.16-18.79,21.17-39.05,27.86-60.36,1.9-6.06,3.85-12.22,5.22-18.42.39-1.77.64-3.54.7-5.35v-1.64c-.02-.94.02-.73.11.64.93-2.79,1.7-5.63,2.16-8.53,1.08-6.72,1.59-13.46,2.09-20.24.44-5.95,1.41-12.16-.84-17.91-5.64-14.38-24.89-11.88-26.52,3.59-.22,2.1-.45,4.19-.71,6.28-.06.52-.46,3.49-.16,1.29-.13.93-.26,1.86-.4,2.79-.65,4.41-1.41,8.8-2.26,13.18-1.61,8.29-3.57,16.51-5.91,24.63-4.95,17.18-10.06,30.17-18.28,45.49-3.98,7.42-8.37,14.62-13.18,21.53s-8.81,11.93-15.09,18.77c-5.83,6.35-12.08,12.33-18.7,17.86-5.86,4.9-14.03,10.86-20.09,15.35-4.35,3.22-10.02,5.51-14.86,7.92-4.48,2.22-9.38,4.51-13.6,6.2-10.94,4.38-22.24,7.68-33.85,9.69,3.47,8.22,6.94,16.45,10.4,24.67.86-.49,3.48-.95,5.03-1.42,2.91-.89,5.74-2.26,8.54-3.48,4.46-1.94,8.84-4.05,13.13-6.34,8.54-4.56,16.7-9.82,24.5-15.55,16.02-11.78,29.69-25.16,41.62-41.08,10.86-14.49,19.18-30.53,25.87-47.32,3.28-8.23,6.06-16.66,8.37-25.22,1.18-4.37,2.25-8.77,3.21-13.19.57-2.65,1.26-5.36,1.42-8.07.05-.82-.08-1.68,0-2.5-.08-1.37-.04-1.54.14-.51l.5-1.57c1.94-5.32,1.54-11.68,1.42-17.25s.95-11.24,1.28-16.86c.72-12.41-.34-25.22-4.81-36.9-5.53-14.44-24.97-11.84-26.52,3.59-1.16,11.56-1.33,23.18-2.11,34.77-.74,10.9-2.63,21.39-5.14,32.02s-5.35,20.7-9.1,30.71c-1.75,4.65-3.46,8.56-5.85,13.32-2.93,5.83-5.97,10.55-6.36,17.28l1.84-6.81c-2.4,4.96-5.83,9.64-8.73,14.34s-6.03,9.87-9.54,14.42c-6.15,8-12.85,15.51-20.33,22.31-14.41,13.11-32.23,25.23-49.77,32.63,3.47,8.22,6.94,16.45,10.4,24.67,37.16-22.01,65.53-56.77,81.52-95.85,18.01-44.02,20.08-92.66,10.04-138.8-5.4-24.83-14.63-49.02-27.72-70.83-7.72-12.86-29.24-4.56-24.67,10.4,3.21,10.5,7.65,20.49,11.27,30.82s6.15,20.47,8.33,30.87c4.2,20,5.88,40.36,4.78,61.16-1.99,37.68-13.93,74.09-35.99,104.68-10.37,14.39-26.08,29.34-41.19,39.22,4.54,7.77,9.08,15.54,13.63,23.31,2.46-1.73,5.01-3.52,7.08-5.73.94-1,3.09-4.58,3.9-4.89-2.78,1.06-2.76,2.44-.89,1.37,5.66-3.26,9.95-10.4,13.81-15.48,6.66-8.77,12.59-18.08,17.66-27.85,10.32-19.92,17.41-41.41,20.5-63.63,3.35-24.05,2.54-48.53-1.11-72.5-3.69-24.2-12.17-46.44-23.21-68.19s-25.12-44.91-44.01-62.31c-8.46-7.79-23.05-2.5-23.05,9.55,0,6.26,2.88,9.88,5.86,14.91,2.66,4.5,5.5,8.81,9.1,12.63l-3.95-9.55c0,1.33.04,2.45.24,3.79.65,4.34,3.14,6.78,5.74,9.96-.95-1.17.49.72.55.8.67,1.04,1.32,2.08,1.93,3.16,1.26,2.23,2.37,4.55,3.41,6.89,1.27,2.84,3.4,4.53,5.08,6.94-.8-1.15.44,1.3.42,1.24.43,1.01,1.01,2,1.5,2.99,2.47,4.98,4.83,10.02,7.01,15.12,7.39,17.27,13.34,36.85,16.77,55.92s4.08,38.97,2.13,58.61c-1.68,16.89-7.28,37.06-13.81,51.76-8.48,19.1-19.81,36.36-33.02,51.26l19.09,19.09c3.88-4.72,7.05-9.54,9.69-15.05,2.41-5.04,5.91-10.85,7.22-16.25l.48-3.59c.18-2.07-.01-1.56-.57,1.54-.25-.48,1.81-4.27,2.05-4.85,1.23-2.98,2.37-5.98,3.4-9.03,1.96-5.75,3.55-11.62,4.8-17.57,5.08-24.24,4.72-49.21,1.59-73.68-1.57-12.24-4.14-24.23-8.34-35.84-2.22-6.15-4.79-12.21-7.64-18.09-2.55-5.27-4.22-10.35-7.02-15.87-10.68-21.08-25.69-39.88-41.87-56.99-4.28-4.53-8.67-8.95-13.13-13.3-2.75-2.69-5.3-5.2-8.58-7.24-1.14-.71-2.31-1.35-3.42-2.11-.36-.24-3.32-2.49-1.58-1.11-9.31-7.37-17.85-16.28-30.04-18.52-5.96-1.1-12.04.73-15.25,6.2-2.91,4.98-2.31,12.38,2.11,16.36,14.91,13.43,29.62,27.14,42.97,42.15,6.49,7.3,11.99,14.06,17.36,21.77,5.89,8.46,10.52,17.4,15.56,26.34,2.29,4.06,4.85,7.64,6.81,11.93s3.64,8.47,5.43,13.41c3.31,9.15,6.02,18.52,8.09,28.02,4.12,18.9,5.39,38.35,3.64,58.49s-7.92,42.22-16.97,60.51l24.67,10.4c11.13-29.74,15.37-62.23,11.7-93.81s-15.75-63.3-33.06-90.84c-4.05-6.44-8.35-12.72-12.84-18.85-2.65-3.62-5.21-7.81-8.64-10.68-.75-.62-1.63-1.15-2.37-1.8-.13-.11-1.28-1.11-.64-.42.9.98-.94-1.39-1.15-1.63-.68-.77-1.36-1.53-2.04-2.28-9.19-10.15-19.2-19.54-29.87-28.1-22.5-18.04-47.14-32.34-73.81-43.29C323.21,9.59,292.69,2.73,261.71.04c-6.6-.57-12.53,5.57-13.26,11.71s2.96,13.75,9.67,14.81c24.87,3.94,49.36,10.29,72.84,19.45,6,2.34,8.88,3.56,15.36,6.58,5.68,2.65,11.28,5.47,16.78,8.47,11.01,6,21.63,12.7,31.74,20.11,4.56,3.34,7.97,6.04,13.15,10.48,4.81,4.12,9.46,8.41,13.95,12.87s8.89,9.17,13.07,13.99c4.49,5.18,7.44,8.88,10.87,13.57,16.98,23.24,29.3,48.44,35.62,76.42,3.46,15.32,4.75,30.05,4.03,46.34-.37,8.51-1.14,15.28-2.67,23.28-.78,4.1-1.82,8.14-2.75,12.21-.41,1.8-.73,2.36-1.62,4.51-1.36,3.27-1.93,6.17-2.29,9.7-.67,6.59,5.65,12.54,11.71,13.26s13.56-2.98,14.81-9.67c11.54-61.77-6.53-123.71-45.7-172.24-19.17-23.74-43.25-44.34-70-59.12-6.92-3.82-13.95-7.49-21-11.08-3.38-1.72-6.46-2.62-10.06-3.58-1.31-.35-.26-.02,0,.07-.79-.28-1.56-.7-2.33-1.03-2.63-1.15-5.27-2.26-7.92-3.36-14.09-5.83-28.71-10.35-43.6-13.64-34.55-7.63-70.29-9.07-105.41-5.11-7.24.82-13.5,5.62-13.5,13.5s6.24,12.55,13.5,13.5,15.19.99,22.83,1,15.17.73,22.79,1.2c14.6.91,28.29,3,42.72,5.74,27.21,5.17,53.82,15.03,77.69,28.58,21.88,12.43,39.85,25.63,57.07,43.73,8.76,9.21,14.87,16.87,21.57,27.19,1.63,2.51,3.2,5.05,4.71,7.63,2.02,3.43,4.21,6.32,6.58,9.47.98,1.3,2.5,5.18,3.59,7.57,1.34,2.93,2.6,5.86,3.79,8.85,5.98,15,11.34,30.65,13.06,46.7,1.82,16.91,1.16,33.97-.9,50.83h27c1.2-63.07-28.81-123.5-76.86-163.76-47.71-39.98-110.87-60.27-172.61-62.3-19.43-.64-38.83.86-58.01,4-9.65,1.58-19.22,3.67-28.65,6.22-4.54,1.23-9,2.76-13.54,3.99s-8.52,1.86-12.64,4.19c-5.8,3.29-8.17,10.84-5.52,16.86,2.81,6.4,9.15,9.18,15.93,7.82,31.08-6.28,62.18-10.18,94.1-9.43,15.59.37,30.5,1.77,45.57,4.77,8.01,1.59,15.94,3.56,23.75,5.94s15.15,3.98,22.39,6.72l-5.96-3.47c6.2,5.97,15.33,7.5,22.64,11.02,3.67,1.77,7.3,3.63,10.97,5.4,1.71.82,3.42,1.63,5.15,2.4,1.91.85,3.68,1.7,4.45,2.41,6.07,5.64,13.89,9.36,20.65,14.17,5.41,3.85,10.73,8.21,16.35,13.43,22.44,20.8,40.82,46.39,50.8,74.81,6.17,17.58,8.95,33.65,9.04,51.8h27c-.34-19.62-7.52-39.08-15.38-56.84-6.8-15.37-15.8-29.44-26.19-42.61-19.96-25.31-46.32-45.82-75.12-60.16-34.87-17.37-73.8-26.73-112.69-28.16-21.07-.78-42.48.9-63.16,5.06-.39.08-3.21.33-.86.22-.73.03-1.46-.02-2.19,0-1.62.05-2.47-.08-4.5.48-5.79,1.59-3.72,1.42-2.26.96-.83.26-1.64.53-2.48.74,2.31-.58,1.24-.11.42-.19-2.77-.27-5.61.26-8.28.88-9.16,2.15-18.23,4.91-27.18,7.8-20.08,6.48-39.73,14.54-58.55,24.09-9.32,4.73-18.43,9.85-27.34,15.31-4.71,2.89-9.37,5.88-13.96,8.95s-8.95,5.67-11.44,10.65l4.84-4.84c-16.27,10.29-30.67,23.03-43.73,37.11-4.55,4.91-5.32,12.38-1.06,17.73,3.84,4.82,11.89,7.49,17.42,3.48,18.64-13.55,37.31-27.14,57.18-38.87,9.46-5.58,19.27-10.53,29.16-15.29,4.74-2.28,9.13-4.31,13.89-6.13,6.48-2.48,12.25-3.86,16.02-10.24l-4.84,4.84c-2.98,1.57,2.07-.63,2.26-.7,1.63-.58,3.26-1.15,4.9-1.72,3.26-1.13,6.53-2.24,9.81-3.32,7.11-2.34,14.26-4.54,21.48-6.52,13.56-3.72,27.36-6.65,41.31-8.49,26.43-3.47,54.36-3.38,80.19.93,49.19,8.22,98.97,30.88,131.28,69.82,2.42,2.92,3.33,3.73,5.32,6.99,2.25,3.7,5.14,6.46,7.69,9.88,3.74,5,7.1,11.74,10.09,17.58,6.69,13.06,11.42,26.6,15.43,41.16,8.68-2.39,17.36-4.79,26.04-7.18-13.54-33.11-34.89-62.52-63.09-84.7-14.13-11.12-29.28-20.6-45.79-27.79-19.12-8.33-38.85-14.98-60.15-18.23-41.79-6.38-84.78-4-125.51,7.53-35.71,10.11-69.67,26.17-100.21,47.26-18.68,12.9-36.24,27.37-52.28,43.44-8.15,8.16-16.27,16.38-23.73,25.18-4,4.72-7.83,9.6-11.46,14.61-.66.92-1.38,1.81-1.97,2.78-.88,1.16-1.5,2.47-1.85,3.93.88-2.04,1.05-2.57.5-1.58.09.06-1.38,2.92-1.68,4.05-.82,3.03-.59,5.72.18,8.71,2.47,9.59,15.69,13.43,22.56,5.96,11.83-12.85,23.79-25.62,36.61-37.5,6.68-6.18,13.56-12.17,20.76-17.75,1.55-1.2,22.53-15.93,21.44-17.04.84.85-4.78,3.46-1.05,1.54.98-.51,1.95-1.15,2.9-1.72,1.89-1.15,3.76-2.33,5.62-3.54,4.36-2.85,8.52-6.03,13-8.69,7.9-4.69,16.1-8.85,24.33-12.92,2.09-1.03,4.18-2.06,6.27-3.09,1.06-.52,2.13-1.03,3.18-1.57,2.25-1.17,1.94-.98,1.06-.66,1.56-.57,3.27-.65,4.85-1.15,2.75-.87,4.82-2.53,7.3-3.79,1.41-.72,6.81-1.76,9.78-2.64,4.17-1.24,8.23-2.99,12.38-4.34,66.03-21.49,140.42-18.57,199.79,20.21,28.81,18.82,51.8,45.58,66.58,77.92,7.77-4.54,15.54-9.08,23.31-13.63-23.54-35.05-56.15-62.67-95.18-78.96-9.9-4.13-19.67-6.72-30.08-9.1-5.17-1.18-10.14-3.05-15.39-4.06-6.63-1.28-13.37-2.08-20.09-2.68-24.81-2.21-49.32-.99-73.72,4.21-13.22,2.82-25.9,7-38.65,11.41-6.09,2.11-12.19,4-18.1,6.6-1.24.55-2.47,1.1-3.68,1.72-.74.36-1.46.75-2.17,1.17,1.13-.16.98-.08-.46.27-.81.29-1.67.49-2.48.78-1.52.55-2.99,1.21-4.41,1.96-2.89,2.49-3.55,2.91-1.98,1.28l6.81-1.84c-4.42.25-8.04,1.2-11.71,3.69-2.62,1.77-5.42,3.24-8.31,4.51.06-.03-3.23,1.52-4.39,2.2-1.78,1.05-3.49,2.24-5.24,3.33-3.21,1.99-6.44,3.93-9.66,5.9-13.16,8.07-25.18,17.66-36.95,27.62-22.6,19.13-41.88,40.88-59.35,64.74-9.45,12.91-17.82,26.53-24.14,41.26-2.41,5.62-2.5,11.75,2.11,16.36s10.86,4.66,16.36,2.11c2.16-1,4.07-2.55,5.72-4.26.96-1.23,1.92-2.46,2.86-3.69.91-1.28.95-1.33.15-.15,2.95-3.8,5.57-7.85,8.35-11.77,4.7-6.64,9.05-12.46,13.61-18.14,9.81-12.23,20.32-23.9,31.54-34.86,10.49-10.25,23.23-21.29,33.69-29.17,6.39-4.81,12.93-9.42,19.6-13.83s13.29-9.12,20.39-12.55l-6.81,1.84c6.45-.37,11.05-3.16,16.57-6.13,4.89-2.63,9.87-5.07,14.93-7.34,8.29-3.71,18-7.12,27.34-9.88,20.28-5.98,41.19-10.1,62.18-10.76s42.05,1.05,62.74,6.73c5.08,1.39,10.09,3.02,15.02,4.88s9.95,5.12,15.4,6.66c1.68.48,3.93.06,5.42.76-.76-.36-4.63-1.92-1.55.16,1.91,1.29,4.13,2.29,6.14,3.43,4.48,2.55,8.9,5.19,13.25,7.97,9.42,6.02,16.45,11.21,24.48,18.88,4.14,3.95,8.05,8.16,11.66,12.61.67.83,6.71,6.14,6.72,6.11l-1.84-1.92c.68.9,1.36,1.79,2.06,2.68,1.23,1.59,1.96,2.49,2.94,3.89l21.2-16.36c-46.03-44.54-112.22-65.46-175.61-57.99-60.43,7.13-115.62,35.52-160.08,76.6-24.35,22.5-45.35,48.77-62.51,77.12-3.78,6.24-1.38,14.83,4.84,18.47,6.68,3.91,14.34,1.19,18.47-4.84,29.51-43.15,66.62-82.91,113.34-108,50.31-27.02,110.94-38.42,166.8-21.08,14.35,4.45,26.3,9.54,39.42,17.4,13.79,8.26,24.67,17.83,36.25,29.41,5.45-7.07,10.91-14.14,16.36-21.2-44.59-32-102.31-41.19-155.65-31.25s-97.05,37.97-133.04,74.47c-9.84,9.98-18.82,20.83-26.88,32.29-3.72,5.28-7.2,10.73-10.44,16.32-1.68,2.9-4.02,6.1-5.08,9.28l-.7,1.36c1.58-1.17,1.11-.41-1.42,2.27-1.2,1.89-2.21,4.11-2.63,6.32l3.47-5.96c-3.49,3.85-5.97,7.79-7.68,12.69-.87,2.49-2.63,6.23-3.79,10.27-1.92,6.7,2.33,15.11,9.43,16.61,5.51,1.16,10.61.4,14.84-3.58,1.31-1.24,2.29-2.74,3.37-4.18-2.9,3.86,1.25-1.81,1.92-2.79,3.55-5.2,6.96-10.5,10.58-15.66,6.84-9.74,12.32-16.98,19.93-25.91,14.65-17.19,31.84-33.47,49.39-46.15,39.93-28.87,87.88-45.31,137.94-42.78,27.28,1.38,56.05,9.31,78.81,24.7,3.47-8.22,6.94-16.45,10.4-24.67-24.18-8.46-50.42-11.69-75.94-9.61-26.71,2.17-51.33,9.8-75.37,21.41l6.81-1.84c-8.25.47-15.35,5.1-22.37,9.19-5.87,3.42-11.59,7.08-17.15,10.98-11.72,8.22-22.87,17.32-33.07,27.37-19.89,19.6-36.6,42.78-48.64,67.98-7.05,14.75-12.76,30.13-16.88,45.95l6.2-8.07-.34.2c6.61,2.69,13.22,5.38,19.83,8.07l-.06-.24v7.18l-.88,2.3-4.84,4.84.44-.24c-3.47.45-6.94.91-10.4,1.36l.49.2c4.94,2.05,13.07-1.27,15.25-6.2,8.8-19.95,18.42-39.62,30.88-57.57s27.68-34.19,44.01-48.34c30.38-26.33,69.92-44.82,109.12-48.28,23.91-2.11,45.17.25,67.74,7.4l3.59-26.52c-22.73-2.98-45.92-.16-67.98,5.71-10.25,2.73-22.09,5.37-30.83,11.56,1.57-1.11,0,.09-.51.35-1.66.84-3.53,1.48-5.25,2.24-2.01.89-4.01,1.81-5.98,2.78-4.14,2.02-8.19,4.21-12.15,6.56-33.05,19.6-59.76,49.3-78.75,82.47-11.63,20.32-21.17,42.16-25.58,65.25-1.36,7.15,2,14.57,9.43,16.61,7.2,1.98,14.49-2.43,16.61-9.43,9.47-31.27,25.2-62.05,46.19-86.62,5.61-6.57,11.59-12.83,17.88-18.75,3.29-3.09,6.67-6.09,10.13-9s5.65-4.76,9.05-6.86c8.28-5.13,14.81-10.53,23.6-14.94,8.28-4.15,16.97-8.3,25.34-10.93,5.06-1.59,10.22-2.39,15.39-3.48,5.96-1.25,11.8-2.92,17.81-3.98,10.33-1.83,21.6-2.56,32.01-1.02l3.59-26.52c-19.22.12-38.35,3.9-56.31,10.71-9.08,3.44-17.97,7.45-26.55,11.99s-15.59,9.48-23.23,14.69-14.98,12.02-21.88,18.39-13.19,13.35-19.04,20.79c-6.25,7.96-12.54,16.01-17.78,24.69-4.96,8.2-9.16,17.04-13.18,25.74-9.48,20.5-16.56,41.77-17.52,64.5-.64,15.15,23,18.42,26.52,3.59,7.65-32.29,19.53-60.09,39.08-87.42,18.05-25.25,43.12-47.35,72.22-61.86,9.31-4.64,19.35-8.46,29.79-11.31,11.28-3.08,22.95-4.24,34.48-5.98l-7.18-26.04c-5.51,1.6-13.15.93-19.7,3.21-1.79.62-3.38,1.46-4.97,2.45.76-.47,3.57-.93.06-.32-.8.14-1.6.35-2.4.53-3.4.79-6.77,1.7-10.11,2.75-13.91,4.36-27.2,10.75-39.74,18.13-23.71,13.94-44,33.88-60.23,55.93-8.62,11.71-15.88,24.33-21.97,37.53-3.05,6.62-1.87,14.54,4.84,18.47,5.83,3.41,15.39,1.8,18.47-4.84,5.36-11.57,11.73-22.63,19.12-33.02.94-1.32,1.91-2.62,2.86-3.93,1.3-1.77-.09.05,1.28-1.68,2.01-2.54,4.08-5.04,6.2-7.49,4.25-4.89,8.72-9.59,13.41-14.06s9.23-8.39,14.11-12.29c1.8-1.44-1.28.96.55-.44.55-.42,1.1-.84,1.66-1.25,1.11-.83,2.23-1.64,3.35-2.44,2.81-2.01,5.68-3.94,8.6-5.79,5.24-3.33,10.63-6.42,16.17-9.24,2.66-1.35,5.36-2.64,8.08-3.87.5-.22,4.15-1.78,2.47-1.09,1.7-.69,3.41-1.37,5.13-2.01,6.46-2.42,13.05-4.47,19.74-6.13,3.58-.89,7.19-1.66,10.82-2.31,1.59-.29,3.19-.54,4.79-.79,2.31-.36-1.78.21.54-.09,1.15-.15,2.3-.27,3.46-.4,7.25-.79,13.5-5.64,13.5-13.5,0-7.45-6.18-13.35-13.5-13.5-21.45-.45-43.15,2.7-63.48,9.6-10.5,3.56-20.76,8.01-30.56,13.2-4.89,2.59-9.67,5.39-14.33,8.37-6.1,3.89-12.39,7.3-14.91,14.48l3.47-5.96c-2.09,2.25-3.2,4.33-4.21,7.22l3.47-5.96c-8.1,6.83-16.2,12.73-22.11,21.73-3.66,5.57-1.63,13.6,3.48,17.42,5.57,4.16,12.57,3.52,17.73-1.06,8.89-7.89,16.3-13.69,26.25-20.21s20.42-12.23,31.31-17.04c3.84-1.69,9.61-3.89,14.74-5.63,5.64-1.91,11.94-2.85,17.41-5.09,1.79-.73-1.6-.18.75-.09,1.86.08,3.76-.13,5.59-.48,3.49-.68,6.9-1.7,10.42-2.28,5.87-.97,12.69-1.21,18.99-1.24,6.66-.03,12.47-5.11,13.26-11.71.83-6.95-3.18-12.49-9.67-14.81-4.35-1.56-8.8-1.97-13.33-2.7-3.49-.56-6.04-2.35-11.26-2.78-9.24-.76-18.41-2.2-27.69-2.72-18.09-1-36.21-.3-54.31-.28l13.5,13.5v-2c-2.23,3.89-4.46,7.77-6.69,11.66,1.51-.72,1.78-.85.81-.38.93-.35,1.86-.68,2.8-1.01.51-.18,6.47-2.4,3.38-1.77,1.31-.27,2.85.07,4.19,0,2.9-.14,5.82-.94,8.68-1.4,7.28-1.15,16.29-1.36,24.28-.91,15.82.9,32.59,5.51,47.22,12.46,4.54-7.77,9.08-15.54,13.63-23.31-23.16-10.91-47.31-17.51-72.81-19.84-15-1.37-18.62,24.01-3.59,26.52,22.64,3.77,46.28,7.56,66.78,17.64,7.96,3.91,17.1.69,19.83-8.07,5-16,10-32,15-48-6.61,2.69-13.22,5.38-19.83,8.07l.43.2c4.02,1.92,9.7,3,13.63,0,2.35-1.79,4.24-3.45,5.68-6.01l-4.84,4.84.31-.24h-13.63l.43.2c-2.23-3.89-4.46-7.77-6.69-11.66.58,13.45-5.75,25.67-11.16,38.19,8.39,2.27,16.77,4.54,25.16,6.81,2.14-24.79-.3-50.25-9.01-73.66-4.29-11.52-9.75-22.73-16.86-32.78-3.56-5.03-7.49-10.07-11.57-14.7-2.49-2.83-5.23-5.24-8.24-7.51,2.81,2.13-4.83-3.41-2.95-2.23-1.62-1.02-3.4-1.76-5.27-2.13-9.28-1.83-20.3,6.16-16.61,16.61,1.41,3.97,3.08,7.69,5.36,11.22l-1.84-6.81c0,6.61,3.17,10.5,6.59,15.73,2.71,4.15,5.27,8.4,7.65,12.74,4.6,8.38,8.2,16.26,11.29,24.73s5.79,17.7,7.87,26.77c2.15,9.38,3.66,18.52,4.6,27.03,8.84-1.2,17.68-2.39,26.52-3.59-1.64-9.25-2.67-18.61-4.72-27.79-1.94-8.7-5.26-17.09-8.66-25.31-3.61-8.74-7.5-17.34-11.49-25.91-1.85-3.98-4.31-7.25-6.81-10.83-2.11-3.02-3.47-6.38-5.46-9.45-2.34-3.59-5.13-6.91-7.97-10.12-1.31-1.49-2.66-2.94-3.95-4.45-1.54-1.78-1.58-1.78-2.49-3.13-5.04-7.42-11.42-13.28-18-19.31s-13.23-11.69-20.45-16.97-12.47-8.83-18.48-14.71c-4.38,7.52-8.76,15.04-13.13,22.56,11.57,3.94,26.05,12.19,35.36,19.9,5.99,4.96,11.59,10.38,16.81,16.14s8.7,10.16,12.94,16.25c18.83,27.04,30.89,59.11,29.98,91.69h27c-.27-31.23-12.14-63.85-28.27-89.51s-37.63-47.45-62.22-64.26c-7.07-4.83-14.43-9.21-22-13.19-8.48-4.46-18.32-10.54-28-10.54l6.81,1.84c-15.32-7.47-31.62-11.05-48.22-14.36-7.14-1.43-14.58,2.04-16.61,9.43-2.09,7.61,2.59,13.99,9.43,16.61,15.45,5.91,31.88,9.83,46.74,17.06,15.08,7.34,29.28,15.79,42.77,25.76,6.13,4.53,11.87,9.96,17.28,15.65,2.79,2.94,5.54,5.9,8.32,8.84,1.4,1.48,2.8,2.96,4.22,4.42.32.34,2.36,2.57,2.47,2.53-.12.05-1.88-4.59-.81-1.6,1.69,4.73,5.23,7.91,8.3,11.74,1.45,1.81,4.26,5.97,5.97,8.77,3.87,6.35,7.13,13.04,10.13,19.84,6.61,15.01,14.53,32.71,14.72,49.97,8.84-1.2,17.68-2.39,26.52-3.59-1.28-4.59-1.73-9.2-3.25-13.75-1.88-5.63-3.39-10.48-7.22-15.21l3.95,9.55c-.11-9.05-5.38-17.97-9.54-25.85-3.73-7.08-7.89-13.94-12.45-20.51-9.49-13.68-20.42-26.41-32.89-37.46-12.44-11.03-26.18-20.76-40.98-28.37-7.96-4.09-16.25-7.65-24.69-10.66-2.78-.99-6.57-3.64-10.97-4.91-4.98-1.44-9.95-2.93-14.96-4.25-10.73-2.82-21.53-3.87-32.34-5.51-12.97-1.97-25.3-3.04-38.28-.49-6.51,1.28-10.6,8.65-9.67,14.81,1.06,7.03,6.38,11.04,13.26,11.71,14.72,1.41,29.29,3.8,43.99,7.34,7.23,1.74,14.39,3.73,21.48,5.97,3.85,1.22,7.68,2.51,11.48,3.87,1.64.59,3.28,1.19,4.91,1.8.63.23,6.49,2.85,3.92,1.49l-4.84-4.84c4.44,7.51,12.76,8.9,19.62,12.32s13.12,7.21,19.3,11.42c11.98,8.16,22.85,17.35,32.85,28.26,4.78,5.22,8.59,9.89,12.15,14.86,4.08,5.7,7.83,11.62,11.27,17.73s6.59,12.47,9.43,18.93c.58,1.33,2.33,5.41,3.03,8.2.45,1.8.89,3.51,1.55,5.25.56,1.66,1.29,3.24,2.21,4.72-.7-3.63-.98-4.23-.84-1.81,8.84-1.2,17.68-2.39,26.52-3.59-10.71-28.92-27.51-55.39-49.93-76.67-24.42-23.18-54.78-39.58-86.97-49.02-20.16-5.91-41.12-9.41-62.12-10.22-7.29-.28-13.5,6.41-13.5,13.5,0,8.01,6.23,12.64,13.5,13.5,8.39.99,16.01,1.94,24.34,3.32,4.06.67,8.1,1.41,12.13,2.24,2.06.42,4.15,1.05,6.22,1.34,1.2.16,1.07-.11.49-.24,1.65.38,3.17,1.51,4.8,2.03,2.16.69,4.43.64,6.59,1.23-1.84-.5,2.39.97,2.91,1.14,3.58,1.14,7.13,2.37,10.64,3.71,6.17,2.35,11.65,4.83,18.4,8.37,12.39,6.5,24.29,14.47,34.01,22.66,5.79,4.88,11.32,10.06,16.59,15.49,1.25,1.29,2.49,2.59,3.71,3.91.24.25,1.25,1.67,1.57,1.71-1.11-.11-1.95-4.52-1.02-1.71,1.61,4.87,5.42,7.94,8.57,11.75.21.26,1.62,2.22,2.57,3.82,1.06,1.79,1.77,3.78,2.82,5.56.68,1.15,1.71,2.25,2.61,3.23.37.41,1.77,2.4,1.05,1.2,1.06,1.79,1.86,3.79,2.82,5.63,4.15,7.99,7.98,14.54,10.16,22.71l24.67-10.4c-23.95-54.2-77.19-91.67-134.36-103.69-9.17-1.93-18.34-2.54-27.64-3.26-10.46-.81-19.86-.74-29.46,4.1-10.36,5.23-7.74,22.03,3.22,24.67,12.52,3.02,24.72,4.08,37,6.62,6.07,1.26,11.74,3.18,17.62,5.07,2.63.85,5.32,1.51,7.99,2.24,1.6.44,3.2.87,4.78,1.38.71.23,4.81,2.13,1.99.64l-4.84-4.84c2.4,4.06,5.18,6.16,9.47,7.89,1.15.46,2.32.88,3.47,1.34.41.16,3.06,1.24,1.6.62,5.03,2.11,9.96,4.5,14.78,7.05,9.42,4.98,19.54,11.39,27.32,17.43,16.42,12.75,30.97,28.86,41.76,46.34,3.82,6.2,12.07,8.59,18.47,4.84s8.69-12.24,4.84-18.47c-11.83-19.18-26.87-36.44-44.44-50.57-9.01-7.24-18.43-13.91-28.47-19.66-4.74-2.71-9.58-5.23-14.52-7.54-2.47-1.16-4.97-2.25-7.49-3.32-1.99-.84-3.98-1.69-5.98-2.49-.72-.29-4.57-2.16-1.54-.57l4.84,4.84c-4.25-7.19-12.09-9.13-19.67-11.18-6.74-1.82-13.22-4.41-20.01-6.03-14.12-3.37-27.9-4.33-41.79-7.68l3.22,24.67c1.9-.96,3.01-1.02,5.6-1.05,3.68-.04,7.34.43,11.01.69,7.07.5,12.88.8,19.69,2.24,7.31,1.54,14.48,3.65,21.55,6.06,3.3,1.12,6.58,2.31,9.84,3.54,4.12,1.55,4.52,1.66,8.28,3.39,11.19,5.15,21.79,11.51,31.65,18.88.46.34.91.68,2.43,1.91,1.13.91,2.25,1.84,3.35,2.79,2.4,2.04,4.74,4.15,7.02,6.32,4.56,4.34,8.88,8.93,12.92,13.75,2.69,3.21,3.12,3.76,5.44,7,1.97,2.75,3.85,5.56,5.63,8.43,3.83,6.16,7.19,12.58,10.12,19.21,2.68,6.06,11.32,7.96,16.86,5.52,6.13-2.69,9.58-9.28,7.82-15.93-2.34-8.79-6.43-16.98-10.67-24.98-1.72-3.25-3.3-6.57-5.03-9.81-1.27-2.39-3.39-3.96-4.77-6.16.82,1.31-.24-1.15-.24-1.15-.44-1.16-1.22-2.26-1.86-3.31-2.25-3.66-4.96-7.11-7.83-10.31-.33-.36-1.75-2.15-2.02-2.16.31.01,2.12,5.14,1.01,1.79-1.05-3.18-2.89-5.53-5.11-8.01-5.41-6.06-11.27-11.77-17.34-17.17-11.91-10.61-24.92-20.17-38.83-28-13.91-7.83-29.45-15.15-45.02-18.94-1.43-.35-2.88-.41-4.32-.7,3,.59-2.79-.97.82.34-2.66-.96-5.05-2.06-7.84-2.68-5.22-1.16-10.47-2.18-15.74-3.08-11.02-1.88-22.13-3.26-33.24-4.57v27c16.23.63,31.54,3.03,47.33,7.14,8.21,2.14,16.31,4.68,24.28,7.59,7.24,2.64,13.56,6.2,20.39,9.79,12.88,6.76,23.65,13.91,33.72,22.88,5.06,4.5,9.86,9.29,14.39,14.33,4.97,5.53,8.06,9.42,11.86,14.84,4.43,6.32,8.47,12.91,12.09,19.72,1.81,3.4,3.5,6.86,5.09,10.36.3.66.59,1.32.88,1.97,1.88,4.23-.39-1.03.6,1.42.81,2,1.59,4.02,2.34,6.04,2.33,6.29,7.82,10.72,14.81,9.67,6.5-.98,11.79-6.41,11.71-13.26-.03-2.42-.19-4.93-.9-7.25-.81-2.64-1.86-3.84-2.45-5.84-1.04-3.48-2.01-6.79-3.41-10.18-2.96-7.15-6.14-14.19-9.76-21.03-7.23-13.65-16.08-26.41-26.14-38.12-10.38-12.1-22.3-22.38-35.09-31.85-6.25-4.63-12.72-8.98-19.49-12.83-3.25-1.85-6.57-3.58-9.96-5.17-2.52-1.18-5.08-2.27-7.65-3.34-.58-.24-6.33-2.89-3.43-1.36l4.84,4.84c-5.04-8.52-16.96-10.93-25.85-13.95-8.14-2.76-16.39-5.2-24.72-7.3-17.88-4.5-36.14-7.36-54.49-9.12l3.59,26.52c9.1-1.79,18.54-.35,27.49,1.04,10.46,1.62,19.35,2.45,29.58,5.17,4.67,1.25,9.63,2.33,14.15,4.03,3.49,1.32,8.14,3.87,12.31,5.4,7.28,2.66,12.87,5.21,20.64,9.43,27.89,15.16,50.71,37.44,66.97,64.22,2.32,3.82,4.52,7.73,6.57,11.7,1.08,2.09,2.13,4.21,3.13,6.34.89,1.88,1.57,4.89,2.9,6.45-1.64-1.92-.82-4.59-.84-1.81-.07,1.86.32,3.59,1.16,5.2.54,1.67,1.47,3.12,2.79,4.34-.44.49-1.83-5.16-1.47-1.96.15,1.35,1.07,3.21,1.5,4.5,1.6,4.81,2.15,9.66,3.5,14.5,4.05,14.54,26.69,11.83,26.52-3.59-.21-19.19-6.92-36.3-13.98-53.22s-14.27-31.99-25.75-45.69c-.48-.58-.99-1.35-1.58-1.83-2.19-1.78.86,3.82.63,1.6-.25-2.5-2.63-5.56-4.27-7.41-3.27-3.7-6.93-7.13-10.32-10.74-6.19-6.59-12.26-13.23-19.29-18.94-14.29-11.59-29.64-21.52-45.98-29.92-9.65-4.96-19.39-9.19-29.72-12.5-9.98-3.19-19.86-6.64-29.64-10.38l-7.18,26.04c8.48,1.69,16.98,3.34,25.32,5.66,4.05,1.13,8.1,2.37,12.01,3.95,1.55.62,2.73,1.26,4.45,2.03,3.34,1.5,6.24,1.84,9.81,1.84l-6.81-1.84c15.87,6.99,32.25,15.3,45.71,25.85,12.96,10.17,25.18,21.72,35.64,34.46,9.59,11.68,18.98,26.73,24.07,40.3,6.33,16.86,11.75,34.07,11.9,51.74.06,7.29,6.16,13.5,13.5,13.5s13.3-6.18,13.5-13.5c1.59-57.08-29.98-114.76-74.9-148.89-12.12-9.21-25.61-16.22-40.01-21.13-13-4.42-22.45,13.45-13.13,22.56,11.81,11.56,25.87,19.56,37.7,30.55,5.54,5.14,11.81,10.69,15.86,16.19,2.46,3.34,5.08,6.51,7.83,9.61,2.46,2.76,4.42,4.86,5.72,6.87,2,3.07,3.35,6.43,5.46,9.45s4.38,5.88,6.06,9.22c3.72,7.38,7.06,15.07,10.19,22.71,3.38,8.25,6.52,16.66,8.35,25.4,1.8,8.62,2.81,17.38,4.34,26.05,1.16,6.52,8.75,10.58,14.81,9.67s12.46-6.5,11.71-13.26c-4.43-39.99-16.31-78.77-39.84-111.81l1.84,6.81c0-3.48-.55-6.4-2.3-9.53-.5-.9-1.09-1.75-1.58-2.66-1.16-2.17.92,2.88-.6-1.4-5.54,5.54-11.07,11.07-16.61,16.61-3.1-2.18-3.94-2.71-2.53-1.56.6.51,1.21.99,1.84,1.45,2.22,1.71.39.06,2.13,1.79s3.41,3.56,4.97,5.48c3.1,3.8,5.7,7.19,8.25,11.14,5.72,8.88,9.79,17.23,12.91,26.56,6.98,20.88,8.41,40.14,6.51,62.13-.5,5.83,4.55,11.54,9.91,13.02s12.91-.81,15.25-6.2c7.19-16.63,15.65-33.17,14.84-51.81-.2-4.5-2.36-9.59-6.69-11.66l-.43-.2c-4.02-1.92-9.7-3-13.63,0-2.35,1.79-4.24,3.45-5.68,6.01l4.84-4.84-.31.24h13.63l-.43-.2c-7.99-3.82-17.07-.76-19.83,8.07-5,16-10,32-15,48,6.61-2.69,13.22-5.38,19.83-8.07-23.14-11.38-47.99-16.15-73.22-20.36l-3.59,26.52c19.9,1.82,40.71,7.46,59.19,16.16,6.59,3.1,14.56,1.84,18.47-4.84,3.44-5.88,1.77-15.33-4.84-18.47-19.24-9.14-39.52-14.93-60.85-16.15-10.54-.6-21.04.21-31.46,1.87-1.12.18-2.27.48-3.4.59,1.85-.17.43-.13-.61-.15-2.35-.05-4.65.13-6.9.8-5.22,1.54-10.51,3.72-15.41,6.04-4.19,1.99-6.69,7.22-6.69,11.66v2c0,7.29,6.19,13.51,13.5,13.5,17.51-.02,35.04-.67,52.54.19,8.62.42,17.23,2.79,25.86,2.7,1.97.3,2.37.24,1.21-.16-1.92-.66-1.12-.3,2.4,1.09,1.37.47,2.61.77,4.07,1,4.53.73,8.98,1.14,13.33,2.7l3.59-26.52c-7.92.04-15.73.65-23.56,1.81-3.81.56-7.51,1.57-11.29,2.22,2.02-.35-.52-.05-1.24-.03-2.06.06-4.05.41-6.05.86-13.05,2.88-25.74,7.71-37.97,13.01-23.7,10.27-45.15,24.97-64.42,42.08l21.2,16.36c2.19-3.34-1.22.98,1.41-1.96.65-.72,1.31-1.43,1.99-2.12,1.88-1.89,3.92-3.62,5.98-5.31,5.05-4.12,9.98-7.12,12.24-13.58l-3.47,5.96c2.09-2.25,3.2-4.33,4.21-7.22l-6.2,8.07c15.74-11.02,32.14-19.83,49.9-25.51,18.2-5.82,34.37-8.04,53.29-7.64v-27c-57.01,6.2-107.4,37.26-141.99,82.52-9.3,12.17-17.23,25.27-23.66,39.17,7.77,4.54,15.54,9.08,23.31,13.63,13.47-29.22,31.15-52.22,56.11-72.48,4.83-3.92,12.71-9.21,19.3-12.97,6.96-3.97,14.83-8.02,21.41-10.58,7.81-3.03,15.86-4.54,23.82-6.98-.76.23,8.59-3.56,3.3-1.79,1.01-.33,2.03-.59,3.07-.78-.94.09-.54.05,1.21-.11,4.94-.42,9.93-.72,14.71-2.11,7-2.03,11.38-9.51,9.43-16.61-2.12-7.72-9.37-10.52-16.61-9.43-10.64,1.61-21.4,2.72-31.86,5.31s-21.21,6.8-31.31,11.21c-17.23,7.51-33.04,17.94-47.58,29.78-27,21.97-48.61,50.8-63.54,82.16-8.69,18.24-15.47,37.32-20.13,56.98,8.84,1.2,17.68,2.39,26.52,3.59.67-15.7,5.59-32.34,12.09-47.01,7.22-16.29,15.54-31.87,26.36-46.07,20-26.26,46.31-47.25,76.43-59.9,17.19-7.22,35.3-11.4,53.62-11.52,6.66-.04,12.47-5.1,13.26-11.71.71-5.98-2.95-13.82-9.67-14.81-11.96-1.77-23.64-2.08-35.65-.56s-23.19,4.32-34.77,6.7c-10.74,2.21-20.14,6.69-30.25,11.06s-19.77,9.45-28.57,16.31c1.28-1-1.13.76-1.43.95-1.01.65-2.04,1.25-3.06,1.87-1.59.97-3.16,1.94-4.66,3.02-4.63,3.32-9.05,7.04-13.36,10.75-7.16,6.16-13.96,12.75-20.34,19.72-12.75,13.92-24.05,29.32-33.42,45.7-10.61,18.54-18.89,38.47-25.08,58.89,8.68,2.39,17.36,4.79,26.04,7.18,6.78-35.52,25.83-69.5,49.13-95.65,5.67-6.36,11.7-12.41,18.11-18.04s11.35-9.43,19.15-14.46c7.13-4.6,14.6-8.67,22.33-12.17,2.74-1.24,6.62-3.17,10.39-5.35-.25.14-3.53,1.21,1.19-.51,1.14-.41,2.29-.8,3.44-1.18,2.86-.97,5.74-1.89,8.64-2.76,22.49-6.77,45.17-10.04,68.62-6.97,6.56.86,12.56-5.79,13.26-11.71.81-6.77-3.12-12.74-9.67-14.81-42.89-13.58-89.89-11.51-131.8,4.62-45.3,17.43-83.2,49.3-112.62,87.57-15.76,20.5-27.42,43.44-37.82,67.02,5.08-2.07,10.16-4.14,15.25-6.2-10.66-4.42-20.6,7.98-17.95,17.81,2.25,8.37,12.36,12.51,19.83,8.07s8.07-14.39,10.48-21.84c1.9-5.89,4.68-13.44,6.64-18.05.53-1.24,2.5-5.59,3.59-7.88,1.39-2.91,2.84-5.8,4.36-8.65,3.12-5.89,6.49-11.64,10.11-17.23,12.96-20.04,31.08-39.81,50.5-54.65,4.6-3.51,11.72-8.44,17.58-12.1,6.47-4.05,13.12-7.91,20-11.23l-6.81,1.84c7.23-.41,12.87-4.07,19.36-6.89,4.12-1.79,10.44-4.06,15.61-5.66,11.37-3.53,23.43-6.02,34.18-7,24.69-2.25,47.09.36,70.36,8.51,6.27,2.2,13.58-1.98,15.93-7.82,2.6-6.47.19-12.99-5.52-16.86-22.78-15.4-50.82-23.67-77.89-27.09s-55.67-1.04-82.37,5.88c-48.73,12.63-92.09,40.24-126.73,76.49-9.35,9.79-17.93,20.24-26.13,31-4.01,5.27-7.89,10.64-11.66,16.09-2.09,3.02-4.14,6.05-6.17,9.11-.88,1.33-1.76,2.67-2.64,4.01,1.5-1.59,1.04-.93-1.38,1.99-.82,1.23-.71,1.07.32-.48l5.96-3.47-.78.31h7.18l-.92-.19,9.43,16.61c.9-3.12,1.76-3.92,3.09-8.16,1.1-3.51-1.03.92.81-2.02l.75-1.2c-.57,1.39.09.59,1.98-2.4,4.42-7.55-.64-1.94-.11-1.27s2.31-3.25,2.8-4.1c1.75-3.07,3.28-6.26,5.03-9.33,5.6-9.83,12.68-20.24,18.92-27.86,14.78-18.07,32.88-34.65,51.27-47.56,41.37-29.02,89.74-44.24,140-38.27,13.66,1.62,28.51,4.61,41.94,9.64s26.25,12.39,37.68,20.59c5.4,3.87,13.72,1.47,17.42-3.48,3.98-5.33,3.8-12.87-1.06-17.73-10.96-10.96-22.76-21.41-35.77-29.91s-25.9-14.55-39.81-19.76c-30.58-11.44-64.49-15.28-96.96-12.29-61.01,5.61-118.1,34.43-162.89,75.49-23.94,21.95-44.46,47.43-62.76,74.19,7.77,4.54,15.54,9.08,23.31,13.63,14.62-24.15,29.88-43.79,50.09-63.81,4.87-4.82,9.89-9.49,15.06-14,2.49-2.17,5.02-4.31,7.58-6.4s5.38-4.32,6.73-5.33c11.16-8.3,22.73-15.97,34.92-22.68,48.13-26.5,105.12-37.22,158.82-23.54,31.14,7.94,59.61,23.24,82.61,45.49,4.8,4.65,12.46,5.25,17.73,1.06,4.89-3.89,7.4-11.82,3.48-17.42-1.45-2.07-3.96-5.22-5-6.57-1.17-1.54-2.17-3.18-3.56-4.53-1.27-1.24-3.05-1.99-4.28-3.24,1.69,1.72-.05-.36-.25-.65-.88-1.29-2.01-2.49-3.02-3.68-1.69-1.98-3.44-3.92-5.25-5.8-7.52-7.84-16-14.72-24.81-21.04-8.36-5.99-17.18-11.3-26.16-16.31-2.78-1.55-5.69-3.44-8.73-4.38-1.57-.49-3.28-.88-4.93-.92-3.68-.09,4.37,2.44.08-.22-5.12-3.16-11.58-5.14-17.23-7.18-44.16-15.97-93.5-14.46-138.59-3.55-11.59,2.8-23,6.32-34.1,10.68-12.36,4.86-23.64,11.24-35.54,16.98l6.81-1.84c-7.94.45-13.88,4.67-20.44,8.77-5.35,3.34-10.63,6.81-15.82,10.4-10.93,7.56-21.52,15.65-31.68,24.22-19.34,16.31-36.94,34.61-52.69,54.4-4.86,6.1-9.59,12.31-14.17,18.63-2.29,3.16-4.53,6.36-6.74,9.58-.44.65-.88,1.31-1.33,1.95,1.35-1.93-1.75,2.31-1.69,2.22-1.59,2.21,2.29-.97-.35.25,6.16,6.16,12.31,12.31,18.47,18.47,6.86-15.98,16.15-30.63,26.56-44.52,9.53-12.72,20.51-25.9,32.28-37.46s24.34-22.51,37.49-32.42c7.38-5.57,15.49-10.11,23.34-14.97,2.01-1.24,3.96-2.59,5.99-3.79-1.14-.89-.15-1.42,2.97-1.59.94-.39,1.87-.8,2.79-1.23,3.4-1.59,6.32-4,9.65-5.61l-6.81,1.84c3.51-.2,6.82-.61,9.91-2.41l2.73-2.11-2.46,1.6c.24.26,3.14-.99,3.5-1.12,5.68-2.13,9.29-4.68,14.75-6.52,10.43-3.53,20.76-7.34,31.38-10.27,22.12-6.12,44.51-9.06,67.5-7.82,10.85.58,20.48,1.2,30.67,3.56,5.14,1.19,10.06,2.9,15.24,3.9s10.15,2.39,15.09,4.13c16.58,5.82,33.74,15.15,48.9,26.66,2.17,1.65-2.37-1.95,1.29,1.01,1.13.91,2.26,1.82,3.38,2.75,2.04,1.71,4.05,3.45,6.03,5.24,3.95,3.57,7.75,7.3,11.4,11.18,7.86,8.34,12.98,14.84,19.13,24,4.06,6.05,11.9,8.69,18.47,4.84s7.89-11.81,4.84-18.47c-30.18-66.03-94.81-110.32-165.76-121.5-38.21-6.02-77.2-3.67-114.6,6.12-9.28,2.43-18.29,5.5-27.35,8.61-3.86,1.32-7.91,1.97-11.74,3.38-2.28.84-5.16,1.67-7.02,3.3-1.11.98-.94.78.15.32-1.12.47-2.5.53-3.67.83-4.71,1.22-9.11,3.91-13.46,6.05-4.65,2.3-9.31,4.58-13.93,6.96-9.09,4.68-17.53,9.91-26.01,15.58-4.28,2.86-8.86,5.29-13.08,8.22-2.14,1.48-2.22,1.63-3.44,2.96-2.6,3.07-2.88,3.58-.84,1.53,1.74-1.51,1.69-1.6-.15-.24-2.41,1.38-4.69,3.22-6.94,4.84-8.87,6.39-17.45,13.21-25.67,20.42-15.53,13.64-29.71,28.7-43.7,43.89l22.56,5.96-.28-1.09v7.18c-.39,1.77-.91,2.08-.28.92l1.36-3.22-.19,1.21c1.4-1.77,2.62-3.69,4-5.47,2.49-3.21,5.65-6.9,8.55-10.16,6.37-7.17,13.13-13.99,19.9-20.77,12.99-13.01,26.79-24.91,41.11-35.2s28.38-18.96,43.56-26.73,29.32-13.58,46.15-18.9c68.86-21.77,147.28-17.96,207.27,23.13,1.97,1.35,3.91,2.73,5.83,4.15,2.09,1.55,1.76,1.29,3.5,2.69,3.53,2.83,6.96,5.78,10.28,8.85,6.63,6.13,12.85,12.7,18.57,19.69.6.73,1.2,1.48,1.79,2.22,1.24,1.54.24.28.94,1.21,1.29,1.71,2.55,3.43,3.78,5.18,2.73,3.89,5.32,7.88,7.75,11.96,2.19,3.68,4.26,7.43,6.2,11.25,1.08,2.13,2.11,4.27,3.11,6.44.4.87.78,1.74,1.18,2.61,1.05,2.33-.18-.52.87,2.06,2.76,6.74,8.98,11.53,16.61,9.43,7.05-1.94,11.37-9.55,9.43-16.61-3.94-14.3-8.93-28.26-15.25-41.69-3.09-6.57-6.54-12.96-10.34-19.14s-8.43-11.69-12.07-16.84c-8.06-11.39-18.31-21.69-28.94-30.7s-22.48-17.45-34.79-24.53c-52.41-30.12-113.98-40.79-173.76-33.39-17.56,2.17-34.84,5.45-51.87,10.25-8.03,2.26-15.99,4.79-23.89,7.46-8.59,2.91-19.26,4.74-24.16,13.04l4.84-4.84c2.14-1.13-.57.06-1.48.39-1.08.39-2.16.8-3.23,1.22-2.95,1.15-5.86,2.37-8.76,3.62-4.93,2.11-9.77,4.41-14.58,6.78-9.66,4.77-19.18,9.69-28.41,15.25-18.73,11.31-36.45,24.19-54.13,37.05,5.45,7.07,10.91,14.14,16.36,21.2,6.96-7.5,14.24-14.71,22.1-21.27,3.43-2.86,6.61-5.25,10.47-7.9,4.48-3.06,9.02-5.54,11.53-10.57l-4.84,4.84c21.44-14.74,45.79-28.59,68.67-38.25,12.13-5.12,24.59-9.5,37.19-13.33,6.2-1.88,12.56-3.31,18.73-5.25,3.8-1.19-1.04-.41,1.6-.33,1.03.03,2.05,0,3.07-.08,4.68-.33,8.51-1.81,12.74-3.76l-6.81,1.84c6.48,0,12.7-1.55,19.08-2.57s12.75-1.71,19.28-2.18c13.31-.97,26.69-.93,39.99.14,24.9,1.99,50.49,8.05,74.1,17.56.85.34,1.71.69,2.55,1.04-2.28-.96,1.86.83,1.84.82,2.52,1.12,5.01,2.28,7.49,3.48,4.94,2.41,9.8,4.99,14.55,7.74,4.35,2.52,8.61,5.18,12.77,7.99,1.89,1.27,3.76,2.57,5.61,3.91,1.11.8,2.2,1.62,3.3,2.42,1.28.97,1.45,1.1.52.37.72.56,1.43,1.12,2.14,1.69,8.15,6.52,15.83,13.65,22.9,21.33,7.57,8.23,11.83,13.67,17.92,23.1,3.23,5,6.23,10.16,8.96,15.45s4.94,10.12,6.65,14.51c4.77,12.28,9.62,25.91,9.84,38.69.13,7.29,6.11,13.5,13.5,13.5s13.54-6.18,13.5-13.5c-.29-59.52-31.04-116.17-76.72-153.53-5.73-4.69-11.67-9.16-17.84-13.26-2.77-1.84-5.64-3.52-8.45-5.3-2.56-1.63-5.38-4.78-8.69-6.56-6.38-3.43-13.29-6.31-19.84-9.44-3.78-1.81-7.62-3.5-11.5-5.07-1.81-.73-3.63-1.43-5.48-2.06-.41-.14-2.02-.93-2.41-.79l2.96,1.47-2.73-2.11c-6.93-4.06-16.3-5.18-23.93-7.56s-15.16-4.32-22.88-5.93c-15.9-3.33-32.15-5.28-48.37-6.02-36.3-1.64-72.7,2.98-108.22,10.15,3.47,8.22,6.94,16.45,10.4,24.67-.24.13-1.74.34-.18,0,.87-.19,1.73-.45,2.61-.64,1.26-.27,2.52-.49,3.76-.83,3.96-1.07,7.85-2.42,11.81-3.52,8.01-2.22,16.12-4.1,24.29-5.63,14.96-2.79,30.05-4.13,45.45-4.25,30.52-.23,60.55,4.74,89.58,14.16,24.67,8.01,47.87,19.38,69.56,35.66,3.26,2.45,9.37,7.63,13.6,11.54,4.95,4.58,9.6,9.43,14.16,14.39,9.66,10.51,17.4,21.51,24.55,34.27,15.38,27.47,23.09,57.84,22.5,89.18-.14,7.3,6.3,13.5,13.5,13.5,8.03,0,12.61-6.23,13.5-13.5,3.9-32.05,1.68-63.59-9.14-94.11-2.82-7.95-5.99-15.78-9.41-23.49-1.43-3.22-2.82-6.51-4.49-9.61-1.21-2.24-2.74-3.93-4.4-5.83-1.03-1.18-.28-.31-.12-.09-.57-.81-.99-1.77-1.49-2.62-6.86-11.88-14.99-23.05-23.92-33.46-17.1-19.93-37.98-36.65-60.29-50.41-12.34-7.61-25.03-13.5-38.33-19.21-6.82-2.93-14.03-6.2-21.34-8.54s-14.49-4.24-21.74-6.37c-17.06-5.02-35.66-7.21-53.33-8.86-8.99-.84-18.07-1.74-27.1-1.87s-18.29.16-27.39-1.03v27c28.18-3.18,57.67-3.1,84.95,1.55,14.46,2.47,28.73,6.05,42.6,10.83,6.49,2.24,12.8,4.76,18.86,7.42,3.17,1.39,6.13,2.06,9.33,3.13,1.38.46.13.11-.06.03.77.35,1.5.8,2.25,1.19,2,1.05,4,2.09,6,3.13,25.55,13.27,48.81,29.12,67.96,50.68,17.65,19.87,32.47,43.03,41.04,68.33,9.77,28.82,12.49,59.49,7.04,88.62,8.84,1.2,17.68,2.39,26.52,3.59-.22,2.2,1.17-2.06,1.27-2.3.88-2.12,1.54-4.14,2.09-6.36.95-3.77,1.78-7.57,2.49-11.39,1.53-8.17,2.61-16.47,3.2-24.77,1.11-15.81.04-31.62-2.54-47.24-5.03-30.53-17.48-60.03-34.68-85.68-30.21-45.04-73.66-79.81-123.36-101.23-27.71-11.94-56.58-20.32-86.38-25.05l-3.59,26.52c13.41,1.17,24.94,2.98,39.01,6.29s27.42,7.5,40.63,12.73c23.38,9.25,49.94,24.78,69.47,41.1,6.02,5.03,11.82,10.33,17.36,15.89,2.88,2.89,5.68,5.84,8.42,8.86,3.27,3.61,6.39,6.39,10.3,9.29l-4.84-4.84c10.24,13.45,19.72,27.48,27.68,42.42s13.54,31.18,17.23,47.86c7.35,33.29,3.67,67.43-8.27,99.32-2.33,6.22,2.08,13.62,7.82,15.93s13.83.6,16.86-5.52c19.81-40.07,25.37-84.77,18.16-128.73-3.53-21.5-10.43-42.27-19.74-61.94-2.2-4.64-5.24-8.74-7.61-13.3s-5.17-9.43-8.04-13.97c-5.9-9.34-12.57-18.21-19.59-26.73-15.17-18.4-32.6-34.76-50.29-50.69-4.38,7.52-8.76,15.04-13.13,22.56,1.29.24,2.5.56,3.76.91.54.15,2.16,1.1.29.1,1.9,1.01,3.69,2.13,5.45,3.37-1.71-1.21,1.84,1.49,2.44,2,2.06,1.73,4.09,3.5,6.18,5.19s4.26,3.39,6.49,4.95c.92.64,1.87,1.21,2.81,1.83.1.07,1.98,1.21.79.3,4.18,3.19,7.87,7.66,11.55,11.41,14.68,14.99,27.58,30.13,38.06,48.21,2.33,4.02,4.79,8.3,5.96,12.05,1.86,5.97,5.38,11.36,7.89,17.08,3.96,9.02,7.01,19.43,8.99,29.42,1.96,9.88,2.59,20.04,3.2,30.73s.38,21.97-.89,31.8c-1.55,12.01-4.81,23.98-9.32,35.19-.26.65-4.56,10.43-3.05,10.94-.59-.2,1.75-5.3-.28-.93-.64,1.38-1.26,2.76-1.88,4.14-2.04,4.49-5.04,10.88-7.39,13.74-4.62,5.63-5.51,13.58,0,19.09,4.93,4.93,14.23,5.48,19.09,0,26.23-29.58,45.64-65.77,52.47-104.96,7.44-42.68,1.89-86.99-13.09-127.45-4.25-11.49-9.15-22.77-14.62-33.73-1.71-3.43-3.4-5.91-5.77-8.95-.2-.26-1.13-1.82-.53-.75-.75-1.34-1.29-2.89-1.97-4.27-2.71-5.49-6.25-10.55-10.49-14.98l3.95,9.55c0-1.34-.04-2.45-.24-3.79-.45-3.02-1.66-5.5-3.71-7.75-.98-1.08-.82-.77-1.37-1.49-2.82-3.71-4.69-8.06-7.52-11.78l1.84,6.81v-2c-7.68,3.18-15.36,6.36-23.05,9.55,15.11,13.91,25.56,30.02,35.34,48.29s18.37,37.54,22.82,58.61,5.49,42.66,3.76,64.11c-1.38,17.19-6.96,38.59-14.22,54.49-4.77,10.45-10.5,20.45-17.09,29.87-3.19,4.56-5.49,7.54-9.05,11.72-.41.48-2.74,2.94-.83,1.21-1.46,1.32-3.33,2.21-4.73,3.61-4.35,4.34-2.59,3.33-1.74,2.35-.58.71-1.21,1.37-1.88,2-1.15,1.05-1.37,1.23-.65.54-5.96,4.18-8.74,11.81-4.84,18.47,3.55,6.06,12.34,8.85,18.47,4.84,33.94-22.18,59.03-54.47,74.11-91.94,16.87-41.91,20.17-87.41,12.91-131.77-2.04-12.49-4.99-24.84-8.71-36.94s-9.32-24.18-13.12-36.6l-24.67,10.4c20.98,34.95,31.52,77.07,30.34,117.59-.62,21.02-5.04,42.16-11.89,62.01-3.17,9.17-6.98,17.52-11.63,25.78-4.21,7.48-10.26,16.71-14.61,22.27-13.34,17.05-28.39,30.25-46.36,40.88-5.74,3.4-8.21,10.75-5.52,16.86,2.42,5.5,9.65,10.47,15.93,7.82,23.35-9.85,44.24-23.47,62.89-40.67,9.06-8.36,17.21-18.05,24.37-28.08,3.69-5.17,7.03-10.57,10.34-15.98,4.06-6.63,8.42-12.35,8.88-20.38l-1.84,6.81c4.98-10.32,10.21-20.26,14.08-31.1,3.6-10.1,6.37-20.47,8.74-30.92,2.69-11.86,4.53-23.79,5.35-35.93s.95-23.21,2.11-34.77c-8.84,1.2-17.68,2.39-26.52,3.59,3.44,8.99,4.32,16.71,4,26.31-.16,4.86-.61,9.7-1.18,14.53-.52,4.44.04,8.86-.22,13.32-.09,1.51-.4,1.83-.98,4.06-.74,2.82-1.13,5.37-1.11,8.27.01,1.99.39-1.84.02.58-.15,1-.42,1.99-.64,2.98-.49,2.22-1,4.43-1.54,6.63-2.02,8.18-4.42,16.27-7.28,24.19-5.03,13.93-12.28,28.4-21.53,41.84-4.67,6.79-8.62,11.67-14.77,18.22-5.57,5.94-11.98,11.88-18.09,16.57-8.12,6.24-16.7,11.92-25.67,16.86-4.48,2.47-9.07,4.76-13.75,6.83-4.36,1.92-10.29,2.86-15.06,5.56-5.8,3.28-8.16,10.85-5.52,16.86,2.87,6.53,9.1,9,15.93,7.82,21.88-3.78,42.63-12.4,62.12-22.86,2.22-1.19,4.49-2.35,6.64-3.66,1.68-1.03,3.24-2.08,4.7-3.44.28-.27,2.34-2.37,1.02-1.21,4.12-3.6,9.23-6.5,13.57-9.88,7.24-5.63,14.13-11.68,20.55-18.24,26.18-26.73,44.62-60.11,55.88-95.64,6.39-20.19,10.22-41.04,12.44-62.08-8.84,1.2-17.68,2.39-26.52,3.59.04.11.82,3.52.59,1.71-.2-1.62-.05.76-.08,1.17-.17,2.34-.4,4.69-.58,7.03-.34,4.52-.64,10.32-1.18,13.89-.76,4.96-3.08,9.47-3.24,14.53,0-.06-.25,3.39.02,1.7.36-2.18-.99,3.37-.86,2.91-.75,2.8-1.53,5.6-2.35,8.38-2.9,9.85-6.05,19.82-10.06,29.29-3.57,8.46-8.69,17.04-13.47,24.99-2.07,3.44-4.25,6.82-6.52,10.12-1.21,1.75-2.44,3.48-3.7,5.19-.7.95-1.4,1.9-2.13,2.83,1.26-1.62-1.39,1.71-1.4,1.71-5.35,6.58-11.13,12.82-17.28,18.66-12.25,11.63-24.25,20.3-39.95,28.5-2.27,1.19-4.57,2.32-6.89,3.41-.84.4-1.69.78-2.54,1.17-.37.17-3.89,1.67-1.9.85-4.29,1.78-8.67,3.37-13.09,4.78s-8.91,2.65-13.45,3.68c-2.5.57-5.01,1.08-7.53,1.53-.92.16-1.84.32-2.76.47-.69.11-1.38.22-2.07.32,1.28-.15,1.09-.13-.58.08-7.23.91-13.5,5.56-13.5,13.5,0,7.29,6.18,13.54,13.5,13.5,61.47-.35,119.91-35.94,155.66-84.69l-4.84,4.84c3.4-2.52,6.29-4.69,8.81-8.21,1.77-2.47,3.44-5.01,5.1-7.55,3.25-4.98,6.33-10.08,9.23-15.26,6.14-10.95,11.38-22.33,16.17-33.93,4.46-10.83,8.31-21.91,11.71-33.12.95-3.12,1.93-6.25,2.75-9.41.73-2.82.62-5.46.93-8.27-.31,2.78.74-2.05.86-2.57.41-1.74.78-3.5,1.16-5.25.76-3.52,1.55-7.03,2.5-10.5-8.84-1.2-17.68-2.39-26.52-3.59-.11,4.79-.36,9.57-.8,14.34-.12,1.3-.25,2.6-.4,3.9-.02.22-.56,4.5-.17,1.6-.35,2.59-.77,5.18-1.23,7.76-1.76,9.91-4.24,19.7-7.37,29.27-5.89,17.99-13.71,34.12-25.02,51.25-6.15,9.3-9.92,14.24-17.11,22.38-6.37,7.21-13.21,14.02-20.48,20.32-1.98,1.71-3.98,3.39-6.02,5.03-.07.06-3.45,2.7-1.38,1.11-.69.53-1.39,1.05-2.08,1.57-4.18,3.11-8.48,6.06-12.89,8.83-8.42,5.3-17.26,10.02-26.43,13.88,2.02-.85-.03,0-.38.13-1.62.62-3.23,1.27-4.85,1.87-2.44.9-4.91,1.75-7.39,2.54-5.4,1.73-10.88,3.19-16.42,4.38-2.79.6-5.59,1.13-8.41,1.59-1.09.18-2.17.35-3.26.5,2.67-.38-2.51.28-2.99.33-5.79.6-11.6.87-17.42.9-7.3.03-13.5,6.18-13.5,13.5,0,8.06,6.23,12.58,13.5,13.5,40.8,5.18,84.83-5.83,119.72-27.15,16.35-10,32.2-21.24,45.89-34.72,7.04-6.93,13.27-14.57,19.38-22.32s12.94-16.06,18.17-24.75c1.53-2.55,2.35-5.41,3.61-8.09.95-2.01-2.21,2.62.91-1.04.89-1.05,1.61-2.31,2.36-3.46,2.89-4.46,5.34-9.17,7.58-13.98s4.23-9.64,6.37-14.44c1.28-2.89,2.62-5.73,3.61-8.73.35-1.07.65-2.16,1.05-3.21-.74,1.92.89-1.57,1.01-1.78l-24.67-10.4c-9.3,33.91-26.12,65.4-49.99,90.89-25.96,27.72-57.78,47.6-94.52,56.15-11.06,2.57-19.34,3.71-30.41,4.24-11.04.53-22.09.08-33.06-1.19-6.57-.76-12.55,5.72-13.26,11.71-.77,6.47,3.04,13.14,9.67,14.81,21.9,5.51,44.73,7.84,67.28,6.37,11.27-.73,22.55-2.29,33.59-4.64s24.37-4.42,32.51-11.89l-5.96,3.47c11.7-4.88,23.34-9.37,34.41-15.64s21.55-13.71,31.59-21.64c4.62-3.65,8.85-7.84,13.5-11.41-1.21.93,1.81-1.24,2.07-1.42,1.75-1.22,3.52-2.21,5.13-3.66,2.59-2.33,4.94-5.03,7.33-7.57,9.24-9.83,17.96-20.14,26.67-30.43-7.52-4.38-15.04-8.76-22.56-13.13-3.8,11.57-13.23,22.52-22.14,32.27s-18.01,19.42-28.32,27.85c-8.31,6.8-20.34,14.51-31.42,19.92-5.85,2.86-9.73,4.45-16.33,6.67-7.6,2.56-15.47,3.43-21.57,9.02l5.96-3.47c-7.5,3.13-17.34,4.29-25.05,5.27-8.97,1.14-18.07,1.53-27.11,1.33-18.01-.4-35.16-3.62-52.41-9.29-6.93-2.27-14.74,2.64-16.61,9.43-2.03,7.39,2.5,14.26,9.43,16.61,10.63,3.6,20.71,8.73,32.12,11.9s23.95,5.32,36.15,6.4c24.08,2.13,48.47-.77,71.76-7.03,40.46-10.89,78.43-32.57,108.34-61.96,8.58-8.43,16.91-17,24.49-26.35,4.14-5.11,8.16-10.35,11.91-15.76,3.39-4.9,6.89-10.85,10.37-14.66l-21.2-16.36c-11.67,22.15-24.96,39.94-42.67,57.29-17.3,16.95-36.05,31.52-58.4,42.31l6.81-1.84c-5.37.31-9.36,2.21-14.08,4.47-2.92,1.4-6.12,2.85-8.14,3.66-6.74,2.7-13.6,5.07-20.59,7.05-14.83,4.19-27.49,6.28-42.29,6.89-28.84,1.19-57-4.27-82.18-17.66-6.43-3.42-14.69-1.62-18.47,4.84s-1.28,14.47,4.84,18.47c40.81,26.66,90.58,34.8,138.39,28.21,45.18-6.23,87.38-26.42,122.87-54.7,20.35-16.21,37.8-35.45,53.21-56.36-2.69,2.07-5.38,4.14-8.07,6.2,6.44-1.73,9.62-6.39,13.13-11.65,2.62-3.94,5.71-7.75,8.39-12.25,2.51-4.2,5.1-8.43,7.89-12.46,3.09-4.47,5.5-8.02,5.5-13.66-2.23,3.89-4.46,7.77-6.69,11.66,1.42-1.01,2.9-1.96,4.08-3.24.49-.58.96-1.18,1.41-1.79,1.83-2.23,1.34-1.88-1.48,1.03l-19.83-15.25c-4.56,12.25-12.32,23.59-19.32,34.92-3.25,5.26-6.68,10.41-10.29,15.42-.83,1.15-1.67,2.3-2.52,3.44-.27.36-2.27,3.01-1.33,1.79-1.87,2.43-3.81,4.81-5.78,7.16-7.52,8.99-15.65,17.48-24.32,25.36-4.47,4.07-9.09,7.98-13.85,11.71-1.21.95-.26.21-.02.02-.55.42-1.11.84-1.66,1.26-1.11.83-2.23,1.66-3.36,2.47-2.43,1.76-4.9,3.48-7.4,5.15-9.56,6.39-19.59,12.11-29.98,17.04-6.17,2.93-8.12,3.76-14.5,6.15-5.36,2.01-10.81,3.81-16.31,5.39s-11.09,2.96-16.71,4.1c-2.71.55-5.42,1.05-8.15,1.49-1.37.22-2.73.43-4.1.63,2.03-.29-1.95.23-2.6.31-12.52,1.41-25.03,1.3-37.61,1.3-15.13,0-31.11-3.32-45.67-8.62-12.94-4.71-27.1-11.02-37.96-19.43-5.76-4.46-13.48-5.61-19.09,0-4.79,4.79-5.63,14.41,0,19.09,32.36,26.89,71.46,42.92,113.24,47.38,40.17,4.29,81.87-4.59,118.62-20.61,9.89-4.31,19.48-9.29,28.7-14.88,4.77-2.89,9.43-5.94,13.99-9.14,2.18-1.53,4.34-3.1,6.47-4.71,1.31-.99,2.62-2,3.92-3,.88-.68,1.76-1.36,2.63-2.04,1.37-1.25,1.63-1.38.79-.37l-6.81,1.84c9.35-.35,16.47-8.44,23.14-14.3,5.6-4.93,11.07-10.01,16.37-15.26,10.75-10.64,20.76-21.97,30.03-33.91l-21.2-16.36c-24.84,37.86-59.8,68.85-101.61,88.9-2.58,1.24-5.18,2.41-7.79,3.58-4.2,1.88,1.1-.43-1.38.6-1.1.46-2.2.9-3.31,1.34-5.75,2.28-11.59,4.34-17.5,6.18-10.92,3.38-22.09,5.97-33.39,7.69-8.95,1.36-23.25,1.86-34.67,2.1-6.4.13-13.05.66-19.41-.27-6.72-.98-13.94-3.16-20.76-4.69-14.54-3.26-26.86-7.1-39.6-13.97-6.49-3.5-12.75-7.43-18.81-11.64-3.09-2.15-6.14-4.36-9.13-6.64-1.85-1.41-.77-.26-2.45-1.9.87,1.09.82.97-.14-.36-.91-1.25-1.87-2.46-2.86-3.64l-19.09,19.09c35.32,37.77,84.84,58.12,135.97,61.49,25.21,1.66,50.88-.99,75.34-7.22,12.71-3.24,25.01-7.64,37.07-12.8,5.79-2.48,11.49-5.18,17.06-8.12s11.8-5.09,18.35-9.14c14.75-9.14,28.84-19.36,42.11-30.53,6.34-5.34,12.47-10.93,18.36-16.75,5.91-5.83,12.67-11.44,17.82-17.94l-21.2-16.36c-7.18,10.2-16.83,19.33-25.94,28.34-1.08,1.07-4.2,3.93,1.01.45-1.55,1.03-3.61,1.33-5.22,2.36-2.59,1.65-5.87,4.76-6.2,8.07l3.75-4.94c-1.4,1.05-2.77,2.12-4.12,3.24-5,4.11-9.92,8.15-15.2,11.92-20.54,14.67-42.91,26.82-65.88,34.74-46.37,15.99-94.51,17.06-140.56-.22-23.61-8.86-46.48-23.85-64.43-42.69-5.03-5.28-14.02-5.07-19.09,0-5.49,5.49-4.76,13.54,0,19.09,12.03,14.03,25.21,25.97,40.27,36.71s30.09,17.95,46.75,24.21c34.11,12.83,71.33,16.35,107.4,11.88,10.21-1.26,20.22-2.74,30.23-5.08,9.66-2.25,21.16-3.52,28.69-10.42l-5.96,3.47c8.15-3.39,17.03-3.35,23.71-9.78l-5.96,3.47c61.67-23.86,111.17-68.36,151.96-119.47-7.52-4.38-15.04-8.76-22.56-13.13-.71,2.74,1-.54-.68,1.58-.65.82-1.22,1.74-1.84,2.58-1.91,2.58-3.26,4.81-4.48,7.84l.62-1.22c-1.98,4-1.85,4.28.39.84,3.85-5.25-.31-1.14-1.83.43-3.4,3.52-4.66,7.74-4.66,12.54l1.84-6.81c-8.71,11.8-18.51,22.73-28.43,33.52-5.15,5.6-10.68,10.78-16.41,15.8-3.11,2.73-6.27,5.4-9.45,8.05-1.36,1.14-2.73,2.27-4.1,3.4-.91.75-1.83,1.5-2.75,2.25-1.42,1.36-1.76,1.57-1.02.62l6.81-1.84c-6.74.25-10.6,3.82-15.29,7.31-3.86,2.87-7.79,5.64-11.79,8.3-8.04,5.35-16.37,10.25-24.98,14.62s-15.18,7.22-23.95,10.37c-9.39,3.38-21.31,4.71-28.78,11.55l5.96-3.47c-3.55,1.48-7.82,1.97-11.58,2.75-4.46.93-8.94,1.76-13.44,2.48-7.92,1.27-15.98,2.06-24.04,2.47-16.58.84-33.76.06-49.89-2.78-29.99-5.29-55.76-15.77-80.05-34.58.49.38,1.39,1.13-.74-.6-.76-.62-1.52-1.23-2.28-1.85-1.51-1.25-3-2.52-4.47-3.82-2.95-2.6-5.81-5.29-8.59-8.07-5.37-5.38-11.72-12.59-15.41-17.48-4.39-5.81-11.65-8.83-18.47-4.84-6.03,3.53-8.89,12.37-4.84,18.47,4.5,6.78,7.57,13.54,12.78,20.36s10.83,13.1,16.33,19.6c9.7,11.46,22.37,21.14,34.74,29.55,24.34,16.54,52.91,27.52,81.68,33.37,2.33.47,4.66.88,7.05.81,2.04-.06.99-.14,3.04.22,5.02.89,10.05,1.66,15.11,2.31,8.47,1.08,16.99,1.63,25.53,1.67,17.14.06,34.31-1.93,51.11-5.23,32.13-6.31,63.59-17.6,92.31-33.34,31.06-17.02,59.1-39.15,85.52-62.59l-21.2-16.36c-1.09,2.37-.37.86.04.34-.47.62-1.17,1.17-1.67,1.76-1.44,1.65-2.4,3.49-2.91,4.18-2.73,3.72-6.42,7.02-9.78,10.15-2.75,2.57-5.6,5.03-8.44,7.5-.45.39-4.89,4.27-4.9,4.26-.2-.22,5.12-2.08,1.64-.98-2.09.66-3.78,1.7-5.5,3.01-12.77,9.77-23.91,19.2-37.97,27.99-27.06,16.92-54.32,28.5-85.6,35.42-57.13,12.64-121.26,4.7-170.59-27.88-3.42-2.26-6.77-4.62-10.03-7.1-1.23-.93-.2-.15.04.03-1.07-.84-2.13-1.69-3.18-2.56-1.4-1.15-2.78-2.32-4.15-3.51-5.96-5.2-11.58-10.78-16.8-16.72-5.62-6.4-8.26-9.88-13.04-17.26-4.48-6.91-8.4-14.15-11.84-21.63-2.77-6.03-11.25-7.99-16.86-5.52-6.04,2.65-9.71,9.33-7.82,15.93,5.27,18.36,15.21,34.49,25.91,50.11,10.02,14.64,22.82,27.71,36.66,38.75,27.19,21.7,58.99,36.9,92.79,45.09,66.7,16.17,136.63,4.83,198.1-24.23,16.76-7.92,32.87-17.23,48.14-27.72,8.41-5.78,16.57-11.93,24.53-18.33,2.86-2.3,7.01-6.08,9.18-7.36,5.19-3.07,10.04-6.99,13.36-12.09,8.32-12.81-10.8-27.64-21.2-16.36-5.66,6.14-11.87,11.69-18.31,17-3.06,2.52-6.15,5-9.23,7.51-.89.72-1.78,1.55-2.72,2.22-.22.16-2.32,1.27-1.09.67-1.66.82-3.31,1.53-4.85,2.57-5.73,3.87-13.13,9.37-20.02,13.71s-13.81,8.38-20.92,12.2c-27.15,14.58-55.88,25.08-86.81,30.81-27.39,5.08-59.95,5.52-87.41.6-31.83-5.7-60.69-16.74-87.12-35.2-14.36-10.03-27.83-22.46-39.23-36.5-5.78-7.12-10.57-14.81-15.1-22.86-4.88-8.66-8-17.88-12-27-2.66-6.07-11.33-7.95-16.86-5.52-6.14,2.7-9.56,9.27-7.82,15.93,18.66,71.04,77.22,123.34,145.23,146.72,74.44,25.59,158.06,13.45,228.6-18.4,20.6-9.3,40.31-20.51,58.94-33.3,10.05-6.9,19.8-14.26,29.26-21.95,2.01-1.63,4.36-3.16,6.11-5.06,4-4.34-8.55,2.13-2.33.65,3.78-.9,6.13-2.36,9.12-4.87,4.36-3.66,8.53-7.73,12.9-10.74-5.45-7.07-10.91-14.14-16.36-21.2-49.14,54.23-113.13,92.73-185.15,106.84-33.79,6.62-73.15,7.27-107.12.5-36.65-7.31-72.83-24.14-100.29-48.04-7.62-6.63-14.73-13.86-21.2-21.62-3.29-3.94-4.57-5.62-7.77-10.21-2.82-4.04-5.48-8.19-7.97-12.44s-4.59-8.16-6.66-12.37c-1.14-2.31-2.23-4.65-3.28-7-.19-.42-1.36-3.14-.59-1.3-.55-1.3-1.07-2.61-1.58-3.92-3.62-9.27-6.52-18.8-8.82-28.48-1.69-7.1-9.76-11.31-16.61-9.43-7.56,2.08-10.73,9.41-9.43,16.61,3.14,17.33,6.25,34.27,13.07,50.6s14.47,31.11,24.78,44.94c10.25,13.75,21.95,26.93,35.21,37.83s27.37,20.49,42.37,28.75c7.11,3.91,14.37,7.65,21.78,10.96,9.06,4.05,18.64,6.47,28.08,9.4,4.2,1.3,8.32,3.3,12.57,4.38,4.57,1.16,8.06,1.1,11.84,2.06,9.3,2.36,18.91,3.51,28.45,4.37,8.94.8,17.84,2.22,26.87,2.76,9.49.57,18.69-.23,28.13-1.09s18.58-1.33,27.83-2.49c4.82-.6,10.13-.92,14.83-2.24.9-.25,2.02-.83,2.81-1.18l1.61-.68c-1.03.3-1.1.35-.22.17,2.45-.52,4.94-.87,7.4-1.35,38.75-7.62,75.26-23.56,110.43-41.11-6.16-6.16-12.31-12.31-18.47-18.47,1.08-1.53,3.49-3.31.49-1.18-1.51,1.07-2.97,2.23-4.38,3.44,3.18-1.32,6.36-2.64,9.55-3.95-9.43,0-18.16,7.62-26.26,12s-15.7,8.07-23.79,11.6c-14.54,6.36-31.52,11.9-47.61,15.94-33.4,8.38-66.59,11.65-101.36,9.05-32.22-2.41-66.1-11.14-95.37-26.15-7.9-4.05-15.68-8.47-23.03-13.45-6.91-4.68-11.36-8.06-17.34-13.09s-11.55-10.21-16.91-15.74c-2.48-2.56-4.89-5.19-7.24-7.88-1.25-1.43-2.47-2.87-3.68-4.33-.6-.73-1.2-1.46-1.79-2.2-.18-.22-1.97-2.52-.94-1.18-5.18-6.74-9.88-13.88-14.1-21.26-2.13-3.72-4.14-7.51-6.02-11.37-1.97-4.05-3.3-7.02-4.49-10-3.33-8.35-6.61-17.09-8.66-25.84-2.44-10.38-2.78-21.34-4.38-32.2-.96-6.55-8.9-10.56-14.81-9.67-6.54.98-11.73,6.41-11.71,13.26.25,62.18,28.94,120.87,75.14,160.98,21.78,18.9,46.47,33.21,73.08,44.14,12.84,5.27,26.96,11.32,40.82,12.38,1.44.11-.26.04-.4.01.87.21,1.73.48,2.6.71,2.02.54,4.04,1.06,6.07,1.56,4.31,1.05,8.65,1.98,13.01,2.8,8.94,1.68,17.98,2.93,27.04,3.8,38.42,3.69,77.2-1.09,114.73-9.37h-7.18l.7.26-8.07-6.2-1.06-2.48,9.43-16.61c-28.18,7.79-56.72,12.28-85.98,11.94-14.13-.16-28.25-1.3-42.14-3.94-6.94-1.32-13.87-2.7-20.78-4.17s-15.05-2.38-21.67-5.14l5.96,3.47c-7.25-6.65-18.67-8.33-27.72-11.86-7.59-2.96-16.05-6.94-23.99-11.32-8.34-4.6-16.42-9.74-24.02-15.5-3.16-2.39-7.29-6.6-11.26-9.13-1.4-.89-2.14-1.38-4.13-1.95-3.31-.96,1.68.6,1.74,1.08-.14-1.21-4.62-4.18-5.53-5.04-25.11-23.61-44.37-52.64-54.2-84.97-1.41-4.65-2.65-9.36-3.69-14.11-.52-2.38-1-4.77-1.43-7.17-.21-1.2-.41-2.41-.6-3.61-.09-.57-.48-3.27-.24-1.49-1.39-10.28-1.68-20.72-1.22-31.08.3-6.64-5.36-12.5-11.71-13.26-5.96-.71-13.85,2.95-14.81,9.67-8.13,56.82,8.46,114.02,43.42,159.3,17.63,22.84,39.48,42.36,63.7,58.01,13.2,8.53,27.39,15.1,41.7,21.52,7.74,3.47,15.5,7.17,23.52,9.96,7.52,2.62,15.3,4.33,23.02,6.21,8.75,2.13,17.35,4.55,26.27,5.96,9.56,1.51,19.19,2.48,28.79,3.68,18.48,2.31,37.11.43,55.6,2.46l-3.59-26.52c2.57-.35-2.31.27-2.86.33-1.51.17-3.02.34-4.53.49-3.46.35-6.93.63-10.4.86-6.54.43-13.09.64-19.64.65-13.39.02-26.78-.83-40.06-2.55,2.46.32-2.4-.35-2.95-.43-1.52-.23-3.04-.47-4.56-.73-3.47-.58-6.93-1.22-10.38-1.92-6.47-1.31-12.89-2.84-19.26-4.58s-13.08-3.83-19.5-6.09c-2.9-1.02-5.78-2.09-8.64-3.2-1.64-.64-3.26-1.3-4.89-1.96-.33-.13-2.38-1.01-.41-.17-.81-.35-1.61-.69-2.41-1.05-12.23-5.38-24.06-11.66-35.32-18.85-5.72-3.65-11.3-7.54-16.7-11.66,1.73,1.32-1.49-1.18-1.93-1.54-1.2-.96-2.39-1.94-3.57-2.92-2.7-2.26-5.35-4.57-7.95-6.95-5.06-4.63-9.91-9.48-14.53-14.55-2.25-2.47-4.45-4.99-6.59-7.55-1-1.2-1.99-2.42-2.97-3.64-.42-.53-.84-1.05-1.25-1.58,1.23,1.57-.55-.73-.76-1.01-4.23-5.63-8.19-11.46-11.86-17.46-2.1-3.42-4.58-6.29-6.93-9.47.82,1.11-.54-1.26-.51-1.2-.48-1-1.06-1.98-1.57-2.96-1.03-1.98-2.02-3.97-2.98-5.98-15.54-32.52-20.69-70.58-14.46-105.72,1.27-7.17-1.94-14.55-9.43-16.61s-13.94,2.61-16.61,9.43c-11.48,29.32-13.17,63.69-9.19,94.71,1.1,8.6,2.51,17.13,4.93,25.46s5.48,15.58,8.37,23.29,5.45,15.44,9.75,22.52c3.9,6.42,7.37,13.06,11.24,19.49,14.42,23.98,33.44,45.05,55.14,62.66,24.78,20.1,51.49,36.74,80.89,49.16,16.17,6.83,32.73,12.57,49.65,17.25,8.66,2.39,17.35,4.36,26.15,6.12,4.19.84,8.39,1.73,12.48,2.97,5.02,1.52,9.97,4.67,15.39,2.91,5.12-1.67,9.02-5.76,9.67-11.22.58-4.85-1.53-11.29-6.45-13.45-8.96-3.95-19.13-1.1-22.03,9.13l13.02-9.91c-18.47.81-36.48-1.61-54.5-5.34-8.94-1.85-17.75-4.41-26.45-7.17-4.45-1.41-8.87-2.89-13.28-4.4-2.2-.76-4.4-1.52-6.6-2.29-.62-.22-6.59-2.66-3.95-1.27l4.84,4.84c-4.51-7.64-13.15-8.83-20.11-12s-13.71-6.87-20.26-10.86c-13.43-8.19-26.06-17.58-38.88-26.68l4.84,4.84c-1.94-2.62-3.46-5.18-6.04-7.3-2.28-1.88-4.52-3.8-6.7-5.79-4.27-3.9-8.32-8.04-12.13-12.38-1.77-2.01-3.33-4.39-5.24-6.26-1.14-1.11-3.57-2.16-4.73-3.37,1.11,1.16-.51-1.38-.88-1.84-3.3-4.11-6.46-8.4-9.66-13.04-6.56-9.53-12.45-19.52-17.4-29.98-2.39-5.06-4.01-9.05-5.94-14.59-2.21-6.33-3.41-12.33-8.08-17.43l3.47,5.96c-3.95-9.49-5.88-22.37-6.98-31.58-1.4-11.75-1.78-23.63-1.08-35.44,1.27-21.23,7.01-43.9,16.39-63.33,3.17-6.56,1.8-14.59-4.84-18.47-5.97-3.49-15.21-1.71-18.47,4.84-11.27,22.65-20.66,46.38-24.15,71.57-3.7,26.74-1.97,53.55,4.48,79.76,10.51,42.68,32.51,81.9,62.9,113.59,8.33,8.69,17.28,16.78,26.68,24.29,5.15,4.11,10.39,8.12,15.75,11.95,5.94,4.25,11.08,8.88,18.4,11.66l-5.96-3.47c3.89,3.18,7.86,5.91,12.24,8.36,3.23,1.81,6.8,3.8,8.76,5.64,5.45-7.07,10.91-14.14,16.36-21.2-23.25-12.93-43.06-27.05-61.93-45.03-9.4-8.95-18.2-18.53-26.32-28.66-6.8-8.49-16-20.32-21.34-31.38l1.84,6.81c-.54-9.5-6.97-17.33-10.98-25.76-3.06-6.44-5.46-12.83-7.76-20.27-4.96-16.08-8.23-33.03-9.04-49.85-1.6-33.27,6.18-68.2,24.38-96.4,8.4-13.02-10.48-27.09-21.2-16.36-2.3,2.3-4.2,4.47-5.79,7.34-1.94,3.5-.71,1.19-.43.85.81-1-1.13,1.13-1.28,1.3-3.92,4.32-6.34,10.08-9.11,15.19-5.13,9.48-10.12,19.14-13.86,29.27-7.19,19.45-11.05,40.6-12.49,61.23s.75,40.91,4.55,61.18,9.38,39.7,18.68,57.92,16.47,38.1,30.73,53.81l-3.95-9.55c0,5.23,1.57,8.83,5.1,12.75,1.57,1.74,3.68,5.22,5.75,8.07l-1.84-6.81c0,3.18.33,5.94,1.84,8.81.45.83.95,1.63,1.49,2.4.95,1.47,1,1.59.15.38l13.02-17.09h-2c3.18,1.32,6.36,2.64,9.55,3.95-33.55-26.15-54.46-61.19-65.79-101.11-5.96-21-8.97-39.07-8.55-60.81.4-20.53,3.9-39.54,11.63-59.75,1.31-3.42,1.26-3.31,2.57-6.22,1.2-2.67,2.47-5.3,3.8-7.9,2.67-5.21,5.62-10.29,8.82-15.2,6.5-9.98,13.36-18.11,22.53-26.92,10.87-10.45-3.36-29.75-16.36-21.2-15.64,10.29-30.15,22.47-42.22,36.82-6.34,7.54-12.21,15.52-17.28,23.98-2.03,3.39-5.31,6.87-7.74,11.56s-4.5,9.06-6.53,13.69c-16.49,37.67-23.57,78.7-19.97,119.73.55,6.22,1.02,12.66,2.27,18.78.53,2.63,1.63,5.09,2.26,7.69.66,2.75.88,5.68,1.44,8.46,2.35,11.56,5.9,22.83,7.56,34.54,7.52-4.38,15.04-8.76,22.56-13.13,1.07,1.25-.31-.88-.56-1.39-.46-.95-.88-1.92-1.33-2.88l1.84,6.81c-.68-5.28-2.68-9.02-4.06-13.1-1.53-4.52-2.94-9.08-4.21-13.67-2.39-8.64-4.31-17.42-5.73-26.27-2.42-15.11-3.08-33.76-1.72-50.49,1.3-16.07,5.02-33.24,10.82-49.61s14.44-32.02,25.07-46.58c5.83-7.98,13.08-15.43,20.14-22.38,1-.98,2.01-1.96,3.02-2.92l1.23-1.15c1.7-1.35,1.66-1.51-.12-.47l-1.36.67c.92-.32,1.82-.68,2.71-1.09,1.95-.89,3.63-1.94,5.25-3.39-.12.11,2.03-1.88,2-2-.16-.55-6.68,4.15,1.36-.3,2.58-1.43,4.58-3.65,6.64-5.7l-5.96,3.47c4.13-1.68,7.56-3.54,10.92-6.51.3-.26,3.12-2.57,1.6-1.56-1.38.92,2.44-.92,2.48-.94-3.47-8.22-6.94-16.45-10.4-24.67-24.45,15.72-44.88,37.06-59.75,62.03-7.42,12.46-12.61,27.36-18.35,39.32-3.56,7.43-5.04,15.78-7.11,23.72-2.36,9.01-3.43,18.61-4.26,27.86-1.77,19.84-.12,39.9,4.26,59.32,3.32,14.73,27.27,11.68,26.52-3.59-1.47-29.83-.2-59.27,7.62-87.97,6.88-25.24,19.73-49.51,36.18-68.8,9.35-10.96,20.83-21.77,31.51-29.57,5.88-4.29,8.79-11.72,4.84-18.47-3.62-6.18-12.25-8.7-18.47-4.84-46.95,29.12-77.99,78.71-89.36,132.27-3.23,15.23-5.04,30.83-5.33,46.39h27c-.26-6.32-.23-12.64.14-18.96.18-3.04.44-6.07.77-9.1.06-.55.48-3.95.22-1.99.22-1.62.48-3.24.75-4.86,2.09-12.49,5.43-24.76,9.93-36.59.5-1.32,1.02-2.62,1.54-3.93.58-1.44.11-.32-.01-.03.36-.87.74-1.73,1.12-2.58,1.24-2.79,2.54-5.55,3.91-8.28,2.84-5.67,5.95-11.2,9.33-16.56,1.63-2.58,3.32-5.12,5.07-7.63.81-1.15,1.63-2.3,2.46-3.44.42-.57.84-1.13,1.26-1.7l.85-1.12c-.53.69-.52.67.05-.05,3.79-4.78,7.81-9.39,12.05-13.78,4.9-5.07,10.1-9.87,15.56-14.33,2.75-2.25,3.39-2.74,6.83-5.18,3.09-2.19,6.26-4.27,9.48-6.26,6.19-3.84,8.59-12.06,4.84-18.47s-11.94-8.14-18.47-4.84c-46.66,23.56-81.98,64.89-101.4,113.04-.4.98-2.14,6.7-1.3,6.96-.66-.2,2.22-4.68.48-2.41-.76.99-1.34,2.65-1.88,3.75-1.91,3.93-3.19,8.11-4.67,12.22-2.73,7.6-3.87,15.78-6.44,23.5,8.84,1.2,17.68,2.39,26.52,3.59.24-31.14,15.07-62.85,33.97-88.2.99-1.31,1.18-1.56.57-.76.6-.77,1.21-1.53,1.83-2.28,1.23-1.51,2.48-3,3.75-4.46,2.22-2.55,4.51-5.04,6.87-7.46,5.02-5.15,10.36-9.98,15.99-14.45,1.28-1.01,1.5-1.18.67-.52.76-.57,1.53-1.14,2.31-1.7,1.55-1.12,3.11-2.22,4.7-3.29,2.78-1.87,5.62-3.66,8.51-5.36,3.32-1.95,6.71-3.78,10.16-5.49,1.74-.86,3.49-1.69,5.25-2.49.89-.4,1.78-.79,2.67-1.18-.98.41-.7.31.83-.33,6.75-2.74,11.52-8.99,9.43-16.61-2.02-7.34-9.46-11.01-16.61-9.43-12.05,2.67-23.45,7.79-34.4,13.4-5.09,2.6-10.11,5.34-15.17,8.01-2.51,1.32-5.27,2.44-7.66,3.95-1.61,1.02-3.42,2.62-4.73,4.11-2.43,2.75,2.88-.78.84-.21-6.21,1.73-11.17,7.18-15.89,11.33-4.31,3.79-8.56,7.66-12.7,11.63s-7.78,7.66-11.49,11.67c-5.25,5.66-10.93,10.92-11.24,19.13l1.84-6.81c-.93,1.93-2.62,3.45-4,5.08-2.44,2.89-4.8,5.86-6.95,8.97-3.27,4.74-6.08,9.78-8.69,14.91-5.14,10.1-9.63,20.52-15.85,30.04l24.67,10.4c2.45-11.81,6.3-22.05,11.54-32.28,2.77-5.39,5.78-10.66,8.89-15.86.14-.23,2.3-3.55,2.2-3.64-2.91,2.82-3.26,3.32-1.03,1.48.76-.56,1.5-1.15,2.21-1.76,3.35-3.32,5.01-7.92,5.18-12.54l-1.84,6.81c-.85.75-.93.74-.24-.04.46-.59.93-1.17,1.41-1.76.94-1.16,1.89-2.32,2.86-3.46,1.6-1.9,3.23-3.77,4.89-5.61,3.62-4.02,7.39-7.9,11.31-11.63s7.89-7.21,12.06-10.56c2.99-2.41,7.4-5.58,11.85-8.47,18.18-11.83,35.49-18.69,57.27-22.27,6.53-1.07,10.57-8.81,9.67-14.81-.98-6.53-6.41-11.74-13.26-11.71-9.97.05-19.84.98-29.69,2.5-9.32,1.44-19.94,2.57-27.11,9.14l5.96-3.47c-8.83,3.68-17.98,6.26-26.69,10.39-8.13,3.86-15.93,8.44-23.24,13.69-7.71,5.53-15.07,11.6-21.76,18.34-3.35,3.38-6.55,6.92-9.57,10.59-.85,1.03-1.72,2.05-2.5,3.14s-3.23,6.92-1.8,3.37c-.15.36-2.43,4.6-1.01,2.34-.77,1.22-1.54,2.39-2.25,3.66-4.17,7.48-.53,17.62,8.07,19.83,2.77.71,5.47.95,8.27.28,1.7-.41,3.26-1.69,4.87-2-3.04,1.15-2.62.94,1.26-.64l2.73-2.11c1.48-1.26,2.86-2.67,4.3-3.98,4.82-4.38,9.77-8.61,14.86-12.67,9.17-7.33,20.27-14.89,30.86-21.58,2.74-1.73,3.87-2.1,7.03-3.3,3.71-1.41,7-3.62,10.49-5.48,5.69-3.03,10.25-5.13,16.03-7.16,6.16-2.17,12.45-3.77,18.84-5.06,3.68-.74,7.21-1.75,10.81-2.79.83-.25,1.66-.49,2.5-.71,1.85-.39,2.23-.51,1.16-.37-1.33.19,2.15.06,2.59.06v-27c-16.43.1-32.87,2.69-48.71,7.03-7.46,2.04-14.8,4.47-22.05,7.15-3.74,1.38-7.44,2.84-11.13,4.35-1.57.64-3.12,1.36-4.7,1.96-1.54.2-2.98.72-4.32,1.56-1.41.67-1.27.58.42-.28h7.18l-1.1-.28,5.96,22.56c3.73-2.96,11.65-6.88,15.93-8.51,3.42-1.31,6.85-2.58,10.29-3.84,1.46-.54,2.94-1.04,4.38-1.62-1.6-.07-1.65-.09-.14-.07h1.55c4.41-.21,8.62-1.88,12.93-2.78,3.6-.75,6.97-1.22,10.63-1.53,8.28-.7,16.59-.7,24.89-.7,13.2,0,18.63-18.58,6.81-25.16-13.71-7.63-29.81-10.82-44-17-2.27,8.39-4.54,16.77-6.81,25.16,14.13-.56,27.74,6.11,38.45,15.05l-2.11-16.36c-3.11,6.62-5.07,13.21-6.22,20.41-.87,5.4-.75,5.53-1.28,10.66-.39,3.82-.04,7.67,1.14,11.34,4.03,12.48,22.3,13.18,26.04,0,2.7-9.53,3.04-19.54,6-29h-26.04c3.96,12.84,6.85,26.22,13.59,38.01,1.86,3.26,4.09,6.27,6.46,9.18.37.45,2.9,3.9,3.36,3.75.6-.19-4.08-6.64.36,1.38,2.13,3.85,6.35,6.6,8.7,8.64,3.47,3,7.05,3.95,11.55,3.95,7.3,0,13.5-6.19,13.5-13.5s-1.58-13.05-8.37-17.06l4.84,4.84-.31-.59,1.84,6.81c-.23-2.13-.38-4.25-1.04-6.29-.21-.66-1.78-5.26-2.91-6-.56-.98-.5-.66.17.96-.42-1.76-1.22-3.29-2.42-4.59-1.52-1.97-3.54-3.24-5.49-4.74l4.84,4.84c.51,1.1.5.96-.05-.43-.63-1.53-1.28-3.06-1.95-4.57-.86-1.51-2.04-2.89-2.99-4.35-2.03-3.13-3.9-6.37-5.67-9.65-3.57-6.6-6.78-13.39-10.34-20l-21.2,16.36c6.55,6.54,13.24,12.65,20.73,18.11l-4.84-4.84c2.52,3.4,4.61,6.28,8.23,8.79,2.75,1.91,5.55,3.75,8.36,5.58,5.51,3.58,11.13,6.99,16.97,10.01,12.74,6.58,25.84,10.85,40.1,12.31,6.59.67,12.54-5.65,13.26-11.71.85-7.11-3.24-12.28-9.67-14.81-25.05-9.88-51.17-22.76-71.04-41.53-4.86-4.59-12.41-5.29-17.73-1.06-4.71,3.75-7.64,12.02-3.48,17.42,14.33,18.55,31.41,33.86,50.84,46.97,8.89,5.99,18.12,11.45,27.52,16.61,4.97,2.73,9.98,5.37,15.02,7.96,2.3,1.18,4.6,2.35,6.91,3.52,3.15,1.59,3.74,1.59,5.82,3.68l-3.95-9.55v2l13.5-13.5c-2.86-.08-5.7-.26-8.54-.58,2.25.25-1.76-.28-2.01-.32-1.16-.2-2.31-.43-3.45-.67-5.25-1.11-10.41-2.66-15.43-4.59-3.05-1.17-2.15-.79-5.76-2.56-2.31-1.13-4.59-2.34-6.83-3.62-4.7-2.69-9.22-5.68-13.55-8.94,1.63,1.23-1.73-1.39-1.73-1.39-.92-.75-1.82-1.51-2.72-2.28-1.98-1.7-3.91-3.45-5.8-5.24-4.11-3.92-8.01-8.06-11.69-12.4-3.38-3.99-4.78-5.78-8.14-10.67-3.13-4.54-6.01-9.23-8.7-14.05-3.25-5.82-10.88-8.15-16.86-5.52-5.53,2.43-10.43,9.63-7.82,15.93,7.84,18.91,18.28,35.47,31.4,50.33,5.9,6.68,12.14,13.07,18.77,19.04,3.32,2.99,6.72,5.87,10.22,8.65,5.21,4.15,9.64,8.14,16.63,8.4l-6.81-1.84c5.42,2.61,10.41,6.45,15.66,9.43s10.28,5.59,15.59,8.05c11.26,5.22,22.88,9.54,34.97,12.36,7.09,1.66,14.62-2.2,16.61-9.43s-2.34-14.77-9.43-16.61c-51.41-13.3-94.53-48.52-117.93-96.8-3.18-6.56-12.53-8.32-18.47-4.84-6.74,3.94-7.99,11.86-4.84,18.47,23.67,49.78,67.98,86.91,119.57,105.2,15.43,5.47,31.39,9.19,47.49,12l3.59-26.52c-8.81-.15-18.29-2.14-27.64-4.49-4.43-1.12-8.84-2.33-13.2-3.71-2.3-.73-4.59-1.5-6.85-2.31-1.28-.46-2.56-.94-3.83-1.44-.57-.22-3.74-1.82-1.25-.51l4.84,4.84c-2.35-3.98-5.23-6.23-9.47-7.89-2.58-1.01-5.31-1.98-6.87-2.68-5.14-2.29-10.14-4.86-15-7.7-10.55-6.17-18.5-12.2-27.3-20.2-4.4-4-8.62-8.18-12.7-12.51l-1.07-1.14c-1.65-2-1.53-1.45.36,1.66-1.16-1.32-1.37-3.66-2.36-5.22-1.88-2.96-4.63-5.49-6.86-8.2-6.28-7.64-13.08-19.46-16.78-28.57-2.74-6.75-8.99-11.52-16.61-9.43-6.6,1.81-11.94,9.72-9.43,16.61,19.74,54.04,62.59,96.26,114.98,119.2,7.89,3.45,15.89,6.64,24.06,9.34,3.61,1.19,7.27,2.49,11.02,3.14,4.88.84,8.6.31,13.14,2.39,3.47-8.22,6.94-16.45,10.4-24.67-13.35-1.84-26.49-4.93-39.22-9.33-3.02-1.04-6.01-2.15-8.97-3.34-.63-.25-1.27-.51-1.9-.77,1.83.74-.29-.12-.55-.23-1.67-.73-3.33-1.47-4.98-2.24-6.19-2.88-12.23-6.08-18.1-9.57-5.66-3.37-11.16-7.02-16.47-10.94-.43-.32-3.54-2.7-2.15-1.61-1.25-.98-2.49-1.98-3.71-3-2.62-2.17-5.19-4.41-7.7-6.72-5.01-4.62-9.79-9.5-14.27-14.64-2.1-2.4-4.14-4.85-6.1-7.36,1.21,1.55-1.3-1.75-1.61-2.17-1.08-1.47-2.14-2.96-3.17-4.47-4.29-6.24-8.19-12.76-11.64-19.5-1.69-3.3-3.28-6.65-4.76-10.05.75,1.72-.19-.41-.26-.64-.37-1.24-.64-2.5-.95-3.75-.74-2.96-1.91-5.82-3.41-8.47-3.28-5.8-10.85-8.16-16.86-5.52-6.3,2.77-9.33,9.2-7.82,15.93,5.04,22.49,14.51,44.09,27.4,63.18,6.63,9.82,14.08,19.15,22.15,27.82,3.8,4.08,7.76,8.02,11.86,11.81,5.75,5.33,11.28,11.31,19.6,11.62l-6.81-1.84c-1.73-.83.5.5,1.01.96.92.83,1.86,1.64,2.81,2.43,2.01,1.67,4.06,3.29,6.11,4.91,5.38,4.25,11.17,7.85,17.07,11.33,10.54,6.21,22.54,14.29,34.82,15.69l-6.81-1.84c1.06.76,2.25,1.22,3.3,2.02l-4.84-4.84.7.98c3.89-6.77,7.77-13.54,11.66-20.31,1.09.28.78.21-.91-.2-1.01-.28-2.01-.59-3-.93-2.04-.64-4.11-1.23-6.11-1.96-3.67-1.33-8.13-3.53-12.2-5.25-5.99-2.54-13.36-6.96-19.44-10.91s-10.53-10.18-17.64-12.97c-1.38-.85-1.43-.79-.15.18-.77-.77-1.54-1.54-2.32-2.3-1.15-1.13-2.31-2.26-3.47-3.38-3.04-2.95-6.1-5.87-9.08-8.88-11.43-11.52-19.11-24.15-26.66-38.85-7.55-14.71-13.2-29.89-15.99-46.64-1.2-7.2-10.1-11.22-16.61-9.43-7.63,2.1-10.63,9.39-9.43,16.61h0Z"/>
    </g>
  </g>
</svg>