<?xml version="1.0" encoding="UTF-8"?>
<svg id="Layer_2" data-name="Layer 2" xmlns="http://www.w3.org/2000/svg" viewBox="0 0 530 530">
  <defs>
    <style>
      .cls-1 {
        fill: none;
        stroke: #00bf80;
        stroke-miterlimit: 10;
        stroke-width: 2px;
      }
    </style>
  </defs>
  <g id="images">
    <g>
      <g>
        <circle class="cls-1" cx="265" cy="265" r="264"/>
        <path class="cls-1" d="m3.59,227.85s24.47-97.09,117.94-113.47c93.47-16.38,150.31,59.81,157.89,78.71s21.6,52.62-28.91,69.27c-50.51,16.64-77.45-14.41-49.48-35.38,27.97-20.97,81.97.03,89.24,28.83,7.4,29.33-5.23,93.03-64.75,128.12-59.52,35.08-115.35,20.5-136.43,9.79-21.09-10.71-85.95-40.63-88.02-122.67l-.07-24.57,2.59-18.62Z"/>
      </g>
      <g>
        <circle class="cls-1" cx="265" cy="265" r="264"/>
        <path class="cls-1" d="m526.41,302.15s-24.47,97.09-117.94,113.47c-93.47,16.38-150.31-59.81-157.89-78.71-7.58-18.91-21.6-52.62,28.91-69.27,50.51-16.64,77.45,14.41,49.48,35.38-27.97,20.97-81.97-.03-89.24-28.83-7.4-29.33,5.23-93.03,64.75-128.12,59.52-35.08,115.35-20.5,136.43-9.79s85.95,40.63,88.02,122.67l.07,24.57-2.59,18.62Z"/>
      </g>
      <g>
        <circle class="cls-1" cx="265" cy="265" r="264"/>
        <path class="cls-1" d="m302.15,3.59s97.09,24.47,113.47,117.94c16.38,93.47-59.81,150.31-78.71,157.89s-52.62,21.6-69.27-28.91,14.41-77.45,35.38-49.48c20.97,27.97-.03,81.97-28.83,89.24-29.33,7.4-93.03-5.23-128.12-64.75-35.08-59.52-20.5-115.35-9.79-136.43C147,68,176.92,3.14,258.96,1.07l24.57-.07,18.62,2.59Z"/>
      </g>
      <g>
        <circle class="cls-1" cx="265" cy="265" r="264"/>
        <path class="cls-1" d="m227.85,526.41s-97.09-24.47-113.47-117.94c-16.38-93.47,59.81-150.31,78.71-157.89,18.91-7.58,52.62-21.6,69.27,28.91,16.64,50.51-14.41,77.45-35.38,49.48-20.97-27.97.03-81.97,28.83-89.24,29.33-7.4,93.03,5.23,128.12,64.75,35.08,59.52,20.5,115.35,9.79,136.43s-40.63,85.95-122.67,88.02l-24.57.07-18.62-2.59Z"/>
      </g>
      <g>
        <circle class="cls-1" cx="265" cy="265" r="264"/>
        <path class="cls-1" d="m53.89,423.57s-51.35-85.95,3.16-163.63c54.51-77.67,148.58-64,167.3-55.99,18.73,8.01,52.48,21.94,28.53,69.42-23.95,47.48-64.96,44.57-60.01,9.97,4.95-34.61,57.98-57.94,83.48-42.72,25.97,15.51,62.09,69.48,44.81,136.38-17.28,66.89-67.07,96.06-89.55,103.4s-89.5,32.04-148.98-24.5l-17.42-17.32-11.33-15Z"/>
      </g>
      <g>
        <circle class="cls-1" cx="265" cy="265" r="264"/>
        <path class="cls-1" d="m106.43,53.89s85.95-51.35,163.63,3.16c77.67,54.51,64,148.58,55.99,167.3-8.01,18.73-21.94,52.48-69.42,28.53-47.48-23.95-44.57-64.96-9.97-60.01,34.61,4.95,57.94,57.98,42.72,83.48-15.51,25.97-69.48,62.09-136.38,44.81-66.89-17.28-96.06-67.07-103.4-89.55-7.34-22.48-32.04-89.5,24.5-148.98l17.32-17.42,15-11.33Z"/>
      </g>
      <g>
        <circle class="cls-1" cx="265" cy="265" r="264"/>
        <path class="cls-1" d="m476.11,106.43s51.35,85.95-3.16,163.63c-54.51,77.67-148.58,64-167.3,55.99-18.73-8.01-52.48-21.94-28.53-69.42,23.95-47.48,64.96-44.57,60.01-9.97-4.95,34.61-57.98,57.94-83.48,42.72-25.97-15.51-62.09-69.48-44.81-136.38,17.28-66.89,67.07-96.06,89.55-103.4s89.5-32.04,148.98,24.5l17.42,17.32,11.33,15Z"/>
      </g>
      <g>
        <circle class="cls-1" cx="265" cy="265" r="264"/>
        <path class="cls-1" d="m423.57,476.11s-85.95,51.35-163.63-3.16c-77.67-54.51-64-148.58-55.99-167.3,8.01-18.73,21.94-52.48,69.42-28.53,47.48,23.95,44.57,64.96,9.97,60.01s-57.94-57.98-42.72-83.48c15.51-25.97,69.48-62.09,136.38-44.81,66.89,17.28,96.06,67.07,103.4,89.55,7.34,22.48,32.04,89.5-24.5,148.98l-17.32,17.42-15,11.33Z"/>
      </g>
    </g>
  </g>
</svg>