<?xml version="1.0" encoding="UTF-8"?>
<svg id="Layer_2" data-name="Layer 2" xmlns="http://www.w3.org/2000/svg" viewBox="0 0 1046.39 728.16">
  <defs>
    <style>
      .cls-1 {
        fill: #009962;
      }
    </style>
  </defs>
  <g id="images">
    <path class="cls-1" d="m518.5,367.8c4.42,27.9,15.2,54.65,31.31,77.86,16.72,24.11,38.56,41.87,62.07,58.93,7.45,5.41,16.75,9.5,25.12,13.25s17.42,6.94,26.59,9.05c3.26.75,5.31-3.71,2.31-5.48-16.43-9.74-34.04-17.14-49.6-28.32-6.98-5.01-13.99-9.98-20.56-15.52-7.14-6.02-13.53-12.99-20.14-19.59-24.19-24.19-41.1-57.51-48.32-90.77l-5.79,1.6c9.87,28.43,25.35,54.85,46.89,76.03,5.39,5.3,11.7,9.56,17.13,14.75,2.34,2.23,3.55,4.18,6.32,6.15,3.45,2.44,6.95,4.81,10.5,7.1,13.62,8.78,28.01,16.32,43.05,22.36,17.04,6.84,34.81,11.4,53.01,13.81,3.35.44,4.08-5.19.8-5.89-36.87-7.86-72.45-21.91-102.8-44.6-15.29-11.43-29.5-25-40.65-40.53s-22.63-32.47-27.45-51.78l-5.48,2.31c23.28,54.7,72.82,94.96,128.86,112.85,15.83,5.05,32.18,8.23,48.74,9.64,3.87.33,3.78-5.59,0-6-15-1.61-29.74-6.28-44.03-10.67-13.66-4.2-26.88-9.71-39.46-16.48-24.71-13.3-46.83-31.39-64.28-53.41-9.93-12.53-18.16-26.34-24.64-40.95l-5.18,3.03c25.59,57.65,79.7,98.86,139.79,115.38l1.6-5.79c-8.55-1.2-16.63-3.88-24.57-7.2-4.31-1.8-8.56-3.75-12.85-5.61-1.94-.84-3.88-1.74-5.85-2.48-4.09-1.54.3.28-1.93-1.32-5.56-3.99-12.09-7.01-17.94-10.73-6.8-4.33-13.35-9.05-19.57-14.17-23.59-19.42-42.33-44.06-54.49-72.1l-5.18,3.03c6.84,11.4,13.57,22.59,22.36,32.61,7.97,9.09,17.08,17.11,26.88,24.17s20.34,14.18,31.53,18.23c12.64,4.58,25.93,10.88,39.61,7.36,1.27-.33,2.2-1.59,2.2-2.89,0-4.18-2.6-6.56-6.24-8.47-5.98-3.15-12.06-6.12-18.04-9.29-12.15-6.43-24.12-13.19-35.84-20.38-2.79-1.71-5.57-3.45-8.34-5.21s-4.12-3.26-6.19-5.47c-1.89-2.02-4.76-3.38-6.99-5.03-2.72-2.01-5.35-4.15-7.9-6.37-9.84-8.56-18.49-18.35-27.34-27.9l-4.24,4.24c24.84,23.52,56.16,37.68,87.32,50.77l1.6-5.79c-34.06-5.28-63.6-25.36-86.68-50.23-2.42-2.6-6.18.7-4.71,3.64,4.89,9.76,9.89,19.47,15.14,29.04,2.51,4.57,5.07,9.1,7.69,13.61,1.51,2.59,3.04,5.18,4.6,7.75.99,1.63,3.79,5.23,3.28,7.29l2.89-2.2c-4.08,0-10.11-8.51-12.36-11.45-3.45-4.49-6.29-9.43-8.67-14.56-4.83-10.39-7.63-21.63-10.07-32.78-.65-2.94-5.04-2.77-5.79,0-2.84,10.56-5.03,21.25-7,32h5.79c-2.41-5.86.45-11.14,1.14-17.03s2.89-11.62,4.86-17.37c.45-1.32-.32-2.66-1.38-3.39-8.55-5.85-17.29-11.48-26.93-15.39-4.67-1.9-9.48-3.31-14.48-4.01-2-.28-4.02-.47-6.04-.5-1.51-.02-5.16.97-6.48.54l.72,5.48-2.21-.73c.36,1.27,1.57,2.2,2.89,2.2,3.41,0,5.97,2.11,9.12,3.11,3.82,1.21,7.73,2.07,11.52,3.41,7.86,2.77,15.38,6.36,22.84,10.07l1.51-5.59c-34.48-.91-71.34,3.89-99.51,25.41-2.46,1.88-1.21,6.68,2.31,5.48,7.72-2.62,14.93-6.35,22.59-9.07s15.6-5.09,23.56-7.06c16.43-4.07,33.19-6.47,50.06-7.77l-.8-5.89c-27.18,5.16-53.68,13.51-77.94,26.98-5.86,3.25-11.47,6.76-17.43,9.73-6.33,3.15-12.14,8.66-17.78,12.95s-10.97,8.45-16.31,12.87c-2.92,2.42-5.81,4.88-8.64,7.4-2.54,2.26-5.41,5.44-8.91,6.07l3.69,3.69c1.27-5.62,5.85-10.63,9.4-15.06,3.83-4.78,8.43-9.26,13.06-13.24,10.26-8.81,22.03-16.8,34.15-22.75,12.54-6.16,24.43-12.06,38.07-15.44s28.78-5.48,43.43-6.3l-.8-5.89c-14.61,3.11-28.75,7.82-42.36,13.99-7.25,3.29-14.33,6.97-21.24,10.92-2.94,1.68-5.05,3.53-7.66,5.58-3.22,2.52-6.88,4.53-10.19,6.96-22.61,16.61-41.59,39.95-55.42,64.23-4.23,7.44-7.71,15.05-10.84,23s-6.25,14.85-6.5,23.21c-.09,3.11,4.03,3.89,5.59,1.51,5.3-8.1,9.47-16.79,13.83-25.4,2.19-4.32,4.44-8.61,6.96-12.76,2.04-3.36,4.58-6.42,6.11-10.04,1.83-4.33,5.27-7.97,8.03-11.8,3.11-4.31,6.01-8.74,10-12.18,5.9-5.11,10.55-11.91,16.11-17.49,24.61-24.66,55.65-41.82,89.17-50.95l-2.31-5.48c-52.77,22.31-94.49,67.97-111.96,122.55-4.67,14.58-8.53,30.82-8.53,46.22,0,3.86,6,3.87,6,0,0-3.43,1.47-6.79,2.47-10.06,1.21-3.97,2.47-7.93,3.78-11.88,2.56-7.71,5.33-15.36,8.38-22.9,6.42-15.85,14.25-31.14,23.6-45.47,19.63-30.07,47.95-54.69,80.28-70.28l-3.03-5.18c-49.85,29.58-83.58,81.88-94.62,138.35-3.17,16.21-4.48,32.73-3.86,49.24.14,3.85,5.98,3.88,6,0,.22-36.38,8.92-73.53,25.81-105.77,8.17-15.58,18.1-29.31,29.89-42.35s24.54-24.73,39.81-33.29c3.38-1.9.39-6.96-3.03-5.18-6.74,3.52-12.59,8.31-18.1,13.51s-11.93,10.72-16.89,16.78c-9.93,12.14-19.41,24.31-27.11,38.05s-13.92,28.58-18.65,43.72c-2.5,8-4.3,16.05-5.92,24.27s-3.59,16.64-4.26,25.09c-.77,9.71-1.94,19.75-1.74,29.48s1.85,19.75,1.18,29.7l5.89-.8c-16.03-62.89,4.13-134.04,47.28-181.92,11.3-12.54,24.19-23.48,38.34-32.7,3.22-2.1.36-7.09-3.03-5.18-34.96,19.75-64.05,49.25-82.69,84.88-4.59,8.78-8.56,17.89-11.87,27.23-1.68,4.73-3.18,9.53-4.5,14.37-.7,2.57-1.4,5.15-1.96,7.75s-.36,4.99-.88,7.49c-2.6,12.51-5.08,24.67-5.73,37.49s-.09,25.33,1.24,37.91c1.48,13.99,3.54,28.12,6.82,41.81,2.99,12.45,7.05,26.59,14.5,37.17,1.94,2.75,6.23,1.12,5.48-2.31-2.31-10.6-5.24-21.05-7.82-31.59-2.78-11.35-4.09-22.97-5.41-34.57-2.48-21.85-2.99-43.88.83-65.63,1.85-10.5,3.62-21.1,6.13-31.47,2.31-9.54,5.88-18.81,9.77-27.81,7.55-17.5,17.17-34.22,29.1-49.1,6.56-8.18,13.78-15.83,21.57-22.85,1.89-1.7,3.85-3.3,5.75-4.98s3.16-3.95,5.09-5.68c4.31-3.87,10.01-6.39,14.61-9.93l-3.64-4.71c-34.29,34.01-53.74,80.16-57.97,127.98-2.13,24.08-.39,48.54,5.05,72.09,2.67,11.57,5.82,24.18,11.15,34.85.74,1.48,1.82,2.29,2.65,3.54,1.31,1.99,2,4.69,2.98,6.88,3,6.72,6.21,13.34,9.69,19.82,14.05,26.21,32.48,50.41,57.07,67.54,1.91,1.33,4.51-.45,4.51-2.59,0-2.44.19-4.17-.98-6.26-1.53-2.73-3.58-5.42-5.33-8.03-.64-.96-3.57-4.04-3.69-4.33-.28-.68.03-1.75-.26-2.53-.45-1.19-1.37-1.78-2.17-2.66-.62-.68-1.21-.92-1.57-1.68-.24-.51-.18-1.42-.41-2.01-.91-2.34-3.3-4.66-4.73-6.77-3.54-5.22-6.92-10.56-10.12-15.99-12.13-20.56-21.79-42.55-28.52-65.46-12.86-43.76-15.02-90.97-2.56-135.08,7.13-25.25,19.04-48.81,34.93-69.67l-5.18-3.03c-28.43,47.04-35.44,104.95-23.2,158.2,12.35,53.74,43.7,100.32,83.01,138.11,11.37,10.93,23.65,20.05,36.65,28.94,3.15,2.16,6.3,4.32,9.41,6.54,2.4,1.71,4.76,2.4,6.59,3.84,5.44,4.27,11.78,7.45,18.32,9.77,3.25,1.15,5.2-3.81,2.31-5.48-5.58-3.22-11.27-6.24-16.84-9.48-3.09-1.8-6.14-3.66-9.1-5.67-3.3-2.25-6.17-5.17-9.45-7.38-2.25-1.51-4.78-2.37-7-4s-4.4-3.48-6.56-5.24c-5.16-4.2-10.22-8.53-15.16-13-18.47-16.69-35.28-35.3-49.06-56.07-6.69-10.08-12.67-20.63-17.82-31.58-2.68-5.69-5.12-11.49-7.33-17.39-1.15-3.08-1.97-6.4-3.29-9.4-.78-1.76-1.88-2.92-2.53-4.72-4.67-13.06-7.1-27.52-8.78-41.24s-2.11-26.55-1.42-39.83c1.62-31.18,10.17-61.64,25.43-88.9l-5.18-3.03c-15.99,32.03-23.11,67.69-21.14,103.42,1.03,18.68,4.87,37.19,10.61,54.96,2.81,8.7,5.74,17.53,9.68,25.79,1.74,3.64,4.04,6.98,5.99,10.52,1.37,2.49,1.77,5.15,3.28,7.76,8.64,14.95,18.25,29.55,29.46,42.73,11.23,13.19,23.91,24.78,37.09,35.96s27.78,20.51,42.7,29.12c7.3,4.21,14.82,9.39,22.82,12.05,1.5.5,4.17.83,5.51,1.72.65.43,1.02,1.43,1.78,1.92,3.47,2.27,8.48,3.22,12.37,4.69,20.3,7.7,40.67,14.29,61.96,18.67,19.63,4.04,40.96,7.31,60.95,3.98,1.56-.26,2.54-2.27,2.1-3.69-.1-.35-.23-.69-.4-1.02-.62-1.01-.72-.77-.27.73.47-1.46-.56-3.38-2.1-3.69-18.02-3.63-35.94-7.78-53.64-12.78-17.76-5.02-35.9-10.42-52.61-18.32s-31.42-14.76-46.21-24.35-28.6-19.34-41.66-30.47c-45.36-38.66-78.26-92.47-87.11-151.81-2.47-16.57-2.92-33.46-1.43-50.14.79-8.8,2.16-17.54,4.07-26.17.88-3.99,1.88-7.96,3-11.89,1.18-4.16,3.35-7.83,3.79-12.17.34-3.34-5.27-4.11-5.89-.8-5.9,31.23-4.45,63.34,4.23,93.92,4.33,15.23,10.36,30,17.77,43.99s16.21,28.38,26.94,40.21c5.5,6.06,10.27,12.66,16.16,18.38,6.18,6.01,12.8,11.57,19.31,17.22,2.33,2.02,4.98,3.04,7.44,4.87,3.28,2.43,6.44,5.01,9.74,7.41,6.54,4.74,13.29,9.19,20.23,13.31,27.26,16.17,57.29,27.11,88.11,34.22,40.2,9.28,80.82,12.47,121.75,6.15,2.89-.45,2.84-5.3,0-5.79-17.3-2.99-34.73.73-52-1.78s-34.55-3.19-51.62-7.15c-30.65-7.11-59.95-16.72-87.6-32.01-53.29-29.46-97.55-74.74-118.79-132.5-11.6-31.54-15.76-65.57-10.89-98.89l-5.89-.8c-.94,40.9,8.81,81.84,29.91,117.01,16.96,28.26,39.62,52.83,66.05,72.5,50.45,37.56,113.44,55.54,175.92,56.21,35.46.38,70.94-4.72,104.92-14.84,3.71-1.11,2.17-6.61-1.6-5.79-36.74,8.09-74.32,12.35-111.95,10.1s-71.26-10.36-104.48-23.78c-54.61-22.06-101.45-62.28-128.15-115.19-14.57-28.88-22.26-60.86-21.64-93.23h-6c1.56,75.62,50.02,140.81,113.49,178.39,33.46,19.82,70.92,32.22,109.45,37.22,19.92,2.58,40.06,3.21,60.11,1.99,19.22-1.17,38.48-2.95,57.34-6.86,45.79-9.5,89.54-27.31,129.14-52.15,2.82-1.77,1.04-6.44-2.31-5.48-8.32,2.36-15.01,7.94-23,11s-16.33,7.25-24.66,10.6c-17.19,6.9-34.77,12.82-52.67,17.56-36.27,9.61-73.84,14.22-111.37,12.53-73.99-3.35-148.93-33.25-197.42-90.7-26.51-31.41-44.35-69.94-48.08-111.09l-5.89.8c4.18,21.47,12.36,43.1,24.21,61.53,10.97,17.06,21.97,33.41,36.87,47.39,30.72,28.8,69.67,49.4,110.3,60.04,42.89,11.23,87.88,12.44,131.48,4.85,11.79-2.05,23.47-4.69,35.03-7.76,9.81-2.61,21.38-4.66,30.12-9.76,3.93-2.29,8.81-3.29,13-5.14,2.15-.95,4.5-1.12,6.67-2.05,2.29-.98,4.5-2.4,6.72-3.56,4.22-2.2,8.69-3.56,12.95-5.74,4.97-2.54,9.91-5.16,14.79-7.87,20.07-11.12,39.31-23.71,57.4-37.84,9.41-7.35,18.49-15.11,27.19-23.29,4.28-4.03,8.47-8.15,12.56-12.37,3.31-3.42,7.59-6.22,7.59-11.22,0-2.7-3.23-3.82-5.12-2.12-15.59,14.04-32.17,26.87-49.14,39.19-4.15,3.01-8.31,5.99-12.48,8.96s-8.57,4.64-12.81,7.34c-8.09,5.15-16.34,10.04-24.76,14.64-34.22,18.69-71.1,32.61-109.4,40.1-77.19,15.09-161.99,2.42-225.69-45.86-36.46-27.64-66.17-66.99-76.71-112.04l-5.79,1.6c25.79,70.5,88.58,119.89,159.86,139.4,70.07,19.19,144.86,7.79,209.59-23.66,9.43-4.58,18.66-9.58,27.66-14.97,9.13-5.46,17.64-11.76,26.59-17.48,2.09-1.34,4.69-2.07,6.7-3.51,2.19-1.57,4.01-3.55,6.27-5.1,4.39-3.02,8.74-6.06,12.94-9.35,9.21-7.2,17.81-15.1,26.4-23.02,2.47-2.28-.79-6.65-3.64-4.71-7.87,5.37-14.86,11.83-22.18,17.9s-14.96,11.65-22.73,17.04c-14.65,10.15-29.96,19.35-45.84,27.44-31.72,16.17-65.81,27.89-100.97,33.68-34.62,5.71-70.35,5.4-104.7-1.93-17.59-3.76-34.83-9.28-51.28-16.57s-31.26-16.56-45.9-26.81c-16.39-11.48-30.91-25.77-42.75-41.9-12.08-16.46-19.69-34.57-28.55-52.78l-5.18,3.03c8.75,17.22,19.09,32.39,31.83,46.9,11.57,13.17,25.11,24.72,39.73,34.37,29.54,19.5,63.96,31.72,98.88,36.89,69.99,10.35,141.24-7.7,201.1-44.48,8.75-5.37,17.25-11.13,25.5-17.24,4.05-3,7.95-6.53,12.31-9.06,1.22-.71,2.62-1.02,3.61-2.06.9-.95,1.12-1.53,1.96-2.14,8-5.73,15.17-12.96,22.33-19.85,4.11-3.95,8.15-7.96,12.11-12.07,3.03-3.14,6.22-5.27,6.22-9.78,0-2.81-3.19-3.68-5.12-2.12-14.21,11.45-27.26,24.29-41.8,35.33-14.09,10.7-29.66,19.37-44.86,28.37-3.62,2.14-7.31,4.94-11.26,6.33s-7.31,3.08-11.02,4.97c-7.66,3.89-15.52,7.36-23.54,10.43-15.92,6.08-32.39,10.62-49.05,14.15-61.92,13.15-128.93,5.91-183.92-26.67-14.91-8.83-29.85-19.47-41.6-32.32-12.7-13.89-25.03-27.79-33.23-44.98l-5.18,3.03c19.26,27.19,46.25,47.3,75.49,62.73,3.46,1.83,6.96,3.86,10.58,5.35,3.33,1.37,6.88,1.89,10.28,3.31,8.26,3.45,16.8,6.14,25.47,8.31s17.69,2.97,26.75,4.24c8.42,1.18,16.88,1.98,25.38,2.32,33.45,1.34,66.93-4.39,98.31-15.92,31.66-11.62,63-28.54,89.15-49.93,15.3-12.52,30.01-25.35,43.47-39.89,6.39-6.91,12.45-14.11,18.16-21.59s12.23-15.03,15.73-23.35l-2.1,2.1.91-.19c1.33-.05,2.53-.9,2.89-2.2,1.41-5.1,5.62-8.28,6.11-13.8.23-2.53-3.48-4.05-5.12-2.12-11.45,13.45-22.77,27.02-34.75,40s-25.2,26.89-39.93,37.39c-25.18,17.95-50.35,35.92-78.97,48.6-58.21,25.78-125.09,32.19-185.82,11.36-18.42-6.32-35.66-15.12-51.94-25.76-16.08-10.51-31.8-24.18-42.88-39.98l-4.1,4.1c2.79,2.08,4.12,5.04,6.39,7.53,2.75,3.01,6.49,5.62,9.55,8.34,5.34,4.75,11.05,8.97,16.97,12.97,12.04,8.12,24.86,15.02,38.25,20.63,26.56,11.11,55.19,16.8,83.96,17.12,57.08.64,113.46-19.51,160.26-51.54,25.58-17.51,48.46-38.68,68.26-62.51,2.44-2.94-1.36-6.9-4.24-4.24-11.48,10.59-22.03,22.14-33.56,32.68s-23.43,18.93-35.93,27.15c-24.51,16.12-50.9,28.79-79.07,37.09-50.79,14.97-104.91,15.3-154.65-4.05-27.05-10.52-51.55-26.84-71.54-47.88l-4.24,4.24c42.38,36.27,96.22,55.48,152.11,52.79s110.55-25.5,155.73-59.84c25.83-19.64,47.46-43.91,65.87-70.56,1.76-2.55-1.64-5.54-4.1-4.1-4.81,2.81-8.17,7.72-11.63,11.98-4.4,5.41-8.95,10.7-13.66,15.84-9,9.83-18.56,19.16-28.65,27.86-19.69,16.99-41.48,31.6-64.91,42.91s-49.53,19.51-75.82,22.98c-12.59,1.66-25.33,2.27-38.03,1.87-6.49-.21-12.97-.68-19.43-1.42-3.56-.41-7.11-.9-10.64-1.48-3.86-.63-7.95-.58-11.72-1.43-7.95-1.81-16.28-3.93-23.94-6.73-3.54-1.29-6.76-3.36-10.41-4.23-4.25-1.01-7.96-2.92-11.89-4.88-15.23-7.61-30.05-16.23-42.64-27.8l-3.64,4.71c24.32,17.36,52.45,29.03,81.93,33.97,14.61,2.45,29.47,3.36,44.27,2.63s30.6-2.48,45.15-6.32c15.19-4.01,30.16-8.85,44.51-15.27,3.67-1.64,7.3-3.39,10.86-5.25,2.38-1.24,4.51-1.54,6.85-2.54,6.52-2.79,12.8-7.51,18.72-11.4,23.22-15.27,44.58-33.48,62.97-54.34,20.53-23.28,37.12-49.66,49.14-78.27,1.14-2.71-3.22-5.23-5.01-2.92-8.55,11.03-15.5,23.12-23.38,34.61-8.01,11.69-17.37,22.49-26.94,32.93-17.75,19.36-37.44,36.94-59.36,51.47-5.27,3.49-10.65,6.81-16.13,9.95-4.89,2.81-10.06,4.45-15.18,7.05-6.38,3.23-12.9,6.17-19.59,8.7-5.43,2.05-10.39,4.65-15.89,6.16-28.48,7.82-58.61,12.78-88.2,10.08-32.05-2.92-63.83-12.43-90.69-30.42l-2.31,5.48c3.05,1.18,5.42,3.25,8.28,4.7s5.87,2.28,8.75,3.37c6.17,2.35,12.32,4.31,18.77,5.77,12.59,2.85,25.08,6.33,38,7.27,26.42,1.91,52.17-.89,77.69-7.83,46.95-12.77,88.24-39.94,120.98-75.69,8.78-9.59,17.62-19.73,24.88-30.54,1.6-2.38,1.18-3.69,2.86-5.34,2.18-2.13,3.85-5.09,5.45-7.62,2.83-4.47,6.43-9.65,7.14-14.99.42-3.21-4.12-3.71-5.59-1.51-7.63,11.41-15.5,22.66-24.07,33.38s-18.12,20.41-27.89,29.83c-4.05,3.91-8.79,6.63-12.96,10.33-4.61,4.09-9.38,8-14.3,11.71-8.93,6.72-18.34,12.82-28.11,18.24-38.51,21.37-83.05,32.17-127.09,28.95-25.15-1.84-49.81-8.44-72.47-19.51l-2.31,5.48c38.65,13.17,80.85,14.97,120.37,4.5,9.54-2.53,18.86-5.77,27.92-9.67,4.85-2.08,9.62-4.35,14.29-6.82,2.09-1.1,4.11-2.33,6.2-3.42,1.67-.87,2.93-.82,4.63-1.46,4.56-1.7,9.01-6.06,13.03-8.81,5.08-3.48,10.19-6.91,15.22-10.47,8.3-5.87,16-12.96,23.18-20.15,15.5-15.54,31.57-33.79,38.86-54.8.88-2.53-2.25-4.65-4.41-3.39-3.4,1.99-5.56,4.73-7.72,7.96-2.88,4.32-6.23,8.31-9.59,12.27-6.29,7.4-12.95,14.48-19.96,21.2-14.23,13.63-29.88,25.74-46.73,35.97-32.75,19.87-70.09,32.56-108.48,34.44-21.67,1.06-43.3-1.38-64.21-7.13l-.8,5.89c12.17,1.26,24.43.96,36.64,1.2s22.95-2.47,34.6-5.23,22.22-5.53,32.8-9.97c2.36-.99,5.03-2.79,7.47-3.41,1.05-.27,2.06-.18,3.09-.56,4.43-1.64,8-5.26,12.49-6.59,4.03-1.2,7.69-3.98,11.23-6.25,4.74-3.05,9.38-6.25,13.9-9.62,8.24-6.13,16.1-12.76,23.51-19.87,14.99-14.38,27.29-30.33,38.72-47.44,14.26-21.35,25.21-45.58,31.43-70.46.79-3.15-4.06-5.54-5.48-2.31-8.45,19.15-15.62,38.55-27.09,56.19-11.28,17.34-23.19,33.78-37.56,48.71-28.02,29.1-63.13,50.81-102.32,61.03-23.3,6.08-47.46,8.73-71.43,5.59v6c44.31.32,87.38-15.3,122.59-41.93,17.2-13.01,32.47-28.32,45.52-45.48,6.67-8.77,12.73-18,18.1-27.62,2.56-4.58,4.96-9.26,7.19-14.01,1.17-2.49,2.29-4.99,3.37-7.52.88-2.05,1.52-5.08,2.75-6.86.35-.51,1.32-.92,1.76-1.48.55-.69,1.17-2.63,1.39-3.2,1.38-3.53,2.39-7.18,3.56-10.78,2.65-8.23,5.26-16.29,7.28-24.72,3.81-15.88,6.39-32.05,6.5-48.41.02-3.38-5.01-4.08-5.89-.8-3.42,12.71-4.84,25.95-8.52,38.54-1.8,6.15-3.59,12.34-5.48,18.46-.95,3.08-2.38,5.76-3.84,8.62-1.31,2.56-1.06,4.75-1.98,7.46-6.65,19.55-18.38,38.55-30.3,55.28-24.02,33.72-56.25,62.12-94.18,79.11-21.99,9.85-45.73,15.42-69.81,16.32l.8,5.89c22.55-4.03,44.41-10.25,64.83-20.81,18.33-9.49,34.78-22.3,49.43-36.78,28.78-28.42,50.02-65.2,61.42-103.94,6.62-22.5,9.81-45.92,9.52-69.36-.04-3.25-5.32-4.24-5.89-.8-1.99,11.96-3.51,24.13-6,36s-5.82,22.72-9.62,33.69-7.64,21.09-12.41,31.24c-2.19,4.65-4.32,8.66-7.49,12.65-2.81,3.54-4.66,8.15-7,12.03-19.38,32.18-47.61,58.78-80.7,76.51-18.69,10.01-38.82,17-59.68,20.79l1.6,5.79c39.02-11.17,71.57-36.94,96.55-68.25,25.36-31.79,39.74-71.71,45.66-111.65,1.66-11.22,1.08-22.99,1.44-34.31s-.51-23.45-4.55-34.49c-1.18-3.24-5.57-2.61-5.89.8-1.94,20.39-1.28,40.94-5.07,61.14-3.48,18.6-8.1,37.02-14.88,54.71-12.87,33.57-34.44,64.32-61.35,88.21-16.27,14.44-35.2,25.89-55.22,34.35l3.03,5.18c20.35-11.78,39.62-28.11,54.02-46.78,2.54-3.29,5.11-6.89,7.15-10.47,1.2-2.1,3.01-3.62,4.36-5.62,1.83-2.71,3.32-5.73,4.94-8.58,5.89-10.34,11.46-20.88,15.67-32.02,1.05-2.78,2.01-5.59,2.88-8.43s1.12-6.34,2.36-8.9c.51-1.05,1.51-1.8,2-3,1.26-3.08,1.74-6.73,2.48-9.97,2.72-11.9,4.63-23.99,5.69-36.15,2.11-24.18.66-48.64-4.31-72.4-2.84-13.58-6.86-26.92-11.95-39.83-2.57-6.52-5.39-12.94-8.47-19.24-1.64-3.35-3.35-6.66-5.13-9.93-.6-1.1-1.2-2.19-1.81-3.28-.47-.84-3.38-4.63-3.38-5.18,0-3.86-6-3.87-6,0,0,4.22,2.14,7.7,3.71,11.61,2.33,5.77,4.51,11.6,6.55,17.48,3.95,11.44,7.32,23.08,10.01,34.88,5.56,24.39,8.13,49.45,7.13,74.46-1.73,43.42-14.88,86.27-40.12,121.87-13.75,19.39-31.01,36.12-50.79,49.29l3.64,4.71c33.94-32.33,56.46-75.75,62.71-122.26,3.41-25.38,2.62-52.66-2.23-77.8s-14.03-51.1-26.3-73.58c-3.78-6.93-7.73-13.75-11.7-20.57-1.41-2.43-2.28-3.33-4.08-5s-3.25-4.74-4.75-6.99c-3.64-5.48-7.53-10.8-11.79-15.8-3.33-3.91-7.95-10.53-12.95-12.28-1.25-.44-2.74.29-3.39,1.38-.37.63-.47,2.85-.22,2.27-.67,1.55-.42,3.13,1.08,4.1.98.63,2.44,4.05,3.13,5.03,1.44,2.05,2.87,4.12,4.28,6.2,3.45,5.08,6.79,10.23,10,15.45,5.78,9.4,11.15,19.07,15.98,28.99s9.42,20.78,13.23,31.54c1.84,5.21,3.16,10.53,4.68,15.84,1.63,5.67,2.42,11.22,3.85,16.93,11.51,45.95,7.74,96.69-10.82,140.3-9.31,21.87-22.5,41.85-38.94,59.01l4.71,3.64c26.69-43.67,36.03-96.44,26.84-146.69-8.55-46.8-31.69-90.16-63.62-125.19-4.5-4.94-9.18-9.72-14.02-14.32-1.94-1.84-3.68-3.39-5.9-4.8-2.97-1.88-5.25-4.49-7.93-6.84-4.92-4.32-10.14-8.22-15.56-11.85s-10.94-7.8-17.61-9.71c-2.95-.85-4.94,2.88-2.92,5.01,14.9,15.7,32.89,28.26,46.43,45.28,7.11,8.93,14.31,17.84,21.01,27.1,2.98,4.12,5.85,8.33,8.49,12.68,2.92,4.8,4.98,10.18,7.96,14.89,1.04,1.64,2.6,2.82,3.65,4.45,1.34,2.08,2.24,4.67,3.27,6.91,2.8,6.11,5.4,12.31,7.77,18.6,4,10.59,7.37,21.43,9.98,32.45,5.29,22.33,7.28,45.38,5.27,68.26-2.28,26.04-9.34,51.49-21.29,74.76l5.48,2.31c24.19-63.51,15.18-135.75-20.04-193.39-30.26-49.52-77.73-86.78-130.1-110.72-7.02-3.21-14.19-6.54-21.51-9.03-1.83-.62-3.57-.6-5.4-1.18-1.93-.61-3.79-1.74-5.72-2.45-4.61-1.7-9.25-3.01-13.96-4.36C318.44,5.18,298.38.18,278.39,0c-3.35-.03-4.12,5.07-.8,5.89,15.71,3.88,31.61,6.87,47.15,11.43s29.42,9.87,43.82,15.83,29,13.96,42.61,22.44c5.93,3.7,11.95,7.21,17.81,11.02,2.9,1.88,4.04,4.11,6.29,6.51,1.96,2.1,5.05,3.61,7.35,5.35,45,33.97,78.32,86.44,89.97,141.56,3.69,17.46,4.85,35.26,3.75,53.07-.59,9.53-1.84,19-3.69,28.36-.9,4.54-1.67,9.36-3.15,13.75-1.14,3.4-2.74,6.18-3.11,9.8-.34,3.35,5.22,4.1,5.89.8,12.4-60.99-5.59-124.46-43.05-173.45-9.48-12.4-20.1-23.9-31.8-34.24-12.91-11.41-26.83-22.39-41.77-31.01-3.82-2.21-7.68-4.36-11.46-6.65-3.12-1.89-5.79-2.41-8.91-3.87-7.65-3.57-15.17-7.33-22.97-10.58-16.52-6.87-33.62-12.35-51.05-16.4-38.22-8.88-77.8-10.84-116.67-5.5-3.41.47-2.49,5.89.8,5.89,33.73.03,67.68,1.51,100.66,9.12,7.86,1.82,15.59,3.99,23.5,5.59s14.64,4.26,21.96,7.34c7.76,3.27,15.68,6.14,23.44,9.4,6.52,2.75,12.42,6.86,18.66,10.24,12.69,6.89,25.06,14.43,36.62,23.09s22.6,19.58,33.44,29.79c10.27,9.68,18.79,22.66,26.42,34.46s14.65,24.94,19.99,38.36c13.73,34.5,16.61,70.92,12.32,107.61h6c-.25-65.3-28.88-126.14-78.02-168.9-50.47-43.92-116.67-65.43-182.94-68.02-41-1.6-82.08,4.6-120.84,18.03-3.64,1.26-2.2,6.59,1.6,5.79,68.01-14.35,140.1-17.03,206.5,6.17,56.7,19.81,108.17,58.76,137.52,111.75,15.5,27.98,24.14,59.23,25.18,91.19l5.89-.8c-7.15-39.48-23.62-77-49.84-107.57s-62.71-53.9-101.23-68.23c-41.82-15.56-87.03-21.13-131.44-17.31-22.17,1.91-44.13,6.05-65.5,12.2-10.81,3.11-21.47,6.72-31.95,10.79s-20.75,9.52-31.37,13.53c-2.37.89-4.29,1.31-6.15,2.88-.17.15-1.5,1.6-.21.62-1.01.77-2.85,1.32-3.96,1.86-5.38,2.61-10.7,5.36-15.94,8.23-10.7,5.86-21.1,12.26-31.15,19.17s-19.24,13.93-28.33,21.56c-4.59,3.86-9.09,7.83-13.49,11.9-3.58,3.32-9.84,7.44-11.49,12.15-.44,1.25.29,2.74,1.38,3.39.63.37,2.85.47,2.27.22,1.27.55,2.58.54,3.64-.47,4-3.82,8.64-6.69,13.05-9.98,1.27-.95,3.54-3.52,4.55-3.96,1.9-.83,2.69-.52,4.81-2.28,4.38-3.62,8.96-6.92,13.78-9.93,3.47-2.17,7.66-3.85,10.43-6.77.43-.45.58-1.08,1.02-1.49.75-.71,2.58-1.53,3.49-2.09,2.11-1.3,4.23-2.59,6.36-3.86,5.29-3.16,10.64-6.21,16.05-9.16,9.63-5.24,19.44-10.14,29.43-14.66,41.12-18.59,85.39-30.43,130.46-33.53,38.81-2.67,77.43.96,114.38,13.46,34.24,11.58,66.45,29.98,92.96,54.65,29.83,27.76,51.51,63.3,60.22,103.27l5.79-1.6c-12.95-34.49-35.94-64.1-64.85-86.76-14.37-11.26-29.95-20.88-46.41-28.76-3.75-1.79-7.18-3.19-11.12-4.18-5.25-1.32-10.31-3.82-15.44-5.59-10.32-3.55-20.88-6.41-31.57-8.59-85.62-17.42-175.33,8.7-246.69,56.7-9.64,6.48-18.25,13.75-27.13,21.17-1.45,1.22-2.95,1.41-4.48,2.45-2.43,1.65-4.62,4.19-6.8,6.16-4.77,4.32-9.57,8.62-14.29,13s-9.38,8.86-13.85,13.51c-3.63,3.78-6.3,8.07-10.15,11.58-4.05,3.69-7.2,8.74-10.53,13.09-3.78,4.94-8.45,9.84-11.56,15.2-.79,1.37-.36,3.33,1.08,4.1,2.77,1.49,4.44.37,6.42-1.67,4.19-4.31,8.22-8.78,12.38-13.13,7.47-7.83,14.62-16.17,22.61-23.46,14.81-13.51,30.17-26.45,46.61-37.94,8.18-5.71,16.6-11.08,25.27-16.02,3.68-2.1,7.46-3.91,10.8-6.51,3.91-3.04,8.8-4.9,13.1-7.45,8.65-5.15,18.03-8.48,27.17-12.6,9.91-4.47,20.31-7.88,30.71-11.02,77.49-23.43,164.88-20.1,233.59,26.01,32.52,21.82,58.78,52.15,74.67,88.01l5.18-3.03c-19.65-31.05-47.37-56.28-79.92-73.3-16.5-8.63-34.08-15.23-52.15-19.72-10.24-2.54-20.41-3.67-30.81-5.2-11.47-1.69-23.06-2.14-34.64-1.8-23.8.71-46.92,4.41-69.92,10.48-2.69.71-5.79,1.18-8.32,2.31-1.06.47-1.67,1.35-2.62,1.84-4.08,2.11-9.26,3-13.61,4.58-8.72,3.16-17.31,6.69-25.74,10.57-34.34,15.81-65.88,37.58-93.3,63.58-30.74,29.15-56.3,63.71-75.14,101.65-1.22,2.45,1.45,5.97,4.1,4.1,2.21-1.56,3.36-3.56,4.84-5.77,2.51-3.74,5.15-7.39,7.77-11.05,5.14-7.18,10.44-14.24,15.93-21.15,10.4-13.09,21.46-25.65,33.28-37.47,24.75-24.75,52.66-45.75,82.99-63.18,68.27-39.24,152.42-53.27,227.84-27.15,39.11,13.54,74.03,39.18,98.24,72.71l4.71-3.64c-45.61-47.23-113.14-66.9-177.6-61.21-62.69,5.53-122.33,33.81-168.45,76.28-2.79,2.57-5.96,3.72-8.56,6.32-3.51,3.51-6.78,7.26-10.32,10.75-7.29,7.18-14.24,14.43-20.77,22.33-6.15,7.44-12,15.14-17.56,23.03-2.84,4.02-5.61,8.09-8.32,12.2-2.4,3.64-5.54,6.95-5.54,11.43l1.49-2.59c-2.07,1.48-2.64,3.08-4.08,5.08-2.25,3.15,2.94,6.13,5.18,3.03,4.88-6.75,9.54-13.64,14.29-20.48,2.4-3.45,4.78-6.91,7.3-10.27,1.96-2.61,4.52-4.07,6.45-6.68,9.35-12.61,19.7-24.44,31.01-35.32,22.82-21.96,49.21-40.75,77.48-55,15.61-7.87,32.47-14.47,49.16-19.7,16.58-5.19,34.93-9.07,52.33-9.07,15.08,0,30.02-.59,45.05.98s29.43,4.61,43.59,9.11c31.96,10.15,61.12,28.04,83.61,53.03l3.64-4.71c-50.39-36.88-115.71-45.05-175.47-29.93-53.71,13.59-101.45,43.79-137.11,86.15-4.9,5.82-9.57,11.83-14.03,17.99-1.86,2.57-3.52,5.47-5.77,7.46s-3.46,4.62-5.06,7.33c-8.77,14.94-19.29,28.86-23.98,45.79-.64,2.32,2.22,5.02,4.41,3.39,4.05-3.02,8.06-7.28,9.82-12.08,1.09-2.97,2.75-4.35,4.88-6.53,2.47-2.53,4.22-5.74,6.23-8.65,7.87-11.38,16.37-22.32,25.54-32.69,18-20.37,38.53-38.44,61.2-53.45,5.08-3.37,10.27-6.59,15.54-9.66,2.66-1.55,5.83-4.08,8.79-4.94,2.64-.76,4.44-1.27,7.01-2.63,12.31-6.55,25.23-11.9,38.56-16.01,26.67-8.22,54.79-11.42,82.62-9.31,31.62,2.4,62.42,11.94,89.79,27.95l2.31-5.48c-51.46-17.8-109.77-12.07-158.28,11.88-11.51,5.68-22.54,12.28-33.29,19.29-5.12,3.34-9.12,7.57-14,11.21s-9.3,7.22-13.69,11.13c-17.27,15.41-31.3,33.88-44.61,52.71-8.37,11.83-15.29,24.52-21.21,37.74-5.28,11.78-12.34,24.81-12.72,37.93-.07,2.56,3.36,4.02,5.12,2.12,3.92-4.23,6.19-9.11,8.5-14.33,2.19-4.95,4.89-9.73,6.93-14.69,4.92-11.98,12.68-21.81,19.63-32.55,13.29-20.55,29.21-39.21,47.36-55.62,8.65-7.82,18.03-14.05,27.64-20.68s20.37-12.97,31.23-18.25c22.21-10.81,46.36-18.03,70.94-20.7,27.23-2.95,54.67-.36,80.86,7.6l.8-5.89c-41.7-4.17-83.69,5.67-120.19,25.99-38.14,21.23-68.29,52.97-90.5,90.32-12.91,21.71-22.68,45.22-28.2,69.89-.7,3.15,3.94,5.53,5.48,2.31,4.57-9.56,6.81-19.96,10.99-29.68,3.87-9,8.15-17.84,12.84-26.44,9.4-17.22,20.55-33.48,33.47-48.26s28.47-28.48,44.93-39.97c17.89-12.47,37.77-20.51,58.17-27.91,23.24-8.42,48.55-9.22,73-8.26v-6c-82.85,3.91-153.73,60.96-186.54,135.49-9.05,20.55-14.94,42.2-17.46,64.51-.39,3.44,4.99,3.95,5.89.8,10.8-37.58,25.35-74.77,49.66-105.82,22.72-29.02,51.4-53.56,85.1-68.88,10.34-4.7,21.32-7.88,32.26-10.88,11.5-3.15,23.16-5.52,35.08-6.22v-6c-19.01,1.32-39.05,6.98-56.55,14.43-17.37,7.4-32.96,18.06-48.14,29.17-1.43,1.05-3.2,2-4.43,3.28-1.31,1.35-1.9,2.82-3.33,4.13-3.43,3.13-6.94,6.13-10.26,9.37-6.56,6.41-12.7,13.24-18.39,20.43-11.18,14.13-20.6,29.48-28.49,45.67l5.18,3.03c23.9-51.18,67.34-93.3,120.48-113.21,15.11-5.67,30.89-9.5,46.93-11.3,3.76-.42,3.95-5.85,0-6-16.72-.62-33.42,1.17-49.72,4.89-13.57,3.1-25.98,7.93-38.53,13.81-6.66,3.12-13.07,6.73-19.26,10.7-2.58,1.65-5.01,3.08-7.65,4.38-2.17,1.07-3.22,2.88-5.2,4.29-2.55,1.82-5.88,3.29-8.16,5.34-1.63,1.47-1.94,2.6-3.88,3.83-5.82,3.7-10.36,9.41-14.72,14.64-2.1,2.51.52,6.49,3.64,4.71,5.28-3.01,9.9-6.86,14.49-10.81,2.45-2.11,4.89-4.24,7.53-6.11,2.22-1.57,5.69-2.66,7.58-4.55,1.6-1.6,1.42-2.31,3.73-3.64,3.03-1.74,5.99-3.59,9.04-5.29,6.13-3.41,12.4-6.57,18.68-9.68,13.19-6.54,27.09-11.38,41.33-15.14,15.13-3.99,30.52-5.34,46.09-6.37,3.15-.21,4.33-5.27.8-5.89-19.14-3.38-39.18-8.33-58.69-8.24-9.53.04-19.02.96-28.55,1.11-4.59.08-9.21,0-13.78-.45s-9.39-2.33-13.98-2.55l.8,5.89c2.23-.53,3.72-1.88,4.29-4.09l-2.89,2.2c4.2-.43,7.72-2.53,11.78-3.49,4.73-1.12,9.75-1.65,14.57-2.24,9.64-1.19,19.04-1.67,28.74-.93,19.55,1.49,38.69,6.91,56.4,15.26,3.46,1.63,6.51-3.46,3.03-5.18-22.94-11.35-47.74-19.2-73.51-19.41-3.95-.03-3.74,5.57,0,6,26.08,2.97,51.84,8.93,75.49,20.59,1.79.88,3.77.14,4.41-1.79,5.95-18.08,10.06-36.79,17.7-54.28h-5.18c2.13,2.97-.09,8.47-.8,11.69-.85,3.83-1.63,7.62-2.89,11.35-2.7,7.97-6.26,15.56-10.31,22.94l5.59,1.51c3.07-26.67-.76-53.7-10.68-78.64-4.61-11.6-10.36-22.86-17.1-33.38-3.13-4.89-6.61-9.59-10.54-13.88-1.95-2.13-4.02-4.17-6.21-6.07-2.35-2.04-3.32-2.04-6.48-2.04-2.35,0-3.64,2.53-2.59,4.51,10.36,19.54,22.75,38.19,30.34,59.07s14.14,43.54,15.25,66.42h6c-1.52-19.47-5.81-39.65-13.11-57.8-3.51-8.73-7.3-17.18-12.21-25.21-1.72-2.81-2.26-5.8-4.19-8.78-2.6-4.02-5.27-8-7.98-11.94-10.85-15.77-22.26-30.03-36.48-42.89-6.81-6.16-13.33-12.55-20.83-17.89s-15.21-10.38-21.07-17.61l-2.92,5.01c8.05,2.36,15.26,6.49,22.37,10.84,2.6,1.59,5.56,3.05,7.51,5.12,1.83,1.94,3.88,3.46,6.09,5.11,11.64,8.63,22.3,18.64,31.72,29.65,18.22,21.3,31.52,46.66,38.99,73.66,4.22,15.25,6.53,30.92,7.11,46.72h6c-3.51-37.72-16.33-74.18-38.44-105.05-23.82-33.26-57.13-59.29-94.48-75.75-10.85-4.78-22.15-8.7-33.54-12-6.24-1.81-12.55-3.35-18.93-4.58-3.44-.66-7.2-1.88-9.73,1.25-1.34,1.65-1.06,4.44,1.32,5.01,33.62,8.09,65.98,21.5,94.34,41.44,30.31,21.31,54.35,49.57,71.01,82.62,10.43,20.69,17.8,42.83,19.45,66.05l5.89-.8c-2.18-10.89-4.63-21.09-8.98-31.36s-8.91-19.54-14.38-28.72c-10.56-17.75-25.5-33.85-40.64-47.71-14.49-13.27-30.78-24.51-48.34-33.37-8.56-4.32-17.42-8.07-26.48-11.19-4.6-1.58-9.25-3-13.95-4.26s-10.69-1.64-15.32-3.48c-1.29-.52-2.29-1.52-3.65-1.9-2.32-.64-4.98-.32-7.38-.74-5.56-.97-11.22-1.59-16.82-2.52-12.27-2.05-24.42-2.97-36.75-.84-2.87.49-2.86,5.29,0,5.79,10.75,1.87,21.56,3.4,32.36,4.98,5.55.81,11.11,1.64,16.65,2.53,3.72.6,6.87,2.43,10.62,3.3,20.24,4.65,39.69,11.96,58.06,21.65,33.15,17.5,62.06,42.97,82.39,74.58,11.1,17.26,19.41,36.07,24.82,55.86l5.79-1.6c-12.86-33.4-32.95-63.91-60.62-86.84-26.13-21.65-57.01-37.18-89.77-45.91-18.77-5-38.1-7.74-57.5-8.45-3.91-.14-3.79,5.66,0,6,36.29,3.3,73.03,12,105.17,29.61,14.26,7.81,27.63,17.16,39.83,27.89,6.27,5.52,12.63,11.31,18.07,17.65,2.16,2.51,3.25,5.3,5.54,7.77,2.82,3.05,4.98,6.47,7.35,9.85,4.93,7.04,10.04,13.4,14.13,21.12,2.31,4.35,4.53,8.76,6.49,13.27s2.48,9.18,4.83,13.35c1.93,3.41,6.81.42,5.18-3.03-13.06-27.67-32.64-51.93-57-70.46-12.35-9.39-25.83-17.16-40.14-23.15-3.4-1.43-7.05-2.46-10.39-3.99-2.29-1.05-3.38-2.51-6.14-3.11-9.02-1.98-17.61-5.34-26.57-7.51-10-2.42-20.8-2.26-31.03-3.24-5.02-.48-10.08-.84-15.11-.38-3.04.28-8.33.22-10,3.21-.79,1.42-.34,3.26,1.08,4.1,1.5.89,1.1.85.82-.15.25.9,1.1,1.96,2.1,2.1,38.6,5.21,76.64,14.24,110.55,34.05,30.17,17.62,55.88,42.09,74.66,71.57,2.07,3.25,7.26.24,5.18-3.03-30.86-48.45-79.29-82.44-134.4-97.75-17.83-4.95-36.07-8.16-54.39-10.63l2.1,2.1c-.66-2.33-1.79-2.38-3.58-3.44l1.08,4.1c-.33.58,5.36-.27,5.74-.3,1.86-.15,3.73-.17,5.6-.13,4.49.1,8.95.61,13.42,1.07,8.79.92,17.81.73,26.4,2.99,7.98,2.1,15.9,4.62,23.85,6.86.33.09,1.72,0,2.01.15.34.19.5,1.03.88,1.29.63.45,1.21.76,1.92,1.08,3.35,1.52,7.04,2.47,10.46,3.86,26.72,10.84,50.54,28.46,69.21,50.38,10.67,12.53,19.51,26.51,26.53,41.38l5.18-3.03c-2.02-3.57-2.47-7.84-4.08-11.62-1.82-4.27-3.83-8.45-5.96-12.57-3.61-6.97-7.5-13.43-12.08-19.69s-10.22-12.23-14.13-18.86-11.04-12.28-16.62-17.45c-26.12-24.19-57.21-41.42-91.27-51.64-20.34-6.1-41.32-9.74-62.45-11.67v6c65.98,2.41,133.69,30.89,173.74,84.89,11.83,15.95,21.24,33.38,28.37,51.9,1.36,3.53,6.83,2.21,5.79-1.6-20.64-75.45-83.52-132.4-157.95-153.35-5.29-1.49-11.51-2.1-16.43-4.44s-10.31-2.54-15.56-3.32c-13.06-1.96-26.15-3.71-39.16-5.98v5.79c11.2-1.93,22.42-1.02,33.56.84,4.64.78,9.26,1.94,13.95,2.27,3.89.28,8.55.77,12.05,2.13,7.76,2.99,16.59,3.92,24.61,6.38,9.24,2.84,18.26,6.32,26.99,10.47,35.81,16.99,64.83,43.6,87.75,75.69,6.47,9.06,11.47,19.41,16.01,29.56,5.05,11.29,7.98,22.49,10.39,34.57.66,3.29,6.13,2.59,5.89-.8-2.82-39.78-21.21-78.49-45.88-109.38-22.69-28.43-52.36-50.77-85.18-66.26-18.61-8.78-38.15-15.44-58.15-20.25l1.32,5.01c1.16-1.43,10.37,1.64,12.15,2.06,5.06,1.2,10.08,2.59,15.05,4.13,9.95,3.08,19.85,6.54,29.36,10.8,18.24,8.19,35.57,18.55,51.04,31.23,27.95,22.92,50.31,51.75,63.58,85.51,7.32,18.62,11.84,38.24,13.69,58.15.35,3.78,6.14,3.92,6,0-2.16-59.07-29.5-115.22-76.27-151.76-2.63-2.05-6.36-3.98-8.47-6.41-.61-.7-.74-1.52-1.44-2.19-1.52-1.45-4.03-2.5-5.84-3.62-8.33-5.14-16.73-10.15-26.18-12.92-3.11-.91-4.68,2.84-2.92,5.01,5.1,6.29,11.59,11.03,18.16,15.65,7.76,5.46,14.64,11.52,21.63,17.92s13.34,12.27,19.41,19.11,11.73,15.08,17.16,22.92c2.72,3.93,5.4,7.89,8.02,11.9,1,1.54,2.64,3.4,3.2,5.13.3.95.15,1.89.52,2.85,1.56,4.08,4.99,7.87,6.92,11.9,1.83,3.81,3.42,7.74,5.05,11.64,7.73,18.42,12.5,38.95,14.05,58.86.3,3.81,6.19,3.89,6,0-1.13-23.42-7.48-46.08-15.46-68.01-7.78-21.4-20.34-40.48-30.95-60.5l-2.59,4.51c4.33,0,8.63,6.41,11.22,9.54,3.54,4.29,6.6,8.94,9.44,13.71,6.25,10.51,11.74,21.49,15.89,33.01,8.29,23.02,11.25,47.43,8.45,71.74-.35,3.03,4.24,3.98,5.59,1.51,4.83-8.79,9.34-18.14,12.03-27.84,1.33-4.79,2.54-9.96,3.27-14.88.48-3.27.69-6.52-1.3-9.31-1.15-1.61-4.19-2.27-5.18,0-7.85,18-12.18,37.12-18.3,55.72l4.41-1.79c-24.66-12.16-51.32-18.31-78.51-21.41v6c24.7.2,48.5,7.71,70.49,18.59l3.03-5.18c-17.58-8.29-36.28-13.78-55.65-15.74-10.29-1.04-20.35-.83-30.61.37-4.73.55-9.46,1.18-14.16,1.98-2.51.43-5.01.77-7.4,1.66-2.25.83-4.26,2.07-6.7,2.32-1.31.13-2.54.84-2.89,2.2.26-.2.22-.23-.1-.1-3.4.81-2.49,5.74.8,5.89,3.88.18,8.05,1.88,12.01,2.34,4.58.53,9.18.7,13.78.68,9.53-.05,19.02-.96,28.55-1.12,19.67-.32,39.76,4.6,59.06,8l.8-5.89c-30.12,2.01-59.86,7.21-87.17,20.71-6.55,3.24-13.1,6.47-19.52,9.96-5.38,2.93-11.75,5.83-16.06,10.13-.5.49-.87,1.01-1.24,1.32-1.18.98-2.89,1.61-4.18,2.46-2.22,1.47-4.32,3.13-6.37,4.82-5.54,4.56-10.7,9.43-16.97,13.01l3.64,4.71c4.82-5.78,9.63-10.61,15.66-15.09,1.31-.97,2.22-2.32,3.19-3.24,2.19-2.07,5.53-3.8,8.09-5.41,1.73-1.09,2.22-2.46,3.58-3.62-1.64,1.4.41.45.88.31,1.38-.41,2.84-1.75,4-2.52,6.13-4.1,12.49-7.87,19.1-11.15,12.29-6.11,25.04-11.13,38.34-14.28,16.42-3.89,33.18-5.75,50.05-5.12v-6c-57.97,6.51-110.71,38.37-146.22,84.27-10.37,13.4-19.2,27.87-26.37,43.22-1.62,3.46,3.48,6.52,5.18,3.03,7.64-15.71,16.7-30.74,27.55-44.46,5.33-6.74,11.06-13.17,17.16-19.22,3.08-3.06,6.25-6.01,9.51-8.87,2.81-2.46,4.85-5.4,7.77-7.63,14.15-10.82,29.36-20.96,45.63-28.29,8.84-3.98,18.28-6.67,27.58-9.36s19.26-5,29.22-5.69c3.82-.27,3.87-6.22,0-6-20.63,1.2-42.13,6.53-61.35,14.09-18.2,7.16-35.53,17.17-50.91,29.22-30.48,23.88-55.12,54.16-72,89.03-9.91,20.48-17.36,42.02-23.63,63.86l5.89.8c8.7-76.84,61.49-149.49,133.13-179.35,20.61-8.59,42.56-13.6,64.87-14.65,3.85-.18,3.87-5.85,0-6-22.19-.87-44.58-.04-66.14,5.77-10.99,2.97-21.73,7.5-32.22,11.88-9.66,4.03-18.98,8.46-27.86,14.04-34.39,21.59-62.77,51.86-83.43,86.7-5.87,9.9-11.14,20.15-15.86,30.64-2.12,4.72-4.31,9.49-6.07,14.36-2.43,6.72-3.92,13.6-7.02,20.1l5.48,2.31c18.35-81.97,82.55-154.62,164.54-176.32,22.37-5.92,45.54-7.78,68.56-5.48,3.47.35,3.92-4.94.8-5.89-47.71-14.51-99.03-10.85-144.86,8.46-11.3,4.76-22.21,10.39-32.64,16.84-4.93,3.05-9.74,6.27-14.43,9.66-2.5,1.81-4.93,4.21-7.61,5.72-2.04,1.15-3.84,1.65-5.75,3.2-19.14,15.62-36.24,33.7-50.74,53.7-4.07,5.61-7.93,11.37-11.59,17.25-2.06,3.31-4.75,5.98-6.83,9.23s-3.92,6.47-5.69,9.8c-3.02,5.67-5.96,11.59-8.52,17.48-2.89,6.65-5.25,14.02-10.27,19.42l5.12,2.12c.34-11.67,6.88-23.62,11.54-34.1s10.36-21.56,16.87-31.62c12.33-19.06,26.57-37.66,42.97-53.41,7.97-7.66,17.3-13.69,25.25-21.25,8.62-8.21,20.61-14.18,31.03-19.84,23.13-12.56,48.39-20.83,74.49-24.44,29.26-4.06,60.14-1.1,88.06,8.56,3.26,1.13,5.2-3.8,2.31-5.48-48.47-28.37-106.93-36.1-161.48-23.44-13.5,3.13-26.66,7.53-39.38,13.03-3.39,1.47-6.75,3.02-10.07,4.66-2.95,1.45-6.2,3.94-9.34,4.8-5.56,1.52-10.41,4.59-15.43,7.59-23.31,13.9-44.81,30.83-63.8,50.23-10.9,11.14-20.96,23.08-30.26,35.59-4.71,6.33-8.73,13.62-14.26,19.21-4.94,4.99-6.11,11.94-12.01,16.34l4.41,3.39c4.08-14.72,12.82-27.14,20.73-39.99,1.7-2.77,3.1-6.32,5.16-8.8.85-1.02,2.25-1.87,3.26-3.16,4.39-5.64,8.25-11.69,12.7-17.31,16.47-20.78,35.77-39.36,57.65-54.38,46.1-31.65,103.85-48.56,159.77-42.98,33.68,3.36,66,15.41,93.33,35.41,2.87,2.1,5.8-2.31,3.64-4.71-40.89-45.44-102.77-66.95-163.07-65.04-8.63.27-17.22-.12-25.8.96s-17.83,2.53-26.61,4.5c-17.13,3.85-33.98,10.33-50.15,17.11-30.75,12.89-59.25,32.1-84.24,54.07-13.57,11.93-26,25.1-37.09,39.37-2.3,2.96-4.32,5.85-7.17,8.2-3.28,2.69-5.55,6.82-8,10.27-5.92,8.35-11.58,16.88-17.58,25.17l5.18,3.03c3.35-4.68,5.35-9.72,8.64-14.7,4.72-7.13,9.62-14.14,14.76-20.98,5.53-7.35,11.36-14.48,17.47-21.37,5.75-6.47,12.12-12.21,18.06-18.48,5.05-5.33,10.7-9.05,16.21-14.01,6.1-5.5,12.43-10.75,18.97-15.71,12.36-9.37,25.47-17.77,39.14-25.08,54.89-29.37,119.75-40.74,180.71-25.98,36.46,8.83,70.16,26.83,96.31,53.92,2.3,2.39,6.75-.82,4.71-3.64-21.33-29.54-50.39-53.23-83.68-68.25-35.92-16.2-76.08-22.87-115.33-20.44-76.94,4.76-147.99,39.9-204.74,91.1-14.35,12.95-27.71,26.98-40.12,41.8-6.28,7.49-12.32,15.19-18.17,23.02-2.92,3.92-5.79,7.87-8.62,11.86-1.52,2.14-3.01,4.31-4.52,6.46-1.08,1.54-2.43,4.33-3.92,5.38l4.1,4.1c32.64-65.7,85.61-121.11,150.62-155.35,16.2-8.53,33.11-15.69,50.54-21.31,3.29-1.06,5.8-2.9,9.04-3.79,5.86-1.6,11.75-3.12,17.67-4.5,11.38-2.64,22.93-4.87,34.58-5.83,41.7-3.46,83.74,1.2,122.27,18.21,37.25,16.45,69.28,43.09,91.1,77.56,2.11,3.33,6.72.44,5.18-3.03-29.31-66.11-92.53-111.2-162.42-125.72-41.8-8.69-85.1-7.17-126.66,2.11-20.45,4.57-40.57,10.81-59.76,19.19-9.51,4.15-18.79,7.95-27.76,13.21-3.71,2.18-7.81,3.46-11.16,6.15-3.92,3.15-8.52,5.3-12.88,7.84-19.37,11.27-37.41,24.67-54.47,39.18-8.99,7.65-17.69,15.48-25.78,24.08-4.33,4.6-8.7,9.15-13.06,13.72-2.3,2.41-4.59,4.81-6.88,7.24-.92.97-1.84,1.95-2.75,2.93s-3.83,2.65-1.9,3.69l1.08,4.1c2.35-4.06,5.84-7.73,8.69-11.45,3.55-4.64,6.98-10.7,11.25-14.64,1.21-1.11,2.89-1.77,4-3s1.93-2.86,2.92-4.21c3.48-4.75,7.76-8.82,11.99-12.9,7.87-7.6,15.99-15.01,24.21-22.24,2.67-2.34,5.58-3.46,8.29-5.9,4.18-3.76,8.4-7.48,12.89-10.86,34.04-25.67,73.61-45.25,114.49-57.21,40.02-11.71,82.51-16.11,123.93-10.42,37.62,5.17,74.58,18.16,105.97,39.57,33.51,22.86,60.95,54.65,75.3,92.86,1.34,3.58,6.62,2.23,5.79-1.6-16.06-73.77-74.61-129.38-143.03-156.82-78.72-31.56-168.93-23.12-246.44,7.98-24.04,9.64-47.17,21.46-69.2,35.07-2.22,1.37-4.21,2.55-5.98,4.36-.34.35-.32,1.05-.69,1.38-.67.61-2.96,1.43-3.76,1.89-5.29,3.09-10.42,6.43-15.27,10.18-1.84,1.42-3.55,2.84-5.54,3.76-2.64,1.22-4.42,3.11-6.86,4.96-4.8,3.64-9.89,6.74-14.27,10.92l3.64-.47c-.79-.34-1.35-.56-2.2-.71l-.74.09c-1.29.09-1.07.22.67.39l1.38,3.39c.59-1.68,4.1-3.98,5.34-5.16,1.74-1.67,3.5-3.32,5.27-4.95,3.97-3.66,8.02-7.23,12.14-10.71,8.23-6.95,16.77-13.51,25.6-19.68,8.29-5.79,16.82-11.23,25.56-16.3,4.39-2.54,8.82-4.99,13.31-7.35s9.82-4.17,14.05-6.97c1.03-.68,1.73-1.54,2.69-2.15,1.58-1.01,3.86-1.34,5.61-2.1,5.07-2.2,10.02-4.69,15.09-6.89,10.11-4.39,20.43-8.32,30.9-11.8,20.92-6.95,42.51-12.09,64.38-14.92,82.07-10.65,172.17,11.2,231.77,70.97,31.48,31.57,50.86,72.63,58.77,116.25.61,3.34,6,2.55,5.89-.8-1.9-58.46-29.03-112.62-71.8-152.03-48.51-44.71-112.96-69.2-178.39-73.32-42.48-2.68-85.03,1.69-126.61,10.46l1.6,5.79c66.43-23.03,139.83-24.11,206.81-2.45,58.74,18.99,112.31,58.46,141.86,113.41,16.86,31.34,25.39,66.61,25.53,102.15.02,3.96,5.56,3.74,6,0,3.94-33.69,2.06-67.49-9.02-99.73-9.38-27.3-24.36-52.1-42.48-74.46-2.36-2.91-4.73-5.83-7.23-8.62s-5.73-4.89-8.36-7.64c-5.3-5.53-10.74-10.86-16.58-15.83-11.41-9.72-23.81-18.21-36.72-25.8s-26.01-15.21-40.09-20.75c-7.72-3.04-15.27-6.49-22.97-9.52s-15.82-3.78-23.72-5.83c-38.12-9.88-76.54-12.8-115.83-12.83l.8,5.89c33.82-4.65,68.42-3.49,101.92,3.03,16.67,3.24,33.1,7.79,49.06,13.59,8.3,3.02,16.47,6.38,24.49,10.09,3.57,1.65,7.1,3.38,10.61,5.16,2.46,1.24,4.96,1.52,7.26,2.86,7.57,4.43,15.33,8.65,22.68,13.45s14.65,10.97,21.78,16.58c12.02,9.48,23.05,20.25,32.96,31.92,19.48,22.93,34.59,49.73,43.69,78.43,10.16,32.03,12.58,66.21,5.88,99.2l5.89.8c.35-3.48,2.49-6.79,3.4-10.18,1.12-4.2,2.01-8.49,2.83-12.75,1.54-7.97,2.68-16.04,3.36-24.13,1.33-15.75,1.06-31.81-1.39-47.43-4.77-30.39-15.83-59.09-31.55-85.46-14.31-24.01-32.26-46.02-53.68-64.03-4.92-4.14-11.28-7.64-15.63-12.29-1.88-2.01-3.2-4.12-5.47-5.79-2.47-1.82-5.18-3.36-7.73-5.05-13.53-8.98-27.9-16.54-42.25-24.09-15.78-8.3-33.33-14.78-50.37-20.01-18.02-5.53-36.44-9.16-54.72-13.67l-.8,5.89c17.53.16,35.09,4.27,51.95,8.8,7.99,2.14,16.43,4.17,23.87,7.86,2.94,1.46,5.92,1.42,9,2.63,3.62,1.41,7.22,2.88,10.79,4.42,25.74,11.08,50.32,25.2,72.41,42.48,46.28,36.21,80.5,86.24,91.83,144.4,7.39,37.96,4.02,77.48-9.74,113.61-1.21,3.17,3.94,5.32,5.48,2.31,21.4-41.66,27.58-89.77,19.14-135.7-4.32-23.53-12.27-46.28-22.48-67.88-2.04-4.31-5.13-7.5-7.2-11.75-2.63-5.39-5.66-10.58-8.94-15.59-6.11-9.35-13.08-18.11-20.01-26.86-8-10.1-16-19.72-25.51-28.46s-19.54-16.99-28.47-26.4l-2.92,5.01c5.59,1.6,10.11,4.93,14.84,8.18,5.41,3.73,10.73,7.49,15.68,11.84,2.16,1.9,3.95,4.44,6.16,6.21,1.33,1.06,2.88,1.54,4.28,2.45,4.77,3.13,8.93,8.31,12.87,12.43,15.85,16.57,29.61,35.11,40.68,55.19,22.49,40.78,33.58,87.96,27.66,134.42-3.6,28.26-13.1,55.57-27.95,79.88-1.77,2.89,2.34,6.11,4.71,3.64,31.05-32.4,50.25-74.62,55.84-119.05,3.24-25.74,2.69-51.96-2.55-77.4-1.22-5.94-2.56-11.71-3.41-17.67s-3.41-11.94-5.05-17.52c-3.37-11.51-8.19-22.76-13.22-33.63-5.51-11.9-11.79-23.44-18.66-34.61-3.54-5.76-7.24-11.42-11.06-17-1.75-2.56-3.78-5.16-5.16-7.79-.96-1.83-1.46-2.82-3.35-4.04l1.08,4.1c.34-.79.56-1.35.71-2.2l-.09-.74c-.09-1.29-.22-1.07-.39.67l-3.39,1.38c1.88.66,4.28,4.12,5.72,5.63,1.97,2.07,3.86,4.22,5.69,6.42,3.88,4.69,7.4,9.66,10.73,14.76,1.33,2.04,2.56,5.07,4.32,6.7.65.6,1.7.72,2.29,1.31,1.63,1.63,2.98,5.51,4.22,7.65,1.81,3.13,3.61,6.27,5.39,9.43,12.34,21.95,21.27,45.82,27.32,70.28,6.04,24.44,7.03,51.55,4.59,76.57-2.19,22.5-8.41,44.69-18.07,65.12-10.73,22.67-25.59,43.1-43.75,60.4-2.43,2.31.76,6.63,3.64,4.71,35.44-23.6,62.04-57.91,77.65-97.4,17.58-44.48,20.18-93.57,11.85-140.4-2.5-14.05-5.99-27.91-10.33-41.5-2.17-6.81-4.56-13.56-7.13-20.23-1.77-4.59-5.55-10.33-5.55-15.23,0-3.86-6-3.87-6,0,0,1.77,1.49,3.5,2.33,4.94,1.57,2.7,3.09,5.44,4.57,8.19,2.91,5.45,5.63,11.01,8.15,16.65,5.08,11.4,9.26,23.21,12.54,35.26,6.22,22.9,9,46.63,8.31,70.34-.36,12.49-1.67,24.94-3.9,37.23-1.05,5.78-2.29,11.53-3.72,17.22-.53,2.11-1.14,3.69-2.09,5.45-1.27,2.38-1.72,4.84-2.44,7.47-3.11,11.37-7.89,22.13-13.42,32.52-2.63,4.94-5.4,9.8-8.2,14.65-1.54,2.67-3.39,4.71-5.26,7.11-1.24,1.59-1.79,3.46-3,5.07-15.69,20.97-34.59,39.26-57.4,52.46-3.44,1.99-.42,6.64,3.03,5.18,35.23-14.88,64.83-39.07,87.73-69.57,11.26-14.99,20.84-30.91,28.18-48.17s12.92-36.62,16.83-55.65c4.78-23.3,4.5-46.65,6.75-70.21l-5.89.8c3.54,9.69,4.54,19.83,4.4,30.1-.13,9.53-.31,19.16-.82,28.67-.55,10.13-3.06,20.13-5.22,30.02s-4.56,19.58-8.01,29.02c-13.04,35.68-36.21,68.39-65.77,92.23-17.2,13.87-38.22,25.19-59.48,31.27-3.76,1.08-2.16,6.47,1.6,5.79,37.51-6.81,72.61-24.19,101.3-49.23,14.55-12.7,27.39-27.38,38.04-43.49,2.61-3.95,5.08-7.99,7.42-12.1,2.14-3.78,4.73-6.95,7.03-10.55,6.05-9.44,10-21.07,13.91-31.53,4.71-12.61,8.49-25.33,11.89-38.34,3.57-13.65,5.18-27.93,7.5-41.84l-5.89-.8c1,79.17-41.16,161.27-110.68,201.23-21.75,12.5-45.55,19.49-70.12,23.88-3.34.6-2.55,6.02.8,5.89,88.37-3.28,162.29-68.28,196.59-146.82,1.1-2.52,2.17-5.06,3.2-7.61,1.14-2.82,1.23-5.54,2.49-8.29,2.92-6.4,4.74-12.84,6.82-19.56,4.68-15.07,6.69-30.69,10.79-45.92l-5.89-.8c-.1,14.49-2.18,28.79-5.37,42.91-1.47,6.48-3,13.04-4.98,19.38-.97,3.12-2.21,6.14-3.21,9.25-1.09,3.39-1.73,7.68-3.56,10.78-.72,1.22-1.71,1.91-2.47,3.17-1.21,2.03-1.89,4.75-2.82,6.93-2.15,5.06-4.5,10.03-7.02,14.91-4.82,9.34-10.28,18.35-16.32,26.95-24.41,34.77-58.8,63.22-98.51,78.73-22.24,8.69-45.85,13.16-69.74,12.99-3.98-.03-3.7,5.51,0,6,41.79,5.48,86.08-5.41,122.69-25.63,35.57-19.65,66.03-49.48,87.99-83.58,6.45-10.02,12.92-19.91,18.04-30.7,5.38-11.34,9.81-23.09,14.87-34.57l-5.48-2.31c-5.42,21.64-14.48,42.17-25.95,61.32-5.1,8.52-11.69,16.19-16.36,24.75-2.35,4.31-6.75,8.36-9.97,12.05s-6.8,7.59-10.36,11.23c-14.33,14.67-30.43,27.48-47.99,38.08-3.2,1.93-6.47,2.53-9.75,4.49-1.95,1.16-3.9,2.34-5.89,3.43-1.6.87-2.73.87-4.43,1.42-5.23,1.68-10.17,4.67-15.42,6.48s-10.28,3.23-15.5,4.57c-12.34,3.17-25.17,7.19-37.97,7.23-13.44.04-27.13.13-40.5-1.25-3.43-.35-3.98,5.02-.8,5.89,76.58,21.08,157.08-4.84,215.76-56.13,8.5-7.43,16.56-15.38,24.11-23.78,3.8-4.23,7.48-8.57,11.03-13.02,3.23-4.05,5.88-9.74,10.41-12.38l-4.41-3.39c-6.41,18.46-20.22,34.15-33.44,48.16-14.85,15.74-32.21,27.48-49.88,39.75-2.98,2.07-5.73,2.45-8.83,4.19-4.37,2.45-8.76,4.82-13.28,6.98-8.98,4.28-18.29,7.83-27.83,10.68-18.59,5.55-37.96,8.31-57.36,8.26-22.38-.06-44.51-3.9-65.68-11.11-3.19-1.09-5.38,3.98-2.31,5.48,41.05,20.06,87.54,25.29,132.33,17.04,22.53-4.15,44.4-11.69,64.85-22,10.44-5.27,20.5-11.29,30.07-18.01s17.75-15.1,27.43-21.28c6.39-4.08,11.72-10.5,16.97-15.93s11.02-11.19,16.01-17.3c9.84-12.02,18.82-24.7,27.44-37.6l-5.59-1.51c-.31,2.35-2.25,4.81-3.36,6.92-1.43,2.74-3.1,5.41-4.86,7.94-1.45,2.09-3.62,3.89-4.91,6.02-1.11,1.84-1.24,3.55-2.56,5.46-6.33,9.16-13.76,17.77-21.2,26.04-14.94,16.59-31.71,31.47-50.23,43.97-40.69,27.46-89.2,41.93-138.33,40.03-14.13-.54-27.44-3.57-41.15-6.77-6.77-1.58-13.32-3.32-19.85-5.76-3.55-1.33-7.26-2.51-10.55-4.42-2.72-1.58-5.26-3.16-8.22-4.31-3.33-1.28-4.98,3.69-2.31,5.48,49.9,33.43,112.82,37.79,170.04,24.38,6.24-1.46,14.29-2.47,20.02-5.39,2.08-1.06,3.48-2.08,5.82-2.92,3.75-1.34,7.46-2.79,11.13-4.35,6.27-2.66,12.24-5.85,18.37-8.83,1.92-.93,3.71-1.05,5.65-1.89,3.14-1.36,6.13-3.45,9.07-5.2,23.03-13.75,44.01-30.71,62.8-49.81,10.76-10.93,21.04-22.49,30.43-34.62,10.61-13.7,18.69-29.14,29.3-42.84l-5.01-2.92c-20.98,49.93-57.02,92.48-101.22,123.5-5.37,3.77-10.86,7.38-16.46,10.82-2.79,1.72-5.59,3.56-8.51,5.07-2.32,1.19-4.68,1.46-7.09,2.71-14.05,7.3-28.69,12.99-43.86,17.5-28.14,8.36-58.29,11.66-87.6,8.42-32.72-3.61-64.09-15.7-90.86-34.81-2.78-1.98-6.12,2.42-3.64,4.71,11.18,10.27,24.01,18.39,37.41,25.44,5.85,3.08,12.23,7.18,18.65,8.82,6.99,1.78,13.63,5.11,20.73,6.98,3.43.9,6.89,1.72,10.32,2.66,4.05,1.11,7.41,1.73,11.56,2.07,6.7.54,13.36,2.02,20.07,2.7,13.84,1.39,27.79,1.56,41.66.49,53.25-4.09,103.4-26.18,145.24-58.87,11.94-9.33,23.21-19.49,33.77-30.36,5.41-5.57,10.64-11.32,15.67-17.24,4.65-5.47,9.28-13.57,15.56-17.24l-4.1-4.1c-31.26,45.24-73.43,82.34-123.83,104.92-51.32,23-111.03,30.29-165.22,13.52-27.76-8.59-53.19-23.19-75.23-42.05-2.91-2.49-6.94,1.41-4.24,4.24,36.39,38.29,86.78,59.86,139.1,64.04,56.72,4.53,114.62-12.09,162.91-41.58,14.63-8.93,28.68-18.87,41.88-29.8,13.98-11.58,26.02-25.36,39.35-37.66l-4.24-4.24c-70.18,84.45-188.73,138.7-297.06,99.14-14.98-5.47-29.3-12.69-42.69-21.34-7.34-4.74-14.31-9.87-20.82-15.7-3.25-2.91-6.78-5.61-9.45-9.05-1.93-2.49-3.8-4.64-6.34-6.53-2.39-1.78-5.78,1.72-4.1,4.1,19.87,28.33,51.44,49.23,82.92,62.56,29.86,12.64,62.21,18.89,94.62,18.71,32.54-.18,64.96-6.67,95.35-18.18,15.2-5.76,29.95-12.72,44.07-20.79,7.49-4.28,14.81-8.88,21.92-13.76,6.22-4.27,12.36-10.45,19.11-13.63,3.63-1.71,6.48-4.63,9.83-6.98,3.99-2.8,7.7-6.02,11.39-9.21,7.96-6.89,15.54-14.2,22.84-21.78,14.59-15.15,28.04-31.33,41.67-47.34l-5.12-2.12c-.39,4.39-4.7,7.9-5.89,12.2l2.89-2.2c-2.41.09-3.28.64-4.6,2.5-2.59,3.66-4.84,7.58-7.39,11.28-4.96,7.18-10.27,14.11-15.9,20.78-10.55,12.5-22.16,24.05-34.29,35.02-25.46,23.04-55.18,42.03-86.49,56.07-30.22,13.56-62.85,21.9-95.99,23.15-17.47.66-34.39-1.19-51.65-3.54-3.85-.52-7.63-.48-11.47-1.33-4.84-1.07-9.66-2.28-14.42-3.68-3.78-1.11-7.53-2.33-11.22-3.7-4.04-1.49-7.98-3.75-12.13-4.89-8.48-2.33-16.23-6.9-23.9-11.33-8.04-4.64-15.86-9.67-23.34-15.17-15.14-11.12-28.75-24.34-39.62-39.68-2.23-3.15-6.86-.48-5.18,3.03,13.9,29.12,38.73,53.87,65.14,71.91,26.25,17.93,56.36,29.98,87.49,36.17s64.98,7.39,96.51,1.82c17.77-3.14,35.41-7.16,52.57-12.78,8.03-2.63,15.94-5.62,23.7-8.97,8.23-3.54,16.04-8.3,24.47-11.18,4.24-1.45,8.11-4.47,11.95-6.73,4.53-2.68,9.07-5.33,13.59-8.01,8.98-5.34,17.87-10.83,26.42-16.83,17.01-11.93,31.72-26.78,47.87-39.79l-5.12-2.12c0,2.47-5.1,6.21-7.13,8.28-3.54,3.6-7.15,7.13-10.8,10.62-6.38,6.11-12.77,13.28-20.32,17.76-1.83,1.09-2.64,2.58-4.35,3.68-3.51,2.27-6.8,4.78-10.14,7.3-7.03,5.32-14.26,10.38-21.66,15.16-28.54,18.43-59.77,32.7-92.65,41.37-65.58,17.3-137.91,11.24-197.19-22.94-16.4-9.46-31.23-21.15-44.42-34.72-14.73-15.15-26.22-32.27-35.75-51.04-1.76-3.46-6.86-.42-5.18,3.03,8.13,16.72,15.05,33.5,25.74,48.85,10.01,14.38,21.89,27.45,35.4,38.6,6.73,5.55,13.82,10.68,21.24,15.25,3.61,2.22,6.64,5.09,10.2,7.25,4.43,2.7,9.06,5.11,13.68,7.46,16.17,8.23,33.18,14.88,50.67,19.7,69.58,19.17,143.8,8.6,208.96-20.76,18.74-8.45,36.79-18.42,53.97-29.72,8.88-5.84,17.52-12.03,25.92-18.53,9.25-7.16,17.65-15.43,27.33-22.03l-3.64-4.71c-14.28,13.18-29.11,25.48-44.95,36.64-3.53,2.49-7.5,4.39-11.09,6.89-4.01,2.79-8.07,5.49-12.18,8.12-7.44,4.76-15.05,9.26-22.81,13.47-31.06,16.85-64.65,29.11-99.48,35.29-71.06,12.6-143.36-2.76-202.37-44.38-33.18-23.41-59.19-57.62-73.12-95.71-1.31-3.59-6.68-2.22-5.79,1.6,19.26,82.31,95.39,140.69,174.54,159.93,77.55,18.85,159.32,4.57,230.22-30.32,10.44-5.14,20.66-10.72,30.64-16.7,4.88-2.93,9.62-6.47,14.79-8.81s9.62-5.84,14.28-9.18c19.52-14,38.69-28.51,56.55-44.59l-5.12-2.12c0,2.6-6.11,7.28-8.31,9.51-3.51,3.55-7.08,7.03-10.73,10.44-7.23,6.77-14.72,13.25-22.45,19.45-15.66,12.56-32.32,23.87-49.62,34.05-34.59,20.36-71.73,35.16-110.94,43.88-43.06,9.57-87.3,10.98-130.62,2.18-40.79-8.28-78.4-26.04-111.04-51.83-17.42-13.77-31.86-30.6-43.47-49.49-6.31-10.28-12.33-20.23-16.96-31.42s-8.59-23.35-10.97-35.58c-.64-3.28-6.2-2.59-5.89.8,6.66,73.49,55.86,137.79,120.11,171.89,34.28,18.19,70.69,29.91,109.32,34.19,38.65,4.28,77.85,1.71,115.84-6.43,21.47-4.6,42.55-10.95,63.08-18.73,9.59-3.63,18.95-7.61,28.17-12.03,4.55-2.18,9.29-3.57,13.74-6.04,4.74-2.63,9.28-5.46,14.54-6.96l-2.31-5.48c-34,21.33-71.02,37.46-109.92,47.43-9.75,2.5-19.6,4.62-29.51,6.37s-18.92,2.05-28.44,3.08c-18.9,2.04-37.97,2.48-56.93,1.19-75.38-5.14-150.16-39.87-196.17-100.99-24.07-31.98-38.69-70.31-39.52-110.49-.08-3.86-5.93-3.87-6,0-1.13,58.96,25.07,115.07,66.2,156.53,46.97,47.36,112.23,73.19,177.9,80.31,43.43,4.71,87.17.41,129.7-8.95l-1.6-5.79c-58.38,17.38-121.56,19.86-180.67,4.47-60.22-15.68-114.54-50.69-150.62-101.79-26.34-37.3-38.95-82.3-37.91-127.79.08-3.29-5.39-4.2-5.89-.8-8.82,60.3,10.77,120.74,48.13,168.19,38.68,49.11,96.2,82.93,156.28,98.59,9.34,2.43,18.83,4.64,28.31,6.47s19.44,2.23,29.17,3.27c10.41,1.11,20.29,2.68,30.79,2.37s21.65-1.07,32.41.79v-5.79c-35.71,5.51-72.06,3.85-107.36-3.66-30.06-6.39-59.47-15.43-86.71-29.85-13.79-7.31-26.96-15.83-39.22-25.49-2.35-1.85-4.69-3.12-7.12-4.71-3.6-2.36-6.81-5.74-10.05-8.57-5.99-5.23-12.11-10.55-17.2-16.68-10.13-12.21-20.03-24.25-28.3-37.85-8.16-13.42-15.01-27.63-20.21-42.46-11.58-33.07-14.64-68.56-8.13-103.03l-5.89-.8c-.39,3.79-2.77,7.66-3.8,11.37-1.1,3.93-2.08,7.9-2.94,11.89-1.6,7.34-2.79,14.76-3.63,22.21-1.71,15.14-1.75,30.46-.21,45.62,3.02,29.61,11.96,58.39,25.63,84.8s33.34,52.1,55.92,73c12.07,11.17,25.23,20.98,38.69,30.39,14.7,10.28,29.85,19.57,46.17,27.06,8.83,4.05,17.53,8.31,26.64,11.7,10.11,3.76,20.35,7.19,30.68,10.3,20.74,6.26,41.82,11.26,63.05,15.53l-2.1-3.69c-.31.97-.25,1.58-.04,2.55.07.32,1.21,2.53.71.94l2.1-3.69c-17.88,2.98-37.29.07-54.87-3.4s-35.11-8.03-51.84-14.31c-4.03-1.52-8.06-3.06-12.09-4.59-3.71-1.41-8.52-2.45-11.7-4.55-.67-.44-1.08-1.26-1.87-1.73-1.26-.75-2.94-1.04-4.32-1.5-4.62-1.54-8.67-3.69-12.91-6.04-14.61-8.11-29.05-16.57-42.53-26.49-27.3-20.1-49.94-44.97-68.63-73.1-2.14-3.22-3.91-6.69-5.8-10.05-.83-1.47-2.23-3.15-2.74-4.74-.33-1.02-.19-2.07-.56-3.09-1.11-3.03-3.47-6.08-5.15-8.85-2.71-4.47-4.55-9.45-6.39-14.34-6.43-17.09-11.52-34.9-13.97-53.03-5.26-38.95,1.55-79.56,19.08-114.66,1.71-3.43-3.28-6.43-5.18-3.03-27.65,49.37-32.77,107.94-19.18,162.44,1.44,5.79,2.8,11.56,5.65,16.69s4.26,11.72,6.53,17.23c4.85,11.73,10.56,23.08,17.14,33.93,13.28,21.9,29.86,41.7,48.36,59.37,5.18,4.95,10.52,9.74,15.98,14.38s10.88,10.16,17.09,13.43,11.86,8.54,18.07,12.4c6.98,4.34,14.31,8.11,21.43,12.22l2.31-5.48c-3.48-1.24-6.76-2.79-9.99-4.59-2.86-1.6-5.03-3.93-7.69-5.64-1.39-.89-2.76-.93-4.21-1.64-3.26-1.58-6.47-4.58-9.46-6.63-11.22-7.7-22.43-15.25-32.34-24.63-19.82-18.75-38.02-38.56-52.61-61.72-27.69-43.93-42.73-94.38-38.27-146.52,2.57-30.06,11.74-59.38,27.36-85.22,2.06-3.4-2.91-6.01-5.18-3.03-57.69,75.78-54.42,179.06-12.16,261.2,6.27,12.2,13.45,23.86,21.25,35.13,1.35,1.96,1.27,3.83,2.62,5.69.53.72,1.43,1.1,1.92,1.78.76,1.04.57,1.46,1.07,2.51,2.77,5.79,9.89,10.36,9.89,17.2l4.51-2.59c-21.59-15.05-38.19-36-51.19-58.68-2.97-5.18-5.76-10.45-8.39-15.8-1.49-3.04-2.94-6.11-4.33-9.2-1.3-2.88-2.31-6.63-4.01-9.25-.87-1.34-1.83-2.02-2.56-3.4-1.28-2.41-2.07-5.27-2.99-7.84-2.06-5.75-3.88-11.58-5.46-17.48-11.89-44.58-9.89-92.96,6.79-136.06,9.51-24.58,24.03-47.02,42.74-65.58,2.34-2.32-.87-6.84-3.64-4.71-4.22,3.25-8.84,5.85-13.19,8.91-3.61,2.54-5.72,5.93-9.04,8.74-7.63,6.46-14.76,13.51-21.3,21.07-12.65,14.61-23.11,31.02-31.37,48.48-4.13,8.72-7.74,17.69-10.89,26.82-3.57,10.37-4.88,21.06-7.06,31.74-4.52,22.19-6.06,44.33-4.01,66.93,1.16,12.79,2.28,26.03,4.88,38.61,2.72,13.14,6.73,25.99,9.58,39.1l5.48-2.31c-6.67-9.47-10.32-21.85-13.21-32.97-3.07-11.81-4.96-24.05-6.5-36.14-3.09-24.22-3.53-48.97,1.63-72.94,2.22-10.3,3.75-20.48,6.94-30.58,2.92-9.24,6.49-18.27,10.72-26.98,8.44-17.37,19.32-33.52,32.33-47.79,14.73-16.16,31.98-29.74,51.01-40.49l-3.03-5.18c-54.73,35.65-88.88,97.2-93.61,162.09-1.45,19.92.3,39.94,5.23,59.3.87,3.41,5.67,2.47,5.89-.8.54-8.07-.41-16.07-.92-24.12-.55-8.55.39-16.89.87-25.42.93-16.36,3.73-33.12,8.09-48.95,8.39-30.44,22.51-57.81,42.47-82.21,5.47-6.69,11.25-12.56,17.43-18.59,6.29-6.14,12.73-12.02,20.58-16.12l-3.03-5.18c-15.69,8.8-29.01,20.95-41.03,34.23s-22.42,27.53-30.83,43.57c-17.38,33.17-26.4,71.35-26.63,108.79h6c-2.09-56.04,18.84-112.87,58.19-153.08,11.13-11.37,23.64-21.21,37.33-29.33,3.36-1.99.41-6.84-3.03-5.18-33.25,16.03-62.26,41.54-82.44,72.44-9.65,14.77-17.58,30.56-24.21,46.9-3.28,8.08-6.22,16.29-8.94,24.57-2.24,6.82-5.91,14.63-5.91,21.86,0,3.86,6,3.87,6,0,0-13.18,3.13-26.98,6.77-39.58,3.84-13.27,9.17-26.07,15.81-38.19,13.32-24.28,31.86-45.76,54.02-62.38,12.62-9.46,26.38-17.3,40.9-23.44,3.18-1.34.89-6.35-2.31-5.48-26.35,7.18-51.25,19.14-72.89,35.86-11.08,8.56-21.24,18.26-30.24,28.99-1.97,2.35-4,3.92-6.2,5.92-2.64,2.4-4.77,5.98-6.86,8.86-2.4,3.32-4.73,6.69-7.29,9.89-2.01,2.52-2.78,4.22-4.04,7.09-1.91,4.37-5.46,8.39-7.81,12.57-2.06,3.67-3.97,7.43-5.86,11.2-3.92,7.84-7.82,15.65-12.63,23l5.59,1.51c.27-9.31,4.75-18.16,8.22-26.64s8.4-17.22,13.42-25.26c9.07-14.52,20.53-28.36,32.81-40.28,6.25-6.07,12.97-11.65,20.21-16.51s14.1-9.92,21.96-14.03c16.84-8.82,34.57-15.41,53.17-19.38,3.28-.7,2.59-6.08-.8-5.89-15.5.87-30.94,2.95-46,6.76s-26.91,10.2-40.22,16.63c-6.47,3.13-12.26,6.94-18.04,11.2s-11.73,8.11-17,12.9-10.14,9.6-14.12,15.23c-3.32,4.69-7.21,8.71-8.51,14.49-.53,2.36,1.42,4.1,3.69,3.69,5.74-1.03,10.22-6.49,14.41-10.12,5.26-4.56,10.68-8.93,16.17-13.2,6.41-4.98,12.81-10.26,19.54-14.79,2.34-1.57,4.96-2.32,7.4-3.72,3.29-1.88,6.43-4.05,9.71-5.95,24.7-14.27,51.84-22.91,79.77-28.22,3.29-.63,2.58-6.15-.8-5.89-16.74,1.28-33.41,3.6-49.75,7.52-8.29,1.99-16.48,4.37-24.52,7.2s-15.49,6.67-23.52,9.39l2.31,5.48c27.42-20.94,62.93-25.48,96.49-24.59,2.89.08,4.21-4.25,1.51-5.59-7.64-3.81-15.37-7.47-23.42-10.37-4.2-1.51-8.58-2.44-12.77-3.94-3.87-1.39-6.15-3.1-10.33-3.1l2.89,2.2c-.87-3.08-3.76-4.11-6.61-2.86-2.53,1.12-1.5,4.76.72,5.48,1.33.43,3.35-.14,4.55-.23,2.34-.17,4.7-.13,7.02.1,5,.49,9.92,1.91,14.58,3.76,9.43,3.74,18,9.43,26.33,15.13l-1.38-3.39c-2.23,6.53-4.14,12.64-5.19,19.45-.99,6.42-3.43,11.74-.81,18.14.99,2.4,5.19,3.27,5.79,0,1.97-10.75,4.16-21.44,7-32h-5.79c2.84,12.96,6.28,25.92,12.42,37.75,2.91,5.61,6.47,10.91,10.67,15.64,3.53,3.97,8.17,9.81,13.81,9.81,1.29,0,2.57-.93,2.89-2.2,1.03-4.11-1.35-7.62-3.36-11.05-3.35-5.7-6.75-11.36-9.99-17.13-6.29-11.22-12.2-22.63-17.96-34.13l-4.71,3.64c23.69,25.54,54.35,46.35,89.32,51.77,3.86.6,5.15-4.29,1.6-5.79-30.17-12.67-60.63-26.46-84.68-49.23-2.81-2.66-6.87,1.41-4.24,4.24,8.24,8.89,16.31,17.99,25.33,26.12,4.25,3.82,8.71,7.43,13.38,10.72,1.14.8,2.61,1.51,3.56,2.56.68.75.98,1.86,1.73,2.61,1.96,1.95,4.98,3.3,7.31,4.78,10.87,6.88,21.98,13.38,33.26,19.55,5.88,3.22,11.8,6.35,17.76,9.42,2.87,1.48,5.82,2.84,8.65,4.4s4.14,2,4.14,3.73l2.2-2.89c-7.33,1.89-14.32.3-21.36-1.97-6.06-1.96-12.58-3.99-18.32-6.72-9.84-4.69-19.33-10.78-28.11-17.22s-17.11-14.01-24.39-22.31c-8.46-9.64-14.85-20.45-21.42-31.4-2.04-3.4-6.68-.43-5.18,3.03,12.44,28.69,31.83,54.05,56.04,73.82,6.01,4.91,12.29,9.51,18.81,13.73,5.93,3.84,13.01,6.79,18.41,11.16,2.94,2.38,6.86,3.46,10.38,5s7.24,3.22,10.88,4.76c8.49,3.59,17.1,6.63,26.27,7.92,3.7.52,5.44-4.73,1.6-5.79-58.74-16.15-111.21-56.31-136.21-112.62-1.56-3.52-6.73-.47-5.18,3.03,23.76,53.57,71.58,93.49,126.74,111.93,4.22,1.41,8.48,2.69,12.77,3.85,3.1.84,5.35,2.47,8.58,2.89,9.97,1.31,19.48,4.74,29.5,5.82v-6c-56.81-4.82-111.94-32.85-147.57-77.65-10.14-12.75-18.46-26.88-24.84-41.86-1.37-3.21-6.28-.87-5.48,2.31,3.73,14.93,11.1,28.42,19.61,41.13,8.59,12.82,17.79,24.95,28.9,35.71,22.06,21.35,48.28,37.78,76.7,49.28,16.13,6.53,32.88,11.35,49.88,14.98l.8-5.89c-30.92-4.1-60.35-15.38-86.94-31.55-3.33-2.03-6.62-4.13-9.86-6.29-2.99-2-6.96-3.98-9.35-6.68-2.15-2.42-3.76-4.11-6.43-6.23-2.85-2.27-5.63-4.64-8.33-7.09-11.03-10.02-20.7-21.46-28.83-33.94-8.95-13.73-16-28.56-21.37-44.03-1.26-3.64-6.61-2.2-5.79,1.6,3.7,17.04,9.78,33.46,17.97,48.85s18.25,30.92,30.55,43.22c6.61,6.61,12.99,13.64,20.08,19.74s14.29,11.28,21.69,16.59c16.09,11.55,34.11,19.32,51.09,29.39l2.31-5.48c-16.09-3.71-30.92-10.63-45.21-18.76-6.28-3.57-11.94-8.34-17.87-12.48s-11.7-8.7-17.15-13.54c-20.43-18.14-36.89-40.59-47.82-65.65-6.19-14.2-10.44-29.19-12.86-44.48-.6-3.8-6.38-2.19-5.79,1.6h0Z"/>
  </g>
</svg>