<?xml version="1.0" encoding="UTF-8"?>
<svg id="Layer_2" data-name="Layer 2" xmlns="http://www.w3.org/2000/svg" viewBox="0 0 598.26 598.26">
  <defs>
    <style>
      .cls-1 {
        fill: none;
        stroke: #00bf80;
        stroke-miterlimit: 10;
        stroke-width: 2px;
      }
    </style>
  </defs>
  <g id="images">
    <g>
      <g>
        <path class="cls-1" d="m510.33,299.13c105.6,174.96-36.24,316.8-211.2,211.2-174.96,105.6-316.8-36.24-211.2-211.2C-17.67,124.17,124.17-17.67,299.13,87.93c174.96-105.6,316.8,36.24,211.2,211.2Z"/>
        <path class="cls-1" d="m66.33,268.22c-57.2-12.48-27.83-128.99,94.35-90.78,102.14-77.53,170.36,13.9,126.31,62.97,62.23-3.7,79.05,36.76-23.13,55.41-19.04,21.29-51.37-15.97-39.58-28.31,55.34-38,120.14-12.8,71.39,23.06,66.35,33.89,51.2,110.33-51.8,102.49-39.85,92.04-106.84,74.54-109.15,7.83-48.3,41.01-126.14,5.1-70.41-98.14-58.21,4.79-58.29-24.69-.06-19.66-58.23-5.04-55.12-27.38,2.08-14.9Z"/>
      </g>
      <g>
        <path class="cls-1" d="m87.93,299.13C-17.67,124.17,124.17-17.67,299.13,87.93c174.96-105.6,316.8,36.24,211.2,211.2,105.6,174.96-36.24,316.8-211.2,211.2-174.96,105.6-316.8-36.24-211.2-211.2Z"/>
        <path class="cls-1" d="m531.94,330.04c57.2,12.48,27.83,128.99-94.35,90.78-102.14,77.53-170.36-13.9-126.31-62.97-62.23,3.7-79.05-36.76,23.13-55.41,19.04-21.29,51.37,15.97,39.58,28.31-55.34,38-120.14,12.8-71.39-23.06-66.35-33.89-51.2-110.33,51.8-102.49,39.85-92.04,106.84-74.54,109.15-7.83,48.3-41.01,126.14-5.1,70.41,98.14,58.21-4.79,58.29,24.69.06,19.66,58.23,5.04,55.12,27.38-2.08,14.9Z"/>
      </g>
      <g>
        <path class="cls-1" d="m299.13,510.33c-174.96,105.6-316.8-36.24-211.2-211.2C-17.67,124.17,124.17-17.67,299.13,87.93c174.96-105.6,316.8,36.24,211.2,211.2,105.6,174.96-36.24,316.8-211.2,211.2Z"/>
        <path class="cls-1" d="m330.04,66.33c12.48-57.2,128.99-27.83,90.78,94.35,77.53,102.14-13.9,170.36-62.97,126.31,3.7,62.23-36.76,79.05-55.41-23.13-21.29-19.04,15.97-51.37,28.31-39.58,38,55.34,12.8,120.14-23.06,71.39-33.89,66.35-110.33,51.2-102.49-51.8-92.04-39.85-74.54-106.84-7.83-109.15-41.01-48.3-5.1-126.14,98.14-70.41-4.79-58.21,24.69-58.29,19.66-.06,5.04-58.23,27.38-55.12,14.9,2.08Z"/>
      </g>
      <g>
        <path class="cls-1" d="m299.13,87.93c174.96-105.6,316.8,36.24,211.2,211.2,105.6,174.96-36.24,316.8-211.2,211.2-174.96,105.6-316.8-36.24-211.2-211.2C-17.67,124.17,124.17-17.67,299.13,87.93Z"/>
        <path class="cls-1" d="m268.22,531.94c-12.48,57.2-128.99,27.83-90.78-94.35-77.53-102.14,13.9-170.36,62.97-126.31-3.7-62.23,36.76-79.05,55.41,23.13,21.29,19.04-15.97,51.37-28.31,39.58-38-55.34-12.8-120.14,23.06-71.39,33.89-66.35,110.33-51.2,102.49,51.8,92.04,39.85,74.54,106.84,7.83,109.15,41.01,48.3,5.1,126.14-98.14,70.41,4.79,58.21-24.69,58.29-19.66.06-5.04,58.23-27.38,55.12-14.9-2.08Z"/>
      </g>
      <g>
        <path class="cls-1" d="m448.47,149.79c198.39,49.05,198.39,249.63,0,298.68-49.05,198.39-249.63,198.39-298.68,0-198.39-49.05-198.39-249.63,0-298.68,49.05-198.39,249.63-198.39,298.68,0Z"/>
        <path class="cls-1" d="m113.01,441.96c-49.98,31.48-111.6-71.66,2.53-130.9,16.7-127.18,129.58-110.77,133.84-44.79,40.68-46.75,81.19-30.04,22.83,55.54.88,28.39-48.32,24.9-48.01,7.97,11.56-66.14,75.2-94.14,66.79-34.17,70.18-23.09,113.52,41.68,35.85,109.1,36.2,93.13-23.54,128.12-71.64,82.72-5.86,63.02-86.29,92.67-119.18-19.6-38.47,44.41-59.38,23.63-13.94-13.86-45.44,37.48-59.04,19.48-9.06-12Z"/>
      </g>
      <g>
        <path class="cls-1" d="m448.47,448.47c-49.05,198.39-249.63,198.39-298.68,0-198.39-49.05-198.39-249.63,0-298.68,49.05-198.39,249.63-198.39,298.68,0,198.39,49.05,198.39,249.63,0,298.68Z"/>
        <path class="cls-1" d="m156.3,113.01c-31.48-49.98,71.66-111.6,130.9,2.53,127.18,16.7,110.77,129.58,44.79,133.84,46.75,40.68,30.04,81.19-55.54,22.83-28.39.88-24.9-48.32-7.97-48.01,66.14,11.56,94.14,75.2,34.17,66.79,23.09,70.18-41.68,113.52-109.1,35.85-93.13,36.2-128.12-23.54-82.72-71.64-63.02-5.86-92.67-86.29,19.6-119.18-44.41-38.47-23.63-59.38,13.86-13.94-37.48-45.44-19.48-59.04,12-9.06Z"/>
      </g>
      <g>
        <path class="cls-1" d="m149.79,448.47c-198.39-49.05-198.39-249.63,0-298.68,49.05-198.39,249.63-198.39,298.68,0,198.39,49.05,198.39,249.63,0,298.68-49.05,198.39-249.63,198.39-298.68,0Z"/>
        <path class="cls-1" d="m485.26,156.3c49.98-31.48,111.6,71.66-2.53,130.9-16.7,127.18-129.58,110.77-133.84,44.79-40.68,46.75-81.19,30.04-22.83-55.54-.88-28.39,48.32-24.9,48.01-7.97-11.56,66.14-75.2,94.14-66.79,34.17-70.18,23.09-113.52-41.68-35.85-109.1-36.2-93.13,23.54-128.12,71.64-82.72,5.86-63.02,86.29-92.67,119.18,19.6,38.47-44.41,59.38-23.63,13.94,13.86,45.44-37.48,59.04-19.48,9.06,12Z"/>
      </g>
      <g>
        <path class="cls-1" d="m149.79,149.79c49.05-198.39,249.63-198.39,298.68,0,198.39,49.05,198.39,249.63,0,298.68-49.05,198.39-249.63,198.39-298.68,0-198.39-49.05-198.39-249.63,0-298.68Z"/>
        <path class="cls-1" d="m441.96,485.26c31.48,49.98-71.66,111.6-130.9-2.53-127.18-16.7-110.77-129.58-44.79-133.84-46.75-40.68-30.04-81.19,55.54-22.83,28.39-.88,24.9,48.32,7.97,48.01-66.14-11.56-94.14-75.2-34.17-66.79-23.09-70.18,41.68-113.52,109.1-35.85,93.13-36.2,128.12,23.54,82.72,71.64,63.02,5.86,92.67,86.29-19.6,119.18,44.41,38.47,23.63,59.38-13.86,13.94,37.48,45.44,19.48,59.04-12,9.06Z"/>
      </g>
    </g>
  </g>
</svg>