<?xml version="1.0" encoding="UTF-8"?>
<svg id="Layer_2" data-name="Layer 2" xmlns="http://www.w3.org/2000/svg" viewBox="0 0 590.19 585.06">
  <defs>
    <style>
      .cls-1, .cls-2 {
        fill: none;
        stroke: #4865cc;
        stroke-linecap: round;
        stroke-linejoin: round;
      }

      .cls-3 {
        fill: #4865cc;
      }

      .cls-2 {
        stroke-width: 31px;
      }
    </style>
  </defs>
  <g id="images">
    <g>
      <path class="cls-2" d="m169.2,397.6c-181.6,168.03-228.19,115.87,3.2-33.13-122.53,91.1-96.41,233.53,40.96,50.54-97.93,203.5-76.4,189.65,18.04-32.43-88.61,70.49-69.81,67.39,18.41-26.97-41.49,120.1-66.16,223.94,18.51,61.09-28.13,202.68-15,203.82,12.02,3.22-14.68,200.14-8.65,198.47,6.87-1.88,1.4,190.9,8.39,177.34,5.74-18.49-11.3,126.47-100.59-8.74-16.4-84.12,31.96,22.7,45.67,160.11,44.92,20.44,77.12,17.62,97.33-109.31,8.92-100.33,15.28-124.33-32.84-135.04-49.87-15.42-57.8-58.34-44.42,10.9,4.87,58.09,22.64,37.47,81.05,79.31,65.05,16.59,145.78-24.39,218.67-124.62,65.51-77.61,198.38-139.46,223.74-215.74,2.23-73.98"/>
      <g>
        <path class="cls-3" d="m83.6,481.35c-10.87,30.53,17.52,30.98,12.93-10.81,10.33-5.46-19.36-22.81-5-20.73,12.42-25.48,27.32,2.31,13.16,11.23,25.19,11.14-3.33-52.37-9.4-21.85,6.07-30.53-31.81-11.41-15.47,7.81-16.34-19.22-22.68,15.72-2.59,14.27-20.09,1.45-7.42,25.25,5.18,9.72-12.6,15.53-9.68,40.88,1.19,10.36Z"/>
        <path class="cls-1" d="m83.6,481.35c-10.87,30.53,17.52,30.98,12.93-10.81,10.33-5.46-19.36-22.81-5-20.73,12.42-25.48,27.32,2.31,13.16,11.23,25.19,11.14-3.33-52.37-9.4-21.85,6.07-30.53-31.81-11.41-15.47,7.81-16.34-19.22-22.68,15.72-2.59,14.27-20.09,1.45-7.42,25.25,5.18,9.72-12.6,15.53-9.68,40.88,1.19,10.36Z"/>
      </g>
      <g>
        <path class="cls-3" d="m531.28,47.53c44.49,23.38,34.44,61.77-9.17,35.01-11.32,49.89-45.8,30.26-31.46-17.9-44.49-23.38-34.44-61.77,9.17-35.01,11.32-49.89,45.8-30.26,31.46,17.9Z"/>
        <path class="cls-1" d="m531.28,47.53c44.49,23.38,34.44,61.77-9.17,35.01-11.32,49.89-45.8,30.26-31.46-17.9-44.49-23.38-34.44-61.77,9.17-35.01,11.32-49.89,45.8-30.26,31.46,17.9Z"/>
      </g>
      <g>
        <path class="cls-3" d="m546.27,84.37c4.59,19.39-21.85,79.77-12.67,46.27-9.18,33.5-5.42-41.14,1.53-30.49-6.96-10.65,20.31-49.28,11.14-15.78Z"/>
        <path class="cls-1" d="m546.27,84.37c4.59,19.39-21.85,79.77-12.67,46.27-9.18,33.5-5.42-41.14,1.53-30.49-6.96-10.65,20.31-49.28,11.14-15.78Z"/>
      </g>
      <g>
        <path class="cls-3" d="m486.77,89.5c-15.91-25.45-8.35-11.76,6.42,8.44,1.54-6.23,23.96,12.59,7.01,26.7,3.54,25.45,24.46-3.76,8.54-11.93,15.91,8.17,11.05-25.14-1.99-13.61,13.03-11.54-17.84-34.75-12.61-9.48-5.23-25.27-23.29-25.57-7.38-.12Z"/>
        <path class="cls-1" d="m486.77,89.5c-15.91-25.45-8.35-11.76,6.42,8.44,1.54-6.23,23.96,12.59,7.01,26.7,3.54,25.45,24.46-3.76,8.54-11.93,15.91,8.17,11.05-25.14-1.99-13.61,13.03-11.54-17.84-34.75-12.61-9.48-5.23-25.27-23.29-25.57-7.38-.12Z"/>
      </g>
    </g>
  </g>
</svg>