<?xml version="1.0" encoding="UTF-8"?>
<svg id="Layer_2" data-name="Layer 2" xmlns="http://www.w3.org/2000/svg" viewBox="0 0 645.18 552.22">
  <defs>
    <style>
      .cls-1 {
        fill: #086b53;
      }
    </style>
  </defs>
  <g id="images">
    <path class="cls-1" d="m321.35,277.14c34.98-45.35,74.4-167.8.85,3.42-118.65-383.94-250.19-364.37,4.31.86-375.19-306.84-492.46-221.05,2.23-4.92-443.13,168.47-310.68,312.74-5.26-5.4,87.55,409.62,303.16,337.66-7.81,2.16,457.58,177.72,420.64,146.91.34.69,355.07,216.98,267.37,269.83,3.39-1.09,11.37,202.09,12.36,97.01,2.33,2.52,9.46,52.78,13.35,13.27-.15,1.13,26.38-18.42,31.37-30.86-.22.62Z"/>
  </g>
</svg>