<?xml version="1.0" encoding="UTF-8"?>
<svg id="Layer_2" data-name="Layer 2" xmlns="http://www.w3.org/2000/svg" viewBox="0 0 936.25 694.07">
  <defs>
    <style>
      .cls-1 {
        fill: none;
        stroke: #1ca86f;
        stroke-miterlimit: 10;
        stroke-width: 3px;
      }

      .cls-2 {
        fill: #032c2d;
      }

      .cls-3 {
        fill: #1ca86f;
      }
    </style>
  </defs>
  <g id="images">
    <g>
      <path class="cls-3" d="m484,341.07c62-13,101-69,115-130,1-3,2-7,4-7,3-2,3,3,3,5,2,14,2,28-2,42-8,31-23,57-48,77-12,9-24,17-39,21-11,3-22,5-34,4,3,2,6,2,9,3,1,0,3,2,4,2,29,7,57,5,84-5,10-4,19-8,29-14,12-8,23-15,35-23h4c1,5-1,10-5,14v2c-3,2-3,6-7,8-1,1-1,3-2,4l-12,12c-21,18-44,29-71,33-25,3-51-1-73-14,23,23,54,35,86,37,37,2,72-10,104-30,41-28,70-64,91-107,1-1,1-3,3-3-1-1,2-2,1-3,2,0,1-3,3-3,2,1,1,3,1,4-2,8-4,15-6,22-6,12-11,24-18,36-7,13-16,23-24,35-1,1-2,1-3,2-2,2-2,4-4,6-12,10-22,22-36,30l-3,3c-35,22-73,35-114,31-33-3-65-18-87-44,27,41,78,61,126,59,64-3,121-37,164-85,5-6,10-12,16-18-1,10-9,17-14,26l-2,1c-1,3-3,6-5,8-5,5-9,11-14,16-58,61-152,93-230,52-25-14-47-34-57-61,3,20,10,37,22,54,10,15,22,24,36,35,11,8,22,13,34,18,30,13,61,13,93,18v2c-46,16-97,7-139-19-40-25-66-68-63-114-6,32,3,65,21,93,2,2,3,4,5,7,19,25,42,43,70,56,26,12,54,18,82,23-1,1,2,1,1,2-32,7-63-1-93-13-18-7-36-16-50-30-1-1-3-1-4-2-40-36-63-91-45-143-50,63-19,155,37,204h-2c-12-8-21-17-29-27-1-1-3-2-4-3-19-26-33-51-37-82-1-12-2-24-1-36,1-10,4-20,7-30,5-13,12-24,20-35,2-2,5-4,7-6-24,17-38,44-47,72v4c-7,22-3,45-6,68h-2c-16-27-14-60-6-89,0-1,2-2,2-3,1-5,3-10,6-14,1-1,0-3,1-4,1-2,2-5,4-7s3-4,5-7c11-15,25-26,41-33-14,2-26,8-39,15-2,2-4,4-7,5l-3,3c-1,1-3,1-4,2-24,21-40,47-48,77,0,2-1,5-1,7-3,11-4,22-7,33,0,0-2,0-2-1-6-51,15-102,59-130,15-10,31-18,49-18-24,0-44,11-64,24-10,8-18,16-26,25-7,8-12,17-17,26-9,18-16,37-21,57-3-5-1-11-1-16,1-5,2-11,3-16,10-37,30-70,64-89l3-3c19-10,39-15,60-15-22-3-45,0-66,7-1,0-2,1-3,2-27,10-50,28-71,49-4,4-9,8-14,10-1,1-3-1-3-1-2-17,9-30,18-44,10-13,21-23,35-32,33-20,74-25,108-8-35-28-85-32-127-18-45,15-79,46-108,84-3,3-5,7-10,9,2-20,15-36,26-53,8-10,16-18,25-27,2-2,4-2,6-4,1-1,1-2,2-3,43-34,97-49,148-31,18,6,34,15,47,29-7-15-19-25-31-35-17-14-35-22-56-26-52-10-102,2-147,32h-2c-3,3-7,4-10,7h-3c37-37,91-58,144-55,47,2,92,28,114,70-15-35-47-59-83-71-73-22-150,7-205,56,49-53,127-83,200-64l9,3c1,0,3,1,4,2,2,0,3,0,5,1,33,13,60,38,74,70-16-48-60-80-111-90-69-13-131,10-187,51-1,1-1,0-1-1,35-35,79-56,128-63,28-4,54-2,81,5l9,3c20,8,38,18,54,32,2,2,4,5,7,7,15,17,26,36,30,58,0-52-38-96-84-118-14-7-28-11-44-15l-18-3c-9-2-17-1-26-2-5,0-10,0-16,1-3,0-6,2-9-1,78-18,173,18,202,97l3,9c3,13,5,26,3,39,6-14,5-31,3-46-2-25-12-46-27-67-17-21-36-37-59-50s-47-18-70-27c26-1,52,7,76,18,33,16,61,40,79,73,18,34,22,74,7,109,2-3,4-6,5-9,1-1,2-3,3-4,20-39,15-84-4-122-1-1-2-3-3-5,0-1-2-1-2-2-6-14-17-25-26-36,7,5,12,12,17,19,1,0,2,1,2,1,6,9,11,17,16,26,2,4,3,7,5,11,18,43,15,97-18,132,23-37,24-88-5-123h-2c-1,3,1,5,1,8,13,37,15,78-3,113,11-33,5-68-16-97-3-3-5-7-8-10-7-6-13-14-22-16v2c4,5,7,10,11,15,1,0,2,1,2,1,8,13,16,24,20,38,0,1,2,2,2,3,6,19,9,38,6,58,1-14-1-28-6-41-1-2-2-4-3-7-25-52-83-83-140-77,0,0,0,2,1,2,40,6,76,19,105,48,20,20,32,46,35,74-2-3-2-6-3-9-11-35-40-60-73-74h-3c-8-4-17-6-26-7,12,4,24,7,36,13,1,1,1,2,2,2,22,11,39,29,52,50,1,1,0,3,1,4,6,9,7,19,10,29-22-25-55-39-88-38,8,1,17,3,25,5,6,2,12,3,17,6,1,1,1,2,2,2,17,7,32,19,43,34-10-12-21-25-37-27v2c7,6,14,11,21,16,6,6,12,11,18,17-15-9-31-24-28-43,0-4,6-5,10-4,15,6,25,20,31,35,33-33,40-83,34-128-1-4,1-7,1-11,1,0,2-1,2-1,12,7,15,22,18,35,1,2,2,3,2,5,6,40-6,80-36,106,13-5,25-10,37-19,11-9,20-18,29-30,12-18,19-37,24-58v-5c3-12,2-23,5-35,1-1,1,2,2,1,13,65-26,140-93,154h0Z"/>
      <path class="cls-2" d="m472,343.07c74-2,138-52,171-117,2-4,2-7,4-11,9-14,12-30,18-45,3-11,6-22,10-33,1-1,2-1,3-1,7,12,3,25,3,38-1,11-3,23-7,34-2,8-3,16-7,24-5,10-9,19-14,29-8,11-14,22-23,32-10,10-19,21-32,28l-3,3c-4,2-7,4-11,6l-3,3c-6,3-13,6-19,9-29,12-60,15-91,9,39,24,85,30,131,22,4-1,8-2,13-3,46-10,79-36,118-63,3-1,5-4,8-3,2,1,2,4,1,6-3,8-8,15-13,22-19,24-42,41-68,55-18,9-36,14-56,18-51,9-103-6-139-41,3,7,9,12,14,19,6,10,15,17,25,25,2,1,5,3,7,5,1,1,3,1,4,2l3,3c20,11,38,19,60,25h5c58,14,115-1,166-27,39-20,70-48,99-81,1-1,0-2,1-3,14-15,25-31,35-49l2-1c10-18,18-35,30-53h2c0,7-2,14-4,21-6,18-12,34-21,51-5,10-10,18-16,28-8,13-16,23-25,35-1,1-2,1-3,2-28,36-61,61-100,82-6,3-12,6-19,9-17,6-34,13-52,16-21,3-40,6-61,4-13-2-26-3-39-6-52-14-97-48-119-97,19,58,68,101,126,119,84,25,170,5,244-46,3-2,6-3,9-5,5-4,10-7,15-11,9-8,18-14,26-22,20-19,36-40,55-59,2-1,1,2,1,2-48,85-126,146-223,167h-5c-59,13-117,5-169-24-47-26-81-72-88-124-5,46,11,91,40,129,20,24,42,43,69,58,1,1,3,0,4,1,26,17,55,22,84,30h6c26,6,51,4,76,9-2,4-6,4-10,5-5,2-9,2-14,3-20,4-38,4-57,3-45-3-88-15-127-43-3-3-7-4-10-7-2-2-4-3-7-5-10-9-18-18-27-27-1-1-1-3-2-4-38-43-51-103-35-157-23,54-14,116,16,167l3,3c3,4,5,9,9,13,2,2,2,5,4,7,32,38,70,67,116,84,2,1,3,2,5,3,14,4,26,10,41,12,1,0,3,2,4,2,20,5,40,6,59,12-2,3-5,2-7,2-25,3-49,1-75-4-21-5-40-9-58-19-2-1-5-1-7-2-4-2-8-4-12-7-1-1-3,0-4-1-75-40-132-117-125-203,2-26,9-52,23-74-36,30-58,75-61,122-4,68,23,134,70,185,1,2,3,4,4,6,8,6,13,14,20,20h-2c-47-35-78-81-95-135v-4c-22-73,0-160,65-203-33,15-58,43-76,75-1,1,0,3-1,4-19,32-23,68-26,104-1,16,3,31,0,47h-3c-1-2-2-3-3-5v-2c-10-21-12-46-12-69,2-57,29-114,80-144l3-3c12-7,24-11,37-15-54,2-103,31-137,75-7,9-12,18-17,27-3,6-6,11-8,17-15,31-21,64-26,98-4-1-2-5-2-8-2-10-2-20,0-30,1-11,2-20,4-31,3-14,8-26,13-39,2-4,4-9,6-13,31-62,96-107,166-101-44-4-89,9-125,38-2,2-5,2-7,4-39,33-63,75-78,123-3,10-5,21-9,31-3-17,1-34,6-50v-3c0-1,2-3,2-4v-3c5-13,9-25,15-37,1-2,3-3,4-5,35-70,116-115,193-98-49-15-102-12-148,12-2,1-4,1-6,2-12,6-22,13-33,20-2,1-2,3-4,4-1,1-2,0-3,1-20,16-36,32-54,49-4,3-8,8-11,4-5-3-1-9,0-15,2-8,6-14,9-21,2-4,5-8,8-13,5-7,9-12,14-18,28-31,61-53,102-62,46-10,94-2,130,27-17-20-38-35-62-46-46-20-97-20-146-6-73,22-126,72-172,133-3,4-5,8-10,10-1-5,2-10,3-15,2-5,4-9,6-14,12-22,25-43,43-62,2-2,3-5,5-7,33-33,70-60,115-73,1,0,2-2,3-2,80-26,179-2,221,74-5-23-17-43-32-61-37-44-91-66-146-70-20-1-40-1-60,3-25,4-47,10-70,19-27,12-51,26-77,42-2,1,0-1-1-2,89-85,244-113,342-23,4,4,9,7,13,12,7,9,13,17,19,27,9,16,14,32,19,49-3-12-5-25-11-36-1-2,0-3-1-5-11-24-26-44-46-62-9-8-19-14-29-21-18-11-36-17-56-24-6-2-11-3-17-4-15-3-30-4-45-5-18,0-37,0-55,5h-4c-5,1-10,3-15,4-22,3-41,11-61,20-20,10-40,20-58,34l-6,3c-12,10-25,18-36,29,16-20,37-32,57-48,2-1,4-1,5-2,3-3,7-5,11-8,7-3,13-7,19-10,54-27,113-40,174-32,41,6,78,20,111,46,29,24,51,53,60,90,0,1,2,3,2,4,1,7,3,13,3,20,1-14-4-28-7-42l-3-9c-5-11-10-22-17-33-5-8-10-15-16-22-8-8-14-15-23-22-5-4-9-7-14-11-42-29-89-41-138-43-84-2-161,30-232,81H0c49-49,113-79,182-91,25-4,49-5,74-3,21,2,41,6,61,12,58,20,109,60,131,118,1,3,1,6,3,9,1,2,1,3,1,5,1,1,2,3,2,4,4,17,5,33,5,49,12-57-6-119-48-162-1-1-1-3-2-4-34-33-73-57-119-68-18-5-34-9-52-10-24-3-48-1-72-2,38-10,77-7,117,0,33,7,61,18,89,35l3,3c37,23,63,54,82,92,1,2,0,3,1,5,16,37,19,79,6,117,17-29,22-63,20-97-5-58-35-110-81-147-1-1-1-2-2-3-11-8-21-16-33-24-10-6-19-11-29-16-29-13-58-22-89-30-1-1-3,0-3-2,33-1,64,9,95,20,1,0,1,2,2,2l9,3c4,2,7,3,11,5,20,11,40,22,56,39,2,2,4,2,6,4l11,11c36,38,59,85,62,137,2,37-9,74-30,104,24-24,40-53,48-87,4-19,4-37,3-56-2-24-8-48-18-70-2-4-3-8-5-11-2-2-2-5-4-7-1-1-2-1-2-2-1-2-2-5-3-7-1-1-2-1-2-2-1-2-1-3-2-5-4-5-7-10-11-16-8-10-15-19-24-28,16,13,27,29,39,46,30,47,43,98,33,153-7,39-26,74-56,98,40-44,50-112,26-167v-3c-6-10-10-22-19-30-1,0-2,0-2,1,11,35,21,70,19,107-2,32-12,64-30,91,14-30,19-62,13-95-4-22-12-40-23-59-11-17-23-32-40-44-3-2-6-5-9-3-1,1,1,3,2,5,47,53,74,124,55,192,8-47-5-96-36-134-1-1-2-1-3-2-2-2-2-4-4-6l-9-9c-2-1-4-2-5-4-1-1-1-2-2-3-13-12-28-21-43-28-8-4-15-8-23-11-8-2-14-5-22-7-6-1-11-2-17-4-7-1-14-2-21-2-12-2-24-3-35,1-1,0,2-1,2,1,10,1,20,4,30,5,2,1,3,1,5,2,4,0,8,1,12,2,13,4,26,7,39,13,1,0,1,2,2,2,4,1,7,3,11,5,2,1,4,1,6,2,65,34,114,102,107,176,1-7-2-13-2-20,0-1-2-3-2-4-3-18-11-33-20-49l-3-3c-30-47-79-75-132-83,13,3,25,7,37,11,5,3,11,5,16,7s8,5,13,7c5,3,10,7,16,10,3,2,6,5,9,7,39,30,63,74,66,122-30-45-83-75-138-74,14,1,28,4,42,8,6,3,13,4,19,7,31,14,57,36,76,64-15-22-34-44-62-50-1,0-2,1-1,2,4,3,7,6,11,8,2,1,3,4,5,5,3,2,5,3,7,5,1,1,3,1,4,2,3,3,6,5,10,8,10,8,18,17,27,25-4-1-6-3-9-5-4-3-8-7-12-10s-6-7-10-10c-2-2-2-4-4-6-1,0-2-1-2-1-1-3-3-5-4-8-1-2-3-3-4-5v-2c-5-6-6-15-3-22,10-4,20,3,27,9,15,15,25,33,29,53,37-34,58-83,61-133,0-13,1-26-1-39-1-16-3-32-3-48,2,0,1-3,3-2,5,4,10,10,12,16,0,1,2,1,2,2,23,49,19,106-7,154l-3,3c-12,22-30,39-51,51,16,0,30-7,45-12,10-4,18-10,27-15,2-2,4-4,7-5l6-6c1-1,3-1,4-2,9-9,17-16,24-26,6-8,12-14,16-22,2-5,5-8,6-13,1-2,3-4,4-6,4-9,8-18,10-27,2-6,5-11,6-17,0-3,1-5,2-8,5-23,4-45,8-68,0,0,2,0,2,1,6,22,4,44,2,67-2,16-6,31-12,46-1,1-2,2-2,3-17,48-55,87-102,106l-9,3c-14,4-28,7-42,7h0Z"/>
      <path class="cls-1" d="m482,341.07c26-6,51-20,68-42,1-1,2-1,3-2,6-7,10-14,15-22,12-20,15-41,24-62,1-1,3,1,3,1,7,36-6,69-28,97-22,26-52,42-86,42,52,21,106-2,149-35,1,0,5-1,4,1-2,16-14,27-26,38-3,2-6,4-9,7-1,1-2,0-3,1-20,15-43,21-66,22-19,0-38-5-54-14,37,37,95,43,142,24,19-8,37-18,54-32,31-26,51-57,71-92,1-2,1,0,2-1-16,75-76,140-154,155-45,8-91-4-120-39,21,32,57,51,95,54,36,2,73-5,105-24,1-1,3,0,4-1,32-19,55-43,80-70,2-1,0,1,1,2-3,4-4,9-8,12v2c-37,52-88,87-150,95-18,2-34,1-52-3-28-6-53-17-71-40-1-1-3-2-4-3-7-8-11-17-15-26,5,42,36,75,73,94,11,5,23,10,35,13,22,5,42,5,64,9,0,0,0,2-1,2-41,15-87,6-125-16s-66-63-62-108c-6,34,5,68,26,96,27,34,63,54,105,63,1,0,3,2,4,2,11,1,21,4,31,6,0,0,0,2-1,2-36,5-71-3-103-21-1-1-3,0-4-1-32-19-57-45-69-79l-3-9c-6-22-5-44,1-65-10,12-16,26-20,42-3,15-4,28-2,43,2,10,4,20,7,30,0,1,2,2,2,3,4,13,11,23,17,35,1,2,3,2,4,4,7,11,15,20,24,29,1,1,3,2,2,4-13-9-24-20-35-33-1-1,0-2-1-3-38-46-44-114-6-162,2-2,5-4,7-7-41,31-51,85-49,134,0,1-1,2-2,1-12-17-12-38-11-58,2-21,9-40,22-58,10-14,23-23,38-31-3,0-6,1-9,3-2,1-3,1-5,1-28,10-50,30-65,56-13,23-19,46-22,72,0,1-2,1-2,1-10-64,35-131,100-139-45,3-84,36-102,77,0,1-2,1-2,2-6,14-10,29-15,44-3-19,4-38,11-56,3-5,5-10,8-15,8-14,19-24,31-35,2-1,5-3,7-5,20-12,40-19,63-18-20-3-39-2-58,5-3,2-7,2-10,4-2,1-4,2-7,3-25,12-44,31-64,49-2,1-5,3-5,2-6-10,2-20,6-29l3-3c17-30,46-49,79-55,21-3,42-2,60,8-51-40-125-27-173,14-1,1-2,0-3,1-19,17-33,35-50,54h-2c2-18,12-31,22-46,16-21,34-37,56-50,10-5,19-9,29-13,11-4,22-6,33-6,35-3,72,6,96,33-6-13-17-23-28-33-2-2-5-3-7-5-26-17-54-23-84-22-10,1-21,1-31,4-12,3-24,6-35,11-16,8-31,16-46,25,33-36,84-54,133-52,30,2,60,12,83,34,2,2,4,5,7,7,6,8,13,15,16,25-12-31-40-53-71-65-27-10-56-11-85-6-20,4-38,9-55,19-2,1-4,1-6,2-1,1-3,2-5,3-1,0-1,1-2,2-1,0-2,1-3,1-1,1-1,2-2,2-15,7-26,18-39,28,47-50,119-78,188-60l9,3c1,0,3,1,4,2,2,0,3,0,5,1,29,13,54,35,66,64-11-32-35-57-65-71-6-3-11-5-17-7-44-15-90-9-133,7-1,0-1,2-2,2-19,7-35,17-53,28-2,2-5,3-7,5,2-6,8-8,13-13,4-4,9-7,14-11,49-32,105-47,162-32l9,3c1,0,3,1,4,2,2,0,3,0,5,1,28,11,51,29,67,55,1,3,3,6,5,9,4,8,6,16,8,24,0-8-1-16-3-24l-3-9c-4-8-7-17-12-25-7-10-14-19-23-27-12-10-24-18-38-25-2-1-5-1-7-3-2-1-5-1-7-2-1,0-2-2-3-2-13-4-25-7-38-8-14-2-28-5-43-2-3,0-5,0-8-1,51-11,106-1,148,33,31,25,50,63,47,102,9-31,3-63-13-91-18-30-44-53-76-66-1,0-1-2-2-2-17-7-35-12-52-18,44,0,86,19,118,49,34,33,52,82,37,128-1,3-3,6-3,9,24-36,24-85,3-123-1-2-1-4-2-6,0-1-2-1-2-2-6-13-15-24-25-34,6,4,10,9,14,15l2,1c8,11,14,21,19,33,0,1,2,1,2,2,16,40,15,91-16,124,22-34,21-82-5-114h-2c1,9,4,17,7,26,2,10,3,19,4,29,1,9-1,17-2,26-2,11-5,22-11,32,13-41-3-94-42-115v2c25,31,44,67,38,107,1-23-6-44-20-63-3-4-6-9-10-13-2-1-3-3-5-5-12-11-25-19-39-25-20-8-41-12-63-11,0,2-3,1-2,1,27,7,51,12,75,27,14,10,26,20,36,34,11,17,19,34,20,54-12-45-53-78-98-84,35,9,67,29,85,62,1,2,1,5,3,7,1,1,1,3,1,4,1,1,2,2,2,3,2,5,3,11,4,16-9-10-20-18-32-25-2-1-5-2-7-3-14-6-28-9-43-8,31,4,62,18,81,44-9-11-20-25-35-24l2,2c8,6,15,12,23,18l11,11c-14-7-24-20-27-35,0-3,1-6,3-8,7-3,14,1,19,6,1,2,3,3,5,5,5,7,10,13,13,21,5-5,8-10,12-16l3-3c8-13,11-26,15-40,3-15,5-28,3-43-1-7-1-15-1-22,0-2-1-7,3-6,18,20,22,48,18,74-4,24-15,46-34,61,28-8,50-27,66-52,1-1,0-3,1-4,9-14,12-29,17-44v-5c3-10,2-20,4-31h2c12,57-16,120-72,140-3,1-6,1-9,3-2,1-3,1-5,1h0Z"/>
      <path class="cls-1" d="m479,341.07c56-10,86-64,100-116h2c6,17,1,35-4,52-5,15-12,28-23,40-20,22-47,35-76,35,10,3,20,6,30,7,16,1,33-1,48-6l15-6c6-3,11-6,17-9,9-6,16-11,25-17,2-1,4-1,4-1,2,8-5,13-8,20,0,0-1,1-2,1-31,40-89,54-133,29,35,35,92,39,136,18,1-1,3-1,4-1,17-8,31-18,45-30,1-2,3-4,5-5,1-1,1-2,2-3,9-7,13-16,21-23,1-1,0-2,1-3,13-13,17-31,30-44,0-1,0,2,0,3l-3,12c-7,16-13,32-24,47-1,1,0,2-1,3-38,55-99,89-165,74l-9-3c-1,0-3-1-4-2-2,0-3,0-5-1-14-7-27-16-38-28,20,29,53,46,87,49,62,5,120-27,160-75,4-4,7-8,11-10,2-1,0,1,0,2-6,13-15,23-24,34-16,18-35,32-56,44-5,2-10,4-15,7-7,3-14,5-21,7-10,3-20,5-31,6-50,5-105-18-125-66,3,17,9,32,19,46,4,4,8,8,11,13l6,6c1,1,3,1,4,2,7,7,14,11,22,16,1,1,3,0,4,1,11,7,23,10,35,14,19,4,37,4,56,8-6,6-16,6-24,6-15,2-30,2-45-2h-4c-5-1-9-3-14-4-1,0-2-2-3-2-47-14-84-60-81-109-4,25,1,50,15,73,2,3,3,7,6,10,2,2,3,4,5,7,32,39,76,53,124,61,1,0,1,2,1,2-16,3-30,2-46-1-12-3-23-6-34-10-14-6-28-14-40-25-1-1-3-1-4-2-34-30-53-78-38-121-5,6-10,13-13,20-3,9-5,17-7,27s-1,19-1,29c1,9,3,18,6,27,1,1,2,2,2,3,9,25,24,47,44,66,1,1,0,1-1,1-30-22-50-51-58-87s0-74,26-99c-6,5-12,10-17,16-1,2-3,5-5,7-21,30-23,64-22,98,0,1-2,1-3,1-10-19-11-39-8-60,4-24,15-45,34-61,6-4,12-10,19-12-12,2-23,8-34,14-2,2-4,3-7,5-8,6-14,12-20,20-5,8-10,14-14,22-10,19-13,40-17,60-5-15-1-31,3-46,5-23,17-44,36-58,4-3,7-7,11-9,7-3,14-7,21-10,6-2,13-3,19-4-13,1-25,5-37,10l-15,9c-19,15-34,32-42,54,0,1-2,1-2,2-3,5-4,11-6,16-1,7-4,12-5,19-2,0-1,3-1,2-3-45,25-89,66-109,3-1,6-1,9-3,2-1,3-1,5-1,1-1,3-2,4-2,9-2,17-2,25-2-34-5-69,6-96,29-1,1-2,0-3,1-7,7-15,12-21,20-3,3-7,6-11,7-6-9,2-21,8-29,13-20,30-37,53-44,1,0,2-2,3-2,23-7,48-8,70,3-30-23-71-28-107-15-41,14-71,43-98,78h-2c2-15,11-27,19-40,3-3,5-6,7-9,5-7,11-12,17-18,4-3,7-6,11-9,7-6,14-10,22-14,4-1,7-4,11-5,3-1,5-2,7-3,41-15,89-8,121,23-17-28-45-45-78-52-24-4-45-2-68,4s-42,18-63,30q-1,0-1-1c21-22,48-34,78-42l15-3c49-7,103,13,124,59-15-39-55-61-95-66-23-2-46,0-69,7-9,3-17,6-26,10-11,6-20,11-31,18l-1,2c-8,5-14,10-21,16,5-7,12-13,20-18,2-1,3-3,5-5,1-1,2,0,3-1,13-10,26-17,41-22,1-1,2-2,3-2,5-2,10-3,15-5,12-3,24-4,37-6,9-1,18,1,27,1,19,2,37,9,54,19,19,12,33,28,41,48-15-48-66-75-114-78-50-3-97,19-138,46,47-46,119-69,183-48,38,13,70,43,79,83-2-33-18-62-44-83-36-29-81-35-124-34,65-16,140,13,169,75,1,3,1,6,3,9,1,2,1,3,1,5,1,1,2,3,2,4,2,10,2,20,2,30,12-43-7-88-40-117-25-22-55-34-87-42-1-1-3,0-3-2,44,0,85,20,115,53,28,32,40,77,22,116,26-35,21-85-2-122-3-5-6-10-10-15-1-2-2-3-3-5-3-3-5-6-8-8,5,1,7,6,10,9,5,5,9,11,13,17,1,2,1,3,2,5,0,1,1,1,2,2,1,2,1,3,2,5,0,1,2,1,2,2,5,11,9,22,11,35,1,10,2,20,1,30-3,20-10,39-24,54,14-19,16-43,13-66-2-13-7-24-15-35,0-1-2-5-4-3-1,2,0,5,1,7,11,31,13,66-3,96,13-35,0-74-28-99-2-2-5-3-7-5-1,0-2,0-3-1v3c4,4,5,9,10,12l3,6c17,23,24,51,22,79,0-39-24-75-59-93-10-4-19-8-30-11-13-2-25-5-38-2,11,5,23,5,35,9,16,6,31,12,44,23,5,5,9,9,14,13,1,1,1,3,2,4,3,3,5,6,8,9,9,15,16,30,16,47-3-17-12-30-23-43-18-19-41-30-66-34,41,10,80,40,86,84-18-21-46-34-74-33,28,4,56,17,74,40-8-11-19-20-32-23v2c11,10,23,17,33,28-12-7-21-17-25-31-1-3,0-6,2-8,4-3,10-1,14,2,10,7,17,16,20,27,10-11,18-23,22-37,0-1,2-2,2-3,3-10,5-21,6-31,0-10,1-20-1-30,0-6-2-12,1-17,2-2,5,2,7,4,1,2,2,3,3,5,18,38,10,87-23,113,31-8,54-32,67-60,4-9,6-18,9-27,4-12,1-25,6-37,8,34-1,71-24,99-14,16-33,28-54,32h0Z"/>
      <path class="cls-1" d="m475,341.07c10-1,20-6,29-10l3-3c15-9,25-22,35-36,10-16,14-34,20-51h2c2,5,3,11,2,17s-1,13-3,19c-4,14-10,27-19,39-17,22-42,35-69,35,18,6,37,8,56,3h4c21-7,39-18,58-31,1-1,2,1,3,1-4,16-17,27-30,37-29,19-66,24-95,5,21,25,56,31,88,26,53-10,92-49,116-96,2-3,4-7,7-9,1,5-1,9-2,13-6,22-18,39-32,57-26,31-61,51-101,54-9,1-19-1-28-3-20-4-40-13-52-30,13,20,34,33,57,40,6,2,12,2,18,3,10,1,21,0,31-1,7-1,14-3,21-5,23-6,41-18,60-32,14-11,25-25,37-37-5,14-15,25-25,36l-9,9c-12,9-22,18-35,25-5,3-10,4-15,6-42,20-93,18-129-13-2-2-4-5-7-7-7-8-13-16-16-25,2,12,5,23,12,34,2,2,3,4,5,7,16,22,38,34,63,42,3,0,6,1,9,2,15,4,30,4,46,6v2c-36,12-74,4-106-17-28-19-43-49-42-81-3,21,1,42,11,61,25,43,71,65,119,70,1,0,1,2,1,2-47,6-93-12-123-50-19-25-28-58-17-88-7,7-10,16-14,25-7,19-7,40-1,59,3,9,6,18,11,26s9,16,15,23c6,6,11,11,16,17-26-16-43-43-51-73-8-31-1-65,22-88-13,11-24,25-30,41-8,21-9,42-8,64,0,1-1,2-2,1-14-27-11-61,6-87,9-13,19-22,33-28-13,2-23,7-34,14-6,4-9,10-15,14-4,4-6,9-10,13-4,7-8,14-11,21-6,14-6,28-11,42-6-37,11-75,43-97,11-7,22-11,35-13-20,3-38,11-53,24l-11,11c-6,7-10,15-15,23-2,4-3,7-5,11-3,9-6,19-9,28-3-13,2-26,7-38,6-17,16-32,31-44,2-1,5-3,7-5,15-9,32-15,49-14-26-4-51,3-73,18-1,1-2,0-3,1-2,1-2,3-4,4-1,1-2,0-3,1-5,4-9,7-13,11-4,5-8,9-13,13-1,0-4,2-5,1-4-5,1-10,3-15,3-8,7-15,13-22,5-5,9-10,15-14,4-3,7-4,11-7,23-13,51-15,75-4-20-16-46-22-72-18-39,6-71,28-95,61-1,1-3,1-3,2-1,5-5,7-8,9-2,1-1-2-1-3,3-13,10-23,18-34,14-17,29-31,49-41,1-1,3,0,4-1,37-19,86-15,115,15-12-23-35-37-60-44h-4c-15-4-29-4-44-2-25,4-47,14-69,27-2,1-3,4-5,3,43-45,123-59,171-13,2,2,4,5,7,7,5,5,7,11,10,17-5-15-16-27-29-37-10-8-21-12-33-16-20-6-39-6-60-3-34,7-63,21-88,45-1,1-1,0-1-1,34-33,79-54,126-50,24,2,46,10,65,27,10,9,18,20,23,32-2-3-2-6-3-9-5-8-9-17-16-24-10-10-21-19-34-24-10-3-19-8-30-9-6,0-12-1-18-2-8-1-16,1-24,1-16,2-31,7-46,12-1,0-1,2-2,2-16,5-30,17-45,24,4-4,7-7,12-10,0,0,1-1,1-2,25-18,51-29,81-34,56-9,119,19,132,77,0-8-2-16-4-24l-3-9c-24-52-84-72-138-68,47-11,99,3,130,40,16,19,25,42,23,66,11-38-8-77-37-103-7-6-15-11-23-16-5-3-11-5-16-8-12-5-24-7-36-12,36,0,70,16,95,41,11,12,19,25,25,40,7,21,7,44-1,65,18-27,19-62,5-91-1-2-2-5-3-8l-2-2c-5-10-12-20-20-28,5,3,9,8,12,13,0,0,1,1,2,1,27,36,34,89,2,123,17-26,17-67-5-90-1,3,0,6,1,9,9,26,9,55-3,80,10-30,0-65-25-86-2-1-4-2-6-4h-2v2c2,2,3,4,4,6,19,22,29,50,26,78,1-26-11-50-31-67-23-18-50-30-79-24-1,0,2-1,2,1,33,4,65,18,86,47,1,3,3,5,5,7,6,11,10,23,10,35-1-8-4-15-8-22-2-2-3-4-5-7-5-8-12-13-19-19-13-10-29-16-45-18,36,7,69,35,75,72-16-18-41-29-65-28,25,2,49,14,64,34-7-9-16-17-27-20v2c10,9,19,16,29,24-11-4-18-15-22-26-1-3,0-7,3-7,15-3,23,13,28,25,11-12,19-27,23-43,5-20,3-39,2-58,2,0,0-2,1-2h2c26,31,18,82-13,106,46-12,68-63,70-107,5,9,3,19,3,29-1,9-2,18-6,27-3,6-5,11-8,17-2,4-5,6-7,10-4,6-9,10-15,15-2,1-5,3-7,5-9,5-17,9-27,10h0Z"/>
      <path class="cls-1" d="m471,342.07c37-8,62-42,70-79,1-1,2-2,2-4,0-1,2-1,2-1,4,13,1,26-4,38-5,15-13,29-27,39-3,1-5,3-7,5-11,8-24,9-36,10,30,11,62,1,89-17,3-2,5-5,8-6,1,0,4,0,4,1-1,1,0,3-1,4-4,6-8,12-13,17-9,8-19,15-31,19-19,7-41,5-59-5,17,17,42,25,66,22,20-3,37-9,54-21,11-8,19-16,28-26,4-6,9-12,13-18l9-15c1-3,3-4,3-7,0,0,2-1,2-2q0,1,1,1c-9,41-38,77-77,94-17,7-35,10-54,8-19-3-36-13-49-26,15,20,38,33,64,35,49,3,91-26,123-61,0-1-2,1-1,2-3,2-3,5-4,7-14,20-30,33-49,46-3,2-5,2-8,3-29,17-63,18-93,7-19-8-33-23-42-41,4,28,24,49,48,62,11,5,22,8,34,11,11,2,20,1,31,3,0,0,0,2-1,2-26,9-55,4-79-9-26-15-45-42-43-72-4,23,5,46,19,65,13,16,29,25,47,33,14,6,29,8,43,11-17,5-34,0-50-5-25-7-47-23-60-47-11-19-15-41-7-62-25,30-18,76,6,105,1,1,1,3,2,4,5,5,9,11,14,15-25-15-41-44-44-73-2-22,5-44,21-60-27,20-34,55-32,87,0,1-1,2-2,1-4-5-4-11-6-17-2-14-1-26,3-39,1-2,2-4,3-7,7-14,18-27,33-33-41,8-63,49-67,87-3-9-2-18,0-28,2-9,4-17,10-24,1-1,0-3,1-4,13-19,31-33,54-35-20,0-37,12-51,25-15,15-22,35-27,55-3-19,6-37,17-53,15-20,37-32,61-31-25-5-48,5-69,20-5,4-9,8-14,12-2,3-5,6-8,8-1,0-3,2-3,1-2-26,24-45,46-54,16-6,35-5,51,2-7-5-14-9-23-12-14-4-27-4-41-2-36,6-64,32-84,60-3-1-1-4-1-5,1-3,2-5,3-8,3-6,6-11,11-16,1-1,0-2,1-3,6-7,12-14,19-20,10-8,21-14,33-19,29-10,65-7,87,17-15-30-52-41-84-39-21,2-40,10-58,21-3,1-6,3-9,5,3-6,9-9,14-12l1-2c5-3,11-6,16-9,7-3,14-6,22-8h4c38-10,82,5,100,40-8-21-28-35-48-43-28-10-57-5-84,5-5,2-9,5-14,7-8,5-17,9-22,16-4-1-4,5-8,5,21-21,48-36,79-41,26-4,52,1,74,17,11,9,20,18,25,31-4-10-9-20-17-28-13-13-30-21-48-26-6-1-12-1-18-2-12-1-24,1-36,3-20,5-37,12-54,25h-2c-2,2-4,4-7,5,3-4,6-7,10-10,13-10,27-17,42-23,12-4,24-6,36-7s24,0,36,3l9,3c19,7,35,18,46,35,2,3,3,6,5,9,3,5,3,10,4,15,0-5,1-10-1-15l-3-9c-10-25-32-44-58-52-1,0-2-2-3-2-18-5-36-7-55-6,37-9,76,2,104,28,8,8,13,17,18,27l3,9c3,8,2,17,2,25,10-33-6-67-32-88-18-14-39-23-61-28,18-3,35,6,51,13,15,8,28,19,38,33,13,20,20,43,13,66-1,3-3,6-3,9,18-28,15-65-5-92l-3-6c-3-3-6-7-9-10,9,7,15,17,20,27,1,1,2,1,2,2,5,14,10,29,9,44-2,15-7,30-17,42,7-12,11-26,10-40-2-12-4-27-15-35,1,6,3,12,5,18,2,9,3,18,2,28s-3,19-8,28c9-27-1-59-26-75h-2c-1,1,1,2,1,3,1,2,3,2,4,4,3,5,6,9,9,13,8,16,15,33,11,51,1-17-5-34-17-47-2-1-3-3-5-5-7-5-13-11-21-14-1,0-1-2-2-2-15-5-31-11-46-7,26,4,52,13,69,34,1,2,3,5,5,7,8,10,10,22,12,34-7-29-34-52-64-55,14,3,27,10,39,19,3,2,4,5,7,7,4,4,7,10,10,15,1,2,2,5,3,7,2,4,2,8,3,12-8-8-16-16-28-19-1,0-2-2-3-2h-3c-6-2-13-3-20-3l24,6c1,0,1,2,2,2,11,4,21,11,27,21-5-8-13-14-22-17l-1,1c7,8,18,12,24,21-6-3-10-8-14-13-2-3-4-7-4-11,0-3,3-6,7-5,10,4,16,12,19,22,7-8,13-17,16-27,0-1,2-2,2-3,1-4,1-9,3-13,1-3,0-6,1-9,0-7,1-14-1-21,0-4-1-9,1-13,8,5,10,15,13,24,3,14,1,27-4,40-4,10-11,18-18,25,3-2,6-2,9-3,4-3,8-4,12-7,8-7,16-15,22-24,1-1,0-3,1-4,11-16,11-34,14-52,4,9,2,18,2,27-2,17-8,32-19,45-10,11-24,20-39,23h0Z"/>
      <path class="cls-1" d="m468,342.07c22-4,41-21,50-42,0-1,2-1,2-2,3-9,5-18,9-26,1-1,2,0,2,1,5,38-25,76-63,76,18,7,38,5,55-3,10-5,18-11,28-17,1,0,2,1,2,2-15,32-57,46-88,29,22,22,56,23,83,11,28-13,48-37,62-64,1-1,2-3,2-3,3,7-2,13-5,19-5,14-14,27-25,38-5,4-9,10-16,12l-3,3c-21,13-45,19-69,12l-9-3c-9-4-17-10-23-17,7,11,18,19,29,24l9,3c22,6,46,3,67-8,1-1,3,0,4-1,6-3,11-8,18-11,8-5,13-12,20-18,3-4,7-8,10-12-5,14-16,24-26,34-12,10-25,18-40,23-21,7-44,8-64-1-15-7-29-18-35-34,3,23,20,41,40,52,9,5,18,7,28,9,9,1,18,1,27,3-22,9-50,5-71-8-15-9-25-23-31-39-2-7-2-13-2-20-5,29,11,55,35,72,4,3,9,4,13,7,4,2,7,3,11,5,11,3,22,5,33,8-27,5-54-5-75-22-21-18-33-47-24-74-13,18-15,41-9,62,0,1,2,2,2,3,4,16,16,28,26,40-15-11-26-26-33-43-9-24-4-52,13-70-12,10-20,23-24,38-1,4-1,8-2,12-1,8,2,16-1,24,0,0-2,0-2-1-12-29,0-66,28-79-34,6-51,40-56,72,0,3,1-3-1-1-1-7,0-13,1-20,3-8,4-16,9-24,4-6,7-12,13-16,5-4,9-7,14-10l9-3c3-1,7-1,10-2-35,3-59,36-66,68-1-22,10-43,27-58,2-2,5-3,7-5,10-5,21-9,32-8-30-6-56,13-77,34h-3c0-15,12-28,24-37,18-12,40-15,59-6-18-14-43-17-64-10s-39,19-52,38c-1,0-2,1-2,1-2,4-4,7-7,9-2,1-1-2-1-3,2-7,5-13,10-18,1-1,1-4,2-5,6-6,10-13,18-17,1-1,1-2,2-3,29-22,72-27,98,1-13-25-43-35-70-33-21,2-40,10-57,22,1-5,6-6,9-8,4-5,10-8,16-11,5-2,10-4,15-5,10-3,20-6,31-5,13,2,26,4,38,11,10,6,16,16,23,25-23-47-85-50-126-24-4,3-8,6-12,8,0,0-1,1-1,2-3,3-7,4-9,7,1-4,4-5,7-8,15-13,32-21,51-26,32-7,68,1,87,30,2,3,3,6,5,9-8-21-26-36-47-43-27-9-54-3-79,7-1,0-1,2-2,2-9,4-16,9-24,14q-1,0-1-1c25-23,57-35,90-32,31,3,62,23,68,55,1-5-1-10-2-15l-3-9c-8-16-20-28-36-36-2-1-5-1-7-3-2-1-5-1-7-2-1,0-2-2-3-2-4,0-7-1-10-2-12-2-23-2-34-2,29-7,61,0,84,20,15,14,26,33,24,54,5-19,0-38-11-55-17-24-42-35-68-42,30,0,58,14,76,40,12,19,17,42,7,62,20-28,9-68-14-91,4,3,6,6,9,10,0,0,1,1,2,1,18,26,22,62,1,86,11-19,12-47-4-63,1,5,2,9,4,14,4,16,2,33-5,48,5-14,3-29-3-42-1-1-2-3-3-5-3-3-5-7-8-10-3-2-5-6-10-6,6,8,12,15,16,24,5,11,7,24,6,36,0-14-5-27-13-38-6-7-13-12-20-17-7-3-14-6-21-7-8-2-16-6-23-1,28,3,56,18,68,44,1,3,1,6,3,9,1,3,1,7,1,10-5-25-30-43-54-47,25,6,48,25,52,51-6-9-17-14-27-18h-3c-5-3-10-2-15-2,18,2,34,10,45,24-6-5-11-12-19-14v2c8,4,13,11,20,16-8-4-16-13-15-22,1-2,3-3,5-2,8,3,13,11,17,18,6-8,12-16,15-26v-4c2-5,2-10,3-15,2-9-3-18,0-27,6,4,8,11,10,18,5,21-1,43-18,57,9-2,16-8,24-13,7-6,12-14,16-22,3-7,5-15,7-23,1-6,0-12,3-17,6,33-13,72-48,79h0Z"/>
      <path class="cls-1" d="m465,342.07c9-1,16-5,23-10,7-7,13-13,17-22,3-8,6-15,8-24h2c3,15-2,30-12,42-9,13-23,19-38,20,16,6,32,3,47-4,3-2,6-3,9-5s6-5,10-7c1,0,2,0,2,1-1,2-1,3-3,5,0,1,0,2-1,3-16,20-44,28-66,15,8,11,23,15,36,16,6,0,12-1,18-2,11-3,20-7,29-14,7-6,13-11,19-19,6-9,10-17,16-25-6,31-30,58-61,67-21,6-46,2-60-16,12,19,35,26,57,24,10-1,19-4,28-8,6-3,12-7,18-12,9-6,15-14,23-22-11,22-32,38-55,46-29,9-65,0-78-29,6,35,44,52,76,51v2c-11,3-23,3-35,0h-4c-1,0-2-2-3-2-24-6-42-28-41-53-1,13,1,26,9,38,8,11,17,19,29,25,6,3,13,5,19,7s12,1,17,4c-18,4-36-2-52-12-2-2-4-3-7-5-18-14-26-38-20-60-20,26-8,63,15,83-11-5-17-15-23-25-11-20-10-47,7-64-7,6-13,12-16,20-2,7-4,13-5,20-1,6,2,13-1,19-12-23-1-53,21-65-11,2-21,9-29,18-11,12-12,27-16,41-2-19,5-38,19-51,2-2,5-3,7-5,5-4,12-5,18-6-12,2-23,7-32,15-11,11-18,25-20,40-2-2-1-5-1-7,2-12,6-23,14-32,10-11,24-18,39-18-23-4-44,10-60,26-1,0-3,2-3,1,0-18,17-32,34-36,10-3,22-4,31,2-9-9-23-12-36-11-20,1-38,13-52,27-4,5-7,10-12,14,0-7,4-12,7-17,7-11,17-20,28-26,14-7,29-11,45-7l9,3c6,2,10,8,15,11-21-35-71-32-101-9-1,1-2,0-1-1,6-4,9-9,16-11,1,0,1-1,2-2,30-16,71-11,88,20-4-5-6-11-11-16-6-5-13-9-20-12-31-11-64,2-88,22,16-17,38-27,61-29,24-1,50,10,59,34-3-9-8-18-16-24-3-1-5-3-7-5-29-17-64-12-91,8-1,1-2,1-3,1-1,2-4,2-5,4v-2c20-18,46-28,73-25,25,3,48,19,54,44-3-40-46-61-82-57,8-3,16-2,24-2,11,1,21,5,31,9l3,3c18,10,30,30,28,50,4-13,1-28-5-40l-3-3c-6-11-16-18-27-25-3-1-5-2-8-4-6-3-14-3-20-7,28,1,56,19,67,45l3,9c1,10,1,19-3,28,15-23,6-53-11-72,0,1,1,1,2,1,2,2,3,4,5,6,11,13,16,30,13,47-2,8-5,17-11,23,9-16,10-37-3-51,0,4,2,8,3,12,3,13,2,26-4,38,6-18-1-40-18-50q-1,0-1,1c0,2,3-1,2,3,11,11,16,28,15,44,1-14-6-26-15-36-13-11-30-18-47-15,27,3,57,22,58,51-4-20-23-35-43-38,20,5,39,20,42,41-4-8-13-10-20-14h-3c-4-2-8-2-13-2,14,2,27,8,36,19-4-5-9-11-16-11-1,0,1,1,1,2,1,2,4,2,6,5,3,2,7,4,9,8-6-5-13-10-11-18,0,0,0-3,3-2,7,3,11,9,14,15,8-8,11-18,14-29,2-10-2-19,1-29,12,13,12,35,2,50-2,2-4,4-5,7-1,1-3,2-4,3,8-3,17-7,23-14,4-5,7-11,10-16,5-10,4-20,7-30,2,6,1,13,1,19,0,2-2,3-2,5-2,19-18,35-37,39h0Z"/>
      <path class="cls-1" d="m463,343.07c6-3,12-5,18-9,13-10,16-24,22-38,3,15-4,32-16,42-7,5-16,10-25,9,16,6,35,1,49-10,2-1,5-2,7-3-8,21-37,32-57,20,13,15,36,14,53,8,20-8,33-26,43-44-2,18-14,33-28,44-21,16-52,18-70-2,5,6,10,12,17,15l9,3c15,3,29,2,42-5,7-4,13-8,20-13,5-5,9-10,14-15-10,22-32,36-55,40-21,3-44-6-53-26,1,4,1,9,4,13,2,2,3,4,5,7,13,16,33,21,52,21,1,0,1,2,1,2-12,3-24,3-35-1-18-7-34-23-33-44-4,33,28,57,58,59,0,2,3,1,2,1-23,4-45-5-58-25-7-12-10-25-6-38-16,21-7,52,12,68-1,3-1-2-2,0-2-1-3-3-5-4-3-3-5-7-8-10-6-11-11-22-9-35,1-9,6-17,11-24-14,12-18,31-17,49,0,0-2,0-2-1-8-19,0-43,19-52-22,4-35,27-37,48-3-12,2-25,9-35,7-8,15-15,27-15-11,0-20,6-28,13-9,9-11,20-16,31,0-24,20-47,44-47-12-1-25,2-35,10-1,1-2,0-3,1-4,4-8,8-13,12-1,0-2,0-2-1,0-5,2-9,5-13,6-8,13-12,22-16,9-3,19-3,27,2-12-12-32-11-47-5-10,4-18,10-25,18-3,4-7,8-10,12,1-7,6-13,10-20,2-3,5-4,7-7,18-18,50-22,68-3-4-9-13-15-22-19-21-8-43,0-61,12,10-11,25-17,40-19,18-1,39,5,46,24-3-9-11-16-19-21-7-3-14-5-21-6-13-1-25,3-37,8-1,0-1,2-2,2-2,1-3,1-5,2-4,3-9,6-13,9,14-12,30-21,48-23,21-2,41,8,51,27-3-6-6-11-10-16-14-13-34-18-53-13h-4c-12,3-22,8-32,16h-2c9-7,17-14,29-17,1,0,2-2,3-2,15-4,29-4,43,1s26,17,29,32c0-12-6-24-16-32-2-1-5-3-7-5-13-8-28-9-43-9,18-5,38,0,53,12,11,9,18,23,17,37,5-17-3-35-16-47-6-5-12-9-19-12-6-2-11-4-17-5,14-2,25,5,37,12,7,5,12,12,16,19,5,11,8,24,2,36,6-10,9-22,5-33v-4c-4-8-7-17-14-23,0,2,2,2,2,3,16,16,21,44,5,61,4-5,5-11,6-17,1-9-1-19-8-25v3c5,12,5,26-1,38,3-7,2-13,1-20-3-8-7-17-16-21,8,11,15,25,14,39-1-25-26-45-51-42,22,4,46,18,48,42-5-16-19-28-36-31,16,4,32,16,34,33-5-6-12-11-20-11-3-1-6-4-9-1,11,0,22,7,29,15-3-4-7-7-12-9,3,5,8,8,13,12-6-3-12-9-9-16,7,0,10,7,13,12,13-12,12-31,12-47,0,0,1,0,2,1,11,16,6,36-7,48,21-6,32-29,32-50,7,22-9,46-30,53h0Z"/>
      <path class="cls-1" d="m459,343.07c16-3,24-18,28-32,4,17-11,35-28,35,3,1,5,2,8,2,9,1,16-2,23-6,2-2,5-4,8-5-2,10-12,14-20,16-7,2-14,2-20-2,7,8,19,9,29,8,18-3,30-18,38-34-1,13-9,23-19,31-9,6-18,10-29,9-8-1-15-4-20-10,12,16,35,16,51,7,8-5,15-10,20-18,0,3-1,5-3,7-7,7-13,14-23,18-17,6-41,5-49-15,2,21,25,28,43,30-11,3-22,2-32-4-9-6-16-15-15-27-4,24,21,40,42,42-18,4-38-7-45-24-2-6-4-13,0-20-6,6-7,13-6,21,1,11,7,19,14,27-17-11-23-36-9-52-9,9-13,21-12,34,0,0-2,0-2-1-4-14,1-29,14-36-9,3-17,9-22,18-2,5-2,11-4,16-3-16,8-33,25-35-16,1-27,16-30,31-1-17,13-32,30-33-14-2-26,6-35,16-1,1-2,0-2-1,5-16,23-25,38-19-12-8-29-7-40,2-1,1-2,0-3,1-5,5-9,10-14,15,0-2,0-4,2-5v-2c8-14,21-23,37-22,7,0,15,2,20,8-4-9-14-13-23-15-12-2-24,3-34,10-1,1-2,0-1-1,8-6,16-11,26-12,13-1,28,3,34,16-4-11-14-16-25-18-16-2-30,5-42,15,12-14,33-20,51-14,8,3,15,8,17,17-3-13-16-20-28-22-15-2-29,4-41,12,1,0,1-1,1-2,9-7,19-12,30-13,17-2,36,8,41,25-2-22-26-34-47-32,22-6,50,9,49,34,5-13-3-25-12-34-7-6-16-8-24-11,13,0,26,7,34,17,6,8,8,20,4,30,10-13,4-31-6-42,13,11,17,32,5,45,6-9,6-21-1-29,1,9,5,19-1,28,3-11-1-24-11-29,6,8,12,17,10,28,0-9-5-19-13-24-2-1-3-2-5-3-5-2-10-3-16-3l-1,1c16,2,32,12,33,29-3-12-13-19-25-22,2,2,5,2,8,3,4,2,7,4,10,7,4,4,5,9,6,14-4-7-13-9-20-10,8,2,15,5,20,12-1-4-6-5-9-7,2,4,7,4,9,8-4-2-7-6-6-10l1-1c4,1,6,5,8,9,8-8,10-20,8-32,0-1,1-2,2-1,7,11,5,26-5,34,7-2,14-6,17-13,1-2,1-5,3-7,2-4,1-10,3-14,3,15-6,32-22,36h0Z"/>
    </g>
  </g>
</svg>