<?xml version="1.0" encoding="UTF-8"?>
<svg id="Layer_2" data-name="Layer 2" xmlns="http://www.w3.org/2000/svg" viewBox="0 0 820.21 827.21">
  <defs>
    <style>
      .cls-1 {
        fill: none;
        stroke: #8383ea;
        stroke-miterlimit: 10;
        stroke-width: 2px;
      }
    </style>
  </defs>
  <g id="images">
    <g>
      <path class="cls-1" d="m449.02,409.06c-235.91-56.19-115.72,44.05,78.36,4.41,170.07-126.84,186.7-261.8,49.59-72,122.21-308.85,94.82-378.19-30.79-34.28-42.26-350.6-175.86-342.22-72.68,34.49-228.78-120.71-178.67,12.34,10.6,92.32-82.13,110.1,70.11,184,91.64,32.65,273.78,65.36,307.41-36.6,38.61-52.59,204.07-99.78,115.16-161.8-65.39-37.61-81.32-174.5-190.57-105.08-72.97,50.86-200.16,147.89-241.56,373.34,18.65,114.31,49.03,386.09,145.8,335.98,77.27-28.33,161.84,118.94,89.26-21.03-43.9-80.19-153.68-34.15-267.73-42.79-76.16,0-264.15,67.8-233.04,100.63-1.34,22.85"/>
      <path class="cls-1" d="m374.47,409.06c235.91-56.19,115.72,44.05-78.36,4.41-170.07-126.84-186.7-261.8-49.59-72-122.21-308.85-94.82-378.19,30.79-34.28,42.26-350.6,175.86-342.22,72.68,34.49,228.78-120.71,178.67,12.34-10.6,92.32,82.13,110.1-70.11,184-91.64,32.65-273.78,65.36-307.41-36.6-38.61-52.59-204.07-99.78-115.16-161.8,65.39-37.61,81.32-174.5,190.57-105.08,72.97,50.86,200.16,147.89,241.56,373.34-18.65,114.31-49.03,386.09-145.8,335.98-77.27-28.33-161.84,118.94-89.26-21.03,43.9-80.19,153.68-34.15,267.73-42.79,76.16,0,264.15,67.8,233.04,100.63,1.34,22.85"/>
      <path class="cls-1" d="m428.44,452.02c56.19-235.91-44.05-115.72-4.41,78.36,126.84,170.07,261.8,186.7,72,49.59,308.85,122.21,378.19,94.82,34.28-30.79,350.6-42.26,342.22-175.86-34.49-72.68,120.71-228.78-12.34-178.67-92.32,10.6-110.1-82.13-184,70.11-32.65,91.64-65.36,273.78,36.6,307.41,52.59,38.61,99.78,204.07,161.8,115.16,37.61-65.39,174.5-81.32,105.08-190.57-50.86-72.97-147.89-200.16-373.34-241.56-114.31,18.65-386.09,49.03-335.98,145.8,28.33,77.27-118.94,161.84,21.03,89.26,80.19-43.9,34.15-153.68,42.79-267.73,0-76.16-67.8-264.15-100.63-233.04-22.85-1.34"/>
      <path class="cls-1" d="m428.44,377.47c56.19,235.91-44.05,115.72-4.41-78.36,126.84-170.07,261.8-186.7,72-49.59,308.85-122.21,378.19-94.82,34.28,30.79,350.6,42.26,342.22,175.86-34.49,72.68,120.71,228.78-12.34,178.67-92.32-10.6-110.1,82.13-184-70.11-32.65-91.64-65.36-273.78,36.6-307.41,52.59-38.61,99.78-204.07,161.8-115.16,37.61,65.39,174.5,81.32,105.08,190.57-50.86,72.97-147.89,200.16-373.34,241.56-114.31-18.65-386.09-49.03-335.98-145.8,28.33-77.27-118.94-161.84,21.03-89.26,80.19,43.9,34.15,153.68,42.79,267.73,0,76.16-67.8,264.15-100.63,233.04-22.85,1.34"/>
      <path class="cls-1" d="m392.37,449.38c193.4-129.26,37.53-115.15-58.53,52.3-43.71,207.77,39.95,314.96,15.85,85.98,118.83,302.63,187.23,332.29,46.01,2.46,264.65,215.85,353.19,115.46,27-75.78,233.98-78.59,104.46-137.24-72.77-57.79-32.92-138.11-192.83-82.71-87.89,41.71-252.95,145.2-204.64,241.07,9.89,64.48-86.89,212.68,19.83,193.66,72.83-19.64,167.75,63.71,195.91-62.63,15.63-87.56,23.82-248.29-106.33-436.98-94.02-67.64C-54.44,147.38-87.43,251.24,231.77,462.57c-211.68,28.16-61.39,75.81,87.75,25.66,119.67-86.7,206.43-161.23,53.85-53.85,125.69-236.9,80.48-238.12-15.21-17.11"/>
      <path class="cls-1" d="m441.38,400.37c-129.26,193.4-115.15,37.53,52.3-58.53,207.77-43.71,314.96,39.95,85.98,15.85,302.63,118.83,332.29,187.23,2.46,46.01,215.85,264.65,115.46,353.19-75.78,27-78.59,233.98-137.24,104.46-57.79-72.77-138.11-32.92-82.71-192.83,41.71-87.89,145.2-252.95,241.07-204.64,64.48,9.89,212.68-86.89,193.66,19.83-19.64,72.83,63.71,167.75-62.63,195.91-87.56,15.63-248.29,23.82-436.98-106.33-67.64-94.02C139.38-46.44,243.24-79.43,454.57,239.77c28.16-211.68,75.81-61.39,25.66,87.75-86.7,119.67-161.23,206.43-53.85,53.85-236.9,125.69-238.12,80.48-17.11-15.21"/>
      <path class="cls-1" d="m393.37,383.83c193.4,129.26,37.53,115.15-58.53-52.3-43.71-207.77,39.95-314.96,15.85-85.98,118.83-302.63,187.23-332.29,46.01-2.46,264.65-215.85,353.19-115.46,27,75.78,233.98,78.59,104.46,137.24-72.77,57.79-32.92,138.11-192.83,82.71-87.89-41.71-252.95-145.2-204.64-241.07,9.89-64.48-86.89-212.68,19.83-193.66,72.83,19.64,167.75-63.71,195.91,62.63,15.63,87.56,23.82,248.29-106.33,436.98-94.02,67.64-320.82,240.52-353.81,136.66-34.61-74.67-211.68-28.16-61.39-75.81,87.75-25.66,119.67,86.7,206.43,161.23,53.85,53.85,125.69,236.9,80.48,238.12-15.21,17.11"/>
      <path class="cls-1" d="m442.38,432.84c-129.26-193.4-115.15-37.53,52.3,58.53,207.77,43.71,314.96-39.95,85.98-15.85,302.63-118.83,332.29-187.23,2.46-46.01,215.85-264.65,115.46-353.19-75.78-27-78.59-233.98-137.24-104.46-57.79,72.77-138.11,32.92-82.71,192.83,41.71,87.89,145.2,252.95,241.07,204.64,64.48-9.89,212.68,86.89,193.66-19.83-19.64-72.83,63.71-167.75-62.63-195.91-87.56-15.63-248.29-23.82-436.98,106.33-67.64,94.02-240.52,320.82-136.66,353.81,74.67,34.61,28.16,211.68,75.81,61.39,25.66-87.75-86.7-119.67-161.23-206.43-53.85-53.85-236.9-125.69-238.12-80.48-17.11,15.21"/>
      <path class="cls-1" d="m426.84,377.83c-193.4,129.26-37.53,115.15,58.53-52.3,43.71-207.77-39.95-314.96-15.85-85.98-118.83-302.63-187.23-332.29-46.01-2.46-264.65-215.85-353.19-115.46-27,75.78-233.98,78.59-104.46,137.24,72.77,57.79,32.92,138.11,192.83,82.71,87.89-41.71,252.95-145.2,204.64-241.07-9.89-64.48,86.89-212.68-19.83-193.66-72.83,19.64-167.75-63.71-195.91,62.63-15.63,87.56-23.82,248.29,106.33,436.98,94.02,67.64,320.82,240.52,353.81,136.66,34.61-74.67,211.68-28.16,61.39-75.81-87.75-25.66-119.67,86.7-206.43,161.23-53.85,53.85-125.69,236.9-80.48,238.12,15.21,17.11"/>
      <path class="cls-1" d="m377.83,426.84c129.26-193.4,115.15-37.53-52.3,58.53-207.77,43.71-314.96-39.95-85.98-15.85-302.63-118.83-332.29-187.23-2.46-46.01-215.85-264.65-115.46-353.19,75.78-27,78.59-233.98,137.24-104.46,57.79,72.77,138.11,32.92,82.71,192.83-41.71,87.89-145.2,252.95-241.07,204.64-64.48-9.89-212.68,86.89-193.66-19.83,19.64-72.83-63.71-167.75,62.63-195.91,87.56-15.63,248.29-23.82,436.98,106.33,67.64,94.02,240.52,320.82,136.66,353.81-74.67,34.61-28.16,211.68-75.81,61.39-25.66-87.75,86.7-119.67,161.23-206.43,53.85-53.85,236.9-125.69,238.12-80.48,17.11,15.21"/>
      <path class="cls-1" d="m432.84,447.38c-193.4-129.26-37.53-115.15,58.53,52.3,43.71,207.77-39.95,314.96-15.85,85.98-118.83,302.63-187.23,332.29-46.01,2.46-264.65,215.85-353.19,115.46-27-75.78-233.98-78.59-104.46-137.24,72.77-57.79,32.92-138.11,192.83-82.71,87.89,41.71,252.95,145.2,204.64,241.07-9.89,64.48,86.89,212.68-19.83,193.66-72.83-19.64-167.75,63.71-195.91-62.63-15.63-87.56-23.82-248.29,106.33-436.98,94.02-67.64,320.82-240.52,353.81-136.66,34.61,74.67,211.68,28.16,61.39,75.81-87.75,25.66-119.67-86.7-206.43-161.23-53.85-53.85-125.69-236.9-80.48-238.12,15.21-17.11"/>
      <path class="cls-1" d="m383.83,398.37c129.26,193.4,115.15,37.53-52.3-58.53-207.77-43.71-314.96,39.95-85.98,15.85-302.63,118.83-332.29,187.23-2.46,46.01-215.85,264.65-115.46,353.19,75.78,27,78.59,233.98,137.24,104.46,57.79-72.77,138.11-32.92,82.71-192.83-41.71-87.89-145.2-252.95-241.07-204.64-64.48,9.89-212.68-86.89-193.66,19.83,19.64,72.83-63.71,167.75,62.63,195.91,87.56,15.63,248.29,23.82,436.98-106.33,67.64-94.02,240.52-320.82,136.66-353.81-74.67-34.61-28.16-211.68-75.81-61.39-25.66,87.75,86.7,119.67,161.23,206.43,53.85,53.85,236.9,125.69,238.12,80.48,17.11-15.21"/>
    </g>
  </g>
</svg>