<?xml version="1.0" encoding="UTF-8"?>
<svg id="Layer_2" data-name="Layer 2" xmlns="http://www.w3.org/2000/svg" viewBox="0 0 870.07 907.25">
  <defs>
    <style>
      .cls-1 {
        fill: none;
        stroke: #33d08f;
        stroke-miterlimit: 10;
        stroke-width: 2px;
      }
    </style>
  </defs>
  <g id="images">
    <path class="cls-1" d="m406.18,512.52c-104.51,213.43,120.8,332.44,80.59,15.4,326.48,246.56,410.76,191.33,39.09-26.79,365.17,118.67,316.26,100.67-22.77-6.03,217.85,182.44,204.48,240.36-33.07,21.07,57.93,236.39-91.94,209.12-60.62-15.96-91.81,164.76-92.35-78.75,42.9-38.02,290.66,69.76,360.69,51.76,71.49-6.05,460.67-104.41,462.81-300.12-8.18-85.94,184.76-483.71-113.46-502.51-121.14,5.21-309.34-149-294.64,25.19-27.98,78.55-256.15,17.39-240.55,161.29,29.82,52.83-143.58,190.79-225.56,400.62-45.89,38.69-470.14,325.4-454.46,410.76-21.43,19.2-386.16,447.51-284.32,466.14,48.77-8.46-100.7,297.64-76.07,169.73,28.44-43.7Z"/>
  </g>
</svg>