<?xml version="1.0" encoding="UTF-8"?>
<svg id="Layer_2" data-name="Layer 2" xmlns="http://www.w3.org/2000/svg" viewBox="0 0 624.44 626.36">
  <defs>
    <style>
      .cls-1 {
        fill: none;
        stroke: #8383ea;
        stroke-miterlimit: 10;
        stroke-width: 2px;
      }
    </style>
  </defs>
  <g id="images">
    <g>
      <path class="cls-1" d="m247.89,284.06s69.55,58.01,174.92,9.84c105.37-48.17,115-126.27,110.68-160.72-4.31-34.45-20.16-74.58-68.74-76.51-48.58-1.94-125.89,2.92-162.23,76.99s-7.34,151.07,23.66,206.07,119.1,97.77,204.55,72.88c85.45-24.88,104.91-83.88,86.18-117.38-18.73-33.5-70.18-69.39-145.96-83.94-75.77-14.56-139,25.62-162.89,113.53s-47.85,218.39,41.63,255.15c89.48,36.76,145.48,7.76,172.48-63.24s-15-152-98-179-149-32-170,0-3,51-3,51"/>
      <path class="cls-1" d="m376.54,284.06s-69.55,58.01-174.92,9.84c-105.37-48.17-115-126.27-110.68-160.72,4.31-34.45,20.16-74.58,68.74-76.51,48.58-1.94,125.89,2.92,162.23,76.99,36.34,74.07,7.34,151.07-23.66,206.07-31,55-119.1,97.77-204.55,72.88C8.26,387.73-11.2,328.73,7.53,295.23c18.73-33.5,70.18-69.39,145.96-83.94,75.77-14.56,139,25.62,162.89,113.53,23.89,87.91,47.85,218.39-41.63,255.15-89.48,36.76-145.48,7.76-172.48-63.24-27-71,15-152,98-179,83-27,149-32,170,0,21,32,3,51,3,51"/>
      <path class="cls-1" d="m353.3,249.82s-58.01,69.55-9.84,174.92c48.17,105.37,126.27,115,160.72,110.68,34.45-4.31,74.58-20.16,76.51-68.74,1.94-48.58-2.92-125.89-76.99-162.23s-151.07-7.34-206.07,23.66-97.77,119.1-72.88,204.55c24.88,85.45,83.88,104.91,117.38,86.18,33.5-18.73,69.39-70.18,83.94-145.96,14.56-75.77-25.62-139-113.53-162.89-87.91-23.89-218.39-47.85-255.15,41.63-36.76,89.48-7.76,145.48,63.24,172.48s152-15,179-98,32-149,0-170-51-3-51-3"/>
      <path class="cls-1" d="m353.3,378.47s-58.01-69.55-9.84-174.92c48.17-105.37,126.27-115,160.72-110.68,34.45,4.31,74.58,20.16,76.51,68.74,1.94,48.58-2.92,125.89-76.99,162.23-74.07,36.34-151.07,7.34-206.07-23.66-55-31-97.77-119.1-72.88-204.55C249.64,10.18,308.64-9.28,342.14,9.45c33.5,18.73,69.39,70.18,83.94,145.96,14.56,75.77-25.62,139-113.53,162.89-87.91,23.89-218.39,47.85-255.15-41.63-36.76-89.48-7.76-145.48,63.24-172.48,71-27,152,15,179,98,27,83,32,149,0,170s-51,3-51,3"/>
      <path class="cls-1" d="m376.46,292.41s-90.2,8.16-130.64,116.73c-40.44,108.57,7.97,170.6,35.38,191.91,27.41,21.31,66.99,38.48,102.71,5.5,35.72-32.98,86.95-91.08,60.28-169.16-26.68-78.08-101.63-112.02-162.44-128.99-60.81-16.97-153.35,15.09-196.18,93.1-42.83,78.02-14.87,133.5,22.07,143.94,36.93,10.44,98.69-.56,162.56-43.85,63.87-43.29,80.17-116.4,34.9-195.46-45.27-79.06-120.59-188.25-209.86-150.98C5.97,192.45-13.12,252.55,17.99,321.85c31.11,69.3,118.09,96.87,195.87,57.28,77.78-39.6,127.99-82.73,120.21-120.21-7.78-37.48-33.94-38.18-33.94-38.18"/>
      <path class="cls-1" d="m285.49,383.39s8.16-90.2,116.73-130.64c108.57-40.44,170.6,7.97,191.91,35.38,21.31,27.41,38.48,66.99,5.5,102.71-32.98,35.72-91.08,86.95-169.16,60.28-78.08-26.68-112.02-101.63-128.99-162.44-16.97-60.81,15.09-153.35,93.1-196.18,78.02-42.83,133.5-14.87,143.94,22.07s-.56,98.69-43.85,162.56c-43.29,63.87-116.4,80.17-195.46,34.9-79.06-45.27-188.25-120.59-150.98-209.86C185.52,12.89,245.62-6.2,314.92,24.92c69.3,31.11,96.87,118.09,57.28,195.87-39.6,77.78-82.73,127.99-120.21,120.21-37.48-7.78-38.18-33.94-38.18-33.94"/>
      <path class="cls-1" d="m377.46,339.59s-90.2-8.16-130.64-116.73c-40.44-108.57,7.97-170.6,35.38-191.91,27.41-21.31,66.99-38.48,102.71-5.5,35.72,32.98,86.95,91.08,60.28,169.16-26.68,78.08-101.63,112.02-162.44,128.99-60.81,16.97-153.35-15.09-196.18-93.1-42.83-78.02-14.87-133.5,22.07-143.94,36.93-10.44,98.69.56,162.56,43.85,63.87,43.29,80.17,116.4,34.9,195.46-45.27,79.06-120.59,188.25-209.86,150.98C6.97,439.56-12.12,379.46,18.99,310.16c31.11-69.3,118.09-96.87,195.87-57.28,77.78,39.6,127.99,82.73,120.21,120.21-7.78,37.48-33.94,38.18-33.94,38.18"/>
      <path class="cls-1" d="m286.49,248.62s8.16,90.2,116.73,130.64c108.57,40.44,170.6-7.97,191.91-35.38,21.31-27.41,38.48-66.99,5.5-102.71-32.98-35.72-91.08-86.95-169.16-60.28-78.08,26.68-112.02,101.63-128.99,162.44-16.97,60.81,15.09,153.35,93.1,196.18,78.02,42.83,133.5,14.87,143.94-22.07s-.56-98.69-43.85-162.56c-43.29-63.87-116.4-80.17-195.46-34.9-79.06,45.27-188.25,120.59-150.98,209.86,37.27,89.27,97.38,108.36,166.68,77.25,69.3-31.11,96.87-118.09,57.28-195.87-39.6-77.78-82.73-127.99-120.21-120.21-37.48,7.78-38.18,33.94-38.18,33.94"/>
      <path class="cls-1" d="m243.69,333.59s90.2-8.16,130.64-116.73c40.44-108.57-7.97-170.6-35.38-191.91-27.41-21.31-66.99-38.48-102.71-5.5-35.72,32.98-86.95,91.08-60.28,169.16,26.68,78.08,101.63,112.02,162.44,128.99,60.81,16.97,153.35-15.09,196.18-93.1,42.83-78.02,14.87-133.5-22.07-143.94-36.93-10.44-98.69.56-162.56,43.85-63.87,43.29-80.17,116.4-34.9,195.46,45.27,79.06,120.59,188.25,209.86,150.98,89.27-37.27,108.36-97.38,77.25-166.68-31.11-69.3-118.09-96.87-195.87-57.28-77.78,39.6-127.99,82.73-120.21,120.21,7.78,37.48,33.94,38.18,33.94,38.18"/>
      <path class="cls-1" d="m334.67,242.62s-8.16,90.2-116.73,130.64c-108.57,40.44-170.6-7.97-191.91-35.38-21.31-27.41-38.48-66.99-5.5-102.71,32.98-35.72,91.08-86.95,169.16-60.28,78.08,26.68,112.02,101.63,128.99,162.44,16.97,60.81-15.09,153.35-93.1,196.18s-133.5,14.87-143.94-22.07c-10.44-36.93.56-98.69,43.85-162.56,43.29-63.87,116.4-80.17,195.46-34.9,79.06,45.27,188.25,120.59,150.98,209.86-37.27,89.27-97.38,108.36-166.68,77.25-69.3-31.11-96.87-118.09-57.28-195.87,39.6-77.78,82.73-127.99,120.21-120.21,37.48,7.78,38.18,33.94,38.18,33.94"/>
      <path class="cls-1" d="m249.69,290.41s90.2,8.16,130.64,116.73c40.44,108.57-7.97,170.6-35.38,191.91-27.41,21.31-66.99,38.48-102.71,5.5-35.72-32.98-86.95-91.08-60.28-169.16,26.68-78.08,101.63-112.02,162.44-128.99,60.81-16.97,153.35,15.09,196.18,93.1s14.87,133.5-22.07,143.94c-36.93,10.44-98.69-.56-162.56-43.85-63.87-43.29-80.17-116.4-34.9-195.46,45.27-79.06,120.59-188.25,209.86-150.98,89.27,37.27,108.36,97.38,77.25,166.68-31.11,69.3-118.09,96.87-195.87,57.28-77.78-39.6-127.99-82.73-120.21-120.21,7.78-37.48,33.94-38.18,33.94-38.18"/>
      <path class="cls-1" d="m340.67,381.39s-8.16-90.2-116.73-130.64c-108.57-40.44-170.6,7.97-191.91,35.38-21.31,27.41-38.48,66.99-5.5,102.71,32.98,35.72,91.08,86.95,169.16,60.28,78.08-26.68,112.02-101.63,128.99-162.44,16.97-60.81-15.09-153.35-93.1-196.18-78.02-42.83-133.5-14.87-143.94,22.07-10.44,36.93.56,98.69,43.85,162.56,43.29,63.87,116.4,80.17,195.46,34.9,79.06-45.27,188.25-120.59,150.98-209.86C440.63,10.89,380.53-8.2,311.23,22.92c-69.3,31.11-96.87,118.09-57.28,195.87,39.6,77.78,82.73,127.99,120.21,120.21,37.48-7.78,38.18-33.94,38.18-33.94"/>
    </g>
  </g>
</svg>