<?xml version="1.0" encoding="UTF-8"?>
<svg id="Layer_2" data-name="Layer 2" xmlns="http://www.w3.org/2000/svg" viewBox="0 0 501.6 528">
  <defs>
    <style>
      .cls-1 {
        fill: #4865cc;
      }

      .cls-1, .cls-2 {
        stroke: #4865cc;
        stroke-linecap: round;
        stroke-linejoin: round;
      }

      .cls-2 {
        fill: none;
        stroke-width: 31px;
      }
    </style>
  </defs>
  <g id="images">
    <g>
      <path class="cls-2" d="m28.58,473.99s-32.82-36.73,5.52-57.12c38.33-20.39,56.73,79.92,70.61,87.14,13.89,7.22,29.04-2.54,31.1-55.91s15.29-55.56,31.75-46.5c16.46,9.06-.92,82.2,31.92,105.32,6.98,4.92,16.23,5.72,20.72,5.56,4.2-.16,8.44-1.33,11.85-3.23,8.51-4.76,13.43-14.3,9.9-31.89-6.29-31.27-69.17-126.48-28.27-145.03,40.9-18.55,50.55,78.22,77.45,35.24,26.89-42.97,41.12-132.36,15.37-172.98-25.75-40.62-59.64-48.16-85.99-26.58-26.35,21.58-16.93,70.34,8.4,100.15,25.33,29.81,66.46,59.27,112.16,28.6,45.7-30.67,97.03-101.26,112.96-133.81,15.92-32.55,33.79-86.27,3.84-127.55"/>
      <path class="cls-1" d="m28.34,488.98s20,.32,22.3-18.65c1.74-14.32-19.17-26.53-8.63-35.74,8.32-7.27,18.81,12.3,22.69,19.37,3.89,7.06-16.2-37.66-16.2-37.66l-26.68,13.47-4.47,24.6,8.92,16.76,2.05,17.85Z"/>
      <ellipse class="cls-1" cx="461.15" cy="48.46" rx="38" ry="49.5" transform="translate(17.35 182.81) rotate(-22.84)"/>
      <path class="cls-1" d="m501.03,59.99c-3.23,37.25-21.85,79.77-21.85,79.77l2.64-52.56,19.2-27.2Z"/>
      <path class="cls-1" d="m428.99,69.14s5.33,9.64,11.07,14.56c5.74,4.92,21.53,18.18,12.08,46.03l14.73-20.57-3.42-23.46-21.74-16.35-12.72-.21Z"/>
    </g>
  </g>
</svg>