<?xml version="1.0" encoding="UTF-8"?>
<svg id="Layer_2" data-name="Layer 2" xmlns="http://www.w3.org/2000/svg" viewBox="0 0 852.21 621.24">
  <defs>
    <style>
      .cls-1 {
        fill: #37c48c;
      }
    </style>
  </defs>
  <g id="images">
    <path class="cls-1" d="m360.78,239.81c-216.52-245.45-196.62-246.77,9.52-3.99-163.69-274.62-131.85-311.77,17.82-6.76-101.9-257.25-117.82-222.75-3.69,17.2-161.9-208.12-159.24-205.46-3.07,3.07-140.25-219.15-23.5-314.67,41.78-16.59,46.16-239.71-79.24-200.25-19.12,17.16-85.96-206.46-218.62-142.78-23.27,21.54-105.14-116.56,85.9-190.85,64.51-14.13,106.3-197.95,177.94-211.21,30.72,1.23,184.37-154.07,163.14-135.5-4.91,13.52,130.91-127.79,96.41-114.52-18.43,6.14,61.78-115.36,21.98-102.09-4.91,7.99,117.11-72.93,186.09-133.96,31.33-12.9,197.21-147.59,258.24-184.73,23.96-1.84,276.74-97.98,218.36-66.14-15.36,20.27,175.35-59.88,114.32-46.62-7.37,8.6,238.44-33.99,270.28-95.02,22.73-14.13,263.47-102.12,295.31-139.26,19.05-6.76,361.17-95.36,339.94-52.9-1.84,17.2,283.41-43.57,256.88-27.65-4.91,10.44,330.78-6.26,359.97-35.44,17.82,9.83,368.69,66.17,283.78,68.82-20.89,9.83,267.52,27.15,240.68-1.05-9.25,1.96,260.85,102.14,300.65,88.87,11.71,8.49,299.56,75.08,387.12,29.97,27.03-10.44,407.84,45.72,410.5,51.03,6.76,5.53,409.05,77.34,403.74,114.49-8.6,14.74,343.35,120.97,311.51,123.62-15.36,3.07,326.87,120.55,321.57,181.58-14.74,14.13,219.56,167.45,155.88,61.32-23.96-41.16,198.42,30.84,142.7,20.22-4.3,17.2,221.29,172.84,226.6,191.41,3.69,31.95,169.84,228.45,140.66,244.37-19.66,7.37,101.94,199.85,80.72,157.4-4.91-18.43,144.01,138.68,151.97,138.68,7.37-12.29,133.98,81.98,112.75,39.53-4.91-22.12,122.97,43.07,99.09,35.11-6.76,13.52,95.24,154.26,97.89,146.3-3.69,20.27,75.05,184.4,88.31,205.63,3.07,15.36,111.77,222.11,138.31,261.91,4.91,19.66,96.25,300.62,37.87,268.78-16.59-13.52,59.77,226.58,57.11,234.54-1.84,1.84,53.65,232.7,82.84,314.95-3.69,25.19-3.69,342.83-11.65,223.43-9.22-28.26,10.83,222.5,40.02,140.25,1.84-23.35-4.28,126.45-22.85,123.79-12.29-4.3-37.1,133.4-156.5,191.77-37.48,1.84-177.4,83.8-129.64,65.22,16.59-15.97-40.09,86.5,132.38,59.97,49.15-26.42,56.69-94.04-52.09-30.36-31.95-3.69-51.99-5.45-134.24,47.62-26.42,19.66-139.66,70.41-182.12,136.75-33.18,11.67-318.76,50.78-268.34,13.64-6.14-18.43-246.28,21.45-225.05,16.15,9.83-2.46-208.35,18.6-134.05,21.26,27.65-12.9-98.02-82.59-161.7-98.51-12.29-15.97-191.87-71.92-205.13-61.31-13.52,7.37-239.38-36.84-393.27,85.21-49.15,10.44-413.11-110.97-198.19-116.27,38.09-30.72-268.12-154.54-318.08-85.18-38.96-12.86C-172.81,11.61-32.18-4.31,324.84,250.56c-314.57-164.66-256.2-175.27,16.59-4.3C52.73-30.84,105.79-97.17,359.86,219.23c-185.08-311.1-158.55-279.26.92,20.58Z"/>
  </g>
</svg>