<?xml version="1.0" encoding="UTF-8"?>
<svg id="Layer_2" data-name="Layer 2" xmlns="http://www.w3.org/2000/svg" viewBox="0 0 615.15 400.46">
  <defs>
    <style>
      .cls-1 {
        fill: none;
        stroke: #1ca86f;
        stroke-miterlimit: 10;
        stroke-width: 3px;
      }

      .cls-2 {
        fill: #032c2d;
      }

      .cls-3 {
        fill: #1ca86f;
      }
    </style>
  </defs>
  <g id="images">
    <g>
      <path class="cls-3" d="m292.43,49.98s37.29-10.59,60.17,2.02c22.88,12.61,53.92,38.9,105.59,25.37,51.67-13.54,76.74,26.11,80.91,38.52,4.16,12.41,12.28,43.91-14.69,70.49-26.97,26.59-28.53,65.4-28.14,75.12.39,9.72-2.21,46.32-33.15,62.59-30.94,16.27-51.08,10.65-66.64,3.75-15.56-6.9-45.25-1.36-57.98,11.01-12.73,12.38-32.1,16.26-34.06,16.65s-21.57-.36-29.24-3.48c-7.68-3.12-52.44-31.83-85.21-20.58-32.77,11.25-66.17-20.51-68.11-45.41-1.94-24.9-25.55-41.55-31.22-45.27-5.68-3.72-15.44-13.35-17.55-21.35s-7.96-30.36,13.22-46.76c21.18-16.39,30.51-28.94,34.78-46.35s16.83-36.84,41.23-38.78c24.4-1.94,40.57,8.88,48.41,27.55,7.84,18.67,3.48,36.64-4.83,47.85,0,0-12.81,15.87-26.1,19.37-13.28,3.5-48.24,22.14-2.8,40.39,0,0,22.85-1.76,40.36,17.57,17.51,19.33,34.08,8.09,41.72,1.28,7.64-6.81,27.83-13.02,36.77-11.86,0,0-46.22-9.04-62.92-55.98-16.7-46.94.76-80.26,20.77-100.49,20.01-20.24,38.71-23.22,38.71-23.22Z"/>
      <path class="cls-2" d="m298.13,107.34c-13.11-135.23,43.45-151.24,37.27,1.28,75.55-114.22,122.58-74.3,65.39,15.77,213.94-130.99,251.91-70.83,50.09,23.91,214.41-57.08,226.68-9.3-9.14,43.66,153.94,27.6,151.53,86.46-17.47,46.51,170.15,69.43,166.16,124.93-20.57,38.75,92.86,135.43,62.32,126.88-41.28,2.28,56.42,103.63,11.38,111.98-35.92,6.79,8.66,142.7-20.71,148.56-21.11,10.29-5.57,139.44-35.3,138.28-18.11-2.17-40.46,130.96-108.29,87.37-52.77-12.8-154.95,134.19-205.56,85.99-42.16-28.17-169.21,38.62-204.99,13.34-19.31-28.06-202.88,30.11-217.68,15.49-10.86-13.23-213.18,4.45-222.03-29.47,8.22-28.95-165.96-50.18-151.8-69.19,21.57-28.69C31.59,61.2,50.66,31.77,217.52,130.52c-92.84-104.57-68.33-88.14,29.97,17.09-74.58-48.58-81.22-21.34-3.02,29.64-90.81-33.99-110.27-9.94-16.17,11.98-134.38-11.35-187.42,16.87-1.75,25.02-116.78,19.6-82.13,16.97,24.99,10.91-54.06,64.72-28.92,47.7,25.84.82-31.57,26.26-.94,16.86,22.78-7.32-10.17,25.97-80.25,12.2-38.94-34.71-91.83-95.51-65.3-146.01,12.92-62.24-17.48-145.1,10.88-149.59,23.99-14.36Z"/>
      <path class="cls-1" d="m293.45,60.47s34.69-9.85,55.98,1.88c21.29,11.73,50.17,36.2,98.24,23.6,48.07-12.59,71.4,24.29,75.27,35.84,3.87,11.55,11.43,40.85-13.67,65.59-25.1,24.73-26.54,60.85-26.18,69.89.36,9.04-2.06,43.1-30.84,58.23-28.78,15.13-47.52,9.91-62,3.49-14.48-6.42-42.1-1.27-53.95,10.25s-29.86,15.13-31.69,15.49-20.07-.33-27.21-3.24c-7.14-2.9-48.78-29.61-79.27-19.15-30.49,10.46-61.56-19.08-63.37-42.25-1.81-23.17-23.77-38.66-29.05-42.12-5.28-3.46-14.37-12.42-16.33-19.86-1.96-7.44-7.41-28.25,12.3-43.5,19.71-15.25,28.39-26.92,32.36-43.13,3.97-16.21,15.66-34.27,38.36-36.08,22.7-1.81,37.75,8.26,45.04,25.63,7.29,17.37,3.24,34.09-4.49,44.52,0,0-11.92,14.77-24.28,18.02-12.36,3.25-44.88,20.6-2.6,37.58,0,0,21.26-1.63,37.55,16.35,16.29,17.98,31.71,7.53,38.81,1.19,7.11-6.34,25.9-12.12,34.21-11.03,0,0-43-8.41-58.54-52.08-15.54-43.67.71-74.67,19.32-93.5,18.62-18.83,36.02-21.6,36.02-21.6Z"/>
      <path class="cls-1" d="m294.72,73.39s31.49-8.94,50.82,1.71c19.33,10.65,45.55,32.86,89.19,21.43s64.82,22.05,68.34,32.54c3.52,10.49,10.37,37.09-12.41,59.55-22.78,22.46-24.1,55.24-23.77,63.45.33,8.21-1.87,39.13-28,52.87-26.13,13.74-43.15,8.99-56.29,3.16-13.14-5.83-38.23-1.15-48.98,9.3-10.75,10.46-27.11,13.74-28.77,14.06-1.66.33-18.22-.3-24.7-2.94s-44.29-26.88-71.97-17.38c-27.68,9.5-55.89-17.32-57.53-38.36-1.64-21.04-21.58-35.1-26.37-38.24s-13.04-11.27-14.82-18.03-6.72-25.65,11.17-39.49,25.77-24.44,29.38-39.16c3.6-14.71,14.21-31.12,34.83-32.76,20.61-1.64,34.27,7.5,40.89,23.27,6.62,15.77,2.94,30.95-4.08,40.42,0,0-10.82,13.41-22.04,16.36-11.22,2.95-40.74,18.7-2.36,34.12,0,0,19.3-1.48,34.09,14.84,14.79,16.32,28.79,6.83,35.24,1.08,6.45-5.75,23.51-11,31.06-10.02,0,0-39.04-7.63-53.15-47.28-14.11-39.65.64-67.79,17.54-84.89,16.9-17.1,32.7-19.61,32.7-19.61Z"/>
      <path class="cls-1" d="m296.37,90.34s27.3-7.75,44.06,1.48c16.76,9.23,39.48,28.49,77.32,18.57,37.83-9.91,56.19,19.12,59.24,28.21s8.99,32.15-10.76,51.62c-19.75,19.47-20.89,47.89-20.6,55,.28,7.12-1.62,33.92-24.27,45.83-22.65,11.91-37.4,7.8-48.79,2.74-11.39-5.05-33.14-1-42.46,8.07-9.32,9.06-23.5,11.91-24.94,12.19-1.44.28-15.79-.26-21.41-2.55-5.62-2.29-38.39-23.3-62.39-15.07-23.99,8.23-48.45-15.01-49.87-33.25-1.42-18.23-18.7-30.43-22.86-33.15-4.16-2.72-11.31-9.77-12.85-15.63s-5.83-22.23,9.68-34.24c15.51-12,22.34-21.19,25.46-33.94,3.12-12.75,12.32-26.97,30.19-28.4,17.87-1.42,29.71,6.5,35.45,20.17,5.74,13.67,2.55,26.83-3.53,35.04,0,0-9.38,11.62-19.11,14.18s-35.32,16.21-2.05,29.58c0,0,16.73-1.29,29.55,12.86,12.82,14.15,24.95,5.92,30.55.94,5.59-4.99,20.38-9.54,26.92-8.68,0,0-33.84-6.62-46.07-40.99-12.23-34.37.56-58.76,15.21-73.58,14.65-14.82,28.35-17,28.35-17Z"/>
      <path class="cls-1" d="m298.19,108.91s22.71-6.45,36.64,1.23c13.94,7.68,32.84,23.69,64.31,15.45,31.47-8.24,46.74,15.9,49.28,23.46,2.54,7.56,7.48,26.74-8.95,42.93-16.43,16.19-17.37,39.83-17.14,45.75s-1.35,28.21-20.19,38.12c-18.84,9.91-31.11,6.48-40.59,2.28-9.48-4.2-27.56-.83-35.31,6.71-7.75,7.54-19.55,9.9-20.75,10.14-1.2.24-13.14-.22-17.81-2.12-4.67-1.9-31.94-19.38-51.89-12.53-19.96,6.85-40.3-12.49-41.48-27.66-1.18-15.17-15.56-25.31-19.01-27.57-3.46-2.26-9.41-8.13-10.69-13-1.28-4.87-4.85-18.49,8.05-28.48,12.9-9.98,18.58-17.62,21.18-28.23,2.6-10.61,10.25-22.44,25.11-23.62,14.86-1.18,24.71,5.41,29.48,16.78,4.77,11.37,2.12,22.32-2.94,29.14,0,0-7.8,9.67-15.89,11.79s-29.38,13.48-1.7,24.6c0,0,13.92-1.07,24.58,10.7,10.66,11.77,20.75,4.93,25.41.78,4.65-4.15,16.95-7.93,22.39-7.22,0,0-28.15-5.5-38.32-34.09s.46-48.88,12.65-61.2c12.19-12.33,23.58-14.14,23.58-14.14Z"/>
      <path class="cls-1" d="m299.6,123.44s19.11-5.43,30.84,1.04c11.73,6.46,27.64,19.94,54.13,13,26.49-6.94,39.34,13.38,41.48,19.75s6.3,22.51-7.53,36.14c-13.83,13.63-14.62,33.53-14.42,38.51s-1.13,23.75-16.99,32.08c-15.86,8.34-26.18,5.46-34.16,1.92-7.98-3.54-23.2-.7-29.72,5.65-6.52,6.35-16.45,8.34-17.46,8.54-1.01.2-11.06-.18-14.99-1.78-3.93-1.6-26.88-16.32-43.68-10.55-16.8,5.76-33.92-10.51-34.92-23.28-1-12.77-13.1-21.3-16-23.21-2.91-1.9-7.92-6.84-9-10.94s-4.08-15.57,6.78-23.97c10.86-8.4,15.64-14.83,17.83-23.76,2.19-8.93,8.63-18.88,21.14-19.88s20.8,4.55,24.82,14.12c4.02,9.57,1.78,18.78-2.47,24.53,0,0-6.57,8.14-13.38,9.93-6.81,1.79-24.73,11.35-1.43,20.71,0,0,11.71-.9,20.69,9.01,8.98,9.91,17.47,4.15,21.39.66,3.92-3.49,14.27-6.68,18.85-6.08,0,0-23.69-4.63-32.25-28.7-8.56-24.06.39-41.14,10.65-51.52,10.26-10.38,19.84-11.9,19.84-11.9Z"/>
      <path class="cls-1" d="m301.1,138.77s15.32-4.35,24.72.83c9.4,5.18,22.15,15.98,43.38,10.42,21.23-5.56,31.53,10.73,33.24,15.83,1.71,5.1,5.05,18.04-6.04,28.96-11.08,10.92-11.72,26.87-11.56,30.86s-.91,19.03-13.62,25.72c-12.71,6.68-20.99,4.37-27.38,1.54-6.39-2.83-18.59-.56-23.82,4.53-5.23,5.09-13.19,6.68-14,6.84s-8.86-.15-12.02-1.43c-3.15-1.28-21.54-13.08-35.01-8.46-13.46,4.62-27.19-8.43-27.99-18.66-.8-10.23-10.5-17.07-12.83-18.6-2.33-1.53-6.35-5.48-7.21-8.77s-3.27-12.48,5.43-19.21c8.7-6.74,12.54-11.89,14.29-19.05,1.75-7.16,6.91-15.14,16.94-15.93,10.03-.8,16.67,3.65,19.89,11.32,3.22,7.67,1.43,15.05-1.98,19.66,0,0-5.26,6.52-10.72,7.96-5.46,1.44-19.82,9.1-1.15,16.6,0,0,9.39-.72,16.58,7.22,7.19,7.94,14,3.32,17.14.53,3.14-2.8,11.44-5.35,15.11-4.87,0,0-18.99-3.71-25.85-23-6.86-19.29.31-32.97,8.53-41.29,8.22-8.32,15.91-9.54,15.91-9.54Z"/>
      <path class="cls-1" d="m302.21,150.08s12.52-3.56,20.21.68c7.69,4.23,18.11,13.07,35.47,8.52,17.36-4.55,25.78,8.77,27.18,12.94,1.4,4.17,4.13,14.75-4.93,23.68s-9.58,21.97-9.45,25.23-.74,15.56-11.13,21.02c-10.39,5.46-17.16,3.58-22.38,1.26-5.23-2.32-15.2-.46-19.48,3.7-4.28,4.16-10.78,5.46-11.44,5.59s-7.25-.12-9.82-1.17c-2.58-1.05-17.61-10.69-28.62-6.91-11.01,3.78-22.23-6.89-22.88-15.25-.65-8.37-8.58-13.96-10.49-15.21-1.91-1.25-5.19-4.48-5.89-7.17s-2.67-10.2,4.44-15.71c7.11-5.51,10.25-9.72,11.68-15.57s5.65-12.37,13.85-13.03c8.2-.65,13.63,2.98,16.26,9.25s1.17,12.31-1.62,16.07c0,0-4.3,5.33-8.77,6.5-4.46,1.17-16.2,7.44-.94,13.57,0,0,7.67-.59,13.56,5.9,5.88,6.49,11.45,2.72,14.01.43,2.57-2.29,9.35-4.37,12.35-3.98,0,0-15.52-3.04-21.13-18.8-5.61-15.77.26-26.96,6.98-33.76,6.72-6.8,13-7.8,13-7.8Z"/>
      <path class="cls-1" d="m303.7,165.41s8.73-2.48,14.09.47,12.62,9.11,24.72,5.94c12.1-3.17,17.97,6.11,18.94,9.02.97,2.91,2.88,10.28-3.44,16.51-6.32,6.22-6.68,15.31-6.59,17.59s-.52,10.85-7.76,14.65c-7.24,3.81-11.96,2.49-15.6.88-3.64-1.62-10.6-.32-13.58,2.58s-7.52,3.81-7.98,3.9-5.05-.08-6.85-.81c-1.8-.73-12.28-7.45-19.95-4.82-7.67,2.63-15.49-4.8-15.95-10.63s-5.98-9.73-7.31-10.6-3.62-3.13-4.11-5-1.86-7.11,3.1-10.95,7.14-6.77,8.14-10.85c1-4.08,3.94-8.63,9.65-9.08,5.71-.45,9.5,2.08,11.33,6.45,1.84,4.37.81,8.58-1.13,11.2,0,0-3,3.72-6.11,4.53s-11.29,5.18-.65,9.46c0,0,5.35-.41,9.45,4.11,4.1,4.52,7.98,1.89,9.77.3,1.79-1.59,6.52-3.05,8.61-2.78,0,0-10.82-2.12-14.73-13.11-3.91-10.99.18-18.79,4.86-23.53s9.06-5.44,9.06-5.44Z"/>
    </g>
  </g>
</svg>