<?xml version="1.0" encoding="UTF-8"?>
<svg id="Layer_2" data-name="Layer 2" xmlns="http://www.w3.org/2000/svg" viewBox="0 0 664.47 424.71">
  <defs>
    <style>
      .cls-1 {
        fill: #8052db;
      }

      .cls-2 {
        fill: #18186d;
      }
    </style>
  </defs>
  <g id="images">
    <g>
      <path class="cls-1" d="m422.86,216.35c54.58-13.33,57.69-23.59,5.94-19.57,53.09-18.13,53.12-22.04-.99-6.98,48.44-24.42,39.25-24.39-12.89-2.31,38.58-16.77,32.27-12.25-13.29,4.89,22.63-16.15,9.68-35.1-28.55-9.19,12.48-18.75,8.24-6.04-10.5,17.4,16.32-1.49,15.93,10.84-6.27,20.18,5.64,6.42-7.9,5.56-21.57,7.69-16.44,10.19-24.54,37.19-10.18,33.91,1.63,26.7,8.01,31.61,9.07,11.86,10.79,45.49-5.76,73.49,5.73,38.57,12.75,52.76,23.45,51.06,17.57.1,23.16,43.54,31.21,38.06,16.95-7,26.95,42.96,30.63,42.99,6.6.75,36.14,49,32.56,62.46,3.61,18.9,28.98,74.31,51.73,91.15,27.57,20.42,68.79,57.18,80.75,21.36,41.42-28.61,75.99,49.48,85.38,55.29,19.41,5.5,104.7,60.47,137.79,37.62,42.17-29.13,99.93,20.41,93.53,2.4,1.86-32.32,104.49,10,114.71,4.06,16.05-14.37,123.14,2.02,137.45-10.84,23.93-26.11,127.72-18.56,125.98-40.16-5.23-33.35,105.47-31,85.48-33.48-27.29-18.42,94.13-42.92,98.95-61.81-6.73-31.4,91.36-67.78,64.44-76.12-38.38-19.84,69.56-56.46,58.59-56.01-18.25-4.07,63.11-64.6,62.03-74.47-8.05-15.3,57-80.1,38.61-83.69-27.6-9.19,35.17-68.69,21.07-60.8-29.18,10.11,20.1-61.53,2.28-60.56-29.6-2.65,10.27-74.79,5.21-86.88-16.13-15.88,1.16-80.76-10.6-78-20.24,2.02-9.44-69.99-17.81-62.88-18.06,10.91-24.25-62.24-41.42-61.49-31.25,2.8-42.54-71.23-60.23-78.85-32.06-2.33-59.46-60.73-63.14-39.29-20.52,28.65-68.46-35.87-93.64-31.2-40.8,14.85-95.56-45.62-119.88-45.42-34.88,11.67-101.37-26.35-95.39-9.82-2.91,29.02-100.52-3.93-121.06,7.61-27.17,29.1-131.76,7.98-149.6,34.81-21.1,45.58-115.18,39.32-91.12,53.88,27.48,39.2-96.33,55.97-95.13,82.25,19.71,38.16-70.73,74.15-32.68,50.55,59.36,5.89-45.57,70.51-38.86,97.32,30.18,30.31-17.61,89.6,15.21,50.62,63.76-12.85-8.83,70.07-2.94,72.57,11.86,2.28,9.92,70.23,20.62,49.08,21.1-25.77,4.62,44.54,4.61,30.52-4.5-22.45-7.82,37.11.87,11.22-2.43-28.4-12.04,4.33-38.44,27.48-20.22-11.45-5.45,7.96,4.72-6.68,11.14-30.6-5.08-19.82-35.62-42.68-36.16-27.07-41.2-1.96-53.81,12.75-29.72,14.01-60.06,1.93-78.56-14.23-36.63-6.02-69.92-.26-77.44,8.43-11.97,13.84-68.07,14.2-63.08,24.55,7.94,16.48-53.41,18.64-41.71,17.99,19.81,6.3-42.5,21.31-37.71,37.46,2.89,16.31"/>
      <path class="cls-2" d="m426.45,221.22c9.17-2.25,18.33-4.67,27.25-7.78,5.71-2,11.92-4.04,16.87-7.61,3.77-2.71,6.63-5.67,8.11-10.2,1.67-5.11-.12-11.04-3.82-14.79-4.89-4.94-12.15-5.81-18.71-6.32-9.08-.71-18.29-.07-27.35.62,1.2,8.84,2.39,17.68,3.59,26.52,8.77-3,17.53-6.05,26.18-9.4,5.19-2.01,10.71-3.86,15.5-6.75,4.12-2.49,7.04-6.07,7.69-10.96,1.17-8.67-5.62-15.32-13.96-15.66-4.74-.19-9.86,1.21-14.47,2.24-9.78,2.18-19.46,4.84-29.11,7.52,3.47,8.22,6.94,16.45,10.4,24.67,7.69-3.88,15.39-7.8,22.87-12.08,3.93-2.25,8.23-4.64,11.4-7.91,6.17-6.36,5.2-17.23-2.69-21.84-3.96-2.31-8.07-2.13-12.35-1.27-4.66.93-9.21,2.79-13.64,4.44-10.82,4.04-21.47,8.53-32.11,13.03,4.54,7.77,9.08,15.54,13.63,23.31,4.1-1.78,8.2-3.54,12.31-5.28l-3.22,1.36c3.16-1.33,6.32-2.66,9.51-3.93,1.09-.43,2.32-1.12,3.49-1.3l-3.59.48h.02c-2.27-.61-4.54-1.23-6.81-1.84h0c-2.07-5.08-4.14-10.16-6.2-15.24h0c1.16-1.98,2.31-3.96,3.47-5.95,3.36-3.08,3.35-2.35,1.58-1.55-.96.43-1.93.84-2.9,1.25l3.22-1.36c-11.41,4.81-23,9.21-34.58,13.57,3.47,8.22,6.94,16.45,10.4,24.67,10.13-7.32,20.95-18.86,17.07-32.56-1.92-6.79-7.7-11.92-14.45-13.66-6.26-1.62-13.04-.84-19.17.97-9.15,2.7-17.74,7.44-25.62,12.75,6.16,6.16,12.31,12.31,18.47,18.47.79-1.18,1.58-2.35,2.4-3.51.47-.66,3.01-4.04,1.07-1.54-1.82,2.35-.13.17.36-.36,1.52-1.63-.14.34-1.8,1.27l-3.22,1.36s.07-.03.12-.04l-3.59.48h.04c-2.27-.61-4.54-1.22-6.81-1.84l.03.02-4.84-4.84.02.03-1.36-3.22v.05c-.15-1.2-.31-2.39-.47-3.59,0,.05,0,.09,0,.14l.48-3.59c-.05.33-.18.64-.31.94l1.36-3.22c-1.38,3.13-3.35,6.04-5.24,8.87-1.6,2.41-3.27,4.78-4.98,7.12-.93,1.27-1.87,2.53-2.82,3.78-.34.44-.67.88-1.01,1.32l1.06-1.38c.11.19-1.99,2.53-2.2,2.79-3.49,4.38-5.1,9.28-2.79,14.75,1.94,4.6,7.04,8.73,12.34,8.3,1.71-.14,3.4-.17,5.11.03l-3.59-.48c1.04.15,2.05.37,3.03.75l-3.22-1.36c1.59.69,2.46,2.17-.88-.99,1.59,1.51-2.13-3.61-1.01-1.25l-1.36-3.22c.13.33.22.65.28.99l-.48-3.59c.05.46.04.9-.01,1.36l.48-3.59c-.09.51-.23,1-.42,1.48l1.36-3.22c-.21.49-.45.96-.74,1.42-.14.22-.3.43-.43.65-.74,1.22,2.47-2.92,1.19-1.56-.49.52-.97,1.05-1.5,1.54-.92.86-3.26,2.25.43-.19-3.65,2.42-7.28,4.52-11.32,6.25-3.75,1.6-5.94,6.11-6.45,9.86-.6,4.48.86,7.94,3.71,11.34-2.85-3.41-1.48-2.14-.98-1.01l-1.36-3.22c.08.19.13.38.16.58l-.48-3.59c.03.17.03.35,0,.52l.48-3.59c-.03.16-.08.32-.15.47l1.36-3.22,1.81-2.31c-.55.52-.24.29.92-.68,1.96-1.54,1.15-.87.49-.56l3.22-1.36c-1.89.78-3.95,1.06-5.97,1.33l3.59-.48c-3.27.42-6.56.7-9.84,1.07-2.68.31-5.4.55-8.05,1.06-2.38.45-4.42,1.63-6.33,3.05-5.72,4.23-10.34,9.07-14.27,15.03-6.12,9.27-10.96,22.95-5.15,33.49,4.45,8.07,13.45,10.29,21.93,8.5-5.7-4.34-11.39-8.68-17.09-13.02.44,6.88,1.08,13.89,2.69,20.6,1.25,5.21,3.36,10.3,7.7,13.64,7.35,5.68,17.76,3.09,22.08-5.04,2.8-5.27,3.27-11.5,3.61-17.34-8.84,1.2-17.68,2.39-26.52,3.59,1.07,4.58,1.93,9.2,2.58,13.85l-.48-3.59c1.48,11.1,1.81,22.43.32,33.55l.48-3.59c-.3,2.19-.51,4.65-1.33,6.72l1.36-3.22c-.48,1.07-1.74,1.41,2.04-2.6l5.96-3.47h-.01c3.47.46,6.94.91,10.4,1.37h-.01c1.61,1.61,3.23,3.22,4.84,4.84v-.02c.45,1.07.9,2.15,1.35,3.22v-.03c.16,1.2.32,2.39.48,3.59,0-.14.01-.28.03-.42l-.48,3.59c.73-5.16,2.63-10.29,4.24-15.22h-26.04c2.11,8.69,4.41,17.39,7.52,25.78,2.29,6.18,4.78,12.85,9.4,17.74,7.2,7.63,19.19,6.69,24.87-2.2,3.18-4.97,3.66-11.43,3.89-17.15.37-9.22-.55-18.51-1.59-27.67l-25.16,6.81c3.83,7.18,7.81,14.35,12.5,21.01,3.49,4.94,7.24,10.08,12.54,13.23,8.96,5.34,20.06.8,23.16-9.01,1.8-5.69.78-11.93-.15-17.66-1.38-8.48-3.85-16.8-6.43-24.98l-24.67,10.4c4.49,7.15,9.02,14.28,13.77,21.27,2.94,4.32,5.91,8.88,9.46,12.72,2.8,3.03,6.64,5.02,10.84,5.03,7.83.01,13.51-6.5,13.68-14.01.12-5.22-3.07-10.41-5.32-14.9-3.91-7.79-8.2-15.4-12.51-22.97l-23.31,13.63c5.77,7.84,11.37,15.82,16.49,24.09,3.06,4.94,6.08,10,8.36,15.37l-1.36-3.22c.55,1.32,1.09,2.67,1.31,4.09l-.48-3.59c.04.3.06.59.03.89l.48-3.59c-.02.12-.04.24-.09.36l1.36-3.22c.54-1.17,3.08-3.79,4.51-4.48l3.22-1.36s-.09.03-.14.04l3.59-.48c-.08,0-.16.01-.24,0l3.59.48c-.17-.02-.33-.07-.5-.14l3.22,1.36c-.46-.2-.82-.53-1.26-.76-.18-.09,3.33,2.79,1.82,1.37-.28-.26-.57-.51-.85-.78-1.63-1.55-3.1-3.26-4.54-4.98-.44-.53-.87-1.06-1.3-1.59s-2.12-2.72-.49-.59-.18-.25-.59-.79c-.59-.78-1.17-1.57-1.74-2.36-2.59-3.56-5.08-7.18-7.52-10.84-3.75-5.64-10.45-8.23-16.86-5.52-5.66,2.39-10.27,9.64-7.82,15.93,5.37,13.74,11.09,27.39,17.65,40.62,3.83,7.73,7.87,15.55,13.05,22.48,2.79,3.73,5.31,6.85,9.14,9.52,4.77,3.32,11.24,3.65,16.32.83,9.25-5.13,8.49-16.08,7.16-24.93-1.8-12.03-5.81-23.81-9.72-35.28-7.52,4.38-15.04,8.76-22.56,13.13,11.57,9.59,23.72,19.14,37.23,25.89,9.71,4.85,20.07,8.58,31.03,6.69,8.77-1.52,16-8.96,17.74-17.61s-.09-18.05-3.47-26.38c-5.41-13.33-13.17-25-22.02-36.29l-16.36,21.2c19.57,12.75,38.93,26.06,59.08,37.9,2.28,1.34,4.64,2.65,7.16,3.47,4.54,1.47,10.35.12,13.59-3.4,4.21-4.59,5.24-11.22,2-16.66-2.89-4.85-8.55-8.33-12.88-11.7-11.87-9.27-23.9-18.34-35.92-27.41-4.54,7.77-9.08,15.54-13.63,23.31,18.21,10.5,36.97,20.12,56.56,27.79,11.83,4.63,24.71,8.99,37.55,9.14,5.18.06,10.77-.81,15.29-3.52,5.92-3.55,9.42-9.61,9.7-16.47.46-11.32-7.97-21.66-15.08-29.52-13.96-15.42-31.26-28.02-48.22-39.88-3.47,8.22-6.94,16.45-10.4,24.67,16.8,3.42,33.73,6.53,50.8,8.28,4.87.5,9.78.88,14.68.79,3.92-.08,8.1-.31,11.82-1.59,5.72-1.97,10.53-5.81,12.07-11.92,1.62-6.39-1.09-12.33-5.37-16.94-2.87-3.08-6.55-5.54-10.09-7.79-4.25-2.7-8.71-5.05-13.21-7.29-16.73-8.34-34.21-15.27-51.67-21.89-1.2,8.84-2.39,17.68-3.59,26.52,17.16,1.64,34.34,3.16,51.55,4.13,9.21.52,18.66,1.23,27.88.42,3.82-.34,8.19-.7,11.53-2.87,8.06-5.25,9.27-15.8,2.49-22.67-3.03-3.07-7.47-4.58-11.43-5.93s-8-2.41-12.05-3.43c-16.62-4.17-33.49-7.38-50.33-10.53-1.2,8.84-2.39,17.68-3.59,26.52,20.26.33,40.54.41,60.79-.48,12.25-.54,24.99-1.06,36.97-3.89,4.45-1.05,8.96-2.76,12.31-5.98,6.2-5.95,6.03-15.64.22-21.75-3.26-3.42-7.61-5.18-11.92-6.83s-8.9-2.83-13.43-3.91c-18.88-4.49-38.21-7.21-57.42-9.8v26.04c20.55-2.99,41.12-6.36,61.31-11.3,6.36-1.56,12.71-3.27,18.89-5.45,4.74-1.67,9.7-3.45,13.95-6.2,5.43-3.51,10.39-8.85,10.26-15.78-.12-6.5-3.84-12.18-9.59-15.17-4.27-2.22-8.86-3.47-13.58-4.28-7-1.2-14.09-1.91-21.18-2.33-22.91-1.38-45.98-.54-68.88.64,1.2,8.84,2.39,17.68,3.59,26.52,16.37-4.81,32.76-9.68,48.84-15.39,5.44-1.93,10.83-4.02,16.11-6.37,3.33-1.48,6.7-3.22,9.33-5.81,5.69-5.61,6.72-15.48.41-21.16-4.19-3.78-9.02-4.67-14.47-5.05-9.72-.67-19.7.54-29.36,1.46-20.63,1.96-41.2,4.64-61.74,7.38,2.27,8.39,4.54,16.77,6.81,25.16,15.56-7.1,31.05-14.48,45.96-22.87,8.78-4.94,18.31-10.29,25.44-17.53,3.77-3.82,6.77-8.62,6.84-14.15.1-7.56-5.05-13.23-11.87-15.6-8.77-3.04-19.76-.74-28.53.71-18.59,3.08-36.88,8.16-54.97,13.36,3.47,8.22,6.94,16.45,10.4,24.67,15.02-11.16,30.08-22.58,43.62-35.54,4.11-3.94,7.97-8.06,11.45-12.56,2.84-3.68,5.44-7.5,6.62-12.09,1.89-7.33-.75-15.11-7.32-19.15-3.89-2.39-8.72-3.16-13.22-2.77-11.4.99-22.24,5.09-32.73,9.43-20.75,8.58-40.76,18.76-60.45,29.52l16.36,21.2c11.01-8.94,21.99-17.95,32.55-27.41,5.39-4.83,11.44-9.89,15.32-16.1,4.23-6.76,2.61-16.11-4.51-20.28-4.12-2.41-9.2-2.43-13.57-.76-7.92,3.03-15.22,7.52-22.43,11.93-14.24,8.72-28.14,18-41.97,27.34,5.45,7.07,10.91,14.14,16.36,21.2,10.39-10.65,20.71-21.39,30.55-32.56,5.69-6.46,11.85-13.12,16.22-20.58,2.47-4.21,3.99-9.05,2.66-13.93-2.15-7.93-10.64-12.11-18.33-9.91-6.88,1.97-13.02,6.74-18.68,10.9-13.61,10-26.65,20.8-39.55,31.69l21.2,16.36c8.99-12.65,17.84-25.51,25.47-39.04,2.86-5.06,5.38-10.23,7.59-15.61,1.5-3.63,2.55-7.3,2.74-11.26.28-5.82-2.52-12.14-7.83-14.97-4.53-2.41-9.79-2.73-14.58-.88-9.48,3.66-17.35,10.73-24.78,17.48-13.29,12.06-25.51,25.33-37.43,38.73l21.2,16.36c5.94-11.62,11.68-23.33,16.67-35.4,2.71-6.56,5.89-14.19,4.11-21.41-1.91-7.73-10.2-12.69-17.92-10.52-3.85,1.08-6.58,3.14-9.59,5.7-5.77,4.91-10.54,11.16-15.23,17.05-10.63,13.34-20.68,27.14-30.54,41.06l24.67,10.4c3.19-9.81,6.22-19.82,7.79-30.04,1.22-7.96,2.5-17.06-1.66-24.46-2.27-4.05-5.9-6.87-10.35-8.17-4.74-1.38-9.78-.06-13.99,2.19-6.83,3.65-11.9,10.43-16.5,16.43-7.43,9.71-13.68,20.3-19.58,30.99,8.22,3.47,16.45,6.94,24.67,10.4,1.86-13.58,3.66-27.18,4.8-40.83.59-7.05,1.3-14.34.55-21.4-.4-3.78-.83-7.44-2.9-10.74-4.25-6.79-12.99-9.24-20.03-5.18s-9.69,12.33-12.46,19.09c-4.81,11.71-8.49,23.9-12.14,36.01,8.84,1.2,17.68,2.39,26.52,3.59.18-13.03.19-26.11-.78-39.12-.62-8.35-1.17-17.25-4.9-24.9C355.33,3.62,350.01.1,344.26,0s-10.73,3.51-13.83,8.29c-3.83,5.89-5.46,13.71-6.95,20.48-3.34,15.16-5.33,30.64-7.2,46.03,8.84-1.2,17.68-2.39,26.52-3.59-1.51-11.11-3.12-22.26-5.56-33.21-1.3-5.85-2.75-12.75-6.21-17.74-3.85-5.53-10.07-9.05-16.98-7.11-5.87,1.65-9.05,6.3-11.09,11.64-.82,2.14-1.26,4.41-1.64,6.67-.77,4.66-1.32,9.37-1.72,14.08-1.13,13.35-1.32,26.78-1.37,40.17,8.84-1.2,17.68-2.39,26.52-3.59-4.42-11.32-9.11-22.68-15.06-33.3-3.41-6.09-7.38-12.66-12.85-17.11-3.91-3.18-8.18-5.57-13.39-5.56-4.75,0-9.13,2.05-12.39,5.44-5.69,5.91-6.71,14.95-7,22.73-.47,12.6,1.46,25.37,3.41,37.77,8.22-3.47,16.45-6.94,24.67-10.4-7.16-11.98-14.53-23.87-22.6-35.26-5.19-7.32-10.56-15.21-17.36-21.17-3.18-2.79-6.35-5.09-10.45-6.3-6.81-2-14.02,1.08-17.73,6.98-4.46,7.09-2.58,16.7-.96,24.32,2.86,13.48,7.63,26.6,12.37,39.5l22.56-13.13c-9.32-9.51-18.88-18.93-29.4-27.12-7.19-5.6-15.48-12.24-25.05-12.53-10.65-.32-18.43,8.95-17.63,19.3.72,9.4,4.57,18.09,8.52,26.53,6.29,13.44,13.96,26.25,21.83,38.82,6.16-6.16,12.31-12.31,18.47-18.47-12.58-6.58-25.4-12.7-38.61-17.92-8.84-3.5-17.78-6.38-27.26-7.44-8.3-.93-16.89,1.59-21.38,9.09-4.77,7.98-1.18,17.76,3.7,24.69,7.37,10.45,16.8,19.26,26.39,27.63,5.45-7.07,10.91-14.14,16.36-21.2-16.98-8.1-34.09-15.92-51.49-23.06-9.67-3.96-19.58-8.11-29.83-10.36-4.62-1.02-9.37-1.75-14.05-.66-7.02,1.63-11.69,7.74-11.89,14.86-.26,9.28,8.57,16.78,14.99,22.22,13.77,11.67,28.8,21.93,43.76,31.98,3.47-8.22,6.94-16.45,10.4-24.67-15.96-4.14-32.03-8.12-48.31-10.86-9.59-1.61-20.5-3.88-30.21-1.52-5.88,1.43-10.49,5.64-12.22,11.46-1.84,6.2,1.16,12.33,5.34,16.74,2.92,3.08,6.6,5.54,10.15,7.85,4.24,2.75,8.67,5.21,13.14,7.56,16.87,8.9,34.46,16.44,52.03,23.83,1.2-8.84,2.39-17.68,3.59-26.52-16.93-.66-33.91-1.06-50.85-.53-10.85.34-22.15.78-32.74,3.36-4.43,1.08-8.91,2.84-12.28,6.01-4.47,4.19-6.1,10.2-4.56,16.1,2.6,9.97,14.49,14.39,23,17.64,15.06,5.76,30.98,9.44,46.67,13.04,1.2-8.84,2.39-17.68,3.59-26.52-22.87,1.39-45.75,3.46-68.37,7.2-13.43,2.22-27.16,4.92-39.51,10.9-4.56,2.21-9.05,5.48-11.67,9.91-3.43,5.8-3.45,12.83.05,18.6,2.74,4.52,7.33,7.8,12.06,9.98,5.86,2.7,11.92,4.71,18.17,6.28,22.22,5.57,45.4,7.8,68.18,9.72-1.2-8.84-2.39-17.68-3.59-26.52-18.88,6.45-37.77,13.28-55.8,21.86-4.98,2.37-9.95,4.9-14.54,7.98s-8.86,6.36-11.73,10.99c-3.4,5.5-3.82,12.56-.45,18.2,3,5.02,8.25,7.87,13.69,9.5,5.05,1.52,10.48,2,15.72,2.39,6.26.46,12.56.47,18.83.33,21.85-.5,43.67-2.85,65.35-5.52-2.27-8.39-4.54-16.77-6.81-25.16-15.8,9.19-31.45,18.8-46.08,29.78-9.55,7.16-19.88,14.83-26.35,25.11-2.98,4.74-4.77,10.86-3.24,16.42,1.78,6.45,6.58,10.78,12.82,12.84,4.12,1.36,8.8,1.52,13.11,1.23,6.48-.43,12.95-1.57,19.28-2.99,20.69-4.63,40.81-11.99,60.57-19.57-4.38-7.52-8.76-15.04-13.13-22.56-10.68,11.21-21.4,22.48-30.88,34.74-6.19,8.01-13.21,17.98-7.61,28.32,5.54,10.23,18.31,8.19,27.3,4.97,11.46-4.11,22.52-9.52,33.48-14.79,17.86-8.6,35.59-17.48,53.43-26.13-6.16-6.16-12.31-12.31-18.47-18.47-7.68,11.9-15.03,24.09-21.1,36.89-4.54,9.58-8.73,19.43-9.67,30.09-.92,10.46,5.36,20.46,16.15,21.91,9.4,1.26,18.45-3.57,26.07-8.59,14.51-9.56,27.49-21.58,39.93-33.63-7.52-4.38-15.04-8.76-22.56-13.13-1.71,8.74-3.16,17.52-4.24,26.37-.66,5.4-1.18,10.86-1.03,16.31.29,10.62,3.38,22.66,14.83,26.19,9.81,3.02,18.8-2.95,26-8.87,7.82-6.43,14.5-14.3,20.99-22.02,11.04-13.13,21.46-26.79,31.89-40.41-8.39-2.27-16.77-4.54-25.16-6.81-1.45,11.55-2.81,23.13-3.64,34.75-.48,6.77-.98,13.66.25,20.38.77,4.22,3.32,8.1,7.06,10.27,7.16,4.15,15.44.97,19.65-5.59,3.12-4.86,4.71-11.19,6.26-16.71,3.45-12.27,6.16-24.77,8.79-37.24h-26.04c1.52,10.68,3.12,21.49,6.07,31.89,1.97,6.96,4.79,15.28,11.6,18.96,6.11,3.3,13.47,2.23,18.4-2.66,2.82-2.79,4.41-6.5,5.65-10.19,2.63-7.85,3.3-16.52,4.08-24.7,1.35-14.17,1.72-28.44,1.82-42.66h-27c.72,6.91,1.46,13.81,2.28,20.71.61,5.15.36,11.75,4.71,15.44s9.42,5.04,14.75,2.79,7.92-6.84,8.3-12.34c.08-1.12-.29-2.41-.43-3.51-.56-4.24-1.14-8.47-1.76-12.7-1.77-12.17-3.75-24.32-5.83-36.44-.48-2.79-2.71-5.37-4.84-7.01-2.28-1.76-5.22-3.03-8.18-2.9-5.69.25-11.77,3.97-13.02,9.91-.96,4.58-1.9,9.18-2.71,13.79-.43,2.43-1.15,5.35-1.14,7.74.04,7.71,6.18,12.95,13.5,13.5h0c5.97.45,11.38-4.53,13.02-9.91.67-2.2.68-4.66.94-6.95.38-3.27.65-6.56.84-9.85.67-11.03.53-22.11-.36-33.12-.36-4.38-1.79-7.87-5.32-10.6-3.17-2.45-7.81-3.87-11.77-2.42-7.72,2.83-14.34,7.69-21.86,10.88l3.22-1.36c-1.29.53-2.61,1.01-4,1.2l3.59-.48c-.44.05-.87.06-1.31.02l3.59.48c-.27-.04-.53-.1-.79-.2l3.22,1.36c-1.69-.73,2.65,2.33,1.91,1.57-.03-.03,2.35,3.73,1.54,1.83l1.36,3.22c-.11-.32-.19-.63-.25-.96l.48,3.59c-.11-.9-.06-1.8.06-2.7l-.48,3.59c.58-3.93,2.11-7.7,3.63-11.34l-1.36,3.22c.79-1.86,1.62-3.71,2.47-5.54,1.57-3.36,2.38-6.7,1.36-10.4-.86-3.13-3.28-6.53-6.2-8.07-6.85-3.62-14.2-1.39-18.47,4.84-.34.5-.69,1-1.03,1.5-.09.13-.18.25-.27.38,1.09-1.64,2.55-3.41,4.6-4.54,6.16,1.61,12.31,3.23,18.47,4.84h0c.45,3.46.91,6.93,1.36,10.39,0-.04.02-.08.04-.12l-1.36,3.22c2.42-5.54,5.16-10.9,7.46-16.51,1.89-4.63,3.58-9.34,5.04-14.12,1.3-4.26,2.54-8.42,1.39-12.91-.68-2.65-1.89-5.29-3.01-7.75-3.4-7.49-8.83-14.33-14.76-19.99-5.75-5.5-12.74-10.89-20.55-13.06-5-1.39-10.93-1.28-15.46,1.55-5.84,3.65-8.45,9.55-8.79,16.24l13.5-13.5c-7.39-.33-14.78-.22-22.13.7-5.88.73-11.82,1.56-17.35,3.78s-10.99,4.95-13.79,10.33c-4.18,8.04-1.46,16.81,5.89,21.77,5.04,3.39,11.79,4.11,17.66,4.44v-27c-13.18.41-26.44.12-39.53-1.6l3.59.48c-5.78-.78-11.89-1.63-17.32-3.88l3.22,1.36c-.53-.23-1.02-.52-1.54-.77-1.46-.71,3.19,2.78,2.2,1.72s2.27,3.32,1.78,2.3l1.36,3.22s-.03-.08-.04-.12l.48,3.59c0-.06,0-.11,0-.17l-.48,3.59s.02-.08.04-.11l-1.36,3.22c-1.1,1.92-1.73,2.36-3.24,3.54-2.22,1.72-1.64,1.14-1.05.88l-3.22,1.36c.43-.17.89-.25,1.35-.32l-3.59.48c3.64-.44,7.46.11,11.07.59l-3.59-.48c3.24.44,6.45,1,9.66,1.63,1.2-8.84,2.39-17.68,3.59-26.52-11.73-.04-23.47.09-35.17.87-7.31.49-15.04.86-22.1,2.93-3.35.98-6.59,2.45-9.06,4.99-5.51,5.65-5.44,14.74.08,20.37,4.42,4.51,11.24,6.01,17.22,7.15,12.21,2.34,24.68,3.51,37.06,4.54-1.2-8.84-2.39-17.68-3.59-26.52-10.99,2.3-21.99,4.77-32.71,8.12-6.99,2.19-14.86,4.55-20.36,9.65-4.12,3.82-6.11,9.6-4.64,15.12s5.94,9.09,11.19,10.96c6.03,2.14,13.26,2.03,19.6,1.97,12.85-.11,25.7-1.38,38.46-2.82-1.2-8.84-2.39-17.68-3.59-26.52-8.37,2.92-16.76,5.85-24.98,9.19-5.57,2.27-12.04,4.35-15.86,9.3-5.1,6.59-3.45,16.29,3.89,20.55,2.92,1.69,6.33,2.19,9.65,2.08,6.62-.22,13.27-1.49,19.8-2.56,11.53-1.88,23.01-4.06,34.49-6.24-3.47-8.22-6.94-16.45-10.4-24.67-7.17,3.62-14.23,7.58-20.64,12.46-5,3.8-10.42,7.98-13.38,13.7-4.14,7.99-2.8,17.99,5.55,22.75,5.98,3.42,13.22,2.68,19.63,1.13,8.84-2.14,17.33-6.25,25.37-10.42,6.28-3.25,8.66-12.56,4.84-18.47-4.13-6.4-11.75-8.32-18.47-4.84-3.49,1.81-7.03,3.52-10.65,5.07l3.22-1.36c-4.75,2-9.68,3.87-14.8,4.63l3.59-.48c-1.35.18-2.71.28-4.07.12l3.59.48c-.52-.08-1.02-.19-1.51-.38l3.22,1.36c-1.34-.59-1.42-1.58,1.82,1.56-1.27-1.23,2.32,3.56,1.56,1.98l1.36,3.22c-.08-.2-.13-.4-.17-.61l.48,3.59c-.03-.3-.02-.58.02-.88l-.48,3.59c.08-.42.2-.81.36-1.21l-1.36,3.22c.29-.67.68-1.25,1.06-1.87,1.24-2.01-2.37,2.81-1.11,1.43.34-.37.65-.75.99-1.11.79-.84,1.63-1.64,2.5-2.4.49-.44,1-.86,1.51-1.28,2.41-1.97-2.42,1.78-.6.44,6.34-4.68,13.17-8.57,20.19-12.12,6-3.02,7.98-11.04,5.52-16.86-2.74-6.48-9.22-9.09-15.93-7.82-14.39,2.73-28.8,5.61-43.32,7.57l3.59-.48c-3.05.41-6.36,1.04-9.45.69l3.59.48c-.24-.03-.47-.08-.7-.16l3.22,1.36c1.25.56,3.74,3.08,4.52,4.58l1.36,3.22s-.02-.06-.02-.09l.48,3.59v-.05c-.16,1.2-.32,2.39-.48,3.59,0-.04.01-.07.03-.11l-1.36,3.22c-.57,1.32-2.54,3.22-4.09,4.07.48-.26.93-.59,1.41-.86,1.62-.88,3.32-1.6,5.01-2.32l-3.22,1.36c8.78-3.68,17.8-6.8,26.79-9.94,6.4-2.23,10.6-7.89,9.67-14.81-.81-6.02-6.58-12.46-13.26-11.71-10.5,1.19-21.03,2.2-31.58,2.64-6.24.26-12.61.47-18.82-.37l3.59.48c-1.43-.2-2.88-.45-4.22-1l3.22,1.36c-.3-.13-.59-.37-.9-.49,1.57.61,3.79,3.25,4.22,4.13l1.36,3.22c-.03-.09-.06-.17-.08-.26l.48,3.59c-.02-.12-.02-.24,0-.36l-.48,3.59c.03-.13.06-.25.12-.38l-1.36,3.22c.87-1.79-2.83,3.28-1.36,1.76s-3.66,2.52-1.23.99c1.39-.88,2.9-1.56,4.41-2.2l-3.22,1.36c13.17-5.49,27.6-8.34,41.51-11.25,6.57-1.37,10.51-8.57,9.67-14.81-.94-6.97-6.47-11.14-13.26-11.71-7.83-.65-15.66-1.41-23.45-2.46l3.59.48c-6.34-.87-13.22-1.56-19.2-4.02l3.22,1.36c-.5-.21-.97-.55-1.47-.75-1.06-.43,3.05,2.55,2.2,1.68-.56-.58,2.37,3.54,1.79,2.27l1.36,3.22c-.03-.08-.05-.15-.06-.23l.48,3.59s0-.1,0-.15l-.48,3.59c.01-.08.03-.15.05-.22l-1.36,3.22c.47-1.05,2.34-1.91-1.87,2.37,1.08-1.1-3.58,2.29-2.31,1.75.36-.15.7-.4,1.07-.55l-3.22,1.36c2.71-1.1,5.73-1.49,8.6-1.88l-3.59.48c15.39-2.05,31.13-2.01,46.63-1.96,6.73.02,12.38-5.15,13.26-11.71.83-6.19-3.06-13.53-9.67-14.81-7.16-1.39-14.59-2.84-21.91-2.83-2.43,0-4.91.24-7.25.89-7.41,2.05-12.15,9.84-10.12,17.36,1.98,7.3,8.91,10.51,15.55,12.39,7.02,1.99,14.42,2.88,21.66,3.65,11.65,1.24,23.41,1.43,35.11,1.07,7.05-.22,13.83-6.05,13.5-13.5s-5.93-13.07-13.5-13.5c-1.22-.07-2.44-.17-3.65-.33l3.59.48c-1.9-.26-3.8-.63-5.58-1.37l3.22,1.36c-1.87-.83-1.97-1.89.89,1.03-1.61-1.64,2.04,3.57,1.16,1.49l1.36,3.22c-.05-.14-.09-.27-.12-.42l.48,3.59c-.03-.19-.03-.38-.02-.57l-.48,3.59c.03-.26.1-.49.2-.73l-1.36,3.22c.87-1.91-.3.72-1.37,1.61,1.33-1.11,1.95-.96-1.46.99,1.15-.66,2.22-1.35,3.45-1.89l-3.22,1.36c4.38-1.84,9.1-2.76,13.79-3.4l-3.59.48c7.44-.96,14.94-1.07,22.43-.73s13.14-6.47,13.5-13.5c.02-.35.05-.7.09-1.05l-.48,3.59c.1-.6.24-1.16.47-1.72l-1.36,3.22c.09-.19.18-.4.3-.57.64-.9-2.66,3.13-1.59,2.07.57-.56-3.59,2.28-1.59,1.33l-3.22,1.36c.38-.15.76-.25,1.17-.32l-3.59.48c.65-.08,1.27-.06,1.92.02l-3.59-.48c1.24.19,2.42.57,3.58,1.05l-3.22-1.36c2.35,1.01,4.54,2.36,6.6,3.86.33.24.65.52.99.74.01,0-2.85-2.28-1.54-1.17.6.51,1.21,1,1.8,1.52,1.22,1.07,2.4,2.2,3.54,3.36s2.17,2.3,3.19,3.51c.42.49,2.34,2.93.71.82s.24.36.61.89c1.86,2.66,3.49,5.49,4.77,8.47l-1.36-3.22c.58,1.4,1.07,2.82,1.46,4.28v-7.18c-1.95,7.18-4.38,14.22-7.27,21.08l1.36-3.22c-1.32,3.1-2.72,6.17-4.21,9.19-.35.71-.71,1.41-1.06,2.13-.55,1.16-1.17,2.32-1.5,3.54-.83,3.02-.64,7.84,1.35,10.47,2.11,2.79,4.46,5.38,8.07,6.2s7.13.44,10.4-1.36c2.87-1.58,4.59-4.41,6.39-7.03l-23.31-13.63c-2.87,6.17-6.1,12.68-7.35,19.44-1.46,7.85-.27,16.28,7.2,20.77,9.11,5.49,19.35.06,27.51-4.49,3.33-1.85,6.61-3.83,10.12-5.33l-3.22,1.36c.4-.17.8-.33,1.21-.47-5.7-4.34-11.39-8.68-17.09-13.02,1.21,14.9,1.26,30.14-.73,44.99l.48-3.59c-.06.44-.08.93-.21,1.35l13.02-9.91h0c4.5,4.5,9,9,13.5,13.5,0-.11.02-.22.04-.33l-.48,3.59c.81-5.91,2.11-11.78,3.33-17.61h-26.04c2.55,14.88,4.99,29.78,7,44.75l-.48-3.59c.18,1.34.63,2.94.54,4.31l23.05-9.55h0c1.16,1.98,2.31,3.97,3.47,5.96-.08-.29-.09-.61-.13-.9l.48,3.59c-1.14-8.54-2.01-17.13-2.9-25.7-.38-3.68-1.25-6.84-3.95-9.55-2.34-2.34-6.18-4.1-9.55-3.95-7.36.33-13.45,5.93-13.5,13.5-.12,16.8-.49,33.73-2.69,50.41l.48-3.59c-.67,4.99-1.37,10.22-3.29,14.92l1.36-3.22c-.31.72-.72,1.35-1.07,2.04-.04.07,2.92-3.37,1.48-1.99-.9.87,3.8-2.44,2.03-1.64l3.22-1.36c-.13.05-.27.09-.41.11l3.59-.48c-.14.01-.27.01-.41,0l3.59.48c-.15-.03-.28-.07-.42-.12l3.22,1.36c-1.89-.87,3.13,2.73,1.88,1.51-1.72-1.67,2.18,3.33,1.23,1.66-.57-1.01-1.12-1.98-1.58-3.05l1.36,3.22c-1.87-4.52-3-9.34-4.04-14.11-1.72-7.92-2.98-15.93-4.12-23.95-.39-2.77-2.77-5.41-4.84-7.01-2.28-1.76-5.22-3.03-8.18-2.9-5.7.26-11.76,3.97-13.02,9.91-2.21,10.5-4.52,20.99-7.21,31.38-1.47,5.66-2.92,11.46-5.2,16.86l1.36-3.22c-.31.73-.68,1.42-1.05,2.12-.97,1.86,2.02-2.44,1.58-2-1.2,1.23,3.59-2.37,2.26-1.74l3.22-1.36s-.08.03-.12.04l3.59-.48c-.06,0-.11,0-.18,0l3.59.48s-.08-.02-.11-.04l3.22,1.36c1.82,1.02,3.37,2.64,4.54,4.55-.07-.11-.12-.23-.18-.34l1.36,3.22c-.22-.56-.32-1.16-.4-1.75l.48,3.59c-.74-5.71-.11-11.7.31-17.41.84-11.35,2.16-22.66,3.58-33.95l-.48-3.59c-.42-1.76-1.22-3.29-2.42-4.59-1.72-2.23-4.19-4.19-7.01-4.84-2.37-.54-4.8-.54-7.18,0-3.63.83-5.94,3.42-8.07,6.2-2.41,3.15-4.83,6.29-7.24,9.43,2.66-3.45.67-.87.03-.04-.55.71-1.1,1.42-1.65,2.12-1.21,1.56-2.43,3.12-3.65,4.67-4.21,5.37-8.47,10.71-12.82,15.96-6.71,8.1-13.58,16.27-21.48,23.25-.77.68-1.56,1.34-2.36,1.99-1.86,1.53,3.15-2.32,1.23-.95-.36.26-.72.53-1.08.78-1.36.95-2.78,1.81-4.3,2.47l3.22-1.36c-.92.38-1.85.69-2.84.82l3.59-.48c-.56.06-1.1.07-1.66,0l3.59.48c-.41-.07-.8-.17-1.19-.33l3.22,1.36c-.31-.14-.57-.36-.87-.49,1.69.76,3.13,2.8,1.83,1.29-.32-.37,2.41,3.75,1.37,1.71-.22-.42-.45-.83-.64-1.27l1.36,3.22c-.62-1.52-.96-3.12-1.19-4.74l.48,3.59c-1.04-7.74-.05-15.77.97-23.45l-.48,3.59c.93-6.83,2.13-13.63,3.45-20.39,1.12-5.71-.68-12.33-6.2-15.25s-11.91-2.2-16.36,2.11c-8.88,8.6-18,16.95-27.7,24.63-2.11,1.67,2.06-1.56.92-.71-.52.38-1.03.78-1.54,1.16-.84.63-1.69,1.25-2.55,1.86-1.61,1.15-3.24,2.26-4.91,3.32-2.68,1.71-5.45,3.29-8.37,4.54l3.22-1.36c-1.69.71-3.43,1.3-5.25,1.57l3.59-.48c-.84.11-1.68.14-2.52.02l3.59.48c-.49-.08-.96-.2-1.41-.39l3.22,1.36c-.26-.12-.5-.25-.73-.4.36.23,3.31,2.95,1.99,1.48-.98-1.09,2.07,3.4,1.55,2-.11-.3-.32-.58-.44-.87l1.36,3.22c-.25-.63-.41-1.29-.51-1.96l.48,3.59c-.21-1.57-.12-3.15.07-4.72l-.48,3.59c.76-5.59,2.81-10.99,4.99-16.16l-1.36,3.22c6.4-15.07,14.96-29.22,23.82-42.95,3.11-4.82,2.14-12.46-2.11-16.36-4.67-4.29-10.74-4.84-16.36-2.11-21.34,10.36-42.48,21.13-63.99,31.15-4.12,1.92-8.25,3.79-12.43,5.56l3.22-1.36c-4.84,2.03-9.95,4.33-15.2,5.04l3.59-.48c-.77.1-1.55.15-2.32.05l3.59.48c-.29-.04-.57-.11-.84-.22l3.22,1.36c-1.83-.78,2.93,2.55,2.07,1.7-1.14-1.14,2.44,3.8,1.7,2.13l1.36,3.22c-.07-.18-.11-.35-.14-.54l.48,3.59c-.03-.29-.02-.58,0-.87l-.48,3.59c.1-.74.35-1.44.63-2.13l-1.36,3.22c.96-2.23,2.33-4.28,3.73-6.26.44-.63.9-1.25,1.36-1.86.28-.38.57-.75.86-1.13-1.74,2.24-2.21,2.86-1.43,1.85.16-.2.32-.4.48-.61,1.28-1.62,2.59-3.21,3.92-4.79,7.95-9.45,16.45-18.45,24.97-27.39,3.99-4.19,5.39-11.28,2.11-16.36-1.26-1.95-2.89-3.58-4.84-4.84-2.61-1.68-7.44-2.5-10.4-1.36-14.1,5.41-28.33,10.54-42.81,14.86-9.43,2.81-19.02,5.41-28.79,6.74l3.59-.48c-3.76.49-7.63.86-11.41.36l3.59.48c-1.1-.16-2.19-.39-3.23-.82l3.22,1.36c-.3-.13-.58-.31-.88-.44-1.79-.76,2.77,2.33,1.91,1.51-1.47-1.39,1.47,2.01,1.52,2.08-.16-.23-.3-.47-.41-.73l1.36,3.22c-.12-.31-.2-.61-.26-.94l.48,3.59c-.06-.44-.05-.88,0-1.32l-.48,3.59c.1-.74.32-1.44.6-2.13l-1.36,3.22c.46-1.09,1.06-2.12,1.72-3.1.2-.3.41-.58.62-.87,1.19-1.72-2.21,2.76-1.34,1.72.54-.64,1.05-1.29,1.61-1.91,2.73-3.08,5.79-5.87,8.92-8.54,1.92-1.63,3.88-3.21,5.86-4.76,1.47-1.15-3.22,2.46-.62.49.53-.4,1.06-.8,1.6-1.2,1.33-.99,2.67-1.97,4.01-2.94,5.6-4.03,11.34-7.87,17.14-11.6,8.05-5.17,16.25-10.12,24.52-14.94,4.97-2.89,8.03-9.61,6.2-15.25-.72-2.23-1.89-4.23-3.47-5.96-2.02-2.2-6.49-4.33-9.55-3.95-25.35,3.13-51.11,6.14-76.69,5.54-4.27-.1-8.54-.33-12.77-.88l3.59.48c-3.01-.41-6.06-.94-8.88-2.1l3.22,1.36c-.46-.19-.91-.4-1.34-.65-1.58-.89-1.18-1.82,1.54,1.31-.22-.25-.53-.56-.78-.78,3.27,2.76,2.19,3.3,1.55,1.79l1.36,3.22c-.1-.26-.17-.51-.21-.79l.48,3.59c-.03-.28-.03-.55,0-.83l-.48,3.59c.06-.44.19-.86.36-1.27l-1.36,3.22c.15-.33.33-.63.51-.95,1.19-2.16-2.56,2.98-1.27,1.59.63-.68,1.25-1.36,1.95-1.98.44-.39.91-.75,1.36-1.13-4.24,3.61-2.05,1.56-.92.76,1.2-.85,2.45-1.64,3.71-2.41,7.41-4.49,15.4-8.04,23.38-11.41l-3.22,1.36c13.47-5.67,27.23-10.63,41.05-15.35,6.41-2.19,10.6-7.93,9.67-14.81-.94-6.97-6.47-11.13-13.26-11.71-11.13-.94-22.24-2.07-33.31-3.56l3.59.48c-14.97-2.03-30.83-4.12-44.88-10.01l3.22,1.36c-2.08-.89-4.02-1.93-5.92-3.17-1.47-.96,3.17,2.62,2.01,1.57-.14-.13-.3-.23-.43-.36-.27-.26-.54-.53-.81-.79-.13-.12-.22-.32-.37-.43-.05-.04,2.22,3.36,1.76,2.24-.12-.29-.34-.56-.47-.86l1.36,3.22c-.15-.36-.25-.72-.31-1.11l.48,3.59c-.04-.33-.04-.65,0-.98l-.48,3.59c.06-.38.16-.75.31-1.11l-1.36,3.22c.13-.3.32-.57.46-.86.21-.46,1.42-1.87-.7.88-1.97,2.56-1.07,1.26-.64.88.3-.27.59-.57.88-.85,1.62-1.6-3.41,2.43-1.58,1.2,1.94-1.29,3.97-2.35,6.11-3.27l-3.22,1.36c14.55-6.12,30.96-8.32,46.48-10.43l-3.59.48c17.43-2.34,34.96-3.81,52.51-4.88,6.75-.41,12.33-4.82,13.26-11.71.85-6.35-3.09-13.3-9.67-14.81-16.76-3.84-34.01-7.66-49.92-14.34l3.22,1.36c-2.37-1.01-4.74-2.09-6.9-3.5-.37-.24-.71-.51-1.07-.75,4.26,2.84,2.68,2.08,1.6,1.15-.99-.86-1.62-2.8,1.4,1.92-.16-.26-.33-.5-.45-.78l1.36,3.22c-.08-.21-.15-.42-.18-.64l.48,3.59c-.03-.21-.03-.41,0-.62l-.48,3.59c.03-.17.08-.34.14-.5l-1.36,3.22c.86-1.91-2.14,2.51-1.61,1.97,1.4-1.46-1.49,1.17-1.97,1.43.7-.38,1.34-.81,2.09-1.13l-3.22,1.36c3.62-1.49,7.62-2.08,11.48-2.6l-3.59.48c9.65-1.27,19.43-1.58,29.15-1.72,14.48-.21,28.97.14,43.43.7,6.71.26,12.4-5.34,13.26-11.71.39-2.88.02-6.09-1.6-8.61-2.04-3.16-4.63-4.76-8.07-6.2-.51-.22-1.03-.43-1.54-.65l3.22,1.36c-13.88-5.86-27.69-11.93-41.16-18.68-7.96-3.99-15.96-8.15-23.17-13.42-1.57-1.15,3.22,2.59,1.59,1.23-.28-.23-.56-.46-.83-.69-.48-.42-.95-.84-1.39-1.3-1.34-1.38-.99-2.1.99,1.43-.21-.38-.47-.7-.65-1.1l1.36,3.22c-.11-.27-.19-.54-.23-.82l.48,3.59c-.01-.16-.01-.31,0-.47l-.48,3.59c.02-.15.06-.29.12-.43l-1.36,3.22c.73-1.61-2.82,3.22-1.58,2.03.53-.51-3.6,2.68-2.29,1.8.15-.1.33-.18.5-.25l-3.22,1.36c.81-.33,1.67-.5,2.54-.62l-3.59.48c4.89-.61,9.97.07,14.82.71l-3.59-.48c18.63,2.51,37.01,7.19,55.19,11.91,6.54,1.7,13.31-1.63,15.93-7.82s.12-13.06-5.52-16.86c-10.41-7-20.76-14.13-30.76-21.71-.5-.38-1-.76-1.5-1.14-1.65-1.25,2.69,2.09,1.09.84-.9-.71-1.8-1.41-2.7-2.13-1.6-1.27-3.18-2.57-4.73-3.89-2.3-1.96-4.57-3.98-6.66-6.17-.44-.46-.87-.92-1.28-1.4-.2-.23-.38-.47-.58-.69-1.15-1.29,2.25,3.09,1.54,2-.48-.74-.99-1.41-1.34-2.23l1.36,3.22c-.13-.32-.23-.65-.28-.99l.48,3.59c-.02-.19-.02-.37,0-.55l-.48,3.59c.02-.14.06-.27.12-.4l-1.36,3.22c.72-1.48-2.88,3.37-1.74,2.24-.7.69-3.75,2.45-2.14,1.75l-3.22,1.36c.33-.13.67-.21,1.02-.26l-3.59.48c1.21-.16,2.43-.05,3.63.11l-3.59-.48c5.09.71,10.06,2.38,14.9,4.04,7.98,2.74,15.81,5.92,23.58,9.19l-3.22-1.36c14.4,6.09,28.61,12.65,42.72,19.39,6.14,2.93,13.09,2.13,17.42-3.48,3.86-5,4.03-13.29-1.06-17.73-6.45-5.63-12.79-11.45-18.53-17.82-1.05-1.16-2.07-2.34-3.06-3.55-.23-.28-.45-.56-.67-.84-1.16-1.42,2.09,2.77,1.23,1.6-.38-.52-.77-1.03-1.14-1.55-1.22-1.73-2.35-3.54-3.19-5.49l1.36,3.22c-.39-.95-.71-1.92-.85-2.94l.48,3.59c-.05-.47-.06-.92-.01-1.39l-.48,3.59c.05-.36.13-.7.26-1.04l-1.36,3.22c.99-2.29-2.84,2.91-1.24,1.48,1.11-.99-3.52,2.63-2.05,1.6.23-.16.5-.27.75-.38l-3.22,1.36c.67-.27,1.37-.43,2.08-.54l-3.59.48c1.96-.26,3.95-.12,5.91.13l-3.59-.48c9.78,1.34,19.28,5.19,28.32,8.99l-3.22-1.36c10.3,4.36,20.36,9.29,30.27,14.47,5.15,2.69,12.21,2.41,16.36-2.11s5.38-11.14,2.11-16.36c-8.85-14.13-17.6-28.59-24.13-43.97l1.36,3.22c-1.84-4.36-3.64-8.92-4.28-13.64l.48,3.59c-.14-1.1-.2-2.21-.07-3.31l-.48,3.59c.08-.52.2-1.03.4-1.52l-1.36,3.22c1-2.17-2.54,2.82-1.45,1.74s-3.9,2.42-1.79,1.47l-3.22,1.36c.3-.12.6-.2.92-.25l-3.59.48c.48-.06.96-.04,1.44.01l-3.59-.48c1.13.15,2.21.51,3.27.94l-3.22-1.36c2.45,1.03,4.73,2.43,6.93,3.92,1.41.95,2.76,1.96,4.12,2.97,1.68,1.24-2.82-2.21-1.24-.96.39.31.77.61,1.16.92.88.71,1.75,1.42,2.62,2.14,8.81,7.36,17.02,15.43,25.06,23.62,4.03,4.11,11.4,5.31,16.36,2.11s8.31-9.52,6.2-15.25c-3.31-9-6.48-18.06-9.2-27.27-1.71-5.8-3.32-11.69-4.14-17.69l.48,3.59c-.26-2.02-.46-4.08-.21-6.1l-.48,3.59c.08-.6.21-1.18.44-1.73l-1.36,3.22c.89-1.99-1.72,2.02-1.59,1.89,1.14-1.14-3.82,2.42-2.04,1.61l-3.22,1.36c.17-.07.34-.11.52-.14l-3.59.48c.24-.02.47-.02.71.01l-3.59-.48c.38.06.73.17,1.08.31l-3.22-1.36c.76.33,1.41.78,2.1,1.23,1.4.91-3.36-2.79-1.33-1,.48.43.96.85,1.43,1.3,2.32,2.22,4.42,4.68,6.44,7.17.62.76,1.22,1.53,1.82,2.3.51.65-2.3-3.02-.94-1.21.35.46.7.93,1.05,1.39,1.46,1.96,2.89,3.94,4.3,5.94,3.28,4.67,6.44,9.43,9.52,14.23,4.26,6.63,8.38,13.34,12.42,20.1,3.46,5.79,10.69,8.13,16.86,5.52,2.59-1.09,5.1-2.96,6.46-5.52,1.8-3.41,1.96-6.62,1.36-10.4-.38-2.45-.75-4.89-1.08-7.35l.48,3.59c-1.42-10.55-2.81-21.63-1.4-32.26l-.48,3.59c.27-1.94.66-3.87,1.4-5.69l-1.36,3.22c.83-1.91,2.37-2.67-.85.59.53-.54,1.58-1.35-.66.38s-1.2.86-.52.56l-3.22,1.36c.25-.09.5-.16.76-.21l-3.59.48c.33-.04.65-.04.98,0l-3.59-.48c.49.07.95.22,1.41.41l-3.22-1.36c.36.16.69.37,1.04.55.17.09.32.23.49.32,1.24.68-3-2.51-1.92-1.5.81.76,1.62,1.47,2.37,2.3.39.44.77.89,1.14,1.34,1.68,2-2.37-3.19-.57-.71.97,1.34,1.88,2.72,2.76,4.12,4.93,7.9,8.81,16.44,12.44,25l-1.36-3.22c1.3,3.1,2.56,6.21,3.78,9.34s2.98,6.36,6.2,8.07c2.73,1.44,5.54,2.01,8.61,1.6,6.58-.88,11.68-6.49,11.71-13.26.06-15.9.1-32.02,2.18-47.81l-.48,3.59c.44-3.22.88-6.58,2.1-9.61l-1.36,3.22c.19-.44.5-.86.67-1.29.33-.85-2.6,3.2-1.72,2.26s-3.74,2.46-2.25,1.78l-3.22,1.36c.08-.03.16-.05.25-.07l-3.59.48c.09,0,.16-.01.25,0l-3.59-.48c.12.02.23.05.34.09l-3.22-1.36c1.57.76-3.29-2.82-2.12-1.67,1.35,1.34-2.35-3.51-1.48-1.94.4.73.8,1.43,1.13,2.19l-1.36-3.22c2.13,5.07,3.23,10.62,4.31,15.99,1.95,9.65,3.39,19.4,4.71,29.16.4,2.97,3.65,6.72,6.2,8.07,2.73,1.44,5.54,2.01,8.61,1.6,2.83-.38,5.76-1.54,7.75-3.71,2.58-2.81,3.5-5.78,3.95-9.55.41-3.42.85-6.83,1.3-10.25l-.48,3.59c1.34-9.92,2.83-19.83,4.86-29.62,1.19-5.73,2.44-11.59,4.7-17.01l-1.36,3.22c.42-.99.92-1.88,1.45-2.82.99-1.77-2.86,3.27-1.34,1.77,1.29-1.28-3.75,2.35-1.95,1.56l-3.22,1.36c.12-.04.23-.07.36-.09l-3.59.48c.09,0,.17,0,.26,0l-3.59-.48c.12.02.23.05.35.09l-3.22-1.36c1.37.64-2.74-2.23-2.27-1.81,1.35,1.2-1.88-2.69-1.62-2.17.23.47.52.9.73,1.38l-1.36-3.22c1.18,2.88,1.64,6.07,2.06,9.13l-.48-3.59c2.12,15.78,1.88,31.94,1.66,47.82-.09,6.73,5.21,12.39,11.71,13.26s12.86-3.18,14.81-9.67c3.76-12.5,7.56-25.12,12.62-37.17l-1.36,3.22c.99-2.33,2.02-4.68,3.31-6.86.21-.36.44-.7.66-1.05,1.16-1.9-2.64,2.97-1.33,1.7.13-.13.55-.46.61-.62-.06.16-3.72,2.42-2.09,1.7l-3.22,1.36c.11-.04.22-.07.34-.09l-3.59.48c.08,0,.16,0,.24,0l-3.59-.48c.08.02.15.04.22.07l-3.22-1.36c-1.42-.69-3.22-2.65-4.31-4.38.13.21.24.41.34.63l-1.36-3.22c.37.9.53,1.87.66,2.83l-.48-3.59c.82,6.55.17,13.36-.34,19.91-.93,11.96-2.42,23.87-4.01,35.76l.48-3.59c-.15,1.15-.31,2.3-.47,3.45-.49,3.6-.73,7.16,1.36,10.4,1.62,2.51,3.7,4.36,6.46,5.52,6.01,2.54,13.59.4,16.86-5.52,5.64-10.23,11.6-20.38,18.62-29.73.16-.21.32-.42.48-.64.65-.85.21-.28-1.32,1.7.31-.39.62-.79.93-1.18.59-.73,1.19-1.46,1.8-2.18,1.15-1.34,2.34-2.65,3.6-3.89.49-.48,1-.96,1.52-1.41.24-.21.49-.4.73-.61,1.27-1.14-3.18,2.26-1.8,1.39.9-.57,1.73-1.18,2.72-1.61l-3.22,1.36c.47-.19.94-.34,1.44-.42l-3.59.48c.37-.05.73-.06,1.11,0l-3.59-.48c.24.04.47.11.7.2l-3.22-1.36c2.08.95-3.13-2.82-1.66-1.32,1.05,1.07-2.6-3.6-1.63-2.05.13.21.23.44.33.67l-1.36-3.22c.34.86.54,1.75.67,2.67l-.48-3.59c.4,3.2.09,6.47-.33,9.66l.48-3.59c-1.48,10.7-4.66,21.18-7.99,31.42-2.08,6.4,1.91,13.44,7.82,15.93,6.52,2.75,12.92.04,16.86-5.52,4.43-6.25,8.9-12.47,13.44-18.63,1.94-2.63,3.88-5.25,5.85-7.86.94-1.25,1.88-2.49,2.83-3.73.39-.51.78-1.02,1.17-1.53.29-.38,1.06-1.38-.29.37-1.48,1.92-.27.35.08-.09,5.09-6.53,10.24-13.17,16.14-19,.92-.91,1.89-1.74,2.85-2.6-3.54,3.16-2.21,1.37-.34.54l-3.22,1.36c.24-.1.47-.18.73-.22l-3.59.48c.14-.02.28-.02.42,0l-3.59-.48c.08.01.14.03.22.06l-3.22-1.36c.89.4-2.99-2.48-2.41-1.88.37.37-2.42-3.61-1.88-2.35l-1.36-3.22c.06.16.1.32.12.48l-.48-3.59c.08.56.04,1.13-.03,1.69l.48-3.59c-.63,4.66-2.71,9.22-4.51,13.51l1.36-3.22c-4.48,10.6-9.65,20.91-14.89,31.15-3.09,6.04-2.01,13.17,3.48,17.42,5.04,3.89,13.24,3.99,17.73-1.06,9.21-10.35,18.61-20.54,28.49-30.25,3.63-3.57,7.33-7.08,11.15-10.46,1.56-1.38,3.15-2.74,4.76-4.06.72-.59,1.45-1.16,2.17-1.74,1.43-1.14-2.99,2.26-1.55,1.2.38-.28.75-.57,1.13-.84,2.31-1.69,4.72-3.35,7.37-4.47l-3.22,1.36c.77-.32,1.56-.59,2.39-.71l-3.59.48c.33-.04.66-.05.99-.01l-3.59-.48c.21.03.41.08.61.16l-3.22-1.36c1.6.7-2.82-2.42-2.09-1.68.3.3-2.44-3.8-1.67-2.05l-1.36-3.22c.1.26.17.53.21.8l-.48-3.59c.09.67.05,1.33-.03,2l.48-3.59c-.36,2.58-1.33,5.07-2.33,7.45l1.36-3.22c-3.04,7.13-7.01,13.87-11.06,20.47-6.43,10.48-13.39,20.63-20.52,30.65-1.85,2.6-2.32,7.44-1.36,10.4s2.46,5.18,4.84,7.01c5.59,4.32,12.52,3.34,17.73-1.06,6.2-5.23,12.43-10.42,18.74-15.52,2.53-2.04,5.07-4.08,7.63-6.08.62-.49,1.25-.98,1.88-1.47,2.58-2.01-2.21,1.7-.48.37,1.06-.81,2.12-1.62,3.18-2.42,5.41-4.07,11.07-8.76,17.36-11.44l-3.22,1.36c.58-.24,1.16-.46,1.78-.54l-3.59.48c.18-.02.35-.02.52,0l-3.59-.48c.09.02.18.04.27.07l-3.22-1.36c-1.1-.55-3.87-3.26-4.51-4.51l-1.36-3.22c.03.08.06.17.07.26l-.48-3.59c.01.14.01.27,0,.4l.48-3.59c-.06.42-.2.82-.36,1.22l1.36-3.22c-.73,1.7-1.81,3.26-2.87,4.77-.37.53-.75,1.05-1.13,1.56-.23.3-.46.6-.68.91-1.25,1.67,2.2-2.8,1.16-1.5-1.1,1.38-2.2,2.76-3.33,4.12-6.4,7.71-13.21,15.09-20.07,22.39-5.46,5.81-11,11.56-16.57,17.26-4.72,4.83-5.16,12.41-1.06,17.73,3.87,5.01,11.81,7.26,17.42,3.48,17.46-11.79,34.96-23.88,53.43-34.07,2.35-1.3,4.73-2.57,7.21-3.62l-3.22,1.36c.91-.38,1.86-.77,2.84-.91l-3.59.48c.19-.02.38-.03.58,0l-3.59-.48c.08.01.16.04.23.07l-3.22-1.36c-1.46-.77-3.87-3.01-4.6-4.6l-1.36-3.22s.02.07.03.1l-.48-3.59c.01.08.01.16,0,.24l.48-3.59c-.02.16-.07.31-.13.46l1.36-3.22c-.22.51-.55.93-.84,1.4-.8,1.33,2.79-3.42,1.34-1.75-.33.38-.65.77-.99,1.15-1.78,1.99-3.71,3.85-5.65,5.69-6.6,6.25-13.54,12.15-20.5,17.99-5.77,4.84-11.59,9.62-17.44,14.37-2.42,1.96-4.09,6.52-3.95,9.55s1.02,5.75,2.9,8.18c4.15,5.37,11.45,6.74,17.42,3.48,18.01-9.85,36.31-19.33,55.23-27.33l-3.22,1.36c9.46-3.98,19.44-8.2,29.68-9.62l-3.59.48c1.73-.23,3.5-.37,5.24-.14l-3.59-.48c.64.09,1.27.24,1.87.49l-3.22-1.36c.19.08.39.17.56.29,1.29.88-3.26-2.76-2.18-1.69.94.93-2.34-3.84-1.43-1.75l-1.36-3.22c.1.25.16.5.2.77l-.48-3.59c.05.43.04.86-.02,1.29l.48-3.59c-.12.75-.35,1.47-.64,2.18l1.36-3.22c-.4.94-.9,1.84-1.44,2.72-.31.5-.64.99-.98,1.48-.18.26-.37.52-.56.78-1.25,1.74.89-1.18,1.23-1.57-2.24,2.62-4.45,5.22-6.87,7.68-7.41,7.51-15.53,14.33-23.74,20.93-1.55,1.24-3.1,2.48-4.66,3.71-.77.6-1.53,1.2-2.3,1.8-.29.23-.59.46-.88.68-1.83,1.42,1.96-1.51.64-.5-3.5,2.68-7.02,5.34-10.55,7.97-2.79,2.07-5.39,4.49-6.2,8.07-.69,3.02-.53,5.92.68,8.79,2.56,6.07,9.41,9.69,15.93,7.82,19.7-5.66,39.73-11.39,60.09-14.13l-3.59.48c4.49-.59,9.18-1.17,13.7-.57l-3.59-.48c.89.13,1.77.31,2.6.65l-3.22-1.36c1.63.71,1.22,1.47-1.63-1.45,1.43,1.47-2.24-3.55-1.48-1.9l-1.36-3.22c.07.18.12.36.15.55l-.48-3.59c.02.21.02.41,0,.61l.48-3.59c-.05.35-.15.69-.29,1.02l1.36-3.22c-.16.35-.36.67-.54,1.01-1.28,2.3,2.43-2.79,1.05-1.33-.89.94-1.77,1.86-2.75,2.71-.56.49-1.13.95-1.71,1.42-1.76,1.44,2.69-2.03,1.53-1.18-.39.29-.78.58-1.17.87-1.68,1.23-3.41,2.4-5.16,3.53-10.19,6.61-21.03,12.23-31.89,17.64-8.52,4.24-17.13,8.3-25.78,12.25-5.17,2.36-7.9,10.01-6.2,15.25.72,2.23,1.89,4.23,3.47,5.96,2,2.18,6.51,4.36,9.55,3.95,16.91-2.26,33.83-4.43,50.78-6.27,10.72-1.16,21.48-2.29,32.27-2.63,3.29-.1,6.63-.19,9.9.23l-3.59-.48c.83.11,1.66.26,2.44.57l-3.22-1.36c.69.29,1.6,1.1-.74-.71-1.1-.85-2.69-2.35-3.1-3.33l-1.36-3.22c.02.06.03.11.04.17l-.48-3.59c0,.08,0,.16,0,.24l.48-3.59c-.02.09-.04.17-.08.26l1.36-3.22c-.58,1.28,3.14-3.44,1.18-1.63-.87.81,3.76-2.59,1.82-1.44-.32.19-.63.4-.96.6-1.97,1.16-4.09,2.09-6.2,2.99l3.22-1.36c-7.45,3.14-15.14,5.72-22.81,8.23-12.35,4.05-24.8,7.79-37.26,11.46-6.47,1.9-10.56,8.16-9.67,14.81s6.52,12.05,13.26,11.71c23.31-1.2,46.8-2.07,70.12-.57,4.18.27,8.35.64,12.5,1.19l-3.59-.48c4.44.6,9.05,1.29,13.21,3.04l-3.22-1.36c.83.36,1.54.85,2.33,1.28-3.88-2.11-2.97-2.5-1.88-1.34.31.33-2.48-3.86-1.58-1.93l-1.36-3.22c.09.21.15.42.18.65l-.48-3.59c.02.19.02.38,0,.57l.48-3.59c-.04.24-.1.46-.19.68l1.36-3.22c-.11.25-.24.47-.38.7-.19.3,3.03-3.4,1.43-1.91-.27.25-.55.49-.81.74-.32.31,3.7-2.69,1.56-1.25-1.91,1.29-4.02,2.26-6.13,3.16l3.22-1.36c-7.25,3.05-14.92,5.13-22.54,7.03-11.86,2.95-23.88,5.29-35.92,7.38-8.87,1.54-17.76,2.94-26.66,4.23-2.77.4-5.41,2.76-7.01,4.84-1.76,2.28-3.03,5.22-2.9,8.18.11,2.4.72,4.69,1.84,6.81,1.35,2.55,5.1,5.8,8.07,6.2,21.22,2.86,42.86,5.63,63.54,11.36,2.93.81,5.85,1.71,8.66,2.88l-3.22-1.36c1.15.49,2.21,1.08,3.3,1.7,1.81,1.03-3.3-2.84-1.64-1.24,1.46,1.41-2.34-3.71-1.47-1.85l-1.36-3.22c.06.15.11.3.13.47l-.48-3.59c0,.1,0,.2,0,.31l.48-3.59c-.02.13-.05.25-.1.38l1.36-3.22c-.74,1.73,2.36-2.79,1.74-2.15-1.32,1.36,2.11-1.57,2.13-1.58-.57.3-1.08.65-1.67.91l3.22-1.36c-3.91,1.65-8.32,2.21-12.5,2.78l3.59-.48c-20.05,2.65-40.53,2.65-60.71,2.67-8.44,0-16.89-.07-25.33-.21-6.73-.11-12.39,5.22-13.26,11.71s3.05,13.57,9.67,14.81c14.47,2.71,28.94,5.51,43.29,8.84,7.35,1.7,14.99,3.29,21.98,6.2l-3.22-1.36c.72.31,1.39.66,2.07,1.03,1.84.99-2.91-2.47-2.04-1.61,1.23,1.22-2.4-3.66-1.73-2.24l-1.36-3.22c.02.05.04.1.05.16l-.48-3.59c0,.05,0,.1,0,.15l.48-3.59c0,.05-.02.1-.04.15l1.36-3.22c.8-1.61,2.73-3.38,4.51-4.48-.15.09-.3.17-.46.24l3.22-1.36c-.83.34-1.74.48-2.62.61l3.59-.48c-6.23.83-12.68.48-18.94.26-11.72-.42-23.42-1.27-35.1-2.22-9.02-.73-18.03-1.55-27.03-2.41-3.11-.3-7.47,1.69-9.55,3.95s-3.31,4.74-3.71,7.75c-.94,7.02,3.29,12.39,9.67,14.81,8.81,3.34,17.57,6.8,26.25,10.45l-3.22-1.36c10.6,4.48,21.21,9.15,31.22,14.86,1.66.95,3.3,1.93,4.9,2.97.71.46,1.41.93,2.1,1.42.32.22.63.46.94.68,1.82,1.3-2.97-2.39-1.66-1.29.93.78,1.81,1.56,2.66,2.43,1.8,1.84-2.14-3.39-1.14-1.51.18.34.39.64.55,1l-1.36-3.22c.1.26.18.53.23.8l-.48-3.59c.03.21.04.42.02.64l.48-3.59c-.03.2-.08.4-.15.59l1.36-3.22c-.07.16-.16.31-.26.45-.09.14,2.95-3.45,1.64-2.24-.18.17,3.69-2.74,2.15-1.7-.22.15-.48.26-.73.37l3.22-1.36c-1.23.52-2.55.77-3.87.95l3.59-.48c-9.16,1.19-18.81-.24-27.89-1.45l3.59.48c-13.02-1.76-25.95-4.17-38.83-6.8-6.65-1.36-13.21,1.37-15.93,7.82s-.06,12.95,5.52,16.86c3.04,2.12,6.06,4.27,9.05,6.46,1.36.99,2.71,2,4.06,3.01.7.53,1.41,1.06,2.11,1.59.48.36,3.17,2.43,1.26.96s.2.16.62.49c.64.51,1.29,1.01,1.93,1.52,1.24.99,2.47,1.98,3.69,2.98,2.2,1.81,4.37,3.64,6.51,5.52,3.74,3.27,7.38,6.66,10.83,10.23,1.42,1.47,2.81,2.97,4.15,4.51.59.67,1.16,1.36,1.73,2.05.25.3.49.61.74.92,1.16,1.43-2.4-3.2-.96-1.24,1.88,2.56,3.64,5.21,4.89,8.14l-1.36-3.22c.51,1.23.91,2.5,1.11,3.82l-.48-3.59c.1.78.12,1.55.03,2.33l.48-3.59c-.08.53-.21,1.04-.41,1.55l1.36-3.22c-.14.33-.35.63-.51.95-.77,1.53,3.01-3.45,1.25-1.73-1.42,1.39,3.72-2.38,1.69-1.31-.4.21-.78.44-1.19.62l3.22-1.36c-1.17.49-2.41.77-3.66.94l3.59-.48c-3.08.39-6.2.17-9.26-.23l3.59.48c-11.97-1.66-23.56-6.07-34.63-10.73l3.22,1.36c-16.25-6.87-31.9-15.12-47.18-23.92-6.12-3.53-15.05-1.63-18.47,4.84-1.66,3.13-2.49,6.93-1.36,10.4s3.24,5.83,6.2,8.07c9,6.8,18.01,13.6,26.95,20.47.62.47,3.42,2.64,1.18.91s.53.41,1.15.9c1.35,1.05,2.69,2.1,4.03,3.16,1.83,1.45,3.67,2.91,5.45,4.42.6.51,1.19,1.04,1.78,1.58.17.16.32.36.5.51.91.73-2.32-3.38-1.82-2.34l-1.36-3.22s.01.04.02.06l-.48-3.59v.02c.16-1.2.32-2.39.48-3.59v.02c.45-1.07.9-2.15,1.36-3.22l4.81-4.8,3.22-1.36h-.02c1.2-.15,2.39-.31,3.59-.48-.03,0-.06,0-.1,0l3.59.48c-.19-.03-.37-.11-.54-.18l3.22,1.36c-4.37-1.9-8.43-4.86-12.44-7.38-9.29-5.85-18.49-11.83-27.7-17.8-7.55-4.9-15.1-9.81-22.65-14.73-5.65-3.68-13.5-1.59-17.42,3.48-1.76,2.28-3.03,5.22-2.9,8.18.17,3.81,1.62,6.57,3.95,9.55,2.13,2.71-1.52-2.02-.16-.2.5.67,1.01,1.33,1.5,2,.96,1.3,1.91,2.62,2.83,3.95,1.68,2.42,3.3,4.89,4.84,7.41,2.7,4.44,5.15,9.04,7.18,13.82l-1.36-3.22c1.71,4.12,3.14,8.39,3.76,12.83l-.48-3.59c.26,2.03.35,4.07.1,6.1l.48-3.59c-.17,1.21-.45,2.38-.92,3.51l1.36-3.22c-.24.55-.55,1.03-.83,1.56-.54.99-2.4,1.73,1.61-2.04-.2.19-.36.44-.57.63-.16.15-.53.38-.62.57,0-.01,3.45-2.32,2.05-1.6-.52.27-1,.6-1.55.83l3.22-1.36c-.98.4-1.99.65-3.03.8l3.59-.48c-1.64.2-3.28.14-4.92-.06l3.59.48c-3.79-.51-7.42-1.75-10.93-3.22l3.22,1.36c-5.93-2.53-11.53-5.79-16.92-9.31-3.35-2.19-6.61-4.49-9.82-6.88-.96-.71-1.89-1.47-2.86-2.16.48.34,2.2,1.71.78.6-.44-.35-.88-.69-1.32-1.04-2.07-1.63-4.11-3.3-6.14-4.98-4.5-3.73-11.03-5.55-16.36-2.11-4.83,3.12-8.18,9.46-6.2,15.25,4,11.73,8.18,23.83,9.85,36.17l-.48-3.59c.26,2.04.48,4.13.23,6.18l.48-3.59c-.08.54-.18,1.06-.39,1.57l1.36-3.22c-.76,1.67,1.3-1.67,1.71-2.07-1.04,1.04,3.76-2.46,2.21-1.73l3.22-1.36c-.12.05-.24.08-.37.1l3.59-.48c-.14.01-.27,0-.41,0l3.59.48c-.24-.04-.47-.11-.7-.2l3.22,1.36c-.38-.17-.7-.42-1.06-.62-1.31-.73,3.35,2.87,1.99,1.52-.15-.15-.32-.29-.47-.43-.97-.92-1.79-1.97-2.65-2.99,3.63,4.37,1.12,1.45.3.28-.52-.74-1.02-1.49-1.51-2.24-1.23-1.89-2.4-3.82-3.53-5.78-6.61-11.45-12.09-23.56-17.23-35.73l1.36,3.22c-2.01-4.79-3.96-9.6-5.85-14.44l-24.67,10.4c5.14,7.72,10.52,15.38,16.54,22.45,3.52,4.14,7.71,8.56,13.14,10.02,7.51,2.03,15.42-2.36,17.53-9.88.91-3.24.61-6.81-.37-9.99-1.82-5.9-4.99-11.56-8.11-16.87-5.76-9.79-12.29-19.13-19.02-28.27-2.15-2.92-4.44-5.2-8.07-6.2-3.23-.89-7.53-.49-10.4,1.36-6.21,4-8.58,11.9-4.84,18.47,5.26,9.26,10.85,18.56,15.06,28.37l-1.36-3.22c.36.86.77,1.76.93,2.69l-.48-3.59c.01.11.02.21.01.31l.48-3.59s-.01.07-.03.1l1.36-3.22,4.76-4.76,3.22-1.36h-.04c1.2-.15,2.39-.31,3.59-.47h-.04c1.2.16,2.39.32,3.59.48-.04,0-.07-.01-.1-.03l3.22,1.36c-1.2-.53,2.32,1.87,2.29,1.82-.07-.17-.39-.35-.51-.49-.48-.56-.96-1.1-1.42-1.67-1.41-1.7,2.44,3.24,1,1.3-.36-.48-.72-.96-1.07-1.45-.86-1.18-1.7-2.37-2.53-3.57-5.3-7.65-10.28-15.52-15.23-23.39-3.59-5.72-10.58-8.17-16.86-5.52s-9.85,9.47-7.82,15.93c2.76,8.75,5.44,17.67,6.7,26.78l-.48-3.59c.31,2.33.56,4.72.27,7.06l.48-3.59c-.09.61-.22,1.21-.46,1.78l1.36-3.22c-.8,1.69,1.87-2.21,1.67-2.02-.98.91,3.52-2.36,2.17-1.68l3.22-1.36c-.16.06-.32.1-.49.13l3.59-.48c-.14,0-.27,0-.41,0l3.59.48c-.32-.05-.62-.14-.92-.27l3.22,1.36c-.24-.11-.47-.23-.69-.37-1.8-1.15,1.94,1.62,1.68,1.34-.59-.61-1.27-1.14-1.86-1.77-.75-.8-1.42-1.66-2.13-2.49-.92-1.07,2.16,2.87,1.3,1.68-.18-.25-.38-.5-.56-.75-.45-.61-.88-1.22-1.31-1.83-4.56-6.54-8.46-13.55-12.21-20.58-2.69-5.05-9.76-7.98-15.25-6.2-2.23.72-4.23,1.89-5.96,3.47-2.22,2.04-4.31,6.47-3.95,9.55,1.22,10.63,2.58,21.83,1.2,32.52l.48-3.59c-.21,1.48-.47,2.96-1.03,4.35l1.36-3.22c-.33.76-1.38,2.11.43-.24,1.66-2.14,1.16-1.44.71-.97-.86.9,3.69-2.51,2.25-1.79l3.22-1.36c-.15.06-.29.1-.46.12l3.59-.48c-.12,0-.24,0-.36,0l3.59.48c-.18-.03-.34-.08-.5-.15l3.22,1.36c-2.04-.96,3.29,2.88,1.36,1.06-1.55-1.46,1.54,2.12,1.29,1.73-.23-.35-.48-.68-.7-1.04-1.23-1.93-2.18-4.04-3.07-6.15l1.36,3.22c-3.96-9.5-6.57-19.57-9-29.55-1.34-5.52-7.27-10.17-13.02-9.91-6.16.28-11.1,4.04-13.02,9.91-1.52,4.65-3.11,9.37-4.06,14.18-.83,4.2-1.15,7.96,1.15,11.9,3.05,5.22,9.44,7.84,15.28,6.22,4.84-1.34,8-5.06,9.53-9.62,1.21-3.59,1.49-7.7,1.94-11.39.72-5.88.91-11.82.74-17.74-.31-10.78-1.82-21.61-4.27-32.11-1.53-6.54-8.45-10.53-14.81-9.67-6.84.92-11.32,6.47-11.71,13.26-.1,1.72-.24,3.43-.46,5.14l.48-3.59c-.25,1.75-.54,3.51-1.2,5.15l1.36-3.22c-.13.3-.4.63-.48.93.39-1.37,3.02-3.52,4.09-4.11l3.22-1.36c-.08.04-.16.06-.24.08l3.59-.48c-.08.02-.16.02-.25.01l3.59.48c-.09,0-.17-.03-.25-.06l3.22,1.36c-1.25-.54,2.46,2,2.23,1.79-1.34-1.19,2.04,3.19,1.54,2.05-.24-.54-.59-1.03-.83-1.58l1.36,3.22c-1.45-3.54-2.06-7.42-2.58-11.18l.48,3.59c-.45-3.35-.75-6.72-.96-10.1-.58-9.1-8.13-14.91-17.09-13.02-.39.08-.78.15-1.18.21l3.59-.48c-.68.07-1.35.08-2.03,0l3.59.48c-.39-.07-.75-.16-1.12-.29l3.22,1.36c-.24-.1-.51-.21-.72-.36-1.35-.97,3.14,2.57,1.92,1.46s2.38,3.31,1.47,1.89c-.15-.23-.26-.49-.37-.74l1.36,3.22c-.22-.57-.36-1.14-.46-1.74l.48,3.59c-.17-1.32-.11-2.63.06-3.94l-.48,3.59c.37-2.38,1.09-4.67,2.01-6.89l-1.36,3.22c.75-1.74,1.6-3.44,2.56-5.07.46-.78.95-1.54,1.45-2.29.31-.46.63-.9.95-1.35,1.17-1.67-1.95,2.36-.93,1.19,1.3-1.48,2.55-2.97,3.99-4.32.68-.64,1.42-1.21,2.12-1.83-3.54,3.19-.72.6.44-.14l-3.22,1.36c.82-.12,1.64-.24,2.46-.35l-3.59.48c3.56-.46,7.13-.78,10.69-1.18s7.37-.64,10.79-1.77c5.36-1.76,10.47-5.42,11.88-11.24,1.53-6.3-.74-11.46-4.7-16.19-.91,7.07-1.82,14.14-2.73,21.2,10.93-4.67,23.54-13,24.32-26.09.39-6.5-3.2-12.73-8.75-16.03-4.78-2.84-10.64-3.66-16.11-3.21l9.55,23.05c4.94-6.19,9.78-12.49,14.17-19.09,2.5-3.77,5.35-7.89,6.67-12.27,1.49-4.95.47-10.38-3.27-14.13-5.51-5.51-14.23-4.95-19.63.26-3.38,3.27-6.03,7.57-8.64,11.47-3.18,4.76-2.09,12.51,2.11,16.36,4.23,3.89,11.28,5.53,16.36,2.11s10.8-6.81,16.67-9.32l-3.22,1.36c3.57-1.49,7.26-2.71,11.1-3.25l-3.59.48c1.75-.22,3.49-.28,5.24-.06l-3.59-.48c.98.15,1.93.38,2.84.77l-3.22-1.36c.35.16.68.39,1.03.54,1.49.64-3.08-2.64-1.69-1.3,1.49,1.42-1.4-1.58-1.37-1.86-.02.16.46.8.54.98l-1.36-3.22c.2.51.34,1.01.42,1.55l-.48-3.59c.08.67.07,1.33,0,1.99l.48-3.59c-.14.96-.4,1.86-.76,2.76l1.36-3.22c-.37.88-.81,1.72-1.31,2.53-.28.45-.71.91-.95,1.39-.08.16,2.44-2.99,1.38-1.79-.23.26-.44.53-.67.79-.84.96-1.74,1.85-2.68,2.71-.48.44-.98.86-1.49,1.28-2.32,1.91,2.77-2.03.23-.2-5.51,3.98-8.3,10.27-5.52,16.86,2.41,5.71,9.61,10.19,15.93,7.82,9.95-3.75,19.88-7.55,29.73-11.57,3.35-1.36,6.69-2.75,10.01-4.19.58-.25,1.17-.49,1.74-.78,3.47-1.77,5.13-4.8,6.59-8.28l.48-3.59c.07-1.86-.32-3.59-1.16-5.2-1.15-2.72-2.96-4.88-5.52-6.46-5.85-3.59-10.96-1.28-16.36.92-7.58,3.09-15.1,6.32-22.61,9.58-2.89,1.26-5.41,5.18-6.2,8.07-.89,3.23-.49,7.53,1.36,10.4s4.63,5.42,8.07,6.2c3.79.86,6.86.14,10.4-1.36.54-.23,1.09-.46,1.63-.69l-3.22,1.36c9.19-3.87,18.4-7.69,27.75-11.16,4.44-1.65,9.11-3.67,13.82-4.38l-3.59.48c.35-.05.7-.09,1.05-.04l-3.59-.48c.07.01.13.03.2.06l-3.22-1.36c2.02,1.08.45-.49-4.7-4.71l-1.36-3.22s.02.06.02.09l-.48-3.59v.05c.16-1.2.32-2.39.48-3.59,0,.04-.01.08-.03.11l1.36-3.22c-.56,1.29,3.14-3.62,1.34-1.84-1.48,1.46,3.12-2.3,1.87-1.43-.32.22-.63.46-.96.68-1.95,1.33-4,2.53-6.04,3.7-7.54,4.33-15.31,8.28-23.07,12.19-6,3.02-7.98,11.04-5.52,16.86,2.58,6.11,9.39,9.63,15.93,7.82,12.22-3.4,24.68-7.32,37.28-9.09l-3.59.48c.93-.12,1.89-.27,2.83-.17l-3.59-.48c.14.02.27.04.41.1l-3.22-1.36c.12.06-4.7-4.75-4.66-4.68l-1.36-3.22v.04c-.15-1.2-.31-2.39-.47-3.59v.04c.16-1.2.32-2.39.48-3.59,0,.03-.01.07-.03.1l1.36-3.22c-.33.63,2.79-3.34,1.84-2.4-.75.74,3.52-2.38,2.19-1.7-.5.26-.98.59-1.48.85-1.67.88-3.42,1.63-5.16,2.36l3.22-1.36c-10.55,4.43-21.41,8.14-32.23,11.84-6.41,2.19-10.6,7.93-9.67,14.81.83,6.2,6.54,12.22,13.26,11.71,9.97-.76,20.3-1.62,30.27-.32l-3.59-.48c1.65.23,3.31.52,4.85,1.17l-3.22-1.36c.74.33,2.07,1.38-.3-.44-2.08-1.61-1.47-1.17-1-.72.9.85-2.5-3.69-1.81-2.27l-1.36-3.22c.04.11.07.21.1.33l-.48-3.59c.02.16.02.3,0,.46l.48-3.59c-.03.17-.08.32-.15.48l1.36-3.22c-.94,1.96,2.86-3.2,1.1-1.43-1.53,1.54,2.5-1.74,1.69-1.26-.34.2-.66.46-1,.67-1.91,1.2-3.99,2.13-6.06,3.01l3.22-1.36c-10.8,4.51-22.29,7.43-33.63,10.21-6.86,1.68-11.63,9.8-9.43,16.61,2.3,7.12,9.25,11.23,16.61,9.43h0Z"/>
    </g>
  </g>
</svg>