<?xml version="1.0" encoding="UTF-8"?>
<svg id="Layer_2" data-name="Layer 2" xmlns="http://www.w3.org/2000/svg" viewBox="0 0 648.68 934.36">
  <defs>
    <style>
      .cls-1 {
        fill: #0d062d;
      }

      .cls-2 {
        fill: none;
        stroke: #5955d8;
        stroke-miterlimit: 10;
        stroke-width: 2px;
      }
    </style>
  </defs>
  <g id="images">
    <g>
      <path class="cls-1" d="m275.96,475.76c-365.29,39.68-370.61-46.53,10.93-10.93-183.59-50.49-160.92-119.65,12.01-15.1-210.5-209.93-220.1-352.88,10.54-36.36,6.71-548.19,168.44-549.68,45.91-5.29,348.19-400.29,422.7-268.86,17.52,41.31,330.66-9.51,194.72,84.57-34.28,29.26,108.6,61.49,271.29,186.85,14.27,34.52,176.13,492.9,22.86,541.57-30.44,26.82-80.77,536.32-182.94,517.11-24.6-14.03-241.35,307.69-165.27,239.01,5.59-22.49-132,225.88-80.92,221.63,7.95-10.69-105.9,104.6-191.04,93.96-14.41-7.95-236.23,114.68-273.79,129.58-11.14,1.86-318.74,117.08-344.58,106.06-8.26-5.24-370.08,54.2-366.88,33.98-1.6-5.69Z"/>
      <path class="cls-2" d="m275.96,475.76c-365.29,39.68-370.61-46.53,10.93-10.93-183.59-50.49-160.92-119.65,12.01-15.1-210.5-209.93-220.1-352.88,10.54-36.36,6.71-548.19,168.44-549.68,45.91-5.29,348.19-400.29,422.7-268.86,17.52,41.31,330.66-9.51,194.72,84.57-34.28,29.26,108.6,61.49,271.29,186.85,14.27,34.52,176.13,492.9,22.86,541.57-30.44,26.82-80.77,536.32-182.94,517.11-24.6-14.03-241.35,307.69-165.27,239.01,5.59-22.49-132,225.88-80.92,221.63,7.95-10.69-105.9,104.6-191.04,93.96-14.41-7.95-236.23,114.68-273.79,129.58-11.14,1.86-318.74,117.08-344.58,106.06-8.26-5.24-370.08,54.2-366.88,33.98-1.6-5.69Z"/>
    </g>
  </g>
</svg>