<?xml version="1.0" encoding="UTF-8"?>
<svg id="Layer_2" data-name="Layer 2" xmlns="http://www.w3.org/2000/svg" viewBox="0 0 556.84 417.08">
  <defs>
    <style>
      .cls-1 {
        fill: none;
        stroke: #00bf80;
        stroke-miterlimit: 10;
        stroke-width: 3px;
      }
    </style>
  </defs>
  <g id="images">
    <path class="cls-1" d="m352.48,116.6s86.1-13.53,120.54-83.64c0,0,13.53-45.51,52.89-27.06,39.36,18.45,30.75,49.2,22.14,61.5-8.61,12.3-30.75,25.83-49.2,30.75s-40.59,14.76-51.66,22.14c-11.07,7.38-71.34,35.9-94.71,38.25-23.37,2.34-138.57,26.91-154.16,47.84-15.59,20.93-29.12,28.31-40.19,25.85-11.07-2.46-20.91-8.61-19.68,4.92s46.74,51.66,79.95,23.37c33.21-28.29,15.99-61.5,52.89-68.88,36.9-7.38,24.6,23.37,17.22,28.29-7.38,4.92-22.14,31.98-3.69,28.29s25.83-3.69,38.13-9.84c12.3-6.15,50.43-22.14,77.49-24.6,27.06-2.46,46.74-6.15,51.66,0,4.92,6.15,2.46,13.53,15.99,8.61,13.53-4.92,43.05-27.06,61.5-18.45,18.45,8.61,4.92,19.68-4.92,20.91-9.84,1.23-49.2,2.46-61.5,11.07-12.3,8.61-72.57,40.59-83.64,47.97s-15.99,12.3-23.37,4.92-11.07-1.23-12.3,11.07c-1.23,12.3,8.42,18.01,2.98,26.84-5.44,8.83-16.51,23.59-25.12,21.13-8.61-2.46-8.61-6.15-8.61-13.53s-2.46-6.15-8.61-1.23c-6.15,4.92-14.76,8.61-19.68,1.23-4.92-7.38,0-14.76,3.69-17.22,3.69-2.46,6.15-6.15,4.92-12.3s-25.83-1.23-49.2,17.22c-23.37,18.45-38.13,34.44-43.05,24.6-4.92-9.84,17.22-34.44,7.38-44.28-9.84-9.84-50.43-1.23-54.12,17.22-3.69,18.45,7.38,18.45,7.38,28.29s-3.69,14.76,6.15,14.76,28.29,2.46,28.29,11.07-47.97,55.35-65.19,38.13c-17.22-17.22,13.53-40.59,15.99-50.43s2.46-14.76-3.69-18.45c-6.15-3.69-40.59-1.23-67.65,11.07-27.06,12.3-54.12,25.83-68.88,7.38-14.76-18.45,3.69-68.88,23.37-78.72s50.43-31.98,54.12-47.97,3.69-25.83-15.99-33.21-33.21-8.61-36.9-19.68,6.15-23.37,3.69-27.06c-2.46-3.69-15.99,4.92-22.14-9.84-6.15-14.76,7.38-29.52,23.37-24.6,15.99,4.92,28.29,22.14,17.22,38.13-11.07,15.99-14.76,28.29,4.92,29.52s19.68-9.84,28.29-24.6c8.61-14.76,23.37-33.21,38.13-31.98,14.76,1.23,15.99,8.61,18.45,12.3,2.46,3.69,6.15,15.99,18.45,9.84,12.3-6.15,50.43-36.9,45.51-51.66-4.92-14.76-24.6,0-34.44,0s-25.83,0-33.21-14.76c-7.38-14.76,3.69-38.13,18.45-39.36,14.76-1.23,22.14,8.61,19.68,15.99-2.46,7.38-7.38,22.14,8.61,22.14s36.9,1.23,38.13,18.45c0,0,1.23,2.93,7.38-.38s29.52-21.76,44.28-19.3c14.76,2.46,19.68,4.92,25.83-1.23,6.15-6.15,52.89-41.82,62.73-39.36,9.84,2.46,2.46,15.99-1.23,19.68-3.69,3.69-30.75,23.37-22.14,23.37s17.22,0,22.14,4.92c4.92,4.92-1.23,17.22-11.07,24.6Z"/>
  </g>
</svg>