<?xml version="1.0" encoding="UTF-8"?>
<svg id="Layer_2" data-name="Layer 2" xmlns="http://www.w3.org/2000/svg" viewBox="0 0 460.16 586.78">
  <defs>
    <style>
      .cls-1 {
        fill: #37c48c;
      }
    </style>
  </defs>
  <g id="images">
    <path class="cls-1" d="m262,373.33c21,14,46,17,71,11,36-9,64-32,83-64,28-48,32-102,18-154-2-6-4-11-5-17,1,4,3,7,4,11,16,49,15,103-8,150-16,32-41,60-75,73-32,12-70,13-97-10,18,20,46,25,72,23,15-1,29-7,43-13,27-13,47-35,63-61,1-2,1-4,2-6,23-40,28-85,22-129,3,4,2,8,3,13,3,15,2,29,2,43-1,6-2,13-2,19-1,9-4,17-6,26-5,18-14,34-23,50-10,16-23,28-37,40-13,11-28,17-44,23-39,12-86,5-111-29,3,2,5,6,7,9,38,41,100,35,144,4,6-5,11-8,17-13,2-2,4-5,7-7,4-5,8-9,12-14,5-6,9-12,13-19,4-9,10-17,12-27-16,32-37,61-69,80-27,15-58,23-89,16-22-6-41-19-52-39,19,26,53,36,85,32,4-1,8-2,13-3,51-13,85-56,101-103-9,27-24,52-46,72-26,23-59,36-93,33-23-2-44-13-57-32,23,39,76,45,116,31,19-7,36-17,51-30,13-12,22-25,35-35,1-1,1,2,1,3-5,14-12,26-21,38-8,8-15,16-23,23s-16,11-24,17c-12,7-23,10-36,14-53,15-120-10-130-68-3,22,7,43,23,59,35,32,89,37,131,15h2c1-2,5-2,4-5-1-2-4-1-6-1-34,6-68,6-98-12-12-6-23-14-30-26-6-11-13-21-12-34,5,31,34,51,64,55,32,5,63-4,88-24,13-11,26-23,31-40q-1,0-1-1c-17,9-30,22-48,30-14,6-29,10-45,11-26,0-54-9-68-32,9,17,24,30,40,42,4,3,6,7,8,11,2,5-1,9-5,12-22,12-48,3-67-12l-9-9c-16-19-20-47-9-69-5,6-10,12-13,19l-3,9c-3,13-3,25,0,38l3,9c4,10,9,20,15,29,19,26,47,39,75,51,0,1-1,1-2,1-45-8-85-36-102-78-11-29-9-63,12-87-12,7-18,19-23,31-1,4-2,7-3,11-9,51,21,97,62,123-3-3-7-4-10-7-1-1-3-1-4-2-11-9-20-19-29-30-14-20-22-41-23-65-1-28,12-59,39-71-22,9-33,33-36,56-2,21,3,43,14,61-7-20-13-41-9-63,5-24,20-47,44-53-25,13-36,47-27,73,2-6,0-13,1-19,2-8,2-16,5-23,1-2,3-4,4-7,0-1,0-3,1-4,7-9,13-17,22-23-15-2-30,4-41,15-23,23-26,58-18,88,1-3-1-5-1-8-9-36,3-79,37-96-37,18-48,65-37,103,15,51,56,85,105,101,2,0,4,1,7,2-46-10-87-41-108-83-1-4-3-7-5-11-14-37-10-84,22-111-13,6-22,17-29,29-2,4-3,7-5,11-24,64,18,132,72,165-27-15-50-36-65-63-1-3-3-6-5-9-17-35-19-75-1-110,11-20,30-35,53-38-43,5-67,51-66,91-2-44,29-94,76-95-16-3-31,1-45,9-19,13-31,31-37,53-4,14-5,28-4,43,2,11,4,21,7,32,7,20,18,39,33,54v-2c-25-34-38-72-31-113,6-30,24-58,53-69-13,5-23,14-32,25-9,12-14,25-17,40-6,29,1,56,13,82,26,50,76,82,130,92-7-2-14-4-22-6-5-1-8-4-13-5-11-4-21-10-32-16-25-16-43-35-58-60-26-45-26-108,15-143-13,9-23,21-30,35-2,4-3,9-5,13-6,19-6,39-2,59,6,28,19,51,37,72,50,57,127,74,198,64-73,16-154-5-205-63-3-4-6-7-9-11-26-35-38-76-28-118,7-28,24-54,51-65-15,5-27,15-36,28-2,4-4,7-7,11-21,38-16,82,1,120,9,19,22,35,37,51,9,9,19,15,28,23-55-33-92-97-81-163,1-4,2-9,3-13,9-30,31-58,63-65-17,2-31,12-43,23-17,17-26,39-29,62-11,86,55,162,135,186,2,1,4,3,6,3,10,1,20,6,30,6-12-2-23-5-34-8-1,0-2-2-3-2-3-1-5-1-8-2-6-3-11-4-17-7-3-2-6-4-9-5-1-1-3-2-4-3-2-1-3-1-5-2-47-28-80-70-90-124-10-51,10-107,57-130-27,8-47,28-59,53-2,4-3,9-5,13-12,35-8,72,5,106,23,55,70,97,126,117h-3c-1-1-2-1-3-2-83-29-148-111-135-202,7-49,45-96,97-95-29,1-55,16-72,41-17,26-23,54-22,83,2,30,11,59,29,83-23-38-33-83-22-127,5-16,11-31,21-44,8-10,17-18,28-25,15-8,31-14,48-11-35-13-73,8-94,38-41,58-29,133,10,186-30-44-42-99-26-151,7-21,19-40,35-55,18-16,41-25,65-23-37-2-70,22-87,54-12,24-18,50-16,77,2,32,12,62,31,90,29,42,68,71,115,84-6-4-13-4-18-9-2-1-4-1-6-2-40-21-73-51-94-91-20-38-26-80-14-121,10-30,30-57,60-69-24,9-42,29-53,52-14,29-15,59-9,91,6,27,17,49,33,71,23,30,51,51,84,67,63,29,135,29,200,7-3,1-6,2-9,2-100,35-219,10-282-84-29-43-39-93-24-141,9-27,27-53,54-65-9,3-17,9-24,15l-11,11c-20,24-28,53-29,83,0,23,5,46,14,68,9,25,25,45,43,64,67,66,165,84,254,59,5-2,10-3,15-4-83,30-178,23-252-34-57-43-90-109-78-180,8-43,36-82,78-95-27,7-49,24-64,48-10,17-16,33-19,52-4,25-2,47,4,71,2,5,3,10,5,15,24,67,83,115,149,136h-3c-4-2-8-3-12-4-42-16-78-41-107-78-31-41-47-89-39-140l3-15c11-48,50-90,100-91-29,1-56,16-75,39-19,24-28,51-31,80-2,33,5,65,19,95,14,29,34,52,58,74,1,1,3,1,4,2,13,13,29,21,45,30-1,1-2,0-3,0-21-9-39-21-57-36-8-8-16-15-23-23-11-14-21-27-29-42-20-39-27-80-19-124,11-60,65-116,128-103-38-13-80,6-105,37-12,15-20,30-26,48-1,5-3,10-4,15-2,8-1,16-3,24-1,3,2,6,1,9,2-12,6-23,8-35,0-2,2-4,3-6,4-12,9-23,16-33,2-2,3-4,5-7,11-14,23-25,39-33,19-9,41-13,61-6,2,1,4,2,7,3,4,2,9,5,12,9-18-10-40-7-58,1-3,2-6,3-9,5-20,13-35,31-43,53,6-22,20-41,39-55,24-17,54-23,81-11-12-15-31-21-49-22-20,0-38,6-56,18-15,10-26,21-36,36-19,31-28,64-27,99-6-53,14-108,59-141,33-24,77-30,111-8-30-30-77-27-113-7-4,2-7,5-11,7-42,27-60,73-69,118,2-38,17-75,43-104,24-26,54-44,89-46,30-2,62,9,78,35-3-7-8-13-14-19-3-2-6-4-9-7-18-11-38-15-59-14-26,2-51,13-72,29,11-8,22-15,35-19,1,0,2-1,3-2,43-17,105-4,119,45-2-3-4-6-7-9-1-1-2-4-3-5-41-40-109-25-144,15,27-23,62-40,99-32,19,5,37,15,46,34-22-29-69-33-98-12h5c22-8,47-8,68,4,2,2,4,3,7,5,6,5,10,10,14,16-17-22-47-28-73-20,28-13,63-6,83,18-1-3-1-7-1-10l-3-9c-16-35-61-45-96-36,20-6,42-6,62,1,21,7,40,23,46,45,0-19-12-36-28-47-35-23-79-21-114-1,21-12,45-17,69-15,31,3,63,20,73,51-16-40-64-55-105-47-4,1-7,2-11,3-7,3-14,5-21,8-3,2-6,3-9,5-30,18-54,44-67,76,19-45,58-80,106-92,37-9,79,1,102,32-24-41-78-49-120-36-43,14-76,45-98,84-1,2-1,4-2,6-5,6-5,13-10,19,9-33,28-63,55-86,3-2,6-4,9-7,7-6,16-10,24-15,4-2,7-3,11-5,29-12,60-14,90-4,27,10,52,31,55,61-7-38-45-61-81-65-37-3-74,9-102,32,30-26,71-38,111-32,34,6,66,29,73,64-3-16-12-30-24-42-11-10-23-16-37-20-18-5-36-6-54-3-49,8-91,40-115,82,27-46,74-80,128-85,40-3,81,14,102,49-2-3-3-7-5-11-10-20-28-33-48-41-43-16-89-8-129,16-25,15-43,36-60,58,28-43,72-76,124-84,35-5,70,2,98,25,18,16,32,39,28,64,3-36-26-66-58-77-17-7-36-11-54-6,16,1,32,3,47,8,10,4,19,9,29,16,9,7,15,15,22,24,3,5,5,10,7,15,4,12,5,25,1,37,13-24,5-53-11-74v-2c25,20,34,59,15,86,18-18,23-44,18-70,0-2-1-3-2-5-3-16-13-28-20-42v-3h3c13,8,21,18,29,31,9,16,15,32,14,50-2,19-8,38-23,51,41-12,52-64,41-101,4,12,6,26,5,39l-3,18c-7,27-30,53-60,51,5-4,9-7,13-12,5-9,7-20,1-29v-2c-8-12-22-19-36-15-16,4-9,26-13,40-7,0-15,1-21,4-7,5-17,10-14,19,1,1,3,2,5,3,11,2,22,4,33,1,2-1,5-2,5-5,3,8,10,13,18,16,16,6,34,2,46-9v-2c-13,2-26,5-39,0,29,3,53-19,63-45,4-11,6-23,6-35-1-14-3-29-9-42-1-1-1,0-1,1,16,41,8,95-32,120,29-5,49-30,57-58,18-66-22-130-75-166,2,1,3,1,5,2,4,3,7,5,11,7,30,23,52,51,64,86,7,23,9,47,4,71-8,35-33,66-69,71,43-5,70-47,74-87,2-24-2-48-11-71,0-1-2-1-2-2-2-6-4-11-7-16,4,7,7,13,10,20,6,14,9,29,11,45,6,51-28,113-84,112,49,2,82-49,83-94-2,35-18,70-50,89-19,11-41,12-60,4,2,11,10,19,19,25,23,14,49,9,71-3-1-1-2,0-3,0-27,13-64,14-86-10,25,20,60,17,87,0,25-16,42-41,49-69-9,25-24,46-47,62-8,5-15,8-23,11-17,4-36,7-51-4,9,6,21,5,32,3,23-5,43-19,56-39,2-3,3-6,5-9,18-33,19-71,9-107-2-5-4-9-5-14-5-14-13-26-21-38-20-26-44-48-74-59,20,14,38,29,54,47,12,14,21,30,29,47,11,25,14,52,11,79-2,12-5,24-10,35-2,4-4,8-7,13-9,12-18,24-31,31,21-7,37-21,48-40,18-31,23-66,15-101-4-15-9-29-15-43-9-17-20-32-33-47-2-2-5-4-7-7-1-1-3-2-4-3s-2-3-3-4c-18-14-35-27-56-37-1-1-3-1-3-3,43,14,78,42,105,81,10,15,18,29,23,46,3,10,7,20,8,31,2,15,2,28,1,43-2,19-8,37-17,55-20,38-63,65-106,53,23,10,48,6,70-6,4-2,7-5,11-7,9-7,17-14,24-24,10-16,19-31,23-49,3-13,5-26,5-39-1-49-20-100-57-133,3,3,3,6,7,9,4,5,7,11,11,16,5,10,11,19,15,29s7,19,10,29c6,25,8,48,4,73-8,46-37,90-83,102,7-1,14-3,20-5,4-2,8-5,13-7,77-50,75-153,28-224-32-49-76-81-129-99-22-7-45-12-68-14-26-3-52,0-78,3-11,1-20,5-31,7C45,23.33,23,34.33,0,44.33,118-27.67,287-14.67,376,103.33c3,5,6,9,9,13,27,42,40,88,32,137l-3,15c-12,53-56,103-113,99,70-1,115-75,114-139-1-30-6-60-21-87-1-2-1-4-2-6-9-16-18-30-30-44-7-8-14-15-21-22-7-5-13-10-19-16,48,33,83,82,95,142,8,42,1,82-19,118-23,40-69,71-116,58,18,8,38,6,56,1,4-2,8-4,13-5,16-6,28-17,40-29,3-4,6-7,9-11,43-57,42-131,14-193-21-45-53-80-95-110-3-2-9-4-11-8,104,49,169,181,120,290-3,5-5,10-7,15-15,26-36,47-63,60-28,14-62,17-91,3,51,30,115,3,149-43,24-32,35-67,38-105,2-42-8-84-27-121,12,25,21,51,25,79,1,11,2,22,2,33-1,10-1,20-3,31-5,22-10,42-22,62-9,14-18,26-30,38-4,3-7,6-11,9-36,29-91,38-126,6h0Z"/>
  </g>
</svg>