<?xml version="1.0" encoding="UTF-8"?>
<svg id="Layer_2" data-name="Layer 2" xmlns="http://www.w3.org/2000/svg" viewBox="0 0 891.44 869.8">
  <defs>
    <style>
      .cls-1 {
        fill: #5739ba;
      }
    </style>
  </defs>
  <g id="images">
    <path class="cls-1" d="m571.47,425.74c440.24-68.5,416.31-76.04-10.94.65,364.16-13.54,307.81-36.51-24.41,1.81,305.79-45.54,300.03-49.42-2.82-2.72,292.36-158.44,223.63-348.98-27.87-78.96,105.06-472.69,37.82-449.02-36.35-6.86,61.67-232.42,118.13-125.08,16.69,60.13,157.42-109.54,191.11-70.21,35.2,31.85,271.45-21.51,283.53-9.42,5.93,8.39,283.06,49.31,276.28,94.62-2.5,33.45,259.13,192.57,220.54,168.33-23.3-.63,127.18,67.1,62.1-79.81-24.89-51.09,103.72-105.36,94.39-201.72-1.52-35.61,83.76-225.97,20.44-472.86-42.5-55.43-191.19-376.29-143.23-150.16-17.11,53.37-126.11-203.53-245.22-271.46-32.12,4.9-271.84-95.21-220.96-28.33,10.07,47.16-185.66,34.26-156.54,95.34,13.61,53.97-143.2,319.75-190.78,373.31-18.14,52.64-272.18,421.86-296.34,336.46-17.95-13.53-296.48,294.53-323.99,213.91-25.3-25.47-459.45,220.61-458.75,339.43-7.18,36.59-358.63,422.26-287.6,450.03,37.4,17.01-235.71,418.74-101.9,396.48,40.27-55.61-105.23-6.68-246.95-170.32-26.47-101.54-218.74-221.52-171.9-217.16,22.18-10.95-84.41-163.43-112.83-105.68,43.22,42.99,81.79,15.37,136.35,162.81,55.98,56.88,359.86,247.98,331.66-66.21,24.13-52.6,422.81,18.15,477.48-47.54,36.71-10.77Zm-15.61-152.55c-118.79-243.87-26.8-175.98,20.42-10.64,52.92,7.86,107.88,178.32,24.14,67.53,91.12,167.29-66.42,109.44-44.57-56.88Zm-331.28,413.88c48.03,59.39,45.77,68.33-11.41-3.39-23.5,36.2-40.24,17.58-13.67-9.75-69.37-30.51-77.66-116.17,2.79-24.41,34.38-48.21,48.87,48.92,17.12,30.52,45.7,61.17,60.72,71.63,5.16,7.02q57.77,66.08.06.04,57.9,66.16-.06-.04Zm221.4-361.07c-132.41,44.46-114.31-111.58-29.97-55.27-77.03-158.1-47.76-177.47,16.76-24.31,17.28-135.64,64.93-30.91,22.54,32.47,73.65,9.88,131.75,265.22-9.33,47.11Z"/>
  </g>
</svg>