<?xml version="1.0" encoding="UTF-8"?>
<svg id="Layer_2" data-name="Layer 2" xmlns="http://www.w3.org/2000/svg" viewBox="0 0 608.02 437.27">
  <defs>
    <style>
      .cls-1 {
        fill: #063f3f;
      }
    </style>
  </defs>
  <g id="images">
    <path class="cls-1" d="m361.25,145.75c29.62-36.78,132.94-53.01,96.43-66.91,77.84-70.23,94.07-124.84,42.31-21.65,146.23-58.92,135.89-22.02,17.71,49.2,97.52-41.7,70.95-25.46-39.36,24.6,66.03-38.25,39.46-26.44-41.33,17.71,54.22-26.44-18.1,7.78-75.77,30.6,1.58-17.19-136.66,12.29-123.32,38.27-50.74,24.25-66.98,33.1-32.15,20.68-61.4,6.52-73.21-.86-15.74,3.94-54.51,27.68.1,73.43,63.96,18.7,15.85-13.16-4.82-53.01,42.31-55.1,41.43-15.62,26.67,21.28,13.78,22.63-4.82,10.46-22.53,42.93-2.95,22.63,24.7,11.44,33.56,11.44,30.5-7.87,32.57,4.55,78.33-14.64,61.99-19.68,81.28-.86,104.9-5.29,41.33,0,75.38,9.47,72.43,18.33,12.79,6.89,92.11-.37,127.53-26.94,49.2-14.76,122.61,8.49,106.37,21.77-3.94,16.73,86.69,8,39.46,9.47-49.2,8.86,59.14,21.28-13.18,59.66-66.91,38.38,27.16,38.99,21.26,44.9-18.7,3.94,22.24,23.25,17.81,30.63-9.84,8.86,24.7,51.29,36.28,58.14,2.38,21.47,20.84,57.87,7.56,75.58-20.1,16.91,6.99,52.77,6.99,48.34-6.89-10.82,13.88,41.45,10.93,42.93-6.89-.98,3.05,55.72-7.28,60.15-15.74.98-3.34,41.45,2.56,32.6,2.95-13.78,8.47,40.47,11.42,36.04,3.94-9.84,4.53,31.12-24.99,37.03-39.36,13.78-41.72,67.53-59.43,86.72-34.44,19.68-36.8,43.42-10.23,13.9,5.9-35.42-39.75,25.71-88.46,36.04-43.3,13.78-54.02,66.55-40.73,66.55,5.9,22.63-46.64,67.53-51.07,73.43,4.92,11.81-32.37,61.63-10.23,64.58,22.63,8.86-32.86,76.39-90.43,132.47-52.15,30.5-79.6,60.64-42.7,32.6,12.79-40.34-49.59,49.33-49.59,43.42-2.95-14.76-61.4,49.33-102.73,52.28-54.12,8.86-113.55,72.94-146.02,89.18-55.1,5.9-126.34,38.99-104.2-21.52,18.7-62.98-75.67,17.84-38.77-8.73,43.3-38.38-73.21-8.73-73.21-20.54-12.79-26.57-107.65-11.68-123.88-13.16-29.52-15.74-103.22-23.98-91.41-38.74,2.95-21.65-100.27-25.95-116.5-15.62-17.71-7.87-113.55-43.17-97.32-60.88,18.7-19.68-77.64-29.4-62.87-8.73,13.78,30.5-103.22-.86-107.65,13.9,3.94,23.62-64.35-6.76-64.35-20.05,22.63-19.68-66.32-35.79-48.61-57.93,30.5-25.58-43.69-29.4-42.21-20.54,14.76,9.84-51.07-21.52-46.64-6.76,14.76,7.87-31.88-29.4,13.88-66.3,36.41-41.33-34.34-60.39-57.95-42.68-27.55,0-54.02-42.68-73.21-42.68-26.57-11.81-64.35-66.3-51.07-94.34,14.76-31.49-30.4-65.8-21.55-54,15.74,12.79-43.19-49.08-49.1-31.36,6.89,17.71-17.61-49.08,7.48-47.6,30.5,14.76-21.55-41.7-20.07-38.18,5.9-.3-11.21-45.82,16.83-67.96,35.42-15.44,16.83-46.62,22.73-43.66,20.66-.98,16.83-57.44,72.92-100.24,50.18-31.49,46.35-62.85,37.49-46.62-.98,15.74,29.62-53.5-2.85-29.89-17.71,18.7,35.53-48.58,45.86-48.58,17.71,3.94,39.95-40.71,32.57-25.95-8.86,19.68Z"/>
  </g>
</svg>