<?xml version="1.0" encoding="UTF-8"?>
<svg id="Layer_2" data-name="Layer 2" xmlns="http://www.w3.org/2000/svg" viewBox="0 0 709.85 444.86">
  <defs>
    <style>
      .cls-1 {
        fill: #009962;
      }
    </style>
  </defs>
  <g id="images">
    <path class="cls-1" d="m455.82,220.63c10.12-2.48,20.24-5.15,30.08-8.59,5.34-1.87,11.17-3.82,15.78-7.21,2.82-2.07,5.36-5.75,2.33-8.89s-8.42-3.19-12.24-3.49c-10.02-.78-20.19-.08-30.2.69l.8,5.89c9.69-3.31,19.36-6.68,28.9-10.38,4.76-1.84,9.9-3.56,14.27-6.25,1.3-.8,2.6-1.77,2.81-3.4.3-2.33-1.64-3.66-3.72-3.8-4.18-.27-8.79,1.15-12.81,2.05-10.8,2.41-21.48,5.34-32.14,8.3l2.31,5.48c8.49-4.29,16.99-8.61,25.25-13.34,3.33-1.9,7.63-3.89,10.17-6.87,1.42-1.66,1.51-4.18-.56-5.41-1.35-.8-3.02-.48-4.47-.2-5.14.99-10.18,3.08-15.06,4.91-10.98,4.1-21.81,8.62-32.6,13.18l3.03,5.18c6.68-2.9,13.36-5.78,20.1-8.54,1.68-.69,3.36-1.37,5.05-2.02.46-.18.99-.31,1.43-.54,1.24-.65.78.98-1.64-.5l-1.38-3.39c.95-2.28,1.97-1.93.49-1.33-.73.29-1.44.64-2.17.95-2.3.99-5.1,2.13-7.71,3.19-10.33,4.18-20.73,8.17-31.16,12.09l2.31,5.48c6.45-4.66,16.19-13.33,13.37-22.5-2.86-9.3-15.34-7.8-22.47-5.7-9.14,2.7-17.59,7.58-25.44,12.87l4.1,4.1c1.93-2.9,3.85-5.88,6.18-8.48.12-.13.34-.3.44-.45.21-.34.03-.14.03-.05-.05,1.55-4.22-2.24-4.38-2.32.11-.63.13-.81.07-.55-.01.06-.03.13-.05.19-.07.03-.1.34-.14.4-.05.08.22-.47-.06.12-.25.51-.51,1.02-.78,1.52-4.85,8.97-11.26,17.24-17.6,25.18-1.44,1.8-.75,5.36,2.12,5.12,2.69-.22,5.86-.4,8.3.84.76.39,1.04.73,1.2,1.05.12.25.1.28.11.52.03.68.05.41-.18,1.09-.79,2.31-3.02,4.4-4.98,5.97-3.84,3.07-8.38,5.29-12.88,7.21-1.93.83-1.7,3.41-.61,4.71.13.16.64.89.59.9.11-.03-.15-1.19.23-.94,0,0-2.15.77-2.57.87-3.62.83-7.39,1.05-11.07,1.43-4.06.43-8.76.28-12.17,2.7-2.65,1.88-5.09,4.03-7.27,6.44-4.17,4.62-7.51,9.96-9.77,15.76-1.63,4.2-2.97,9.41-1.59,13.88,1.62,5.23,6.52,6.7,11.48,5.65l-3.8-2.89c.42,6.54,1.01,13.19,2.55,19.58.72,2.98,1.64,6.92,4.23,8.88s5.55.44,6.88-2.22c1.95-3.92,2.11-8.86,2.36-13.14l-5.89.8c3.16,13.5,4.63,27.37,4,41.23-.18,3.99-.51,7.99-1.16,11.93-.19,1.17-.4,2.35-.68,3.5-.08.34-.21.69-.27,1.04-.02.1-.1.21-.1.31-.01-.54,1.29-1.54,1.94-1.8l2.31.3c.97,2.63,1.46,3.45,1.46,2.46,0-.03,0-.07,0-.1-.08-.16.41-.93-.06.38.1-.28.1-.63.16-.92.24-1.1.49-2.19.77-3.28,1.08-4.2,2.38-8.35,3.73-12.47h-5.79c2.33,9.6,4.86,19.2,8.3,28.46,1.8,4.87,3.74,10.43,7.32,14.34,2.51,2.75,6.46,3.36,8.76-.02,2.42-3.56,2.5-8.8,2.67-12.92.41-10.18-.6-20.44-1.76-30.54l-5.59,1.51c4.23,7.93,8.62,15.84,13.8,23.19,2.58,3.66,5.55,8.1,9.57,10.34,3.24,1.81,6.8.77,8.08-2.83,1.45-4.06.5-9.05-.16-13.17-1.52-9.36-4.26-18.54-7.1-27.57l-5.48,2.31c4.96,7.9,9.96,15.77,15.2,23.48,2.68,3.94,5.33,8.13,8.58,11.63.94,1.02,2.07,2.06,3.55,2.06,1.98,0,3.27-1.7,3.19-3.56-.13-3.52-2.73-7.41-4.25-10.45-4.32-8.6-9.05-17-13.81-25.36l-5.18,3.03c6.17,8.38,12.15,16.91,17.67,25.74,3.4,5.44,6.76,11,9.35,16.87.49,1.1,1.08,2.73,1.46,4.21.02.09.2.69.04.13-.18-.64.05.01,0,0,.52.11-.92,1.26.09-.09.23-.3,1.23-1.51,2.42-1.42.36.02-.16-.31.45.16-.18-.14-.43-.21-.62-.34-.24-.17-.49-.33-.72-.5.6.45-.34-.31-.51-.46-1.59-1.41-3.02-3-4.41-4.6-5.91-6.83-11.04-14.34-16.04-21.85-1.76-2.65-6.79-1.04-5.48,2.31,5.56,14.22,11.5,28.31,18.28,42,4.23,8.53,8.68,17.19,14.41,24.82,2.36,3.15,7.05,9.7,11.82,7.16s3.02-10.11,2.44-14.08c-1.97-13.28-6.42-26.29-10.73-38.95l-5.01,2.92c12.02,9.97,24.67,19.71,38.69,26.72,7.51,3.75,16.48,7.59,25.08,6.19,16.39-2.67,11.76-23.35,7.44-33.93-5.17-12.65-12.85-24.09-21.25-34.81l-3.64,4.71c21.61,14.07,42.98,28.77,65.22,41.84,1.58.93,3.28,2.09,5.06,2.63,2.87.87,5.43-1.96,3.77-4.66-.92-1.5-2.59-2.66-3.91-3.76-2.77-2.31-5.6-4.53-8.44-6.75-12.31-9.61-24.78-19-37.24-28.4l-3.03,5.18c19.2,11.07,38.94,21.39,59.6,29.48,12.02,4.71,25.21,9.51,38.3,9.67,6.79.08,15.16-2.07,15.68-10.16.24-3.73-1.32-7.45-3.06-10.65-2.68-4.93-6.34-9.37-10.1-13.52-14.75-16.29-32.9-29.63-50.82-42.16l-2.31,5.48c17.5,3.57,35.14,6.89,52.92,8.71,5.38.55,10.8.98,16.2.87,3.27-.07,6.78-.22,9.89-1.33,2.31-.82,4.49-2.29,5.02-4.84.57-2.73-1.1-5.22-2.87-7.12-6.13-6.6-15.4-10.84-23.31-14.78-17.56-8.75-35.87-16.02-54.2-22.97l-.8,5.89c18.94,1.81,37.91,3.49,56.91,4.56,10.17.57,20.6,1.36,30.78.46,2.18-.19,4.81-.33,6.72-1.55,2.42-1.54,2.35-4.5.34-6.33s-4.91-2.65-7.37-3.49c-4.36-1.49-8.83-2.66-13.3-3.78-18.35-4.61-36.98-8.15-55.57-11.63l-.8,5.89c22.36.36,44.76.45,67.11-.53,12.48-.55,25.43-.98,37.65-3.87,4.42-1.04,14.01-4.71,8.58-10.72-2.02-2.24-5.17-3.43-7.91-4.48-4.8-1.84-9.83-3.12-14.82-4.31-20.84-4.96-42.18-7.96-63.39-10.82v5.79c22.69-3.31,45.4-7.02,67.68-12.47,7.03-1.72,14.03-3.6,20.86-6.01,4.29-1.51,8.72-3.16,12.55-5.64,2.49-1.61,5.31-3.91,5.43-7.15.11-3-2.22-5.18-4.7-6.46-3.74-1.94-8.03-2.82-12.14-3.53-6.68-1.15-13.45-1.74-20.21-2.15-25.3-1.52-50.76-.59-76.04.71l.8,5.89c18.07-5.31,36.16-10.68,53.92-16.99,5.04-1.79,10.06-3.66,14.94-5.84,2.69-1.2,5.73-2.48,7.89-4.55,1.87-1.8,2.56-4.58.45-6.53-1.91-1.78-5.12-1.92-7.56-2.08-10.73-.74-21.75.6-32.41,1.62-22.78,2.17-45.48,5.13-68.16,8.15l1.51,5.59c17.18-7.84,34.27-15.98,50.74-25.25,8.83-4.97,18.49-10.2,25.68-17.49,1.89-1.91,3.96-4.37,4.07-7.2s-1.88-4.79-4.37-5.74c-2.87-1.09-6.19-1.11-9.22-1.02-5.34.16-10.68.93-15.94,1.8-20.53,3.4-40.72,9.01-60.69,14.75l2.31,5.48c15.78-11.72,31.53-23.77,45.75-37.37,4.15-3.97,8.19-8.11,11.71-12.66,2.13-2.76,4.37-5.85,5.18-9.3,1.73-7.34-5.24-9.64-11.19-9.13-11.36.99-22.54,5.67-32.97,9.98-21.93,9.07-43.08,20.01-63.89,31.39l3.64,4.71c12.15-9.87,24.27-19.81,35.93-30.26,3.36-3.01,6.69-6.06,9.85-9.27,1.84-1.87,3.83-3.84,5.2-6.1,1.2-1.97,1.64-4.71-.71-6.1-1.79-1.06-4.03-.33-5.81.36-7.71,3.01-14.89,7.67-21.92,11.97-15.72,9.63-31.06,19.87-46.34,30.19l3.64,4.71c11.48-11.75,22.86-23.62,33.73-35.95,5.62-6.38,11.72-12.93,16.04-20.31,1.04-1.78,2.3-4.07,1.74-6.21-.67-2.57-3.31-3.21-5.6-2.63-2.42.62-4.72,2.04-6.83,3.33-3.77,2.31-7.38,4.89-10.95,7.5-14.21,10.44-27.79,21.75-41.26,33.12l4.71,3.64c9.93-13.97,19.69-28.16,28.12-43.1,2.63-4.67,5.13-9.43,7.18-14.38,1.22-2.95,2.39-6.06,2.6-9.27.16-2.4-.52-4.97-2.74-6.24s-4.77-.64-6.92.23c-8.35,3.35-15.55,10.29-22.1,16.24-14.67,13.32-28.16,27.96-41.32,42.76l4.71,3.64c6.09-11.9,12.09-23.88,17.21-36.23,1.41-3.41,2.78-6.86,3.78-10.42.6-2.14,1.28-4.66.76-6.89-1.41-6-7.59-2.53-10.47-.07-6.37,5.42-11.63,12.32-16.81,18.83-11.1,13.93-21.55,28.39-31.86,42.92l5.48,2.31c3.52-10.83,6.87-21.88,8.6-33.16.84-5.48,2.1-12.64-.63-17.83-2.22-4.22-6.75-4.37-10.58-2.32-5.7,3.05-10.09,8.85-13.94,13.86-8.22,10.7-15.11,22.42-21.62,34.21l5.48,2.31c1.91-13.93,3.7-27.9,4.88-41.92.65-7.77,1.47-15.84.61-23.62-.4-3.65-2.29-10.22-7.4-7.3-1.75,1-2.95,2.93-3.94,4.63-1.72,2.97-3.05,6.16-4.35,9.33-5.31,12.93-9.37,26.39-13.4,39.76l5.89.8c.2-14.39.21-28.83-.86-43.19-.52-6.96-.75-15.04-3.79-21.49-2.21-4.68-6.93-4.68-9.71-.53-3.74,5.6-5.06,13.34-6.48,19.77-3.46,15.7-5.59,31.71-7.52,47.65l5.89-.8c-1.66-12.27-3.45-24.57-6.14-36.66-1.21-5.43-2.32-12.11-5.66-16.74-1.23-1.7-3.11-3-5.3-2.38s-3.19,2.65-3.93,4.54c-2.39,6.12-2.73,13.27-3.28,19.74-1.25,14.74-1.46,29.56-1.51,44.34l5.89-.8c-4.52-11.55-9.36-23.08-15.43-33.92-3.27-5.84-6.99-12.26-12.33-16.48-3.55-2.8-8.29-3.91-11.63-.13-3.76,4.26-4.04,11.34-4.24,16.68-.48,12.87,1.35,25.86,3.34,38.54l5.48-2.31c-7.91-13.23-16.04-26.35-24.95-38.93-5.17-7.29-10.54-15.03-17.31-20.96-3.21-2.81-9.18-6.7-12.42-1.66s-.93,12.64.14,17.67c3.16,14.88,8.42,29.36,13.66,43.61l5.01-2.92c-10.29-10.49-20.83-20.91-32.45-29.94-5.33-4.14-12.14-9.88-19.24-10.34-5.56-.36-7.94,4.5-7.56,9.41.62,8.1,4.4,16.04,7.79,23.29,6.95,14.84,15.41,28.98,24.1,42.86l4.1-4.1c-12.97-6.78-26.16-13.2-39.78-18.59-8.64-3.42-17.65-6.7-26.93-7.79-4.54-.53-10.84-.52-13.32,4.14-2.66,5,1.27,11.25,4.09,15.24,7.51,10.64,17.52,19.58,27.27,28.1l3.64-4.71c-17.81-8.5-35.75-16.77-54.01-24.26-10.67-4.38-21.62-8.95-32.93-11.43-4.03-.89-13.69-2.7-13.57,4.2.05,2.74,2.04,5.19,3.71,7.17,2.78,3.29,6.08,6.16,9.35,8.94,14.43,12.23,30.23,22.91,45.9,33.45l2.31-5.48c-17.62-4.57-35.36-8.97-53.33-11.99-5.58-.94-11.2-1.77-16.85-2.13-3.34-.21-6.89-.35-10.18.45-2.3.56-4.6,1.87-5.18,4.34-.62,2.65,1.11,5.08,2.83,6.9,2.53,2.67,5.72,4.81,8.79,6.8,4.68,3.04,9.57,5.75,14.5,8.35,17.72,9.35,36.15,17.35,54.6,25.1l.8-5.89c-18.7-.72-37.43-1.17-56.14-.59-10.93.34-22.3.69-32.98,3.29-4.42,1.08-12.19,3.66-10.28,9.76.82,2.62,3.38,4.46,5.59,5.84,3.57,2.23,7.57,3.83,11.49,5.32,16.63,6.36,34.21,10.42,51.52,14.39l.8-5.89c-24.18,1.47-48.4,3.56-72.31,7.52-13.68,2.26-28.18,4.74-40.77,10.83-5.53,2.67-13.02,8.33-8.56,15.19,2.07,3.18,5.69,5.2,9.04,6.74,5.5,2.53,11.35,4.27,17.21,5.73,23.52,5.89,48,8.27,72.1,10.3l-.8-5.89c-19.87,6.79-39.78,13.9-58.76,22.93-5.5,2.62-10.98,5.41-16.05,8.81-3.19,2.14-6.57,4.58-8.68,7.86-1.56,2.44-2.09,5.5-.49,8.07,1.71,2.76,5.03,4.12,8,5.02,11.05,3.33,23.59,2.84,34.98,2.57,24.12-.56,48.21-3.14,72.14-6.09l-1.51-5.59c-17.44,10.14-34.72,20.76-50.88,32.88-8.85,6.64-18.82,13.92-24.82,23.45-1.63,2.6-3.06,5.82-2.37,8.96s3.06,4.88,5.84,5.86c3.55,1.24,7.61,1.18,11.31.94,6.1-.4,12.16-1.54,18.12-2.87,22.84-5.11,45.05-13.24,66.87-21.6l-2.92-5.01c-11.43,11.99-23.03,24.02-33.16,37.15-2.47,3.2-5.02,6.51-6.75,10.19-1.12,2.39-2.18,5.36-.72,7.85,3.15,5.36,12.45,1.53,16.69.01,11.69-4.19,22.94-9.75,34.11-15.13,19.72-9.5,39.29-19.29,58.99-28.85l-4.1-4.1c-8.47,13.13-16.6,26.59-23.29,40.73-4.03,8.5-8.22,17.71-9.05,27.21-.48,5.48,1.29,11.6,7.5,12.49,7.4,1.07,15.36-4.22,21.19-8.07,15.17-10,28.67-22.66,41.68-35.27l-5.01-2.92c-2.8,14.33-5.79,29.27-5.4,43.95.16,5.94.86,15.16,7.63,17.43,6.16,2.07,12.71-3.11,17.12-6.74,8.63-7.1,16.01-15.79,23.17-24.31,11.54-13.72,22.45-27.97,33.34-42.21l-5.59-1.51c-1.6,12.75-3.1,25.54-4.02,38.36-.45,6.32-1.18,13.03-.15,19.33.26,1.61.8,3.37,2.32,4.22,2.13,1.2,4.2-.13,5.41-1.9,3.02-4.42,4.29-10.54,5.71-15.6,3.81-13.55,6.8-27.34,9.71-41.11h-5.79c1.67,11.79,3.45,23.73,6.71,35.21,1.25,4.4,2.83,11.47,7.33,13.82,11.03,5.76,12.73-26.88,13.14-31.17,1.49-15.64,1.9-31.39,2.01-47.1h-6c.79,7.63,1.61,15.25,2.52,22.87.2,1.7.41,3.41.63,5.11.15,1.11.13,2.71,1.08,3.52,2.03,1.72,4.93.56,5.12-2.12.09-1.23-.31-2.66-.47-3.87-.48-3.62-.99-7.24-1.51-10.85-1.96-13.44-4.14-26.84-6.44-40.23-.5-2.92-5.2-2.81-5.79,0-1.06,5.06-2.09,10.13-2.99,15.23-.3,1.71-.84,3.63-.84,5.38s1.37,2.88,3,3h0c1.33.1,2.53-1.01,2.89-2.2.43-1.41.45-3.05.61-4.51.42-3.61.71-7.24.93-10.87.74-12.18.59-24.41-.4-36.57-.14-1.78-1.82-3.62-3.8-2.89-6.44,2.36-12.15,6.35-18.26,9.41-1.44.72-2.48,1.21-3.73,1.66-.6.21-1.21.4-1.83.56-.28.07-.56.13-.84.17-.06,0,.42-.08-.2,0-.11.01-.9.08-.4.02.47-.06-.16.03-.31-.1.63.54-.09-.18.27.15.09.08.12-.05.13.16-.01-.44-.18-.14-.21-.54,0,.05-.02-1.23.02-1.72.5-5.85,3.88-12.52,6.42-17.98,1.62-3.49-2.98-6.25-5.18-3.03-.38.55-.77,1.1-1.14,1.66-.63.95,0-.05.51-.33l4.1,1.08h0c.1.76.2,1.53.3,2.3.03-.21-.49.8-.13.29.17-.23.28-.57.41-.82.5-1.01,1.01-2.02,1.5-3.04,1.69-3.48,3.25-7.02,4.73-10.59,2.03-4.9,3.84-9.88,5.43-14.94.8-2.54,2.5-6.02,2.07-8.69-.3-1.85-1.18-3.74-1.91-5.44-3.28-7.65-8.59-14.49-14.55-20.24-4.87-4.7-10.71-9.46-17.29-11.46-2.66-.81-5.76-1.06-8.25.4-2.72,1.61-3.65,4.67-3.81,7.65l3-3c-13.2-.59-27.95-.55-40.41,4.52-3.02,1.23-6.52,2.9-8.11,5.93s-.32,5.95,2.23,7.74c3.77,2.64,9.05,3.02,13.48,3.27v-6c-17.58.54-35.69.3-52.97-3.37-2.28-.48-4.56-1.03-6.78-1.76-.55-.18-1.81-.65-1.86-.67.07.03-.95-.49-1.35-.7-.53-.29.18.42-.02,0-.25-.53.26.62.17.24.23,1.04.56,1.4,0,2.45-.08.15-.93,1.13-.6.71-.47.61-.64.05-.05.08.21.01.52-.1.74-.14-.93.17.11,0,.35,0,.47-.02.94-.04,1.41-.05,6.6-.06,13.27,1.22,19.72,2.48l.8-5.89c-12.94-.04-25.91.1-38.83.96-7.01.47-14.45.82-21.23,2.81-3.39,1-8.35,4.19-4.65,8.09,3.15,3.33,9.54,4.03,13.76,4.83,12.44,2.38,25.14,3.54,37.75,4.59l-.8-5.89c-12.13,2.54-24.28,5.26-36.12,8.97-5.66,1.77-12.65,3.58-17.22,7.6-3.55,3.12-2.17,7.32,1.98,8.89,5.63,2.13,12.57,1.8,18.48,1.75,14.19-.13,28.37-1.52,42.46-3.11l-.8-5.89c-9.24,3.23-18.5,6.45-27.57,10.14-3.46,1.41-8.91,2.87-11.33,6-1.32,1.71-.97,4.1.96,5.2,1.36.78,3.13.72,4.65.67,6.25-.21,12.54-1.39,18.69-2.4,12.73-2.08,25.4-4.48,38.07-6.89l-2.31-5.48c-7.92,3.99-15.72,8.36-22.79,13.75-3.88,2.96-8.25,6.39-10.5,10.85-1.57,3.12-1.51,6.94,1.85,8.83,3.64,2.05,8.7.96,12.49.04,8.79-2.13,17.17-6.16,25.16-10.3,3.43-1.78.4-6.96-3.03-5.18-6.45,3.34-13.06,6.47-20,8.65-2.27.71-4.61,1.37-6.98,1.71-.74.1-1.5.16-2.25.18-.38,0-.75,0-1.12-.02-.71-.04.06.05-.58-.07-.28-.05-.54-.15-.81-.22.53.15.19-.04-.04-.05-.08,0,.02.25-.03-.05-.02-.09.29.46.26.44,0,0,0-.25-.01-.12.14-.85.06-.47.46-1.17,1.97-3.47,5.45-6.28,8.65-8.7,6.91-5.24,14.57-9.48,22.29-13.38,3.21-1.62.85-6.08-2.31-5.48-16.99,3.23-34.12,6.99-51.34,8.78-1.74.18-3.47.28-5.21.3-.25,0-.5-.02-.75-.05,1.14.11.27.09.06-.03.19.1.74.32,1.09.82.5.71.68,1.36.46,2.31-.28.6-.36.78-.24.56.02-.03.04-.07.06-.1-.03-1.18-.48.87-.28.39.02-.04.27-.22.26-.24.05.12-.7.44,0,.03.66-.39,1.32-.77,2.01-1.12,1.96-1,4-1.85,6.04-2.68,9.07-3.69,18.33-6.91,27.57-10.14,2.97-1.04,2.78-6.3-.8-5.89-12.12,1.37-24.29,2.54-36.48,2.97-4.03.14-8.07.21-12.1.07-2.69-.09-5.55-.26-7.77-.67-.89-.16-1.75-.38-2.61-.66s.46.12-.3-.13-.26-.29-.21-.1c-.17-.71.41.92.32.6.17.58,0,.57.03.89.05.79-.27.01.04.07,0,0-.56.63-.08.15.14-.14.29-.29.45-.42.15-.11.53-.4-.06.04.18-.13.36-.27.55-.38.36-.22.71-.45,1.08-.65,1.1-.63,2.25-1.17,3.42-1.67,2.91-1.25,6.07-2.31,9.14-3.28,12-3.79,24.33-6.56,36.64-9.13,3.51-.73,2.38-5.63-.8-5.89-10.56-.88-21.14-1.87-31.61-3.57-3.31-.54-6.63-1.14-9.88-1.96-1.05-.26-2.1-.55-3.12-.89-.42-.14-.83-.28-1.24-.44-.75-.29.55.27-.13-.05-.18-.09-.36-.17-.54-.26-.27-.14-.52-.36-.8-.48.35.16.13-.11.39.43s.06,1.66-.36,2.32c.31-.48-.6.35-.02,0,.23-.14.47-.26.72-.38.59-.3-.67.25,0,0,.13-.05.27-.11.41-.15.48-.14.94-.3,1.42-.43,5.98-1.62,12.36-1.99,18.51-2.41,13.12-.9,26.3-1.05,39.45-1,3.29.01,4.2-5.23.8-5.89-2.84-.55-31.18-7.17-28.72,2.38.87,3.39,6.02,4.57,8.85,5.37,6.75,1.91,13.79,2.86,20.75,3.6,12.87,1.37,25.84,1.58,38.76,1.19,3.88-.12,3.84-5.78,0-6-1.94-.11-3.88-.28-5.78-.68-1.34-.28-2.93-.77-3.64-1.14-.22-.11-.44-.24-.65-.38-.5-.31.34.26-.11-.06-.16-.12-.29-.28-.42-.42.44.47.06.2-.01-.13.18.77.25.27.11.91.03-.13.04-.39.13-.49-.44.49-.12.15.12-.1.37-.4-.35.37.06-.06.16-.17.33-.34.51-.5.13-.11.6-.48.22-.19.27-.21.57-.39.86-.57,1.24-.78,2.58-1.38,3.95-1.88,4.39-1.61,9.07-2.52,13.7-3.09,7.88-.98,15.85-1.04,23.77-.68,1.68.08,2.92-1.44,3-3,.04-.78.26-1.72.46-2.06.22-.37.3-.43.73-.56.18-.05,1.24-.11,1.53-.07,1.11.15,2.23.53,3.26.96,5.85,2.44,10.95,7,15.27,11.53,4.92,5.16,9.46,11.23,11.89,18,.23.64.76,1.69.75,2.36,0,0-.69,1.92-.87,2.54-.79,2.69-1.64,5.36-2.55,8-1.48,4.29-3.11,8.54-4.92,12.71-1.27,2.92-2.62,5.81-4.04,8.67-.74,1.5-2.43,3.87-1.19,5.51,1,1.32,2.54,1.94,4.1,1.08,1.2-.66,2.03-2.39,2.78-3.49l-5.18-3.03c-2.8,6.01-5.91,12.39-6.98,19-.53,3.29-.53,7.36,2.76,9.25,2.69,1.55,6.1.61,8.78-.45,3.66-1.44,7.1-3.37,10.52-5.29s7.46-4.3,10.63-5.46l-3.8-2.89c.97,11.95,1.14,23.97.44,35.94-.21,3.61-.49,7.21-.89,10.8-.06.55-.12,1.09-.19,1.64-.03.27-.07.54-.1.81-.11.82.09-.62-.01.07-.05.36-.07.74-.18,1.09l2.89-2.2h0c1,1,2,2,3,3,0-.26.19-.3-.01.02-.25.4.04-.23.09-.6.19-1.21.4-2.42.61-3.63.88-4.95,1.88-9.88,2.92-14.8h-5.79c2.27,13.21,4.42,26.44,6.36,39.7.48,3.29,1.06,7.33,1.41,10.06.15,1.13.52,2.45.44,3.6l5.12-2.12c-.2-.17,1.16,1.74.74,1.18-.04-.05,0-.34-.05-.35-.08-.02-.11-.79.02.15-.04-.27-.07-.55-.11-.82-.24-1.84-.46-3.68-.68-5.53-.86-7.29-1.64-14.58-2.4-21.88-.39-3.76-5.97-3.95-6,0-.09,13.35-.43,26.72-1.41,40.04-.62,8.36-1.35,16.82-3.22,25.02-.31,1.38-.66,2.76-1.1,4.11s-.5,1.65-.98,2.54c-.17.31-.34.61-.52.91-.4.68.37-.33-.28.35-.2.21.32-.15.45-.13.41.06.74.06.64.11-.16.09-.55-.83.19.17-.09-.12-.25-.22-.36-.33-.64-.72.07.23-.38-.46-.26-.4-.51-.82-.74-1.24-1.19-2.2-1.96-4.66-2.74-7.32-3.46-11.74-5.25-24.01-6.96-36.1-.42-2.96-5.2-2.76-5.79,0-2.47,11.69-5.03,23.38-8.04,34.95-.99,3.79-2.02,7.57-3.18,11.31-.43,1.38-.88,2.76-1.37,4.13-.18.52-.37,1.03-.57,1.54-.25.64-.4,1.01-.44,1.09-.31.69-.67,1.35-1.04,2.01s-.07.07-.03.06c-.05,0-.19.19-.23.22.56-.41.25-.37.97-.56.81-.23,1.78.13,2.31.56-.06-.05.6.67.31.38-.22-.22.04-.58.11.3-.03-.35-.43-2.09-.32-1.23-.74-5.74-.13-11.79.27-17.53.91-13.02,2.43-26,4.06-38.95.42-3.34-4.05-3.52-5.59-1.51-9.25,12.09-18.54,24.17-28.21,35.94-7.22,8.8-14.6,17.59-22.9,25.4-2.78,2.61-5.43,4.96-8.56,6.95-.6.38-1.21.75-1.84,1.08-.73.39-1.33.66-1.46.71-.52.19-1.05.36-1.59.5-.26.07-.53.12-.8.16.65-.1.22-.03-.16-.02-.24,0-.48,0-.73-.02-.52-.02.73.12-.06-.03-.19-.04-.4-.09-.57-.17.3.14.35.21-.12-.1-.21-.14-.73-.6-.1-.03-.16-.14-.33-.27-.46-.43-.43-.51-.16-.16-.14-.13-.18-.25-.35-.51-.5-.78-.13-.22-.24-.45-.36-.68-.32-.64.09.33-.16-.38s-.47-1.45-.65-2.2c-.41-1.77-.52-2.83-.64-4.71-.98-14.82,2.26-30.11,5.09-44.56.56-2.86-2.76-5.1-5.01-2.92-11.33,10.98-22.99,21.86-35.81,31.11-3.95,2.85-8.03,5.57-12.37,7.78-1.61.82-2.77,1.35-4.38,1.91-.68.23-1.37.44-2.06.61-.3.07-.59.13-.89.19-.87.18.16.03-.51.08-.54.04-1.07.05-1.61.02-.63-.03-.06,0-.07,0-.27-.06-.53-.11-.79-.2-.59-.2.06.03,0,0-.15-.05-.38-.18-.51-.29-.32-.28.56.43-.04-.04-.17-.13-.33-.32-.46-.49.58.75-.17-.37-.31-.66.31.64-.12-.51-.24-.96-.07-.29-.13-.77-.05-.17-.04-.31-.07-.62-.08-.93-.03-.68-.03-1.37,0-2.05.15-2.89,1.06-6.46,2.1-9.73,1.46-4.62,3.32-9.1,5.35-13.49,6.83-14.8,15.3-28.84,24.13-42.52,1.75-2.71-1.59-5.32-4.1-4.1-17.03,8.26-33.98,16.69-50.99,24.98-11.64,5.67-23.28,11.46-35.28,16.33-3.64,1.48-7.34,2.92-11.16,3.89-.66.17-1.33.31-2,.44-.26.05-.53.09-.8.13.97-.14-.16,0-.38.01-.44,0-.87,0-1.31-.01-.19,0,.71.29.03-.02s.21.22.09.07c-.16-.19.05.07.27.39-.3-.43-.02.02.09.29-.21-.49-.07-.33-.02.18,0-.08-.07-.54,0-.6.24-.2-.18.76-.01.12.15-.54.29-1.06.48-1.58.15-.4-.24.49.09-.19.16-.33.32-.66.49-.99.35-.68.74-1.34,1.14-1.99,1.08-1.76,2.28-3.46,3.51-5.12,10.09-13.61,22.21-25.88,33.88-38.12,1.92-2.01.03-6.15-2.92-5.01-19.28,7.39-38.81,14.43-58.81,19.64-6.4,1.67-12.88,3.18-19.44,4.09-4.03.56-8.28.96-12.36.44.81.1-.4-.07-.56-.11-.34-.07-.68-.14-1.02-.24-.28-.08-.55-.17-.83-.25-.89-.27.33.23-.34-.14-.23-.13-.47-.26-.7-.39-.68-.38.53.36-.1-.07-.16-.11-.33-.29-.44-.45.62.89-.07.06-.02-.11s.14.04,0-.02-.14-1.39-.06,0c-.01-.21-.01-.43-.03-.64-.06-.81-.03-.09-.01-.2.12-.58.28-1.12.47-1.68.12-.35-.26.49.12-.28.18-.35.35-.71.54-1.05,1.89-3.4,4.29-5.9,7.28-8.84,4.25-4.19,8.87-8,13.59-11.64,16.78-12.93,34.98-24.06,53.27-34.69,2.39-1.39,1.57-5.97-1.51-5.59-20.97,2.59-42.02,4.82-63.13,5.78-12.43.57-25.82,1.17-37.87-1-1.77-.32-3.54-.71-5.24-1.28-.38-.12-.75-.26-1.11-.4-.33-.13.34.19-.38-.17-.6-.3-1.17-.61-1.72-.99-.37-.25.55.44-.09-.09-.17-.14-.32-.32-.47-.48-.12-.13.28.62-.02-.07-.27-.62-.09.04-.02,0,.31-.17-.96-1.15-.05.04-.06-.08-.04-.6,0-.66-.76,1.26.66-1.36.07-.17.24-.48.51-.92.8-1.36.09-.13-.27.28.28-.35.25-.28.5-.56.76-.82,1.37-1.41,2.54-2.31,3.89-3.27,4.42-3.15,9.25-5.73,14.1-8.14,19.45-9.68,40.15-16.94,60.67-23.95,3.27-1.12,2.58-5.61-.8-5.89-21.18-1.78-42.46-3.99-63.27-8.42-6.4-1.36-12.79-2.93-18.95-5.16-2.22-.8-3.82-1.45-5.94-2.56-.82-.43-1.62-.89-2.4-1.39-.33-.21-.65-.44-.96-.67.3.22-.13-.08-.48-.4-.33-.3-1.31-1.38-1.16-1.18.21.29-.83-1.54-.37-.6-.09-.19-.17-.46-.19-.68-.02-.16.22.72.03-.08-.18-.76-.09.52-.01-.02.04-.24.11-.53.22-.75-.6,1.21.76-1.04.42-.6-.32.41.3-.33.41-.44.25-.25.51-.5.78-.74.15-.14.32-.27.48-.4-.55.45-.14.11,0,0,.32-.23.64-.45.96-.67.77-.5,1.56-.96,2.37-1.39,10.46-5.53,23.79-7.89,35.67-10.02,24.98-4.48,50.38-6.62,75.69-8.16,3.22-.2,4.26-5.1.8-5.89-15.28-3.5-30.59-7.2-45.45-12.22-4.3-1.45-8.59-3-12.67-5-1.41-.69-2.8-1.44-4.11-2.31-.27-.18-.53-.36-.79-.55-.41-.3.35.33-.25-.2-.37-.33-.73-.67-1.06-1.04.3.33-.1.07-.28-.51.09.28.29.68.1.18s.04.81.02.16-.14.55-.03.24c.18-.55-.16.34-.11.23.09-.21.44-.47.07-.17-.48.4.15-.16.23-.21.61-.34-.35.21,0-.02.17-.11.33-.24.51-.33.5-.27,1-.54,1.52-.77-.62.27.87-.31,1.21-.42.76-.25,1.54-.47,2.32-.66,9.57-2.44,19.77-2.75,29.58-3.11,19.45-.72,38.95-.24,58.39.51,3.67.14,3.67-4.68.8-5.89-15.94-6.7-31.8-13.66-47.24-21.45-8.51-4.29-18.45-9.25-25.41-14.91-1.04-.85-2.02-1.75-2.94-2.72-.17-.18-.33-.38-.49-.57.37.46.19.24-.03-.07-.11-.16-.2-.35-.31-.51-.31-.47-.14.44-.01,0,.03-.09-.09-.34-.11-.45.04.31.07.8.08.28-.01.3-.18.82,0,.32-.28.82,0,.15-.25.5-.46.69.1-.15.14-.08.29.41-.81.04-.1.13.01,0,1.18-.47-.08,0,.22-.08.45-.18.68-.23.49-.11.97-.23,1.46-.32.74-.13-.52.04.28-.03.4-.04.81-.07,1.21-.1,1.63-.1,3.28-.07,4.91.01,4.81.22,9.59.87,14.34,1.63,18.7,2.99,37.16,7.59,55.47,12.34,3.38.88,5.09-3.61,2.31-5.48-13.74-9.24-27.49-18.61-40.41-28.99-3.75-3.01-7.46-6.11-10.88-9.5-2.24-2.23-3.48-3.36-4.71-5.89.42.86-.12-.08-.08-.47-.03.27.06.83.07.27,0-.2-.22.85,0,.25-.29.8-.21.61-.75,1.02.3-.23.43-.02.11-.1-.73-.17.23.25.22-.03,0-.08,1.05-.12-.03-.02.21-.02.43-.05.64-.05.57,0,1.13,0,1.7.04.29.02.58.05.87.08.7.07-.39-.08.51.07.81.14,1.62.29,2.42.46,10.2,2.19,20.09,6.2,29.73,10.08,18.99,7.64,37.59,16.26,56.06,25.07,2.87,1.37,6.38-2.32,3.64-4.71-8.45-7.38-16.89-15.05-23.98-23.79-2-2.47-3.91-5.1-5.32-7.96-.46-.93-.64-1.34-.99-2.65-.06-.22-.1-.44-.14-.66-.11-.59.07.54,0-.03-.02-.19-.02-.39-.01-.58.03-.78,0,.36-.02-.1,0-.14.07-.37.12-.49.2-.43-.1.56-.06.11.01-.1.17-.35.24-.41-.35.32-.3.36,0,.05.13-.14.69-.46.93-.53.46-.13.92-.24,1.39-.33.14-.03-.44.03.17-.02.3-.03.61-.05.91-.06,1.26-.06,2.53.02,3.79.14,7.63.75,15.95,3.79,23.33,6.6,14.09,5.37,27.68,12.04,41.03,19.03,2.54,1.33,5.77-1.44,4.1-4.1-7.47-11.92-14.69-24.03-21.04-36.58-3.81-7.54-7.72-15.43-9.56-23.73-.37-1.66-.43-1.93-.5-3.29-.02-.48,0-.96,0-1.45,0-.42.09-.66-.01-.09.04-.24.09-.47.15-.71.05-.19.11-.37.18-.56.07-.2-.27.68-.04.15.28-.62-.11-.05-.1.06,0-.06.34-.4.39-.4-.16,0-.61.44-.15.15.53-.35-.24.11-.13.03.07-.05.4-.16.51-.14.37.05-.74.02,0,.01.52,0,1.11.07.59-.01.55.09,1.08.22,1.61.38,1.41.43,1.71.59,3.16,1.34,3.4,1.75,6.57,3.98,9.62,6.28,12.01,9.04,22.77,19.85,33.27,30.56,2,2.04,6.08-.03,5.01-2.92-4.56-12.41-8.99-24.95-12.28-37.77-.96-3.74-1.96-8.05-2.41-11.59-.17-1.36-.29-2.73-.29-4.1,0-.53.03-1.05.06-1.57.04-.62-.03.1,0-.04.05-.25.1-.5.15-.74.04-.17.1-.33.15-.49.18-.63-.04.49-.03.08,0-.1.16-.28.21-.36-.26.39-.41.4-.06.13-.15.12-.6.49-.23.19.3-.24-.74.26-.23.11s-.51.04-.32.03c.26-.02.62.14.2-.02-.54-.21.43.14.64.22-.87-.37.35.2.63.37,1.28.75,1.33.86,2.28,1.69,6.07,5.27,10.93,12.08,15.58,18.58,9.27,12.95,17.68,26.53,25.85,40.19,1.85,3.1,5.99.91,5.48-2.31-1.66-10.57-3.03-21.27-3.17-31.99-.05-3.5,0-7.06.48-10.53.15-1.1.37-2.21.64-3.28s.64-2.15.88-2.61c.19-.36.38-.71.6-1.04.13-.2-.25.19.33-.37s-.41.18.28-.22c.45-.26-.37-.15.43-.13-1.13-.02.13.02.27.05-1.01-.26.19.06.35.13.76.32-.27-.23.5.23.44.26.88.52,1.29.82,3.95,2.88,7.71,9.18,10.41,13.9,6.11,10.68,10.95,22.09,15.42,33.54,1.17,3,5.88,2.81,5.89-.8.05-12.64.25-25.29,1.04-37.91.45-7.16.85-14.52,2.58-21.51.23-.94.5-1.87.83-2.77.1-.26-.14.28.18-.4.07-.16.17-.3.25-.45.37-.74.08.1-.04,0-.13-.11.86-.18-.08.01-.37.08-.78.28-1.49.15.56.1-.67.04-.15-.05-.17.03-.65-.54-.22-.14.17.15.57.73.03-.02,1.26,1.73,1.47,2.66,2.12,4.57,1.07,3.13,1.87,6.35,2.6,9.57,2.85,12.42,4.67,25.08,6.38,37.7.2,1.47,1.99,2.33,3.29,2.15,1.59-.21,2.42-1.44,2.6-2.95,1.63-13.45,3.48-26.9,6.09-40.2.87-4.46,1.83-8.91,3.01-13.29.45-1.66.93-3.32,1.47-4.95.22-.66.45-1.32.69-1.98s.48-1.25.55-1.38c.4-.9.86-1.75,1.37-2.59.46-.76-.09.35.27-.34.33-.64-.03-.09.16-.15-.67.23-1.19.23-1.9-.27.57.4.17.13.16.12.2.33.38.66.56,1,.27.53-.05-.14.03.05.08.22.17.43.24.65.18.55.35,1.09.5,1.65.36,1.33.64,2.69.88,4.05.67,3.76,1.03,7.57,1.33,11.38,1.15,14.64,1.13,29.37.93,44.04-.05,3.43,4.93,4.01,5.89.8,3.48-11.58,7.07-23.15,11.33-34.47,1.26-3.35,2.57-6.69,4.12-9.92.51-1.06,1.04-2.12,1.63-3.14.26-.45.53-.88.81-1.32.12-.19.25-.37.38-.56.33-.47-.37.49.13-.17.18-.23.41-.43.62-.64-.31.3-.45.2.06,0-1.09.41-1.82.18-2.54-.62.09.11.31.42.32.56-.07-.96,0,.02.08.37.09.4.18.81.26,1.21.18.94.05.17.13.95.66,7.02.08,14.18-.46,21.19-1.11,14.21-2.9,28.37-4.84,42.48-.42,3.1,3.69,5.56,5.48,2.31,5.54-10.04,11.37-19.96,18.01-29.32,3.82-5.39,7.97-11.07,13.21-15.17,1.23-.96,2.57-1.76,3.85-2.03-.93.19.08-.04.36.04-.93-.25.34.16-.13,0-.17-.06.25.21-.02,0,.68.54-.04-.21.3.39.37.65.14.21.22.43.13.38.24.77.34,1.17.26,1.1.26,1.36.32,2.79.11,2.89-.17,5.8-.58,8.65-1.67,11.46-5.1,22.69-8.68,33.68-1.12,3.43,3.62,4.93,5.48,2.31,8.7-12.27,17.51-24.47,26.72-36.36,5.6-7.23,11.29-14.52,17.72-21.05.97-.98,1.96-1.95,3-2.86,1.09-.95.72-.68,1.93-1.48.18-.12,1.08-.65.61-.37s-.09-.02.07,0c.67.05-.36-.03-.27,0-.54-.17-1.34-.51-1.69-1.36.28.68.08-.66.04.1-.02.34-.02.69-.04,1.04-.02.48.12-.64,0,.07-.04.21-.07.43-.12.64-.12.57-.25,1.13-.4,1.7-.83,3.15-2.01,6.21-3.22,9.22-5.02,12.49-11.18,24.56-17.31,36.53-1.48,2.88,2.33,6.31,4.71,3.64,11.46-12.88,23.19-25.57,35.66-37.48,6.97-6.65,14.22-13.65,22.56-18.58.62-.37,1.25-.72,1.89-1.04.25-.13.51-.25.76-.37.8-.38-.29.07.49-.21.44-.16.89-.27,1.34-.41.13-.04.91-.14.31-.08-.73.07.3-.02.31,0,0,0,.28.02.26.01-.14-.02-.64-.23-.43-.05.62.53-.36-.47-.18-.13.14.27-.04-.09-.26-.4.56.78-.35-.38.13.27.31.43,0-.33,0-.1.01.21.03.42.03.64,0,.24-.02.47-.03.71-.04.82.08-.35-.01.18-.11.65-.25,1.28-.41,1.92-.4,1.52-.93,3-1.51,4.46-1.59,4.03-3.82,8.26-5.99,12.21-8.62,15.64-18.83,30.43-29.16,44.97-2.1,2.95,2.28,5.69,4.71,3.64,11.62-9.8,23.32-19.54,35.44-28.74,6.14-4.66,12.43-9.65,19.38-13.08.22-.11.43-.2.65-.3.08-.04-.54.19.04,0,.35-.12.71-.22,1.06-.33.7-.22-.73-.07.06.02-.64-.07-1.23-.19-1.86-1.14-.07-.11-.29-1.18-.26-.81-.07-.64.12-.51-.1.14-.28.85.3-.46-.18.44-.24.44-.46.89-.71,1.32-3.82,6.59-9.21,12.4-14.21,18.1-11.14,12.72-22.87,24.94-34.68,37.03-2.31,2.36.73,6.68,3.64,4.71,13.27-8.97,26.61-17.85,40.18-26.37,7.76-4.88,15.59-9.84,23.82-13.89,2.24-1.1,2.74-1.44,5.14-2.02-.58.14,0,.1-.33.01-.72-.19-1.59-.61-1.95-1.75-.09-.28,0-1.37-.06-.95.08-.51.23-.37-.16.22-.21.32-.42.63-.64.93-.29.41.37-.45-.07.09-.19.23-.37.45-.56.68-.9,1.06-1.86,2.07-2.84,3.07-2.86,2.93-5.88,5.72-8.92,8.46-12,10.85-24.54,21.11-37.09,31.31-2.72,2.21.75,6.29,3.64,4.71,18.06-9.88,36.38-19.38,55.23-27.69,11.17-4.92,22.8-9.91,34.83-12.29,2.09-.41,2.73-.54,4.77-.65.67-.03,1.34-.03,2.01-.01.33,0,.66.04.98.08-.95-.11.01,0,.26.07s.52.15.77.22c.74.21-.59-.1.02.01.14.02.41.21.52.31-1.04-1.02,0,.07,0,.07.1-.3-.51-.46-.09-.07.31.29-.01-.49-.02-.04-.01.5.03.27.01-.17.01.28.03.55.01.84-.05.73.12-.51,0-.03-.07.28-.12.55-.2.83s-.18.53-.27.8c-.06.18-.27.63.04-.06-.09.2-.17.39-.27.59-.76,1.47-1.61,2.87-2.58,4.22-2.64,3.7-6.33,7.56-9.8,11-14.39,14.25-30.65,26.66-46.87,38.71-2.56,1.9-1.2,6.49,2.31,5.48,17.66-5.07,35.44-9.92,53.48-13.44,5.5-1.07,11.03-2.04,16.61-2.57,2.05-.19,4.12-.33,6.18-.35.75,0,1.49,0,2.24.05.38.02.75.05,1.12.08.52.04.99.13.55.06.55.09,1.08.22,1.62.35.22.05.43.14.64.21.23.08-.66-.09.1.07.04,0,.88.38.25.12-.44-.18-.02-.03.13.17.04.05-.44-.72-.23-.29.14.29-.23-.91-.05-.2.14.55.03-.81.03-.21,0,.17-.1.41-.16.57-.08.2.35-.56-.06.09-.27.42-.51.84-.81,1.25.19-.26.15-.16-.23.26-.25.28-.5.56-.76.83-6.22,6.55-14.88,11.23-22.82,15.77-17.05,9.75-34.85,18.22-52.72,26.37-2.62,1.19-1.41,5.98,1.51,5.59,19.77-2.64,39.56-5.19,59.4-7.27,11.98-1.26,24.06-2.58,36.12-2.63,1.72,0,3.45.02,5.17.14.3.02.6.05.91.07.15.01,1.14.13.62.06-.28-.04.92.18,1.29.25.2.04.4.12.6.17.63.14-.15-.13-.11-.07.04.08.27.13.35.19.18.13-.6-.63-.23-.15-.56-.73-.67-1.15-.56-2.1.02-.15.18-.37.26-.45-.26.25-.52.5-.8.74.77-.65-.63.39-.97.6-1.25.76-2.58,1.41-3.9,2.03-4.07,1.91-8.37,3.51-12.77,5.1-18.42,6.67-37.25,12.22-56.03,17.75-3.15.93-2.68,6.07.8,5.89,22.38-1.15,44.85-1.91,67.26-1.12,11.67.41,24.31.59,35.54,4.25.39.13.77.26,1.15.4.2.07,1.3.55.52.19.64.29,1.23.62,1.84.96.95.53-.21-.25.69.55.5.45.01-.03.01-.03,0,.02.13.2.12.2.29.51-.06-.37-.09-.26,0,.02.14.97.08.17-.05-.71-.08.01-.04.13-.15-.47-.09-.71-.03-.15-.08-.71.4-.13-.06.05-.48.19-.02.07-.02.07-.17.19-.34.39-.53.57-.21.2-.42.39-.64.58-.53.47.39-.23-.47.36-3.46,2.36-6.97,3.75-10.73,5.12-6.09,2.22-12.34,3.97-18.61,5.57-23.34,5.96-47.22,9.84-71.03,13.31-2.85.42-2.88,5.4,0,5.79,18.89,2.55,37.8,5.3,56.45,9.26,5.69,1.21,11.38,2.52,16.95,4.23,3.63,1.12,5.99,1.88,8.94,3.62.22.13.42.28.63.42.3.2-.57-.48.08.08.14.12.28.26.4.41.35.42-.62-.58-.06-.03-.13-.12-.18-.53-.17-.57.18-1.24-.24.15.26-.93-.22.48-.11.23.16-.12-.03.04-.34.41-.39.39-.12-.04.61-.37.05-.05-.48.28-.95.54-1.46.78.6-.28.18-.07-.16.05s-.66.24-.99.35c-.77.25-1.55.47-2.33.67-10.8,2.74-22.32,3.13-33.4,3.69-23.49,1.17-47.04,1.07-70.55.69-3.3-.05-4.19,5.26-.8,5.89,16.35,3.06,32.7,6.22,48.9,10.01,5.04,1.18,10.07,2.41,15.04,3.86,1.79.52,3.57,1.06,5.33,1.68.65.23,1.3.47,1.95.72.19.07,1.05.44.32.12.24.11.49.21.73.33.4.2.79.41,1.19.61.16.08.3.2.46.29.57.34-.45-.53-.09-.06s-.34-.65-.35-.7c-.23-.99.2-1.74.53-2.24-.14.21.73-.65.27-.23-.33.29.02,0,.3-.11-.39.14-.78.25-1.18.35-.47.11-.94.18-1.42.25.71-.11.04,0-.26.03-.36.03-.71.07-1.07.1-9.34.8-18.87.15-28.2-.34-19.82-1.05-39.61-2.81-59.36-4.69-3.6-.34-3.73,4.78-.8,5.89,15.86,6.01,31.65,12.31,47,19.56,8.46,4,18.31,8.66,25.19,14.21,1.06.85,2.03,1.76,2.96,2.75.15.16.66.84.15.15.14.19.28.38.41.58.11.18.21.37.32.56.05.08.09.18.13.27-.23-.48-.1-.27-.12-.26,0,0,.07.22.07.25.02.4.13-.08,0-.09,0,0-.09-.46-.02.08.05.34.17-.85.03-.24-.15.65.32-.71.04-.1-.21.45.04-.3.1-.13.04.09-1,.73.11-.03-.34.24-.7.43-1.07.62.86-.43-.56.17-.89.27-.63.18-1.27.3-1.92.42-.56.1-.57.09-.51.08-.38.05-.76.09-1.14.12-.9.08-1.81.13-2.72.17-4.76.17-9.55-.13-14.29-.56-18.25-1.62-36.36-5.13-54.29-8.78-3.39-.69-5.12,3.52-2.31,5.48,15.82,11.06,31.47,22.77,45.11,36.49,4.04,4.06,7.97,8.33,11.21,13.06,1.25,1.83,2.39,3.73,3.35,5.73.38.79.38.78.72,1.81.25.75.44,1.52.59,2.3.1.54,0-.07-.01-.15.02.21.05.42.06.62,0,.27,0,.53.02.8s-.17,1.28,0,.33c-.06.32-.13.64-.22.95-.22.78.1-.1-.04.17-.13.25-.27.49-.42.74-.37.62.26-.25-.05.07-.25.25-.49.5-.76.73.64-.55-.63.36-.98.55-.74.4.4-.1-.42.18-.35.12-.7.24-1.06.34-1.95.54-2.42.54-4.54.59-11.41.27-23.18-3.93-33.81-7.88-21.67-8.04-42.29-18.92-62.29-30.45-3.44-1.98-6.03,2.92-3.03,5.18,10.75,8.11,21.5,16.22,32.15,24.45,4.95,3.82,10.13,7.54,14.7,11.82.21.2.41.41.62.6.6.52,0,.41,0-.07,0,.27-.23.24-.21-.54,0,0,2.83-3.7,2.78-3.67,0,0,.65.1.69.1-.24.02-.68-.39-.2-.04s-.19-.1-.4-.21c-.37-.19-.73-.38-1.09-.58-.95-.52-1.89-1.07-2.82-1.63-7.22-4.29-14.28-8.87-21.34-13.41-14.47-9.3-28.88-18.7-43.3-28.08-3.09-2.01-5.58,2.24-3.64,4.71,6.94,8.85,13.3,18.33,18.1,28.52,3.09,6.56,5.91,13.99,5.65,21.13-.08,2.21-.54,4.2-1.68,6-.29.46-.18.26-.16.25-.15.18-.3.36-.47.52-.2.19-.39.38-.59.56-.32.29.34-.18-.33.25-1.25.81-1.23.8-2.58,1.16-2.22.59-5.19.44-7.81-.09-4.1-.83-8.05-2.32-11.83-4.08-14.5-6.76-27.52-16.73-39.77-26.89-2.1-1.74-6.07-.18-5.01,2.92,3.78,11.08,7.43,22.31,9.81,33.79.65,3.16,1.22,6.2,1.31,9.4.02.54,0,1.08,0,1.62,0,.23-.17,1.44-.02.55-.06.37-.15.72-.24,1.08-.16.64.11-.07.08-.14.09.23-.83.79.12-.05.13-.11.6-.31,1.32-.22-.76-.1-.17,0-.21-.03-.37-.21-.71-.43-1.05-.67.69.51-.26-.25-.4-.38-.37-.36-.74-.72-1.09-1.1-.89-.95-1.73-1.99-2.4-2.9-5.14-6.92-9.23-14.68-13.1-22.35-7.02-13.89-13.1-28.25-18.77-42.74l-5.48,2.31c5.12,7.69,10.41,15.34,16.4,22.38,2.35,2.77,5.5,7.04,9.25,8,4.81,1.24,5.29-4.09,4.3-7.29-1.71-5.55-4.83-10.8-7.75-15.78-6.36-10.81-13.57-21.12-21-31.21-2.24-3.04-7.13-.41-5.18,3.03,3.91,6.88,7.77,13.78,11.45,20.78,1.19,2.26,2.35,4.53,3.47,6.83.77,1.59,1.45,3.02,1.9,4.2.16.41.26.86.43,1.27.28.68-.3.04.02-.19-.02.01.03.11,0,.13,0,.26.03.06.09-.62l3.44-1.95c.35-.03.88.56.57.24-.36-.38-.73-.75-1.07-1.15-2.57-2.98-5-6.68-7.37-10.16-5.18-7.63-10.13-15.42-15.03-23.23-1.75-2.79-6.54-1.04-5.48,2.31,2.37,7.52,4.59,15.1,6.21,22.82.89,4.26,1.85,8.81,1.44,13.19-.05.57.1-.33-.06.38-.06.26-.12.52-.19.77-.18.65-.13-.03-.07.17.01.04.36-.12-.02.02.42-.15.37-.3.66-.39-.53.17.43-.27.16-.03.53-.45.49.4-.02-.06-.27-.24.44.26-.21-.13-1.01-.6-2.05-1.62-3.2-2.88-1.56-1.72-2.96-3.59-4.29-5.49-5.11-7.29-9.46-15.11-13.64-22.95-1.33-2.49-5.93-1.5-5.59,1.51.97,8.47,1.76,17,1.83,25.53.04,4.55.05,9.21-1.24,13.56-.16.53-.21.6-.14.41-.1.26-.26.47-.39.71.21-.39.28-.02-.01,0-.21,0,.62-.3.49-.27s.6.02.8.01c-.43.02.02-.03,0,.02,0-.03-.48-.44-.07-.02-.23-.24-.48-.46-.71-.7-.34-.36-.53-.64-1.05-1.46-.57-.89-1.07-1.82-1.55-2.76-1.22-2.41-2.24-4.93-3.18-7.46-3.43-9.27-5.97-18.87-8.3-28.46-.73-3.01-4.9-2.69-5.79,0-1.68,5.13-3.43,10.34-4.48,15.65-.26,1.3-.64,2.73.07,3.96,1.53,2.64,4.72,1.45,5.63-.91,1.11-2.9,1.34-6.37,1.71-9.41.79-6.49,1.01-13.05.82-19.58-.32-10.87-1.82-21.7-4.29-32.28-.8-3.42-5.71-2.46-5.89.8s-.36,6.84-1.5,9.98c-.12.32-.2.15-.33.7-.14.6-.24-.02.04,0-.32-.02.2-.15.45-.23.82-.25,1.49.12,1.74.19.09.03.04.06-.14-.23-1.34-2.16-1.9-5.14-2.43-7.77-1.03-5.18-1.51-10.46-1.84-15.73-.13-2.02-1.81-3.31-3.8-2.89-.79.17-1.59.26-2.4.16-.09-.01-.98-.43-.94-.4-.73-.6-1.01-1.7-1.05-3.03-.16-4.61,1.79-9.26,3.95-13.23,2.79-5.12,6.51-9.83,11.1-13.44,1.3-1.02,2.34-1.74,3.99-1.98,2.36-.34,4.74-.57,7.11-.82,3.56-.37,7.16-.66,10.69-1.33,2.52-.48,5.67-1.23,7.12-3.58,1.63-2.66.2-5.38-1.58-7.51l-.61,4.71c5.44-2.33,10.79-5.13,15.22-9.11,2.71-2.43,5.36-5.66,5.73-9.42.82-8.43-9.37-9.84-15.54-9.34l2.12,5.12c4.82-6.05,9.49-12.22,13.78-18.67,2.21-3.32,4.86-6.89,6.17-10.71s-2.37-6.43-5.39-3.72-5.4,6.85-7.67,10.26c-1.65,2.46,1.64,5.76,4.1,4.1,6.25-4.21,12.82-8.18,19.89-10.87,4.29-1.63,8.92-3.03,13.56-2.79,1.09.06,2.91.47,3.51.76.29.15.58.31.85.48.47.3-.16-.19.24.18.74.66.55.42.87,1.06.25.51.05.04.11.19.1.28.18.56.24.85.13.57,0-.35.03.24.02.37.02.73,0,1.1-.03.48.07-.17-.07.51-.06.31-.14.61-.22.91-.25.88-.37,1.18-.79,1.98-2.17,4.25-5.9,7.61-9.72,10.37-2.52,1.82-1.13,6.78,2.31,5.48,10.99-4.13,21.95-8.34,32.82-12.77,2.74-1.12,5.49-2.25,8.2-3.43,1.61-.7,2.98-1.13,3.72-2.89.51-1.22-.35-2.76-1.38-3.39-2.32-1.42-6.83,1.38-8.88,2.22-7.41,3.03-14.77,6.19-22.12,9.38-3.55,1.54-.48,6.66,3.03,5.18,14.06-5.95,28.27-12.32,42.95-16.64.79-.23,1.58-.46,2.38-.65.3-.07.6-.13.9-.2.78-.19.22-.05.27-.06.73-.22.8.32.19-.08-1.68-1.11-1.9-1.98-1.6-3.9-.07.43.57-.42.09-.11-.16.1-.29.29-.44.42-.41.34-.37.31-.25.22-.66.5-1.34.96-2.03,1.41-2.03,1.33-4.12,2.55-6.23,3.75-8.19,4.67-16.61,8.96-25.03,13.21-3.07,1.55-.92,6.38,2.31,5.48,8.92-2.48,17.86-4.9,26.86-7.07,2.93-.7,5.86-1.38,8.81-1.99,1.77-.36,4.45-.86,5.47-.97.55-.06,1.1-.06,1.64-.12.88-.09.11.04-.31-.24-1.54-1.06-1.48-2.76-.62-4.17-.04.06-.3.23-.3.29,0-.28.65-.41,0-.04-.29.17-.57.34-.86.51-3.87,2.18-8.16,3.73-12.29,5.33-9.55,3.7-19.22,7.07-28.9,10.38-3.01,1.03-2.77,6.17.8,5.89,8.4-.64,16.85-1.15,25.28-.93,2.56.07,5.24.18,7.72.53.96.13,1.92.31,2.86.54.37.09.73.19,1.09.31.21.06,1.2.45.51.17.28.11.51.31.77.43-.39-.19-.11-.35,0,.05-.17-.59-.29-.77-.35-1.41.01.11.05-.02-.11.14-.67.67-.7.7-1.15,1.01-4.18,2.87-9.16,4.62-13.91,6.28-9.84,3.44-19.96,6.11-30.08,8.59-3.75.92-2.16,6.71,1.6,5.79h0Z"/>
  </g>
</svg>