<?xml version="1.0" encoding="UTF-8"?>
<svg id="Layer_2" data-name="Layer 2" xmlns="http://www.w3.org/2000/svg" viewBox="0 0 827.78 805.23">
  <defs>
    <style>
      .cls-1 {
        fill: none;
        stroke: #46d3a1;
        stroke-miterlimit: 10;
        stroke-width: 2px;
      }
    </style>
  </defs>
  <g id="images">
    <g>
      <path class="cls-1" d="m410.22,404.01c-220.3-126.11-142.37-478.72,29.03-24.49,444.21-399.68,307.84-.32,1.47,43.4,2.46,256.3-178.72,433.58-26.83,24.19-198.64,397.69-439.26,207.36-24.75-33.85C-154.9,147.37-1,120.1,398.34,391.4c-333.1-290.78-7.76-364.81,47.07,1.76,478.96-152.27,529.61-107.46,21.26,13.64,438.22-62.66,268.73,46.44-25.51,13.49,25.4,114.77-188.9,190.75-31.23,7.62"/>
      <path class="cls-1" d="m406.31,387.67c126.11-220.3,478.72-142.37,24.49,29.03,399.68,444.21.32,307.84-43.4,1.47-256.3,2.46-433.58-178.72-24.19-26.83-397.69-198.64-207.36-439.26,33.85-24.75,265.89-544.04,293.17-390.14,21.87,9.2,290.78-333.1,364.81-7.76-1.76,47.07,152.27,478.96,107.46,529.61-13.64,21.26,62.66,438.22-46.44,268.73-13.49-25.51-114.77,25.4-190.75-188.9-7.62-31.23"/>
      <path class="cls-1" d="m417.55,406.31c220.3,126.11,142.37,478.72-29.03,24.49-444.21,399.68-307.84.32-1.47-43.4-2.46-256.3,178.72-433.58,26.83-24.19,198.64-397.69,439.26-207.36,24.75,33.85,544.04,265.89,390.14,293.17-9.2,21.87,333.1,290.78,7.76,364.81-47.07-1.76-478.96,152.27-529.61,107.46-21.26-13.64-438.22,62.66-268.73-46.44,25.51-13.49-25.4-114.77,188.9-190.75,31.23-7.62"/>
      <path class="cls-1" d="m398.92,417.55c-126.11,220.3-478.72,142.37-24.49-29.03-399.68-444.21-.32-307.84,43.4-1.47,256.3-2.46,433.58,178.72,24.19,26.83,397.69,198.64,207.36,439.26-33.85,24.75-265.89,544.04-293.17,390.14-21.87-9.2-290.78,333.1-364.81,7.76,1.76-47.07-152.27-478.96-107.46-529.61,13.64-21.26-62.66-438.22,46.44-268.73,13.49,25.51,114.77-25.4,190.75,188.9,7.62,31.23"/>
      <path class="cls-1" d="m384.67,413.5c-118.11,69.06-312.35-235.38,3.21-37.85,158.31-594.26,344.28-215.44,31.73,29.65,309.8,181.95,307.04,435.42-1.87,36.08,267.58,424.13-37.15,459.69-41.43-6.44-445.88,199.14-356.34,71.03-8.96-21.97-314.32,32.39-136.61-250.01,34.53-32.04,357.84-443.89,425.34-448.02,24.68-5.39,392.39-351.71,349.69-154.72-8.5,27.58,225.95,65.66,128.14,270.91-16.69,27.48"/>
      <path class="cls-1" d="m392.45,383.95c-69.06-118.11,235.38-312.35,37.85,3.21,594.26,158.31,215.44,344.28-29.65,31.73-181.95,309.8-435.42,307.04-36.08-1.87-424.13,267.58-459.69-37.15,6.44-41.43-199.14-445.88-71.03-356.34,21.97-8.96-32.39-314.32,250.01-136.61,32.04,34.53,443.89,357.84,448.02,425.34,5.39,24.68,351.71,392.39,154.72,349.69-27.58-8.5-65.66,225.95-270.91,128.14-27.48-16.69"/>
      <path class="cls-1" d="m421.28,391.72c118.11-69.06,312.35,235.38-3.21,37.85-158.31,594.26-344.28,215.44-31.73-29.65-309.8-181.95-307.04-435.42,1.87-36.08-267.58-424.13,37.15-459.69,41.43,6.44,445.88-199.14,356.34-71.03,8.96,21.97,314.32-32.39,136.61,250.01-34.53,32.04-357.84,443.89-425.34,448.02-24.68,5.39-392.39,351.71-349.69,154.72,8.5-27.58-225.95-65.66-128.14-270.91,16.69-27.48"/>
      <path class="cls-1" d="m414.23,421.28c69.06,118.11-235.38,312.35-37.85-3.21-594.26-158.31-215.44-344.28,29.65-31.73,181.95-309.8,435.42-307.04,36.08,1.87,424.13-267.58,459.69,37.15-6.44,41.43,199.14,445.88,71.03,356.34-21.97,8.96,32.39,314.32-250.01,136.61-32.04-34.53C-62.21,46.23-66.35-21.27,376.28,379.39,24.57-13,221.56,29.7,403.86,387.89c65.66-225.95,270.91-128.14,27.48,16.69"/>
    </g>
  </g>
</svg>