<?xml version="1.0" encoding="UTF-8"?>
<svg id="Layer_2" data-name="Layer 2" xmlns="http://www.w3.org/2000/svg" viewBox="0 0 669.45 676.45">
  <defs>
    <style>
      .cls-1 {
        fill: none;
        stroke: #8383ea;
        stroke-miterlimit: 10;
        stroke-width: 2px;
      }
    </style>
  </defs>
  <g id="images">
    <g>
      <path class="cls-1" d="m309.21,317.7c-74.33-16.83,9.13,52.78,139.94,7.87,122.08-70.7,133.63-164.43,88.55-128.58,34.73-118.53,15.71-166.68-54.99-61.21-45.88-110.12-138.65-104.29-129.79,61.59-96.09,11.89-61.29,104.29,18.92,164.86-5.82,71.43,99.91,122.75,163.64,58.31,141.34,4.73,164.69-66.07,68.94-93.91,50.8-52.57-10.94-95.63-116.76-67.16-76.03-63.41-151.9-15.2-130.31,90.82-78.93,104.96-107.67,261.53,33.31,204.12,73.77,145.64,140.97,110.84,137.98-50.59,67.78-8.97,17.38-106.17-78.4-143.2-103.42-27.77-182.62-33.77-136,0-97.02,43.03-75.42,65.83-2.4,40.8"/>
      <path class="cls-1" d="m363.53,317.7c74.33-16.83-9.13,52.78-139.94,7.87-122.08-70.7-133.63-164.43-88.55-128.58-34.73-118.53-15.71-166.68,54.99-61.21,45.88-110.12,138.65-104.29,129.79,61.59,96.09,11.89,61.29,104.29-18.92,164.86,5.82,71.43-99.91,122.75-163.64,58.31-141.34,4.73-164.69-66.07-68.94-93.91-50.8-52.57,10.94-95.63,116.76-67.16,76.03-63.41,151.9-15.2,130.31,90.82,78.93,104.96,107.67,261.53-33.31,204.12-73.77,145.64-140.97,110.84-137.98-50.59-67.78-8.97-17.38-106.17,78.4-143.2,103.42-27.77,182.62-33.77,136,0,97.02,43.03,75.42,65.83,2.4,40.8"/>
      <path class="cls-1" d="m369.03,312.21c16.83-74.33-52.78,9.13-7.87,139.94,70.7,122.08,164.43,133.63,128.58,88.55,118.53,34.73,166.68,15.71,61.21-54.99,110.12-45.88,104.29-138.65-61.59-129.79-11.89-96.09-104.29-61.29-164.86,18.92-71.43-5.82-122.75,99.91-58.31,163.64-4.73,141.34,66.07,164.69,93.91,68.94,52.57,50.8,95.63-10.94,67.16-116.76,63.41-76.03,15.2-151.9-90.82-130.31-104.96-78.93-261.53-107.67-204.12,33.31-145.64,73.77-110.84,140.97,50.59,137.98,8.97,67.78,106.17,17.38,143.2-78.4,27.77-103.42,33.77-182.62,0-136-43.03-97.02-65.83-75.42-40.8-2.4"/>
      <path class="cls-1" d="m369.03,366.53c16.83,74.33-52.78-9.13-7.87-139.94,70.7-122.08,164.43-133.63,128.58-88.55,118.53-34.73,166.68-15.71,61.21,54.99,110.12,45.88,104.29,138.65-61.59,129.79-11.89,96.09-104.29,61.29-164.86-18.92-71.43,5.82-122.75-99.91-58.31-163.64-4.73-141.34,66.07-164.69,93.91-68.94,52.57-50.8,95.63,10.94,67.16,116.76,63.41,76.03,15.2,151.9-90.82,130.31-104.96,78.93-261.53,107.67-204.12-33.31C-13.33,211.31,21.47,144.11,182.9,147.1c8.97-67.78,106.17-17.38,143.2,78.4,27.77,103.42,33.77,182.62,0,136-43.03,97.02-65.83,75.42-40.8,2.4"/>
      <path class="cls-1" d="m370.88,336.42c59.45-37.56-48.79-27.77-104.51,93.39-41.34,139.41,16.76,213.85,28.31,153.53,54.24,111.46,101.74,132.07,82.17,4.4,105.29,48.52,166.78-21.2,48.22-135.32,54.52-73.26-35.42-113.99-129.96-103.19-51.41-51.53-162.46-13.06-156.94,74.48-108.3,99.7-74.75,166.27,17.65,115.15-3.76,76.19,70.35,62.98,130.05-35.08,93.59-5.83,113.15-93.57,27.92-156.36-23.42-126.94-113.8-257.97-167.89-120.78-160.16-47.73-183.07,24.39-61.8,133.34-46.6,57.36,57.77,90.46,156.69,45.82,87.75-50.4,147.99-102.16,96.17-96.17,33.16-95.94,1.76-96.78-27.15-30.55"/>
      <path class="cls-1" d="m328.42,378.88c-37.56,59.45-27.77-48.79,93.39-104.51,139.41-41.34,213.85,16.76,153.53,28.31,111.46,54.24,132.07,101.74,4.4,82.17,48.52,105.29-21.2,166.78-135.32,48.22-73.26,54.52-113.99-35.42-103.19-129.96-51.53-51.41-13.06-162.46,74.48-156.94,99.7-108.3,166.27-74.75,115.15,17.65,76.19-3.76,62.98,70.35-35.08,130.05-5.83,93.59-93.57,113.15-156.36,27.92-126.94-23.42-257.97-113.8-120.78-167.89C170.89-6.26,243.02-29.17,351.97,92.11c57.36-46.6,90.46,57.77,45.82,156.69-50.4,87.75-102.16,147.99-96.17,96.17-95.94,33.16-96.78,1.76-30.55-27.15"/>
      <path class="cls-1" d="m371.88,346.03c59.45,37.56-48.79,27.77-104.51-93.39-41.34-139.41,16.76-213.85,28.31-153.53,54.24-111.46,101.74-132.07,82.17-4.4,105.29-48.52,166.78,21.2,48.22,135.32,54.52,73.26-35.42,113.99-129.96,103.19-51.41,51.53-162.46,13.06-156.94-74.48-108.3-99.7-74.75-166.27,17.65-115.15-3.76-76.19,70.35-62.98,130.05,35.08,93.59,5.83,113.15,93.57,27.92,156.36-23.42,126.94-113.8,257.97-167.89,120.78-160.16,47.73-183.07-24.39-61.8-133.34-46.6-57.36,57.77-90.46,156.69-45.82,87.75,50.4,147.99,102.16,96.17,96.17,33.16,95.94,1.76,96.78-27.15,30.55"/>
      <path class="cls-1" d="m329.42,303.57c-37.56-59.45-27.77,48.79,93.39,104.51,139.41,41.34,213.85-16.76,153.53-28.31,111.46-54.24,132.07-101.74,4.4-82.17,48.52-105.29-21.2-166.78-135.32-48.22-73.26-54.52-113.99,35.42-103.19,129.96-51.53,51.41-13.06,162.46,74.48,156.94,99.7,108.3,166.27,74.75,115.15-17.65,76.19,3.76,62.98-70.35-35.08-130.05-5.83-93.59-93.57-113.15-156.36-27.92-126.94,23.42-257.97,113.8-120.78,167.89-47.73,160.16,24.39,183.07,133.34,61.8,57.36,46.6,90.46-57.77,45.82-156.69-50.4-87.75-102.16-147.99-96.17-96.17-95.94-33.16-96.78-1.76-30.55,27.15"/>
      <path class="cls-1" d="m297.57,340.03c-59.45,37.56,48.79,27.77,104.51-93.39,41.34-139.41-16.76-213.85-28.31-153.53-54.24-111.46-101.74-132.07-82.17-4.4-105.29-48.52-166.78,21.2-48.22,135.32-54.52,73.26,35.42,113.99,129.96,103.19,51.41,51.53,162.46,13.06,156.94-74.48,108.3-99.7,74.75-166.27-17.65-115.15,3.76-76.19-70.35-62.98-130.05,35.08-93.59,5.83-113.15,93.57-27.92,156.36,23.42,126.94,113.8,257.97,167.89,120.78,160.16,47.73,183.07-24.39,61.8-133.34,46.6-57.36-57.77-90.46-156.69-45.82-87.75,50.4-147.99,102.16-96.17,96.17-33.16,95.94-1.76,96.78,27.15,30.55"/>
      <path class="cls-1" d="m340.03,297.57c37.56-59.45,27.77,48.79-93.39,104.51-139.41,41.34-213.85-16.76-153.53-28.31-111.46-54.24-132.07-101.74-4.4-82.17-48.52-105.29,21.2-166.78,135.32-48.22,73.26-54.52,113.99,35.42,103.19,129.96,51.53,51.41,13.06,162.46-74.48,156.94-99.7,108.3-166.27,74.75-115.15-17.65-76.19,3.76-62.98-70.35,35.08-130.05,5.83-93.59,93.57-113.15,156.36-27.92,126.94,23.42,257.97,113.8,120.78,167.89,47.73,160.16-24.39,183.07-133.34,61.8-57.36,46.6-90.46-57.77-45.82-156.69,50.4-87.75,102.16-147.99,96.17-96.17,95.94-33.16,96.78-1.76,30.55,27.15"/>
      <path class="cls-1" d="m303.57,334.42c-59.45-37.56,48.79-27.77,104.51,93.39,41.34,139.41-16.76,213.85-28.31,153.53-54.24,111.46-101.74,132.07-82.17,4.4-105.29,48.52-166.78-21.2-48.22-135.32-54.52-73.26,35.42-113.99,129.96-103.19,51.41-51.53,162.46-13.06,156.94,74.48,108.3,99.7,74.75,166.27-17.65,115.15,3.76,76.19-70.35,62.98-130.05-35.08-93.59-5.83-113.15-93.57-27.92-156.36,23.42-126.94,113.8-257.97,167.89-120.78,160.16-47.73,183.07,24.39,61.8,133.34,46.6,57.36-57.77,90.46-156.69,45.82-87.75-50.4-147.99-102.16-96.17-96.17-33.16-95.94-1.76-96.78,27.15-30.55"/>
      <path class="cls-1" d="m346.03,376.88c37.56,59.45,27.77-48.79-93.39-104.51-139.41-41.34-213.85,16.76-153.53,28.31-111.46,54.24-132.07,101.74-4.4,82.17-48.52,105.29,21.2,166.78,135.32,48.22,73.26,54.52,113.99-35.42,103.19-129.96,51.53-51.41,13.06-162.46-74.48-156.94-99.7-108.3-166.27-74.75-115.15,17.65-76.19-3.76-62.98,70.35,35.08,130.05,5.83,93.59,93.57,113.15,156.36,27.92,126.94-23.42,257.97-113.8,120.78-167.89,47.73-160.16-24.39-183.07-133.34-61.8-57.36-46.6-90.46,57.77-45.82,156.69,50.4,87.75,102.16,147.99,96.17,96.17,95.94,33.16,96.78,1.76,30.55-27.15"/>
    </g>
  </g>
</svg>