<?xml version="1.0" encoding="UTF-8"?>
<svg id="Layer_2" data-name="Layer 2" xmlns="http://www.w3.org/2000/svg" viewBox="0 0 780.6 749.6">
  <defs>
    <style>
      .cls-1 {
        fill: none;
        stroke: #46d3a1;
        stroke-miterlimit: 10;
        stroke-width: 2px;
      }
    </style>
  </defs>
  <g id="images">
    <g>
      <path class="cls-1" d="m353.28,355.03c-154.14-83.88-85.02-396.65,88.7-74.82,372.32-273.45,251.36,80.79,4.48,132.61-22.69,214.3-183.39,371.55-81.98,73.92-142.88,287.26-356.31,118.43-75.6-103.42-395.59-227.95-259.08-252.14,28.12-66.82-228.45-202.6,60.13-268.26,143.81,5.38,389.79-83.56,434.72-43.81,64.96,41.66,307.55-33.64,157.22,63.13-77.95,41.22-3.29,94.49-193.37,161.88-95.42,23.3"/>
      <path class="cls-1" d="m401.57,322.28c83.88-154.14,396.65-85.02,74.82,88.7,273.45,372.32-80.79,251.36-132.61,4.48-214.3-22.69-371.55-183.39-73.92-81.98C-17.4,190.6,151.43-22.83,373.28,257.88c227.95-395.59,252.14-259.08,66.82,28.12,202.6-228.45,268.26,60.13-5.38,143.81,83.56,389.79,43.81,434.72-41.66,64.96,33.64,307.55-63.13,157.22-41.22-77.95-94.49-3.29-161.88-193.37-23.3-95.42"/>
      <path class="cls-1" d="m427.32,401.57c154.14,83.88,85.02,396.65-88.7,74.82-372.32,273.45-251.36-80.79-4.48-132.61,22.69-214.3,183.39-371.55,81.98-73.92,142.88-287.26,356.31-118.43,75.6,103.42,395.59,227.95,259.08,252.14-28.12,66.82,228.45,202.6-60.13,268.26-143.81-5.38-389.79,83.56-434.72,43.81-64.96-41.66-307.55,33.64-157.22-63.13,77.95-41.22,3.29-94.49,193.37-161.88,95.42-23.3"/>
      <path class="cls-1" d="m348.03,427.32c-83.88,154.14-396.65,85.02-74.82-88.7C-.23-33.71,354.01,87.25,405.83,334.14c214.3,22.69,371.55,183.39,73.92,81.98,287.26,142.88,118.43,356.31-103.42,75.6-227.95,395.59-252.14,259.08-66.82-28.12-202.6,228.45-268.26-60.13,5.38-143.81-83.56-389.79-43.81-434.72,41.66-64.96-33.64-307.55,63.13-157.22,41.22,77.95,94.49,3.29,161.88,193.37,23.3,95.42"/>
      <path class="cls-1" d="m337.47,397.96c-88.42,50.7-260.7-219.33,9.82-115.63,149.8-455.61,314.76-119.59,96.94,90.6,215.38,168.59,212.93,393.42-5.7,110.24,181.98,305.17-88.32,336.71-126.59-19.67-361.02,119.56-281.6,5.93-27.37-67.13-224.91,19.29-67.28-231.19,105.49-97.89,296.43-333.69,356.3-337.36,75.39-16.47,273.58-240.24,235.7-65.51-25.98,84.26,144.37,70.16,57.62,252.22-51,83.95"/>
      <path class="cls-1" d="m352.65,336.47c-50.7-88.42,219.33-260.7,115.63,9.82,455.61,149.8,119.59,314.76-90.6,96.94-168.59,215.38-393.42,212.93-110.24-5.7-305.17,181.98-336.71-88.32,19.67-126.59-119.56-361.02-5.93-281.6,67.13-27.37-19.29-224.91,231.19-67.28,97.89,105.49,333.69,296.43,337.36,356.3,16.47,75.39,240.24,273.58,65.51,235.7-84.26-25.98-70.16,144.37-252.22,57.62-83.95-51"/>
      <path class="cls-1" d="m413.14,351.65c88.42-50.7,260.7,219.33-9.82,115.63-149.8,455.61-314.76,119.59-96.94-90.6-215.38-168.59-212.93-393.42,5.7-110.24-181.98-305.17,88.32-336.71,126.59,19.67,361.02-119.56,281.6-5.93,27.37,67.13,224.91-19.29,67.28,231.19-105.49,97.89-296.43,333.69-356.3,337.36-75.39,16.47-273.58,240.24-235.7,65.51,25.98-84.26-144.37-70.16-57.62-252.22,51-83.95"/>
      <path class="cls-1" d="m398.96,413.14c50.7,88.42-219.33,260.7-115.63-9.82-455.61-149.8-119.59-314.76,90.6-96.94,168.59-215.38,393.42-212.93,110.24,5.7,305.17-181.98,336.71,88.32-19.67,126.59,119.56,361.02,5.93,281.6-67.13,27.37,19.29,224.91-231.19,67.28-97.89-105.49C-34.21,64.12-37.87,4.25,283.01,285.16,42.77,11.58,217.5,49.46,367.28,311.13c70.16-144.37,252.22-57.62,83.95,51"/>
    </g>
  </g>
</svg>