<?xml version="1.0" encoding="UTF-8"?>
<svg id="Layer_2" data-name="Layer 2" xmlns="http://www.w3.org/2000/svg" viewBox="0 0 533.69 532.77">
  <defs>
    <style>
      .cls-1 {
        fill: none;
        stroke: #5e5ed3;
        stroke-miterlimit: 10;
        stroke-width: 2px;
      }
    </style>
  </defs>
  <g id="images">
    <g>
      <path class="cls-1" d="m126.35,232.12c164.03,97.97,84.61,177.38-13.35,13.35-97.97,164.03-177.38,84.61-13.35-13.35-164.03-97.97-84.61-177.38,13.35-13.35,97.97-164.03,177.38-84.61,13.35,13.35Z"/>
      <path class="cls-1" d="m135.55,205.45c164.03,97.97,84.61,177.38-13.35,13.35-97.97,164.03-177.38,84.61-13.35-13.35-164.03-97.97-84.61-177.38,13.35-13.35,97.97-164.03,177.38-84.61,13.35,13.35Z"/>
      <path class="cls-1" d="m147.51,178.77c164.03,97.97,84.61,177.38-13.35,13.35-97.97,164.03-177.38,84.61-13.35-13.35C-43.22,80.8,36.19,1.39,134.16,165.42c97.97-164.03,177.38-84.61,13.35,13.35Z"/>
      <path class="cls-1" d="m167.75,155.77c164.03,97.97,84.61,177.38-13.35,13.35-97.97,164.03-177.38,84.61-13.35-13.35-164.03-97.97-84.61-177.38,13.35-13.35,97.97-164.03,177.38-84.61,13.35,13.35Z"/>
      <path class="cls-1" d="m188.9,136.46c164.03,97.97,84.61,177.38-13.35,13.35-97.97,164.03-177.38,84.61-13.35-13.35C-1.83,38.49,77.58-40.92,175.55,123.11c97.97-164.03,177.38-84.61,13.35,13.35Z"/>
      <path class="cls-1" d="m216.5,121.74c164.03,97.97,84.61,177.38-13.35,13.35-97.97,164.03-177.38,84.61-13.35-13.35-164.03-97.97-84.61-177.38,13.35-13.35,97.97-164.03,177.38-84.61,13.35,13.35Z"/>
      <path class="cls-1" d="m244.09,112.54c164.03,97.97,84.61,177.38-13.35,13.35-97.97,164.03-177.38,84.61-13.35-13.35-164.03-97.97-84.61-177.38,13.35-13.35,97.97-164.03,177.38-84.61,13.35,13.35Z"/>
      <path class="cls-1" d="m274.45,108.86c164.03,97.97,84.61,177.38-13.35,13.35-97.97,164.03-177.38,84.61-13.35-13.35-164.03-97.97-84.61-177.38,13.35-13.35,97.97-164.03,177.38-84.61,13.35,13.35Z"/>
      <path class="cls-1" d="m313.08,113.46c164.03,97.97,84.61,177.38-13.35,13.35-97.97,164.03-177.38,84.61-13.35-13.35-164.03-97.97-84.61-177.38,13.35-13.35,97.97-164.03,177.38-84.61,13.35,13.35Z"/>
      <path class="cls-1" d="m122.22,265.69c164.03,97.97,84.61,177.38-13.35,13.35-97.97,164.03-177.38,84.61-13.35-13.35-164.03-97.97-84.61-177.38,13.35-13.35,97.97-164.03,177.38-84.61,13.35,13.35Z"/>
      <path class="cls-1" d="m407.33,233.04c-164.03,97.97-84.61,177.38,13.35,13.35,97.97,164.03,177.38,84.61,13.35-13.35,164.03-97.97,84.61-177.38-13.35-13.35-97.97-164.03-177.38-84.61-13.35,13.35Z"/>
      <path class="cls-1" d="m398.13,206.37c-164.03,97.97-84.61,177.38,13.35,13.35,97.97,164.03,177.38,84.61,13.35-13.35,164.03-97.97,84.61-177.38-13.35-13.35-97.97-164.03-177.38-84.61-13.35,13.35Z"/>
      <path class="cls-1" d="m386.18,179.69c-164.03,97.97-84.61,177.38,13.35,13.35,97.97,164.03,177.38,84.61,13.35-13.35,164.03-97.97,84.61-177.38-13.35-13.35-97.97-164.03-177.38-84.61-13.35,13.35Z"/>
      <path class="cls-1" d="m365.94,156.69c-164.03,97.97-84.61,177.38,13.35,13.35,97.97,164.03,177.38,84.61,13.35-13.35,164.03-97.97,84.61-177.38-13.35-13.35-97.97-164.03-177.38-84.61-13.35,13.35Z"/>
      <path class="cls-1" d="m344.78,137.38c-164.03,97.97-84.61,177.38,13.35,13.35,97.97,164.03,177.38,84.61,13.35-13.35,164.03-97.97,84.61-177.38-13.35-13.35-97.97-164.03-177.38-84.61-13.35,13.35Z"/>
      <path class="cls-1" d="m317.19,122.66c-164.03,97.97-84.61,177.38,13.35,13.35,97.97,164.03,177.38,84.61,13.35-13.35,164.03-97.97,84.61-177.38-13.35-13.35-97.97-164.03-177.38-84.61-13.35,13.35Z"/>
      <path class="cls-1" d="m411.47,266.61c-164.03,97.97-84.61,177.38,13.35,13.35,97.97,164.03,177.38,84.61,13.35-13.35,164.03-97.97,84.61-177.38-13.35-13.35-97.97-164.03-177.38-84.61-13.35,13.35Z"/>
      <path class="cls-1" d="m126.35,300.65c164.03-97.97,84.61-177.38-13.35-13.35-97.97-164.03-177.38-84.61-13.35,13.35-164.03,97.97-84.61,177.38,13.35,13.35,97.97,164.03,177.38,84.61,13.35-13.35Z"/>
      <path class="cls-1" d="m135.55,327.32c164.03-97.97,84.61-177.38-13.35-13.35-97.97-164.03-177.38-84.61-13.35,13.35-164.03,97.97-84.61,177.38,13.35,13.35,97.97,164.03,177.38,84.61,13.35-13.35Z"/>
      <path class="cls-1" d="m147.51,354c164.03-97.97,84.61-177.38-13.35-13.35-97.97-164.03-177.38-84.61-13.35,13.35-164.03,97.97-84.61,177.38,13.35,13.35,97.97,164.03,177.38,84.61,13.35-13.35Z"/>
      <path class="cls-1" d="m167.75,376.99c164.03-97.97,84.61-177.38-13.35-13.35-97.97-164.03-177.38-84.61-13.35,13.35-164.03,97.97-84.61,177.38,13.35,13.35,97.97,164.03,177.38,84.61,13.35-13.35Z"/>
      <path class="cls-1" d="m188.9,396.31c164.03-97.97,84.61-177.38-13.35-13.35-97.97-164.03-177.38-84.61-13.35,13.35-164.03,97.97-84.61,177.38,13.35,13.35,97.97,164.03,177.38,84.61,13.35-13.35Z"/>
      <path class="cls-1" d="m216.5,411.03c164.03-97.97,84.61-177.38-13.35-13.35-97.97-164.03-177.38-84.61-13.35,13.35-164.03,97.97-84.61,177.38,13.35,13.35,97.97,164.03,177.38,84.61,13.35-13.35Z"/>
      <path class="cls-1" d="m244.09,420.22c164.03-97.97,84.61-177.38-13.35-13.35-97.97-164.03-177.38-84.61-13.35,13.35-164.03,97.97-84.61,177.38,13.35,13.35,97.97,164.03,177.38,84.61,13.35-13.35Z"/>
      <path class="cls-1" d="m274.45,423.9c164.03-97.97,84.61-177.38-13.35-13.35-97.97-164.03-177.38-84.61-13.35,13.35-164.03,97.97-84.61,177.38,13.35,13.35,97.97,164.03,177.38,84.61,13.35-13.35Z"/>
      <path class="cls-1" d="m313.08,419.3c164.03-97.97,84.61-177.38-13.35-13.35-97.97-164.03-177.38-84.61-13.35,13.35-164.03,97.97-84.61,177.38,13.35,13.35,97.97,164.03,177.38,84.61,13.35-13.35Z"/>
      <path class="cls-1" d="m122.22,267.07c164.03-97.97,84.61-177.38-13.35-13.35-97.97-164.03-177.38-84.61-13.35,13.35-164.03,97.97-84.61,177.38,13.35,13.35,97.97,164.03,177.38,84.61,13.35-13.35Z"/>
      <path class="cls-1" d="m407.33,299.73c-164.03-97.97-84.61-177.38,13.35-13.35,97.97-164.03,177.38-84.61,13.35,13.35,164.03,97.97,84.61,177.38-13.35,13.35-97.97,164.03-177.38,84.61-13.35-13.35Z"/>
      <path class="cls-1" d="m398.13,326.4c-164.03-97.97-84.61-177.38,13.35-13.35,97.97-164.03,177.38-84.61,13.35,13.35,164.03,97.97,84.61,177.38-13.35,13.35-97.97,164.03-177.38,84.61-13.35-13.35Z"/>
      <path class="cls-1" d="m386.18,353.08c-164.03-97.97-84.61-177.38,13.35-13.35,97.97-164.03,177.38-84.61,13.35,13.35,164.03,97.97,84.61,177.38-13.35,13.35-97.97,164.03-177.38,84.61-13.35-13.35Z"/>
      <path class="cls-1" d="m365.94,376.07c-164.03-97.97-84.61-177.38,13.35-13.35,97.97-164.03,177.38-84.61,13.35,13.35,164.03,97.97,84.61,177.38-13.35,13.35-97.97,164.03-177.38,84.61-13.35-13.35Z"/>
      <path class="cls-1" d="m344.78,395.39c-164.03-97.97-84.61-177.38,13.35-13.35,97.97-164.03,177.38-84.61,13.35,13.35,164.03,97.97,84.61,177.38-13.35,13.35-97.97,164.03-177.38,84.61-13.35-13.35Z"/>
      <path class="cls-1" d="m317.19,410.11c-164.03-97.97-84.61-177.38,13.35-13.35,97.97-164.03,177.38-84.61,13.35,13.35,164.03,97.97,84.61,177.38-13.35,13.35-97.97,164.03-177.38,84.61-13.35-13.35Z"/>
      <path class="cls-1" d="m411.47,266.15c-164.03-97.97-84.61-177.38,13.35-13.35,97.97-164.03,177.38-84.61,13.35,13.35,164.03,97.97,84.61,177.38-13.35,13.35-97.97,164.03-177.38,84.61-13.35-13.35Z"/>
    </g>
  </g>
</svg>