<?xml version="1.0" encoding="UTF-8"?>
<svg id="Layer_2" data-name="Layer 2" xmlns="http://www.w3.org/2000/svg" viewBox="0 0 640.42 639.16">
  <defs>
    <style>
      .cls-1 {
        fill: none;
        stroke: #5e5ed3;
        stroke-miterlimit: 10;
        stroke-width: 2px;
      }
    </style>
  </defs>
  <g id="images">
    <g>
      <path class="cls-1" d="m149.5,272.47c116.55,86.9,46.1,157.34-40.79,40.79-86.9,116.55-157.34,46.1-40.79-40.79-116.55-86.9-46.1-157.34,40.79-40.79,86.9-116.55,157.34-46.1,40.79,40.79Z"/>
      <path class="cls-1" d="m162.14,235.8c116.55,86.9,46.1,157.34-40.79,40.79-86.9,116.55-157.34,46.1-40.79-40.79-116.55-86.9-46.1-157.34,40.79-40.79,86.9-116.55,157.34-46.1,40.79,40.79Z"/>
      <path class="cls-1" d="m178.58,199.12c116.55,86.9,46.1,157.34-40.79,40.79-86.9,116.55-157.34,46.1-40.79-40.79-116.55-86.9-46.1-157.34,40.79-40.79,86.9-116.55,157.34-46.1,40.79,40.79Z"/>
      <path class="cls-1" d="m206.4,167.51c116.55,86.9,46.1,157.34-40.79,40.79-86.9,116.55-157.34,46.1-40.79-40.79C8.27,80.61,78.72,10.17,165.61,126.72c86.9-116.55,157.34-46.1,40.79,40.79Z"/>
      <path class="cls-1" d="m235.49,140.95c116.55,86.9,46.1,157.34-40.79,40.79-86.9,116.55-157.34,46.1-40.79-40.79C37.36,54.06,107.8-16.39,194.7,100.16c86.9-116.55,157.34-46.1,40.79,40.79Z"/>
      <path class="cls-1" d="m273.43,120.72c116.55,86.9,46.1,157.34-40.79,40.79-86.9,116.55-157.34,46.1-40.79-40.79-116.55-86.9-46.1-157.34,40.79-40.79,86.9-116.55,157.34-46.1,40.79,40.79Z"/>
      <path class="cls-1" d="m311.37,108.07c116.55,86.9,46.1,157.34-40.79,40.79-86.9,116.55-157.34,46.1-40.79-40.79-116.55-86.9-46.1-157.34,40.79-40.79,86.9-116.55,157.34-46.1,40.79,40.79Z"/>
      <path class="cls-1" d="m353.1,103.01c116.55,86.9,46.1,157.34-40.79,40.79-86.9,116.55-157.34,46.1-40.79-40.79-116.55-86.9-46.1-157.34,40.79-40.79,86.9-116.55,157.34-46.1,40.79,40.79Z"/>
      <path class="cls-1" d="m406.21,109.34c116.55,86.9,46.1,157.34-40.79,40.79-86.9,116.55-157.34,46.1-40.79-40.79-116.55-86.9-46.1-157.34,40.79-40.79,86.9-116.55,157.34-46.1,40.79,40.79Z"/>
      <path class="cls-1" d="m143.81,318.63c116.55,86.9,46.1,157.34-40.79,40.79-86.9,116.55-157.34,46.1-40.79-40.79-116.55-86.9-46.1-157.34,40.79-40.79,86.9-116.55,157.34-46.1,40.79,40.79Z"/>
      <path class="cls-1" d="m490.93,273.74c-116.55,86.9-46.1,157.34,40.79,40.79,86.9,116.55,157.34,46.1,40.79-40.79,116.55-86.9,46.1-157.34-40.79-40.79-86.9-116.55-157.34-46.1-40.79,40.79Z"/>
      <path class="cls-1" d="m478.28,237.06c-116.55,86.9-46.1,157.34,40.79,40.79,86.9,116.55,157.34,46.1,40.79-40.79,116.55-86.9,46.1-157.34-40.79-40.79-86.9-116.55-157.34-46.1-40.79,40.79Z"/>
      <path class="cls-1" d="m461.84,200.39c-116.55,86.9-46.1,157.34,40.79,40.79,86.9,116.55,157.34,46.1,40.79-40.79,116.55-86.9,46.1-157.34-40.79-40.79-86.9-116.55-157.34-46.1-40.79,40.79Z"/>
      <path class="cls-1" d="m434.02,168.77c-116.55,86.9-46.1,157.34,40.79,40.79,86.9,116.55,157.34,46.1,40.79-40.79,116.55-86.9,46.1-157.34-40.79-40.79-86.9-116.55-157.34-46.1-40.79,40.79Z"/>
      <path class="cls-1" d="m404.93,142.22c-116.55,86.9-46.1,157.34,40.79,40.79,86.9,116.55,157.34,46.1,40.79-40.79,116.55-86.9,46.1-157.34-40.79-40.79-86.9-116.55-157.34-46.1-40.79,40.79Z"/>
      <path class="cls-1" d="m366.99,121.98c-116.55,86.9-46.1,157.34,40.79,40.79,86.9,116.55,157.34,46.1,40.79-40.79,116.55-86.9,46.1-157.34-40.79-40.79-86.9-116.55-157.34-46.1-40.79,40.79Z"/>
      <path class="cls-1" d="m496.62,319.9c-116.55,86.9-46.1,157.34,40.79,40.79,86.9,116.55,157.34,46.1,40.79-40.79,116.55-86.9,46.1-157.34-40.79-40.79-86.9-116.55-157.34-46.1-40.79,40.79Z"/>
      <path class="cls-1" d="m149.5,366.69c116.55-86.9,46.1-157.34-40.79-40.79-86.9-116.55-157.34-46.1-40.79,40.79-116.55,86.9-46.1,157.34,40.79,40.79,86.9,116.55,157.34,46.1,40.79-40.79Z"/>
      <path class="cls-1" d="m162.14,403.36c116.55-86.9,46.1-157.34-40.79-40.79-86.9-116.55-157.34-46.1-40.79,40.79-116.55,86.9-46.1,157.34,40.79,40.79,86.9,116.55,157.34,46.1,40.79-40.79Z"/>
      <path class="cls-1" d="m178.58,440.03c116.55-86.9,46.1-157.34-40.79-40.79-86.9-116.55-157.34-46.1-40.79,40.79-116.55,86.9-46.1,157.34,40.79,40.79,86.9,116.55,157.34,46.1,40.79-40.79Z"/>
      <path class="cls-1" d="m206.4,471.65c116.55-86.9,46.1-157.34-40.79-40.79-86.9-116.55-157.34-46.1-40.79,40.79-116.55,86.9-46.1,157.34,40.79,40.79,86.9,116.55,157.34,46.1,40.79-40.79Z"/>
      <path class="cls-1" d="m235.49,498.21c116.55-86.9,46.1-157.34-40.79-40.79-86.9-116.55-157.34-46.1-40.79,40.79-116.55,86.9-46.1,157.34,40.79,40.79,86.9,116.55,157.34,46.1,40.79-40.79Z"/>
      <path class="cls-1" d="m273.43,518.44c116.55-86.9,46.1-157.34-40.79-40.79-86.9-116.55-157.34-46.1-40.79,40.79-116.55,86.9-46.1,157.34,40.79,40.79,86.9,116.55,157.34,46.1,40.79-40.79Z"/>
      <path class="cls-1" d="m311.37,531.09c116.55-86.9,46.1-157.34-40.79-40.79-86.9-116.55-157.34-46.1-40.79,40.79-116.55,86.9-46.1,157.34,40.79,40.79,86.9,116.55,157.34,46.1,40.79-40.79Z"/>
      <path class="cls-1" d="m353.1,536.14c116.55-86.9,46.1-157.34-40.79-40.79-86.9-116.55-157.34-46.1-40.79,40.79-116.55,86.9-46.1,157.34,40.79,40.79,86.9,116.55,157.34,46.1,40.79-40.79Z"/>
      <path class="cls-1" d="m406.21,529.82c116.55-86.9,46.1-157.34-40.79-40.79-86.9-116.55-157.34-46.1-40.79,40.79-116.55,86.9-46.1,157.34,40.79,40.79,86.9,116.55,157.34,46.1,40.79-40.79Z"/>
      <path class="cls-1" d="m143.81,320.53c116.55-86.9,46.1-157.34-40.79-40.79-86.9-116.55-157.34-46.1-40.79,40.79-116.55,86.9-46.1,157.34,40.79,40.79,86.9,116.55,157.34,46.1,40.79-40.79Z"/>
      <path class="cls-1" d="m490.93,365.42c-116.55-86.9-46.1-157.34,40.79-40.79,86.9-116.55,157.34-46.1,40.79,40.79,116.55,86.9,46.1,157.34-40.79,40.79-86.9,116.55-157.34,46.1-40.79-40.79Z"/>
      <path class="cls-1" d="m478.28,402.1c-116.55-86.9-46.1-157.34,40.79-40.79,86.9-116.55,157.34-46.1,40.79,40.79,116.55,86.9,46.1,157.34-40.79,40.79-86.9,116.55-157.34,46.1-40.79-40.79Z"/>
      <path class="cls-1" d="m461.84,438.77c-116.55-86.9-46.1-157.34,40.79-40.79,86.9-116.55,157.34-46.1,40.79,40.79,116.55,86.9,46.1,157.34-40.79,40.79-86.9,116.55-157.34,46.1-40.79-40.79Z"/>
      <path class="cls-1" d="m434.02,470.38c-116.55-86.9-46.1-157.34,40.79-40.79,86.9-116.55,157.34-46.1,40.79,40.79,116.55,86.9,46.1,157.34-40.79,40.79-86.9,116.55-157.34,46.1-40.79-40.79Z"/>
      <path class="cls-1" d="m404.93,496.94c-116.55-86.9-46.1-157.34,40.79-40.79,86.9-116.55,157.34-46.1,40.79,40.79,116.55,86.9,46.1,157.34-40.79,40.79-86.9,116.55-157.34,46.1-40.79-40.79Z"/>
      <path class="cls-1" d="m366.99,517.18c-116.55-86.9-46.1-157.34,40.79-40.79,86.9-116.55,157.34-46.1,40.79,40.79,116.55,86.9,46.1,157.34-40.79,40.79-86.9,116.55-157.34,46.1-40.79-40.79Z"/>
      <path class="cls-1" d="m496.62,319.26c-116.55-86.9-46.1-157.34,40.79-40.79,86.9-116.55,157.34-46.1,40.79,40.79,116.55,86.9,46.1,157.34-40.79,40.79-86.9,116.55-157.34,46.1-40.79-40.79Z"/>
    </g>
  </g>
</svg>