<?xml version="1.0" encoding="UTF-8"?>
<svg id="Layer_2" data-name="Layer 2" xmlns="http://www.w3.org/2000/svg" viewBox="0 0 561.41 582.47">
  <defs>
    <style>
      .cls-1 {
        fill: none;
        stroke: #33d08f;
        stroke-miterlimit: 10;
        stroke-width: 2px;
      }
    </style>
  </defs>
  <g id="images">
    <path class="cls-1" d="m212.48,431.74s119.87,63.32,212.3,40.56c59.87-14.74,104.71-44.13,102.98-70.58-1.73-26.46-27.75-36.03-59.99-15.88-32.24,20.15-39.35,50.96-87.13,55.51-47.78,4.55-127.52-9.96-159.71-42.05,0,0-.28-129.56,113.01-100.16,113.3,29.39,150.56,19.82,188.34-15.93,53.45-50.56,54.58-154.69-21.56-226.38-76.14-71.7-234.8-81.7-319.14,13.72-84.33,95.42-76.51,188.1-73.72,206.92,2.8,18.82,11.09,95.38,78.55,139.18,0,0-43.61,111.64-120.88,101.92-77.27-9.72-68.93,35.69-56.46,50.58,12.47,14.89,66.65,24.79,128.47-22.28,61.82-47.07,74.92-115.12,74.92-115.12Z"/>
  </g>
</svg>