<?xml version="1.0" encoding="UTF-8"?>
<svg id="Layer_2" data-name="Layer 2" xmlns="http://www.w3.org/2000/svg" viewBox="0 0 507.7 706.85">
  <defs>
    <style>
      .cls-1 {
        fill: #21196d;
      }
    </style>
  </defs>
  <g id="images">
    <path class="cls-1" d="m303.71,435.25c44.48,82.09,63.63,137.61-15.44,40.42,29.27,121.9,7.66,134.82-26.91-.43-29.04,107.71-35.53,54.89-19.82-39.71-17.82,70.13-20.39,31.28,5.35-43.39,2.75,4.58,18.04-30.04,36.74-45.64,68.09-26.26,91.11-21.95,46.79-7.8,97.26-11.87,155.39,23.78,52.73,32,142.79,45.23,177.62,83.2,25.91,65.24,144.79,147.6,117.68,192.18-18.65,60.65,123.44,153.51,76.36,215.13-53.15,47.47,25.54,210.91-22.56,219.45-74.6,10.48-43.95,190.24-108.84,157.61-79.11-39.82-118.03,123.34-152.01,65.52-37.29-72.41-106.52,40.17-182.9-18.16-38.04-70.44-151.33-12.97-139.8-34.35,8.64-30.02-130.72-15.5-97.7-43.25,22.59-28.08-114.37-59.99-122.19-124.64,27-52.94-32.28-107.76-46.86-107.73,27.52-26.2-52.88-149.55-30.57-190.36,31.73-38.71-2.45-155.7,31.56-144.95,36.96-5.09,13.46-177.5,34.85-227.63,33.48-32.96,72.67-187.62,105.36-161.68,39.57,11.73,86.21-185.78,89.06-190.3,9.14-10.63,90.09-200.45,110.8-219.45,19.82-10.5,118.09-191.87,124.13-178.35,5.95,16.96,102.6-172.11,98.05-189.54-14.9,12.38,78.5-141.09,42.21-160.55-31.2,3.33,56.55-172.57,31.72-180.93-24.41-7.06,25.74-176.5,5.6-170.74-20.42,16.49,15.62-130.66,5.73-116.5-21.01,22.47-26.49-134.64-34.63-145.6-27.73.14-47.47-127.6-61.13-118.24-20.31,29.52-53.57-67.42-77.59-48.57-23.41,31.72-86.34-72.4-124.09-73.36-28.45,16.81-100.91-29.4-93.51-16.49-3.41,32.58-113.17-6.31-117.19,10.09-17.21,27.31-137.2,15.65-135.64,40.91,3.87,34.23-90.05,59.2-58.64,114.92,24.15,59.49-99.17,127.65-75.16,170.46,27.77,52.97-24.31,169.94,73.63,251.08,120.6,30.25,157.33,126.21,167.26,64.98,59.76-69.23,120.6,76.43,117.9,15.98-18.02-62.23,56.66,9.82,12.47,19.85-55.08-.71,16.53,66.09,15.16,88.99-13.54,23,28.7,65.98,53.76,77.92,16.02,16.35Z"/>
  </g>
</svg>