<?xml version="1.0" encoding="UTF-8"?>
<svg id="Layer_2" data-name="Layer 2" xmlns="http://www.w3.org/2000/svg" viewBox="0 0 1016.92 634.05">
  <defs>
    <style>
      .cls-1 {
        fill: #009962;
      }
    </style>
  </defs>
  <g id="images">
    <path class="cls-1" d="m541.27,319.81c21.04-2.75,42.06-5.64,63.05-8.72,16.52-2.43,33.02-4.98,49.49-7.74,11.96-2,23.91-4.11,35.81-6.46,7.45-1.47,14.9-2.99,22.24-4.92,2.02-.53,4.04-1.08,6.01-1.8,1.33-.48,2.88-1,3.89-2.06,1.98-2.06.73-5.04-1.83-5.74-1.45-.4-3.07-.4-4.57-.41-5.99-.02-12,.61-17.95,1.2-10.82,1.08-21.61,2.46-32.39,3.92-15.28,2.07-30.52,4.36-45.75,6.76-19.97,3.15-39.91,6.5-59.83,9.98-5.6.98-11.2,1.97-16.8,2.96l1.6,5.79c21.39-6.09,42.77-12.22,64.13-18.43,16.72-4.86,33.43-9.77,50.12-14.76,12.05-3.6,24.1-7.24,36.11-10.97,7.38-2.29,14.77-4.6,22.09-7.08,1.93-.65,3.86-1.31,5.76-2.03,1.2-.46,2.67-.86,3.61-1.79,1.66-1.64.93-4.54-1.34-5.15-.79-.21-1.53-.07-2.33.05-1.38.21-2.74.54-4.1.85-6.29,1.48-12.52,3.19-18.75,4.89-10.95,2.99-21.87,6.08-32.78,9.21-15.63,4.48-31.23,9.04-46.82,13.64-20.3,5.99-40.58,12.06-60.85,18.18-5.6,1.69-11.21,3.39-16.81,5.09l1.6,5.79c20.36-7.98,40.71-16,61.03-24.09,15.64-6.23,31.27-12.49,46.87-18.83,10.98-4.46,21.95-8.95,32.89-13.53,6.7-2.81,13.4-5.61,20.02-8.6,1.59-.71,3.18-1.43,4.72-2.22,1.42-.73,2.89-1.64,2.89-3.48,0-3.12-3.02-3.26-5.18-2.65-1.55.44-3.08.97-4.6,1.5-6.32,2.19-12.58,4.56-18.83,6.94-10.5,3.99-20.97,8.06-31.43,12.16-14.55,5.71-29.08,11.5-43.59,17.32-18.62,7.47-37.21,15.01-55.78,22.59-5.1,2.08-10.2,4.17-15.3,6.26l1.6,5.79c16.49-6.79,32.99-13.57,49.5-20.31,12.86-5.25,25.73-10.48,38.6-15.68,9.25-3.73,18.5-7.45,27.77-11.14,5.76-2.29,11.53-4.58,17.32-6.81,1.58-.61,3.15-1.21,4.74-1.8.69-.25,1.48-.42,2.14-.74.02-.01.07,0,.09-.02-.7.51-2.54-.42-2.86-.77l-.77-1.32c-.11-.29.21-3.22,1.33-3.34-.03,0-.06.05-.09.05-.1.02-.21.11-.3.15-.38.17-.75.35-1.12.51-1.44.64-2.9,1.25-4.36,1.87-.11.05.81-.34.3-.12-.13.05-.26.11-.39.16-.27.11-.54.23-.81.34-.56.24-1.13.47-1.69.71-1.3.54-2.6,1.08-3.9,1.62-3.3,1.37-6.61,2.72-9.92,4.07-9.25,3.77-18.51,7.51-27.77,11.23-12.78,5.13-25.58,10.23-38.38,15.31-16.33,6.48-32.68,12.92-49.03,19.34-2.28.89-4.55,1.79-6.83,2.68l2.31,5.48c12.79-6.32,25.44-12.93,37.86-19.95,9.68-5.47,19.23-11.19,28.51-17.31,6.77-4.47,13.42-9.16,19.71-14.28,3.77-3.07,7.57-6.31,10.6-10.13,1.89-2.39,4.44-5.95,2.68-9.09s-5.59-2.81-8.54-2.28c-4.68.83-9.2,2.82-13.51,4.75-7,3.13-13.75,6.82-20.38,10.68-9.33,5.44-18.41,11.3-27.33,17.38-11.58,7.89-22.89,16.17-34.01,24.7-3.23,2.48-6.45,4.98-9.65,7.49l4.24,4.24c12.5-13.43,25.12-26.75,38.16-39.66,3.85-3.81,7.73-7.58,11.72-11.24,1.35-1.24,2.72-2.47,4.11-3.66.52-.45,1.05-.9,1.59-1.33.22-.18.45-.36.67-.54.66-.53-.66.48.13-.1.52-.38,1.23-.69,1.71-1.11.03-.02-.95.34-.45.2-.34.09-.96.11-1.38,0-1.27-.35-2.09-1.49-2.1-2.75,0,.37.2-1.04.07-.57-.14.53.42-.72.19-.43-.08.1-.12.24-.18.35-.19.31-.38.61-.59.91-.26.38-.54.75-.82,1.12-.38.52.17-.22.15-.19-.1.12-.19.24-.28.36-.2.26-.41.51-.62.77-5.84,7.18-12.38,13.83-18.86,20.42-11.6,11.79-23.58,23.22-35.73,34.44-1.84,1.7-3.69,3.4-5.55,5.1-1.09,1-1.12,2.82-.23,3.94,1.01,1.26,2.45,1.38,3.87.77,11.15-4.78,22.51-9.22,34.17-12.6,3.67-1.06,7.37-2.03,11.13-2.69.65-.12,1.31-.21,1.96-.31s-.76.08-.14.02c.16-.02.32-.04.47-.06.3-.03.6-.06.9-.09.97-.08,1.96-.14,2.94-.07.11,0,.48.1.57.05-.36.2-.9-.19-.29-.03.52.13,1.15.46.2-.02.74.37-.34-.37-.1-.12.18.19-.56-.84-.3-.36-.55-1.02-.32-.83-.25-.58.08.28-.04.46-.07-.61.02.55.28-1.01,0-.19.36-1.04.29-.69.15-.41-.3.58-.3-.06.16-.16-.15.03-.48.54-.61.67s-.28.26-.43.39c-.08.07-.16.13-.24.2-.31.27-.22.45.17-.13-.49.71-1.85,1.28-2.58,1.72-1.21.72-2.46,1.38-3.72,2.01-1.57.78-3.17,1.49-4.78,2.19-.75.33.58-.24-.18.08-.15.06-.31.13-.46.19-.47.2-.95.39-1.42.58-1.01.4-2.03.8-3.05,1.18-12.59,4.73-25.67,8.14-38.79,11.03-2.94.65-2.78,5.05,0,5.79,6.31,1.68,12.63,3.39,18.82,5.47.91.31,1.81.62,2.71.96.32.12.64.25.96.37.11.04.74.31.2.08s.02.01.14.07c.42.2.83.42,1.24.63.55.29-.13-.11-.2-.18.4.41-.36-.55-.25-.35-.62-1.08-.39-2.56.43-3.37.75-.74.26-.23.82-.53.47-.26.36-.15.19-.09-.55.18.17-.06.35-.03-.17-.02-.39.03-.56.03-1.12.03-2.26-.08-3.37-.2-.33-.04-.66-.07-.98-.11-.2-.03-.41-.05-.61-.08.57.07.38.05-.03,0-.9-.13-1.81-.27-2.71-.42-2.08-.34-4.15-.73-6.22-1.15-5.78-1.16-11.51-2.54-17.2-4.08-.98-.27-2.23-.02-2.92.77-9.74,11.23-18.11,24.18-24.16,37.78-.95,2.13-1.88,4.3-2.57,6.54-.46,1.49-.89,3.15-.48,4.69s1.76,2.51,3.27,2.51c1.16,0,2.09-.57,2.95-1.28,1.58-1.3,2.82-3.06,4.02-4.7,6.82-9.26,12.39-19.53,17.97-29.56l-5.59-1.51c-1.35,17.98-2.42,36-2.84,54.03-.22,9.53-.52,19.22.42,28.72.19,1.9.26,4.32,1.33,6,1.15,1.8,3.63,2.2,5.18.64.71-.72,1.08-1.72,1.35-2.67.79-2.76,1.05-5.71,1.36-8.55.54-4.87.88-9.77,1.17-14.66.99-16.96,1.26-33.96,1.32-50.95.01-2.74.01-5.49.01-8.23h-6c1.97,14.68,3.65,29.39,4.99,44.14,1.12,12.35,1.99,24.72,2.55,37.11.44,9.76.69,19.53.62,29.3-.05,6.92-.23,13.84-.8,20.74-.1,1.23-.22,2.47-.36,3.7-.06.56-.13,1.13-.2,1.69s.06-.44.04-.32-.03.24-.05.36c-.04.25-.07.5-.11.74-.23,1.5-.49,3.02-.94,4.47-.08.25-.18.49-.26.74-.13.42.45-.84.16-.39-.04.07-.11.18-.13.26s-.1.13-.12.21c-.16.43.55-.64.31-.39-.44.45.75-.48.33-.24.65-.36,1.32-.45,1.98-.27.45.13.74.32,1.02.59-.44-.42.45.84.18.23-.07-.16-.17-.37-.26-.52-.09-.14.34.94.16.36-.04-.14-.1-.27-.14-.41-.1-.29-.18-.57-.26-.86-.2-.75-.37-1.51-.51-2.28-.19-.99-.34-1.99-.49-2.99-.02-.13-.04-.27-.06-.4-.03-.2.11.87.04.27-.04-.33-.08-.66-.12-.99-.08-.64-.15-1.28-.22-1.92-.78-7.42-1.1-14.89-1.32-22.35-.33-11.54-.32-23.09-.15-34.64.23-16,.79-32,1.52-47.98.21-4.64.44-9.27.69-13.9l-5.89.8c3.02,20.76,6.2,41.49,9.59,62.19,2.66,16.18,5.44,32.34,8.46,48.46,2.18,11.63,4.46,23.23,7.02,34.78,1.57,7.09,3.19,14.2,5.28,21.16.63,2.09,1.3,4.15,2.17,6.15.53,1.22,1.19,2.53,2.4,3.21,2.28,1.3,4.61-.37,5.14-2.66.37-1.58.36-3.28.33-4.88-.09-6.13-.82-12.26-1.54-18.33-1.27-10.79-2.85-21.54-4.53-32.27-2.36-15.04-4.95-30.03-7.67-45.01-3.54-19.47-7.3-38.9-11.2-58.31-1.08-5.35-2.16-10.7-3.26-16.04l-5.79,1.6c7.03,19.25,14.18,38.45,21.52,57.58,5.71,14.89,11.53,29.73,17.54,44.5,4.37,10.73,8.83,21.43,13.53,32.02,2.83,6.38,5.7,12.78,8.98,18.95.85,1.61,1.73,3.23,2.76,4.73.84,1.22,1.82,2.6,3.34,2.99,2.62.68,4.26-1.65,4.23-3.97-.02-1.61-.41-3.27-.77-4.83-1.35-5.88-3.26-11.65-5.15-17.37-3.27-9.91-6.81-19.72-10.43-29.51-5.12-13.84-10.44-27.6-15.86-41.32-7.02-17.75-14.22-35.43-21.54-53.05-2.06-4.96-4.13-9.91-6.2-14.85l-5.48,2.31c9.9,18.28,19.84,36.54,29.83,54.77,7.84,14.29,15.71,28.56,23.64,42.8,5.74,10.3,11.51,20.59,17.35,30.84,3.6,6.32,7.22,12.63,10.96,18.87.99,1.66,1.99,3.31,3.04,4.94.56.86,1.13,1.85,1.88,2.57,1.9,1.83,5.23.6,5.24-2.13,0-.52-.13-.97-.3-1.44-.52-1.43-1.22-2.81-1.89-4.17-2.63-5.37-5.44-10.66-8.24-15.95-4.93-9.3-9.94-18.55-14.97-27.79-7.28-13.36-14.63-26.69-22-40-9.56-17.24-19.17-34.44-28.83-51.63-2.7-4.81-5.41-9.63-8.12-14.44l-5.18,3.03c12.17,19.21,24.22,38.49,36.1,57.88,9.48,15.46,18.85,30.99,28.05,46.61,6.83,11.59,13.57,23.23,20.12,34.97,4.22,7.57,8.39,15.17,12.27,22.91,1.14,2.27,2.25,4.56,3.27,6.88.05.11.09.22.14.33.21.48-.33-.8-.16-.37.08.21.17.41.25.62.14.34.27.68.39,1.03.17.47.27.96.42,1.43.14.43-.03-1.07-.07-.34.05-.92.45-1.81,1.37-2.35.7-.41,1.45-.48,2.18-.29-.42-.11.89.42.56.24-.65-.34.57.57.21.19s-.75-.74-1.1-1.15c-.24-.28-.48-.57-.71-.86-.14-.17-.27-.35-.41-.52-.33-.41.52.68.23.3-.08-.11-.16-.22-.25-.32-3.94-5.19-7.46-10.72-10.98-16.2-6.28-9.8-12.34-19.74-18.32-29.71-8.64-14.39-17.1-28.89-25.46-43.44-10.99-19.12-21.82-38.33-32.54-57.6-3.03-5.46-6.06-10.92-9.08-16.39-.78-1.42-2.73-1.88-4.1-1.08-1.52.89-1.74,2.62-1.08,4.1,6.11,13.73,12.28,27.44,18.5,41.12,5.66,12.45,11.38,24.89,17.14,37.29,5.21,11.21,10.47,22.39,15.78,33.55,4.68,9.83,9.4,19.64,14.18,29.43,4.15,8.49,8.34,16.97,12.58,25.41,3.59,7.14,7.21,14.25,10.9,21.34,3.01,5.78,6.06,11.55,9.17,17.28,2.37,4.36,4.78,8.7,7.28,12.99,1.72,2.95,3.46,5.88,5.35,8.73,1.13,1.71,2.3,3.57,3.78,5,.74.72,1.55,1.28,2.59,1.41,1.71.22,3.24-.85,3.67-2.52.46-1.77-.22-3.82-.72-5.52-.84-2.86-1.89-5.67-2.96-8.45-1.75-4.56-3.62-9.07-5.53-13.57-2.49-5.89-5.06-11.74-7.68-17.57-3.35-7.48-6.77-14.93-10.22-22.37-4.2-9.03-8.46-18.03-12.76-27.01-5.09-10.63-10.23-21.22-15.41-31.8-6-12.25-12.06-24.46-18.15-36.66-6.98-13.96-14.01-27.88-21.08-41.79-3.71-7.3-7.44-14.6-11.18-21.88l-4.71,3.64c11.37,13.55,22.84,27.01,34.43,40.37,10.25,11.81,20.58,23.55,31.04,35.18,9.2,10.23,18.48,20.39,27.88,30.43,8.05,8.61,16.19,17.13,24.45,25.55,6.97,7.1,14.02,14.13,21.19,21.02,5.81,5.59,11.69,11.09,17.71,16.45,4.68,4.17,9.44,8.26,14.36,12.15,3.67,2.91,7.41,5.77,11.36,8.3,2.53,1.62,5.2,3.19,8.07,4.13,2.21.73,4.89.92,6.72-.79s1.75-4.28,1.26-6.52c-.62-2.79-1.97-5.47-3.29-7.98-1.99-3.77-4.29-7.39-6.67-10.93-3.28-4.88-6.75-9.63-10.31-14.31-4.67-6.14-9.49-12.18-14.4-18.13-5.79-7.02-11.71-13.92-17.72-20.76-7.09-8.06-14.3-16.02-21.59-23.9-8.33-9-16.78-17.89-25.31-26.7-9.66-9.97-19.43-19.83-29.29-29.6-10.91-10.81-21.93-21.51-33.05-32.11-5.81-5.54-11.64-11.05-17.5-16.54l-3.64,4.71c14.92,10.97,29.83,21.94,44.75,32.9,13.45,9.89,26.91,19.77,40.36,29.65,11.98,8.79,23.96,17.58,35.95,26.37,10.5,7.7,20.99,15.39,31.49,23.08,9,6.59,18,13.18,27.01,19.76,7.5,5.48,14.99,10.95,22.5,16.42,5.98,4.36,11.96,8.71,17.95,13.06,4.45,3.23,8.91,6.46,13.37,9.67,2.91,2.1,5.83,4.2,8.76,6.27,1.35.96,2.69,2.01,4.12,2.85.1.06.2.12.3.17,2.57,1.35,5.73-1.39,4.14-4.11-.29-.5-.68-.83-1.12-1.18-1.75-1.44-3.57-2.8-5.37-4.17-3.16-2.42-6.34-4.81-9.52-7.21-4.76-3.58-9.52-7.15-14.29-10.72-6.33-4.73-12.66-9.46-19-14.18-8-5.96-16-11.91-24-17.86-9.55-7.1-19.09-14.19-28.65-21.27-11.26-8.36-22.53-16.71-33.8-25.06-12.8-9.49-25.61-18.97-38.42-28.45-14.51-10.74-29.02-21.47-43.53-32.2-7.64-5.65-15.29-11.3-22.93-16.95l-3.03,5.18c18.74,12.3,37.57,24.48,56.48,36.51,17.07,10.86,34.22,21.6,51.46,32.19,15.32,9.41,30.7,18.71,46.18,27.86,13.62,8.06,27.31,16,41.08,23.8,11.83,6.7,23.72,13.29,35.7,19.72,9.97,5.35,19.99,10.6,30.11,15.68,8.13,4.08,16.32,8.06,24.6,11.82,6.42,2.92,12.89,5.73,19.48,8.25,4.26,1.63,8.58,3.19,13.02,4.25,2.7.65,5.86,1.39,8.62.62s4.29-3.65,3.27-6.45-3.36-5.33-5.52-7.5c-3.44-3.47-7.23-6.6-11.05-9.64-5.85-4.65-11.88-9.08-17.98-13.39-7.9-5.58-15.93-10.97-24.02-16.26-10.1-6.6-20.31-13.04-30.59-19.37-12.41-7.65-24.91-15.14-37.47-22.53-14.72-8.65-29.52-17.16-44.38-25.55-17-9.6-34.09-19.05-51.24-28.39-19.44-10.59-38.96-21.02-58.54-31.34-10.25-5.4-20.52-10.76-30.8-16.1l-2.31,5.48c21.15,6.8,42.32,13.54,63.51,20.21,18.92,5.96,37.85,11.86,56.8,17.69,16.63,5.12,33.28,10.18,49.95,15.17,14.48,4.33,28.97,8.62,43.48,12.82,12.26,3.56,24.54,7.06,36.85,10.48,10.03,2.79,20.07,5.53,30.14,8.18,7.85,2.06,15.71,4.08,23.6,5.98,5.69,1.37,11.4,2.69,17.14,3.85,3.76.75,7.54,1.47,11.36,1.85,2.02.2,4.68.48,6.25-1.11,2.59-2.64-.28-5.39-2.52-6.74-2.63-1.58-5.49-2.79-8.31-4-5.04-2.16-10.14-4.15-15.26-6.08-6.99-2.63-14.02-5.15-21.08-7.61-9.13-3.19-18.28-6.29-27.46-9.34-11.2-3.72-22.43-7.37-33.68-10.96-13.3-4.25-26.63-8.42-39.97-12.55-15.45-4.77-30.92-9.48-46.4-14.13-17.54-5.27-35.1-10.46-52.68-15.6-19.55-5.72-39.12-11.36-58.71-16.95-10.25-2.92-20.5-5.83-30.75-8.72l-1.6,5.79c21.79,3.7,43.58,7.37,65.37,11,19.55,3.26,39.11,6.49,58.67,9.68,17.39,2.84,34.78,5.65,52.17,8.43,15.21,2.43,30.42,4.83,45.64,7.19,13.02,2.02,26.04,4.02,39.06,5.97,10.85,1.63,21.7,3.23,32.56,4.79,8.81,1.26,17.62,2.5,26.43,3.68,6.38.86,12.77,1.69,19.16,2.44,4.14.49,8.29.97,12.45,1.31,2.06.17,4.43.56,6.48.08,2.37-.56,3.51-3.43,1.7-5.28-.66-.68-1.58-1.01-2.46-1.31-2.39-.83-4.9-1.35-7.37-1.91-4.75-1.08-9.52-2.04-14.29-2.99-7.04-1.39-14.09-2.72-21.15-4.02-9.35-1.72-18.71-3.4-28.07-5.04-11.72-2.06-23.44-4.08-35.17-6.07-13.96-2.37-27.92-4.7-41.89-7.01-16.41-2.71-32.83-5.38-49.25-8.03-18.71-3.02-37.43-6-56.15-8.95-21.08-3.32-42.17-6.61-63.26-9.87-11.06-1.71-22.13-3.41-33.19-5.11l-.8,5.89c24.51,2.01,49.01,3.97,73.53,5.86,22.02,1.7,44.05,3.35,66.09,4.93,19.61,1.41,39.22,2.76,58.84,4.05,17.22,1.13,34.45,2.22,51.69,3.23,14.68.87,29.35,1.68,44.03,2.43,12.29.63,24.59,1.2,36.89,1.7,9.74.39,19.49.74,29.23.99,7.3.19,14.59.33,21.89.34,4.75,0,9.52-.02,14.26-.28,2.42-.13,5.13-.14,7.44-.94,2.05-.72,3.54-2.82,2.32-4.97-.65-1.13-1.81-1.66-2.98-2.09-2.59-.95-5.43-1.35-8.14-1.82-5.52-.94-11.07-1.67-16.63-2.36-7.88-.98-15.77-1.84-23.66-2.66-10.49-1.08-21-2.07-31.51-3.01-13.13-1.18-26.26-2.28-39.4-3.33-15.78-1.26-31.56-2.45-47.34-3.59-18.5-1.34-37.01-2.61-55.52-3.83-21.06-1.39-42.12-2.71-63.19-3.99-23.9-1.44-47.8-2.82-71.7-4.15-12.47-.69-24.95-1.37-37.42-2.03v6c26.46-1.57,52.92-3.22,79.38-4.97,23.72-1.57,47.44-3.23,71.14-4.99,20.92-1.55,41.83-3.18,62.74-4.91,18.2-1.51,36.38-3.09,54.56-4.77,15.52-1.44,31.02-2.95,46.52-4.57,12.78-1.34,25.55-2.75,38.31-4.29,10.23-1.23,20.46-2.54,30.67-3.99,7.32-1.04,14.64-2.16,21.92-3.47,4.62-.84,9.27-1.71,13.8-2.97,2.29-.63,5.25-1.3,6.92-3.12,1.36-1.49,1.37-3.71-.13-5.12-.9-.85-2.15-1.26-3.33-1.53-3.55-.81-7.31-.96-10.93-1.12-6.11-.27-12.23-.27-18.35-.2-8.84.09-17.68.35-26.51.69-11.49.44-22.97,1-34.45,1.64-14.27.8-28.53,1.71-42.79,2.69-16.99,1.17-33.97,2.46-50.94,3.81-19.64,1.57-39.27,3.24-58.9,4.99-22.34,1.99-44.67,4.08-66.99,6.26-25.12,2.44-50.22,4.99-75.32,7.62-13.08,1.37-26.15,2.76-39.22,4.18l.8,5.89c24.14-4.93,48.27-9.88,72.4-14.86,21.42-4.42,42.83-8.87,64.23-13.35,18.8-3.93,37.6-7.89,56.39-11.88,16.26-3.45,32.51-6.93,48.76-10.44,13.63-2.95,27.26-5.92,40.88-8.93,11.09-2.45,22.18-4.93,33.25-7.45,8.6-1.96,17.18-3.94,25.76-5.98,6.05-1.44,12.1-2.91,18.13-4.46,3.62-.93,7.24-1.86,10.8-2.98,2.17-.68,5.61-1.46,5.61-4.34,0-3.59-3.95-3.28-6.37-3.04-3.79.37-7.56.96-11.33,1.54-5.91.92-11.8,1.92-17.69,2.95-8.26,1.44-16.52,2.94-24.76,4.47-10.63,1.97-21.26,3.98-31.88,6.02-12.87,2.47-25.72,4.97-38.58,7.5-15.24,3-30.48,6.03-45.71,9.09-17.46,3.5-34.91,7.04-52.36,10.6-19.7,4.02-39.39,8.07-59.08,12.15-21.99,4.55-43.97,9.14-65.94,13.74-11.36,2.38-22.71,4.77-34.06,7.16l1.6,5.79c21.42-7.27,42.83-14.59,64.21-21.99,19.13-6.62,38.23-13.3,57.31-20.05,17.08-6.04,34.14-12.14,51.17-18.32,14.8-5.36,29.57-10.78,44.32-16.27,12.67-4.72,25.32-9.49,37.94-14.33,10.48-4.03,20.95-8.11,31.37-12.27,8.29-3.31,16.56-6.68,24.79-10.14,6.3-2.66,12.58-5.35,18.79-8.21,3.91-1.8,7.82-3.63,11.6-5.71,2.03-1.12,4.73-2.39,6-4.43.88-1.41.84-3.21-.4-4.42-.95-.92-2.29-1.14-3.56-1.13-2.9.02-5.87.76-8.68,1.39-4.91,1.1-9.78,2.43-14.62,3.8-7.15,2.02-14.26,4.17-21.35,6.38-9.36,2.91-18.69,5.93-27.99,8.99-11.68,3.85-23.34,7.79-34.98,11.78-13.86,4.75-27.69,9.58-41.51,14.47-16.23,5.74-32.44,11.55-48.63,17.42-18.39,6.67-36.76,13.41-55.11,20.21-20.81,7.71-41.6,15.49-62.36,23.33-10.8,4.08-21.59,8.17-32.37,12.28l2.31,5.48c20.58-11.51,41.12-23.09,61.61-34.76,18.18-10.35,36.32-20.77,54.42-31.28,15.94-9.25,31.83-18.57,47.68-27.98,13.62-8.08,27.2-16.23,40.73-24.46,11.39-6.93,22.74-13.93,34.03-21.01,9.19-5.77,18.35-11.6,27.44-17.54,7.03-4.6,14.03-9.25,20.94-14.04,4.93-3.41,9.82-6.89,14.57-10.54,3.02-2.33,6.11-4.67,8.79-7.4,1.72-1.75,3.99-4.37,2.51-6.96s-4.74-1.95-7.07-1.33c-3.56.95-7,2.45-10.38,3.89-5.29,2.26-10.48,4.74-15.64,7.26-7.25,3.55-14.42,7.24-21.57,11-9.17,4.82-18.28,9.75-27.35,14.74-11.02,6.06-21.99,12.22-32.93,18.44-12.87,7.32-25.7,14.74-38.48,22.21-14.7,8.59-29.34,17.27-43.95,26.01-16.49,9.87-32.92,19.82-49.31,29.84-18.31,11.19-36.57,22.46-54.78,33.81-9.43,5.87-18.85,11.77-28.25,17.68l3.03,5.18c16.08-11.91,32.14-23.85,48.18-35.81,14.33-10.68,28.64-21.38,42.94-32.1,12.59-9.45,25.17-18.91,37.74-28.4,10.87-8.21,21.73-16.44,32.57-24.7,9.13-6.95,18.25-13.93,27.35-20.93,7.65-5.89,15.29-11.79,22.91-17.73,5.78-4.51,11.55-9.04,17.29-13.6,4.14-3.3,8.27-6.61,12.36-9.97,2.49-2.06,4.99-4.12,7.39-6.29,1.34-1.21,3.32-2.73,3.33-4.71.01-2.22-2.24-3.58-4.23-2.91-.81.28-1.58.7-2.32,1.13-2.36,1.37-4.62,2.91-6.88,4.43-3.94,2.65-7.83,5.37-11.7,8.11-5.5,3.87-10.96,7.79-16.41,11.72-7.09,5.12-14.16,10.26-21.22,15.43-8.66,6.34-17.3,12.71-25.93,19.1-10.22,7.56-20.41,15.15-30.6,22.76-11.76,8.78-23.5,17.59-35.23,26.42-13.29,10-26.56,20.03-39.82,30.08-14.81,11.22-29.6,22.47-44.38,33.73-7.68,5.85-15.35,11.71-23.02,17.57l3.64,4.71c14.33-12.96,28.64-25.93,42.93-38.94,12.79-11.65,25.57-23.32,38.32-35.02,11.36-10.43,22.7-20.88,34.02-31.35,9.84-9.11,19.65-18.24,29.44-27.4,8.36-7.82,16.71-15.67,25.02-23.54,6.91-6.55,13.81-13.12,20.67-19.72,5.43-5.23,10.85-10.47,16.22-15.76,3.94-3.88,7.86-7.78,11.73-11.73,2.48-2.54,4.95-5.09,7.31-7.73,1.26-1.41,2.77-2.89,3.51-4.66.87-2.07-.45-4.53-2.85-4.51-.96,0-1.83.45-2.63.94-2.16,1.32-4.14,2.98-6.11,4.55-3.37,2.68-6.66,5.44-9.94,8.23-4.84,4.11-9.64,8.27-14.41,12.45-6.28,5.5-12.53,11.05-18.77,16.61-7.78,6.95-15.53,13.93-23.27,20.94-9.22,8.35-18.41,16.73-27.58,25.13-10.73,9.83-21.43,19.68-32.12,29.56-12.15,11.24-24.28,22.5-36.39,33.79-13.68,12.75-27.33,25.52-40.96,38.32-7.11,6.68-14.22,13.36-21.32,20.05l4.24,4.24c13.2-15.3,26.36-30.64,39.45-46.03,11.65-13.69,23.25-27.43,34.8-41.21,10.21-12.19,20.37-24.42,30.48-36.7,8.71-10.59,17.38-21.22,25.99-31.89,7.31-9.07,14.57-18.17,21.76-27.32,5.98-7.62,11.92-15.27,17.79-22.98,4.51-5.93,8.98-11.9,13.34-17.93,3.13-4.33,6.23-8.69,9.18-13.15,1.81-2.74,3.63-5.51,5.14-8.44.99-1.92,2.4-4.56,1.18-6.7-1.51-2.65-4.57-1.69-6.56-.32-2.47,1.71-4.7,3.79-6.87,5.85-3.46,3.28-6.79,6.71-10.09,10.16-4.7,4.93-9.31,9.95-13.87,15-5.92,6.55-11.76,13.17-17.56,19.82-7.09,8.13-14.11,16.32-21.09,24.55-8.26,9.74-16.46,19.53-24.62,29.35-9.46,11.39-18.85,22.83-28.2,34.31-10.6,13.01-21.14,26.08-31.63,39.18-11.67,14.58-23.29,29.21-34.85,43.88-6.03,7.65-12.05,15.32-18.06,23l4.71,3.64c9.39-14.9,18.75-29.81,28.08-44.75,8.31-13.3,16.59-26.61,24.84-39.94,7.27-11.75,14.52-23.52,21.74-35.31,6.19-10.11,12.36-20.24,18.49-30.39,5.16-8.54,10.29-17.09,15.39-25.67,4.14-6.97,8.26-13.96,12.34-20.98,3.15-5.42,6.27-10.85,9.33-16.31,2.18-3.88,4.33-7.78,6.4-11.72,1.21-2.32,2.42-4.64,3.46-7.05.89-2.08,2.15-5.03-.44-6.56-2.25-1.32-4.19.54-5.55,2.13-1.82,2.13-3.48,4.42-5.13,6.69-2.54,3.52-5.01,7.09-7.45,10.68-3.41,5.01-6.76,10.05-10.1,15.11-4.28,6.49-8.51,13.02-12.72,19.55-5.13,7.97-10.23,15.96-15.3,23.97-5.97,9.43-11.92,18.88-17.83,28.35-6.83,10.94-13.64,21.89-20.41,32.87-7.62,12.33-15.2,24.69-22.76,37.06-8.41,13.77-16.8,27.55-25.15,41.36-4.35,7.18-8.69,14.37-13.03,21.57l5.18,3.03c11.58-25.85,22.97-51.79,34.04-77.86,8.63-20.31,17.08-40.69,25.2-61.21,5.73-14.48,11.31-29.02,16.48-43.71,3.1-8.82,6.18-17.71,8.49-26.78.65-2.56,1.23-5.14,1.5-7.77.2-1.96.05-4.31-1.82-5.46-4.2-2.57-7.96,4.42-9.64,7.13-4.54,7.31-8.36,15.09-12.13,22.81-6.37,13.05-12.34,26.3-18.16,39.6-8.23,18.79-16.13,37.72-23.85,56.72-9.84,24.22-19.37,48.56-28.69,72.98-2.58,6.76-5.14,13.52-7.69,20.29l5.79,1.6c3.24-15.03,6.45-30.06,9.62-45.1,2.87-13.57,5.7-27.15,8.5-40.74,2.5-12.1,4.97-24.21,7.4-36.33,2.13-10.62,4.24-21.25,6.31-31.88,1.78-9.12,3.53-18.25,5.24-27.39,1.43-7.61,2.83-15.23,4.18-22.85,1.08-6.08,2.14-12.17,3.14-18.27.75-4.54,1.47-9.09,2.11-13.65.46-3.23.91-6.46,1.2-9.71.15-1.64.4-3.46.02-5.1s-1.84-2.8-3.55-2.57c-1.23.16-2.09.96-2.67,2.01-.92,1.66-1.45,3.61-2.01,5.4-.97,3.16-1.83,6.35-2.67,9.55-1.26,4.79-2.44,9.61-3.6,14.42-1.55,6.44-3.05,12.89-4.52,19.35-1.84,8.1-3.65,16.2-5.42,24.31-2.14,9.77-4.23,19.54-6.31,29.32-2.43,11.45-4.81,22.91-7.18,34.37-2.71,13.15-5.38,26.31-8.03,39.47-2.99,14.86-5.94,29.73-8.87,44.61-1.53,7.79-3.06,15.59-4.58,23.39l5.89.8c1.33-16.57,2.61-33.15,3.84-49.73,1.1-14.84,2.16-29.68,3.16-44.52.88-13.11,1.73-26.22,2.51-39.33.68-11.38,1.33-22.77,1.91-34.15.5-9.66.95-19.32,1.35-28.98.33-7.94.61-15.88.83-23.82.17-6.22.3-12.45.35-18.67.03-4.51.03-9.03-.09-13.54-.08-2.8-.17-5.62-.49-8.41-.2-1.76-.33-4.05-1.7-5.39s-3.41-1.18-4.72.11c-.69.69-1.05,1.68-1.35,2.58-.69,2.06-1.04,4.25-1.41,6.38-.69,4.03-1.23,8.08-1.74,12.14-.69,5.49-1.29,10.99-1.85,16.5-.73,7.18-1.39,14.37-2,21.57-.76,8.87-1.46,17.75-2.12,26.63-.78,10.55-1.51,21.11-2.2,31.67-.79,12.23-1.53,24.47-2.23,36.71-.79,13.91-1.53,27.82-2.22,41.74-.78,15.58-1.5,31.17-2.18,46.75-.35,8.17-.7,16.34-1.03,24.51h6c-1.86-29.38-3.83-58.75-5.99-88.11-1.68-22.76-3.46-45.52-5.44-68.25-1.41-16.21-2.92-32.42-4.67-48.6-1.07-9.93-2.19-19.88-3.74-29.74-.39-2.5-.8-5.01-1.4-7.46-.39-1.59-.87-3.53-2.4-4.41-2.76-1.58-4.71,1.04-5.07,3.44s-.41,4.73-.45,7.1c-.15,8.86.21,17.73.58,26.58.62,15.12,1.5,30.23,2.47,45.33,1.36,21.28,2.92,42.54,4.59,63.79,2.13,27.21,4.45,54.4,6.89,81.59.68,7.57,1.37,15.14,2.07,22.71l5.89-.8c-6.67-26.85-13.56-53.64-20.8-80.33-5.68-20.98-11.57-41.91-17.8-62.73-4.53-15.13-9.22-30.21-14.33-45.15-3.24-9.47-6.59-18.93-10.6-28.1-1.09-2.49-2.22-4.99-3.6-7.33-.86-1.46-1.89-3.13-3.44-3.96-2.49-1.33-4.98.35-5.58,2.89-.47,1.99-.32,4.14-.16,6.15.66,8.2,2.35,16.36,4.02,24.41,2.87,13.78,6.22,27.46,9.71,41.09,5.03,19.63,10.44,39.17,16.03,58.66,7.31,25.46,14.95,50.82,22.81,76.11,2.17,6.98,4.35,13.95,6.55,20.92l5.48-2.31c-7.26-14.73-14.56-29.43-21.91-44.11-6.65-13.27-13.34-26.52-20.08-39.74-6.02-11.81-12.08-23.59-18.2-35.35-5.37-10.33-10.78-20.64-16.25-30.92-4.72-8.88-9.48-17.74-14.3-26.57-4.01-7.34-8.05-14.67-12.15-21.96-3.29-5.84-6.62-11.67-10.02-17.44-2.55-4.33-5.14-8.65-7.83-12.9-1.78-2.82-3.6-5.64-5.57-8.33-1.22-1.67-2.52-3.62-4.29-4.78-2.59-1.69-5.48.27-5.45,3.19.02,1.97.79,4.03,1.42,5.87,1.13,3.31,2.46,6.56,3.81,9.78,2.11,5.06,4.33,10.07,6.59,15.06,2.92,6.43,5.92,12.83,8.95,19.2,3.84,8.06,7.74,16.09,11.69,24.1,4.74,9.63,9.54,19.22,14.38,28.8,5.68,11.24,11.41,22.44,17.18,33.63,6.63,12.86,13.31,25.69,20.04,38.5,7.6,14.49,15.26,28.95,22.96,43.39,4.05,7.59,8.11,15.18,12.18,22.77l4.71-3.64c-10.85-13.87-21.75-27.7-32.71-41.48-9.8-12.32-19.65-24.6-29.56-36.83-8.66-10.69-17.36-21.34-26.13-31.94-7.56-9.14-15.17-18.25-22.83-27.3-6.46-7.62-12.96-15.2-19.53-22.73-5.37-6.15-10.79-12.27-16.28-18.31-4.23-4.66-8.51-9.28-12.88-13.8-3.11-3.22-6.26-6.42-9.54-9.47-2.15-2-4.36-4-6.79-5.66-1.67-1.14-3.89-2.24-5.85-1.07-2.23,1.33-1.9,4.04-1.09,6.09,1.03,2.61,2.43,5.06,3.87,7.46,2.19,3.65,4.55,7.2,6.95,10.72,3.36,4.93,6.83,9.79,10.34,14.61,4.51,6.19,9.1,12.32,13.73,18.42,5.78,7.6,11.63,15.14,17.52,22.65,6.79,8.64,13.64,17.24,20.54,25.79,7.93,9.84,15.92,19.62,23.96,29.37,9.07,11.01,18.21,21.96,27.39,32.88,10.27,12.21,20.6,24.36,30.98,36.48,5.38,6.28,10.77,12.54,16.18,18.8l3.64-4.71c-13.17-9.87-26.38-19.69-39.64-29.43-12.01-8.82-24.06-17.58-36.16-26.27-10.78-7.74-21.59-15.42-32.46-23.03-9.61-6.73-19.26-13.41-28.95-20.01-8.36-5.69-16.76-11.33-25.21-16.9-7.05-4.64-14.14-9.24-21.29-13.74-5.78-3.65-11.59-7.24-17.47-10.73-4.44-2.63-8.91-5.22-13.46-7.66-3.06-1.64-6.16-3.24-9.36-4.6-2.05-.87-4.34-1.94-6.62-1.97-2.75-.03-4.77,2.29-3.95,5.02.63,2.1,2.32,3.87,3.77,5.44,2.32,2.52,4.86,4.85,7.41,7.13,3.9,3.48,7.92,6.84,11.97,10.14,5.61,4.57,11.3,9.03,17.03,13.45,7.03,5.42,14.12,10.76,21.26,16.04,8.59,6.37,17.24,12.65,25.92,18.89,10.26,7.37,20.57,14.66,30.92,21.9,11.92,8.34,23.89,16.6,35.89,24.81,13.61,9.3,27.26,18.53,40.95,27.71,7.18,4.81,14.37,9.6,21.57,14.38l3.03-5.18c-18.31-9.66-36.63-19.29-54.98-28.86-16.61-8.67-33.25-17.3-49.91-25.88-14.89-7.67-29.81-15.31-44.74-22.89-13.14-6.68-26.31-13.32-39.49-19.91-11.37-5.68-22.75-11.32-34.16-16.91-9.56-4.68-19.13-9.33-28.74-13.92-7.72-3.69-15.46-7.34-23.23-10.93-5.85-2.7-11.72-5.36-17.63-7.93-4.17-1.81-8.35-3.6-12.61-5.21-2.01-.76-4.09-1.6-6.23-1.95-1.62-.26-3.36-.1-4.3,1.5s-.28,3.2.83,4.4c1.58,1.71,3.75,3,5.68,4.28,3.63,2.39,7.36,4.63,11.1,6.83,5.69,3.36,11.44,6.62,17.21,9.84,7.77,4.34,15.57,8.62,23.4,12.86,9.86,5.34,19.76,10.63,29.67,15.87,11.99,6.34,24,12.63,36.04,18.89,14.14,7.35,28.3,14.65,42.48,21.91,16.32,8.36,32.66,16.66,49.02,24.93,18.52,9.36,37.07,18.68,55.64,27.96,9.73,4.86,19.47,9.71,29.21,14.56l2.31-5.48c-21.11-7.15-42.24-14.26-63.4-21.3-18.88-6.29-37.78-12.52-56.71-18.69-16.61-5.42-33.23-10.79-49.88-16.09-14.41-4.59-28.84-9.14-43.28-13.62-12.26-3.8-24.53-7.56-36.83-11.24-10.06-3.01-20.14-5.98-30.24-8.87-7.87-2.25-15.76-4.45-23.67-6.55-5.67-1.5-11.36-2.97-17.08-4.28-3.51-.8-7.04-1.59-10.6-2.09-2.17-.3-5.28-.97-7.05.79-2.61,2.6.27,5.32,2.48,6.63,2.61,1.56,5.44,2.78,8.22,3.99,5.03,2.2,10.13,4.24,15.25,6.23,6.94,2.7,13.93,5.3,20.93,7.85,9.1,3.32,18.23,6.55,27.37,9.74,11.22,3.91,22.46,7.76,33.72,11.55,13.28,4.48,26.58,8.89,39.9,13.25,15.37,5.03,30.75,10.01,46.16,14.93,17.51,5.6,35.04,11.13,52.59,16.61,19.6,6.12,39.21,12.18,58.84,18.19,10.2,3.12,20.4,6.23,30.61,9.32l1.6-5.79c-21.36-3.25-42.73-6.44-64.12-9.56-19.32-2.82-38.65-5.59-58-8.29-17.41-2.43-34.83-4.81-52.26-7.12-15.14-2.01-30.28-3.96-45.43-5.85-13.04-1.62-26.08-3.2-39.14-4.7-10.95-1.26-21.91-2.47-32.87-3.59-8.79-.9-17.58-1.75-26.38-2.51-6.6-.57-13.21-1.08-19.82-1.46-4.38-.25-8.77-.47-13.15-.45-2.35,0-4.99-.07-7.27.61-1.59.48-2.95,1.66-2.95,3.45,0,1.51,1,2.63,2.23,3.36,2.17,1.28,4.87,1.91,7.28,2.56,4.46,1.2,8.98,2.19,13.5,3.13,6.78,1.42,13.6,2.7,20.42,3.94,9.17,1.66,18.35,3.22,27.55,4.74,11.51,1.89,23.03,3.7,34.56,5.46,13.95,2.13,27.91,4.19,41.88,6.19,16.38,2.35,32.77,4.63,49.17,6.86,18.96,2.58,37.93,5.09,56.91,7.55,21.22,2.75,42.45,5.43,63.68,8.06,11.17,1.38,22.35,2.75,33.52,4.11v-6c-25.9-.2-51.79-.3-77.69-.26-23.37.03-46.74.16-70.11.42-20.82.23-41.65.56-62.47,1.01-18.26.4-36.51.89-54.76,1.51-15.58.53-31.16,1.15-46.74,1.9-13.07.63-26.14,1.35-39.2,2.22-10.44.69-20.88,1.48-31.3,2.43-7.79.72-15.58,1.52-23.33,2.56-5.37.72-10.75,1.48-16.03,2.68-2.63.6-5.7,1.23-7.94,2.81-1.48,1.04-2.51,2.66-2.01,4.53.35,1.32,1.42,2.31,2.6,2.91,2.84,1.45,6.17,1.94,9.28,2.43,5.81.91,11.69,1.45,17.55,1.9,8.38.64,16.78,1.05,25.17,1.38,11.15.43,22.31.69,33.47.86,13.97.21,27.93.27,41.9.24,16.85-.03,33.7-.2,50.55-.46,19.72-.3,39.44-.74,59.15-1.26,22.61-.6,45.22-1.33,67.82-2.16,25.44-.93,50.88-1.98,76.32-3.14,13.36-.61,26.71-1.24,40.06-1.9l-.8-5.89c-25.79,5.63-51.57,11.32-77.33,17.12-22.94,5.16-45.86,10.39-68.76,15.71-20,4.65-39.98,9.37-59.94,14.18-17.33,4.18-34.64,8.42-51.93,12.76-14.52,3.65-29.03,7.36-43.5,11.18-11.8,3.11-23.58,6.3-35.33,9.6-9.13,2.57-18.25,5.2-27.31,7.99-6.43,1.98-12.84,4.01-19.17,6.27-4.06,1.44-8.16,2.93-12.03,4.86-2.12,1.05-5.06,2.6-5.02,5.35.05,3.52,4.11,3.95,6.75,4.01,3.82.09,7.67-.35,11.46-.78,6.6-.75,13.18-1.73,19.74-2.78,8.81-1.42,17.6-2.98,26.38-4.62,11.34-2.11,22.66-4.35,33.96-6.66,13.75-2.8,27.47-5.71,41.18-8.69,16.16-3.51,32.29-7.11,48.41-10.78,18.59-4.24,37.17-8.57,55.72-12.97,20.83-4.94,41.63-9.97,62.42-15.07,23.28-5.71,46.54-11.52,69.78-17.4,12.05-3.05,24.09-6.12,36.12-9.21l-2.31-5.48c-22.43,9.82-44.83,19.73-67.18,29.74-19.99,8.96-39.94,18-59.84,27.14-17.74,8.15-35.44,16.39-53.1,24.72-15.43,7.29-30.82,14.65-46.15,22.12-13.08,6.37-26.12,12.81-39.1,19.37-10.84,5.47-21.64,11.02-32.38,16.69-8.47,4.47-16.91,9.02-25.26,13.71-6.18,3.47-12.33,7.02-18.36,10.76-3.93,2.44-7.84,4.93-11.51,7.75-2.12,1.63-5.02,3.6-5.87,6.29-1.06,3.35,2,5.25,4.92,5.18,3.24-.07,6.54-1.03,9.63-1.9,5.32-1.51,10.55-3.33,15.75-5.21,7.66-2.77,15.26-5.74,22.82-8.78,10.09-4.06,20.11-8.26,30.11-12.54,12.24-5.24,24.43-10.61,36.58-16.05,14.56-6.52,29.06-13.15,43.53-19.86,16.81-7.79,33.58-15.69,50.31-23.67,19.24-9.18,38.44-18.46,57.59-27.82,21.43-10.48,42.82-21.06,64.16-31.72,11.2-5.59,22.38-11.21,33.55-16.85l-3.03-5.18c-18.66,13.89-37.32,27.79-55.96,41.7-16.37,12.22-32.74,24.46-49.09,36.71-14.19,10.64-28.38,21.29-42.55,31.96-12.06,9.08-24.11,18.18-36.14,27.3-9.97,7.56-19.93,15.13-29.87,22.73-8.11,6.2-16.2,12.42-24.26,18.67-5.92,4.59-11.82,9.2-17.69,13.86-4,3.18-7.99,6.37-11.92,9.65-2.08,1.74-4.22,3.48-6.13,5.42-.52.53-1.07,1.11-1.42,1.76-1.35,2.54.92,5.34,3.68,4.61,1.85-.49,3.63-1.71,5.26-2.68,3.35-2.02,6.63-4.16,9.91-6.3,5.09-3.34,10.14-6.75,15.18-10.17,6.74-4.57,13.45-9.19,20.15-13.82,8.43-5.83,16.85-11.69,25.25-17.56,10.01-7,20.01-14.01,30-21.05,11.57-8.15,23.13-16.32,34.68-24.5,13.09-9.27,26.16-18.55,39.23-27.85,14.56-10.36,29.11-20.73,43.65-31.11,16.04-11.46,32.08-22.92,48.11-34.4,8.19-5.87,16.38-11.74,24.57-17.61l-3.64-4.71c-12.56,14.12-25.06,28.3-37.47,42.54-11.22,12.87-22.37,25.81-33.44,38.81-9.88,11.6-19.69,23.25-29.42,34.97-8.54,10.29-17.02,20.63-25.42,31.04-7.22,8.95-14.38,17.94-21.44,27.01-6.02,7.72-11.98,15.48-17.83,23.33-4.6,6.17-9.15,12.39-13.57,18.69-3.31,4.72-6.56,9.49-9.64,14.37-2.04,3.23-4.04,6.5-5.72,9.92-1.03,2.09-2.29,4.53-2.28,6.93.02,3.02,2.75,4.72,5.53,3.87,2.53-.77,4.74-2.6,6.79-4.21,3.27-2.57,6.34-5.39,9.36-8.25,4.5-4.27,8.86-8.68,13.17-13.15,5.75-5.96,11.39-12.02,16.97-18.14,7-7.67,13.9-15.42,20.75-23.23,8.25-9.4,16.41-18.88,24.5-28.41,9.49-11.17,18.9-22.41,28.25-33.7,10.73-12.96,21.38-26,31.97-39.08,11.97-14.79,23.85-29.65,35.67-44.56,6.19-7.81,12.37-15.64,18.53-23.48l-4.71-3.64c-7.96,17.65-15.88,35.32-23.73,53.02-6.85,15.45-13.65,30.92-20.39,46.42-5.83,13.42-11.62,26.87-17.33,40.34-4.87,11.49-9.7,23.01-14.44,34.55-3.85,9.38-7.65,18.78-11.36,28.21-2.94,7.47-5.83,14.97-8.6,22.51-2.05,5.56-4.04,11.14-5.88,16.78-1.22,3.74-2.41,7.5-3.33,11.33-.51,2.13-1.15,4.5-.96,6.71.12,1.43.58,2.82,1.89,3.6s2.7.56,3.93-.11c1.91-1.05,3.35-3.22,4.58-4.92,2.05-2.81,3.88-5.78,5.66-8.76,2.68-4.46,5.22-9.01,7.72-13.58,3.28-6,6.46-12.06,9.6-18.13,3.86-7.49,7.65-15.03,11.39-22.59,4.44-8.97,8.81-17.98,13.13-27.01,4.96-10.37,9.86-20.78,14.71-31.2,5.43-11.67,10.8-23.37,16.12-35.09,5.88-12.96,11.7-25.94,17.46-38.95,6.32-14.25,12.58-28.54,18.78-42.84,3.17-7.3,6.32-14.61,9.46-21.93l-5.48-2.31c-5.49,29.06-10.89,58.15-16.16,87.25-4.11,22.67-8.14,45.36-12.04,68.07-2.82,16.42-5.57,32.85-8.17,49.31-1.63,10.37-3.23,20.75-4.55,31.16-.34,2.73-.68,5.46-.89,8.2-.11,1.35-.32,2.92.08,4.24.68,2.27,3.53,3.12,5.25,1.39.62-.63.93-1.47,1.23-2.29.66-1.79,1.1-3.67,1.56-5.51,2.09-8.38,3.81-16.86,5.53-25.33,3.01-14.79,5.84-29.62,8.61-44.46,3.96-21.2,7.78-42.42,11.53-63.66,4.87-27.62,9.62-55.27,14.29-82.93,1.29-7.67,2.58-15.34,3.86-23.02l-5.89-.8c-.84,28.96-1.54,57.93-2.02,86.9-.37,22.01-.61,44.03-.61,66.04,0,15.24.09,30.48.5,45.72.23,8.73.46,17.5,1.31,26.19.22,2.23.41,4.53.96,6.71.59,2.34,2.63,4.8,5.3,3.23,1.55-.91,2.02-2.86,2.36-4.5.55-2.63.85-5.32,1.15-7.98,1.02-9.18,1.54-18.42,2.02-27.64.78-14.91,1.28-29.83,1.68-44.75.54-20.41.86-40.84,1.05-61.26.24-25.72.26-51.43.13-77.15-.04-6.97-.08-13.94-.14-20.9h-6c1.01,20.73,2.02,41.47,3.05,62.2.79,15.92,1.58,31.84,2.39,47.75.58,11.45,1.16,22.9,1.75,34.35.36,6.93.72,13.87,1.09,20.8.14,2.63.21,5.28.43,7.9.03.31,0,.47.11.88.76,2.75,5.14,2.96,5.79,0,.19-.85.06-1.73.02-2.59-.09-1.78-.19-3.56-.28-5.34-.38-7.1-.77-14.2-1.16-21.3-.65-11.68-1.3-23.36-1.96-35.04-.91-16.12-1.84-32.23-2.77-48.34-1.18-20.41-2.38-40.81-3.59-61.22-.16-2.75-.33-5.5-.49-8.25-.23-3.89-5.66-3.83-6,0-1.53,17.15-2.99,34.31-4.3,51.48-.97,12.63-1.86,25.28-2.61,37.93-.5,8.37-.94,16.75-1.21,25.13-.14,4.36-.32,8.75-.09,13.11.05,1.01.09,2.09.39,3.07.5,1.63,2.14,2.73,3.86,2.25,1.21-.33,1.9-1.28,2.3-2.4.94-2.62,1.05-5.67,1.37-8.4.68-5.83,1.15-11.68,1.58-17.53.65-8.79,1.16-17.59,1.59-26.39.58-11.64,1.01-23.29,1.35-34.94.41-14.11.67-28.22.81-42.33.04-3.77.06-7.54.08-11.32.02-3.43-4.91-4.01-5.89-.8-2.68,8.77-5.62,17.46-8.85,26.04-1.47,3.92-3.01,7.82-4.6,11.69-.36.88-.73,1.77-1.1,2.65-.33.79.24-.56-.1.23-.08.2-.17.39-.25.59-.22.51-.43,1.01-.65,1.52-.75,1.74-1.51,3.47-2.29,5.2-4.74,10.53-9.87,21.09-16.33,30.69-.53.79-1.08,1.58-1.64,2.35-.24.33-.5.66-.74.99-.08.11.51-.64.01-.02-.13.16-.25.32-.38.47-.8.98-1.64,1.9-2.57,2.75-.08.07-.17.13-.24.2-.37.34.78-.52.28-.22-.17.1-.35.23-.52.34-.58.39.18-.05.25-.08-.4.13-.85.06.34,0-.64.03.56.12.43.09-.53-.14.88.46.38.15.87.54.69.56.47.35-.31-.31.55.77.33.43-.36-.57.15.8.1.28-.01-.14-.07-.36-.12-.48-.17-.42.06.96.06.49,0-.13-.02-.27-.03-.4-.03-.53,0-1.06.05-1.58.04-.43.23-1.38.01-.23.07-.37.11-.74.18-1.11.15-.87.34-1.73.55-2.59,1.25-5.27,3.06-10.41,4.94-15.49,3.08-8.33,6.28-15.93,9.75-23.82,4.96-11.3,10.21-22.47,15.6-33.57,1.58-3.26,3.18-6.52,4.79-9.77.72-1.45.39-3.25-1.08-4.1-1.37-.8-3.32-.35-4.1,1.08-6.96,12.66-13.88,25.35-20.61,38.13-1.75,3.33-3.5,6.67-5.2,10.03-.87,1.72-1.89,3.48-2.52,5.31-.5,1.42-.19,3.02,1.23,3.86,1.77,1.03,3.41.04,4.38-1.42.86-1.3,1.57-2.71,2.32-4.07,3.69-6.75,7.18-13.61,10.63-20.49,5.72-11.38,11.25-22.85,16.65-34.38.79-1.69,1.58-3.39,2.37-5.08.87-1.88.13-3.67-1.79-4.41-.72-.27-1.43-.56-2.14-.85-.18-.08-.36-.15-.55-.23.79.33.13.06-.02,0-.44-.19-.87-.38-1.31-.57-1.55-.69-3.1-1.41-4.62-2.15-3.25-1.58-6.44-3.26-9.6-5.01-6.15-3.4-12.18-7.03-18.06-10.88-2.3-1.51-4.58-3.05-6.81-4.66-.4-.29-.8-.58-1.19-.88-.2-.15-.39-.3-.59-.45-.37-.27-.16.08.24.18-.11-.03-.26-.2-.35-.27-.56-.45-1.13-.9-1.65-1.39-.18-.17-.34-.35-.52-.52-.51-.48.46.75.16.19.71,1.33.21,3.54-1.75,4.09.35-.1-1.06.09-.62.09.47,0-.97-.26-.49-.06.19.08.42.11.62.18.15.05.29.1.43.16.42.16.71.54-.03-.02.76.59,2.01.91,2.87,1.34,10.47,5.2,20.49,11.36,30.51,17.35l1.51-5.59c-24.4-3-48.92-5.32-73.5-6.19-13.86-.49-28.03-.87-41.81,1.05-2.74.38-6.02.75-8.38,2.34-1.49,1-2.43,2.67-1.9,4.49.4,1.37,1.56,2.36,2.79,2.98,3.27,1.64,7.07,2.26,10.63,2.85,6.66,1.1,13.39,1.75,20.12,2.27,23.17,1.76,46.49,1.85,69.71,1.53,3.83-.05,7.67-.12,11.5-.21v-6c-20.28.84-40.56,1.44-60.86,1.72-16.47.23-32.95.26-49.42-.01-12.51-.21-25.02-.58-37.51-1.27-8.38-.47-16.77-1.04-25.1-2.06-.38-.05-.75-.09-1.13-.14-.16-.02-.32-.04-.49-.06-.77-.1.41.06.09.01-.69-.1-1.37-.19-2.06-.3-1.15-.18-2.3-.37-3.44-.59-.88-.17-1.76-.36-2.62-.6-.33-.09-.66-.19-.99-.29-.14-.05-.28-.1-.42-.15-.61-.2.15.03.29.13-.16-.1-.39-.22-.57-.29-.55-.23.69.65.23.17.93.98.96,2.6,0,3.58.41-.42-.8.62-.23.19.08-.06.19-.07.26-.13.15-.13-.97.34-.37.16s1.22-.37,1.85-.5c.88-.19,1.77-.31,2.66-.45-.79.12-.48.06.09,0,.3-.04.6-.07.91-.11.64-.07,1.29-.14,1.93-.2,3.28-.3,6.57-.48,9.86-.62,10.14-.42,20.29-.43,30.44-.32,15.13.17,30.26.66,45.39,1.31,20.26.87,40.51,2.05,60.74,3.42,5.72.39,11.43.79,17.14,1.2v-6c-26.88-.31-53.75-.5-80.63-.51-21.12,0-42.24.1-63.35.38-15.45.21-30.91.51-46.35,1.02-9.72.32-19.44.69-29.14,1.41-2.95.22-5.89.48-8.81.88-1.44.2-3.09.34-4.39,1.08-1.55.89-2.26,2.82-1.33,4.44.54.93,1.46,1.43,2.45,1.73,1.73.53,3.63.64,5.43.82,7.53.75,15.13.94,22.69,1.16,13.57.39,27.15.53,40.73.6,19.66.09,39.33-.01,58.99-.21,25.9-.27,51.8-.71,77.69-1.27,7.22-.16,14.44-.32,21.66-.5l-.8-5.89c-27.89,3.86-55.75,7.87-83.59,12.11-21.66,3.3-43.31,6.73-64.91,10.39-15.49,2.63-30.96,5.36-46.37,8.39-9.36,1.84-18.74,3.71-27.98,6.08-2.39.61-4.79,1.24-7.11,2.08-1.56.56-3.51,1.2-4.39,2.75s-.29,3.6,1.29,4.51c.84.48,1.8.59,2.75.69,1.94.2,3.92.11,5.86.02,8.43-.38,16.85-1.37,25.23-2.36,14.56-1.72,29.09-3.75,43.59-5.88,20.13-2.96,40.23-6.16,60.31-9.48,26.08-4.32,52.13-8.86,78.14-13.56,7.22-1.3,14.44-2.62,21.66-3.94l-1.6-5.79c-24.36,6.72-48.71,13.47-73.04,20.27-18.69,5.23-37.37,10.48-56.03,15.8-13.1,3.73-26.19,7.49-39.26,11.33-7.68,2.26-15.37,4.52-23,6.96-1.84.59-3.69,1.17-5.51,1.85-1.95.72-4.43,1.72-3.68,4.44s3.44,2.29,5.5,1.91c1.89-.35,3.76-.79,5.63-1.23,7.63-1.79,15.23-3.74,22.82-5.7,12.64-3.26,25.27-6.6,37.88-9.97,17.49-4.67,34.97-9.4,52.44-14.16,22.26-6.07,44.51-12.19,66.76-18.34,6.11-1.69,12.21-3.38,18.32-5.08l-1.6-5.79c-20.27,8.08-40.46,16.39-60.51,25-15.71,6.75-31.35,13.69-46.83,20.94-11.19,5.24-22.32,10.64-33.26,16.39-6.81,3.58-13.62,7.25-20.05,11.47-1.94,1.27-3.87,2.61-5.62,4.14-1.11.97-2.21,2.13-2.61,3.59-.72,2.67,1.54,4.48,3.95,4.66,1.65.12,3.35-.25,4.96-.6,6.14-1.35,12.12-3.6,17.99-5.8,10.51-3.94,20.86-8.31,31.14-12.81,14.5-6.34,28.85-13.02,43.12-19.86,18.71-8.97,37.26-18.26,55.72-27.74,5.13-2.64,10.26-5.29,15.38-7.96,1.44-.75,1.87-2.75,1.08-4.1-.85-1.46-2.66-1.83-4.1-1.08-19.16,9.99-38.43,19.78-57.85,29.28-15.12,7.4-30.34,14.62-45.69,21.54-6.06,2.73-12.15,5.41-18.26,8.02-.68.29-1.35.58-2.03.86-.15.06-.3.13-.44.19-.72.31.39-.16-.06.02-.4.17-.8.34-1.2.5-1.27.53-2.54,1.06-3.81,1.59-2.42,1-4.84,1.98-7.27,2.94-7,2.77-14.06,5.5-21.3,7.59-1.99.57-3.98,1.04-6.01,1.41-.51.09.95-.1.44-.06-.08,0-.15.02-.22.03-.17.02-.35.04-.52.05-.27.02-.53,0-.8.02-.85.02.85.28.13.02-.62-.22.84.45.3.12.66.4.99.87,1.15,1.47-.07-.24.09,1.06.09.61,0-.1-.2,1.08-.06.57.11-.38-.48.79-.2.47.04-.04.15-.21.15-.26.04-.43.21,0-.26.33.1-.07.18-.23.27-.32.48-.5.98-.96,1.51-1.41.16-.13.32-.26.49-.39.68-.55-.51.38-.01,0,.43-.32.86-.64,1.29-.94,5.42-3.84,11.29-7.06,17.11-10.22,9.87-5.36,19.93-10.34,30.06-15.19,14.18-6.79,28.5-13.27,42.9-19.57,18.44-8.07,37.01-15.85,55.67-23.41,5.22-2.12,10.45-4.22,15.68-6.3,1.5-.6,2.56-2,2.1-3.69-.43-1.57-2.12-2.53-3.69-2.1-23.13,6.42-46.28,12.81-69.43,19.14-18.5,5.06-37.01,10.09-55.53,15.07-13.76,3.7-27.53,7.37-41.32,10.97-8.92,2.33-17.84,4.64-26.79,6.83-2.6.64-5.2,1.26-7.81,1.84-.85.19-1.69.37-2.54.54-.3.06-.6.12-.89.17-.56.1-.99-.09.1,0-.14-.01-.3.07-.44.04-.42-.11.71.11.67.1.84.23,1.75,1.06,2.02,2.06.33,1.18-.45,3.03-1.21,3.24.12-.03.29-.13.4-.19.36-.22-.97.38-.41.17.13-.05.25-.1.37-.15.29-.11.58-.22.88-.32.82-.29,1.65-.57,2.49-.85,6.53-2.16,13.13-4.1,19.73-6.06,11.83-3.51,23.68-6.93,35.54-10.33,17.21-4.93,34.43-9.79,51.66-14.63,22.61-6.35,45.24-12.64,67.88-18.9,6.34-1.75,12.68-3.5,19.02-5.25,1.56-.43,2.52-2.13,2.1-3.69-.46-1.68-2.09-2.39-3.69-2.1-27.17,4.99-54.38,9.83-81.62,14.45-21.36,3.62-42.74,7.11-64.16,10.38-8.59,1.31-17.19,2.58-25.8,3.8-3.74.53-7.48,1.05-11.22,1.55-.22.03-1.64.22-.8.11-.37.05-.75.1-1.12.15-.88.12-1.77.23-2.65.35-1.69.22-3.39.44-5.08.66-9.85,1.26-19.72,2.46-29.63,3.22-2.76.21-5.53.4-8.3.42-.85,0-1.69-.02-2.54-.08-.14,0-.29-.04-.43-.05.77.02.85.18.36.04s-.93-.44.12.13c-.05-.03-.11-.06-.16-.09.45.28.75.58.96.95.39.68.49,1.42.29,2.17.09-.35-.46.94-.23.57-.51.84-.58.71-.32.46.17-.16-.89.54-.36.29.22-.1.44-.24.66-.35.13-.07.28-.11.4-.18-1.06.63-.53.22-.16.08.39-.15.79-.29,1.19-.43,1.08-.37,2.18-.69,3.28-1,7.91-2.23,16-3.88,24.05-5.52,13.99-2.85,28.05-5.4,42.11-7.85,19.92-3.47,39.88-6.71,59.86-9.82,26.1-4.07,52.23-7.91,78.39-11.61,7.2-1.02,14.4-2.03,21.6-3.02,1.46-.2,2.35-1.99,2.15-3.29-.22-1.43-1.43-2.64-2.95-2.6-27.07.65-54.15,1.19-81.23,1.55-21.04.28-42.08.46-63.11.46-15.07,0-30.14-.09-45.2-.4-9.16-.19-18.34-.41-27.49-1.02-1.37-.09-2.74-.19-4.11-.32-.56-.05-1.12-.11-1.68-.17-.24-.03-.47-.06-.71-.08-.9-.11.78.12.1.01s-1.31-.19-1.95-.36c-.45-.12-.94-.48.14.11-.06-.03-.11-.06-.17-.09.42.27.69.51.95.96.65,1.11.39,2.61-.41,3.41.15-.14-.86.61-.46.37.47-.28-.83.25-.47.19.51-.09,1.02-.29,1.54-.39.4-.08.8-.14,1.2-.2.22-.03.45-.06.67-.09-.91.16-.57.07,0,0,1.26-.15,2.52-.28,3.78-.39,8.46-.76,16.96-1.11,25.45-1.44,14.07-.55,28.15-.87,42.23-1.11,19.67-.33,39.34-.49,59-.54,25.16-.06,50.32.05,75.48.27,6.94.06,13.88.14,20.81.22,1.62.02,3-1.39,3-3s-1.38-2.88-3-3c-21.82-1.59-43.66-2.98-65.52-4.05-16.5-.81-33-1.45-49.52-1.76-11.31-.21-22.63-.29-33.94.03-6.6.19-13.25.43-19.78,1.41-1.65.25-3.35.53-4.86,1.28-1.91.94-3,3.16-1.81,5.13.88,1.46,2.64,2.07,4.19,2.53,1.9.56,3.88.9,5.83,1.21,7.36,1.17,14.82,1.79,22.26,2.32,11.51.81,23.05,1.27,34.59,1.57,15.68.41,31.37.51,47.06.41,19.6-.13,39.21-.57,58.8-1.25,5.35-.19,10.7-.39,16.04-.61,3.84-.16,3.88-6.08,0-6-24.57.54-49.21.62-73.75-.83-7.34-.43-14.67-1.01-21.96-1.95-.2-.03-.86-.12.08.01-.18-.02-.35-.05-.53-.07-.29-.04-.57-.08-.86-.12-.7-.1-1.41-.21-2.11-.32-1.11-.18-2.21-.37-3.31-.58-1.74-.34-3.48-.72-5.17-1.26-.29-.09-.57-.19-.86-.29-.14-.05-.28-.11-.42-.16-.5-.17.87.43.22.09-.35-.18-.74-.49-1.1-.62.72.27.59.54.24.14-.27-.3.56.81.33.42s.29.79.21.54c-.1-.33.04-.36.07.62,0-.34.13-.31-.1.62.13-.55-.45.86-.17.39-.38.62-.56.64-.18.3-.52.47-.64.4-.13.14.16-.08.37-.16.52-.26-.79.53-.44.17.11-.01,1.33-.45,2.73-.73,4.11-.96.46-.08.92-.15,1.38-.22.2-.03.41-.07.61-.09-1.2.07-.07.01.23-.03,1.15-.14,2.3-.26,3.45-.36,2.75-.24,5.5-.4,8.26-.51,7.55-.3,15.12-.27,22.68-.08,22.96.57,45.89,2.54,68.71,5.13,3.42.39,6.84.8,10.26,1.22,1.28.16,2.57-1.04,2.89-2.2.35-1.29-.24-2.71-1.38-3.39-9.68-5.8-19.38-11.68-29.44-16.81-1.94-.99-3.99-2.13-6.1-2.72-1.04-.29-2.15-.35-3.12.21-1.59.92-1.94,2.94-1.06,4.46.73,1.26,2.06,2.22,3.18,3.09,2.1,1.64,4.27,3.19,6.47,4.68,5.86,3.98,11.9,7.7,18.05,11.21,6.66,3.8,13.47,7.36,20.55,10.3.77.32,1.54.63,2.32.93l-1.79-4.41c-5.97,12.88-12.12,25.68-18.47,38.38-3.73,7.45-7.5,14.9-11.52,22.2-.5.91-1,1.82-1.53,2.72-.15.26-.32.5-.46.76-.04.07-.11.13-.14.2.2-.52,1.08-1.15,1.68-1.27h1.6l.71.3,1.08,1.08c.5.81.43,1.56.31,2.23,0-.04.03-.08.04-.12.16-.71-.36.78-.1.23.24-.51.47-1.02.71-1.52.96-1.99,1.97-3.95,2.98-5.91,4.14-8.04,8.42-16.01,12.71-23.96,3.82-7.06,7.66-14.1,11.53-21.14l-5.18-3.03c-10.43,21.08-20.63,42.38-29.12,64.33-2.22,5.75-4.36,11.56-5.98,17.52-.84,3.07-1.83,6.53-1.54,9.75.15,1.62.67,3.24,2.14,4.13,1.38.84,3.01.65,4.39-.06,2.5-1.28,4.36-3.89,6.01-6.07,6.49-8.6,11.38-18.52,15.96-28.22,7.35-15.57,13.57-31.7,18.86-48.08.73-2.27,1.44-4.54,2.14-6.81l-5.89-.8c-.07,14.39-.27,28.79-.61,43.18-.29,12.11-.68,24.21-1.2,36.31-.41,9.47-.9,18.94-1.52,28.4-.44,6.68-.93,13.36-1.59,20.02-.22,2.19-.45,4.38-.73,6.57-.03.21-.06.43-.08.64.06-.51.09-.69,0-.07-.05.36-.1.72-.16,1.08-.09.6-.19,1.19-.31,1.79-.08.39-.19.77-.28,1.16-.14.62.18-.38.17-.37-.02.03-.04.07-.06.1.26-.42.55-.74,1-1,1.39-.81,3.21-.25,3.96,1.01-.05-.09.24.99.2.45,0-.13-.04-.3-.08-.42-.1-.31.1,1.03.07.51,0-.11-.03-.22-.03-.33-.29-3.63-.16-7.31-.07-10.94.18-7.44.55-14.88.96-22.31.63-11.48,1.41-22.95,2.25-34.42,1.16-15.83,2.45-31.66,3.82-47.47.39-4.51.79-9.03,1.19-13.54h-6c1.24,20.91,2.47,41.83,3.69,62.74.96,16.54,1.91,33.09,2.85,49.63.7,12.25,1.38,24.5,2.06,36.76.42,7.66.85,15.31,1.26,22.97.11,2.11.23,4.21.34,6.32.05.88-.03,1.87.14,2.74.05.26-.26,1.03.11-.68h5.79c.32,1.14.1.88.08.37-.02-.4-.04-.8-.07-1.19-.09-1.6-.17-3.2-.26-4.8-.34-6.46-.68-12.92-1.01-19.38-.56-10.85-1.12-21.7-1.67-32.55-.78-15.43-1.55-30.87-2.32-46.3-.99-20.02-1.98-40.04-2.95-60.06-.14-2.79-.27-5.59-.41-8.38-.19-3.83-6.03-3.89-6,0,.22,26.71.29,53.43.14,80.14-.12,21.57-.37,43.15-.83,64.72-.35,16.21-.81,32.41-1.52,48.6-.47,10.7-1.01,21.41-1.93,32.09-.15,1.79-.32,3.58-.51,5.36-.08.76-.17,1.52-.26,2.28-.04.35-.08.69-.13,1.04-.02.16-.04.33-.06.49,0-.01.13-.92.02-.17-.25,1.76-.51,3.52-1.02,5.23-.03.11-.09.21-.12.32-.09.35.48-.94.16-.39-.04.07-.07.13-.12.19.4-.57.29-.54.93-.92.74-.45,1.93-.47,2.74.01-.17-.1.81.69.48.35.68.71.53.72.34.4-.3-.5.25.8.18.43-.02-.11-.09-.23-.12-.34-.08-.3-.16-.59-.23-.89-.09-.39-.16-.78-.22-1.17-.04-.23-.07-.46-.11-.69-.02-.12-.03-.25-.05-.37-.11-.74.1.81.04.27-.86-7.35-1.16-14.77-1.42-22.16-.48-13.74-.62-27.49-.68-41.23-.09-20.28.07-40.56.34-60.83.36-26.85.94-53.7,1.64-80.55.2-7.61.41-15.22.63-22.83.04-1.48-1.17-2.78-2.6-2.95-1.35-.16-3.04.66-3.29,2.15-4.83,28.96-9.75,57.91-14.79,86.83-3.95,22.66-7.97,45.3-12.13,67.92-3.01,16.38-6.08,32.75-9.31,49.09-2,10.09-4.02,20.19-6.31,30.22-.63,2.74-1.26,5.48-2.01,8.2-.22.79-.44,1.58-.71,2.35-.05.13-.1.26-.14.4-.18.52-.27.14.15-.34-.06.07-.2.34-.22.42.2-1.27,2.79-1.59,3.9-.94.29.17.91.83,1.01.99.44.78.35.9.25.54-.12-.44.06,1.06.07.54,0-.1-.02-.2-.02-.31,0-.29,0-.57,0-.86.06-2.1.31-4.2.55-6.29.18-1.63.39-3.26.6-4.88.05-.42.11-.84.16-1.26.03-.24.06-.47.09-.71.02-.12.03-.24.05-.36.07-.5-.12.91-.02.19.15-1.08.29-2.16.45-3.24.72-5.15,1.49-10.28,2.27-15.42,2.3-15.01,4.78-29.99,7.31-44.96,3.58-21.14,7.29-42.26,11.07-63.36,4.89-27.25,9.9-54.48,14.99-81.69,1.39-7.44,2.79-14.87,4.19-22.31.28-1.46-.28-2.95-1.74-3.54-1.24-.5-3.15-.16-3.75,1.23-6.31,14.71-12.68,29.4-19.11,44.07-5.93,13.52-11.91,27.02-17.95,40.49-5.51,12.28-11.06,24.54-16.68,36.77-5.05,10.99-10.14,21.96-15.3,32.9-4.57,9.69-9.18,19.36-13.86,29-4.01,8.27-8.08,16.51-12.21,24.71-3.44,6.83-6.93,13.64-10.5,20.41-2.83,5.36-5.7,10.69-8.69,15.96-2.17,3.84-4.39,7.65-6.76,11.37-.85,1.32-1.71,2.64-2.63,3.92-.19.27-.39.54-.58.8-.26.36-.87,1.07-.1.14-.33.4-.64.81-.98,1.2-.27.31-.55.61-.85.89-.12.11-.25.21-.37.33-.19.2.86-.45.24-.2-.84.35.8-.2.13-.04.67-.16,1.38-.07,1.85.22.13.08.78.65.52.39-.21-.22.57.81.39.49-.26-.46.34.91.18.45-.04-.11-.05-.23-.08-.34.17.86.06.86.07.36,0-.36,0-.72.03-1.08.02-.23.05-.45.07-.67-.08.99-.08.57,0,.01.49-3.02,1.36-5.99,2.24-8.92,1.43-4.8,3.05-9.54,4.72-14.26,2.35-6.64,4.82-13.24,7.34-19.82,3.26-8.49,6.61-16.94,10.01-25.38,4.2-10.41,8.48-20.79,12.81-31.14,5.1-12.19,10.23-24.26,15.57-36.66,6.2-14.41,12.46-28.8,18.77-43.16,7.24-16.48,14.55-32.93,21.9-49.36,3.9-8.72,7.82-17.43,11.75-26.14.61-1.36.51-2.92-.77-3.87-1.08-.81-3-.96-3.94.23-12.32,15.68-24.71,31.32-37.17,46.89-11.11,13.87-22.28,27.69-33.54,41.45-9.86,12.05-19.77,24.04-29.77,35.97-8.64,10.31-17.34,20.57-26.13,30.76-7.45,8.64-14.95,17.23-22.55,25.74-6.21,6.96-12.47,13.86-18.84,20.68-4.94,5.29-9.94,10.53-15.06,15.66-3.7,3.71-7.46,7.37-11.38,10.86-1.39,1.24-2.81,2.46-4.26,3.62-.15.12-.3.24-.45.35-.08.06-.16.12-.23.18-.43.34.65-.49.29-.23-.28.21-.56.43-.84.63-.51.37-1.03.74-1.56,1.08-.42.27-.84.53-1.28.76-.19.1-.38.19-.57.28-.5.27.98-.3.17-.08-.14.04-.3.08-.43.13-.61.23.9-.05.39-.05-.62,0,.54.11.46.09-.56-.16.74.38.44.2.56.33.86.75,1.03,1.33-.18-.6,0,.62.04.45,0-.04-.03-.39,0-.39,0,0,.02-.21.02-.23,0,0-.2,1.03-.07.52.05-.18.08-.37.12-.55.11-.43.26-.86.41-1.28.1-.26.2-.51.3-.76.13-.33-.4.91-.12.28.07-.15.13-.3.2-.46.28-.63.59-1.25.9-1.86.79-1.54,1.64-3.06,2.51-4.55,2.48-4.24,5.18-8.35,7.93-12.41,3.8-5.62,7.73-11.15,11.73-16.63,5.12-7.03,10.35-13.98,15.64-20.89.73-.95,1.45-1.9,2.18-2.84.38-.5.77-.99,1.15-1.49.09-.12.55-.71.35-.45-.24.31.07-.09.13-.17.12-.16.24-.32.37-.47,1.58-2.04,3.16-4.07,4.75-6.11,3.42-4.37,6.85-8.73,10.31-13.07,7.71-9.7,15.51-19.33,23.37-28.91,9.02-10.99,18.11-21.92,27.27-32.8,10.36-12.31,20.81-24.55,31.31-36.74,11.68-13.55,23.45-27.04,35.28-40.46,6.13-6.95,12.27-13.89,18.43-20.81.99-1.11,1.2-2.73.23-3.94-.86-1.08-2.64-1.66-3.87-.77-16.54,11.86-33.09,23.71-49.64,35.55-15.15,10.84-30.31,21.66-45.48,32.47-13.72,9.78-27.45,19.55-41.19,29.3-12.24,8.69-24.5,17.37-36.76,26.04-10.69,7.55-21.39,15.09-32.1,22.61-9.17,6.43-18.34,12.85-27.54,19.25-7.56,5.26-15.13,10.5-22.72,15.71-5.91,4.05-11.83,8.09-17.78,12.08-4.21,2.82-8.43,5.63-12.7,8.36-2.45,1.57-4.91,3.16-7.48,4.53-.35.19-.7.36-1.06.54-.67.34.66-.19.31-.12-.11.02-.2.09-.31.11-.56.11.66-.06.56-.06.24,0,1.02.18,1.37.39,1.16.68,1.66,2.03,1.34,3.27.11-.41-.44.95-.23.54.36-.7-.65.69-.06.07.25-.27.5-.54.76-.79.82-.81,1.68-1.57,2.54-2.32,3.04-2.66,6.17-5.21,9.31-7.74,4.98-4.02,10.01-7.99,15.05-11.93,3.22-2.52,6.45-5.03,9.68-7.54.87-.67,1.74-1.35,2.61-2.02.25-.19.49-.38.74-.57.59-.46-.22.17.14-.11.48-.37.96-.74,1.44-1.11,1.92-1.48,3.85-2.97,5.77-4.45,8.96-6.89,17.94-13.75,26.94-20.59,11.01-8.37,22.03-16.72,33.07-25.06,13.1-9.89,26.21-19.76,39.33-29.61,15.23-11.43,30.47-22.85,45.72-34.26,17.34-12.97,34.69-25.91,52.05-38.85,9.23-6.88,18.46-13.75,27.69-20.62,1.3-.97,1.96-2.6,1.08-4.1s-2.65-1.81-4.1-1.08c-22.39,11.3-44.82,22.51-67.3,33.62-20.1,9.94-40.25,19.79-60.44,29.54-17.77,8.58-35.57,17.08-53.42,25.48-15.49,7.29-31.03,14.5-46.61,21.61-13.22,6.03-26.48,11.99-39.79,17.83-5.8,2.55-11.62,5.07-17.44,7.57-2.67,1.15-5.35,2.29-8.02,3.42-.33.14-.66.28-.99.42-.14.06-.53.22.13-.05-.16.07-.33.14-.49.21-.68.29-1.35.57-2.03.85-1.23.52-2.46,1.03-3.69,1.54-8.68,3.62-17.39,7.16-26.16,10.54-6.37,2.45-12.78,4.84-19.26,6.99-4.09,1.36-8.22,2.69-12.44,3.58-.69.14-1.38.26-2.07.37-.63.1.97-.11.35-.05-.15.01-.29.03-.44.05-.25.02-.49.04-.74.05-.22,0-.43,0-.65,0-.73,0-.1-.1.23.05-.09-.04-.33-.1-.43-.11-.23,0,.93.49.39.14.8.51,1.15,1.07,1.17,2.07-.02-.62-.2.96-.07.46.17-.63-.44.69-.15.33.09-.12.18-.29.25-.42.41-.72-.57.63-.08.1.35-.38.69-.76,1.07-1.11.47-.44.96-.87,1.46-1.28.3-.25.6-.49.91-.73.63-.5-.6.45-.09.07.18-.14.37-.28.55-.42,1.66-1.25,3.38-2.42,5.11-3.57,5-3.31,10.15-6.4,15.33-9.42,7.31-4.25,14.71-8.35,22.15-12.37,9.63-5.21,19.33-10.29,29.06-15.29,11.92-6.13,23.9-12.15,35.92-18.09,14.16-7,28.38-13.9,42.63-20.72,16.43-7.87,32.92-15.63,49.44-23.32,18.71-8.7,37.46-17.3,56.25-25.82,21.05-9.54,42.14-18.98,63.27-28.33,10.99-4.86,21.98-9.7,32.99-14.52,1.35-.59,1.77-2.52,1.23-3.75-.6-1.37-2.06-2.12-3.54-1.74-24.22,6.21-48.46,12.35-72.72,18.4-21.8,5.43-43.62,10.79-65.46,16.07-19.62,4.73-39.25,9.4-58.91,13.97-17.17,3.99-34.36,7.92-51.57,11.75-14.9,3.32-29.82,6.57-44.76,9.72-12.43,2.62-24.87,5.18-37.33,7.62-10.05,1.97-20.1,3.88-30.19,5.65-7.59,1.33-15.2,2.6-22.84,3.69-.78.11-1.57.22-2.35.33-.18.02-.36.05-.54.07-.67.09.84-.11.15-.02-.38.05-.77.1-1.15.15-1.34.17-2.67.34-4.01.49-2.25.26-4.51.49-6.77.65-1.62.12-3.25.2-4.87.18-.57,0-1.13-.04-1.7-.08-.11,0-.23-.03-.34-.04-.49-.03,1.03.19.42.05-.19-.04-.38-.08-.56-.11-.13-.03-.32-.15-.44-.14.67-.03.86.44.39.13.74.49,1.21,1.14,1.21,2.12,0,.73-.22,1.27-.59,1.52.11-.07.24-.23.33-.32.53-.57-.74.49-.15.11.97-.62,1.96-1.18,3.01-1.68.72-.35,1.46-.67,2.19-.99.84-.36-.61.25-.05.02.23-.1.47-.19.7-.29.48-.2.95-.39,1.43-.58,5.16-2.03,10.43-3.8,15.7-5.51,7.85-2.54,15.76-4.92,23.69-7.22,10.46-3.04,20.96-5.96,31.47-8.81,13.22-3.58,26.46-7.05,39.73-10.45,15.84-4.06,31.71-8.03,47.59-11.93,18.68-4.58,37.39-9.08,56.11-13.5,21.33-5.04,42.67-9.98,64.04-14.86,24.26-5.54,48.53-10.98,72.83-16.36,12.63-2.79,25.26-5.57,37.9-8.32,3.28-.72,2.59-6.06-.8-5.89-26.77,1.32-53.54,2.54-80.32,3.63-23.88.98-47.77,1.86-71.66,2.61-20.9.66-41.81,1.23-62.71,1.68-18.19.39-36.38.68-54.57.85-15.33.14-30.65.19-45.98.11-12.54-.07-25.08-.23-37.62-.55-9.8-.25-19.6-.58-29.4-1.11-7.03-.38-14.06-.84-21.06-1.58-1.33-.14-2.67-.29-4-.46-.29-.04-.58-.07-.87-.11s-.94-.15.29.04c-.16-.02-.33-.04-.5-.07-.55-.08-1.1-.16-1.65-.24-1.82-.28-3.63-.59-5.42-1.02-.65-.16-1.31-.33-1.95-.54-.27-.09-.53-.19-.79-.28-.74-.26.86.45.04.01-.17-.09-.34-.19-.52-.28-.68-.36.41.37.2.17-.51-.48.22.34.19.3-.29-.51.31.92.17.4.13.47.11.87,0,1.27.13-.49-.48.94-.16.4.05-.09-.7.79-.19.29.44-.43-.87.52-.18.14.39-.22.79-.41,1.19-.62.12-.06-.95.37-.33.14.14-.05.28-.11.42-.16.3-.11.6-.21.9-.31,3.82-1.24,7.85-1.91,11.81-2.56,1.38-.23,2.76-.44,4.15-.64.79-.11,1.58-.23,2.37-.33.19-.03.37-.05.56-.08.68-.09-.82.11-.12.02.42-.06.84-.11,1.27-.17,3.63-.47,7.26-.89,10.9-1.28,9.16-.98,18.34-1.77,27.53-2.47,11.83-.9,23.67-1.65,35.51-2.31,14.37-.8,28.76-1.47,43.14-2.04,16.93-.68,33.87-1.23,50.81-1.68,19.53-.53,39.06-.93,58.59-1.24,21.99-.35,43.98-.57,65.97-.7,24.48-.14,48.97-.16,73.45-.07,12.73.04,25.47.12,38.2.22,1.62.01,3-1.39,3-3s-1.38-2.8-3-3c-22.36-2.71-44.72-5.47-67.07-8.31-19.78-2.5-39.54-5.06-59.31-7.68-17.31-2.3-34.62-4.65-51.99-7.07-15.02-2.1-30.03-4.24-45.03-6.46-12.65-1.87-25.29-3.79-37.93-5.79-10.31-1.63-20.61-3.31-30.89-5.07-7.99-1.37-15.97-2.79-23.93-4.32-5.7-1.1-11.39-2.24-17.04-3.54-3.43-.79-6.89-1.59-10.23-2.72-.51-.17-1.01-.36-1.51-.55-.64-.24.91.44.11.04-.16-.08-.33-.15-.49-.24-.12-.07-.24-.16-.37-.22-.51-.25.72.65.32.24s.52.79.3.4c.21.37.37.94.36,1.31,0,.82-.28,1.4-.79,1.93.33-.34-.84.57-.41.31.52-.31-.88.24-.4.16.14-.02.28-.09.41-.12.17-.04.34-.07.52-.11.09-.02.18-.03.26-.04.6-.12-.95.1-.42.06s1.03-.1,1.54-.14c3.44-.21,6.91-.09,10.35.05,5.6.22,11.2.59,16.79,1.02,7.8.59,15.59,1.29,23.38,2.04,9.91.95,19.8,1.99,29.69,3.08,12.01,1.32,24.01,2.71,36.01,4.16,14.09,1.7,28.17,3.46,42.25,5.28,16.16,2.08,32.02,4.2,47.98,6.37,18.2,2.48,36.38,5.03,54.56,7.63,20.2,2.89,40.4,5.85,60.59,8.86,10.5,1.57,20.99,3.15,31.48,4.74,1.6.24,3.23-.4,3.69-2.1.44-1.6-.54-3.22-2.1-3.69-20.5-6.21-40.98-12.48-61.44-18.8-18.38-5.68-36.75-11.42-55.09-17.22-16.34-5.16-32.66-10.37-48.96-15.65-14.33-4.64-28.65-9.32-42.94-14.06-12.18-4.04-24.34-8.13-36.48-12.29-10.19-3.49-20.36-7.02-30.51-10.63-8.08-2.87-16.14-5.79-24.16-8.79-6-2.25-11.98-4.53-17.91-6.94-1.17-.48-2.34-.96-3.51-1.45-.26-.11-.53-.22-.79-.33,1,.42.18.08-.19-.08-.5-.21-1-.43-1.5-.65-1.68-.73-3.36-1.48-5.02-2.28-1.15-.55-2.3-1.13-3.41-1.77-.38-.22-.76-.46-1.13-.7-.61-.41.1.07.17.15-.09-.1-.23-.16-.3-.26-.34-.51.21.29.24.35-.28-.46.3.87.2.5.32,1.16-.23,2.42-1.24,3.04.43-.26-.95.35-.47.2.45-.14.44.12-.44.04.31.03.66-.04.97-.03.46.01.92.05,1.37.1.27.03.54.07.81.1.21.02-1.01-.15-.28-.04.17.02.33.05.5.07,1.59.24,3.16.54,4.73.86,4.79.98,9.54,2.14,14.28,3.34,6.94,1.76,13.86,3.63,20.76,5.55,9.06,2.52,18.09,5.13,27.11,7.78,11.2,3.29,22.39,6.66,33.56,10.08,13.36,4.08,26.7,8.24,40.02,12.43,15.52,4.89,31.02,9.84,46.51,14.85,17.76,5.74,35.5,11.53,53.23,17.38,19.88,6.56,39.74,13.18,59.58,19.85,10.4,3.49,20.79,7,31.18,10.52,3.19,1.08,5.37-3.97,2.31-5.48-19.51-9.7-39-19.43-58.46-29.21-17.32-8.7-34.62-17.44-51.89-26.23-15.11-7.68-30.19-15.4-45.26-23.17-13.03-6.72-26.05-13.48-39.04-20.28-10.89-5.71-21.77-11.45-32.61-17.25-8.86-4.74-17.7-9.51-26.51-14.35-6.82-3.74-13.61-7.52-20.37-11.38-4.79-2.73-9.56-5.5-14.26-8.38-2.83-1.73-5.68-3.48-8.35-5.45-.34-.25-1.05-.87-.06-.04-.17-.14-.35-.28-.52-.42-.27-.23-.53-.47-.79-.71-.09-.08-.16-.21-.25-.28.48.34.52.78.29.35.18.33.34.76.34,1.31,0,.64-.28,1.4-.83,1.96-.27.27-.83.58-1.16.68.46-.13-1.08.14-.54.07.11-.01.22.01.33.02.35.02-1.08-.21-.35-.04.88.2,1.75.44,2.62.72,3.23,1.05,6.38,2.36,9.51,3.66.24.1.48.2.72.3.12.05.25.1.37.16.71.3-.5-.21-.15-.06.55.23,1.1.47,1.65.7,1.23.52,2.45,1.05,3.67,1.59,2.77,1.21,5.53,2.44,8.29,3.69,6.91,3.12,13.79,6.32,20.65,9.55,8.72,4.11,17.4,8.28,26.07,12.49,10.54,5.11,21.05,10.28,31.54,15.48,12.3,6.1,24.58,12.24,36.84,18.43,14.04,7.08,28.05,14.21,42.05,21.37,15.69,8.03,31.35,16.11,47,24.23,17.42,9.04,34.83,18.12,52.21,27.25,8.98,4.72,17.96,9.44,26.93,14.18,3.43,1.81,6.24-3.05,3.03-5.18-14.39-9.55-28.75-19.17-43.06-28.85-12.67-8.57-25.3-17.2-37.88-25.9-11.04-7.63-22.04-15.32-33-23.07-9.48-6.71-18.92-13.48-28.32-20.32-7.86-5.73-15.69-11.51-23.46-17.36-3.36-2.53-6.7-5.07-10.03-7.64-.37-.28-.74-.57-1.11-.85-.45-.35.38.3-.07-.05-.22-.17-.45-.34-.67-.52-.76-.59-1.53-1.19-2.29-1.78-1.41-1.1-2.81-2.2-4.21-3.3-4.82-3.81-9.61-7.66-14.3-11.63-3.33-2.81-6.62-5.67-9.77-8.67-1.11-1.06-2.2-2.14-3.25-3.26-.41-.44-.82-.89-1.22-1.35-.17-.2-.33-.4-.5-.6-.07-.09-.14-.18-.22-.27-.23-.28.57.78.22.29-.23-.32-.47-.64-.67-.98-.08-.14-.15-.29-.24-.43-.35-.6.23.64.13.32-.29-.88-.02.66-.02.17,0,.61-.26,1.25-.69,1.67.25-.25-.8.57-.51.39.14-.08.36-.16-.24.09-.64.26-.27.12-.08.07-.22.05-1.03.01-.45.08.13.01.28.03.41.02.46-.02-1.06-.21-.3-.03.17.04.35.07.53.12.43.1.85.23,1.27.37.51.17,1.02.36,1.53.56.29.12.58.24.88.36.03.01-.85-.37-.22-.09.16.07.32.14.48.21,1.47.65,2.92,1.35,4.35,2.07,3.96,1.99,7.83,4.14,11.68,6.35,5.26,3.02,10.45,6.15,15.61,9.33,6.57,4.05,13.09,8.2,19.57,12.39,7.8,5.05,15.54,10.17,23.25,15.35,9.07,6.09,18.09,12.25,27.07,18.47,10.23,7.08,20.41,14.23,30.55,21.43,11.4,8.1,22.75,16.26,34.06,24.48,12.6,9.16,25.16,18.39,37.67,27.68,6.46,4.8,12.92,9.62,19.36,14.44,1.18.88,3.06.31,3.87-.77.93-1.25.77-2.78-.23-3.94-10.8-12.5-21.55-25.04-32.24-37.63-9.67-11.39-19.29-22.82-28.86-34.3-8.55-10.26-17.04-20.55-25.48-30.89-7.42-9.1-14.8-18.23-22.12-27.42-6.3-7.91-12.56-15.86-18.76-23.86-.33-.43-.67-.86-1-1.29.35.45-.09-.12-.22-.28-.18-.23-.35-.46-.53-.69-.69-.9-1.39-1.8-2.08-2.71-1.31-1.71-2.63-3.43-3.93-5.14-2.45-3.22-4.89-6.45-7.31-9.69-4.07-5.46-8.1-10.95-12.04-16.5-2.97-4.19-5.9-8.42-8.71-12.73-1.89-2.9-3.75-5.83-5.39-8.88-.28-.53-.56-1.06-.83-1.6-.11-.23-.22-.46-.33-.7-.23-.51-.29-.86,0,.01-.12-.37-.29-.73-.41-1.1-.14-.45-.23-1.56-.1-.1,0-.11-.03-.22-.02-.32.06-.56-.19.94-.07.51-.13.48-.6,1.13-1.12,1.43-.49.28-.68.33-1.28.34.56-.01-.4,0-.52-.09.05.04.25.06.32.08.63.14-.52-.26-.33-.15.67.41,1.36.77,2,1.23.21.15.42.32.64.47s-.77-.61-.24-.19c.12.09.24.19.35.28.51.41,1.01.83,1.51,1.26,2.82,2.43,5.49,5.04,8.12,7.67,3.88,3.89,7.66,7.87,11.4,11.9,4.96,5.34,9.83,10.75,14.67,16.2,6.04,6.81,12,13.67,17.93,20.58,7.12,8.3,14.17,16.65,21.18,25.03,8.19,9.81,16.33,19.66,24.42,29.56,9.27,11.34,18.48,22.73,27.65,34.16,10.35,12.9,20.63,25.85,30.87,38.84,5.38,6.82,10.75,13.66,16.1,20.5.91,1.16,2.89,1.07,3.94.23,1.19-.95,1.5-2.52.77-3.87-8.1-15.1-16.17-30.22-24.18-45.37-7.14-13.49-14.24-27.01-21.28-40.55-6.17-11.85-12.29-23.72-18.37-35.61-5.27-10.32-10.5-20.66-15.68-31.03-4.37-8.74-8.7-17.5-12.96-26.3-3.48-7.17-6.93-14.37-10.3-21.59-2.61-5.59-5.19-11.2-7.67-16.85-.52-1.18-1.04-2.37-1.55-3.55-.23-.54-.47-1.09-.7-1.64-.11-.25-.22-.51-.32-.76-.34-.8.26.61-.08-.2-.77-1.83-1.52-3.67-2.25-5.52-.98-2.5-1.97-5.03-2.67-7.63-.11-.39-.21-.79-.29-1.19-.03-.16-.05-.33-.09-.49-.05-.2.04,1.05.06.35,0-.1,0-.24-.01-.34-.09-.55-.19.88-.08.51.15-.48-.37.75-.23.51-.21.36-.57.73-.95.95-1.02.59-1.78.41-2.63.03.08.04.15.09.23.13.53.3-.58-.53-.32-.25.47.52.99.98,1.44,1.52.15.18.3.37.45.56.61.75-.42-.56.05.07.37.5.74,1,1.1,1.5.89,1.25,1.75,2.51,2.59,3.79,2.38,3.61,4.64,7.29,6.87,10.99,3.07,5.09,6.05,10.22,9.01,15.38,3.78,6.6,7.49,13.23,11.16,19.88,4.46,8.07,8.86,16.18,13.22,24.3,5.12,9.54,10.19,19.1,15.22,28.69,5.77,10.99,11.49,22.01,17.16,33.04,6.37,12.37,12.68,24.77,18.95,37.19,7,13.86,13.95,27.75,20.86,41.66,3.59,7.23,7.16,14.46,10.73,21.69,1.5,3.05,6.5.92,5.48-2.31-8.35-26.44-16.48-52.94-24.29-79.54-6.06-20.65-11.93-41.37-17.46-62.17-4.01-15.09-7.86-30.22-11.28-45.46-2.1-9.35-4.1-18.74-5.44-28.23-.1-.69.11.87.01.11-.02-.19-.05-.38-.07-.57-.05-.39-.1-.79-.14-1.18-.08-.69-.15-1.37-.21-2.06-.1-1.11-.17-2.22-.18-3.33,0-.42,0-.85.03-1.27.01-.17.03-.34.04-.51.04-.68-.21.95-.03.27.06-.21.18-.51.19-.72.01-.18-.47.93-.17.44.27-.44-.63.72-.31.39-.41.41-1.06.7-1.72.7.42,0-1.05-.21-.58-.07.41.12-.95-.46-.46-.18.52.3-.52-.51-.34-.28.07.1.2.17.28.26.09.11.19.21.29.32.53.57-.32-.46-.14-.19,1.17,1.78,2.18,3.61,3.1,5.54.69,1.44,1.33,2.89,1.96,4.35.08.18.15.36.23.54.27.63-.32-.76.02.06.19.46.38.92.57,1.38.39.95.77,1.9,1.15,2.85,1.84,4.65,3.56,9.34,5.23,14.06,4.8,13.55,9.17,27.26,13.38,41,5.91,19.28,11.48,38.67,16.86,58.11,6.9,24.93,13.47,49.94,19.82,75.02,1.77,6.98,3.52,13.96,5.25,20.94.8,3.2,6.21,2.63,5.89-.8-2.63-28.52-5.14-57.05-7.46-85.59-1.83-22.47-3.55-44.95-5.09-67.45-1.13-16.56-2.17-33.13-2.98-49.7-.51-10.51-.98-21.04-1.07-31.57-.03-2.97-.03-5.94.11-8.9.04-.92.12-1.84.21-2.76.07-.73-.16.87-.04.3.03-.15.05-.31.08-.46.04-.2.14-.42.16-.63.05-.45-.44.89-.21.49s-.62.72-.37.47c-1.1,1.09-2.87,1.05-3.97,0,.37.35-.61-.9-.22-.26.36.6-.31-.96-.04-.07.56,1.79.92,3.64,1.25,5.48.61,3.38,1.1,6.79,1.56,10.19.02.15.14,1.03.05.38s.03.25.05.4c.08.6.16,1.2.23,1.79.15,1.18.3,2.35.45,3.53.33,2.7.65,5.4.96,8.1,1.67,14.61,3.08,29.26,4.41,43.9,1.91,21.08,3.63,42.19,5.24,63.3,2.09,27.4,4,54.81,5.8,82.23.5,7.61.99,15.22,1.47,22.84.24,3.84,5.84,3.88,6,0,.66-16.25,1.36-32.5,2.12-48.74.68-14.54,1.4-29.09,2.17-43.62.69-12.98,1.42-25.95,2.21-38.92.69-11.33,1.41-22.66,2.2-33.99.67-9.64,1.37-19.28,2.13-28.91.64-8.04,1.31-16.08,2.05-24.11.59-6.39,1.22-12.77,1.92-19.14.28-2.57.58-5.14.9-7.71.14-1.11.28-2.22.42-3.32.04-.27.07-.53.11-.8.06-.48-.11.79-.04.32.02-.14.04-.28.06-.42.07-.5.14-1,.21-1.5.43-3.06.89-6.13,1.54-9.16.19-.91.4-1.82.68-2.7.08-.25.47-1.26.17-.54-.33.79.13-.08.15-.21-.08.52-.96.98-1.49,1.12-.76.2-1.51.1-2.15-.28.2.12-.79-.68-.48-.35-.69-.72-.53-.73-.34-.4.21.36-.3-.98-.18-.42.05.27.15.53.21.8.08.37.13.74.19,1.11.09.54-.11-.94-.06-.42.01.12.03.23.04.35.03.25.06.5.08.76.13,1.27.2,2.54.27,3.81.19,3.8.24,7.6.25,11.4.02,5.45-.05,10.9-.16,16.34-.14,7.15-.36,14.31-.62,21.46-.32,8.84-.69,17.68-1.11,26.52-.49,10.48-1.04,20.95-1.63,31.42-.69,12.22-1.43,24.43-2.21,36.64-.89,13.91-1.84,27.82-2.83,41.72-1.1,15.53-2.26,31.06-3.46,46.58-.63,8.19-1.28,16.38-1.94,24.57-.27,3.35,5.25,4.12,5.89.8,3.03-15.56,6.09-31.12,9.18-46.66,2.75-13.81,5.52-27.61,8.33-41.41,2.48-12.21,5-24.42,7.54-36.61,2.2-10.55,4.43-21.1,6.7-31.64,1.91-8.87,3.84-17.73,5.81-26.58,1.62-7.29,3.27-14.57,4.96-21.84,1.32-5.65,2.66-11.29,4.06-16.92,1.01-4.08,2.05-8.15,3.17-12.21.69-2.5,1.39-5,2.25-7.44.13-.37.27-.74.41-1.12.28-.73-.27.56-.1.24.06-.12.11-.25.17-.37.08-.16.24-.35.3-.52-.15.48-.86.95-1.53,1.14-1.5.41-2.83-.53-3.34-1.58-.27-.57-.15-.35-.09-.16.16.53-.06-.85-.06-.51-.01.6.04,1.2,0,1.8-.11,2.37-.41,4.73-.71,7.08-.05.4-.1.8-.16,1.2-.1.79.07-.48.01-.09-.03.22-.06.45-.09.67-.13.92-.26,1.85-.39,2.77-.31,2.13-.63,4.26-.97,6.39-.85,5.42-1.76,10.84-2.7,16.25-1.2,6.92-2.44,13.84-3.71,20.75-1.54,8.37-3.11,16.73-4.72,25.08-1.89,9.88-3.82,19.75-5.78,29.62-2.24,11.28-4.51,22.55-6.81,33.82-2.61,12.78-5.25,25.55-7.91,38.32-2.97,14.21-5.97,28.42-9,42.62-1.57,7.37-3.15,14.73-4.74,22.09-.34,1.58.47,3.24,2.1,3.69s3.12-.57,3.69-2.1c9.61-25.53,19.43-50.98,29.55-76.31,7.98-19.96,16.18-39.97,24.5-59.38,6.25-14.57,12.65-29.08,19.4-43.43,4.32-9.16,8.72-18.31,13.7-27.14,1.41-2.51,2.87-5.01,4.51-7.37.28-.4.63-.78.87-1.19-.6,1.04-.3.38-.05.08.13-.15.26-.31.39-.46.22-.25.46-.47.69-.71.38-.38.23.07-.3.22.09-.02.19-.14.28-.18.51-.26-.85.3-.47.19.53-.16-.72.06-.56.06-.54,0-1.26-.26-1.73-.73.29.28-.58-.85-.34-.43.22.37-.37-1-.19-.45.27.83,0-.89,0-.09,0,.73-.05,1.44-.12,2.17-.05.51.15-1,.05-.38-.02.1-.03.21-.05.31-.04.26-.08.53-.13.79-.11.6-.22,1.19-.35,1.78-1.68,7.83-4.28,15.49-6.85,23.06-4.53,13.35-9.49,26.56-14.59,39.7-7.28,18.76-14.88,37.4-22.65,55.96-10.17,24.29-20.66,48.48-31.33,72.57-2.96,6.69-5.94,13.37-8.93,20.04-.66,1.48-.43,3.23,1.08,4.1,1.42.83,3.27.32,4.1-1.08,8.66-14.37,17.35-28.73,26.07-43.06,7.89-12.97,15.8-25.92,23.74-38.85,7.1-11.55,14.22-23.09,21.38-34.61,6.29-10.13,12.61-20.25,18.96-30.35,5.45-8.67,10.92-17.32,16.43-25.95,4.64-7.27,9.3-14.52,14-21.75,3.78-5.82,7.59-11.63,11.45-17.41,2.91-4.37,5.85-8.72,8.85-13.03,2.02-2.91,4.06-5.81,6.2-8.63.19-.25.38-.5.57-.75-.76,1.02-.12.15.12-.15.31-.4.63-.79.95-1.18.45-.53.91-1.03,1.4-1.53.59-.59-.7.42-.14.11.33-.19-.96.34-.56.24-.98.26-2.03.01-2.78-.74-.26-.26-.66-.98-.71-1.2,0-.03-.11-1.12-.11-.6-.01-.72.16-.86-.03-.19-.09.3-.2.59-.31.88-.07.18-.15.35-.22.53.32-.93.23-.54.01-.05-.47,1.07-.98,2.11-1.5,3.16-1.64,3.28-3.39,6.51-5.15,9.73-2.63,4.78-5.32,9.53-8.04,14.27-3.62,6.3-7.28,12.58-10.97,18.84-4.61,7.83-9.27,15.64-13.94,23.44-5.6,9.33-11.23,18.63-16.88,27.92-6.64,10.92-13.32,21.81-20.02,32.69-7.68,12.48-15.4,24.93-23.14,37.37-8.74,14.05-17.5,28.07-26.3,42.08-4.62,7.36-9.25,14.72-13.88,22.07-.79,1.25-.38,3.01.77,3.87,1.08.81,3.01.96,3.94-.23,12-15.34,24.06-30.64,36.17-45.88,10.92-13.75,21.89-27.45,32.92-41.11,9.85-12.2,19.75-24.37,29.71-36.49,8.69-10.57,17.42-21.1,26.21-31.59,7.54-8.99,15.12-17.95,22.77-26.85,6.37-7.42,12.78-14.8,19.26-22.12,5.18-5.85,10.4-11.67,15.7-17.41,3.97-4.31,7.99-8.58,12.11-12.75,2.71-2.74,5.45-5.46,8.36-8,.49-.43.99-.85,1.49-1.26.11-.09.21-.17.32-.26.52-.42-.27.2-.22.17.2-.14.39-.29.59-.44.34-.24.68-.48,1.04-.68.14-.08.29-.15.43-.23.51-.31-.91.31-.33.14.1-.03.2-.06.3-.08.06,0-1.09.09-.66.1s-.95-.17-.67-.1c-.77-.2-1.53-.94-1.79-1.82.15.49-.08-1.02-.07-.54.02.63.14-.61.08-.45-.11.27-.14.59-.24.87-.06.18-.16.36-.21.55.25-.92.26-.59.02-.07s-.48.99-.74,1.47c-.69,1.29-1.44,2.55-2.21,3.79-2.33,3.77-4.85,7.43-7.39,11.06-3.71,5.29-7.54,10.51-11.41,15.69-2.39,3.21-4.8,6.4-7.23,9.58-1.34,1.76-2.68,3.51-4.03,5.27-.68.89-1.36,1.77-2.05,2.66-.33.43.01-.01.07-.09-.09.12-.18.23-.27.35-.18.23-.36.47-.54.7-.37.47-.73.95-1.1,1.42-6.49,8.37-13.05,16.68-19.66,24.96-7.9,9.9-15.86,19.75-23.86,29.56-9.36,11.48-18.78,22.91-28.25,34.3-10.77,12.96-21.6,25.87-32.47,38.75-12.23,14.48-24.53,28.92-36.87,43.32-6.47,7.55-12.95,15.09-19.45,22.61-2.5,2.9,1.4,6.92,4.24,4.24,14.18-13.36,28.37-26.69,42.6-40,12.74-11.92,25.49-23.81,38.28-35.68,11.34-10.53,22.7-21.03,34.08-31.51,9.85-9.07,19.72-18.11,29.61-27.13,8.41-7.66,16.83-15.3,25.28-22.91,6.96-6.27,13.94-12.51,20.96-18.72,5.52-4.89,11.05-9.75,16.62-14.57,4.07-3.52,8.15-7.02,12.29-10.45,1.5-1.24,3-2.48,4.52-3.69.62-.5,1.24-.99,1.87-1.48.14-.11.68-.52.13-.1s0,0,.14-.11c.25-.19.5-.38.76-.57.75-.56,1.51-1.13,2.31-1.63.25-.16.51-.29.77-.45.58-.36-.95.27-.22.11-1.66.36-3.58-.8-3.58-2.78,0,.23.19-1.09.07-.63-.06.25.52-.92.19-.48-.15.2-.27.44-.42.64-.12.16-.54.71-.09.13s-.03.04-.16.2c-1.72,2.12-3.62,4.1-5.5,6.08-3.23,3.39-6.53,6.72-9.85,10.02-4.7,4.68-9.43,9.32-14.19,13.94-6.15,5.97-12.34,11.9-18.54,17.81-7.6,7.25-15.24,14.46-22.89,21.66-9.06,8.52-18.14,17-27.24,25.47-10.51,9.77-21.04,19.52-31.6,29.25-12.01,11.07-24.05,22.11-36.11,33.13-13.42,12.26-26.86,24.5-40.33,36.71-7.02,6.37-14.04,12.73-21.07,19.08-1.1.99-1.12,2.83-.23,3.94.84,1.05,2.67,1.69,3.87.77,15.39-11.76,30.79-23.51,46.21-35.23,13.85-10.52,27.71-21.03,41.59-31.51,12.4-9.37,24.82-18.72,37.26-28.05,10.85-8.14,21.72-16.26,32.6-24.35,9.37-6.97,18.76-13.93,28.16-20.86,7.83-5.77,15.68-11.52,23.55-17.25,6.26-4.55,12.53-9.09,18.83-13.59,4.71-3.36,9.42-6.71,14.18-10.01,3.15-2.18,6.3-4.36,9.52-6.44,1.55-1,3.21-1.83,4.75-2.82-.13.08-.97.33-.45.2s-.82.07-.61.07c-1.76,0-3.26-1.96-2.78-3.65.12-.43.44-.92.21-.55-.27.45.63-.7.29-.37-.2.19-.37.41-.56.61-1.64,1.68-3.47,3.18-5.26,4.7-3.34,2.83-6.74,5.59-10.15,8.33-4.99,4.02-10.02,8-15.07,11.96-6.62,5.2-13.27,10.37-19.93,15.52-.45.35-.9.7-1.35,1.05-.09.07-.81.63-.52.4.26-.2-.47.37-.62.48-.97.75-1.93,1.49-2.9,2.24-2.04,1.57-4.08,3.15-6.13,4.72-4.36,3.35-8.72,6.7-13.09,10.04-9.96,7.62-19.94,15.21-29.93,22.78-11.68,8.86-23.39,17.69-35.1,26.51-13.33,10.03-26.68,20.03-40.04,30.02-15.09,11.28-30.2,22.54-45.33,33.78-7.9,5.87-15.8,11.73-23.7,17.59-1.3.96-1.96,2.6-1.08,4.1.8,1.37,2.73,1.94,4.1,1.08,18.87-11.86,37.79-23.65,56.76-35.35,17.15-10.59,34.35-21.1,51.6-31.54,15.41-9.32,30.85-18.58,46.35-27.75,13.63-8.07,27.29-16.07,41.01-23.99,11.82-6.82,23.67-13.58,35.57-20.25,9.97-5.59,19.98-11.11,30.04-16.54,8.1-4.37,16.23-8.67,24.42-12.86,6.19-3.16,12.41-6.26,18.7-9.2,2.39-1.12,4.8-2.21,7.22-3.26.24-.1.48-.21.73-.31.13-.05.25-.11.38-.16.62-.27-.54.22-.22.09.5-.21,1-.42,1.5-.62.88-.36,1.76-.71,2.65-1.04,1.39-.52,2.79-1.02,4.22-1.42.52-.14,1.04-.28,1.56-.38s.95.01-.13,0c.18,0,.36-.04.53-.04.14,0,.31.03.45.01.04,0-1.04-.22-.44-.04-.64-.19-1.14-.61-1.51-1.39-.09-.18-.21-.91-.21-.89,0,.24.21-1.09.04-.47-.13.51.52-.9.13-.33-.09.13-.17.28-.26.42-.05.08-.11.15-.16.22-.33.52.56-.66.25-.31-.15.17-.29.35-.44.52-.38.43-.79.85-1.2,1.25-1.13,1.1-2.33,2.14-3.54,3.15-.77.64-1.55,1.27-2.33,1.89-.45.35-.9.7-1.35,1.05s.16-.12.2-.15c-.11.09-.23.17-.34.26-.25.19-.49.38-.74.56-2.2,1.67-4.42,3.3-6.66,4.91-5.93,4.26-11.97,8.38-18.05,12.44-8.08,5.4-16.23,10.68-24.42,15.91-10.24,6.53-20.55,12.97-30.89,19.35-12.44,7.67-24.93,15.24-37.45,22.76-14.66,8.79-29.36,17.5-44.11,26.14-16.91,9.91-33.86,19.74-50.85,29.5-19.19,11.02-38.42,21.96-57.69,32.83-10.11,5.7-20.23,11.39-30.36,17.05-2.89,1.62-.93,6.72,2.31,5.48,21.66-8.25,43.34-16.44,65.04-24.56,19.4-7.26,38.83-14.46,58.27-21.59,17.1-6.27,34.22-12.48,51.36-18.62,14.92-5.34,29.85-10.64,44.82-15.85,12.68-4.42,25.38-8.79,38.11-13.08,10.42-3.51,20.86-6.97,31.32-10.34,8.21-2.64,16.44-5.23,24.7-7.71,6.04-1.81,12.1-3.57,18.2-5.17,3.79-.99,7.6-1.97,11.46-2.62.32-.05.64-.1.96-.15.15-.02.3-.03.44-.06-1.31.26-.65.08-.31.05.47-.05.94-.1,1.42-.12.52-.02,1.66.22.24-.07.11.02.23.04.34.07.39.13-.93-.46-.47-.18-1.06-.62-1.52-1.84-1.22-2.98-.11.44.45-.93.2-.47s.68-.68.24-.31c-.24.2-.51.44-.73.66.52-.53.58-.43.06-.07-.21.15-.42.29-.63.43-2.76,1.8-5.76,3.26-8.72,4.7-5.01,2.44-10.1,4.7-15.21,6.93-1.63.71-3.25,1.41-4.88,2.1-.84.36-1.68.72-2.53,1.07-.22.09-.43.18-.65.27.2-.09.52-.22-.08.03-.44.19-.88.37-1.33.56-3.91,1.64-7.83,3.26-11.76,4.86-9.41,3.84-18.86,7.58-28.32,11.28-11.53,4.5-23.1,8.92-34.68,13.29-13.73,5.18-27.48,10.28-41.26,15.33-15.88,5.82-31.78,11.57-47.7,17.27-17.95,6.42-35.93,12.77-53.93,19.07-20.08,7.02-40.18,13.97-60.3,20.86-10.53,3.61-21.07,7.2-31.62,10.77-3.66,1.24-2.2,6.59,1.6,5.79,22.9-4.83,45.8-9.63,68.71-14.41,20.58-4.29,41.17-8.55,61.76-12.79,18.51-3.81,37.03-7.59,55.55-11.34,16.18-3.28,32.36-6.53,48.55-9.75,13.99-2.78,27.98-5.54,41.98-8.26,11.72-2.28,23.44-4.54,35.18-6.75,9.43-1.78,18.86-3.54,28.3-5.24,7.11-1.29,14.23-2.55,21.36-3.74,4.76-.8,9.53-1.58,14.31-2.24.23-.03.46-.06.69-.09-.64.09-.69.09-.08.01.39-.05.77-.1,1.16-.15.67-.08,1.35-.16,2.02-.23.9-.09,1.82-.19,2.73-.18.13,0,.27.02.4.01.6-.02-.93-.21-.49-.07.47.15-.74-.36-.54-.24-1.1-.65-1.68-2.02-1.33-3.28.14-.5.37-.88.74-1.26-.02.02-.04.04-.06.06.79-.78.72-.46.37-.32-.11.04-.23.1-.33.16-.58.33.93-.35.26-.11-2.52.92-5.1,1.64-7.68,2.35-4.95,1.35-9.93,2.59-14.91,3.8-7.45,1.82-14.92,3.58-22.39,5.31-9.88,2.29-19.77,4.52-29.66,6.74-12.41,2.78-24.83,5.51-37.25,8.22-14.93,3.26-29.87,6.48-44.82,9.68-17.48,3.74-34.97,7.45-52.46,11.13-20.05,4.22-40.11,8.42-60.18,12.58-22.57,4.69-45.15,9.35-67.73,13.98-11.93,2.45-23.87,4.89-35.8,7.33-3.26.67-2.59,6.26.8,5.89,26.25-2.84,52.52-5.6,78.79-8.25,23.51-2.38,47.03-4.67,70.55-6.86,20.85-1.94,41.7-3.81,62.56-5.58,18.18-1.54,36.37-3,54.56-4.37,15.51-1.16,31.03-2.25,46.56-3.23,12.88-.81,25.76-1.55,38.65-2.17,10.14-.49,20.28-.9,30.43-1.17,7.52-.2,15.04-.33,22.56-.26,4.81.05,9.64.13,14.43.58.42.04.84.08,1.26.13.18.02.37.04.55.07.87.1-.7-.11-.17-.02.62.1,1.24.19,1.86.32.45.1.88.23,1.32.36.78.23-.75-.39-.21-.09.09.05.26.2.36.21-.37-.06-.69-.6-.83-.83-.09-.16-.32-.83-.32-1.26,0-.36.12-.84.35-1.25-.28.51.63-.72.27-.34-.49.52.66-.39.27-.19-.16.08-.3.19-.45.28-.19.11-.39.19-.58.29-.74.37.91-.34-.01,0-3.29,1.23-6.76,1.98-10.19,2.7-6.06,1.27-12.18,2.29-18.3,3.25-4.03.63-8.07,1.22-12.11,1.79-2.27.32-4.54.63-6.81.94-.66.09.7-.09-.23.03-.29.04-.57.08-.86.12-.61.08-1.22.16-1.83.24-1.26.17-2.51.33-3.77.49-11.49,1.48-23,2.83-34.51,4.11-14.1,1.57-28.22,3.02-42.34,4.4-16.89,1.65-33.79,3.2-50.69,4.67-19.54,1.7-39.08,3.3-58.63,4.83-22.23,1.73-44.47,3.37-66.71,4.92-24.93,1.74-49.86,3.38-74.79,4.94-13.02.81-26.04,1.61-39.06,2.38-3.85.23-3.87,5.79,0,6,25.07,1.34,50.13,2.72,75.19,4.18,22.25,1.29,44.49,2.63,66.73,4.04,19.67,1.24,39.33,2.53,58.99,3.89,17.03,1.18,34.05,2.4,51.07,3.69,14.36,1.09,28.72,2.23,43.08,3.44,11.84,1,23.68,2.04,35.51,3.17,9.19.88,18.37,1.8,27.54,2.83,3.63.41,7.26.83,10.89,1.28,1.6.2,3.19.4,4.78.61.35.05.71.09,1.06.14.75.1-.63-.09-.19-.03.22.03.43.06.65.09.68.09,1.35.19,2.03.28,4.08.58,8.17,1.17,12.19,2.05,1.08.24,2.18.48,3.23.85.58.21.47.47-.18-.1.1.09.28.11.39.19.53.36-.41-.36-.33-.28.36.37-.49-.72-.32-.43-.38-.66-.48-1.45-.29-2.12.15-.52.34-.83.72-1.23-.03.03-.05.05-.08.08.74-.72.71-.51.34-.31.81-.43.79-.27.33-.16-.37.09-.73.18-1.1.25-.24.04-.49.07-.74.11,1.02-.18.5-.06-.1,0-3.65.4-7.34.46-11.01.51-6.17.1-12.34.03-18.51-.07-8.65-.15-17.29-.4-25.93-.7-11.11-.39-22.21-.86-33.31-1.37-13.55-.63-27.1-1.34-40.64-2.09-15.92-.88-31.84-1.84-47.76-2.84-18.44-1.16-36.88-2.38-55.32-3.66-20.71-1.43-41.42-2.93-62.13-4.47-23.15-1.73-46.3-3.52-69.45-5.37-12.02-.96-24.04-1.93-36.06-2.92-3.33-.27-4.15,5.38-.8,5.89,22.09,3.38,44.18,6.8,66.27,10.25,19.75,3.08,39.5,6.2,59.25,9.34,17.42,2.78,34.84,5.58,52.26,8.42,15.11,2.46,30.21,4.95,45.31,7.48,12.76,2.13,25.52,4.3,38.27,6.5,10.55,1.82,21.09,3.67,31.63,5.56,8.2,1.47,16.4,2.97,24.59,4.52,5.97,1.13,11.93,2.29,17.87,3.52,3.71.77,7.42,1.55,11.1,2.49,1.01.26,2.03.52,3.03.85.16.05.32.11.49.17.65.22-.27-.12-.32-.14.57.3.3.25-.15-.21-1.23-1.24-.94-3.62.57-4.5,0,0,1.01-.4.51-.24-.53.17,1.01-.06.48-.06-.76,0-1.52.03-2.28,0-3.17-.14-6.34-.48-9.5-.82-5.42-.58-10.82-1.25-16.22-1.95-1.67-.22-3.35-.43-5.02-.65-.91-.12-1.83-.24-2.74-.36-.42-.06-.83-.11-1.25-.17-.8-.11.62.08-.08-.01-.27-.04-.53-.07-.8-.11-4.06-.55-8.12-1.11-12.18-1.68-9.79-1.37-19.58-2.79-29.37-4.23-11.97-1.77-23.93-3.57-35.89-5.4-14.13-2.17-28.26-4.37-42.39-6.59-16.29-2.57-32.57-5.17-48.85-7.81-18.36-2.97-36.72-5.97-55.07-9-20.55-3.39-41.1-6.82-61.64-10.28-10.71-1.8-21.42-3.61-32.13-5.43-1.6-.27-3.23.42-3.69,2.1-.43,1.58.53,3.25,2.1,3.69,20.45,5.77,40.89,11.59,61.3,17.49,18.48,5.34,36.94,10.73,55.38,16.19,16.36,4.85,32.71,9.75,49.04,14.72,14.36,4.37,28.7,8.79,43.02,13.29,12.24,3.84,24.47,7.74,36.68,11.7,10.18,3.31,20.34,6.67,30.47,10.11,8.1,2.75,16.19,5.55,24.24,8.45,6.02,2.17,12.03,4.39,17.98,6.74,1.18.47,2.36.94,3.54,1.42.54.22,1.08.44,1.62.67.25.1.5.21.75.31.68.29-.8-.34.14.06,1.68.72,3.35,1.45,5,2.23,1.18.56,2.35,1.14,3.48,1.8.39.23.76.48,1.14.72.67.44-.57-.55-.18-.14.09.1.21.2.32.29.5.39-.39-.58-.24-.34.29.48-.29-.86-.19-.49-.24-.87.09-1.99.65-2.53.24-.23.74-.68,1.07-.63-.08,0-.25.07-.33.09-.62.16,1.04-.06.35-.05-.18,0-.36.02-.53.03-1.04.03-2.09-.08-3.12-.2-.35-.04-.69-.09-1.04-.13-.44-.05.98.14.45.06-.09-.01-.17-.02-.26-.04-.2-.03-.4-.06-.6-.09-.86-.13-1.73-.27-2.59-.42-4.79-.83-9.54-1.86-14.28-2.94-6.92-1.57-13.81-3.27-20.69-5.02-9.06-2.31-18.1-4.71-27.12-7.17-11.21-3.05-22.4-6.19-33.58-9.37-13.37-3.81-26.72-7.7-40.06-11.64-15.6-4.61-31.18-9.29-46.75-14.02-17.73-5.39-35.43-10.85-53.12-16.36-19.99-6.23-39.96-12.52-59.9-18.87-10.38-3.3-20.76-6.63-31.13-9.96-3.21-1.03-5.34,3.91-2.31,5.48,20.62,10.7,41.17,21.51,61.65,32.48,18.19,9.74,36.32,19.6,54.37,29.61,15.92,8.83,31.78,17.76,47.56,26.85,13.59,7.82,27.12,15.76,40.56,23.84,11.35,6.82,22.64,13.75,33.84,20.84,9.16,5.79,18.25,11.69,27.23,17.76,7.01,4.73,13.95,9.56,20.74,14.6,1.41,1.05,2.82,2.1,4.21,3.17.31.24.63.48.94.72.46.36.12.09-.04-.03.18.14.37.29.55.43.62.48,1.23.96,1.85,1.45,2.14,1.7,4.26,3.43,6.33,5.22,2.88,2.5,5.65,5.1,8.08,8.04.25.3-.57-.78-.15-.2.09.13.18.25.27.38.16.23.32.47.48.71.13.22.26.43.38.66.05.1.09.2.15.29.31.56-.25-.78-.15-.37.04.18.12.37.18.55.27.76-.04-.78-.02-.28.02.67.02-.05.09-.34-.15.63.12-.21.18-.33-.33.6.49-.53.24-.27-.49.5.66-.5.27-.19-.51.4.11-.07.29-.09-.16.02-.36.1-.51.15-.82.24.81-.03.16-.01-.24,0-.47.03-.71.03-.57,0-1.13-.05-1.69-.1-.6-.06-.16-.04.29.04-.18-.03-.36-.05-.53-.08-.35-.06-.7-.12-1.06-.19-.81-.16-1.61-.35-2.41-.55-2.02-.52-4.01-1.14-5.99-1.8-2.49-.84-4.95-1.75-7.4-2.7-1.41-.55-2.81-1.11-4.21-1.68-.76-.31-1.51-.62-2.27-.94-.2-.09-.41-.16-.61-.26.42.2.56.24.1.04-.42-.18-.84-.36-1.25-.53-7.4-3.17-14.7-6.57-21.94-10.07-9.24-4.47-18.4-9.12-27.5-13.88-11.1-5.8-22.11-11.76-33.06-17.82-12.84-7.11-25.59-14.37-38.29-21.73-14.63-8.49-29.17-17.12-43.65-25.87-16.28-9.84-32.48-19.82-48.61-29.91-17.95-11.24-35.81-22.62-53.59-34.12-9.24-5.98-18.46-11.99-27.66-18.02-1.35-.89-3.32-.27-4.1,1.08-.89,1.53-.23,3.14,1.08,4.1,14.96,11.05,29.91,22.11,44.86,33.17,13.38,9.9,26.76,19.8,40.13,29.7,11.77,8.71,23.53,17.43,35.3,26.15,10.26,7.61,20.53,15.22,30.79,22.84,8.72,6.47,17.43,12.95,26.15,19.43,7.15,5.32,14.31,10.65,21.45,15.98,5.66,4.22,11.32,8.45,16.98,12.69,4.13,3.1,8.26,6.2,12.38,9.31,2.65,2,5.29,4,7.92,6.03.11.08.22.17.33.25.28.22-.76-.59-.23-.18.2.16.41.32.61.47.33.25.65.51.98.77.37.3.74.68,1.14.94.04.02.07.08.11.1-.69-.32-1-2.2-.73-2.86l.77-1.32c.61-.72,2.81-1.26,3.56-.49-.04-.04-.11-.05-.15-.09-.16-.12-.35-.22-.52-.33-.65-.43-1.28-.87-1.91-1.31-2.48-1.73-4.93-3.49-7.38-5.25-4.03-2.9-8.06-5.8-12.08-8.72-5.59-4.05-11.17-8.1-16.74-12.16-7.1-5.17-14.19-10.34-21.28-15.51-8.66-6.32-17.31-12.64-25.95-18.97-10.18-7.45-20.35-14.9-30.52-22.35-11.69-8.57-23.37-17.14-35.06-25.71-13.19-9.68-26.37-19.36-39.56-29.05-14.68-10.78-29.35-21.57-44.03-32.36-3.79-2.78-7.57-5.57-11.36-8.35-1.19-.87-3.06-.32-3.87.77-.86,1.16-.88,2.9.23,3.94,11.65,10.92,23.21,21.93,34.66,33.06,10.37,10.08,20.66,20.25,30.83,30.53,9.15,9.24,18.2,18.57,27.15,28,7.85,8.28,15.61,16.63,23.26,25.09,6.61,7.31,13.14,14.69,19.54,22.18,5.39,6.3,10.69,12.67,15.86,19.15,1.14,1.43,2.27,2.86,3.39,4.3.27.35.54.69.81,1.04.11.15.23.3.34.44.08.1.15.2.23.29.24.31-.37-.48-.13-.17.52.67,1.04,1.34,1.55,2.02,1.91,2.5,3.79,5.02,5.63,7.57,2.98,4.13,5.88,8.32,8.56,12.65,1.85,3,3.52,6.06,4.99,9.26.02.04-.35-.86-.1-.23.06.16.13.32.19.48.11.28.21.56.31.84.17.5.33,1.01.46,1.52.05.22.1.45.14.68.19.88-.03-.79-.01-.14,0,.34-.02.72,0,1.06-.02-.21.27-.91.02-.33-.28.65.24-.48.15-.31-.39.75.66-.59,0-.01.38-.33.78-.52.27-.26.24-.12.92-.31.32-.16-.7.18.74,0,.34-.03-.15-.01-.33,0-.48,0-.69.01-.12-.04.22.05-.19-.05-.4-.07-.6-.12-.46-.11-.91-.25-1.36-.41-.25-.09-.5-.22-.76-.3,1.08.32.3.13-.16-.08-.61-.28-1.21-.59-1.79-.91-3.27-1.77-6.34-3.92-9.32-6.13-.47-.35-.94-.7-1.41-1.05-.24-.18-.48-.37-.72-.55-.3-.23-.97-.76-.23-.18-1.03-.81-2.06-1.61-3.08-2.43-2.3-1.84-4.56-3.73-6.8-5.64-5.52-4.71-10.9-9.58-16.2-14.53-6.6-6.16-13.07-12.45-19.47-18.82-7.69-7.66-15.27-15.43-22.77-23.29-8.78-9.2-17.45-18.5-26.03-27.88-9.86-10.77-19.6-21.65-29.26-32.61-10.92-12.39-21.74-24.89-32.45-37.46-5.67-6.65-11.32-13.33-16.94-20.02-.95-1.13-2.86-1.09-3.94-.23-1.2.96-1.47,2.51-.77,3.87,7.44,14.51,14.84,29.04,22.18,43.6,6.5,12.89,12.97,25.81,19.37,38.75,5.59,11.3,11.15,22.61,16.65,33.95,4.71,9.72,9.38,19.45,14,29.22,3.84,8.12,7.64,16.26,11.38,24.43,3.03,6.63,6.03,13.27,8.95,19.95,1.21,2.76,2.4,5.52,3.58,8.3.13.29.25.59.37.88.06.15.12.29.18.44-.02-.05-.23-.56,0,0s.49,1.17.73,1.75c.48,1.14.95,2.28,1.42,3.43,1.46,3.59,2.9,7.19,4.19,10.84.74,2.09,1.51,4.22,1.94,6.4.03.16.05.33.09.49.1.46-.05-1.06-.05-.34,0,.24-.05,1.02.06.23.09-.69.05-.36,0-.18.15-.5.35-.85.67-1.17.73-.73,1.88-.93,2.59-.73-.12-.03.97.45.5.2s.42.37.35.29c-.16-.19-.39-.35-.56-.54-.25-.26-.47-.54-.7-.82-.55-.67.38.51.04.06-.14-.19-.29-.39-.43-.58-1.64-2.25-3.1-4.64-4.54-7.02-2.23-3.69-4.37-7.45-6.47-11.22-2.82-5.06-5.56-10.16-8.27-15.27-3.41-6.44-6.76-12.92-10.07-19.42-3.97-7.79-7.88-15.6-11.75-23.44-4.5-9.11-8.95-18.25-13.36-27.4-5.01-10.41-9.97-20.85-14.88-31.31-5.49-11.69-10.93-23.41-16.33-35.15-5.95-12.96-11.85-25.94-17.7-38.94-3.02-6.71-6.02-13.43-9.01-20.15l-5.18,3.03c11.48,20.8,23.07,41.53,34.84,62.16,9.05,15.86,18.2,31.67,27.53,47.37,6.56,11.04,13.19,22.03,20.04,32.89,4.04,6.4,8.1,12.81,12.53,18.96,1.22,1.69,2.45,3.4,3.85,4.95,1.29,1.42,3.15,2.72,5.11,1.58s1.75-3.38,1.14-5.2c-.65-1.94-1.53-3.82-2.39-5.67-3.11-6.66-6.62-13.14-10.14-19.59-5.89-10.8-12-21.49-18.19-32.13-8.63-14.84-17.43-29.57-26.34-44.24-11.34-18.68-22.86-37.27-34.49-55.77-3.19-5.08-6.4-10.15-9.61-15.22-2.06-3.25-7.09-.35-5.18,3.03,10.09,17.92,20.15,35.86,30.15,53.83,7.83,14.08,15.63,28.17,23.37,42.3,5.61,10.23,11.18,20.48,16.69,30.76,3.42,6.4,6.84,12.8,10.13,19.27.89,1.74,1.77,3.49,2.6,5.26.13.29.27.57.4.86.05.11.1.23.15.34.26.58-.2-.51-.14-.34.07.21.16.65.29.82-.19-.24-.09-.8-.05-1.1.27-1.85,2.29-3,4.05-2.31.15.06,1.22.87.79.46-.51-.48.47.68.19.25-.12-.18-.25-.35-.37-.52-.87-1.27-1.67-2.59-2.47-3.9-3.31-5.43-6.47-10.94-9.64-16.45-5.33-9.3-10.59-18.64-15.82-27.99-7.35-13.15-14.65-26.33-21.91-39.53-9.35-17-18.65-34.02-27.9-51.07-2.58-4.75-5.15-9.49-7.72-14.24-.7-1.3-2.43-1.81-3.75-1.23-1.22.54-2.32,2.14-1.74,3.54,7.7,18.34,15.28,36.73,22.68,55.19,5.84,14.56,11.57,29.16,17.11,43.83,4.05,10.72,8.01,21.49,11.75,32.33,2.35,6.83,4.67,13.7,6.6,20.67.54,1.95,1.06,3.92,1.43,5.91.06.34.1.68.17,1.01,0-.04-.1-.98-.05-.34.01.14.03.27.04.41.01.21,0,.42.01.63.05.63.22-.95.04-.33.14-.49.52-1.12,1.21-1.52.62-.36,1.54-.43,2.04-.29-.08-.02.94.45.56.22s.68.68.41.32c-.11-.14-.27-.28-.39-.4-.62-.64.45.66-.02-.03-.18-.26-.37-.52-.54-.79-.46-.7-.88-1.42-1.29-2.15-2.97-5.23-5.47-10.74-7.96-16.21-1.91-4.21-3.77-8.45-5.6-12.7-.52-1.22-1.05-2.44-1.57-3.66-.25-.6-.51-1.19-.76-1.79-.13-.3-.26-.61-.39-.91-.06-.15-.13-.31-.19-.46.27.65-.06-.13-.09-.21-1.16-2.76-2.32-5.53-3.46-8.3-5.62-13.6-11.05-27.28-16.38-41-6.91-17.8-13.64-35.67-20.26-53.58-1.83-4.97-3.66-9.94-5.48-14.91-1.32-3.61-6.57-2.22-5.79,1.6,4.15,20.21,8.16,40.45,11.95,60.73,2.97,15.86,5.81,31.74,8.42,47.66,1.04,6.35,2.05,12.71,3.01,19.07.41,2.75.81,5.51,1.2,8.26.18,1.29.36,2.59.54,3.88.04.29.08.57.12.86.03.21.15,1.11.04.26.08.62.17,1.24.25,1.86.95,7.23,1.85,14.49,2.3,21.78.12,2.01.23,4.03.15,6.04-.01.33-.04.65-.06.98-.01.14-.04.28-.04.42,0,.08.2-.99.04-.37-.04.18-.12.4-.14.58-.04.42.47-.89.12-.33.98-1.56,2.91-1.62,4.13-.57-.48-.42.08.07.16.26-.08-.19-.24-.37-.34-.55-.14-.25-.25-.5-.37-.76-.25-.53-.05-.21.1.24-.06-.18-.15-.35-.21-.53-.33-.85-.63-1.71-.92-2.58-1.98-6.02-3.42-12.23-4.85-18.39-2.42-10.46-4.55-20.99-6.58-31.53-2.87-14.87-5.51-29.78-8.03-44.71-3.25-19.29-6.29-38.61-9.19-57.95-.81-5.42-1.61-10.84-2.4-16.26-.21-1.45-1.98-2.35-3.29-2.15-1.51.23-2.52,1.42-2.6,2.95-.92,17.42-1.64,34.85-2.03,52.29-.28,12.73-.4,25.46-.17,38.19.15,8.41.43,16.83,1.15,25.21.39,4.5.7,9.24,2.02,13.58.44,1.45,1.06,3.04,2.41,3.88,1.87,1.16,3.98.3,5.09-1.42,1.74-2.68,1.94-6.66,2.31-9.71.74-6.05,1.01-12.16,1.17-18.25.24-9.1.13-18.2-.15-27.3-.37-11.93-1.07-23.86-2.01-35.76-1.13-14.4-2.61-28.78-4.38-43.11-.48-3.89-.98-7.77-1.5-11.65-.22-1.61-1.22-3-3-3-1.63,0-3,1.37-3,3,.02,17.68-.17,35.38-1.01,53.04-.26,5.5-.58,11-1.07,16.49-.17,1.96-.37,3.91-.61,5.86-.02.19-.05.39-.07.58-.09.71.15.08.02-.1.1.14-.13.91-.16,1.1-.09.61-.19,1.22-.3,1.83-.16.87-.38,1.7-.62,2.55-.18.67.31-.62.14-.32-.05.09-.09.19-.15.27.26-.37.31-.43.61-.66.66-.49,1.49-.73,2.41-.48.34.09,1.06.55,1.15.65.53.55.52.74.32.37.46.82.19.52.03-.08-.1-.37-.16-.75-.23-1.12-.04-.23-.06-.45-.1-.68.21,1.11.04.29,0-.12-.98-8.63-.72-17.47-.57-26.13.29-16.58,1.2-33.14,2.35-49.68.18-2.57.36-5.14.56-7.7.23-3.02-4.2-4.02-5.59-1.51-5.09,9.15-10.24,18.34-16.15,26.99-.78,1.14-1.6,2.26-2.42,3.37-.35.48.46-.57.09-.12-.06.08-.12.15-.18.23-.17.21-.34.43-.52.64-.27.33-.55.65-.84.96-.23.24-.47.47-.7.7-.61.6.64-.35,0,0-.31.17-.57.15.43-.16-.33.1-.35-.05.59-.06.78,0,1.74.48,2.24,1.32.15.24.36.78.29,1.05.04-.17.09-1.04-.02-.28s.05-.2.1-.41c.08-.37.18-.73.29-1.09.25-.84.55-1.67.86-2.49.17-.45.35-.89.53-1.33.06-.14.12-.28.17-.42.22-.55-.3.69-.06.14.13-.3.26-.6.39-.89,2.48-5.64,5.45-11.06,8.63-16.33,2.19-3.62,4.51-7.17,6.96-10.62.61-.85,1.22-1.7,1.85-2.54.34-.46.68-.91,1.03-1.37.13-.17.27-.35.4-.52.21-.27.21-.28.01-.02.11-.14.22-.28.32-.41,1.34-1.72,2.73-3.41,4.16-5.06l-2.92.77c9.62,2.61,19.48,5,29.42,6.06,2.47.26,6.19.81,7.42-1.99,1.64-3.74-3.66-5.41-6.12-6.33-6.92-2.57-14.13-4.43-21.26-6.33v5.79c12.47-2.74,24.88-5.97,36.9-10.33,4.11-1.49,8.18-3.11,12.13-4.99,2.46-1.17,4.92-2.44,7.12-4.05,1.59-1.17,3.39-2.59,3.91-4.6.63-2.47-1.07-4.54-3.38-5.17-2.06-.56-4.31-.37-6.39-.12-3.64.44-7.23,1.21-10.78,2.14-13.56,3.53-26.67,8.79-39.53,14.29l3.64,4.71c13.16-12.03,26.12-24.27,38.69-36.92,7.16-7.21,14.35-14.48,20.85-22.3,1.37-1.65,2.95-3.36,3.9-5.31.8-1.64.75-3.69-1.02-4.72-1.28-.75-2.7-.4-3.91.29-2.19,1.26-4.14,3.1-6.03,4.76-3.59,3.15-7.05,6.45-10.48,9.78-12.5,12.13-24.54,24.75-36.46,37.45-1.99,2.12-3.98,4.25-5.96,6.38-1.1,1.19-1.17,3.07,0,4.24,1.26,1.26,2.96,1,4.24,0,11.28-8.86,22.75-17.48,34.48-25.73,9.33-6.57,18.82-12.92,28.56-18.87,7.1-4.34,14.33-8.5,21.79-12.19,1.44-.71,2.89-1.41,4.36-2.08.68-.31,1.37-.62,2.05-.92.3-.13.61-.26.91-.39.11-.05-.63.26-.05.02.17-.07.34-.14.51-.21,2.14-.88,4.31-1.69,6.52-2.34.84-.25,1.69-.47,2.55-.64.37-.08.75-.13,1.13-.2s-.95.09-.24.04c.16-.01.32-.03.49-.05.29-.02.59-.03.88-.03.12,0,.25.01.37.02.52,0,.29.31-.35-.06.13.08.45.11.61.14.67.12-.76-.47-.17-.06.46.31-.71-.68-.2-.14.29.31-.53-.77-.32-.41.26.44-.14-.36-.18-.48.24.68-.01-.18.01-.28-.02.07,0,.18,0,.25,0,.57-.06-.26.07-.44-.09.12-.11.46-.15.61-.03.12-.09.23-.12.34-.1.38.42-.85.12-.3s-.58,1.09-.93,1.61c-.21.31-.45.61-.66.92-.23.34.51-.63.24-.31-.06.07-.12.15-.18.23-.15.18-.3.36-.45.54-.62.74-1.28,1.45-1.95,2.15-1.73,1.79-3.58,3.48-5.47,5.1-1.14.98-2.31,1.94-3.48,2.88-.65.52-1.31,1.04-1.97,1.56-.47.37.12-.09-.03.02-.16.12-.32.25-.48.37-.36.27-.71.55-1.07.82-3.18,2.4-6.43,4.71-9.72,6.95-8.4,5.74-17.07,11.09-25.85,16.21-11.47,6.69-23.16,12.98-34.99,19.01-3.29,1.68-6.58,3.33-9.89,4.96-3,1.48-.88,6.73,2.31,5.48,16.73-6.56,33.45-13.14,50.15-19.75,13.21-5.23,26.41-10.48,39.6-15.77,9.74-3.9,19.48-7.83,29.2-11.78,6.14-2.5,12.27-5.01,18.38-7.57,2.7-1.13,5.71-2.09,8.25-3.57,1.47-.86,2.19-2.67,1.28-4.24-.78-1.34-2.27-1.69-3.66-1.32-.89.23-1.77.61-2.63.94-4.57,1.7-9.11,3.5-13.66,5.29-8.35,3.29-16.67,6.62-25,9.97-12.24,4.92-24.47,9.88-36.68,14.85-16.17,6.58-32.32,13.2-48.46,19.83-4.51,1.85-9.01,3.71-13.51,5.56-1.5.62-2.56,1.99-2.1,3.69.39,1.42,2.18,2.71,3.69,2.1,19.23-7.88,38.49-15.71,57.76-23.49,15.37-6.2,30.76-12.35,46.17-18.45,11.42-4.52,22.86-9,34.33-13.4,7.39-2.84,14.79-5.66,22.23-8.35,3.27-1.18,6.54-2.35,9.89-3.3.65-.19-.72.05-.43.05.4,0-.74-.12-.69-.1-1.47-.4-2.48-2.09-2.05-3.64.2-.72.71-1.44,1.21-1.63-.12.04-.24.17-.36.23-1.12.62-2.27,1.17-3.43,1.71-5.46,2.54-11.01,4.87-16.55,7.22-.22.09-.43.18-.65.27.91-.39-.09.04-.27.11-.51.21-1.02.43-1.52.64-1.07.45-2.13.9-3.2,1.34-2.34.98-4.68,1.95-7.02,2.92-5.51,2.28-11.02,4.54-16.54,6.8-14.35,5.86-28.74,11.65-43.14,17.4-18.9,7.55-37.82,15.04-56.76,22.48-5.29,2.08-10.59,4.16-15.88,6.23-1.51.59-2.56,2.01-2.1,3.69.42,1.54,2.13,2.57,3.69,2.1,21.14-6.41,42.3-12.77,63.47-19.06,16.49-4.9,32.99-9.75,49.52-14.53,12.07-3.49,24.14-6.94,36.25-10.31,7.48-2.08,14.96-4.14,22.48-6.04,2.07-.52,4.14-1.04,6.22-1.49.61-.13,1.21-.25,1.82-.36.11-.02.21-.03.32-.05.4-.08-1.04.08-.49.07.09,0,.29.01.37-.02.31-.12-1-.18-.69-.09-1.48-.41-2.48-2.05-2.04-3.63.19-.7.85-1.53,1.2-1.64-.45.14-1.51.63-.29.18-1.5.56-2.99,1.14-4.51,1.67-6.39,2.22-12.84,4.25-19.29,6.28-10.86,3.41-21.76,6.73-32.66,10.01-15.47,4.66-30.97,9.23-46.48,13.77-19.87,5.81-39.76,11.55-59.66,17.24-5.59,1.6-11.18,3.19-16.78,4.78-1.56.44-2.53,2.12-2.1,3.69.46,1.68,2.09,2.38,3.69,2.1,20.81-3.71,41.64-7.29,62.5-10.68,16.14-2.62,32.3-5.13,48.49-7.44,3.38-.48,6.77-.96,10.16-1.42.77-.1,1.54-.21,2.3-.31.12-.02.59-.08,0,0,.18-.02.35-.05.53-.07.44-.06.88-.12,1.32-.18,1.49-.2,2.98-.39,4.47-.59,5.29-.68,10.58-1.33,15.89-1.93,7.17-.8,14.36-1.58,21.57-1.9,1.92-.09,3.86-.16,5.78-.05.3.02.59.05.89.07.61.04-.93-.19-.36-.05.11.03.22.04.33.06.21.05.84.28.14,0-.61-.25-.34-.15-.19-.06-.39-.23-.66-.49-.94-.96-.41-.68-.43-1.64-.12-2.41.05-.12.77-1.06.39-.69.63-.62.62-.4.13-.15-.21.11-.42.21-.63.31-.63.31.49-.19.26-.1-.16.06-.31.13-.47.19-.35.14-.71.26-1.07.38-.91.31-1.83.59-2.76.85-6.35,1.83-12.84,3.19-19.31,4.52-10.81,2.23-21.68,4.2-32.56,6.08-15.08,2.6-30.19,5.01-45.31,7.3-19.52,2.96-39.07,5.72-58.63,8.35-5.25.71-10.51,1.4-15.77,2.09-1.61.21-3,1.23-3,3,0,1.46,1.38,3.21,3,3h0Z"/>
  </g>
</svg>