<?xml version="1.0" encoding="UTF-8"?>
<svg id="Layer_2" data-name="Layer 2" xmlns="http://www.w3.org/2000/svg" viewBox="0 0 790.97 513.92">
  <defs>
    <style>
      .cls-1 {
        fill: none;
        stroke: #1ca86f;
        stroke-miterlimit: 10;
        stroke-width: 3px;
      }

      .cls-2 {
        fill: #032c2d;
      }

      .cls-3 {
        fill: #1ca86f;
      }
    </style>
  </defs>
  <g id="images">
    <g>
      <path class="cls-3" d="m385.55,162.75c-10.9-111.54,40.19-126.04,37.91,1.27,64.98-92.77,107.5-56.75,66.52,15.98,182.56-109.82,216.91-55.5,50.97,24.27,177.34-45.76,188.47-2.61-9.26,44.41,123.81,25.82,121.68,79-17.73,47.33,140.48,58.31,136.91,108.45-20.88,39.43,73.03,113.59,45.44,105.89-41.98,2.36,44.78,84.62,4.1,92.21-36.53,6.94,5.76,119.18-20.78,124.51-21.46,10.49-4.71,115.08-31.56,114.06-18.42-2.19-34.17,107.7-95.49,68.37-53.68-12.97-131.6,112.15-177.36,68.65-42.91-28.61-139.77,29.02-172.11,6.21-19.67-28.52-167.99,24.55-181.37,11.35-11.06-13.45-176.08,2.88-184.1-27.76,8.33-29.46-134.4-43.22-121.62-60.4,21.91-29.2-131.83-78.93-114.62-105.53,25.97-24.43-73.74-86.42-51.58-71.6,30.5,17.35-60.61-37.8-66.58-13.18-3.04,30.15-74.92-27.96-92.47-6.22-16.44,12.2-112.42-8.84-160.31,16.7-1.76,25.45-96.3,16.26-64.99,13.85,25.43,11.07-42.44,55.74-19.75,40.34,26.28.81-25.1,20.88,2.57,12.36,23.16-7.47-8.35,21.43-71.67,9.05-39.64-35.27-77.79-84.3-53.87-129.94,13.09-63.31-12.13-122.09,13.49-126.16,24.39-14.63Z"/>
      <path class="cls-2" d="m389.29,198.71c-24.95-254.01,52.53-275.94,23.48.81,124.09-224.27,188.52-169.58,41.2,9.94,362.08-235.57,414.1-153.16,31.56,15.06,399.79-116.63,416.6-51.18-5.76,27.5,310.18,31.69,306.88,112.32-11.01,29.3,319.46,123.41,313.99,199.45-12.96,24.41,198.35,242.51,156.51,230.79-26.01,1.44,117.88,200.63,56.18,212.07-22.63,4.28,25.88,259.18-14.37,267.22-13.3,6.49-9.25,262.34-49.97,260.75-11.41-1.37-70.44,249.12-163.38,189.39-33.24-8.06-266.35,244.06-335.68,178.03-26.56-17.74-317.09,92.29-366.1,57.65-12.17-17.68-377.5,59.87-397.77,39.84-6.84-8.34-399.66,14.93-411.77-31.55,5.18-18.24C-20.06,165.17-.65,139.13,322.41,228.43,17.14,66.76,43.28,26.44,338.51,213.31c-193.83-194.85-160.26-172.34,18.88,10.77-146.64-105.5-155.73-68.18-1.9,18.67-171.11-63.57-197.76-30.62-10.19,7.55-242.77-23.7-315.43,14.97-1.11,15.76-219.95,37.22-172.48,33.61,15.74,6.87-115.54,107.11-81.09,83.79,16.28.51-65.6,55.01-23.63,42.14,14.35-4.61-19.43,49.19-115.43,30.33-24.53-21.87-160.12-142.92-123.77-212.09,8.14-39.21-48.7-256.91-9.84-263.06,15.11-9.05Z"/>
      <path class="cls-1" d="m386.19,169.36c-10.14-103.77,37.39-117.27,35.27,1.18,60.46-86.31,100.02-52.8,61.89,14.87,169.85-102.17,201.8-51.64,47.42,22.58,164.99-42.57,175.34-2.43-8.61,41.32,115.19,24.02,113.21,73.5-16.49,44.03,130.7,54.25,127.38,100.9-19.43,36.68,67.95,105.68,42.27,98.52-39.06,2.2,41.67,78.73,3.82,85.79-33.99,6.46,5.36,110.89-19.33,115.84-19.97,9.76-4.38,107.07-29.37,106.11-17.14-2.04-31.79,100.2-88.84,63.61-49.94-12.06-122.44,104.34-165.01,63.87-39.92-26.62-130.04,27-160.12,5.78-18.3-26.53-156.29,22.84-168.74,10.56-10.29-12.51-163.83,2.68-171.28-25.82,7.75-27.41-125.04-40.21-113.15-56.19,20.38-27.17-122.65-73.43-106.64-98.18,24.17-22.73-68.61-80.4-47.99-66.61,28.38,16.15-56.39-35.16-61.94-12.26-2.83,28.05-69.7-26.02-86.04-5.79-15.3,11.35-104.6-8.23-149.15,15.53-1.64,23.67-89.59,15.13-60.47,12.89,23.66,10.3-39.49,51.85-18.37,37.53,24.45.75-23.35,19.42,2.39,11.5,21.55-6.95-7.77,19.94-66.68,8.42-36.88-32.81-72.38-78.43-50.12-120.9,12.17-58.9-11.29-113.59,12.55-117.38,22.69-13.61Z"/>
      <path class="cls-1" d="m386.99,177.5c-9.2-94.21,33.94-106.47,32.02,1.07,54.89-78.36,90.8-47.93,56.19,13.5,154.2-92.76,183.22-46.88,43.06,20.5,149.8-38.65,159.19-2.21-7.82,37.51,104.58,21.81,102.78,66.73-14.97,39.98,118.66,49.25,115.65,91.6-17.64,33.31,61.69,95.94,38.38,89.44-35.46,1.99,37.83,71.48,3.47,77.89-30.86,5.86,4.86,100.67-17.55,105.17-18.13,8.86-3.98,97.21-26.66,96.34-15.56-1.85-28.86,90.97-80.66,57.75-45.34-10.95-111.16,94.73-149.81,57.99-36.25-24.16-118.06,24.51-145.37,5.25-16.61-24.09-141.9,20.74-153.2,9.59-9.34-11.36-148.74,2.43-155.51-23.45,7.04-24.88-113.52-36.5-102.73-51.02,18.51-24.67-111.36-66.67-96.82-89.14,21.94-20.64-62.29-73-43.57-60.48,25.76,14.66-51.19-31.93-56.24-11.13-2.57,25.46-63.28-23.62-78.11-5.25-13.89,10.31-94.96-7.47-135.41,14.1-1.49,21.49-81.34,13.73-54.9,11.7,21.48,9.35-35.85,47.08-16.68,34.07,22.2.68-21.2,17.63,2.17,10.44,19.57-6.31-7.06,18.1-60.54,7.65-33.48-29.79-65.71-71.21-45.5-109.76,11.05-53.48-10.25-103.12,11.4-106.57,20.6-12.35Z"/>
      <path class="cls-1" d="m388.03,188.18c-7.98-81.67,29.43-92.29,27.76.93,47.58-67.93,78.71-41.55,48.71,11.7,133.67-80.41,158.82-40.64,37.32,17.77,129.85-33.51,138-1.91-6.78,32.52,90.66,18.91,89.1,57.84-12.98,34.65,102.86,42.69,100.25,79.41-15.29,28.87,53.48,83.17,33.27,77.53-30.74,1.73,32.79,61.96,3,67.51-26.75,5.08,4.22,87.27-15.21,91.16-15.71,7.68-3.45,84.26-23.11,83.51-13.49-1.61-25.02,78.86-69.92,50.06-39.3-9.49-96.36,82.12-129.86,50.27-31.42-20.95-102.34,21.25-126.02,4.55-14.4-20.88-123,17.98-132.8,8.31-8.1-9.85-128.93,2.11-134.8-20.32,6.1-21.57-98.41-31.64-89.05-44.22,16.04-21.38-96.53-57.79-83.93-77.27,19.02-17.89-53.99-63.28-37.77-52.42,22.33,12.71-44.38-27.67-48.75-9.65-2.23,22.07-54.86-20.48-67.71-4.55-12.04,8.93-82.32-6.48-117.38,12.23-1.29,18.63-70.51,11.9-47.59,10.14,18.62,8.1-31.08,40.81-14.46,29.54,19.24.59-18.38,15.29,1.88,9.05,16.96-5.47-6.12,15.69-52.48,6.63-29.02-25.82-56.96-61.73-39.44-95.15,9.58-46.36-8.88-89.39,9.88-92.38,17.86-10.71Z"/>
      <path class="cls-1" d="m389.17,199.87c-6.64-67.93,24.47-76.77,23.09.77,39.57-56.5,65.47-34.56,40.51,9.73,111.18-66.88,132.1-33.8,31.04,14.78,108.01-27.87,114.78-1.59-5.64,27.05,75.41,15.73,74.11,48.11-10.8,28.82,85.55,35.51,83.38,66.05-12.72,24.01,44.48,69.18,27.67,64.49-25.57,1.44,27.27,51.54,2.5,56.16-22.25,4.23,3.51,72.59-12.66,75.83-13.07,6.39-2.87,70.09-19.22,69.46-11.22-1.34-20.81,65.59-58.16,41.64-32.69-7.9-80.15,68.3-108.02,41.81-26.13-17.42-85.12,17.67-104.82,3.78-11.98-17.37-102.31,14.95-110.46,6.91-6.73-8.19-107.24,1.76-112.12-16.9,5.07-17.94-81.85-26.32-74.07-36.78,13.34-17.79-80.29-48.07-69.81-64.27,15.82-14.88-44.91-52.63-31.42-43.6,18.57,10.57-36.91-23.02-40.55-8.02-1.85,18.36-45.63-17.03-56.32-3.79-10.01,7.43-68.47-5.39-97.64,10.17-1.07,15.5-58.65,9.9-39.58,8.44,15.49,6.74-25.85,33.94-12.03,24.57,16.01.49-15.28,12.71,1.57,7.53,14.11-4.55-5.09,13.05-43.65,5.51-24.14-21.48-47.38-51.34-32.81-79.14,7.97-38.56-7.39-74.35,8.22-76.84,14.85-8.91Z"/>
      <path class="cls-1" d="m390.07,209.03c-5.59-57.18,20.6-64.61,19.43.65,33.31-47.56,55.11-29.09,34.1,8.19,93.58-56.3,111.19-28.45,26.13,12.44,90.91-23.46,96.61-1.34-4.74,22.77,63.47,13.24,62.38,40.5-9.09,24.26,72.01,29.89,70.19,55.59-10.71,20.21,37.44,58.23,23.29,54.28-21.52,1.21,22.96,43.38,2.1,47.27-18.73,3.56,2.95,61.1-10.65,63.83-11,5.38-2.41,58.99-16.18,58.47-9.44-1.12-17.52,55.21-48.95,35.05-27.52-6.65-67.46,57.49-90.92,35.19-22-14.67-71.65,14.88-88.23,3.18-10.08-14.62-86.12,12.59-92.98,5.82-5.67-6.89-90.27,1.48-94.38-14.23,4.27-15.1-68.9-22.15-62.34-30.96,11.23-14.97-67.58-40.46-58.76-54.1,13.32-12.52-37.8-44.3-26.44-36.7,15.63,8.9-31.07-19.38-34.13-6.75-1.56,15.45-38.41-14.33-47.4-3.19-8.43,6.25-57.63-4.53-82.18,8.56-.9,13.04-49.37,8.33-33.32,7.1,13.03,5.67-21.76,28.57-10.12,20.68,13.47.41-12.86,10.7,1.32,6.34,11.87-3.83-4.28,10.99-36.74,4.64-20.32-18.08-39.88-43.22-27.61-66.61,6.71-32.46-6.22-62.59,6.92-64.68,12.5-7.5Z"/>
      <path class="cls-1" d="m391.01,218.69c-4.48-45.83,16.51-51.79,15.57.52,26.7-38.12,44.17-23.32,27.33,6.57,75.01-45.12,89.12-22.81,20.94,9.97,72.87-18.8,77.44-1.07-3.8,18.25,50.87,10.61,50,32.46-7.28,19.44,57.72,23.96,56.25,44.56-8.58,16.2,30.01,46.67,18.67,43.51-17.25.97,18.4,34.77,1.69,37.88-15.01,2.85,2.37,48.97-8.54,51.16-8.82,4.31-1.93,47.28-12.97,46.86-7.57-.9-14.04,44.25-39.23,28.09-22.06-5.33-54.07,46.08-72.87,28.21-17.63-11.75-57.43,11.92-70.71,2.55-8.08-11.72-69.02,10.09-74.52,4.66-4.54-5.53-72.35,1.18-75.64-11.4,3.42-12.1-55.22-17.76-49.97-24.82,9-12-54.17-32.43-47.1-43.36,10.67-10.04-30.3-35.51-21.19-29.42,12.53,7.13-24.9-15.53-27.36-5.41-1.25,12.39-30.78-11.49-37.99-2.56-6.75,5.01-46.19-3.63-65.87,6.86-.72,10.46-39.57,6.68-26.7,5.69,10.45,4.55-17.44,22.9-8.11,16.57,10.8.33-10.31,8.58,1.06,5.08,9.52-3.07-3.43,8.81-29.45,3.72-16.29-14.49-31.96-34.64-22.13-53.39,5.38-26.01-4.98-50.16,5.54-51.84,10.02-6.01Z"/>
      <path class="cls-1" d="m391.71,225.81c-3.66-37.47,13.5-42.34,12.73.43,21.83-31.16,36.11-19.06,22.34,5.37,61.32-36.89,72.86-18.64,17.12,8.15,59.57-15.37,63.3-.88-3.11,14.92,41.59,8.67,40.87,26.53-5.95,15.9,47.18,19.58,45.99,36.43-7.01,13.24,24.53,38.15,15.26,35.57-14.1.79,15.04,28.42,1.38,30.97-12.27,2.33,1.93,40.03-6.98,41.82-7.21,3.52-1.58,38.65-10.6,38.31-6.19-.74-11.48,36.17-32.07,22.96-18.03-4.36-44.2,37.67-59.57,23.06-14.41-9.61-46.95,9.75-57.81,2.09-6.61-9.58-56.43,8.25-60.92,3.81-3.71-4.52-59.15.97-61.84-9.32,2.8-9.89-45.14-14.52-40.85-20.29,7.36-9.81-44.28-26.51-38.5-35.45,8.72-8.21-24.77-29.03-17.33-24.05,10.24,5.83-20.36-12.7-22.36-4.43-1.02,10.13-25.16-9.39-31.06-2.09-5.52,4.1-37.76-2.97-53.85,5.61-.59,8.55-32.35,5.46-21.83,4.65,8.54,3.72-14.26,18.72-6.63,13.55,8.83.27-8.43,7.01.86,4.15,7.78-2.51-2.81,7.2-24.07,3.04-13.31-11.85-26.13-28.32-18.09-43.65,4.4-21.27-4.07-41.01,4.53-42.38,8.19-4.91Z"/>
      <path class="cls-1" d="m392.65,235.47c-2.55-26.12,9.41-29.51,8.88.3,15.21-21.72,25.17-13.29,15.58,3.74,42.74-25.71,50.79-13,11.93,5.68,41.52-10.71,44.13-.61-2.17,10.4,28.99,6.05,28.49,18.5-4.15,11.08,32.89,13.65,32.06,25.39-4.89,9.23,17.1,26.59,10.64,24.79-9.83.55,10.49,19.81.96,21.59-8.55,1.62,1.35,27.91-4.87,29.15-5.02,2.46-1.1,26.94-7.39,26.7-4.31-.51-8,25.22-22.36,16.01-12.57-3.04-30.81,26.26-41.53,16.07-10.05-6.7-32.72,6.79-40.3,1.45-4.61-6.68-39.33,5.75-42.46,2.66-2.59-3.15-41.23.67-43.1-6.5,1.95-6.9-31.47-10.12-28.47-14.14,5.13-6.84-30.87-18.48-26.84-24.71,6.08-5.72-17.27-20.23-12.08-16.76,7.14,4.06-14.19-8.85-15.59-3.08-.71,7.06-17.54-6.55-21.65-1.46-3.85,2.86-26.32-2.07-37.53,3.91-.41,5.96-22.55,3.81-15.22,3.24,5.95,2.59-9.94,13.05-4.62,9.44,6.15.19-5.88,4.89.6,2.89,5.42-1.75-1.96,5.02-16.78,2.12-9.28-8.26-18.21-19.74-12.61-30.42,3.06-14.82-2.84-28.58,3.16-29.54,5.71-3.42Z"/>
    </g>
  </g>
</svg>