<?xml version="1.0" encoding="UTF-8"?>
<svg id="Layer_2" data-name="Layer 2" xmlns="http://www.w3.org/2000/svg" viewBox="0 0 808.96 752.53">
  <defs>
    <style>
      .cls-1 {
        fill: #626aef;
      }
    </style>
  </defs>
  <g id="images">
    <path class="cls-1" d="m336.87,260.3c-227.39-293.61-269.32-389.44-52.89-15.14C-86.11-67.72-96.95-33.42,266.04,267.83c-360.76-249.67-346.98-225.94,10.04,17.62C-3.9,93.28,36.31,42.97,314.1,284.34c-210.14-226.55-188.34-177.18,19.92,35.1-173.71-111.6-136.13-59.53,20.77,27.32-95.45-46.15-68.24-44.24,26.18,2.61-16.74-80.21,30.56-111.24,36.53-20.6,77.16-140.5,182.66-219.5,51.35-36.28,209.39-238.32,308.82-336.7,51.16-6.86,351.59-127.72,223,143.07-31.71,125.24,207.96,133.05,148.41,228.31-16.21,53.22,193.09,304.06,265.39,245.32,29.41.18,270.25,236.46,292.15,233.01,11.99,3.05,300.12,279,275.89,322.37-7.55,25.38,246.87,338.11,240.44,330.88-9.66,5.14,234.6,330.6,231.94,341.41,2.05,4.29,259.26,340.92,281.25,332.33,17.33-17.4,322.49,237.77,308.44,163.01-20.02-29.43,152.88,240.61,299.74-54.66,26.69-103.01,374.25-226.06,383.59-263.02,18.72-73.73,355.59-296.2,334.63-344.11-18.96-29.06,266.56-332.06,230.32-317.31-57.36,35.81,31.38-106.03,1.13-169.29-45.93,11.57,24.19-232.89,38.53-244.19-6.94-27.71-3.89-327.38-56.16-378.26-33.49-29.39-166.79-349.47-166.06-276.36-41.49,20.51Zm14.88-92.48c107.07-56,74.89,17.92,26.46,45.5,98.2,60.68,134.15,61.34,16.79,12.36,83.84,56.08,22.43,112.76-38.29,20.21-26.98,111.5-62.93,110.84-31.41-7.31-86.35,61.28-108.33,33.25-15.46-26.87-120.42-39.16-108.26-88.99,10.9-34.18-17.83-109.67-.27-128.52,31.01-9.71Z"/>
  </g>
</svg>