<?xml version="1.0" encoding="UTF-8"?>
<svg id="Layer_2" data-name="Layer 2" xmlns="http://www.w3.org/2000/svg" viewBox="0 0 884.3 657.58">
  <defs>
    <style>
      .cls-1 {
        fill: none;
        stroke: #8165e5;
        stroke-miterlimit: 10;
        stroke-width: 3px;
      }
    </style>
  </defs>
  <g id="images">
    <path class="cls-1" d="m323.2,390.01c-420.56,218.94-437.43,175.93.59-22.36-399.02,85.33-350.72,58.11,22.5-21.34-308.64,57.05-145.75,65.68,63.27-32.02-36.49-182.04-51.98-288.19,47.55-69.5,181.97-344.98,332.32-305.09,81.76,6.36,395.76-208.35,505.31-76.98,31.19,57.99,387.3,15.07,288.09,53.08-46.67,12.18,204.79-76.77,218.44-120.42-28.99-29.29,92.21-146.78,18.29-106.72-27.55,18.48,103.79,14.7,127.98-21.95,23,17.61,203.27,50.51,225.33,100.17,14.4,36.5,196.63,198.97,142.82,262.41-30.09,33.14,27.12,261.92-21.25,234.02-35.19-8.64-56.56,188.92-136.66,99.08-42.29-9.02-206.22,225.83-208.85,280.5-18.9,27.43-276.34,306.49-407.23,361.67-54.59-17.5Z"/>
  </g>
</svg>