<?xml version="1.0" encoding="UTF-8"?>
<svg id="Layer_2" data-name="Layer 2" xmlns="http://www.w3.org/2000/svg" viewBox="0 0 794.91 794.91">
  <defs>
    <style>
      .cls-1 {
        fill: none;
        stroke: #00bf80;
        stroke-miterlimit: 10;
        stroke-width: 2px;
      }
    </style>
  </defs>
  <g id="images">
    <g>
      <g>
        <path class="cls-1" d="m515.73,397.46c337.92,251.95,133.68,456.19-118.27,118.27-251.95,337.92-456.19,133.68-118.27-118.27C-58.74,145.51,145.51-58.74,397.46,279.18c251.95-337.92,456.19-133.68,118.27,118.27Z"/>
        <path class="cls-1" d="m214.16,381.41c-181.39-47.7-139.11-215.47,52.84-50.83,131.08-221.25,229.31-89.6,70.74,35.26,184.76-59.52,208.99-1.25-12.95,31.03,47.38,25.23.83-28.43-22.17-15.85,119.66-85.06,212.97-48.78,39.98,12.91,198.34,38.76,176.51,148.83-29.01,57.4-.18,212.69-96.65,187.49-61.12,4.39-108.4,146.09-220.48,94.39-39.43-54.96-184.62,7.58-184.74-34.87-.03-11.01-184.71-23.87-180.23-56.04,1.16-8.34Z"/>
      </g>
      <g>
        <path class="cls-1" d="m279.18,397.46C-58.74,145.51,145.51-58.74,397.46,279.18c251.95-337.92,456.19-133.68,118.27,118.27,337.92,251.95,133.68,456.19-118.27,118.27-251.95,337.92-456.19,133.68-118.27-118.27Z"/>
        <path class="cls-1" d="m580.75,413.5c181.39,47.7,139.11,215.47-52.84,50.83-131.08,221.25-229.31,89.6-70.74-35.26-184.76,59.52-208.99,1.25,12.95-31.03-47.38-25.23-.83,28.43,22.17,15.85-119.66,85.06-212.97,48.78-39.98-12.91-198.34-38.76-176.51-148.83,29.01-57.4.18-212.69,96.65-187.49,61.12-4.39,108.4-146.09,220.48-94.39,39.43,54.96,184.62-7.58,184.74,34.87.03,11.01,184.71,23.87,180.23,56.04-1.16,8.34Z"/>
      </g>
      <g>
        <path class="cls-1" d="m397.46,515.73c-251.95,337.92-456.19,133.68-118.27-118.27C-58.74,145.51,145.51-58.74,397.46,279.18c251.95-337.92,456.19-133.68,118.27,118.27,337.92,251.95,133.68,456.19-118.27,118.27Z"/>
        <path class="cls-1" d="m413.5,214.16c47.7-181.39,215.47-139.11,50.83,52.84,221.25,131.08,89.6,229.31-35.26,70.74,59.52,184.76,1.25,208.99-31.03-12.95-25.23,47.38,28.43.83,15.85-22.17,85.06,119.66,48.78,212.97-12.91,39.98-38.76,198.34-148.83,176.51-57.4-29.01-212.69-.18-187.49-96.65-4.39-61.12-146.09-108.4-94.39-220.48,54.96-39.43-7.58-184.62,34.87-184.74,11.01-.03,23.87-184.71,56.04-180.23,8.34,1.16Z"/>
      </g>
      <g>
        <path class="cls-1" d="m397.46,279.18c251.95-337.92,456.19-133.68,118.27,118.27,337.92,251.95,133.68,456.19-118.27,118.27-251.95,337.92-456.19,133.68-118.27-118.27C-58.74,145.51,145.51-58.74,397.46,279.18Z"/>
        <path class="cls-1" d="m381.41,580.75c-47.7,181.39-215.47,139.11-50.83-52.84-221.25-131.08-89.6-229.31,35.26-70.74-59.52-184.76-1.25-208.99,31.03,12.95,25.23-47.38-28.43-.83-15.85,22.17-85.06-119.66-48.78-212.97,12.91-39.98,38.76-198.34,148.83-176.51,57.4,29.01,212.69.18,187.49,96.65,4.39,61.12,146.09,108.4,94.39,220.48-54.96,39.43,7.58,184.62-34.87,184.74-11.01.03-23.87,184.71-56.04,180.23-8.34-1.16Z"/>
      </g>
      <g>
        <path class="cls-1" d="m481.09,313.82c417.1-60.79,417.1,228.05,0,167.26,60.79,417.1-228.05,417.1-167.26,0-417.1,60.79-417.1-228.05,0-167.26-60.79-417.1,228.05-417.1,167.26,0Z"/>
        <path class="cls-1" d="m253.79,512.86c-156.87,100.2-245.6-48.33,1.42-73.31-58.64-243.47,103.92-219.84,74.95-25.08,93.68-167.07,152.01-143,12.78,31.1,56.46-10-14.4-15.03-26.88,4.47,29.58-139.1,121.22-179.42,37.4-19.14,172.77-107.18,235.18-13.91,20.07,61.1,155.39,156.18,69.35,206.57-40.12,46.32,31.78,185.62-84.04,228.3-66.74-10.98-120.07,141.57-150.17,111.63-7.81-7.76-142.37,119.4-161.95,93.48-5.08-6.72Z"/>
      </g>
      <g>
        <path class="cls-1" d="m481.09,481.09c60.79,417.1-228.05,417.1-167.26,0-417.1,60.79-417.1-228.05,0-167.26-60.79-417.1,228.05-417.1,167.26,0,417.1-60.79,417.1,228.05,0,167.26Z"/>
        <path class="cls-1" d="m282.05,253.79c-100.2-156.87,48.33-245.6,73.31,1.42,243.47-58.64,219.84,103.92,25.08,74.95,167.07,93.68,143,152.01-31.1,12.78,10,56.46,15.03-14.4-4.47-26.88,139.1,29.58,179.42,121.22,19.14,37.4,107.18,172.77,13.91,235.18-61.1,20.07-156.18,155.39-206.57,69.35-46.32-40.12-185.62,31.78-228.3-84.04,10.98-66.74-141.57-120.07-111.63-150.17,7.76-7.81-119.4-142.37-93.48-161.95,6.72-5.08Z"/>
      </g>
      <g>
        <path class="cls-1" d="m313.82,481.09c-417.1,60.79-417.1-228.05,0-167.26-60.79-417.1,228.05-417.1,167.26,0,417.1-60.79,417.1,228.05,0,167.26,60.79,417.1-228.05,417.1-167.26,0Z"/>
        <path class="cls-1" d="m541.13,282.05c156.87-100.2,245.6,48.33-1.42,73.31,58.64,243.47-103.92,219.84-74.95,25.08-93.68,167.07-152.01,143-12.78-31.1-56.46,10,14.4,15.03,26.88-4.47-29.58,139.1-121.22,179.42-37.4,19.14-172.77,107.18-235.18,13.91-20.07-61.1-155.39-156.18-69.35-206.57,40.12-46.32-31.78-185.62,84.04-228.3,66.74,10.98,120.07-141.57,150.17-111.63,7.81,7.76,142.37-119.4,161.95-93.48,5.08,6.72Z"/>
      </g>
      <g>
        <path class="cls-1" d="m313.82,313.82c-60.79-417.1,228.05-417.1,167.26,0,417.1-60.79,417.1,228.05,0,167.26,60.79,417.1-228.05,417.1-167.26,0-417.1,60.79-417.1-228.05,0-167.26Z"/>
        <path class="cls-1" d="m512.86,541.13c100.2,156.87-48.33,245.6-73.31-1.42-243.47,58.64-219.84-103.92-25.08-74.95-167.07-93.68-143-152.01,31.1-12.78-10-56.46-15.03,14.4,4.47,26.88-139.1-29.58-179.42-121.22-19.14-37.4-107.18-172.77-13.91-235.18,61.1-20.07,156.18-155.39,206.57-69.35,46.32,40.12,185.62-31.78,228.3,84.04-10.98,66.74,141.57,120.07,111.63,150.17-7.76,7.81,119.4,142.37,93.48,161.95-6.72,5.08Z"/>
      </g>
    </g>
  </g>
</svg>