<?xml version="1.0" encoding="UTF-8"?>
<svg id="Layer_2" data-name="Layer 2" xmlns="http://www.w3.org/2000/svg" viewBox="0 0 821.38 833.95">
  <defs>
    <style>
      .cls-1 {
        fill: none;
        stroke: #8383ea;
        stroke-miterlimit: 10;
        stroke-width: 2px;
      }
    </style>
  </defs>
  <g id="images">
    <g>
      <path class="cls-1" d="m472.42,418.39c-332.54-80.53-197.04,32.48,25.65,1.44,187.86-156.66,206.61-308.81,16.23-23.57,173.57-419.47,142.7-497.64-10.08-11.22-36.49-493.96-187.1-484.51-23.79,11.29-304.92-207.19-248.42-57.18,3.47,30.22-131.11,126.9,40.53,210.21,29.99,10.69,343.47,102.57,381.38-12.37,12.64-17.21,295.76-125.68,195.53-195.6-21.4-12.31-78.31-240-201.47-161.74-23.88,16.65-270.67,164.15-317.34,418.33,6.1,37.41,25.19,524.16,134.29,467.66,25.29-9.27,214.2,200.3,132.37,42.5-14.37-26.25-176.65-36.45-305.23-46.19-24.93,0-362.12,78.49-327.05,115.5-.44,7.48"/>
      <path class="cls-1" d="m351.62,418.39c332.54-80.53,197.04,32.48-25.65,1.44-187.86-156.66-206.61-308.81-16.23-23.57-173.57-419.47-142.7-497.64,10.08-11.22,36.49-493.96,187.1-484.51,23.79,11.29,304.92-207.19,248.42-57.18-3.47,30.22,131.11,126.9-40.53,210.21-29.99,10.69-343.47,102.57-381.38-12.37-12.64-17.21-295.76-125.68-195.53-195.6,21.4-12.31,78.31-240,201.47-161.74,23.88,16.65,270.67,164.15,317.34,418.33-6.1,37.41-25.19,524.16-134.29,467.66-25.29-9.27-214.2,200.3-132.37,42.5,14.37-26.25,176.65-36.45,305.23-46.19,24.93,0,362.12,78.49,327.05,115.5.44,7.48"/>
      <path class="cls-1" d="m415.57,474.33c80.53-332.54-32.48-197.04-1.44,25.65,156.66,187.86,308.81,206.61,23.57,16.23,419.47,173.57,497.64,142.7,11.22-10.08,493.96-36.49,484.51-187.1-11.29-23.79,207.19-304.92,57.18-248.42-30.22,3.47-126.9-131.11-210.21,40.53-10.69,29.99-102.57,343.47,12.37,381.38,17.21,12.64,125.68,295.76,195.6,195.53,12.31-21.4,240-78.31,161.74-201.47-16.65-23.88-164.15-270.67-418.33-317.34-37.41,6.1-524.16,25.19-467.66,134.29,9.27,25.29-200.3,214.2-42.5,132.37,26.25-14.37,36.45-176.65,46.19-305.23,0-24.93-78.49-362.12-115.5-327.05-7.48-.44"/>
      <path class="cls-1" d="m415.57,353.53c80.53,332.54-32.48,197.04-1.44-25.65,156.66-187.86,308.81-206.61,23.57-16.23,419.47-173.57,497.64-142.7,11.22,10.08,493.96,36.49,484.51,187.1-11.29,23.79,207.19,304.92,57.18,248.42-30.22-3.47-126.9,131.11-210.21-40.53-10.69-29.99-102.57-343.47,12.37-381.38,17.21-12.64,125.68-295.76,195.6-195.53,12.31,21.4,240,78.31,161.74,201.47-16.65,23.88-164.15,270.67-418.33,317.34-37.41-6.1-524.16-25.19-467.66-134.29,9.27-25.29-200.3-214.2-42.5-132.37,26.25,14.37,36.45,176.65,46.19,305.23,0,24.93-78.49,362.12-115.5,327.05-7.48.44"/>
      <path class="cls-1" d="m369.23,460.74c275.43-188.96,99.71-173.06-19.16,17.12-38.71,232.84,55.61,353.69,5.19,28.14,157.22,408.58,234.33,442.02,15.06.81,358.44,312.72,458.25,199.54,8.84-24.8,345.46-79.87,199.44-146-23.82-18.91-13.67-193.2-193.95-130.75-28.77,13.65-332.05,159.57-277.58,267.65,3.24,21.11-136.92,287.24-16.6,265.8,23.84-6.43,208.43,103.57,240.18-38.86,5.12-28.66,58.67-318.23-88.06-530.96-30.77-22.14-405.1-363.59-442.29-246.5-11.33,24.44-309.74-.94-140.3,52.79,28.72,8.4,134.03-109.9,231.84-193.93,17.63-17.63,183.91-322.32,132.94-323.7-4.98-5.6"/>
      <path class="cls-1" d="m455.19,374.78c-188.96,275.43-173.06,99.71,17.12-19.16,232.84-38.71,353.69,55.61,28.14,5.19,408.58,157.22,442.02,234.33.81,15.06,312.72,358.44,199.54,458.25-24.8,8.84-79.87,345.46-146,199.44-18.91-23.82-193.2-13.67-130.75-193.95,13.65-28.77C630.76.07,738.85,54.54,492.3,335.36c287.24-136.92,265.8-16.6-6.43,23.84,103.57,208.43-38.86,240.18-28.66,5.12-318.23,58.67-530.96-88.06-22.14-30.77-363.59-405.1-246.5-442.29,24.44-11.33-.94-309.74,52.79-140.3,8.4,28.72-109.9,134.03-193.93,231.84-17.63,17.63-322.32,183.91-323.7,132.94-5.6-4.98"/>
      <path class="cls-1" d="m369.95,369.83c275.43,188.96,99.71,173.06-19.16-17.12-38.71-232.84,55.61-353.69,5.19-28.14,157.22-408.58,234.33-442.02,15.06-.81,358.44-312.72,458.25-199.54,8.84,24.8,345.46,79.87,199.44,146-23.82,18.91-13.67,193.2-193.95,130.75-28.77-13.65-332.05-159.57-277.58-267.65,3.24-21.11-136.92-287.24-16.6-265.8,23.84,6.43,208.43-103.57,240.18,38.86,5.12,28.66,58.67,318.23-88.06,530.96-30.77,22.14-405.1,363.59-442.29,246.5-11.33-24.44-309.74.94-140.3-52.79,28.72-8.4,134.03,109.9,231.84,193.93,17.63,17.63,183.91,322.32,132.94,323.7-4.98,5.6"/>
      <path class="cls-1" d="m455.92,455.79c-188.96-275.43-173.06-99.71,17.12,19.16,232.84,38.71,353.69-55.61,28.14-5.19,408.58-157.22,442.02-234.33.81-15.06,312.72-358.44,199.54-458.25-24.8-8.84-79.87-345.46-146-199.44-18.91,23.82-193.2,13.67-130.75,193.95,13.65,28.77,159.57,332.05,267.65,277.58,21.11-3.24,287.24,136.92,265.8,16.6-6.43-23.84,103.57-208.43-38.86-240.18-28.66-5.12-318.23-58.67-530.96,88.06-22.14,30.77-363.59,405.1-246.5,442.29,24.44,11.33-.94,309.74,52.79,140.3,8.4-28.72-109.9-134.03-193.93-231.84-17.63-17.63-322.32-183.91-323.7-132.94-5.6,4.98"/>
      <path class="cls-1" d="m451.7,365.46c-275.43,188.96-99.71,173.06,19.16-17.12,38.71-232.84-55.61-353.69-5.19-28.14-157.22-408.58-234.33-442.02-15.06-.81C92.17,6.68-7.65,119.86,441.77,344.2c-345.46,79.87-199.44,146,23.82,18.91,13.67,193.2,193.95,130.75,28.77-13.65,332.05-159.57,277.58-267.65-3.24-21.11,136.92-287.24,16.6-265.8-23.84,6.43-208.43-103.57-240.18,38.86-5.12,28.66-58.67,318.23,88.06,530.96,30.77,22.14,405.1,363.59,442.29,246.5,11.33-24.44,309.74.94,140.3-52.79-28.72-8.4-134.03,109.9-231.84,193.93-17.63,17.63-183.91,322.32-132.94,323.7,4.98,5.6"/>
      <path class="cls-1" d="m365.73,451.43c188.96-275.43,173.06-99.71-17.12,19.16-232.84,38.71-353.69-55.61-28.14-5.19-408.58-157.22-442.02-234.33-.81-15.06C6.95,91.9,120.13-7.92,344.47,441.5c79.87-345.46,146-199.44,18.91,23.82,193.2,13.67,130.75,193.95-13.65,28.77-159.57,332.05-267.65,277.58-21.11-3.24-287.24,136.92-265.8,16.6,6.43-23.84-103.57-208.43,38.86-240.18,28.66-5.12,318.23-58.67,530.96,88.06,22.14,30.77,363.59,405.1,246.5,442.29-24.44,11.33.94,309.74-52.79,140.3-8.4-28.72,109.9-134.03,193.93-231.84,17.63-17.63,322.32-183.91,323.7-132.94,5.6,4.98"/>
      <path class="cls-1" d="m456.06,459.29c-275.43-188.96-99.71-173.06,19.16,17.12,38.71,232.84-55.61,353.69-5.19,28.14-157.22,408.58-234.33,442.02-15.06.81-358.44,312.72-458.25,199.54-8.84-24.8-345.46-79.87-199.44-146,23.82-18.91,13.67-193.2,193.95-130.75,28.77,13.65,332.05,159.57,277.58,267.65-3.24,21.11,136.92,287.24,16.6,265.8-23.84-6.43-208.43,103.57-240.18-38.86-5.12-28.66-58.67-318.23,88.06-530.96,30.77-22.14,405.1-363.59,442.29-246.5,11.33,24.44,309.74-.94,140.3,52.79-28.72,8.4-134.03-109.9-231.84-193.93-17.63-17.63-183.91-322.32-132.94-323.7,4.98-5.6"/>
      <path class="cls-1" d="m370.1,373.32c188.96,275.43,173.06,99.71-17.12-19.16-232.84-38.71-353.69,55.61-28.14,5.19-408.58,157.22-442.02,234.33-.81,15.06-312.72,358.44-199.54,458.25,24.8,8.84,79.87,345.46,146,199.44,18.91-23.82,193.2-13.67,130.75-193.95-13.65-28.77C194.53-1.38,86.44,53.09,332.99,333.9c-287.24-136.92-265.8-16.6,6.43,23.84-103.57,208.43,38.86,240.18,28.66,5.12,318.23,58.67,530.96-88.06,22.14-30.77,363.59-405.1,246.5-442.29-24.44-11.33.94-309.74-52.79-140.3-8.4,28.72,109.9,134.03,193.93,231.84,17.63,17.63,322.32,183.91,323.7,132.94,5.6-4.98"/>
    </g>
  </g>
</svg>