<?xml version="1.0" encoding="UTF-8"?>
<svg id="Layer_2" data-name="Layer 2" xmlns="http://www.w3.org/2000/svg" viewBox="0 0 582.75 555.32">
  <defs>
    <style>
      .cls-1 {
        fill: #626aef;
      }
    </style>
  </defs>
  <g id="images">
    <path class="cls-1" d="m149.96,43.4c-30.02.95-54.5-55.01-111.93-32.05C5.72,24.26-.6,44.29.04,59.35c.65,15.06,8.7,28.92,21.24,37.28,32.45,21.64,55.93-7.74,80.49-2.35,14.94,3.27,27.68,32.1,42.15,74.28,5.7,16.61,27.64,47.01,43.95,57.81,19.57,12.97,35.46,14.08,55.41,5.51,25.41-10.91,53.04-29.03,77.31-43.59,24.27-14.56,85.87-60.69,108.67-76.78,22.8-16.09,80.86-73.53,108.28-14.52,27.43,59.01-47.66,217.14-67.11,265.07-7.86,19.36-42.63,74.98-34.32,112.64,8.31,37.66,50.53,3.36,62.25.39,8.29-2.1,21.08-4.12,25.39,6.47,7.35,18.06-6.79,43.38-15.98,53.72-12.17,13.68-15.93,9.46-20.45,10.88-4.53,1.42-6.08,7.73,4.33,9.08,6.74.87,19.58-4.14,36.68-36.84,17.1-32.69,8.9-76.35-42.37-62.28-51.27,14.06,34.5-158.35,56.5-218,37.1-100.59,42.55-122.17,39.61-156.05-2.48-28.55-14.72-56.53-40.13-61.49-25.41-4.97-46.57,3.65-121.41,75.79-74.83,72.14-92.5,35.2-97.21,24.48-8.64-19.66-.27-26.26-14.68-58.64C294.23,29.82,263.71.11,237.77,0c-58.22-.24-57.79,42.45-87.81,43.4Zm91.7-10.32c60.26,27.36,41.47,70.52,56,96.29,14.53,25.77,35.53,26.15,35.53,26.15-19.58,4.14-55.44,37.24-81.05,42.77-25.61,5.53-46.6,5.15-66.48-15.47-12.14-12.59-24.97-28.96-32.72-56.86-8.35-30.08-1.25-59.17,23.08-72.34,34.85-18.87,45.1-29.87,65.64-20.55Z"/>
  </g>
</svg>