<?xml version="1.0" encoding="UTF-8"?>
<svg id="Layer_2" data-name="Layer 2" xmlns="http://www.w3.org/2000/svg" viewBox="0 0 607.08 605.81">
  <defs>
    <style>
      .cls-1 {
        fill: none;
        stroke: #5e5ed3;
        stroke-miterlimit: 10;
        stroke-width: 2px;
      }
    </style>
  </defs>
  <g id="images">
    <g>
      <path class="cls-1" d="m164.87,255.8c36.42,60.34-12.5,109.26-72.84,72.84-60.34,36.42-109.26-12.5-72.84-72.84-36.42-60.34,12.5-109.26,72.84-72.84,60.34-36.42,109.26,12.5,72.84,72.84Z"/>
      <path class="cls-1" d="m177.52,219.13c36.42,60.34-12.5,109.26-72.84,72.84-60.34,36.42-109.26-12.5-72.84-72.84-36.42-60.34,12.5-109.26,72.84-72.84,60.34-36.42,109.26,12.5,72.84,72.84Z"/>
      <path class="cls-1" d="m193.96,182.45c36.42,60.34-12.5,109.26-72.84,72.84-60.34,36.42-109.26-12.5-72.84-72.84-36.42-60.34,12.5-109.26,72.84-72.84,60.34-36.42,109.26,12.5,72.84,72.84Z"/>
      <path class="cls-1" d="m221.78,150.84c36.42,60.34-12.5,109.26-72.84,72.84-60.34,36.42-109.26-12.5-72.84-72.84-36.42-60.34,12.5-109.26,72.84-72.84,60.34-36.42,109.26,12.5,72.84,72.84Z"/>
      <path class="cls-1" d="m250.87,124.28c36.42,60.34-12.5,109.26-72.84,72.84-60.34,36.42-109.26-12.5-72.84-72.84-36.42-60.34,12.5-109.26,72.84-72.84,60.34-36.42,109.26,12.5,72.84,72.84Z"/>
      <path class="cls-1" d="m288.81,104.05c36.42,60.34-12.5,109.26-72.84,72.84-60.34,36.42-109.26-12.5-72.84-72.84-36.42-60.34,12.5-109.26,72.84-72.84,60.34-36.42,109.26,12.5,72.84,72.84Z"/>
      <path class="cls-1" d="m326.74,91.4c36.42,60.34-12.5,109.26-72.84,72.84-60.34,36.42-109.26-12.5-72.84-72.84-36.42-60.34,12.5-109.26,72.84-72.84,60.34-36.42,109.26,12.5,72.84,72.84Z"/>
      <path class="cls-1" d="m368.48,86.34c36.42,60.34-12.5,109.26-72.84,72.84-60.34,36.42-109.26-12.5-72.84-72.84-36.42-60.34,12.5-109.26,72.84-72.84,60.34-36.42,109.26,12.5,72.84,72.84Z"/>
      <path class="cls-1" d="m421.59,92.66c36.42,60.34-12.5,109.26-72.84,72.84-60.34,36.42-109.26-12.5-72.84-72.84-36.42-60.34,12.5-109.26,72.84-72.84,60.34-36.42,109.26,12.5,72.84,72.84Z"/>
      <path class="cls-1" d="m159.18,301.96c36.42,60.34-12.5,109.26-72.84,72.84-60.34,36.42-109.26-12.5-72.84-72.84-36.42-60.34,12.5-109.26,72.84-72.84,60.34-36.42,109.26,12.5,72.84,72.84Z"/>
      <path class="cls-1" d="m442.2,257.06c-36.42,60.34,12.5,109.26,72.84,72.84,60.34,36.42,109.26-12.5,72.84-72.84,36.42-60.34-12.5-109.26-72.84-72.84-60.34-36.42-109.26,12.5-72.84,72.84Z"/>
      <path class="cls-1" d="m429.56,220.39c-36.42,60.34,12.5,109.26,72.84,72.84,60.34,36.42,109.26-12.5,72.84-72.84,36.42-60.34-12.5-109.26-72.84-72.84-60.34-36.42-109.26,12.5-72.84,72.84Z"/>
      <path class="cls-1" d="m413.12,183.72c-36.42,60.34,12.5,109.26,72.84,72.84,60.34,36.42,109.26-12.5,72.84-72.84,36.42-60.34-12.5-109.26-72.84-72.84-60.34-36.42-109.26,12.5-72.84,72.84Z"/>
      <path class="cls-1" d="m385.3,152.1c-36.42,60.34,12.5,109.26,72.84,72.84,60.34,36.42,109.26-12.5,72.84-72.84,36.42-60.34-12.5-109.26-72.84-72.84-60.34-36.42-109.26,12.5-72.84,72.84Z"/>
      <path class="cls-1" d="m356.21,125.54c-36.42,60.34,12.5,109.26,72.84,72.84,60.34,36.42,109.26-12.5,72.84-72.84,36.42-60.34-12.5-109.26-72.84-72.84-60.34-36.42-109.26,12.5-72.84,72.84Z"/>
      <path class="cls-1" d="m318.27,105.31c-36.42,60.34,12.5,109.26,72.84,72.84,60.34,36.42,109.26-12.5,72.84-72.84,36.42-60.34-12.5-109.26-72.84-72.84-60.34-36.42-109.26,12.5-72.84,72.84Z"/>
      <path class="cls-1" d="m447.89,303.22c-36.42,60.34,12.5,109.26,72.84,72.84,60.34,36.42,109.26-12.5,72.84-72.84,36.42-60.34-12.5-109.26-72.84-72.84-60.34-36.42-109.26,12.5-72.84,72.84Z"/>
      <path class="cls-1" d="m164.87,350.01c36.42-60.34-12.5-109.26-72.84-72.84-60.34-36.42-109.26,12.5-72.84,72.84-36.42,60.34,12.5,109.26,72.84,72.84,60.34,36.42,109.26-12.5,72.84-72.84Z"/>
      <path class="cls-1" d="m177.52,386.69c36.42-60.34-12.5-109.26-72.84-72.84-60.34-36.42-109.26,12.5-72.84,72.84-36.42,60.34,12.5,109.26,72.84,72.84,60.34,36.42,109.26-12.5,72.84-72.84Z"/>
      <path class="cls-1" d="m193.96,423.36c36.42-60.34-12.5-109.26-72.84-72.84-60.34-36.42-109.26,12.5-72.84,72.84-36.42,60.34,12.5,109.26,72.84,72.84,60.34,36.42,109.26-12.5,72.84-72.84Z"/>
      <path class="cls-1" d="m221.78,454.98c36.42-60.34-12.5-109.26-72.84-72.84-60.34-36.42-109.26,12.5-72.84,72.84-36.42,60.34,12.5,109.26,72.84,72.84,60.34,36.42,109.26-12.5,72.84-72.84Z"/>
      <path class="cls-1" d="m250.87,481.53c36.42-60.34-12.5-109.26-72.84-72.84-60.34-36.42-109.26,12.5-72.84,72.84-36.42,60.34,12.5,109.26,72.84,72.84,60.34,36.42,109.26-12.5,72.84-72.84Z"/>
      <path class="cls-1" d="m288.81,501.77c36.42-60.34-12.5-109.26-72.84-72.84-60.34-36.42-109.26,12.5-72.84,72.84-36.42,60.34,12.5,109.26,72.84,72.84,60.34,36.42,109.26-12.5,72.84-72.84Z"/>
      <path class="cls-1" d="m326.74,514.41c36.42-60.34-12.5-109.26-72.84-72.84-60.34-36.42-109.26,12.5-72.84,72.84-36.42,60.34,12.5,109.26,72.84,72.84,60.34,36.42,109.26-12.5,72.84-72.84Z"/>
      <path class="cls-1" d="m368.48,519.47c36.42-60.34-12.5-109.26-72.84-72.84-60.34-36.42-109.26,12.5-72.84,72.84-36.42,60.34,12.5,109.26,72.84,72.84,60.34,36.42,109.26-12.5,72.84-72.84Z"/>
      <path class="cls-1" d="m421.59,513.15c36.42-60.34-12.5-109.26-72.84-72.84-60.34-36.42-109.26,12.5-72.84,72.84-36.42,60.34,12.5,109.26,72.84,72.84,60.34,36.42,109.26-12.5,72.84-72.84Z"/>
      <path class="cls-1" d="m159.18,303.85c36.42-60.34-12.5-109.26-72.84-72.84-60.34-36.42-109.26,12.5-72.84,72.84-36.42,60.34,12.5,109.26,72.84,72.84,60.34,36.42,109.26-12.5,72.84-72.84Z"/>
      <path class="cls-1" d="m442.2,348.75c-36.42-60.34,12.5-109.26,72.84-72.84,60.34-36.42,109.26,12.5,72.84,72.84,36.42,60.34-12.5,109.26-72.84,72.84-60.34,36.42-109.26-12.5-72.84-72.84Z"/>
      <path class="cls-1" d="m429.56,385.42c-36.42-60.34,12.5-109.26,72.84-72.84,60.34-36.42,109.26,12.5,72.84,72.84,36.42,60.34-12.5,109.26-72.84,72.84-60.34,36.42-109.26-12.5-72.84-72.84Z"/>
      <path class="cls-1" d="m413.12,422.1c-36.42-60.34,12.5-109.26,72.84-72.84,60.34-36.42,109.26,12.5,72.84,72.84,36.42,60.34-12.5,109.26-72.84,72.84-60.34,36.42-109.26-12.5-72.84-72.84Z"/>
      <path class="cls-1" d="m385.3,453.71c-36.42-60.34,12.5-109.26,72.84-72.84,60.34-36.42,109.26,12.5,72.84,72.84,36.42,60.34-12.5,109.26-72.84,72.84-60.34,36.42-109.26-12.5-72.84-72.84Z"/>
      <path class="cls-1" d="m356.21,480.27c-36.42-60.34,12.5-109.26,72.84-72.84,60.34-36.42,109.26,12.5,72.84,72.84,36.42,60.34-12.5,109.26-72.84,72.84-60.34,36.42-109.26-12.5-72.84-72.84Z"/>
      <path class="cls-1" d="m318.27,500.5c-36.42-60.34,12.5-109.26,72.84-72.84,60.34-36.42,109.26,12.5,72.84,72.84,36.42,60.34-12.5,109.26-72.84,72.84-60.34,36.42-109.26-12.5-72.84-72.84Z"/>
      <path class="cls-1" d="m447.89,302.59c-36.42-60.34,12.5-109.26,72.84-72.84,60.34-36.42,109.26,12.5,72.84,72.84,36.42,60.34-12.5,109.26-72.84,72.84-60.34,36.42-109.26-12.5-72.84-72.84Z"/>
    </g>
  </g>
</svg>