<?xml version="1.0" encoding="UTF-8"?>
<svg id="Layer_2" data-name="Layer 2" xmlns="http://www.w3.org/2000/svg" viewBox="0 0 1006.22 676.08">
  <defs>
    <style>
      .cls-1, .cls-2 {
        fill: none;
        stroke: #4865cc;
        stroke-linecap: round;
        stroke-linejoin: round;
      }

      .cls-3 {
        fill: #4865cc;
      }

      .cls-2 {
        stroke-width: 31px;
      }
    </style>
  </defs>
  <g id="images">
    <g>
      <path class="cls-2" d="m548.5,370.5c12-22,15-48,12-73-3-23-12-43-26-62-3-3-5-6-7-9-55-67-144-83-226-65-75,17-135,58-185,115-22,26-39,54-55,84-8,15-14,30-20,46-12,31-18,63-26,95,0-12,1-24,3-36,1-5,2-10,3-16,0-2,1-3,2-5,4-25,13-47,21-71,1-3,3-5,4-7,11-29,26-53,44-80,6-9,12-16,19-25,12-14,25-26,38-39,2-1,3-2,5-3,76-69,181-102,282-74,24,7,44,17,65,31,12,9,23,16,32,27,4,6,10,11,14,18,5,9,11,16,15,25,17,36,20,78,2,114-2,3-3,6-5,9-3,4-6,9-10,12,19-21,26-49,25-77-1-10-2-20-5-30-4-11-8-22-14-32-5-8-10-15-15-22-25-31-58-50-95-61-54-16-110-13-162,6-28,10-52,24-78,41-1,1-1,2-2,3-21,15-38,31-54,51-1,0-1,1-2,1-1,1-1,3-2,4-1,0-2,1-2,1-1,2-3,5-4,7-6,9-13,17-15,27h2c18-14,32-30,50-44,1-1,2,0,3-1,82-68,198-97,293-37,2,1,3,1,5,2,7,5,14,10,20,16,2,3,4,5,7,7,33,33,47,82,31,126,5-21,3-43-4-63-5-14-13-26-22-38-21-25-48-41-80-50-21-5-42-8-63-7-33,2-64,10-94,24-98,48-160,148-176,253,1-6,2-11,4-17,4-20,9-39,17-58,6-15,13-29,20-43,15-27,32-50,53-72,13-13,26-25,42-36,14-9,27-17,41-24,23-11,47-18,73-22,66-9,137,12,174,72,18,28,22,62,11,93,28-34,26-84,5-122-28-50-80-79-136-86,0,0-3,0-2,0,63,11,120,46,144,105,14,37,11,82-15,112,7-17,10-34,8-52-1-11-5-22-9-33-14-31-40-54-71-68-9-3-17-7-26-9-14-4-26-5-40-6-18-1-36,1-54,5l-21,6c-25,9-49,21-70,38,25-12,47-25,75-32,12-2,22-5,34-6,47-4,95,6,131,39,8,8,15,16,21,25,7,13,13,26,15,40,1,12,2,24-1,35,0-14-4-27-9-40-2-3-3-6-5-9-17-27-43-45-73-54-44-13-89-5-130,14-59,29-101,81-126,141-7,18-12,36-17,56-1,6-2,11-3,17-1,10-3,20-2,30,4-47,17-91,40-133l9-15c22-34,48-60,82-81,3-2,6-3,9-5,2-1,3-1,5-2,1-1,3-2,4-3,39-18,81-26,123-15,32,9,60,26,76,55,1,3,3,6,5,9,5,11,8,22,8,34-1-20-11-39-24-55-2-2-5-4-7-7-21-19-46-29-74-34-16-2-32-1-48,1-19,3-37,10-55,18-19,9-35,21-51,35-2,2-4,5-7,7-1,1-2,3-3,4s-3,2-4,3c-2,3-4,5-6,8-1,1-3,2-4,3-8,10-15,20-22,31l-9,15c-5,10-10,20-14,30-5,14-9,27-13,41-6,24-9,48-9,72,2-72,27-144,78-198,2-2,5-4,7-7,1-1,3-2,4-3s2-3,3-4c50-44,118-69,182-46,38,14,71,46,74,87-2-21-14-38-27-53-7-7-15-13-24-18s-18-9-28-12c-67-18-135,10-180,60-2,2-5,4-7,6-39,46-62,102-67,161,0-14,5-27,7-41,0-1,2-3,2-4v-3c1-4,3-7,4-11,10-36,27-68,53-96,1-1,1-3,2-4,5-6,11-10,16-16,12-11,23-20,37-28,9-4,17-10,26-13s18-6,28-9c37-9,75-6,108,14,27,16,45,42,50,73-2-20-8-40-21-57-3-4-6-7-9-11-22-24-52-37-82-48-6-3-15-5-14-12s9-9,15-11c8-2,16-3,24-4s16,1,24,1c7,1,15,3,22,5,21,8,41,18,56,37,9,11,14,22,19,34,1,4,2,7,3,11,3,19,1,36-7,53l-2,2c-1,2-1,3-2,5-3,3-5,6-7,9-4,5-8,9-13,10-1,1-3-1-4-3-14-36-39-68-77-79-1-1-2-1-3-2-4-1-9-2-13-3,30,4,58,21,73,49,1,1,0,3,1,4,6,9,6,20,9,30-21-6-43,0-58,15-7,8-13,16-17,26-2,7-4,15-5,23-1,10,1,19,2,28,0,1,2,3,2,4,5,21,18,40,37,49,3,1,6,1,9,0,4-2,7-7,7-12,4-35,4-72,27-101,7,39,38,69,75,82l9,3c77,21,155-16,201-80,1-1,1-2,1-3,2-4,5-7,6-11h-2c-14,11-25,23-40,34-4,2-7,4-10,7-1,1-2,0-3,1-40,27-85,40-133,32-37-7-72-29-87-64,3,5,8,7,13,10,3,2,6,3,9,5,13,7,27,10,42,11,13,1,26,0,39-3,22-6,41-15,59-29,0-1,1-1,1-2,7-5,14-12,18-19h-2c-39,31-85,49-135,38-12-3-22-8-33-13-7-4-13-12-21-15l-18-6c-4-3-9-4-14-6-12-4-24-5-36-3,18-2,35,5,50,13-4,2-7,4-11,7-1,1-2,0-3,1-15,13-26,29-31,49-3,12-4,23-3,35,3,26,11,50,27,72,17,24,38,40,63,55,1,1,3,0,4,1,49,28,104,33,159,24,4-1,7-1,11-2,11-3,22-6,32-11-1-1,2-1,1-2-16-1-32,3-48,4-19,1-38,0-58-3-15-2-28-6-42-10-50-17-96-52-114-103l-3-9c-7-26-6-53,7-77-15,48,8,98,47,129,33,27,72,39,113,42,54,3,106-11,154-38,2-1,3-3,5-4,104-60,161-168,178-284v-6c12-88-2-174-37-254-2-4-3-9-6-13,0,3,1,5,2,8,56,140,57,302-35,434l-3,6c-25,34-51,61-86,85-18,12-35,20-54,29-18,8-37,13-57,17-41,8-81,4-119-11-47-19-89-63-88-116"/>
      <g>
        <path class="cls-3" d="m306.5,522.5c-1-8-8-13-16-13-17,0-28,16-30,32-1,6,0,12,2,18,4,8,6,17,15,21-12-18-17-47,5-60,7-4,17-2,20,6-4,2-9,6-5,9,6,3,15,5,20,0-4,0-8-1-12-2,3,10,14,14,23,13,8-1,14-6,21-10,0,7-7,12-13,16-5,2-10,5-16,4s-12-3-17-7c-5-5-7-13-2-19-6,1-9,7-8,13,2,10,10,16,19,18,4,1,8,0,12,0,9-2,17-7,23-14,5-7,9-14,7-22h-2c-6,9-13,15-22,18-8,2-18,2-23-7,8,11,22,8,31,0,18-17,14-46-3-62-2-2-4-4-7-5h-3c7,10,13,20,14,32,1,10-2,20-9,27-5,6-13,6-21,4,5,1,10,3,15-1,9-8,12-19,9-30-1-2-2-4-3-7-2-4-6-7-9-10-2-1-5-4-7-1,6,10,12,23,7,35-2,5-7,9-12,10,4,0,7-4,9-7,4-7,0-15-5-21s-13-9-20-7v2c2,3,5,4,8,6,7,6,10,16,6,25,2-4,2-8,1-12-4-8-13-12-22-11-17,3-29,19-31,35,3-3,2-7,5-11,2-4,4-7,7-10,5-5,11-7,17-9,9-2,20,4,22,14h0Z"/>
        <path class="cls-1" d="m306.5,522.5c-1-8-8-13-16-13-17,0-28,16-30,32-1,6,0,12,2,18,4,8,6,17,15,21-12-18-17-47,5-60,7-4,17-2,20,6-4,2-9,6-5,9,6,3,15,5,20,0-4,0-8-1-12-2,3,10,14,14,23,13,8-1,14-6,21-10,0,7-7,12-13,16-5,2-10,5-16,4s-12-3-17-7c-5-5-7-13-2-19-6,1-9,7-8,13,2,10,10,16,19,18,4,1,8,0,12,0,9-2,17-7,23-14,5-7,9-14,7-22h-2c-6,9-13,15-22,18-8,2-18,2-23-7,8,11,22,8,31,0,18-17,14-46-3-62-2-2-4-4-7-5h-3c7,10,13,20,14,32,1,10-2,20-9,27-5,6-13,6-21,4,5,1,10,3,15-1,9-8,12-19,9-30-1-2-2-4-3-7-2-4-6-7-9-10-2-1-5-4-7-1,6,10,12,23,7,35-2,5-7,9-12,10,4,0,7-4,9-7,4-7,0-15-5-21s-13-9-20-7v2c2,3,5,4,8,6,7,6,10,16,6,25,2-4,2-8,1-12-4-8-13-12-22-11-17,3-29,19-31,35,3-3,2-7,5-11,2-4,4-7,7-10,5-5,11-7,17-9,9-2,20,4,22,14h0Z"/>
      </g>
      <g>
        <path class="cls-3" d="m722.5,121.5c-7,1-15,5-18,12-9,19,2,40,18,53,10,8,22,10,33,15,1,1-2,0-2,2-10,0-19-1-28-5-6-3-12-6-18-11-7-6-12-12-16-20-4-10-7-21-4-33,4-15,19-29,36-24-7-12-22-15-35-10-12,5-21,16-27,28-6,13-4,27-6,40-1-1-2-1-2-2v-3c-8-22-2-48,14-65,13-13,32-20,50-13,11,4,20,17,16,29,8-1,15-5,18-12,3-9,5-19,1-28-5-12-13-22-24-29-9-5-18-7-27-12,16-4,31,4,44,12,5,4,10,9,14,14,11,15,14,35,5,52-6,11-19,18-31,14,8,14,25,15,38,8,23-13,30-41,29-66,0-1,1,2,2,1,11,31-2,71-35,82-11,4-23,4-33-2-9-6-14-16-12-27h0Z"/>
        <path class="cls-1" d="m722.5,121.5c-7,1-15,5-18,12-9,19,2,40,18,53,10,8,22,10,33,15,1,1-2,0-2,2-10,0-19-1-28-5-6-3-12-6-18-11-7-6-12-12-16-20-4-10-7-21-4-33,4-15,19-29,36-24-7-12-22-15-35-10-12,5-21,16-27,28-6,13-4,27-6,40-1-1-2-1-2-2v-3c-8-22-2-48,14-65,13-13,32-20,50-13,11,4,20,17,16,29,8-1,15-5,18-12,3-9,5-19,1-28-5-12-13-22-24-29-9-5-18-7-27-12,16-4,31,4,44,12,5,4,10,9,14,14,11,15,14,35,5,52-6,11-19,18-31,14,8,14,25,15,38,8,23-13,30-41,29-66,0-1,1,2,2,1,11,31-2,71-35,82-11,4-23,4-33-2-9-6-14-16-12-27h0Z"/>
      </g>
      <g>
        <path class="cls-3" d="m750.5,171.5h-3c-3-2-5-5-7-5-8-3-13,7-14,14-1,13,8,24,17,32-10-5-16-14-20-24-3-11,0-23,10-30,4-3,9-2,13-1-11-4-22,6-24,17-1,10,1,20,7,29-9-8-11-20-10-31,1-8,5-14,11-19,2-1,3-2,5-3,10-5,26,1,24,14-1,1,0,3-2,3-3,1-3-1-6-2,5,8,17,10,24,2,14-15,5-37-9-49,9,5,16,13,19,22,4,14,0,31-14,38-7,3-17,1-21-7h0Z"/>
        <path class="cls-1" d="m750.5,171.5h-3c-3-2-5-5-7-5-8-3-13,7-14,14-1,13,8,24,17,32-10-5-16-14-20-24-3-11,0-23,10-30,4-3,9-2,13-1-11-4-22,6-24,17-1,10,1,20,7,29-9-8-11-20-10-31,1-8,5-14,11-19,2-1,3-2,5-3,10-5,26,1,24,14-1,1,0,3-2,3-3,1-3-1-6-2,5,8,17,10,24,2,14-15,5-37-9-49,9,5,16,13,19,22,4,14,0,31-14,38-7,3-17,1-21-7h0Z"/>
      </g>
      <g>
        <path class="cls-3" d="m719.5,163.5c9,4,16-5,18-13,3-21-17-36-36-36,18,0,37,16,36,35,0,4-2,8-5,11-4,3-11,6-15,1,0,2,1,4-1,5-5,0-10-1-15,0-1,0-1-1-1-2,2-4,5-8,10-10-6-4-14-1-19,5s-7,14-6,22c2,16,16,30,32,31-12-7-22-18-24-32-1-10,5-22,17-22-5-1-10,4-12,8-3,7-1,14,3,20,4,5,9,9,15,7v-4c-7-8-10-19-4-28-2,4-3,9-1,13,4,6,11,8,17,7,12-2,22-13,21-26,0-1-1-1-1-2-5,4-7,11-13,14s-14,3-18-4c2,6,10,6,15,4s7-7,9-12c7-25-17-45-40-45,0,0-1,1-2,1,13,1,25,6,33,17,6,8,9,19,4,28-4,5-10,10-17,7h0Z"/>
        <path class="cls-1" d="m719.5,163.5c9,4,16-5,18-13,3-21-17-36-36-36,18,0,37,16,36,35,0,4-2,8-5,11-4,3-11,6-15,1,0,2,1,4-1,5-5,0-10-1-15,0-1,0-1-1-1-2,2-4,5-8,10-10-6-4-14-1-19,5s-7,14-6,22c2,16,16,30,32,31-12-7-22-18-24-32-1-10,5-22,17-22-5-1-10,4-12,8-3,7-1,14,3,20,4,5,9,9,15,7v-4c-7-8-10-19-4-28-2,4-3,9-1,13,4,6,11,8,17,7,12-2,22-13,21-26,0-1-1-1-1-2-5,4-7,11-13,14s-14,3-18-4c2,6,10,6,15,4s7-7,9-12c7-25-17-45-40-45,0,0-1,1-2,1,13,1,25,6,33,17,6,8,9,19,4,28-4,5-10,10-17,7h0Z"/>
      </g>
    </g>
  </g>
</svg>