<?xml version="1.0" encoding="UTF-8"?>
<svg id="Layer_2" data-name="Layer 2" xmlns="http://www.w3.org/2000/svg" viewBox="0 0 890.78 787.54">
  <defs>
    <style>
      .cls-1, .cls-2 {
        fill: none;
        stroke: #4865cc;
        stroke-linecap: round;
        stroke-linejoin: round;
      }

      .cls-3 {
        fill: #4865cc;
      }

      .cls-2 {
        stroke-width: 31px;
      }
    </style>
  </defs>
  <g id="images">
    <g>
      <path class="cls-2" d="m405.93,406.79c-480.64,393.05-559.39,304.9.99-10.27-376.41,217.31-332.26,458.03,12.7,15.67-278.31,477.03-241.93,453.61,5.59-10.05-237.66,207.49-205.9,202.24,5.71-8.36-132.62,254.11-174.31,429.61,5.74,18.94-84.49,477.98-62.31,479.91,3.73,1-45.18,478.13-34.99,475.31,2.13-.58-8.52,459.91,3.28,437.01,1.78-5.73-22.07,325.51-172.97,97.01-5.08-26.08,28.42,34.06,51.58,266.28,13.92,6.34,166.73,53.68,200.88-160.82,2.76-31.1,74.52-324.67-6.8-342.77-15.46-4.78-117.8-234.41-95.19-117.4,1.51,18.01,24.85,7.66,123.56,78.37,20.17,5.14,322.72-73.99,445.92-243.39,20.31-24.06,502.04-375.55,544.9-504.47.69-22.93"/>
      <g>
        <path class="cls-3" d="m237.73,532.55c-26.92,76.65,21.07,77.42,4.01-3.35,26.76.9-23.42-28.41-1.55-6.43,23.39-61.53,48.56-14.57,4.08,3.48,63.14,15.85,14.93-91.48-2.91-6.77,17.85-84.71-46.17-52.4-4.8,2.42-41.37-54.82-52.09,4.23-.8,4.42-51.29-.2-29.87,40.03,1.6,3.01-31.48,37.01-26.55,79.86.37,3.21Z"/>
        <path class="cls-1" d="m237.73,532.55c-26.92,76.65,21.07,77.42,4.01-3.35,26.76.9-23.42-28.41-1.55-6.43,23.39-61.53,48.56-14.57,4.08,3.48,63.14,15.85,14.93-91.48-2.91-6.77,17.85-84.71-46.17-52.4-4.8,2.42-41.37-54.82-52.09,4.23-.8,4.42-51.29-.2-29.87,40.03,1.6,3.01-31.48,37.01-26.55,79.86.37,3.21Z"/>
      </g>
      <g>
        <path class="cls-3" d="m667.13,117.16c103.21,27.71,86.23,92.58-2.84,10.85-3.76,120.82-62.03,87.66-9.75-5.55-103.21-27.71-86.23-92.58,2.84-10.85,3.76-120.82,62.03-87.66,9.75,5.55Z"/>
        <path class="cls-1" d="m667.13,117.16c103.21,27.71,86.23,92.58-2.84,10.85-3.76,120.82-62.03,87.66-9.75-5.55-103.21-27.71-86.23-92.58,2.84-10.85,3.76-120.82,62.03-87.66,9.75,5.55Z"/>
      </g>
      <g>
        <path class="cls-3" d="m690.54,162.87c18.94,3.22-25.74,105.27-3.93,14.34-21.81,90.93-15.47-35.22.48-9.45-15.95-25.77,30.14-91.05,3.45-4.89Z"/>
        <path class="cls-1" d="m690.54,162.87c18.94,3.22-25.74,105.27-3.93,14.34-21.81,90.93-15.47-35.22.48-9.45-15.95-25.77,30.14-91.05,3.45-4.89Z"/>
      </g>
      <g>
        <path class="cls-3" d="m644.6,162.32c-42.84-61.2-30.05-38.08,1.99,2.62-4.49-17.08,33.4,14.73,2.17,8.28,8.56,73.29,43.91,23.94,2.65-3.7,41.26,27.64,33.04-28.66-.62-4.22,33.66-24.44-18.51-63.68-3.91-2.94-14.6-60.74-45.13-61.24-2.29-.04Z"/>
        <path class="cls-1" d="m644.6,162.32c-42.84-61.2-30.05-38.08,1.99,2.62-4.49-17.08,33.4,14.73,2.17,8.28,8.56,73.29,43.91,23.94,2.65-3.7,41.26,27.64,33.04-28.66-.62-4.22,33.66-24.44-18.51-63.68-3.91-2.94-14.6-60.74-45.13-61.24-2.29-.04Z"/>
      </g>
    </g>
  </g>
</svg>