<?xml version="1.0" encoding="UTF-8"?>
<svg id="Layer_2" data-name="Layer 2" xmlns="http://www.w3.org/2000/svg" viewBox="0 0 892.62 759.39">
  <defs>
    <style>
      .cls-1 {
        fill: #086b53;
      }
    </style>
  </defs>
  <g id="images">
    <path class="cls-1" d="m447.38,374.56c45.02-54.21,97.12-215.99-10.08-40.69-146.75-456.34-320.53-430.49-51.22-10.24C-42.7-19.47-197.62,93.88,359.58,382.07c-489.09,219.95-314.1,410.55,62.58,64.2,142.51,467.22,427.36,372.14,92.83-25.69,528.23,189.37,479.43,148.67-4.02-8.18,397.28,250.34,281.4,320.17-40.3,13-12.04,216.22-10.72,77.39-27.71-29.98,16.22,52.27,21.36.07,1.79-13.45,36.59-26.84,43.18-43.29,2.64-7.4Z"/>
  </g>
</svg>