<?xml version="1.0" encoding="UTF-8"?>
<svg id="Layer_2" data-name="Layer 2" xmlns="http://www.w3.org/2000/svg" viewBox="0 0 578.01 832.73">
  <defs>
    <style>
      .cls-1 {
        fill: #0d062d;
      }

      .cls-2 {
        fill: none;
        stroke: #5955d8;
        stroke-miterlimit: 10;
        stroke-width: 2px;
      }
    </style>
  </defs>
  <g id="images">
    <g>
      <path class="cls-1" d="m292.72,416.85c-386.34,45.32-391.25-34.35-.92.92-207.41-49.03-186.46-112.95-1.01,1.27-220.17-211.6-229.04-343.7-.89,3.05-8.81-560.84,140.64-562.22-3.86.44,353.03-429.49,421.9-308.04-1.47-3.47,354.5-26.73,228.87,60.21,2.88-2.46,114.73,68.38,265.08,184.23-1.2-2.9,191.53,501.85,49.89,546.82,2.56-2.25-76.57,569.01-170.98,551.26,2.07,1.18-249.76,343.6-179.45,280.13-.47,1.89-143.07,245.32-95.87,241.39-.67.9-110.94,122.47-189.61,112.64,1.21.67-245.9,123.77-280.61,137.54.94-.16-333.38,127.86-357.26,117.68.69.44-389.15,64.48-386.2,45.79.13.48Z"/>
      <path class="cls-2" d="m292.72,416.85c-386.34,45.32-391.25-34.35-.92.92-207.41-49.03-186.46-112.95-1.01,1.27-220.17-211.6-229.04-343.7-.89,3.05-8.81-560.84,140.64-562.22-3.86.44,353.03-429.49,421.9-308.04-1.47-3.47,354.5-26.73,228.87,60.21,2.88-2.46,114.73,68.38,265.08,184.23-1.2-2.9,191.53,501.85,49.89,546.82,2.56-2.25-76.57,569.01-170.98,551.26,2.07,1.18-249.76,343.6-179.45,280.13-.47,1.89-143.07,245.32-95.87,241.39-.67.9-110.94,122.47-189.61,112.64,1.21.67-245.9,123.77-280.61,137.54.94-.16-333.38,127.86-357.26,117.68.69.44-389.15,64.48-386.2,45.79.13.48Z"/>
    </g>
  </g>
</svg>