<?xml version="1.0" encoding="UTF-8"?>
<svg id="Layer_2" data-name="Layer 2" xmlns="http://www.w3.org/2000/svg" viewBox="0 0 678.35 636.16">
  <defs>
    <style>
      .cls-1 {
        fill: #5250b1;
      }
    </style>
  </defs>
  <g id="images">
    <path class="cls-1" d="m281.89,423.91c-40.14,76.5,103.79,170.98,151.48,44.16,149.38,97.74,209.6,65.99,79.72-44.16,131.88,42.85,100.13,27.61-42.49-15.69,56.27,86.48,43.57,124.58-67.16,34.31-11.19,90.27-110.25,62.33-113.15-41.61-33.93,59.49-18.69-104.34,89.06-64.97,171.65,62.23,219.91,54.61,137.97,1.46,207.67-44.97,221.64-176.48,0-166.01,46.38-210.1-153.01-241.85-232.87-12.11-156.36-8.76-157.63,109.35-67.89,145.27-87.2,12.34-85.93,110.13,47.45,106.58-53.37,67.05-121.95,202.94-94.9,65.7-220.09,94.06-215.01,152.48-44.53,32.85-142.54,160.27-75.23,179.32,94.9-7.3-2.49,82.48,22.27-1.97,62.41-78.47Z"/>
  </g>
</svg>