<?xml version="1.0" encoding="UTF-8"?>
<svg id="Layer_2" data-name="Layer 2" xmlns="http://www.w3.org/2000/svg" viewBox="0 0 445.51 636.55">
  <defs>
    <style>
      .cls-1 {
        fill: #0d062d;
      }

      .cls-2 {
        fill: none;
        stroke: #5955d8;
        stroke-miterlimit: 10;
        stroke-width: 2px;
      }
    </style>
  </defs>
  <g id="images">
    <g>
      <path class="cls-1" d="m86.95,335.67c-114.39,10.34-117.61-41.9,31.24-31.24-28.88-19.69-15.14-61.6,34.31-43.13-72.22-82.34-78.04-168.98,30.12-103.9,35.69-205.48,133.7-206.39,131.17-15.1,139.3-103.95,184.46-24.3,50.06,118.02,89.23,39.9,6.84,96.92-97.94,83.59,31.81,17.07,130.41,93.05,40.78,98.62,40.61,200.83-52.28,230.33-86.98,76.63-46.56,166.77-108.48,155.13-70.29-40.08-88.5,59.79-42.39,18.16,15.98-64.25-34.82,60.82-3.86,58.24,22.72-30.53-36.9,11.37-88.5,4.92-41.18-22.72-83.44,35.38-106.2,44.41-31.82,5.32-108.37,32.64-124.03,25.96-23.6-14.97-120.89,6.33-118.95-5.92-4.57-16.27Z"/>
      <path class="cls-2" d="m86.95,335.67c-114.39,10.34-117.61-41.9,31.24-31.24-28.88-19.69-15.14-61.6,34.31-43.13-72.22-82.34-78.04-168.98,30.12-103.9,35.69-205.48,133.7-206.39,131.17-15.1,139.3-103.95,184.46-24.3,50.06,118.02,89.23,39.9,6.84,96.92-97.94,83.59,31.81,17.07,130.41,93.05,40.78,98.62,40.61,200.83-52.28,230.33-86.98,76.63-46.56,166.77-108.48,155.13-70.29-40.08-88.5,59.79-42.39,18.16,15.98-64.25-34.82,60.82-3.86,58.24,22.72-30.53-36.9,11.37-88.5,4.92-41.18-22.72-83.44,35.38-106.2,44.41-31.82,5.32-108.37,32.64-124.03,25.96-23.6-14.97-120.89,6.33-118.95-5.92-4.57-16.27Z"/>
    </g>
  </g>
</svg>