<?xml version="1.0" encoding="UTF-8"?>
<svg id="Layer_2" data-name="Layer 2" xmlns="http://www.w3.org/2000/svg" viewBox="0 0 696.61 971.26">
  <defs>
    <style>
      .cls-1 {
        fill: #21196d;
      }
    </style>
  </defs>
  <g id="images">
    <path class="cls-1" d="m372.91,524.36c119.46,209.87,148.57,294.26-7.41,19.4,80.29,312.41,47.44,332.06-12.92-.2-36.33,290.4-46.2,210.12-9.52-19.06-39.89,192-43.8,132.94,2.57-20.83-3.07,47.24,20.18-5.4,17.64-21.91,134.46-47.11,169.45-40.56,22.46-3.74,227.46-33.35,315.82,20.85,25.31,15.36,351.51,86.72,404.45,144.43,12.44,31.32,381.49,310.18,340.28,377.94-8.95,29.11,329.65,382.25,258.09,475.9-25.51,22.79,125.57,518.86,52.45,531.83-35.81,5.03-57.64,498.34-156.28,448.74-37.97-19.11-252.52,355.24-304.16,267.35-17.9-34.76-273.8,153.5-389.9,64.85-18.26-33.81-381.47-.52-363.95-33.02,4.15-14.41-341.16-35.59-290.97-77.76,10.84-13.48C1.24,333.63-10.65,235.36,307.02,440.64c-139.96-260.09-162.13-260.04,13.21-12.58-142.66-350.86-108.75-412.89,15.23-18.58-33.02-400.46,18.68-384.12,17.74-2.44,29.61-438.9,62.12-515.09,16.07-15.82,154.43-488.55,204.12-449.12,19,5.63,216.17-473.57,220.5-480.43,4.39-5.1,231.58-506.91,263.06-535.79,9.52-5.04,294.75-504.79,303.94-484.23,2.86,8.14,277.39-457.12,270.47-483.62-7.15,5.94,225.26-397.09,170.1-426.68-14.98,1.6,159.45-441.47,121.7-454.19-11.72-3.39,87.24-454.8,56.63-446.05-9.8,7.91,50.63-367.97,35.59-346.45-10.08,10.79-35.23-350.65-47.61-367.31-13.31.07-95.96-339.8-116.73-325.58-9.75,14.17-126.35-217.64-162.86-188.98-11.24,15.23-200.51-192.21-257.89-193.67-13.65,8.07-252.25-109.38-241.01-89.74-1.64,15.64-274.42-40.38-280.53-15.45-8.26,13.11-328.85,21.4-326.47,59.8,1.86,16.43-253.17,123.2-205.42,207.89,11.59,28.56-241.91,289.11-205.41,354.18,13.33,25.42-99.23,408.48,49.63,531.8,57.89,14.52,302.29,373.46,317.39,280.39,28.69-33.23,308.61,225.8,304.51,133.92-8.65-29.87,192.69,59.83,125.52,75.08-26.44-.34,74.4,144.63,72.32,179.43-6.5,11.04,78.82,168.39,116.91,186.54,7.69,7.85Z"/>
  </g>
</svg>