<?xml version="1.0" encoding="UTF-8"?>
<svg id="Layer_2" data-name="Layer 2" xmlns="http://www.w3.org/2000/svg" viewBox="0 0 628.64 526.77">
  <defs>
    <style>
      .cls-1 {
        fill: #086b53;
      }
    </style>
  </defs>
  <g id="images">
    <path class="cls-1" d="m325.84,245.55c19.5-20.51,52.06-121.62-25.2-101.74C219.18-51.72,110.57-35.56,172.59,118.21,10.9,12.66-85.93,83.5,106.35,264.32c-149.7,136.77-40.34,255.89,156.44,160.51,127.71,170.93,305.74,111.51,232.08-64.23,194.73,45.45,164.23,20.01-10.06-20.46,120.43,98.9,48.01,142.54-100.76,32.49-59.82,53.2-59-33.57-69.27-74.95,9.79,6.95,13-25.68,4.46-33.63,19.17-17.27,23.29-27.55,6.59-18.49Z"/>
  </g>
</svg>