<?xml version="1.0" encoding="UTF-8"?>
<svg id="Layer_2" data-name="Layer 2" xmlns="http://www.w3.org/2000/svg" viewBox="0 0 591.84 458.73">
  <defs>
    <style>
      .cls-1 {
        fill: #37c48c;
      }
    </style>
  </defs>
  <g id="images">
    <path class="cls-1" d="m140.13,49.54s11.08-.74,22.9-9.6c11.82-8.87,29.55-29.55,42.85-16.25s4.43,32.51-8.87,41.37c-13.3,8.87-11.82,10.34-7.39,7.39s69.44-56.15,100.47-39.89c31.03,16.25-38.8,38.23-46,41.28-7.2,3.05-81.07,38.51-55.95,51.81s131.5-28.07,155.14-33.98c23.64-5.91,63.53-13.3,73.88,2.96s-1.48,26.6-11.82,32.51-29.55,13.3-44.33,14.78c-14.78,1.48-36.94,8.87-11.82,19.21,25.12,10.34,63.53-23.64,75.35-31.03,11.82-7.39,45.8-28.07,57.62-4.43,11.82,23.64-20.69,41.37-36.94,48.76-16.25,7.39-50.24,14.78-17.73,20.69,32.51,5.91,50.24-28.07,54.67-33.98,4.43-5.91,22.16-26.6,45.8-16.25,23.64,10.34,11.82,33.98-4.43,41.37-16.25,7.39-31.03,16.25-11.82,25.12,19.21,8.87,35.46-7.39,42.85,23.64,7.39,31.03-39.89,32.51-50.24,23.64-10.34-8.87-25.29-24.57-22.25,4.71,3.04,29.28,25.2,21.89,28.16,20.41,2.96-1.48,51.71-26.6,65.01-25.12,13.3,1.48,14.78,4.43,16.25,13.3,1.48,8.87-1.48,29.55-20.69,35.46-19.21,5.91-36.94,7.39-36.94,7.39,0,0-2.96,33.98-35.46,33.98s-67.97-59.1-57.62-98.99c0,0-31.03-5.91-10.34,41.37s23.64,57.62,8.87,76.83c-14.78,19.21-31.03,28.07-47.28,17.73-16.25-10.34-28.07-33.98-11.82-44.33,16.25-10.34,20.69-10.34,17.73-29.55-2.96-19.21-14.78-42.85-11.82-53.19,0,0-13.3-4.43-16.25,32.51-2.96,36.94-1.48,32.51-8.87,48.76-7.39,16.25,0,28.07,7.39,36.94,7.39,8.87,22.16,31.03,11.82,47.28s-42.85-1.48-39.89-32.51c0,0-1.48,4.43-4.43,4.43,0,0,16.25,45.8-8.87,60.58-25.12,14.78-29.55-51.71-22.16-67.97,0,0,16.25-45.8,4.43-56.15-11.82-10.34-22.16-11.82-29.55-10.34s-73.88,33.98-90.13,4.43,10.34-39.89,39.89-38.42c29.55,1.48,125.59-13.3,118.2-63.53s-67.97-14.78-76.83-8.87c-8.87,5.91-54.67,35.46-63.53,47.28-8.87,11.82-32.51,48.76-79.79,28.07s-19.21-41.37-14.78-44.33c4.43-2.96,16.25-5.91,23.64-5.91s48.76,1.48,66.49-31.03c17.73-32.51-17.73-41.37-29.55-38.42s-19.21,8.87-32.51,17.73c-13.3,8.87-98.99,76.83-118.2,25.12-19.21-51.71,100.47-54.67,91.61-73.88-8.87-19.21-36.69,19.42-93.7-30.92-57.01-50.34,21.3-59.21,33.12-34.09,11.82,25.12,44.33,19.21,39.89-10.34C89.15,35.5,118.7-1.43,137.91.04c19.21,1.48,33.98,19.21,2.22,49.5Z"/>
  </g>
</svg>