<?xml version="1.0" encoding="UTF-8"?>
<svg id="Layer_2" data-name="Layer 2" xmlns="http://www.w3.org/2000/svg" viewBox="0 0 613.31 681">
  <defs>
    <style>
      .cls-1 {
        fill: #626aef;
      }
    </style>
  </defs>
  <g id="images">
    <path class="cls-1" d="m366.41,366c39-17,62-56,72-97,6-28,5-53-1-81-7-33-21-60-40-87-3-3-5-6-7-9C352.41,46,303.41,15,247.41,0c52,15,98,45,134,87,30,36,49,78,52,124,2,37-8,75-32,104,27-47,25-105,4-154-5-10-10-20-16-30-14-21-29-39-49-55-15-12-30-22-47-31-19-9-37-16-57-22-3-1-5,0-8-1-38-11-77-11-116-7C72.41,20,36.41,31,.41,49c-1,1,0,1,1,1C88.41,11,189.41,4,276.41,45c65,31,118,86,131,160,5,32,2,63-13,91,10-20,13-43,13-66-1-18-6-35-11-53-4-13-11-23-17-35-3-4-6-8-9-13-22-31-48-51-80-69-20-11-41-19-63-25-40-10-79-11-119-6-2,0-5,2-7,2-14,1-28,5-41,9,68-19,142-18,207,11,64,29,119,81,133,154,7,36,2,72-17,102,25-40,26-90,9-134-2-4-4-7-5-11-1-2-2-3-3-5s-1-4-2-6c-29-54-79-90-133-114,44,9,80,35,112,66,17,18,29,39,40,61,28,60,20,140-35,181,4-4,11-6,15-11l9-9c53-62,38-155-11-213,4,7,9,14,12,21,2,2,3,5,5,7,1,2,1,4,2,6,26,49,29,108,1,157-14,23-36,42-62,46,20-8,37-22,47-41,11-22,19-46,15-71-3,16-4,31-11,46-4,9-8,18-14,26-16,20-36,35-61,38,18-4,34-13,48-26h2c-16,23-44,35-71,33,8,12,17,22,26,33,3,4,3,10-2,12-6,1-11,0-16-2h-3c-10-6-20-12-26-23,1,31,21,56,47,72,20,12,40,14,62,19,0,0,0,2-1,2-44,7-93-12-113-52,33,70,127,77,190,44,6-3,11-6,17-9,45-27,76-67,97-112-14,41-41,76-75,105-40,31-88,50-138,46-36-3-71-17-95-43,13,31,41,53,71,66,15,6,31,10,47,13,16,2,30,2,46,5,2,1,5,2,4,5-2,4-6,4-9,7h-2c-55,25-120,18-172-17-2-2-4-3-7-5-10-8-19-16-27-25-1-1-1-3-2-4-17-18-26-41-30-65-4-29,3-59,23-81-17,7-30,20-40,36-12,19-17,39-20,60,0,4,0,9-1,13-1,14,2,27,1,41,0,1-2,2-2,3-1-1-3-1-3-3,0-1-1-1-2-1v-2c-10-14-13-29-15-45-3-20-1-40,4-59l3-9c11-30,34-54,64-66-3,2-7,2-11,3s-7,2-10,4-6,3-9,5c-8,6-16,10-22,18-2,3-4,6-7,9-1,1-2,3-3,5-1,1-3,2-4,4-29,46-28,101-10,150,10,26,24,49,43,70,10,10,20,22,33,27-24-27-46-56-59-90-1-3-1-6-3-9-1-2-1-3-1-5-1-1-1-3-2-4-17-58-5-127,46-163-27,21-43,54-46,88-1,11,0,22,0,33,1,13,4,25,8,38,7,21,17,41,31,59,6,7,10,15,18,21,5,3,7,8,11,11,18,15,35,28,56,39,2,1,4,1,6,2,7,6,15,7,23,10-5-2-10-4-15-7-12-5-23-11-35-19s-22-16-32-25c-10-10-20-20-29-32-6-9-11-16-16-25-1-2-1-4-2-6-8-13-11-27-16-41-1-4-2-9-3-13-7-44,1-91,34-122-6,3-9,8-13,13-2,4-4,7-7,11-47,80-7,176,61,230,3,2,6,4,9,7,40,30,85,47,133,56-64-5-124-32-170-78-24-25-44-52-53-86l-3-6c-16-54-9-116,33-156-38,30-51,82-46,129,3,28,12,54,26,79,17,30,38,54,66,75,37,28,77,45,120,55-69-14-132-49-175-109l-3-6c-52-70-56-177,14-232-11,7-21,16-28,28-2,4-5,7-7,11-35,65-21,144,24,202l3,6c13,16,26,30,42,43,12,10,24,18,37,26,10,6,19,10,29,14,7,3,13,7,20,9s15,4,22,7c-29-8-56-20-83-38-2-1-3-1-5-2-29-20-51-41-71-70-2-4-4-7-7-11-31-52-42-113-20-169,9-21,22-40,40-54-59,49-61,138-27,203,9,17,19,31,31,47,7,9,15,16,23,24,23,20,47,37,75,48,1,1,3,2,4,3,13,5,26,10,40,13,1,0,2,1,3,2,3,1,5,1,8,1,17,4,33,7,50,8-73-10-144-40-194-98-26-31-43-65-50-105-6-35-2-69,15-100,2-4,5-7,7-11,5-7,10-13,17-18-25,30-32,70-28,108,6,47,29,87,62,120,42,40,96,65,153,70-73-15-143-52-182-120-10-17-16-35-21-54-5-20-5-38-3-58,5-31,19-61,44-81-16,5-28,16-38,29-10,14-15,29-18,46-2,16-2,32,2,48v4c7,24,17,46,35,63,12,11,25,22,42,20,6-1,8-7,9-12,1-13-4-26-6-39-4-30-6-61,6-88,5,51,44,92,91,110,12,4,23,7,35,10,22,5,43,3,65,0,96-13,175-86,205-175-4,9-9,18-14,27-6,10-12,19-19,29-10,13-19,24-30,35-24,23-50,41-81,54-52,21-112,25-163-5-4-3-7-5-11-7-9-6-15-13-22-21,14,13,31,23,49,30,19,7,39,9,59,10,53,0,102-23,142-59l11-11c75-77,98-191,71-291,15,87,4,178-52,253-23,31-50,54-84,72-52,26-118,30-167-4,37,22,83,24,124,12,19-6,35-14,52-24,12-8,22-17,33-26,62-60,91-147,80-231,10,114-51,243-171,274-4,1-9,2-13,3-50,9-106-6-131-52,7,9,17,14,27,20,2,1,5,2,7,3,24,8,52,11,75-1v-2c-11-3-22-3-33-5-10-2-20-6-29-10-13-7-25-16-33-28,48,50,131,29,175-16-2,3-4,4-7,6-1,1-1,2-2,3l-12,9c-39,28-90,35-130,9,52,24,111-2,147-43,30-35,44-78,47-122,1-14,0-28-3-43-1-8,0-16-5-23,1,20,2,39,1,59-3,35-13,67-33,98-2,3-5,6-7,9-25,32-61,55-102,55,28-6,52-21,71-43,3-4,6-7,9-11,30-42,38-89,32-138-7-49-28-94-62-131-1-1-1,0-1,1,1,3,3,4,5,7,46,65,65,146,31,218-2,3-4,6-5,9-15,28-39,49-70,58h0Zm63-11c2,12,9,25,2,37-5,7-11,12-19,15-6,2-12,3-19,2s-14-7-14-15c-25,20-56,29-86,38,0,1,1,1,2,1,23-6,45-14,64-27-17,9-36,13-56,10-4-1-7-2-10-4-3-1-8-4-9-8-2-9,8-10,14-11,23-2,45-3,66-12-12-2-22-13-24-25-1-8-2-16,4-22,1-1,4,0,5,0,13,7,23,19,38,22,3-27,3-53,9-80,0,0,2,1,3,2,10,18,11,38,12,57,14-28,20-59,20-90l-3-42c0-1,1-2,2-1,19,40,17,88,0,128,23-23,34-54,43-85,1-3,0,3,2,1-1,40-18,80-46,109h0Z"/>
  </g>
</svg>