<?xml version="1.0" encoding="UTF-8"?>
<svg id="Layer_2" data-name="Layer 2" xmlns="http://www.w3.org/2000/svg" viewBox="0 0 609.94 578.94">
  <defs>
    <style>
      .cls-1 {
        fill: none;
        stroke: #46d3a1;
        stroke-miterlimit: 10;
        stroke-width: 2px;
      }
    </style>
  </defs>
  <g id="images">
    <g>
      <path class="cls-1" d="m225.18,245.95c-47.64-25.26.36-242.46,158.4-133.6,221.16-75.26,137.16,170.74,8,236.8-58.04,118.74-169.64,227.94-146.4,132-52.04,88.74-200.26-28.5-135.01-184.68-145.04-156.18-50.24-172.98,50.21-119.32-59.64-65.66,140.76-111.26,256.8,9.6,212.76,11.14,243.96,38.74,116,74.4,84.76.34-19.64,67.54-139.2,73.6-46.04,44.34-178.04,91.14-170.4,41.6"/>
      <path class="cls-1" d="m339.99,194.18c25.26-47.64,242.46.36,133.6,158.4,75.26,221.16-170.74,137.16-236.8,8C118.05,302.54,8.85,190.94,104.79,214.18,16.05,162.14,133.29,13.92,289.47,79.18c156.18-145.04,172.98-50.24,119.32,50.21,65.66-59.64,111.26,140.76-9.6,256.8-11.14,212.76-38.74,243.96-74.4,116-.34,84.76-67.54-19.64-73.6-139.2-44.34-46.04-91.14-178.04-41.6-170.4"/>
      <path class="cls-1" d="m384.76,339.99c47.64,25.26-.36,242.46-158.4,133.6-221.16,75.26-137.16-170.74-8-236.8,58.04-118.74,169.64-227.94,146.4-132,52.04-88.74,200.26,28.5,135.01,184.68,145.04,156.18,50.24,172.98-50.21,119.32,59.64,65.66-140.76,111.26-256.8-9.6-212.76-11.14-243.96-38.74-116-74.4-84.76-.34,19.64-67.54,139.2-73.6,46.04-44.34,178.04-91.14,170.4-41.6"/>
      <path class="cls-1" d="m238.95,384.76c-25.26,47.64-242.46-.36-133.6-158.4C30.09,5.2,276.09,89.2,342.15,218.36c118.74,58.04,227.94,169.64,132,146.4,88.74,52.04-28.5,200.26-184.68,135.01-156.18,145.04-172.98,50.24-119.32-50.21-65.66,59.64-111.26-140.76,9.6-256.8,11.14-212.76,38.74-243.96,74.4-116,.34-84.76,67.54,19.64,73.6,139.2,44.34,46.04,91.14,178.04,41.6,170.4"/>
      <path class="cls-1" d="m229.75,325.09c-30.31,17.89-149.95-169.63,17.54-206.48,124.41-207.54,238.96,25.81,173.1,161.79,64.16,127.07,62.47,283.2-10.18,196.86,47.19,101.61-140.51,123.52-226.05-35.13-191.75-5.82-136.59-84.73-48.87-119.87-67.36-2.19,42.1-176.14,188.37-174.8C503.22,6.97,544.79,4.42,458.29,118.05c81.42-57.63,55.11,63.71-46.39,150.47,20.04,65.97-40.21,192.4-91.08,149.91"/>
      <path class="cls-1" d="m254.85,228.75c-17.89-30.31,169.63-149.95,206.48,17.54,207.54,124.41-25.81,238.96-161.79,173.1-127.07,64.16-283.2,62.47-196.86-10.18C1.07,456.39-20.84,268.69,137.8,183.15c5.82-191.75,84.73-136.59,119.87-48.87,2.19-67.36,176.14,42.1,174.8,188.37,140.5,179.56,143.05,221.14,29.42,134.63,57.63,81.42-63.71,55.11-150.47-46.39-65.97,20.04-192.4-40.21-149.91-91.08"/>
      <path class="cls-1" d="m350.19,253.85c30.31-17.89,149.95,169.63-17.54,206.48-124.41,207.54-238.96-25.81-173.1-161.79-64.16-127.07-62.47-283.2,10.18-196.86C122.55.07,310.25-21.84,395.79,136.8c191.75,5.82,136.59,84.73,48.87,119.87,67.36,2.19-42.1,176.14-188.37,174.8-179.56,140.5-221.14,143.05-134.63,29.42-81.42,57.63-55.11-63.71,46.39-150.47-20.04-65.97,40.21-192.4,91.08-149.91"/>
      <path class="cls-1" d="m326.1,350.19c17.89,30.31-169.63,149.95-206.48-17.54-207.54-124.41,25.81-238.96,161.79-173.1,127.07-64.16,283.2-62.47,196.86,10.18,101.61-47.19,123.52,140.51-35.13,226.05-5.82,191.75-84.73,136.59-119.87,48.87-2.19,67.36-176.14-42.1-174.8-188.37C7.97,76.73,5.42,35.15,119.05,121.66c-57.63-81.42,63.71-55.11,150.47,46.39,65.97-20.04,192.4,40.21,149.91,91.08"/>
    </g>
  </g>
</svg>